<?xml version="1.0" standalone="no"?>
<!DOCTYPE svg PUBLIC "-//W3C//DTD SVG 1.1//EN" "http://www.w3.org/Graphics/SVG/1.1/DTD/svg11.dtd" >
<svg xmlns="http://www.w3.org/2000/svg" xmlns:xlink="http://www.w3.org/1999/xlink" version="1.1">
<metadata>
Created by FontForge 20161013 at Mon Jun 17 09:10:00 2013
 By ,,,
2003 Morten Rostgaard Olsen, published by FontShop International for the FontFont library.
</metadata>
<defs>
<font id="YaraMaxLF-Book" horiz-adv-x="597" >
  <font-face 
    font-family="YaraMaxLF-Book"
    font-weight="400"
    font-stretch="normal"
    units-per-em="1000"
    panose-1="2 0 5 3 0 0 0 0 0 0"
    ascent="800"
    descent="-200"
    x-height="525"
    cap-height="752"
    bbox="-64 -220 1225 992"
    underline-thickness="50"
    underline-position="-200"
    unicode-range="U+0020-FFFD"
  />
<missing-glyph horiz-adv-x="1000" 
 />
    <glyph glyph-name=".notdef" unicode="&#xfffd;" horiz-adv-x="1000" 
 />
    <glyph glyph-name=".null" horiz-adv-x="0" 
 />
    <glyph glyph-name=".null" horiz-adv-x="0" 
 />
    <glyph glyph-name="nonmarkingreturn" horiz-adv-x="333" 
 />
    <glyph glyph-name="space" unicode=" " horiz-adv-x="310" 
 />
    <glyph glyph-name="exclam" unicode="!" horiz-adv-x="302" 
d="M216 740v-1l-12 -515q0 -11 -12 -11h-76q-12 0 -12 11l-12 493q0 15 15 17l95 18h2q12 0 12 -12zM215 17q0 -17 -16 -17h-89q-16 0 -16 17v115q0 17 16 17h89q16 0 16 -17v-115z" />
    <glyph glyph-name="quotedbl" unicode="&#x22;" horiz-adv-x="362" 
d="M153 727v-1l-16 -220q0 -5 -3.5 -9t-8.5 -4h-66q-13 0 -13 13v220q0 13 13 13h81q13 0 13 -12zM316 727v-1l-15 -220q-2 -13 -13 -13h-66q-5 0 -8.5 4t-3.5 9v220q0 5 3.5 9t8.5 4h81q13 0 13 -12z" />
    <glyph glyph-name="numbersign" unicode="#" horiz-adv-x="721" 
d="M642 537q0 -2 -1 -3l-11 -62q-2 -12 -14 -12h-96l-25 -152h94q14 0 14 -11v-3l-11 -62q-2 -12 -14 -12h-98l-35 -208q-2 -12 -14 -12h-61q-14 0 -14 12q0 2 1 4l33 204h-115l-35 -208q-2 -12 -14 -12h-61q-14 0 -14 12q0 2 1 4l33 204h-92q-14 0 -14 12v2l11 63
q2 11 14 11h96l26 152h-94q-14 0 -14 12v2l11 63q2 11 14 11h98l30 178q2 13 15 13h59q15 0 15 -11v-3l-30 -177h116l30 178q2 13 15 13h59q15 0 15 -11v-3l-30 -177h93q14 0 14 -11zM431 460h-116l-25 -152h115z" />
    <glyph glyph-name="dollar" unicode="$" horiz-adv-x="679" 
d="M626 215q0 -105 -63 -159t-170 -65v-101q0 -18 -17 -18h-64q-16 0 -16 18v99q-106 5 -210 36q-15 6 -15 19l1 2v2l14 60q3 11 16 11h3q1 0 22 -5t40.5 -9t48.5 -9t60.5 -8t61.5 -3q71 0 118.5 28t47.5 91q0 27 -10.5 47t-23.5 31t-42 20t-49.5 12.5t-61.5 9.5
q-42 6 -72 12.5t-67.5 21.5t-60.5 36t-39.5 57.5t-16.5 83.5q0 197 236 214v100q0 17 16 17h64q17 0 17 -17v-100q89 -6 188 -34q14 -5 14 -18q0 -4 -1 -5l-13 -58q-1 -11 -16 -11h-5q-136 31 -212 31q-167 0 -167 -107q0 -26 11 -46t26 -31.5t42.5 -20.5t47.5 -12.5
t55 -8.5q110 -16 151 -33q111 -46 111 -180z" />
    <glyph glyph-name="percent" unicode="%" horiz-adv-x="853" 
d="M835 180q0 -33 -3 -57.5t-13 -51.5t-28 -44t-49.5 -28.5t-74.5 -11.5q-44 0 -75.5 11.5t-49 28.5t-27.5 44t-13 51.5t-3 57.5t3 57t13 51t27.5 44t49 28.5t75.5 11.5q43 0 74.5 -11.5t49.5 -28.5t28 -44t13 -51.5t3 -56.5zM354 559q0 -33 -3 -57t-13 -51t-27.5 -44
t-49 -28.5t-75.5 -11.5q-43 0 -74.5 11.5t-49.5 28.5t-28 44t-13 51.5t-3 56.5q0 33 3 57.5t13 51.5t28 44t49.5 28.5t74.5 11.5q44 0 75.5 -11.5t49 -28.5t27.5 -44t13 -51.5t3 -57.5zM703 700q0 -1 -2 -5l-486 -695q-3 -3 -8 -3q-4 0 -5 1l-49 31q-4 4 -4 8q0 3 2 5
l487 695q1 4 7 4q3 0 5 -2l49 -31q4 -3 4 -8zM746 180q0 65 -15 93.5t-64 28.5q-50 0 -65 -28.5t-15 -93.5q0 -66 15 -94.5t65 -28.5q49 0 64 28.5t15 94.5zM266 559q0 66 -15.5 94.5t-64.5 28.5t-64 -28.5t-15 -94.5q0 -65 15 -93.5t64 -28.5t64.5 28.5t15.5 93.5z" />
    <glyph glyph-name="ampersand" unicode="&#x26;" horiz-adv-x="762" 
d="M741 19q0 -10 -10 -13q-57 -19 -124 -19q-82 0 -121.5 35.5t-39.5 114.5v206q-4 -7 -10 -8q-15 -2 -52 -5t-61 -6t-44 -8q-99 -25 -99 -111q0 -63 46 -92t116 -29q18 0 58 5h5q13 0 16 -12l8 -58v-6q0 -13 -12 -17q-30 -9 -86 -9q-42 0 -80 6t-74.5 21t-62.5 38t-42 59.5
t-16 83.5q0 43 14.5 76t31 49.5t45 28.5t40.5 14.5t33 5.5v26q-18 4 -31.5 7.5t-37.5 15.5t-39.5 28t-28 45.5t-12.5 67.5q0 98 71.5 145.5t186.5 47.5q51 0 104 -11q11 -3 11 -14q0 -5 -1 -8l-9 -60q-1 -11 -15 -11h-4q-57 6 -67 6q-155 0 -155 -109q0 -71 83 -98
q35 -11 160 -22q6 -1 10 -8v166q0 15 15 18l85 16q2 1 4 1q13 0 13 -16v-174l141 -10q15 -2 15 -15v-49q0 -13 -15 -15l-141 -11v-189q0 -36 16.5 -50.5t55.5 -14.5q31 0 80 11h4q9 0 11 -10l11 -52v-4z" />
    <glyph glyph-name="quotesingle" unicode="'" horiz-adv-x="201" 
d="M155 727v-1l-16 -244q0 -13 -12 -13h-68q-13 0 -13 13v244q0 13 13 13h83q13 0 13 -12z" />
    <glyph glyph-name="parenleft" unicode="(" horiz-adv-x="315" 
d="M273 -92q0 -7 -5 -10l-59 -41q-3 -3 -7 -3t-15 11q-64 80 -95.5 213.5t-31.5 257.5q0 123 31.5 257t95.5 213q9 11 15 11q4 0 7 -3l59 -41q5 -3 5 -9q0 -2 -2 -6q-101 -164 -101 -422q0 -259 101 -423q2 -4 2 -5z" />
    <glyph glyph-name="parenright" unicode=")" horiz-adv-x="315" 
d="M254 336q0 -124 -31.5 -257.5t-95.5 -213.5q-9 -11 -15 -11q-3 0 -6 3l-60 41q-4 4 -4 10q0 3 1 5q102 164 102 423q0 258 -102 422q-1 2 -1 6q0 5 4 9l60 41q3 3 6 3q7 0 15 -11q64 -79 95.5 -213t31.5 -257z" />
    <glyph glyph-name="asterisk" unicode="*" horiz-adv-x="729" 
d="M586 519q0 -12 -13 -12h-1l-148 7l98 -106q4 -4 4 -9q0 -7 -6 -10l-53 -39q-5 -3 -8 -3q-7 0 -11 6l-82 122l-83 -122q-4 -6 -11 -6q-4 0 -8 3l-53 39q-6 3 -6 10q0 5 4 9l96 106l-147 -7h-1q-14 0 -14 12v64q0 13 13 13h2l147 -11l-97 106q-4 4 -4 9q0 7 6 10l53 39
q5 3 8 3q7 0 11 -6l83 -122l82 122q4 6 11 6q4 0 8 -3l53 -39q6 -3 6 -10q0 -5 -4 -9l-96 -106l146 11h2q13 0 13 -13v-64z" />
    <glyph glyph-name="plus" unicode="+" 
d="M548 297q0 -16 -18 -16h-183v-183q0 -18 -16 -18h-64q-16 0 -16 17v183h-184q-17 0 -17 17v56q0 16 17 16h183v184q0 18 17 18l63 -1q17 0 17 -17v-183h183q18 0 18 -17v-56z" />
    <glyph glyph-name="comma" unicode="," horiz-adv-x="350" 
d="M243 116v-3l-37 -210q-1 -13 -15 -13h-70q-14 0 -14 11q0 1 1 2l17 209q1 13 15 13h89q14 0 14 -9z" />
    <glyph glyph-name="hyphen" unicode="-" horiz-adv-x="399" 
d="M351 246q0 -7 -5.5 -12t-12.5 -5h-266q-19 0 -19 17v56q0 7 5.5 12t13.5 5h266q7 0 12.5 -5t5.5 -12v-56z" />
    <glyph glyph-name="period" unicode="." horiz-adv-x="350" 
d="M247 100v-84q0 -16 -18 -16h-107q-19 0 -19 16v84q0 16 19 16h107q18 0 18 -16z" />
    <glyph glyph-name="slash" unicode="/" horiz-adv-x="361" 
d="M335 772v-3l-219 -816q-2 -8 -11 -8h-3l-68 16q-8 2 -8 10v3l219 816q2 8 11 8h3l68 -15q8 -3 8 -11z" />
    <glyph glyph-name="zero" unicode="0" horiz-adv-x="755" 
d="M699 369q0 -66 -5.5 -114.5t-25 -102t-53 -87.5t-94 -56t-143.5 -22t-143.5 22t-94.5 56t-53.5 87t-25 102t-5.5 115t5.5 115t25 102.5t53.5 87.5t94.5 56t143.5 22t143.5 -22t94 -56t53 -87.5t25 -102.5t5.5 -115zM573 370q0 61 -4 102t-16 79t-33.5 60t-56.5 35t-86 13
t-86 -13t-56 -35t-33 -60t-15.5 -79t-3.5 -102t3.5 -102t15.5 -79.5t33 -60.5t56 -35t86 -13q63 0 102.5 18t59.5 58.5t27 88.5t7 125z" />
    <glyph glyph-name="one" unicode="1" horiz-adv-x="376" 
d="M274 742v-728q0 -14 -14 -14h-91q-15 0 -15 14v613l-119 9q-14 0 -14 11v62q0 10 14 12l228 31h1q4 0 7 -3.5t3 -6.5z" />
    <glyph glyph-name="two" unicode="2" horiz-adv-x="673" 
d="M621 85v-71q0 -14 -14 -14h-509q-16 0 -16 14l-2 76v6q0 56 42 92q28 24 99.5 75.5t72.5 52.5q4 3 22.5 16t26 19t25 19.5t26.5 22.5t23.5 22.5t22 25t16 25.5t12 27.5t3.5 27.5q0 77 -44 105.5t-126 28.5q-86 0 -213 -34h-3q-13 0 -16 12l-13 59v5q0 13 13 16
q16 7 43.5 14.5t86 16t121.5 8.5q276 0 276 -232q0 -46 -17.5 -86.5t-54.5 -76.5t-66.5 -58t-81.5 -57l-178 -120v-25l409 2q14 0 14 -14z" />
    <glyph glyph-name="three" unicode="3" horiz-adv-x="662" 
d="M605 195q0 -58 -23.5 -100.5t-64.5 -65t-87 -32.5t-100 -10q-75 0 -144.5 12t-101.5 25q-14 5 -14 16q0 1 0.5 2.5t0.5 2.5l14 59q3 12 15 12q1 0 3 -0.5t3 -0.5q103 -32 214 -32q70 0 115.5 29t45.5 93q0 31 -9.5 53t-26.5 34.5t-42.5 20.5t-54 11.5t-64.5 7.5l-33 3
q-17 2 -17 15v58q0 14 17 17q34 3 51 5t44.5 6t41.5 9t32 14t26.5 20.5t15 28t6.5 37.5q0 110 -155 110q-98 0 -223 -37q-1 0 -3 -0.5t-3 -0.5q-11 0 -14 12l-14 58q-1 3 -1 8q0 10 12 16q35 15 107 28t157 13q116 0 188 -47t72 -146q0 -46 -16.5 -79.5t-45 -50t-46.5 -23
t-42 -11.5v-26q15 -2 22 -3.5t27.5 -7t32.5 -12.5t29.5 -20.5t27.5 -30t17.5 -43t7.5 -57.5z" />
    <glyph glyph-name="four" unicode="4" horiz-adv-x="746" 
d="M690 256v-64q0 -6 -4.5 -10.5t-11.5 -4.5h-93v-163q0 -6 -4.5 -10t-9.5 -4h-92q-14 0 -14 14v163h-389q-16 0 -16 15v77q0 9 3 14l307 449q7 7 12 7h188q15 0 15 -14v-453h93q16 0 16 -16zM461 271v380h-32l-259 -380h291z" />
    <glyph glyph-name="five" unicode="5" horiz-adv-x="649" 
d="M593 222q0 -64 -23 -111t-64 -73t-89.5 -38.5t-106.5 -12.5q-83 0 -149.5 9t-84.5 16q-11 6 -11 15v4l11 60q2 12 13 12h3q97 -20 197 -20q180 0 180 140q0 58 -40.5 98t-126.5 40q-25 0 -52 -2.5t-53 -7.5t-43.5 -9t-40 -9.5t-25.5 -6.5h-5q-12 0 -18 8q-9 9 -9 16v1
l25 377q1 4 5 7.5t8 3.5h451q16 0 16 -16v-66q0 -16 -16 -16h-361l-13 -207q83 23 147 23q54 0 100.5 -11.5t87 -37.5t64 -73.5t23.5 -112.5z" />
    <glyph glyph-name="six" unicode="6" horiz-adv-x="701" 
d="M645 231q0 -128 -79 -186t-212 -58q-88 0 -146.5 22.5t-91.5 72t-46.5 117t-13.5 168.5v5q0 71 6.5 122.5t27.5 103t56.5 83.5t96 51.5t143.5 19.5q96 0 202 -25q12 -3 12 -12v-3l-14 -69q-2 -10 -12 -10l-1 1h-2q-96 21 -186 21q-108 0 -156.5 -49.5t-51.5 -163.5
q119 34 195 34q125 0 199 -58.5t74 -186.5zM521 232q0 151 -166 151q-92 0 -176 -31l-1 -16v-19q0 -126 39 -182t136 -56q86 0 127 36.5t41 116.5z" />
    <glyph glyph-name="seven" unicode="7" horiz-adv-x="628" 
d="M591 649q0 -15 -8 -26q-116 -149 -189.5 -291.5t-133.5 -317.5q-5 -14 -18 -14h-94q-18 0 -18 14v1q1 1 1 2q50 153 142 325t199 298h-435q-16 0 -16 16v67q0 16 16 16h538q7 0 11.5 -5t4.5 -11v-74z" />
    <glyph glyph-name="eight" unicode="8" horiz-adv-x="730" 
d="M674 202q0 -109 -76 -162t-233 -53q-309 0 -309 215q0 79 53.5 119.5t118.5 43.5v30q-1 0 -14.5 2t-25.5 5t-30 9t-32.5 17.5t-28 27.5t-21 40.5t-7.5 55.5q0 56 25 97t68.5 62.5t93.5 31t109 9.5t108.5 -9.5t93.5 -31t68.5 -62t24.5 -97.5q0 -137 -158 -157v-30
q71 -7 121.5 -46t50.5 -117zM551 206q0 48 -29.5 77.5t-68.5 39t-89 9.5q-185 0 -185 -126q0 -128 187 -126q93 0 139 29.5t46 96.5zM540 543q0 64 -44.5 90.5t-129.5 26.5q-86 0 -131 -26.5t-45 -90.5q0 -117 174 -117q176 0 176 117z" />
    <glyph glyph-name="nine" unicode="9" horiz-adv-x="701" 
d="M645 369q0 -6 -0.5 -18t-0.5 -18q-1 -179 -73.5 -262.5t-247.5 -83.5q-125 0 -197 24q-12 3 -12 13v2l12 67q2 11 13 11q2 0 2 -1q100 -20 183 -20q106 0 152 49.5t49 164.5q-123 -35 -196 -35q-125 0 -199 59t-74 187t79 186t212 58q89 0 148 -23.5t91.5 -74.5
t45.5 -117.5t13 -164.5v-3zM523 422q0 126 -39 181.5t-136 55.5q-86 0 -127 -36t-41 -116q0 -151 166 -151q90 0 176 30v16q1 7 1 20z" />
    <glyph glyph-name="colon" unicode=":" horiz-adv-x="350" 
d="M243 423q0 -7 -5 -12t-12 -5h-101q-17 0 -17 17v85q0 17 17 17h101q7 0 12 -5t5 -12v-85zM243 17q0 -7 -5 -12t-12 -5h-101q-17 0 -17 17v85q0 17 17 17h101q7 0 12 -5t5 -12v-85z" />
    <glyph glyph-name="semicolon" unicode=";" horiz-adv-x="350" 
d="M240 116q0 -2 -1 -3l-36 -210q-1 -5 -2 -7.5t-4 -4t-9 -1.5h-70q-14 0 -14 11v2l18 209q0 13 14 13h90q14 0 14 -9zM246 423q0 -17 -16 -17h-102q-7 0 -12 5t-5 12v85q0 7 5 12t12 5h102q16 0 16 -17v-85z" />
    <glyph glyph-name="less" unicode="&#x3c;" 
d="M544 508q0 -6 -7 -10l-377 -182l377 -182q7 -4 7 -11q0 -3 -1 -5l-32 -61q-3 -7 -11 -7q-2 0 -6 2l-432 222q-8 3 -8 12v57q0 10 9 14l431 223q4 2 6 2q8 0 11 -7l32 -61q1 -2 1 -6z" />
    <glyph glyph-name="equal" unicode="=" 
d="M524 379q0 -7 -5.5 -12t-12.5 -5h-414q-18 0 -18 17v59q0 17 18 17h414q18 0 18 -17v-59zM524 263v-59q0 -17 -18 -17h-414q-18 0 -18 17v59q0 17 18 17h414q18 0 18 -17z" />
    <glyph glyph-name="greater" unicode="&#x3e;" 
d="M543 286q0 -9 -8 -12l-431 -222q-4 -2 -7 -2q-7 0 -10 7l-32 61q-1 2 -1 5q0 7 7 11l377 182l-377 182q-7 4 -7 10q0 4 1 6l32 61q3 7 10 7q3 0 7 -2l431 -223q8 -3 8 -14v-57z" />
    <glyph glyph-name="question" unicode="?" 
d="M531 574q0 -15 -2.5 -29.5t-7.5 -27t-10 -22t-14.5 -20t-15 -17t-16.5 -15t-15.5 -12t-16 -11.5t-13.5 -9q-8 -5 -27 -16.5t-29 -19t-23 -20t-19 -27.5t-6 -34q0 -26 5 -61v-3q0 -13 -18 -13h-76q-9 0 -12 2.5t-5 11.5q-7 35 -7 65q0 16 1.5 30t6 26.5t7 21.5t12 19
t13 15.5t17 15.5t17.5 13.5t21 14.5t22 15q2 1 13 8t16.5 11t16 12t16.5 15.5t12.5 17t9.5 20.5t3 23q0 85 -135 85q-50 0 -169 -25q-4 -1 -10 -1q-9 0 -12 12l-13 54q0 1 -0.5 3t-0.5 4q0 9 13 14q23 9 83.5 20.5t122.5 11.5q51 0 93 -8.5t77 -28t55 -55.5t20 -86zM330 17
q0 -17 -17 -17h-88q-17 0 -17 17v115q0 17 17 17h88q17 0 17 -17v-115z" />
    <glyph glyph-name="at" unicode="@" horiz-adv-x="911" 
d="M852 369q0 -48 -5 -98q-2 -16 -18 -16h-46q-17 0 -17 17v2q5 47 5 95q0 88 -14 145t-48 93q-68 71 -254 71q-183 0 -252 -69q-64 -64 -64 -240q0 -86 13 -140.5t47.5 -94.5t96.5 -57t159 -17q32 0 104 7h2q7 0 11.5 -5.5t4.5 -11.5v-40q0 -15 -16 -17q-64 -6 -106 -6
q-116 0 -193.5 22.5t-122 72t-63 118t-18.5 169.5t18.5 169.5t63 118t122 72.5t193.5 23t193.5 -23t122.5 -72.5t63 -118t18 -169.5zM637 245q0 -43 -14.5 -59t-57.5 -25q-48 -11 -107 -11q-30 0 -50 1.5t-48.5 9t-46 20.5t-30.5 39.5t-13 63.5q0 70 38 96q25 18 94 30
l141 23v27q0 37 -23 48q-17 8 -63 8q-41 0 -139 -22q-1 0 -3 -0.5t-3 -0.5q-9 0 -10 9l-10 43v4q0 9 11 13q71 26 169 26q81 0 118 -21q47 -27 47 -104v-218zM546 228v140l-115 -19q-18 -3 -27 -5.5t-19.5 -8.5t-14.5 -18t-4 -30q0 -43 26.5 -57t68.5 -14q47 0 85 12z" />
    <glyph glyph-name="A" unicode="A" horiz-adv-x="733" 
d="M720 13q0 -13 -12 -13h-97q-12 0 -17 12l-92 278h-273l-91 -280q-4 -10 -16 -10h-96q-13 0 -13 13l1 2v3l246 708q6 13 18 13h181q12 0 18 -13l242 -708q1 -2 1 -5zM475 384l-89 265h-43l-87 -265h219z" />
    <glyph glyph-name="B" unicode="B" horiz-adv-x="738" 
d="M691 193q0 -193 -258 -193h-325q-7 0 -12 4.5t-5 11.5v707q0 7 5 11.5t12 4.5h339q116 0 168 -44t52 -137q0 -74 -37 -111t-103 -50v-31q81 -9 122.5 -49t41.5 -124zM566 206q0 66 -30.5 94.5t-112.5 30.5l-210 6v-245h212q141 0 141 114zM544 539q0 56 -27.5 82
t-86.5 26h-217v-229l208 8q63 3 93 28.5t30 84.5z" />
    <glyph glyph-name="C" unicode="C" horiz-adv-x="672" 
d="M634 46q0 -12 -17 -17q-110 -35 -232 -35q-182 0 -255.5 90.5t-73.5 286.5q0 197 73 287t256 90q118 0 232 -36q17 -5 17 -17q0 -2 -0.5 -4t-0.5 -3l-11 -55q-3 -13 -15 -13q-2 0 -10 2q-109 30 -196 30q-129 0 -174.5 -63.5t-45.5 -216.5q0 -154 45.5 -218t174.5 -64
q94 0 196 28q8 2 10 2q12 0 15 -13l11 -54q0 -1 0.5 -3t0.5 -4z" />
    <glyph glyph-name="D" unicode="D" horiz-adv-x="790" 
d="M734 370q0 -110 -19.5 -182t-63.5 -113.5t-104.5 -58t-152.5 -16.5h-287q-6 0 -11 4.5t-5 11.5v707q0 7 5 11.5t11 4.5h287q92 0 152.5 -16.5t104.5 -58t63.5 -113.5t19.5 -181zM610 371q0 89 -12.5 144t-43.5 84t-70 38.5t-105 9.5h-166v-555h166q65 0 104.5 10
t70.5 39.5t43.5 85t12.5 144.5z" />
    <glyph glyph-name="E" unicode="E" horiz-adv-x="652" 
d="M592 16q0 -16 -16 -16h-468q-7 0 -12 4.5t-5 11.5v707q0 7 5 11.5t12 4.5h468q16 0 16 -16v-65q0 -6 -4.5 -10.5t-11.5 -4.5h-363v-212h348q7 0 11.5 -4.5t4.5 -10.5v-66q0 -16 -16 -16h-348v-239h363q16 0 16 -15v-64z" />
    <glyph glyph-name="F" unicode="F" horiz-adv-x="594" 
d="M569 657q0 -16 -16 -16h-340v-257h308q7 0 11.5 -4.5t4.5 -10.5v-68q0 -16 -16 -16h-308v-269q0 -7 -5 -11.5t-12 -4.5h-88q-7 0 -12 4.5t-5 11.5v707q0 7 5 11.5t12 4.5h445q16 0 16 -16v-66z" />
    <glyph glyph-name="G" unicode="G" horiz-adv-x="760" 
d="M687 693q0 -1 -0.5 -3.5t-0.5 -4.5l-12 -54q-3 -12 -15 -12q-4 0 -10 2q-5 1 -35 8.5t-52.5 12.5t-62.5 9.5t-78 4.5q-137 0 -188.5 -63t-51.5 -226q0 -166 52 -227t195 -61q31 0 64.5 3.5t51.5 7.5l17 4v230l-126 15q-12 2 -12 11v68q0 11 13 11h231q14 0 14 -15v-306
q0 -44 -10 -64t-44 -31q-76 -26 -203 -26q-206 0 -287 85t-81 297q0 201 77.5 292t271.5 91q64 0 128.5 -9.5t92.5 -17.5t44 -14q17 -6 17 -18z" />
    <glyph glyph-name="H" unicode="H" horiz-adv-x="815" 
d="M724 15q0 -6 -5 -10.5t-12 -4.5h-89q-7 0 -11.5 4.5t-4.5 10.5v317h-389v-317q0 -6 -4.5 -10.5t-11.5 -4.5h-89q-7 0 -12 4.5t-5 10.5v710q0 11 14 14l94 13h2q12 0 12 -14v-307h389v294q0 11 14 14l94 13h2q12 0 12 -14v-723z" />
    <glyph glyph-name="I" unicode="I" horiz-adv-x="304" 
d="M213 15q0 -6 -4.5 -10.5t-11.5 -4.5h-89q-7 0 -12 4.5t-5 10.5v710q0 11 14 14l94 13h2q12 0 12 -14v-723z" />
    <glyph glyph-name="J" unicode="J" horiz-adv-x="309" 
d="M219 -31q0 -91 -47.5 -128t-138.5 -37q-34 0 -79 3q-18 2 -18 17v46q0 17 16 17q9 0 51 2q52 2 73 16.5t21 64.5v755q0 11 14 14l94 13h2q12 0 12 -14v-769z" />
    <glyph glyph-name="K" unicode="K" horiz-adv-x="678" 
d="M675 12q0 -4 -3.5 -8t-7.5 -4h-128q-10 0 -15 7l-266 318h-42v-310q0 -15 -16 -15h-89q-7 0 -12 4.5t-5 10.5v709q0 6 5 10.5t12 4.5h89q7 0 11.5 -4.5t4.5 -10.5v-300h42l255 308q5 7 14 7l116 -2q4 0 7.5 -4t3.5 -8t-3 -7l-292 -339l316 -360q3 -3 3 -7z" />
    <glyph glyph-name="L" unicode="L" horiz-adv-x="593" 
d="M577 16q0 -16 -16 -16h-453q-7 0 -12 4.5t-5 10.5v710q0 11 14 14l94 13h2q12 0 12 -14v-638h348q16 0 16 -16v-68z" />
    <glyph glyph-name="M" unicode="M" horiz-adv-x="1018" 
d="M947 16q0 -7 -5.5 -11.5t-12.5 -4.5h-86q-16 0 -18 17l-49 631h-34l-160 -494q-6 -17 -20 -17h-117q-14 0 -20 17l-152 494h-35l-51 -631q0 -7 -5 -12t-12 -5h-81q-7 0 -12 4.5t-5 11.5v1l58 705q2 17 18 17h203q14 0 20 -17l137 -469h5l139 469q4 17 20 17h196
q18 0 18 -17l61 -705v-1z" />
    <glyph glyph-name="N" unicode="N" horiz-adv-x="849" 
d="M757 15q0 -6 -4.5 -10.5t-11.5 -4.5h-189q-11 0 -19 16l-292 628h-34l5 -629q1 -6 -4 -10.5t-12 -4.5h-88q-7 0 -12 4.5t-5 10.5v709q0 6 5 10.5t12 4.5h207q13 0 20 -15l294 -645h12l-4 645q0 15 17 15h86q17 0 17 -15v-709z" />
    <glyph glyph-name="O" unicode="O" horiz-adv-x="797" 
d="M741 370q0 -60 -5.5 -107.5t-19.5 -92.5t-39 -77t-62 -57t-91.5 -37t-124.5 -12q-84 0 -145.5 18.5t-99 50t-60 82t-30.5 105t-8 127.5t8 127t30.5 104.5t60 82t99 50t145.5 18.5q70 0 124.5 -12t91.5 -37t62 -57t39 -77t19.5 -92t5.5 -107zM615 370q0 78 -6.5 124
t-28 87t-66 59t-116.5 18q-58 0 -98 -13t-63 -34.5t-35.5 -61t-16 -78.5t-3.5 -101t3.5 -101.5t16 -79t35.5 -60.5t63 -34.5t98 -13.5t98 13.5t63.5 35t36 60.5t16 78.5t3.5 101.5z" />
    <glyph glyph-name="P" unicode="P" horiz-adv-x="710" 
d="M676 516q0 -115 -54 -170q-59 -59 -219 -59h-20l-170 2v-274q0 -6 -4.5 -10.5t-11.5 -4.5h-89q-7 0 -12 4.5t-5 10.5v708q0 7 5 11.5t12 4.5h333q128 0 183 -56q52 -54 52 -167zM551 516q0 71 -32 101q-31 30 -124 30h-182v-277l148 6q44 1 66.5 3t48.5 9t41 21
q34 31 34 107z" />
    <glyph glyph-name="Q" unicode="Q" horiz-adv-x="797" 
d="M741 370q0 -87 -11.5 -149t-42.5 -115t-90.5 -82.5t-149.5 -34.5l18 -86h171q15 0 15 -15v-68q0 -16 -15 -16h-138q-33 0 -58 12t-40 27.5t-27.5 44.5t-18 48t-13.5 53q-70 6 -120.5 27.5t-82 54t-50 80.5t-25.5 99.5t-7 119.5q0 73 8 127t30.5 104.5t60 82t99 50
t145.5 18.5q70 0 124.5 -12t91.5 -37t62 -57t39 -77t19.5 -92t5.5 -107zM615 370q0 78 -6.5 124t-28 87t-66 59t-116.5 18q-58 0 -98 -13t-63 -34.5t-35.5 -61t-16 -78.5t-3.5 -101t3.5 -101.5t16 -79t35.5 -60.5t63 -34.5t98 -13.5t98 13.5t63.5 35t36 60.5t16 78.5
t3.5 101.5z" />
    <glyph glyph-name="R" unicode="R" horiz-adv-x="754" 
d="M691 16q0 -5 -3.5 -10.5t-9.5 -5.5h-92q-16 0 -17 14l-9 160q-4 63 -44.5 89.5t-120.5 28.5l-182 5v-282q0 -6 -4.5 -10.5t-11.5 -4.5h-89q-7 0 -12 4.5t-5 10.5v708q0 7 5 11.5t12 4.5h331q118 0 178.5 -47.5t60.5 -157.5q0 -82 -37 -125t-126 -54v-27q40 -3 65 -9.5
t50.5 -24t38.5 -52t16 -88.5zM554 515q0 68 -29 100t-97 32h-215v-268l180 7q80 3 120.5 29.5t40.5 99.5z" />
    <glyph glyph-name="S" unicode="S" horiz-adv-x="674" 
d="M618 214q0 -51 -16.5 -91t-43.5 -64.5t-65.5 -40.5t-78.5 -22.5t-87 -6.5q-140 0 -243 36q-15 5 -15 19q0 3 1 4l12 58q3 12 16 12q3 0 5 -1q1 0 29 -6.5t53.5 -11.5t66 -10t75.5 -5q73 0 120 28t47 93q0 23 -5.5 40t-20 29t-26 19t-38.5 13.5t-42 9t-50 7.5
q-41 6 -69.5 11.5t-66 21t-60 36.5t-39 57.5t-16.5 85.5q0 215 281 215q108 0 233 -34q16 -4 16 -19v-5l-13 -58q-2 -11 -16 -11h-2q-4 1 -26 6t-38.5 8.5t-41.5 7.5t-52.5 6.5t-54.5 2.5q-165 0 -165 -107q0 -26 11 -46t25.5 -31t43 -20t47.5 -12.5t55 -9.5
q111 -15 155 -35q99 -47 99 -179z" />
    <glyph glyph-name="T" unicode="T" horiz-adv-x="634" 
d="M629 658q0 -6 -4.5 -10.5t-11.5 -4.5h-235v-628q0 -6 -4.5 -10.5t-11.5 -4.5h-89q-7 0 -11.5 4.5t-4.5 10.5v628h-236q-16 0 -16 16v64q0 16 16 16h592q16 0 16 -16v-65z" />
    <glyph glyph-name="U" unicode="U" horiz-adv-x="776" 
d="M695 264q0 -65 -14 -113t-47.5 -86.5t-95 -58t-150.5 -19.5q-163 0 -235 66.5t-72 206.5v465q0 11 14 13l94 14h2q12 0 12 -14v-485q0 -88 39 -130t147 -42q97 0 140.5 37.5t43.5 121.5v485q0 11 14 13l94 14h3q11 0 11 -14v-474z" />
    <glyph glyph-name="V" unicode="V" horiz-adv-x="711" 
d="M695 725v-4l-225 -705q-5 -16 -19 -16h-181q-14 0 -19 16l-234 704q-1 1 -1 4q0 5 4 10t8 5h99q15 0 19 -13l195 -635h38l186 635q4 13 20 13h99q11 0 11 -14z" />
    <glyph glyph-name="W" unicode="W" horiz-adv-x="1059" 
d="M1028 724v-3l-144 -705q-4 -16 -20 -16h-182q-16 0 -20 16l-134 569l-135 -569q-4 -16 -20 -16h-178q-16 0 -20 16l-144 704v3q0 6 3.5 11t8.5 5h96q18 0 19 -13l112 -633h34l136 570q4 16 20 16h143q15 0 19 -16l135 -570h33l113 633q2 13 20 13h94q11 0 11 -15z" />
    <glyph glyph-name="X" unicode="X" horiz-adv-x="700" 
d="M696 12q0 -12 -13 -12h-111q-12 0 -16 9l-207 316l-211 -317q-6 -8 -15 -8h-107q-12 0 -12 14v2l1 2l258 367l-234 334q-1 2 -1 5q0 6 4 10.5t8 4.5h111q12 0 19 -13l184 -279l179 280q7 12 19 12h103q12 0 12 -14q0 -4 -1 -6l-226 -331l254 -370q2 -2 2 -6z" />
    <glyph glyph-name="Y" unicode="Y" horiz-adv-x="667" 
d="M672 725q0 -4 -1 -6l-275 -425v-279q0 -6 -5 -10.5t-12 -4.5h-89q-7 0 -11.5 4.5t-4.5 10.5v279l-277 425q-2 4 -2 5q0 6 4.5 10.5t8.5 4.5h108q12 0 19 -13l203 -332l198 333q7 12 19 12h105q12 0 12 -14z" />
    <glyph glyph-name="Z" unicode="Z" horiz-adv-x="659" 
d="M618 16q0 -16 -15 -16h-542q-7 0 -11.5 4.5t-4.5 10.5v61q0 15 11 29l403 538h-402q-16 0 -16 16v64q0 16 16 16h535q15 0 15 -16v-68q0 -12 -7 -22l-409 -536h412q6 0 10.5 -4.5t4.5 -11.5v-65z" />
    <glyph glyph-name="bracketleft" unicode="[" horiz-adv-x="328" 
d="M269 -79q0 -1 -0.5 -2.5t-0.5 -2.5l-23 -55q-3 -8 -10 -8q-2 0 -3 1l-148 42q-11 2 -11 17v845q0 13 11 17l147 42q1 1 4 1q7 0 10 -8l23 -55q0 -1 0.5 -2t0.5 -2q0 -8 -7 -10l-85 -37v-737l85 -37q7 -2 7 -9z" />
    <glyph glyph-name="backslash" unicode="\" horiz-adv-x="296" 
d="M348 -82q0 -7 -7 -10l-72 -25q-1 -1 -4 -1q-8 0 -10 8l-307 884v4q0 7 7 10l72 25q1 1 4 1q8 0 10 -8l307 -884v-4z" />
    <glyph glyph-name="bracketright" unicode="]" horiz-adv-x="328" 
d="M255 -87q0 -15 -11 -17l-147 -42q-2 -1 -4 -1q-7 0 -10 8l-23 55q0 1 -0.5 2.5t-0.5 2.5q0 7 7 9l85 37v737l-84 37q-7 2 -7 10v4l23 55q3 8 10 8q3 0 4 -1l147 -42q11 -4 11 -17v-845z" />
    <glyph glyph-name="asciicircum" unicode="^" 
d="M559 320q0 -7 -7 -10l-61 -29q-2 -1 -6 -1q-9 0 -12 7l-175 354l-174 -354q-2 -7 -11 -7q-4 0 -6 1l-62 29q-6 3 -6 10q0 5 2 7l210 404q5 8 15 8h66q11 0 14 -8l211 -404q2 -4 2 -7z" />
    <glyph glyph-name="underscore" unicode="_" horiz-adv-x="519" 
d="M519 -125h-519v57h519v-57z" />
    <glyph glyph-name="grave" unicode="`" horiz-adv-x="347" 
d="M275 648q0 -4 -2 -5l-36 -47q-3 -4 -8 -4t-6 2l-148 102q-4 4 -4 7q0 2 2 6l39 50q4 4 8 4q5 0 6 -2l145 -105q4 -3 4 -8z" />
    <glyph glyph-name="a" unicode="a" horiz-adv-x="566" 
d="M503 105q0 -53 -17.5 -72.5t-71.5 -31.5q-58 -14 -135 -14q-38 0 -64 2t-61.5 11.5t-57.5 26t-38 49.5t-16 79q0 38 10 65.5t22 42t39 25.5t43 14.5t52 9.5l182 30v37q0 27 -5.5 41.5t-25.5 22.5q-24 10 -82 10t-177 -28q-1 0 -3 -0.5t-4 -0.5q-9 0 -10 8l-12 56v3
q0 10 11 14q92 33 215 33q100 0 149 -27q35 -20 46 -50.5t11 -78.5v-277zM390 81v182l-147 -24q-24 -4 -33 -6.5t-24.5 -10.5t-21.5 -24t-6 -41q0 -31 11 -50.5t31.5 -28t38.5 -11t43 -2.5q62 0 108 16z" />
    <glyph glyph-name="b" unicode="b" horiz-adv-x="584" 
d="M542 267q0 -151 -51 -215.5t-191 -64.5q-102 0 -177 23q-36 12 -45.5 29.5t-9.5 53.5v625q0 15 15 18l82 16h3q14 0 14 -15v-166l-11 -59q85 26 156 26q119 0 167 -62t48 -209zM426 264q0 115 -24 153t-97 38q-23 0 -54 -4.5t-50 -9.5l-19 -5v-354q46 -14 111 -14
q76 0 104.5 41t28.5 155z" />
    <glyph glyph-name="c" unicode="c" horiz-adv-x="492" 
d="M459 29q0 -9 -11 -14q-20 -10 -67.5 -18t-94.5 -8q-139 0 -191.5 64.5t-52.5 209.5t52.5 210t191.5 65q47 0 94.5 -8t67.5 -18q11 -6 11 -15q0 -3 -1 -5l-9 -47q-3 -11 -14 -11q-4 0 -6 1q-73 20 -125 20q-84 0 -115 -41.5t-31 -150.5q0 -108 31.5 -149.5t114.5 -41.5
q55 0 125 19h6q11 0 14 -11l9 -45q1 -2 1 -6z" />
    <glyph glyph-name="d" unicode="d" horiz-adv-x="584" 
d="M516 86q0 -20 -2.5 -31.5t-17 -25.5t-42.5 -21q-82 -21 -161 -21q-144 0 -197.5 61t-53.5 213q0 144 49 210.5t177 66.5q69 0 145 -19l-10 59v140q0 15 15 18l81 16h4q13 0 13 -15v-651zM403 83v359q-55 14 -111 14q-52 0 -78.5 -13t-41 -55t-14.5 -124q0 -65 8 -104.5
t27 -59t41.5 -25.5t60.5 -6q26 0 53 3.5t41 7.5z" />
    <glyph glyph-name="e" unicode="e" horiz-adv-x="570" 
d="M523 272q0 -33 -1 -48q0 -19 -17 -19h-348q1 -66 37 -100q37 -36 129 -36q54 0 143 24q2 1 5 1q9 0 13 -12l12 -46q1 -1 1 -4q0 -8 -11 -14q-76 -31 -178 -31q-145 0 -205.5 64.5t-60.5 209.5t51 211t191 66q144 0 198 -80q41 -58 41 -186zM408 284q0 61 -9 95
q-11 43 -37.5 60.5t-77.5 17.5q-55 0 -81.5 -17t-36.5 -59q-7 -27 -9 -98z" />
    <glyph glyph-name="f" unicode="f" horiz-adv-x="381" 
d="M397 722v-2l-7 -50q-3 -12 -12 -12h-3q-57 10 -85 10q-40 0 -56 -13q-18 -13 -18 -49v-81h139q15 0 15 -15v-55q0 -15 -15 -15h-139v-425q0 -15 -15 -15h-82q-16 0 -16 15v425h-78q-15 0 -15 15v55q0 15 15 15h78v79q0 76 38.5 112t118.5 36q64 0 125 -16q12 -3 12 -14z
" />
    <glyph glyph-name="g" unicode="g" horiz-adv-x="591" 
d="M590 468q0 -3 -6 -8q-32 -22 -70 -22q-8 0 -41 6q41 -35 41 -99q0 -94 -57.5 -133.5t-161.5 -39.5q-21 0 -38 -0.5t-29 -0.5q-56 0 -56 -46q0 -28 18 -37.5t56 -9.5h125q175 0 175 -128q0 -170 -251 -170q-131 0 -190.5 29t-59.5 102q0 30 9 50t29 31t31 14.5t36 8.5v14
q-3 1 -14.5 3.5t-15 3t-13 3.5t-13 5.5l-10.5 7.5t-9.5 10.5t-6.5 13.5t-5 18t-1 22q0 44 25.5 61.5t81.5 26.5q-23 7 -36 13.5t-33.5 22t-30.5 43.5t-10 68q0 100 59.5 143.5t168.5 43.5q56 0 127 -20q15 -4 38 -4q26 0 47 6q24 8 52 22q1 0 4 1.5t4 1.5q5 0 8 -8l21 -63
q2 -4 2 -6zM406 355q0 59 -29 85.5t-89 26.5t-88.5 -26.5t-28.5 -85.5t28.5 -85t88.5 -26t89 26t29 85zM435 -66q0 36 -23 46.5t-65 10.5h-104q-88 0 -88 -66q0 -42 35.5 -56.5t106.5 -14.5q138 0 138 80z" />
    <glyph glyph-name="h" unicode="h" horiz-adv-x="589" 
d="M526 15q0 -15 -15 -15h-82q-16 0 -16 15v363q0 42 -17.5 60t-62.5 18q-33 0 -71 -5t-59 -10l-21 -5v-421q0 -15 -15 -15h-83q-16 0 -16 15v703q0 15 16 18l81 16h3q14 0 14 -15v-165l-11 -60q97 26 180 26q90 0 132.5 -32.5t42.5 -111.5v-379z" />
    <glyph glyph-name="i" unicode="i" horiz-adv-x="279" 
d="M196 15q0 -15 -15 -15h-82q-16 0 -16 15v490q0 14 16 14h82q15 0 15 -14v-490zM196 621q0 -20 -21 -20h-71q-21 0 -21 20v111q0 20 21 20h71q21 0 21 -20v-111z" />
    <glyph glyph-name="j" unicode="j" horiz-adv-x="273" 
d="M195 -55q0 -85 -44 -120t-128 -35q-22 0 -64 3q-18 3 -18 17l1 45q0 17 16 17h35q48 0 68 15t20 62v556q0 14 16 14h83q15 0 15 -14v-560zM194 621q0 -20 -21 -20h-71q-20 0 -20 20v111q0 20 20 20h71q21 0 21 -20v-111z" />
    <glyph glyph-name="k" unicode="k" horiz-adv-x="543" 
d="M530 9q0 -9 -10 -9h-115q-7 0 -12 6l-175 216h-36v-207q0 -15 -15 -15h-83q-16 0 -16 15v703q0 15 15 18l82 16h3q14 0 14 -15v-435h36l174 217q5 6 11 6h1l103 -2q10 0 10 -10q0 -2 -2 -4l-201 -240l214 -255q2 -2 2 -5z" />
    <glyph glyph-name="l" unicode="l" horiz-adv-x="302" 
d="M282 16q0 -12 -8 -12q-29 -13 -83 -13q-59 0 -91 31t-32 89v608q0 14 15 17l82 16h4q13 0 13 -15v-619q0 -43 42 -43q21 0 35 4h4q8 0 9 -9l10 -50v-4z" />
    <glyph glyph-name="m" unicode="m" horiz-adv-x="937" 
d="M873 15q0 -15 -15 -15h-82q-16 0 -16 15v359q0 46 -19.5 64t-64.5 18q-32 0 -69 -5t-58 -11l-21 -5v-420q0 -15 -15 -15h-83q-15 0 -15 15v359q0 46 -19 64t-64 18q-32 0 -69.5 -5t-58.5 -11l-22 -5v-420q0 -15 -15 -15h-83q-16 0 -16 15v425q0 29 13.5 43t53.5 27
q95 28 206 28q91 0 135 -36q33 13 96.5 24.5t115.5 11.5q96 0 140.5 -33t44.5 -116v-374z" />
    <glyph glyph-name="n" unicode="n" horiz-adv-x="589" 
d="M526 15q0 -15 -15 -15h-83q-16 0 -16 15v359q0 46 -18.5 64t-63.5 18q-32 0 -69 -5t-58 -11l-21 -5v-420q0 -15 -15 -15h-83q-16 0 -16 15v425q0 29 13.5 43t53.5 27q95 28 205 28q96 0 141 -33t45 -116v-374z" />
    <glyph glyph-name="o" unicode="o" horiz-adv-x="571" 
d="M529 262q0 -51 -4.5 -87.5t-19 -74.5t-40 -61t-71 -37.5t-108.5 -14.5q-78 0 -129 20.5t-75 61.5t-32 84.5t-8 108.5t8 109t32 85t75 61.5t129 20.5q63 0 108.5 -14.5t71 -37.5t40 -61t19 -74.5t4.5 -88.5zM412 262q0 44 -1.5 68.5t-8 52.5t-20 41.5t-37 22.5t-59.5 9
q-26 0 -45.5 -4.5t-33 -12t-22.5 -21.5t-14.5 -27.5t-8 -36.5t-3 -42t-0.5 -50q0 -44 1.5 -68t8 -52t20 -41.5t37.5 -22.5t60 -9t59.5 9t37 22.5t20 41.5t8 52t1.5 68z" />
    <glyph glyph-name="p" unicode="p" horiz-adv-x="584" 
d="M542 262q0 -139 -48 -207t-178 -68q-80 0 -145 18l11 -60v-121q0 -15 -15 -18l-81 -16h-4q-14 0 -14 15v621q0 36 12 52t47 28q91 32 200 32q69 0 113 -19.5t65.5 -59.5t29 -84.5t7.5 -112.5zM426 263q0 64 -7 102.5t-24 58t-37.5 25t-55.5 5.5q-23 0 -53 -5t-49 -9
l-18 -5v-353q46 -14 111 -14q76 0 104.5 40.5t28.5 154.5z" />
    <glyph glyph-name="q" unicode="q" horiz-adv-x="584" 
d="M516 -176q0 -15 -15 -18l-81 -16h-4q-13 0 -13 15v141l11 59q-76 -18 -142 -18q-71 0 -117.5 18.5t-70.5 56.5t-33 84.5t-9 114.5q0 154 54.5 215.5t189.5 61.5q75 0 161 -21q42 -10 55.5 -29t13.5 -53v-611zM403 84v359q-52 13 -111 13q-51 0 -78 -14t-41.5 -56
t-14.5 -122q0 -65 8 -105t27 -59t41.5 -25t60.5 -6q26 0 53 3.5t41 7.5z" />
    <glyph glyph-name="r" unicode="r" horiz-adv-x="358" 
d="M349 463q0 -15 -14 -15q-92 0 -153 -16v-417q0 -15 -15 -15h-83q-3 0 -9.5 4.5t-6.5 10.5v426q0 29 13 42.5t48 25.5q70 26 169 28h17q14 0 23 -2q11 -3 11 -15v-57z" />
    <glyph glyph-name="s" unicode="s" horiz-adv-x="491" 
d="M452 154q0 -167 -217 -167q-101 0 -181 32q-9 6 -9 12v5l11 50q2 11 11 11q3 0 5 -1q95 -26 156 -26q111 0 111 74q0 12 -2.5 22t-5.5 17t-11.5 12.5t-13 8.5t-18 6.5t-18.5 4.5t-23 3.5t-24 3.5q-76 12 -108 31q-65 38 -65 125q0 160 210 160q85 0 162 -22q11 -3 11 -13
v-2l-9 -54q-1 -9 -11 -9h-3q-102 17 -136 17q-111 0 -111 -69q0 -27 17.5 -42.5t36 -20t54.5 -9.5q5 -1 8 -1q34 -5 51 -9t44.5 -15t41.5 -26t25 -43t11 -66z" />
    <glyph glyph-name="t" unicode="t" horiz-adv-x="385" 
d="M364 22q0 -9 -11 -14q-65 -18 -124 -18q-82 0 -121.5 35.5t-39.5 114.5v528q0 14 16 17l81 17h4q13 0 13 -15v-162h152q15 0 15 -15v-55q0 -15 -15 -15h-152v-301q0 -36 17 -50.5t57 -14.5q32 0 82 11h3q9 0 12 -10l10 -49q1 -2 1 -4z" />
    <glyph glyph-name="u" unicode="u" horiz-adv-x="584" 
d="M521 187q0 -96 -49 -148t-180 -52q-123 0 -176 47.5t-53 151.5v318q0 15 16 18l81 16h4q13 0 13 -15v-344q0 -59 25 -85t90 -26q71 0 93 28.5t22 83.5v324q0 15 16 18l81 16h3q14 0 14 -15v-336z" />
    <glyph glyph-name="v" unicode="v" horiz-adv-x="534" 
d="M515 510q0 -1 -1 -4l-148 -490q-5 -16 -20 -16h-152q-15 0 -20 16l-154 488q0 1 -0.5 3t-0.5 3q0 15 14 15h85q14 0 19 -15l121 -435h26l108 435q4 15 20 15h87q16 0 16 -15z" />
    <glyph glyph-name="w" unicode="w" horiz-adv-x="844" 
d="M822 510q0 -3 -1 -5l-118 -489q-3 -16 -19 -16h-157q-17 0 -20 16l-84 402h-2l-87 -402q-3 -16 -20 -16h-156q-15 0 -20 16l-115 488v5q0 16 13 16h85q15 0 18 -15l86 -435h27l83 411q3 16 20 16h138q17 0 20 -16l84 -411h26l82 435q3 15 19 15h83q15 0 15 -15z" />
    <glyph glyph-name="x" unicode="x" horiz-adv-x="542" 
d="M527 12q0 -12 -11 -12h-98q-10 0 -15 9l-133 199l-129 -199q-5 -9 -16 -9h-99q-10 0 -10 12q0 4 2 8l180 249l-163 235q-3 3 -3 7q0 14 10 14h93q16 0 25 -13l115 -179l110 179q7 13 24 13h92q10 0 10 -14q0 -3 -2 -7l-166 -233l181 -251q3 -3 3 -8z" />
    <glyph glyph-name="y" unicode="y" horiz-adv-x="527" 
d="M516 510v-2q-1 -1 -1 -2l-173 -574q-23 -76 -59.5 -109t-119.5 -33q-50 0 -84 6q-13 1 -13 14l1 53q0 14 13 14h1q26 -2 59 -2q40 0 61 13.5t31 49.5l18 62h-56q-15 0 -20 16l-154 489v5q0 15 15 15h84q15 0 19 -15l120 -435h26l109 435q5 15 20 15h87q16 0 16 -15z" />
    <glyph glyph-name="z" unicode="z" horiz-adv-x="498" 
d="M461 69v-54q0 -15 -15 -15h-386q-16 0 -16 15v54q0 12 9 22l275 350h-275q-16 0 -16 15v54q0 15 16 15h390q16 0 16 -15v-56q0 -10 -8 -20l-279 -350h274q15 0 15 -15z" />
    <glyph glyph-name="braceleft" unicode="{" horiz-adv-x="386" 
d="M327 -79l-1 -2v-3l-23 -55q-3 -8 -10 -8l-1 1h-3l-147 42q-11 4 -11 17v270q0 58 -12 80t-52 28q-14 4 -14 14v58q0 12 14 14q40 6 52 28t12 80v273q0 15 11 17l147 42q1 1 4 1q7 0 10 -8l23 -54q0 -1 0.5 -2.5t0.5 -2.5q0 -5 -7 -10l-85 -37v-238q0 -13 -1.5 -25t-4 -21
t-7 -17.5t-7.5 -14.5t-9.5 -12t-9.5 -9t-11 -7.5t-10 -6t-9 -5.5l-8 -3v-23q41 -19 56 -42q21 -30 21 -79v-234l85 -37q7 -2 7 -9z" />
    <glyph glyph-name="bar" unicode="|" horiz-adv-x="254" 
d="M176 -145q0 -17 -16 -17h-65q-7 0 -12 5.5t-5 12.5v908q0 7 5 12.5t12 5.5h65q16 0 16 -17v-910z" />
    <glyph glyph-name="braceright" unicode="}" horiz-adv-x="386" 
d="M333 305q0 -11 -14 -14q-40 -6 -52 -28t-12 -80v-270q0 -13 -11 -17l-147 -42h-3l-1 -1q-7 0 -10 8l-23 55v3l-1 2q0 7 7 9l85 37v234q0 32 7.5 55t23.5 36.5t22.5 17.5t23.5 12v23l-8 3q-7 4 -9 5.5t-10 6t-11 7.5t-9.5 9t-9.5 12t-7.5 14.5t-7 17.5t-4 21t-1.5 25v238
l-84 37q-7 3 -7 10v5l23 54q3 8 10 8q3 0 4 -1l147 -42q11 -2 11 -17v-273q0 -58 12 -80t52 -28q14 -2 14 -14v-58z" />
    <glyph glyph-name="asciitilde" unicode="~" 
d="M524 290q0 -5 -6 -11q-73 -58 -132 -58q-31 0 -87 24q-5 2 -21.5 9.5t-23.5 10t-18.5 5.5t-21.5 3q-37 0 -91 -42q-4 -4 -10 -4q-7 0 -11 7l-27 51q-2 4 -2 9q0 3 7 10q73 58 132 58q32 0 86 -24q5 -2 22 -9.5t23.5 -9.5t18.5 -5t22 -3q36 0 91 41q5 5 10 5q6 0 11 -8
l27 -51q1 -2 1 -8z" />
    <glyph glyph-name="uni00A0" unicode="&#xa0;" horiz-adv-x="310" 
 />
    <glyph glyph-name="exclamdown" unicode="&#xa1;" horiz-adv-x="302" 
d="M215 -1q0 -12 -11 -12h-3l-94 17q-15 3 -15 17v1l12 492q0 11 11 11h77q10 0 12 -11zM215 607q0 -18 -17 -18h-88q-17 0 -17 18v114q0 18 17 18h88q17 0 17 -18v-114z" />
    <glyph glyph-name="cent" unicode="&#xa2;" horiz-adv-x="492" 
d="M459 29q0 -9 -11 -14q-37 -19 -123 -25v-71q0 -18 -16 -18h-56q-16 0 -16 18v72q-110 11 -152.5 75.5t-42.5 196.5q0 133 42.5 197.5t152.5 75.5v73q0 17 16 17h56q16 0 16 -17v-73q84 -6 123 -24q11 -6 11 -15q0 -3 -1 -5l-9 -46q-2 -11 -14 -11h-6q-73 20 -125 20
q-84 0 -115 -41.5t-31 -150.5q0 -108 31.5 -149.5t114.5 -41.5q55 0 125 19h6q11 0 14 -11l9 -45q1 -2 1 -6z" />
    <glyph glyph-name="sterling" unicode="&#xa3;" horiz-adv-x="677" 
d="M619 710v-3l-14 -68q-2 -8 -11 -8h-3q-108 24 -168 24q-158 0 -158 -112q0 -43 25 -143h218q16 0 16 -15v-64q0 -15 -16 -15h-200q9 -31 9 -76q0 -16 -2.5 -30.5t-6 -25.5t-10 -22t-11.5 -17.5t-13 -14t-11.5 -10.5t-11.5 -9l-8 -6l356 3q7 0 11.5 -5t4.5 -11v-66
q0 -16 -16 -16h-526q-15 0 -15 15v67q0 14 16 17q53 9 89.5 43t36.5 95q0 32 -26 143.5t-26 159.5q0 115 68 163.5t190 48.5q45 0 93.5 -6.5t74 -12.5t34.5 -9q11 -5 11 -14z" />
    <glyph glyph-name="currency" unicode="&#xa4;" horiz-adv-x="702" 
d="M572 487q0 -3 -3 -6l-51 -48q18 -45 18 -96t-18 -96l51 -47q3 -3 3 -7q0 -5 -4 -9l-52 -54q-5 -5 -10 -5q-3 0 -6 3l-49 46q-42 -22 -100 -22t-100 22l-50 -46q-1 -3 -6 -3q-2 0 -10 5l-52 54q-3 3 -3 9q0 5 2 7l52 47q-18 42 -18 96t18 96l-52 48q-2 2 -2 6q0 6 3 9
l52 54q5 5 10 5t6 -2l50 -46q42 22 100 22t100 -22l49 46q2 2 6 2q7 0 10 -5l52 -54q4 -4 4 -9zM452 337q0 62 -21.5 89.5t-79.5 27.5t-79.5 -27.5t-21.5 -89.5t21.5 -89.5t79.5 -27.5t79.5 27.5t21.5 89.5z" />
    <glyph glyph-name="yen" unicode="&#xa5;" horiz-adv-x="647" 
d="M652 723q0 -1 -2 -5l-218 -349h151q15 0 15 -15v-53q0 -6 -5 -10.5t-10 -4.5h-519q-15 0 -15 14v54q0 15 15 15h152l-219 349q-2 4 -2 5q0 6 4.5 11t10.5 5h105q13 0 20 -13l193 -335l188 336q7 12 19 12h102q6 0 10.5 -5t4.5 -11zM558 166q0 -6 -5 -10.5t-10 -4.5h-156
v-136q0 -6 -4.5 -10.5t-11.5 -4.5h-89q-17 0 -17 15v136h-160q-15 0 -15 15v52q0 14 15 14h438q15 0 15 -14v-52z" />
    <glyph glyph-name="brokenbar" unicode="&#xa6;" horiz-adv-x="280" 
d="M189 657v-339q0 -18 -16 -18h-66q-7 0 -11.5 5.5t-4.5 11.5v340q0 18 16 18h66q16 0 16 -18zM189 182v-339q0 -18 -16 -18h-66q-16 0 -16 18v340q0 7 4.5 12t11.5 5h66q16 0 16 -18z" />
    <glyph glyph-name="section" unicode="&#xa7;" horiz-adv-x="728" 
d="M645 278q0 -37 -13.5 -65t-36.5 -44.5t-41.5 -25.5t-39.5 -14v-22q16 -6 27 -11t32 -20.5t32.5 -42.5t11.5 -64q0 -105 -83 -147q-64 -32 -183 -32q-67 0 -132 13t-95 24q-10 4 -10 13q0 1 0.5 3t0.5 3l11 50q3 12 14 12q1 0 3 -0.5t3 -0.5q120 -32 202 -32
q76 0 115.5 21t39.5 75q0 24 -9 40.5t-29 26t-37.5 13.5t-48.5 9q-8 1 -31 4t-37 5q-46 6 -74.5 12t-61.5 19.5t-51 32t-30 49.5t-12 73q0 117 131 151v22q-102 35 -102 137q0 53 21.5 93.5t60.5 60.5q63 33 182 33q55 0 112 -8.5t84 -19.5q12 -4 12 -13q-1 -1 -1 -2l-9 -55
q-2 -11 -11 -11h-5q-132 24 -181 24q-75 0 -114 -23.5t-39 -78.5q0 -24 9 -40.5t28.5 -26t36.5 -13.5t47 -9q32 -4 69 -9q48 -6 76.5 -12t62 -19t51.5 -32t30 -50.5t12 -75.5zM532 268q0 50 -31.5 70t-82.5 26l-77 9q-146 -4 -146 -106q0 -50 32 -70t83 -26l77 -9
q145 4 145 106z" />
    <glyph glyph-name="dieresis" unicode="&#xa8;" horiz-adv-x="492" 
d="M419 727v-65q0 -13 -14 -13h-106q-15 0 -15 13v65q0 12 15 12h106q14 0 14 -12zM208 727v-65q0 -13 -14 -13h-106q-15 0 -15 13v65q0 5 4.5 8.5t10.5 3.5h106q14 0 14 -12z" />
    <glyph glyph-name="copyright" unicode="&#xa9;" horiz-adv-x="911" 
d="M852 368q0 -101 -18 -169t-63 -117.5t-122 -72t-194 -22.5q-116 0 -193.5 22.5t-122 72t-63 117.5t-18.5 169t18.5 169.5t63 118.5t122 73t193.5 23t193.5 -23t122.5 -73t63 -118.5t18 -169.5zM771 369q0 92 -15.5 150.5t-53.5 94.5q-68 64 -247 64q-180 0 -249 -66
q-67 -66 -67 -244q0 -177 67 -243q68 -65 249 -65q180 0 247 63q38 36 53.5 95t15.5 151zM609 183q0 -7 -6 -11q-1 0 -2 -1l-6 -3q-47 -21 -128 -21q-115 0 -157.5 54t-42.5 172t42.5 172t157.5 54q32 0 74.5 -7.5t59.5 -16.5q8 -4 8 -13v-5l-7 -34q-3 -12 -13 -12
q-1 0 -3 0.5t-3 0.5q-63 18 -106 18q-69 0 -94.5 -34t-25.5 -123q0 -90 25.5 -124t94.5 -34q38 0 106 17q2 1 6 1q10 0 13 -11l7 -34v-5z" />
    <glyph glyph-name="ordfeminine" unicode="&#xaa;" horiz-adv-x="448" 
d="M359 497q0 -33 -11.5 -45.5t-46.5 -20.5q-41 -9 -83 -9q-29 0 -47.5 2t-46.5 11t-43 32t-15 59q0 28 8.5 46.5t28.5 28.5t35 14t44 8l106 17v13q0 29 -18 36q-15 6 -51 6q-39 0 -113 -16q-6 -2 -8 -2q-6 0 -7 8l-9 35v2q0 7 11 11q59 19 136 19q87 0 114 -30
q16 -19 16 -66v-159zM371 354v-29q0 -15 -15 -15h-272q-15 0 -15 15v29q0 14 15 14h272q15 0 15 -14zM288 485v102l-98 -15q-16 -3 -25 -5.5t-17 -12.5t-8 -26q0 -17 6.5 -28.5t19 -16t24 -6t28.5 -1.5q42 0 70 9z" />
    <glyph glyph-name="guillemotleft" unicode="&#xab;" horiz-adv-x="552" 
d="M296 495q0 -2 -2 -6l-148 -200l148 -200q2 -2 2 -5q0 -5 -6 -11l-51 -34q-1 -1 -5 -1q-7 0 -12 5l-167 237q-3 4 -3 9q0 3 2 9l168 237q4 6 12 6q3 0 5 -2l51 -34q6 -4 6 -10zM500 495q0 -2 -2 -6l-147 -200l147 -200q2 -2 2 -5q0 -5 -6 -11l-50 -34q-2 -1 -6 -1
q-8 0 -11 5l-168 237q-3 4 -3 9t3 9l168 237q3 6 12 6q1 0 5 -2l50 -34q6 -3 6 -10z" />
    <glyph glyph-name="logicalnot" unicode="&#xac;" 
d="M545 374v-216q0 -17 -18 -17h-62q-18 0 -18 17v143h-376q-18 0 -18 17v56q0 17 18 17h456q18 0 18 -17z" />
    <glyph glyph-name="uni00AD" unicode="&#xad;" horiz-adv-x="399" 
d="M351 246q0 -7 -5.5 -12t-12.5 -5h-266q-19 0 -19 17v56q0 7 5.5 12t13.5 5h266q7 0 12.5 -5t5.5 -12v-56z" />
    <glyph glyph-name="registered" unicode="&#xae;" horiz-adv-x="911" 
d="M852 368q0 -101 -18 -169t-63 -117.5t-122 -72t-194 -22.5q-116 0 -193.5 22.5t-122 72t-63 117.5t-18.5 169t18.5 169.5t63 118.5t122 73t193.5 23t193.5 -23t122.5 -73t63 -118.5t18 -169.5zM771 369q0 92 -15.5 150.5t-53.5 94.5q-68 64 -247 64q-180 0 -249 -66
q-67 -66 -67 -244q0 -177 67 -243q68 -65 249 -65q180 0 247 63q38 36 53.5 95t15.5 151zM645 170q0 -12 -10 -12h-65q-11 0 -12 10l-6 93q-2 34 -24 47t-68 15l-85 4v-156q0 -13 -14 -13h-60q-13 0 -13 13v399q0 7 4.5 12t11.5 5h189q70 0 107 -28.5t37 -94.5
q0 -46 -21 -69t-72 -30v-16q40 -3 61 -17q33 -22 36 -83zM549 453q0 38 -19 53t-63 15h-92v-135l92 3q45 2 63.5 15t18.5 49z" />
    <glyph glyph-name="macron" unicode="&#xaf;" horiz-adv-x="469" 
d="M392 694v-1q-1 -1 -1 -2l-8 -51q-2 -11 -11 -11l-2 1h-2q-89 24 -133 24q-42 0 -135 -24h-1q-1 -1 -2 -1q-9 0 -11 11l-9 51v3q0 8 11 11q75 25 146 25q69 0 147 -25q11 -3 11 -11z" />
    <glyph glyph-name="degree" unicode="&#xb0;" horiz-adv-x="408" 
d="M360 602q0 -62 -46 -106t-110 -44t-109.5 44t-46.5 106q0 62 46 106t110 44t110 -44.5t46 -105.5zM288 602q0 33 -25 57t-60 24q-34 0 -58.5 -24t-24.5 -57q0 -34 24.5 -57.5t59.5 -23.5q34 0 59 23.5t25 57.5z" />
    <glyph glyph-name="plusminus" unicode="&#xb1;" 
d="M527 326q0 -16 -17 -16h-164v-140q0 -17 -16 -17h-64q-16 0 -16 17v139h-164q-17 0 -17 17v56q0 17 18 17h163l1 140q0 17 16 17h63q17 0 17 -17v-140h163q17 0 17 -17v-56zM529 73v-56q0 -7 -5.5 -12t-12.5 -5h-424q-6 0 -12 5t-6 12v56q0 17 18 17h424q18 0 18 -17z
" />
    <glyph glyph-name="twosuperior" unicode="&#xb2;" horiz-adv-x="509" 
d="M418 349v-45q0 -15 -15 -15h-310q-17 0 -17 14v72q0 31 26 52l116 76q2 1 26 16.5t30 20.5t21 18.5t20 26.5t5 28q0 41 -24.5 55.5t-73.5 14.5q-43 0 -135 -22h-4q-11 0 -14 12l-8 35v4q0 11 11 15q64 25 162 25q86 0 131 -31.5t45 -107.5q0 -38 -23 -72t-47.5 -52
t-65.5 -43l-115 -69v-15l244 2q15 0 15 -15z" />
    <glyph glyph-name="threesuperior" unicode="&#xb3;" horiz-adv-x="494" 
d="M413 413q0 -48 -27 -78t-64.5 -41t-85.5 -11q-101 0 -143 16q-11 3 -11 13v3l6 41q2 9 12 9q1 0 3.5 -0.5t3.5 -0.5q51 -12 115 -12q101 0 101 67q0 35 -20.5 48.5t-60.5 18.5q-34 4 -54 6q-16 3 -16 14v34q0 13 15 13q3 0 52 7q39 7 57.5 20t18.5 42q0 34 -23.5 47.5
t-70.5 13.5q-43 0 -131 -22q-3 -1 -8 -1q-10 0 -12 11l-9 38v5q0 8 11 12q62 26 165 26q79 0 123 -30t44 -91q0 -80 -93 -99v-15q102 -15 102 -104z" />
    <glyph glyph-name="acute" unicode="&#xb4;" horiz-adv-x="347" 
d="M275 703q0 -4 -4 -7l-147 -102q-2 -2 -6 -2q-5 0 -8 4l-37 47q-2 2 -2 5q0 4 4 8l145 105q2 2 6 2q5 0 9 -4l38 -50q2 -2 2 -6z" />
    <glyph glyph-name="paragraph" unicode="&#xb6;" horiz-adv-x="702" 
d="M460 -176q0 -16 -12 -19l-69 -15h-3q-14 0 -14 13v475l-85 -2h-14q-49 0 -85.5 9t-69 33t-49.5 71t-17 117q0 126 58 178.5t171 52.5h6l173 -2q3 0 6.5 -4.5t3.5 -7.5v-899zM634 -156q0 -16 -12 -19l-69 -15h-3q-13 0 -13 13v895q0 16 12 19l69 15h3q13 0 13 -13v-895z
M362 363v287l-72 -1q-75 -1 -105.5 -29.5t-30.5 -113.5q0 -46 9.5 -75t30 -43t41.5 -18.5t55 -5.5z" />
    <glyph glyph-name="periodcentered" unicode="&#xb7;" horiz-adv-x="199" 
d="M157 240q0 -17 -16 -17h-83q-7 0 -12 5t-5 12v87q0 7 5 12.5t12 5.5h83q16 0 16 -18v-87z" />
    <glyph glyph-name="cedilla" unicode="&#xb8;" horiz-adv-x="330" 
d="M260 -119q0 -84 -102 -84q-37 0 -79 9q-7 2 -7 10v1l3 27q2 8 10 8h1l2 -1q40 -5 50 -5q43 0 43 35q0 34 -43 34q-19 0 -51 -4q-1 -1 -3 -1q-8 0 -10 8l-3 27q-1 0 -1 2q0 7 7 9q42 9 84 9q99 0 99 -84z" />
    <glyph glyph-name="onesuperior" unicode="&#xb9;" horiz-adv-x="395" 
d="M247 304q0 -16 -15 -16h-54q-15 0 -15 16v360l-77 5q-15 2 -15 13v38q0 11 13 13l148 19h2q13 0 13 -15v-433z" />
    <glyph glyph-name="ordmasculine" unicode="&#xba;" horiz-adv-x="448" 
d="M380 587q0 -29 -3 -50.5t-12 -44t-25.5 -37t-45.5 -23.5t-69 -9t-69 9t-45.5 23.5t-25.5 37t-12 44t-3 50.5q0 37 5 63t20 51t47.5 38t82.5 13t82.5 -13t47.5 -38t20 -51t5 -63zM308 587q0 31 -2 47.5t-10 33.5t-25 23.5t-46 6.5q-54 0 -68 -25t-14 -86q0 -60 14 -85.5
t68 -25.5q29 0 46.5 7t25 23.5t9.5 33t2 47.5zM377 354v-29q0 -15 -16 -15h-271q-16 0 -16 15v29q0 14 15 14h273q15 0 15 -14z" />
    <glyph glyph-name="guillemotright" unicode="&#xbb;" horiz-adv-x="552" 
d="M501 289q0 -5 -3 -9l-168 -237q-3 -5 -11 -5q-4 0 -5 1l-55 34q-5 3 -5 11q0 4 1 5l148 200l-148 200q-1 2 -1 6q0 7 5 10l54 34q4 2 6 2q8 0 11 -6l168 -237q3 -4 3 -9zM296 289q0 -6 -2 -9l-168 -237q-5 -5 -12 -5q-3 0 -5 1l-51 34q-5 5 -5 11q0 4 2 5l147 200
l-148 200q-1 2 -1 6q0 7 5 10l51 34q2 2 5 2q8 0 12 -6l168 -237q2 -3 2 -9z" />
    <glyph glyph-name="onequarter" unicode="&#xbc;" horiz-adv-x="1019" 
d="M938 159v-39q0 -15 -15 -15h-53v-90q0 -15 -16 -15h-52q-15 0 -15 15v90h-243q-15 0 -15 16v46q0 9 5 17l194 265q6 8 14 8h111q16 0 16 -15v-267h54q15 0 15 -16zM719 699q0 -4 -1 -5l-468 -694q-3 -4 -8 -4q-1 0 -5 2l-48 32q-3 3 -3 8q0 4 1 5l468 694q1 4 7 4
q3 0 5 -2l48 -32q4 -3 4 -8zM247 304q0 -16 -15 -16h-54q-15 0 -15 16v360l-77 5q-15 2 -15 13v38q0 11 13 13l148 19h2q13 0 13 -15v-433zM787 174v218h-16l-157 -218h173z" />
    <glyph glyph-name="onehalf" unicode="&#xbd;" horiz-adv-x="1052" 
d="M961 60v-45q0 -15 -15 -15h-310q-17 0 -17 14v72q0 32 26 51l116 77q6 4 22.5 14.5t24 15.5t20.5 15.5t19 19t11 20t5 24.5q0 41 -24.5 56t-73.5 15q-45 0 -135 -22h-2q-1 -1 -2 -1q-10 0 -14 12l-8 36v4q0 11 11 15q64 25 162 25q86 0 131 -31.5t45 -107.5
q0 -29 -11.5 -54.5t-34 -46.5t-41.5 -34.5t-49 -31.5l-115 -70v-14l244 2q15 0 15 -15zM719 699q0 -4 -1 -5l-468 -694q-3 -4 -8 -4q-1 0 -5 2l-48 32q-3 3 -3 8q0 4 1 5l468 694q1 4 7 4q3 0 5 -2l48 -32q4 -3 4 -8zM247 304q0 -16 -15 -16h-54q-15 0 -15 16v360l-77 5
q-15 2 -15 13v38q0 11 13 13l148 19h2q13 0 13 -15v-433z" />
    <glyph glyph-name="threequarters" unicode="&#xbe;" horiz-adv-x="1137" 
d="M1056 160v-40q0 -15 -15 -15h-53v-90q0 -15 -15 -15h-52q-16 0 -16 15v90h-243q-14 0 -14 16v46q0 11 5 17l194 265q4 8 14 8h111q15 0 15 -15v-267h54q15 0 15 -15zM413 413q0 -48 -27 -78t-64.5 -41t-85.5 -11q-101 0 -143 16q-11 3 -11 13v3l6 41q2 9 12 9
q1 0 3.5 -0.5t3.5 -0.5q51 -12 115 -12q101 0 101 67q0 35 -20.5 48.5t-60.5 18.5q-34 4 -54 6q-16 3 -16 14v34q0 13 15 13q3 0 52 7q39 7 57.5 20t18.5 42q0 34 -23.5 47.5t-70.5 13.5q-43 0 -131 -22q-3 -1 -8 -1q-10 0 -12 11l-9 38v5q0 8 11 12q62 26 165 26
q79 0 123 -30t44 -91q0 -80 -93 -99v-15q102 -15 102 -104zM837 699q0 -4 -1 -5l-468 -694q-3 -4 -8 -4q-1 0 -5 2l-48 32q-3 3 -3 8q0 4 1 5l468 694q3 4 7 4q3 0 5 -2l48 -32q4 -3 4 -8zM906 174v218h-17l-157 -218h174z" />
    <glyph glyph-name="questiondown" unicode="&#xbf;" 
d="M529 33q0 -9 -12 -14q-13 -5 -39 -11.5t-75 -13.5t-93 -7q-51 0 -92.5 8.5t-76.5 28t-55 55.5t-20 86q0 17 3.5 33.5t8 28.5t14 25t15.5 20.5t18.5 18t17.5 14.5t18 13t15 10q8 5 27 16.5t29 19t23 20t19 27.5t6 34q0 26 -5 61v3q0 13 19 13h75q9 0 12 -2.5t5 -11.5
q7 -23 7 -65q0 -15 -2 -28t-3.5 -23t-7 -21t-8 -17t-12 -16t-12.5 -13.5t-16 -13t-16.5 -12t-20 -13.5l-19.5 -13q-1 -1 -18 -12t-24.5 -18t-20 -19.5t-18 -27.5t-5.5 -31q0 -85 134 -85q51 0 170 25q4 1 9 1q9 0 12 -12l13 -54q1 -2 1 -7zM390 607q0 -17 -16 -17h-89
q-16 0 -16 17v115q0 17 16 17h89q16 0 16 -17v-115z" />
    <glyph glyph-name="Agrave" unicode="&#xc0;" horiz-adv-x="733" 
d="M720 13q0 -13 -12 -13h-97q-12 0 -17 12l-92 278h-273l-91 -280q-4 -10 -16 -10h-96q-13 0 -13 13l1 2v3l246 708q6 13 18 13h181q12 0 18 -13l242 -708q1 -2 1 -5zM475 384l-89 265h-43l-87 -265h219zM459 855q0 -4 -2 -5l-36 -47q-3 -4 -8 -4q-4 0 -6 2l-148 102
q-3 3 -3 7t1 6l39 50q4 4 8 4q5 0 6 -2l145 -105q4 -3 4 -8z" />
    <glyph glyph-name="Aacute" unicode="&#xc1;" horiz-adv-x="733" 
d="M720 13q0 -13 -12 -13h-97q-12 0 -17 12l-92 278h-273l-91 -280q-4 -10 -16 -10h-96q-13 0 -13 13l1 2v3l246 708q6 13 18 13h181q12 0 18 -13l242 -708q1 -2 1 -5zM475 384l-89 265h-43l-87 -265h219zM462 910q0 -3 -4 -7l-148 -102q-2 -2 -6 -2t-8 4l-36 47q-2 4 -2 6
q0 4 4 7l145 106q4 2 6 2q5 0 8 -5l39 -50q2 -4 2 -6z" />
    <glyph glyph-name="Acircumflex" unicode="&#xc2;" horiz-adv-x="733" 
d="M720 13q0 -13 -12 -13h-97q-12 0 -17 12l-92 278h-273l-91 -280q-4 -10 -16 -10h-96q-13 0 -13 13l1 2v3l246 708q6 13 18 13h181q12 0 18 -13l242 -708q1 -2 1 -5zM475 384l-89 265h-43l-87 -265h219zM526 857q0 -2 -2 -6l-37 -45q-3 -4 -8 -4q-4 0 -6 2l-111 86
l-111 -86q-1 -2 -5 -2q-5 0 -9 4l-36 45q-2 2 -2 6t4 7l142 103h34l143 -103q4 -4 4 -7z" />
    <glyph glyph-name="Atilde" unicode="&#xc3;" horiz-adv-x="733" 
d="M720 13q0 -13 -12 -13h-97q-12 0 -17 12l-92 278h-273l-91 -280q-4 -10 -16 -10h-96q-13 0 -13 13l1 2v3l246 708q6 13 18 13h181q12 0 18 -13l242 -708q1 -2 1 -5zM475 384l-89 265h-43l-87 -265h219zM535 878q0 -5 -6 -9q-56 -50 -103 -50h-1q-23 0 -67 21
q-48 23 -61 23q-23 0 -69 -35q-4 -4 -8 -4q-6 0 -9 6l-23 44q-2 4 -2 7q0 5 6 9q59 50 104 50h1q24 0 66 -21q48 -23 61 -23h1q26 0 68 36q6 3 8 3q7 0 10 -6l22 -44q2 -4 2 -7z" />
    <glyph glyph-name="Adieresis" unicode="&#xc4;" horiz-adv-x="733" 
d="M720 13q0 -13 -12 -13h-97q-12 0 -17 12l-92 278h-273l-91 -280q-4 -10 -16 -10h-96q-13 0 -13 13l1 2v3l246 708q6 13 18 13h181q12 0 18 -13l242 -708q1 -2 1 -5zM475 384l-89 265h-43l-87 -265h219zM536 919v-65q0 -13 -14 -13h-107q-14 0 -14 13v65q0 12 14 12h107
q14 0 14 -12zM325 919v-65q0 -13 -14 -13h-106q-15 0 -15 13v65q0 12 15 12h106q14 0 14 -12z" />
    <glyph glyph-name="Aring" unicode="&#xc5;" horiz-adv-x="733" 
d="M720 13q0 -13 -12 -13h-97q-12 0 -17 12l-92 278h-273l-91 -280q-4 -10 -16 -10h-96q-13 0 -13 13l1 2v3l246 708q6 13 18 13h181q12 0 18 -13l242 -708q1 -2 1 -5zM503 876q0 -63 -34 -90t-103 -27t-103.5 27t-34.5 90q0 62 34.5 89t103.5 27t103 -26.5t34 -89.5z
M475 384l-89 265h-43l-87 -265h219zM421 876q0 38 -11.5 54t-43.5 16q-33 0 -44.5 -16.5t-11.5 -54.5t12 -54t44 -16t43.5 16t11.5 55z" />
    <glyph glyph-name="AE" unicode="&#xc6;" horiz-adv-x="904" 
d="M845 16q0 -16 -16 -16h-399q-7 0 -12 4.5t-5 11.5v290h-179l-94 -295q-2 -11 -15 -11h-99q-12 0 -12 12v4l231 710q6 13 18 13h565q16 0 16 -16v-65q0 -6 -4.5 -10.5t-11.5 -4.5h-293v-225h279q7 0 11.5 -4.5t4.5 -10.5v-66q0 -16 -16 -16h-279v-226h294q16 0 16 -15v-64
zM413 647h-79l-75 -246h154v246z" />
    <glyph glyph-name="Ccedilla" unicode="&#xc7;" horiz-adv-x="672" 
d="M634 46q0 -12 -17 -17q-110 -35 -232 -35q-182 0 -255.5 90.5t-73.5 286.5q0 197 73 287t256 90q118 0 232 -36q17 -5 17 -17q0 -2 -0.5 -4t-0.5 -3l-11 -55q-3 -13 -15 -13q-2 0 -10 2q-109 30 -196 30q-129 0 -174.5 -63.5t-45.5 -216.5q0 -154 45.5 -218t174.5 -64
q94 0 196 28q8 2 10 2q12 0 15 -13l11 -54q0 -1 0.5 -3t0.5 -4zM492 -119q0 -84 -102 -84q-48 0 -79 9q-7 2 -7 9q0 1 1 2l2 27q1 7 10 7h3q40 -5 50 -5q43 0 43 35q0 34 -43 34q-11 0 -51 -5h-3q-8 0 -10 8l-3 27v1q0 8 7 10q37 8 83 8q99 0 99 -83z" />
    <glyph glyph-name="Egrave" unicode="&#xc8;" horiz-adv-x="652" 
d="M592 16q0 -16 -16 -16h-468q-7 0 -12 4.5t-5 11.5v707q0 7 5 11.5t12 4.5h468q16 0 16 -16v-65q0 -6 -4.5 -10.5t-11.5 -4.5h-363v-212h348q7 0 11.5 -4.5t4.5 -10.5v-66q0 -16 -16 -16h-348v-239h363q16 0 16 -15v-64zM440 856q0 -2 -2 -6l-36 -47q-4 -4 -8 -4t-6 2
l-148 102q-4 4 -4 7q0 2 2 6l39 50q3 5 8 5q4 0 6 -2l145 -106q4 -3 4 -7z" />
    <glyph glyph-name="Eacute" unicode="&#xc9;" horiz-adv-x="652" 
d="M592 16q0 -16 -16 -16h-468q-7 0 -12 4.5t-5 11.5v707q0 7 5 11.5t12 4.5h468q16 0 16 -16v-65q0 -6 -4.5 -10.5t-11.5 -4.5h-363v-212h348q7 0 11.5 -4.5t4.5 -10.5v-66q0 -16 -16 -16h-348v-239h363q16 0 16 -15v-64zM459 910q0 -3 -4 -7l-148 -102q-1 -2 -6 -2
q-4 0 -8 4l-36 47q-2 1 -2 5q0 5 4 8l145 105q1 2 6 2t8 -4l39 -50q2 -4 2 -6z" />
    <glyph glyph-name="Ecircumflex" unicode="&#xca;" horiz-adv-x="652" 
d="M592 16q0 -16 -16 -16h-468q-7 0 -12 4.5t-5 11.5v707q0 7 5 11.5t12 4.5h468q16 0 16 -16v-65q0 -6 -4.5 -10.5t-11.5 -4.5h-363v-212h348q7 0 11.5 -4.5t4.5 -10.5v-66q0 -16 -16 -16h-348v-239h363q16 0 16 -15v-64zM509 857q0 -2 -2 -6l-37 -45q-3 -4 -8 -4
q-4 0 -6 2l-111 86l-111 -86q-1 -2 -6 -2t-8 4l-36 45q-2 2 -2 6t4 7l142 103h34l143 -103q4 -4 4 -7z" />
    <glyph glyph-name="Edieresis" unicode="&#xcb;" horiz-adv-x="652" 
d="M592 16q0 -16 -16 -16h-468q-7 0 -12 4.5t-5 11.5v707q0 7 5 11.5t12 4.5h468q16 0 16 -16v-65q0 -6 -4.5 -10.5t-11.5 -4.5h-363v-212h348q7 0 11.5 -4.5t4.5 -10.5v-66q0 -16 -16 -16h-348v-239h363q16 0 16 -15v-64zM303 919v-65q0 -13 -15 -13h-106q-14 0 -14 13v65
q0 12 14 12h106q15 0 15 -12zM514 919v-65q0 -13 -15 -13h-106q-14 0 -14 13v65q0 12 14 12h106q6 0 10.5 -3.5t4.5 -8.5z" />
    <glyph glyph-name="Igrave" unicode="&#xcc;" horiz-adv-x="304" 
d="M213 15q0 -6 -4.5 -10.5t-11.5 -4.5h-89q-7 0 -12 4.5t-5 10.5v710q0 11 14 14l94 13h2q12 0 12 -14v-723zM240 856q0 -2 -2 -6l-37 -47q-3 -4 -8 -4q-2 0 -6 2l-147 102q-4 3 -4 7q0 2 2 6l38 50q5 5 9 5q2 0 6 -2l145 -106q4 -4 4 -7z" />
    <glyph glyph-name="Iacute" unicode="&#xcd;" horiz-adv-x="304" 
d="M213 15q0 -6 -4.5 -10.5t-11.5 -4.5h-89q-17 0 -17 15v710q0 11 14 14l94 13h2q12 0 12 -14v-723zM245 910q0 -4 -4 -7l-147 -102q-4 -2 -6 -2q-5 0 -9 4l-36 47q-2 4 -2 6q0 4 4 7l145 106q4 2 6 2q5 0 8 -5l39 -50q2 -4 2 -6z" />
    <glyph glyph-name="Icircumflex" unicode="&#xce;" horiz-adv-x="304" 
d="M213 15q0 -6 -4.5 -10.5t-11.5 -4.5h-89q-7 0 -12 4.5t-5 10.5v710q0 11 14 14l94 13h2q12 0 12 -14v-723zM317 857q0 -4 -2 -6l-36 -45q-4 -4 -9 -4q-4 0 -5 2l-111 86l-111 -86q-2 -2 -6 -2q-5 0 -8 4l-37 45q-2 4 -2 6q0 3 4 7l143 103h34l142 -103q4 -3 4 -7z" />
    <glyph glyph-name="Idieresis" unicode="&#xcf;" horiz-adv-x="304" 
d="M213 15q0 -6 -4.5 -10.5t-11.5 -4.5h-89q-7 0 -12 4.5t-5 10.5v710q0 11 14 14l94 13h2q12 0 12 -14v-723zM325 919v-65q0 -13 -14 -13h-107q-14 0 -14 13v65q0 12 14 12h107q14 0 14 -12zM114 919v-65q0 -13 -14 -13h-106q-15 0 -15 13v65q0 12 15 12h106q14 0 14 -12z
" />
    <glyph glyph-name="Eth" unicode="&#xd0;" horiz-adv-x="808" 
d="M752 370q0 -110 -19.5 -182t-63.5 -113.5t-104.5 -58t-152.5 -16.5h-287q-16 0 -16 16v314h-85q-7 0 -11.5 5t-4.5 12v56q0 15 16 15h85v306q0 6 4.5 10.5t11.5 4.5h287q92 0 152.5 -16.5t104.5 -58t63.5 -113.5t19.5 -181zM627 371q0 89 -12.5 144t-43 84t-69.5 38.5
t-105 9.5h-167v-229h231q16 0 16 -15v-56q0 -7 -4.5 -12t-11.5 -5h-231v-238h167q65 0 104.5 10t70 39.5t43 85t12.5 144.5z" />
    <glyph glyph-name="Ntilde" unicode="&#xd1;" horiz-adv-x="849" 
d="M757 15q0 -6 -4.5 -10.5t-11.5 -4.5h-189q-11 0 -19 16l-292 628h-34l5 -629q1 -6 -4 -10.5t-12 -4.5h-88q-7 0 -12 4.5t-5 10.5v709q0 6 5 10.5t12 4.5h207q13 0 20 -15l294 -645h12l-4 645q0 15 17 15h86q17 0 17 -15v-709zM615 878q0 -5 -6 -9q-59 -50 -104 -50h-1
q-24 0 -66 21q-48 23 -61 23h-1q-24 0 -68 -35q-4 -4 -9 -4q-6 0 -9 6l-23 44q-1 2 -1 7t6 9q56 50 103 50h1q23 0 67 -21q48 -23 61 -23q25 0 69 36q6 3 8 3q6 0 9 -6l23 -44q2 -4 2 -7z" />
    <glyph glyph-name="Ograve" unicode="&#xd2;" horiz-adv-x="797" 
d="M741 370q0 -60 -5.5 -107.5t-19.5 -92.5t-39 -77t-62 -57t-91.5 -37t-124.5 -12q-84 0 -145.5 18.5t-99 50t-60 82t-30.5 105t-8 127.5t8 127t30.5 104.5t60 82t99 50t145.5 18.5q70 0 124.5 -12t91.5 -37t62 -57t39 -77t19.5 -92t5.5 -107zM615 370q0 78 -6.5 124
t-28 87t-66 59t-116.5 18q-58 0 -98 -13t-63 -34.5t-35.5 -61t-16 -78.5t-3.5 -101t3.5 -101.5t16 -79t35.5 -60.5t63 -34.5t98 -13.5t98 13.5t63.5 35t36 60.5t16 78.5t3.5 101.5zM477 856q0 -2 -2 -6l-36 -47q-4 -4 -8 -4t-6 2l-148 102q-4 4 -4 7q0 2 2 6l39 50q3 5 8 5
q2 0 6 -2l145 -106q4 -3 4 -7z" />
    <glyph glyph-name="Oacute" unicode="&#xd3;" horiz-adv-x="797" 
d="M741 370q0 -60 -5.5 -107.5t-19.5 -92.5t-39 -77t-62 -57t-91.5 -37t-124.5 -12q-84 0 -145.5 18.5t-99 50t-60 82t-30.5 105t-8 127.5t8 127t30.5 104.5t60 82t99 50t145.5 18.5q70 0 124.5 -12t91.5 -37t62 -57t39 -77t19.5 -92t5.5 -107zM615 370q0 78 -6.5 124
t-28 87t-66 59t-116.5 18q-58 0 -98 -13t-63 -34.5t-35.5 -61t-16 -78.5t-3.5 -101t3.5 -101.5t16 -79t35.5 -60.5t63 -34.5t98 -13.5t98 13.5t63.5 35t36 60.5t16 78.5t3.5 101.5zM497 910q0 -4 -4 -7l-147 -102q-4 -2 -6 -2q-5 0 -9 4l-36 47q-2 4 -2 6q0 4 4 7l145 106
q4 2 6 2q5 0 8 -5l39 -50q2 -4 2 -6z" />
    <glyph glyph-name="Ocircumflex" unicode="&#xd4;" horiz-adv-x="797" 
d="M741 370q0 -60 -5.5 -107.5t-19.5 -92.5t-39 -77t-62 -57t-91.5 -37t-124.5 -12q-84 0 -145.5 18.5t-99 50t-60 82t-30.5 105t-8 127.5t8 127t30.5 104.5t60 82t99 50t145.5 18.5q70 0 124.5 -12t91.5 -37t62 -57t39 -77t19.5 -92t5.5 -107zM615 370q0 78 -6.5 124
t-28 87t-66 59t-116.5 18q-58 0 -98 -13t-63 -34.5t-35.5 -61t-16 -78.5t-3.5 -101t3.5 -101.5t16 -79t35.5 -60.5t63 -34.5t98 -13.5t98 13.5t63.5 35t36 60.5t16 78.5t3.5 101.5zM558 857q0 -2 -2 -6l-37 -45q-3 -4 -8 -4q-4 0 -6 2l-111 86l-111 -86q-1 -2 -6 -2
q-4 0 -8 4l-36 45q-2 2 -2 6t4 7l142 103h34l143 -103q4 -4 4 -7z" />
    <glyph glyph-name="Otilde" unicode="&#xd5;" horiz-adv-x="797" 
d="M741 370q0 -60 -5.5 -107.5t-19.5 -92.5t-39 -77t-62 -57t-91.5 -37t-124.5 -12q-84 0 -145.5 18.5t-99 50t-60 82t-30.5 105t-8 127.5t8 127t30.5 104.5t60 82t99 50t145.5 18.5q70 0 124.5 -12t91.5 -37t62 -57t39 -77t19.5 -92t5.5 -107zM615 370q0 78 -6.5 124
t-28 87t-66 59t-116.5 18q-58 0 -98 -13t-63 -34.5t-35.5 -61t-16 -78.5t-3.5 -101t3.5 -101.5t16 -79t35.5 -60.5t63 -34.5t98 -13.5t98 13.5t63.5 35t36 60.5t16 78.5t3.5 101.5zM563 878q0 -5 -6 -9q-59 -50 -104 -50h-1q-24 0 -66 21q-48 23 -61 23h-1q-24 0 -68 -35
q-4 -4 -9 -4q-6 0 -9 6l-22 44q-2 4 -2 7q0 5 6 9q56 50 103 50h1q23 0 67 -21q48 -23 61 -23q25 0 69 36q6 3 8 3q6 0 9 -6l23 -44q2 -4 2 -7z" />
    <glyph glyph-name="Odieresis" unicode="&#xd6;" horiz-adv-x="797" 
d="M741 370q0 -60 -5.5 -107.5t-19.5 -92.5t-39 -77t-62 -57t-91.5 -37t-124.5 -12q-84 0 -145.5 18.5t-99 50t-60 82t-30.5 105t-8 127.5t8 127t30.5 104.5t60 82t99 50t145.5 18.5q70 0 124.5 -12t91.5 -37t62 -57t39 -77t19.5 -92t5.5 -107zM615 370q0 78 -6.5 124
t-28 87t-66 59t-116.5 18q-58 0 -98 -13t-63 -34.5t-35.5 -61t-16 -78.5t-3.5 -101t3.5 -101.5t16 -79t35.5 -60.5t63 -34.5t98 -13.5t98 13.5t63.5 35t36 60.5t16 78.5t3.5 101.5zM562 919v-65q0 -13 -14 -13h-107q-14 0 -14 13v65q0 12 14 12h107q14 0 14 -12zM351 919
v-65q0 -13 -14 -13h-106q-15 0 -15 13v65q0 12 15 12h106q14 0 14 -12z" />
    <glyph glyph-name="multiply" unicode="&#xd7;" 
d="M532 176q0 -6 -5 -11l-46 -46q-6 -4 -10 -4q-5 0 -9 4l-163 168l-163 -168q-4 -4 -9 -4q-6 0 -10 4l-46 46q-5 5 -5 11q0 5 4 9l168 163l-168 163q-4 3 -4 8q0 6 5 11l46 46q3 5 10 5q3 0 9 -4l163 -168l163 168q6 4 9 4q5 0 10 -5l46 -46q5 -5 5 -11q0 -4 -4 -8
l-168 -163l168 -163q4 -6 4 -9z" />
    <glyph glyph-name="Oslash" unicode="&#xd8;" horiz-adv-x="812" 
d="M759 731q0 -3 -3 -8l-68 -79q62 -85 62 -274q0 -73 -8 -127.5t-30 -105t-59.5 -82t-99 -50t-145.5 -18.5q-152 0 -230 60l-63 -73q-3 -4 -8 -4q-3 0 -8 3l-41 33q-5 4 -5 8t3 8l68 79q-58 86 -58 269q0 73 8 127t30 104.5t59.5 82t99 50t145.5 18.5q145 0 225 -55l64 74
q3 4 8 4q3 0 8 -3l41 -33q5 -4 5 -8zM625 370q0 122 -21 175l-356 -416q48 -48 159 -48q58 0 98 13.5t63.5 35t36.5 60.5t16.5 79t3.5 101zM563 615q-49 43 -155 43q-72 0 -116.5 -18t-66 -59t-28 -87t-6.5 -124q0 -116 18 -169z" />
    <glyph glyph-name="Ugrave" unicode="&#xd9;" horiz-adv-x="776" 
d="M695 264q0 -65 -14 -113t-47.5 -86.5t-95 -58t-150.5 -19.5q-163 0 -235 66.5t-72 206.5v465q0 11 14 13l94 14h2q12 0 12 -14v-485q0 -88 39 -130t147 -42q97 0 140.5 37.5t43.5 121.5v485q0 11 14 13l94 14h3q11 0 11 -14v-474zM470 856q0 -2 -2 -6l-36 -47
q-4 -4 -9 -4q-2 0 -6 2l-147 102q-4 3 -4 7q0 2 2 6l39 50q3 5 8 5q2 0 6 -2l145 -106q4 -3 4 -7z" />
    <glyph glyph-name="Uacute" unicode="&#xda;" horiz-adv-x="776" 
d="M695 264q0 -65 -14 -113t-47.5 -86.5t-95 -58t-150.5 -19.5q-163 0 -235 66.5t-72 206.5v465q0 11 14 13l94 14h2q12 0 12 -14v-485q0 -88 39 -130t147 -42q97 0 140.5 37.5t43.5 121.5v485q0 11 14 13l94 14h3q11 0 11 -14v-474zM489 910q0 -4 -4 -7l-147 -102
q-4 -2 -6 -2q-5 0 -8 4l-37 47q-2 4 -2 6q0 3 4 7l145 106q4 2 6 2q4 0 9 -5l38 -50q2 -2 2 -6z" />
    <glyph glyph-name="Ucircumflex" unicode="&#xdb;" horiz-adv-x="776" 
d="M695 264q0 -65 -14 -113t-47.5 -86.5t-95 -58t-150.5 -19.5q-163 0 -235 66.5t-72 206.5v465q0 11 14 13l94 14h2q12 0 12 -14v-485q0 -88 39 -130t147 -42q97 0 140.5 37.5t43.5 121.5v485q0 11 14 13l94 14h3q11 0 11 -14v-474zM548 857q0 -2 -2 -6l-36 -45
q-4 -4 -9 -4q-2 0 -6 2l-111 86l-110 -86q-4 -2 -6 -2q-5 0 -9 4l-36 45q-2 4 -2 6q0 6 4 7l142 103h34l143 -103q4 -1 4 -7z" />
    <glyph glyph-name="Udieresis" unicode="&#xdc;" horiz-adv-x="776" 
d="M695 264q0 -65 -14 -113t-47.5 -86.5t-95 -58t-150.5 -19.5q-163 0 -235 66.5t-72 206.5v465q0 11 14 13l94 14h2q12 0 12 -14v-485q0 -88 39 -130t147 -42q97 0 140.5 37.5t43.5 121.5v485q0 11 14 13l94 14h3q11 0 11 -14v-474zM346 918v-64q0 -13 -14 -13h-106
q-15 0 -15 13v64q0 13 15 13h106q14 0 14 -13zM557 918v-64q0 -13 -14 -13h-106q-15 0 -15 13v64q0 13 15 13h106q14 0 14 -13z" />
    <glyph glyph-name="Yacute" unicode="&#xdd;" horiz-adv-x="667" 
d="M672 725q0 -4 -1 -6l-275 -425v-279q0 -6 -5 -10.5t-12 -4.5h-89q-7 0 -11.5 4.5t-4.5 10.5v279l-277 425q-2 4 -2 5q0 6 4.5 10.5t8.5 4.5h108q12 0 19 -13l203 -332l198 333q7 12 19 12h105q12 0 12 -14zM435 911q0 -5 -4 -8l-147 -102q-4 -2 -6 -2q-5 0 -8 5l-37 46
q-2 4 -2 6q0 4 4 8l145 105q4 2 6 2q5 0 9 -5l38 -50q2 -2 2 -5z" />
    <glyph glyph-name="Thorn" unicode="&#xde;" horiz-adv-x="710" 
d="M676 375q0 -116 -55 -170q-60 -60 -219 -60q-13 0 -19 1l-170 1v-132q0 -6 -4.5 -10.5t-11.5 -4.5h-89q-7 0 -12 4.5t-5 10.5v710q0 11 14 14l94 13h2q12 0 12 -14v-140h228q127 0 182 -56q53 -53 53 -167zM551 374q0 71 -32 101q-31 31 -124 31h-182v-277l148 5
q46 2 67.5 4t48.5 9.5t42 21.5q32 32 32 105z" />
    <glyph glyph-name="germandbls" unicode="&#xdf;" horiz-adv-x="594" 
d="M552 172q0 -92 -54 -138.5t-148 -46.5q-70 0 -122 19q-10 2 -10 13v4l10 52q2 9 14 9h3q2 0 19.5 -4.5t35 -7t34.5 -2.5q46 0 77 25.5t31 73.5q0 36 -16 63.5t-39 44.5t-45.5 32t-38.5 33.5t-16 41.5q0 20 11 36t26.5 27.5t30.5 25t26 36.5t11 54q0 51 -27.5 78t-76.5 27
q-57 0 -82.5 -22.5t-25.5 -81.5v-742q0 -15 -15 -18l-79 -14h-4q-14 0 -14 15v759q0 94 51 141t167 47q97 0 156 -43t59 -136q0 -65 -26.5 -99t-81.5 -66q-12 -6 -12 -17t13 -17q2 -1 22.5 -11t27 -13t25 -15t26.5 -20.5t21.5 -24.5t19.5 -31.5t11 -38.5t5 -48z" />
    <glyph glyph-name="agrave" unicode="&#xe0;" horiz-adv-x="566" 
d="M503 105q0 -53 -17.5 -72.5t-71.5 -31.5q-58 -14 -135 -14q-38 0 -64 2t-61.5 11.5t-57.5 26t-38 49.5t-16 79q0 38 10 65.5t22 42t39 25.5t43 14.5t52 9.5l182 29v38q0 26 -5.5 40.5t-25.5 22.5q-23 11 -82 11q-58 0 -177 -28q-1 0 -3 -0.5t-4 -0.5q-9 0 -10 8l-12 56v3
q0 10 11 14q92 33 215 33q100 0 149 -27q35 -20 46 -50.5t11 -78.5v-277zM390 81v182l-147 -24q-24 -4 -33 -6.5t-24.5 -10.5t-21.5 -24t-6 -41q0 -31 11 -50.5t31.5 -28t38.5 -11t43 -2.5q62 0 108 16zM394 648q0 -3 -2 -5l-36 -47q-4 -4 -9 -4q-4 0 -6 2l-147 102
q-4 3 -4 7q0 2 2 6l39 50q3 4 8 4q4 0 6 -2l145 -105q4 -3 4 -8z" />
    <glyph glyph-name="aacute" unicode="&#xe1;" horiz-adv-x="566" 
d="M503 105q0 -53 -17.5 -72.5t-71.5 -31.5q-58 -14 -135 -14q-38 0 -64 2t-61.5 11.5t-57.5 26t-38 49.5t-16 79q0 38 10 65.5t22 42t39 25.5t43 14.5t52 9.5l182 29v38q0 26 -5.5 40.5t-25.5 22.5q-23 11 -82 11q-58 0 -177 -28q-1 0 -3 -0.5t-4 -0.5q-9 0 -10 8l-12 56v3
q0 10 11 14q92 33 215 33q100 0 149 -27q35 -20 46 -50.5t11 -78.5v-277zM390 81v182l-147 -24q-24 -4 -33 -6.5t-24.5 -10.5t-21.5 -24t-6 -41q0 -31 11 -50.5t31.5 -28t38.5 -11t43 -2.5q62 0 108 16zM401 703q0 -4 -4 -7l-147 -102q-2 -2 -6 -2q-5 0 -8 4l-37 47
q-2 2 -2 5q0 4 4 8l145 105q2 2 6 2q5 0 9 -4l38 -50q2 -4 2 -6z" />
    <glyph glyph-name="acircumflex" unicode="&#xe2;" horiz-adv-x="566" 
d="M503 105q0 -53 -17.5 -72.5t-71.5 -31.5q-58 -14 -135 -14q-38 0 -64 2t-61.5 11.5t-57.5 26t-38 49.5t-16 79q0 38 10 65.5t22 42t39 25.5t43 14.5t52 9.5l182 29v38q0 26 -5.5 40.5t-25.5 22.5q-23 11 -82 11q-58 0 -177 -28q-1 0 -3 -0.5t-4 -0.5q-9 0 -10 8l-12 56v3
q0 10 11 14q92 33 215 33q100 0 149 -27q35 -20 46 -50.5t11 -78.5v-277zM390 81v182l-147 -24q-24 -4 -33 -6.5t-24.5 -10.5t-21.5 -24t-6 -41q0 -31 11 -50.5t31.5 -28t38.5 -11t43 -2.5q62 0 108 16zM450 650q0 -4 -2 -6l-36 -45q-4 -4 -9 -4q-4 0 -5 2l-111 86l-111 -86
q-2 -2 -6 -2q-5 0 -8 4l-37 45q-2 4 -2 6q0 3 4 7l143 102h34l142 -102q4 -3 4 -7z" />
    <glyph glyph-name="atilde" unicode="&#xe3;" horiz-adv-x="566" 
d="M503 105q0 -53 -17.5 -72.5t-71.5 -31.5q-58 -14 -135 -14q-38 0 -64 2t-61.5 11.5t-57.5 26t-38 49.5t-16 79q0 38 10 65.5t22 42t39 25.5t43 14.5t52 9.5l182 29v38q0 26 -5.5 40.5t-25.5 22.5q-23 11 -82 11q-58 0 -177 -28q-1 0 -3 -0.5t-4 -0.5q-9 0 -10 8l-12 56v3
q0 10 11 14q92 33 215 33q100 0 149 -27q35 -20 46 -50.5t11 -78.5v-277zM390 81v182l-147 -24q-24 -4 -33 -6.5t-24.5 -10.5t-21.5 -24t-6 -41q0 -31 11 -50.5t31.5 -28t38.5 -11t43 -2.5q62 0 108 16zM459 671q0 -3 -6 -9q-63 -50 -104 -50h-1q-26 1 -66 21q-48 23 -61 23
h-1q-24 0 -68 -35q-4 -4 -9 -4t-9 6l-22 44q-2 4 -2 7q0 5 6 9q56 50 103 50h1q27 0 67 -21q47 -22 61 -23q25 0 69 36q4 4 8 4q5 0 9 -7l23 -43q2 -4 2 -8z" />
    <glyph glyph-name="adieresis" unicode="&#xe4;" horiz-adv-x="566" 
d="M503 105q0 -53 -17.5 -72.5t-71.5 -31.5q-58 -14 -135 -14q-38 0 -64 2t-61.5 11.5t-57.5 26t-38 49.5t-16 79q0 38 10 65.5t22 42t39 25.5t43 14.5t52 9.5l182 29v38q0 26 -5.5 40.5t-25.5 22.5q-23 11 -82 11q-58 0 -177 -28q-1 0 -3 -0.5t-4 -0.5q-9 0 -10 8l-12 56v3
q0 10 11 14q92 33 215 33q100 0 149 -27q35 -20 46 -50.5t11 -78.5v-277zM390 81v182l-147 -24q-24 -4 -33 -6.5t-24.5 -10.5t-21.5 -24t-6 -41q0 -31 11 -50.5t31.5 -28t38.5 -11t43 -2.5q62 0 108 16zM249 703v-65q0 -12 -14 -12h-107q-14 0 -14 12v65q0 13 14 13h107
q14 0 14 -13zM460 703v-65q0 -12 -15 -12h-106q-14 0 -14 12v65q0 13 14 13h106q15 0 15 -13z" />
    <glyph glyph-name="aring" unicode="&#xe5;" horiz-adv-x="566" 
d="M503 105q0 -53 -17.5 -72.5t-71.5 -31.5q-58 -14 -135 -14q-38 0 -64 2t-61.5 11.5t-57.5 26t-38 49.5t-16 79q0 38 10 65.5t22 42t39 25.5t43 14.5t52 9.5l182 29v38q0 26 -5.5 40.5t-25.5 22.5q-23 11 -82 11q-58 0 -177 -28q-1 0 -3 -0.5t-4 -0.5q-9 0 -10 8l-12 56v3
q0 10 11 14q92 33 215 33q100 0 149 -27q35 -20 46 -51t11 -78v-277zM421 684q0 -58 -31 -83t-95 -25t-95 25t-31 83t31 82.5t95 24.5t95 -24.5t31 -82.5zM390 81v182l-147 -24q-24 -4 -33 -6.5t-24.5 -10.5t-21.5 -24t-6 -41q0 -31 11 -50.5t31.5 -28t38.5 -11t43 -2.5
q62 0 108 16zM346 684q0 36 -10.5 50.5t-40.5 14.5t-40.5 -15.5t-10.5 -50.5t10.5 -49.5t40.5 -14.5t40.5 15t10.5 50z" />
    <glyph glyph-name="ae" unicode="&#xe6;" horiz-adv-x="923" 
d="M876 266q0 -6 -0.5 -24t-0.5 -28q0 -19 -18 -19h-347q0 -55 33 -88q39 -38 133 -38q51 0 142 24q1 1 5 1q9 0 12 -12l12 -46q1 -1 1 -4q0 -9 -11 -14q-76 -31 -183 -31q-154 0 -204 97q-26 -46 -67.5 -71.5t-121.5 -25.5q-44 0 -78 6t-68.5 22.5t-53.5 52t-19 87.5
q0 80 39 111t119 46l198 37q0 42 -18 68q-25 36 -97 36q-69 0 -186 -28q-1 0 -3 -1q-10 0 -12 12l-10 51q-1 2 -1 5q0 8 11 13q19 8 82 20.5t117 12.5q149 0 180 -92q44 92 184 92q138 0 191 -80q40 -59 40 -192zM761 274q-2 76 -9 106q-11 43 -37.5 60t-79.5 17
q-96 0 -117 -81q-9 -36 -9 -103zM399 206v67l-146 -28q-25 -5 -39 -9.5t-29.5 -13.5t-22.5 -25t-7 -40q0 -92 118 -92q61 0 93.5 32t32.5 109z" />
    <glyph glyph-name="ccedilla" unicode="&#xe7;" horiz-adv-x="492" 
d="M459 29q0 -9 -11 -14q-20 -10 -67.5 -18t-94.5 -8q-139 0 -191.5 64.5t-52.5 209.5t52.5 210t191.5 65q47 0 94.5 -8t67.5 -18q11 -6 11 -15q0 -3 -1 -5l-9 -47q-3 -11 -14 -11q-4 0 -6 1q-73 20 -125 20q-84 0 -115 -41.5t-31 -150.5q0 -108 31.5 -149.5t114.5 -41.5
q55 0 125 19h6q11 0 14 -11l9 -45q1 -2 1 -6zM390 -119q0 -84 -102 -84q-37 0 -79 9q-7 2 -7 10q0 1 1 1l2 27q2 8 10 8h1l2 -1q40 -5 50 -5q43 0 43 35q0 34 -43 34q-19 0 -51 -4q-1 -1 -3 -1q-8 0 -10 8l-3 27v2q0 7 7 9q42 9 83 9q99 0 99 -84z" />
    <glyph glyph-name="egrave" unicode="&#xe8;" horiz-adv-x="570" 
d="M523 272q0 -33 -1 -48q0 -19 -17 -19h-348q1 -66 37 -100q37 -36 129 -36q54 0 143 24q2 1 5 1q9 0 13 -12l12 -46q1 -1 1 -4q0 -8 -11 -14q-76 -31 -178 -31q-145 0 -205.5 64.5t-60.5 209.5t51 211t191 66q144 0 198 -80q41 -58 41 -186zM408 284q0 61 -9 95
q-11 43 -37.5 60.5t-77.5 17.5q-55 0 -81.5 -17t-36.5 -59q-7 -27 -9 -98zM379 648q0 -4 -2 -5l-36 -47q-3 -4 -8 -4q-4 0 -6 2l-147 102q-4 3 -4 7t2 6l38 50q4 4 9 4q4 0 6 -2l145 -105q3 -3 3 -8z" />
    <glyph glyph-name="eacute" unicode="&#xe9;" horiz-adv-x="570" 
d="M523 272q0 -33 -1 -48q0 -19 -17 -19h-348q1 -66 37 -100q37 -36 129 -36q54 0 143 24q2 1 5 1q9 0 13 -12l12 -46q1 -1 1 -4q0 -8 -11 -14q-76 -31 -178 -31q-145 0 -205.5 64.5t-60.5 209.5t51 211t191 66q144 0 198 -80q41 -58 41 -186zM408 284q0 61 -9 95
q-11 43 -37.5 60.5t-77.5 17.5q-55 0 -81.5 -17t-36.5 -59q-7 -27 -9 -98zM396 703q0 -4 -4 -7l-147 -102q-2 -2 -6 -2q-5 0 -9 4l-36 47q-2 2 -2 5q0 5 4 8l145 105q2 2 6 2q5 0 8 -4l39 -50q2 -4 2 -6z" />
    <glyph glyph-name="ecircumflex" unicode="&#xea;" horiz-adv-x="570" 
d="M523 272q0 -33 -1 -48q0 -19 -17 -19h-348q1 -66 37 -100q37 -36 129 -36q54 0 143 24q2 1 5 1q9 0 13 -12l12 -46q1 -1 1 -4q0 -8 -11 -14q-76 -31 -178 -31q-145 0 -205.5 64.5t-60.5 209.5t51 211t191 66q144 0 198 -80q41 -58 41 -186zM408 284q0 61 -9 95
q-11 43 -37.5 60.5t-77.5 17.5q-55 0 -81.5 -17t-36.5 -59q-7 -27 -9 -98zM451 649q0 -3 -2 -5l-37 -45q-3 -5 -8 -5q-2 0 -6 2l-111 87l-111 -87q-2 -2 -6 -2q-5 0 -8 5l-36 45q-2 1 -2 5q0 5 4 8l142 102h34l143 -102q4 -4 4 -8z" />
    <glyph glyph-name="edieresis" unicode="&#xeb;" horiz-adv-x="570" 
d="M523 272q0 -33 -1 -48q0 -19 -17 -19h-348q1 -66 37 -100q37 -36 129 -36q54 0 143 24q2 1 5 1q9 0 13 -12l12 -46q1 -1 1 -4q0 -8 -11 -14q-76 -31 -178 -31q-145 0 -205.5 64.5t-60.5 209.5t51 211t191 66q144 0 198 -80q41 -58 41 -186zM408 284q0 61 -9 95
q-11 43 -37.5 60.5t-77.5 17.5q-55 0 -81.5 -17.5t-36.5 -58.5q-7 -27 -9 -98zM248 703v-65q0 -12 -15 -12h-106q-14 0 -14 12v65q0 13 14 13h106q15 0 15 -13zM459 703v-65q0 -5 -4.5 -8.5t-10.5 -3.5h-106q-14 0 -14 12v65q0 13 14 13h106q15 0 15 -13z" />
    <glyph glyph-name="igrave" unicode="&#xec;" horiz-adv-x="279" 
d="M194 15q0 -15 -15 -15h-82q-16 0 -16 15v490q0 14 16 14h82q15 0 15 -14v-490zM232 648q0 -3 -2 -5l-36 -47q-4 -4 -9 -4q-4 0 -6 2l-147 102q-4 3 -4 7q0 2 2 6l39 50q3 4 8 4q4 0 6 -2l145 -105q4 -3 4 -8z" />
    <glyph glyph-name="iacute" unicode="&#xed;" horiz-adv-x="279" 
d="M195 15q0 -15 -15 -15h-82q-16 0 -16 15v490q0 14 16 14h82q15 0 15 -14v-490zM232 703q0 -3 -4 -7l-148 -102q-1 -2 -6 -2t-8 4l-36 47q-2 1 -2 5q0 5 4 8l145 105q1 2 6 2q4 0 8 -4l39 -50q2 -4 2 -6z" />
    <glyph glyph-name="icircumflex" unicode="&#xee;" horiz-adv-x="279" 
d="M194 15q0 -15 -15 -15h-82q-16 0 -16 15v490q0 14 16 14h82q15 0 15 -14v-490zM299 649q0 -4 -2 -5l-36 -45q-5 -5 -9 -5q-3 0 -5 2l-111 87l-111 -87q-4 -2 -6 -2q-5 0 -8 5l-37 45q-2 2 -2 5q0 4 4 8l143 102h34l142 -102q4 -3 4 -8z" />
    <glyph glyph-name="idieresis" unicode="&#xef;" horiz-adv-x="279" 
d="M195 15q0 -15 -16 -15h-82q-15 0 -15 15v490q0 14 15 14h83q15 0 15 -14v-490zM101 703v-65q0 -12 -14 -12h-107q-14 0 -14 12v65q0 13 14 13h107q14 0 14 -13zM312 703v-65q0 -12 -15 -12h-106q-14 0 -14 12v65q0 13 14 13h106q15 0 15 -13z" />
    <glyph glyph-name="eth" unicode="&#xf0;" horiz-adv-x="571" 
d="M529 288q0 -26 -0.5 -42t-2.5 -43.5t-6.5 -46t-13 -43t-20.5 -40.5t-30.5 -34t-41.5 -28t-55.5 -17t-71.5 -7q-59 0 -104 15.5t-71 39.5t-42.5 60.5t-22 72t-5.5 79.5q0 36 3 65t16 69.5t35.5 67.5t67.5 46.5t106 19.5q77 0 134 -47q0 1 2.5 2t2.5 2q-9 64 -42 113.5
t-67 72.5l-101 -67q-6 -2 -7 -2q-4 0 -7 4l-34 36q-3 3 -3 6q0 5 5 8l80 51q-47 21 -158 25q-22 0 -22 18v49q0 19 18 19h19q141 0 231 -49l81 55q3 2 7 2t7 -4l34 -38q3 -3 3 -5q0 -7 -7 -9l-63 -43q146 -116 146 -426v-7zM412 254q0 45 -4 74t-16.5 57t-38.5 41.5
t-67 13.5q-77 0 -102 -47t-25 -139q0 -44 4 -73.5t16.5 -57t39 -41t67.5 -13.5q77 0 101.5 46.5t24.5 138.5z" />
    <glyph glyph-name="ntilde" unicode="&#xf1;" horiz-adv-x="589" 
d="M526 15q0 -15 -15 -15h-83q-16 0 -16 15v359q0 46 -18.5 64t-63.5 18q-32 0 -69.5 -5t-58.5 -11l-21 -5v-420q0 -15 -14 -15h-83q-16 0 -16 15v425q0 29 13.5 43t53.5 27q95 28 205 28q96 0 141 -33t45 -116v-374zM472 671q0 -3 -6 -9q-59 -50 -103 -50h-1q-25 1 -67 21
q-48 23 -61 23q-23 0 -69 -35q-4 -4 -8 -4q-5 0 -9 6l-23 44q-2 4 -2 7q0 5 6 9q59 50 104 50h1q28 0 66 -21q47 -22 61 -23h1q26 0 68 36q4 4 9 4t9 -7l22 -43q2 -4 2 -8z" />
    <glyph glyph-name="ograve" unicode="&#xf2;" horiz-adv-x="571" 
d="M529 262q0 -51 -4.5 -87.5t-19 -74.5t-40 -61t-71 -37.5t-108.5 -14.5q-78 0 -129 20.5t-75 61.5t-32 84.5t-8 108.5t8 109t32 85t75 61.5t129 20.5q63 0 108.5 -14.5t71 -37.5t40 -61t19 -74.5t4.5 -88.5zM412 262q0 44 -1.5 68.5t-8 52.5t-20 41.5t-37 22.5t-59.5 9
q-26 0 -45.5 -4.5t-33 -12t-22.5 -21.5t-14.5 -27.5t-8 -36.5t-3 -42t-0.5 -50q0 -44 1.5 -68t8 -52t20 -41.5t37.5 -22.5t60 -9t59.5 9t37 22.5t20 41.5t8 52t1.5 68zM381 648q0 -3 -2 -5l-36 -47q-4 -4 -9 -4q-4 0 -6 2l-147 102q-4 3 -4 7q0 2 2 6l39 50q3 4 8 4
q4 0 6 -2l145 -105q4 -3 4 -8z" />
    <glyph glyph-name="oacute" unicode="&#xf3;" horiz-adv-x="571" 
d="M529 262q0 -51 -4.5 -87.5t-19 -74.5t-40 -61t-71 -37.5t-108.5 -14.5q-78 0 -129 20.5t-75 61.5t-32 84.5t-8 108.5t8 109t32 85t75 61.5t129 20.5q63 0 108.5 -14.5t71 -37.5t40 -61t19 -74.5t4.5 -88.5zM412 262q0 44 -1.5 68.5t-8 52.5t-20 41.5t-37 22.5t-59.5 9
q-26 0 -45.5 -4.5t-33 -12t-22.5 -21.5t-14.5 -27.5t-8 -36.5t-3 -42t-0.5 -50q0 -44 1.5 -68t8 -52t20 -41.5t37.5 -22.5t60 -9t59.5 9t37 22.5t20 41.5t8 52t1.5 68zM393 703q0 -4 -4 -7l-147 -102q-2 -2 -6 -2q-5 0 -9 4l-36 47q-2 2 -2 5q0 5 4 8l145 105q2 2 6 2
q5 0 8 -4l39 -50q2 -4 2 -6z" />
    <glyph glyph-name="ocircumflex" unicode="&#xf4;" horiz-adv-x="571" 
d="M529 262q0 -51 -4.5 -87.5t-19 -74.5t-40 -61t-71 -37.5t-108.5 -14.5q-78 0 -129 20.5t-75 61.5t-32 84.5t-8 108.5t8 109t32 85t75 61.5t129 20.5q63 0 108.5 -14.5t71 -37.5t40 -61t19 -74.5t4.5 -88.5zM412 262q0 44 -1.5 68.5t-8 52.5t-20 41.5t-37 22.5t-59.5 9
q-26 0 -45.5 -4.5t-33 -12t-22.5 -21.5t-14.5 -27.5t-8 -36.5t-3 -42t-0.5 -50q0 -44 1.5 -68t8 -52t20 -41.5t37.5 -22.5t60 -9t59.5 9t37 22.5t20 41.5t8 52t1.5 68zM450 649q0 -3 -2 -5l-37 -45q-3 -5 -8 -5q-2 0 -6 2l-111 87l-111 -87q-2 -2 -5 -2q-4 0 -9 5l-36 45
q-2 2 -2 5q0 5 4 8l142 102h34l143 -102q4 -4 4 -8z" />
    <glyph glyph-name="otilde" unicode="&#xf5;" horiz-adv-x="571" 
d="M529 262q0 -51 -4.5 -87.5t-19 -74.5t-40 -61t-71 -37.5t-108.5 -14.5q-78 0 -129 20.5t-75 61.5t-32 84.5t-8 108.5t8 109t32 85t75 61.5t129 20.5q63 0 108.5 -14.5t71 -37.5t40 -61t19 -74.5t4.5 -88.5zM412 262q0 44 -1.5 68.5t-8 52.5t-20 41.5t-37 22.5t-59.5 9
q-26 0 -45.5 -4.5t-33 -12t-22.5 -21.5t-14.5 -27.5t-8 -36.5t-3 -42t-0.5 -50q0 -44 1.5 -68t8 -52t20 -41.5t37.5 -22.5t60 -9t59.5 9t37 22.5t20 41.5t8 52t1.5 68zM460 671q0 -3 -6 -9q-59 -50 -103 -50h-1q-25 1 -67 21q-48 23 -61 23q-23 0 -69 -35q-4 -4 -8 -4
q-5 0 -9 6l-23 44q-2 4 -2 7q0 5 6 9q59 50 104 50h1q28 0 66 -21q47 -22 61 -23h1q26 0 68 36q4 4 9 4t9 -7l22 -43q2 -4 2 -8z" />
    <glyph glyph-name="odieresis" unicode="&#xf6;" horiz-adv-x="571" 
d="M529 262q0 -51 -4.5 -87.5t-19 -74.5t-40 -61t-71 -37.5t-108.5 -14.5q-78 0 -129 20.5t-75 61.5t-32 84.5t-8 108.5t8 109t32 85t75 61.5t129 20.5q63 0 108.5 -14.5t71 -37.5t40 -61t19 -74.5t4.5 -88.5zM412 262q0 44 -1.5 68.5t-8 52.5t-20 41.5t-37 22.5t-59.5 9
q-26 0 -45.5 -4.5t-33 -12t-22.5 -21.5t-14.5 -27.5t-8 -36.5t-3 -42t-0.5 -50q0 -44 1.5 -68t8 -52t20 -41.5t37.5 -22.5t60 -9t59.5 9t37 22.5t20 41.5t8 52t1.5 68zM455 703v-65q0 -12 -14 -12h-106q-15 0 -15 12v65q0 13 15 13h106q14 0 14 -13zM244 703v-65
q0 -12 -14 -12h-106q-6 0 -10.5 3.5t-4.5 8.5v65q0 13 15 13h106q14 0 14 -13z" />
    <glyph glyph-name="divide" unicode="&#xf7;" 
d="M550 353v-58q0 -16 -18 -16h-466q-19 0 -19 16v58q0 16 19 16h466q18 0 18 -16zM356 557v-106q0 -12 -14 -12h-87q-14 0 -14 12v106q0 13 14 13h87q14 0 14 -13zM356 197v-106q0 -12 -14 -12h-87q-14 0 -14 12v106q0 12 14 12h87q14 0 14 -12z" />
    <glyph glyph-name="oslash" unicode="&#xf8;" horiz-adv-x="615" 
d="M577 533q0 -2 -4 -8l-59 -69q42 -59 42 -194q0 -65 -8 -108.5t-32.5 -84.5t-76 -61.5t-131.5 -20.5q-105 0 -161 39l-57 -66q-3 -4 -8 -4q-4 0 -8 3l-30 26q-5 4 -5 8t3 8l60 68q-42 60 -42 193q0 65 8 109t32.5 85t76 61.5t131.5 20.5q103 0 160 -38l57 66q3 4 8 4t8 -3
l31 -26q5 -5 5 -8zM439 262q0 73 -7 100l-223 -261q29 -32 99 -32q37 0 62 9t38.5 22.5t20.5 41.5t8.5 52t1.5 68zM405 426q-30 30 -97 30q-37 0 -62 -9t-39 -23t-21 -41.5t-8.5 -52t-1.5 -68.5q0 -64 7 -96z" />
    <glyph glyph-name="ugrave" unicode="&#xf9;" horiz-adv-x="584" 
d="M521 187q0 -96 -49 -148t-180 -52q-123 0 -176 47.5t-53 151.5v318q0 15 16 18l81 16h4q13 0 13 -15v-344q0 -58 25 -84.5t90 -26.5q71 0 93 28.5t22 83.5v324q0 15 16 18l81 16h3q14 0 14 -15v-336zM390 648q0 -3 -2 -5l-36 -47q-4 -4 -8 -4q-5 0 -6 2l-148 102
q-4 4 -4 7q0 2 2 6l39 50q3 4 8 4q4 0 6 -2l145 -105q4 -3 4 -8z" />
    <glyph glyph-name="uacute" unicode="&#xfa;" horiz-adv-x="584" 
d="M521 187q0 -96 -49 -148t-180 -52q-123 0 -176 47.5t-53 151.5v318q0 15 16 18l81 16h4q13 0 13 -15v-344q0 -58 25 -84.5t90 -26.5q71 0 93 28.5t22 83.5v324q0 15 16 18l81 16h3q14 0 14 -15v-336zM399 703q0 -3 -4 -7l-148 -102q-1 -2 -6 -2q-4 0 -8 4l-36 47
q-2 2 -2 5q0 5 4 8l145 105q1 2 6 2t8 -4l39 -50q2 -4 2 -6z" />
    <glyph glyph-name="ucircumflex" unicode="&#xfb;" horiz-adv-x="584" 
d="M521 187q0 -96 -49 -148t-180 -52q-123 0 -176 47.5t-53 151.5v318q0 15 16 18l81 16h4q13 0 13 -15v-344q0 -58 25 -84.5t90 -26.5q71 0 93 28.5t22 83.5v324q0 15 16 18l81 16h3q14 0 14 -15v-336zM455 649q0 -3 -2 -5l-37 -45q-3 -5 -8 -5q-2 0 -6 2l-111 87l-111 -87
q-2 -2 -5 -2q-4 0 -9 5l-36 45q-2 2 -2 5q0 5 4 8l142 102h34l143 -102q4 -4 4 -8z" />
    <glyph glyph-name="udieresis" unicode="&#xfc;" horiz-adv-x="584" 
d="M521 187q0 -96 -49 -148t-180 -52q-123 0 -176 47.5t-53 151.5v318q0 15 16 18l81 16h4q13 0 13 -15v-344q0 -58 25 -84.5t90 -26.5q71 0 93 28.5t22 83.5v324q0 15 16 18l81 16h3q14 0 14 -15v-336zM252 703v-65q0 -12 -14 -12h-107q-14 0 -14 12v65q0 13 14 13h107
q14 0 14 -13zM463 703v-65q0 -12 -15 -12h-106q-14 0 -14 12v65q0 13 14 13h106q15 0 15 -13z" />
    <glyph glyph-name="yacute" unicode="&#xfd;" horiz-adv-x="527" 
d="M516 510v-2q-1 -1 -1 -2l-173 -574q-23 -76 -59.5 -109t-119.5 -33q-50 0 -84 6q-13 1 -13 14l1 53q0 14 13 14h1q26 -2 59 -2q40 0 61 13.5t31 49.5l18 62h-56q-15 0 -20 16l-154 489v5q0 15 15 15h84q15 0 19 -15l120 -435h26l109 435q5 15 20 15h87q16 0 16 -15z
M376 703q0 -5 -4 -8l-147 -102q-4 -2 -6 -2q-5 0 -8 5l-37 47q-2 2 -2 5q0 4 4 8l145 105q4 2 6 2q5 0 9 -4l38 -50q2 -2 2 -6z" />
    <glyph glyph-name="thorn" unicode="&#xfe;" horiz-adv-x="584" 
d="M542 263q0 -140 -48 -208t-178 -68q-80 0 -145 18l11 -60v-121q0 -15 -15 -18l-81 -16h-4q-14 0 -14 15v913q0 15 16 18l81 16h4q13 0 13 -15v-166l-11 -59q85 26 156 26q119 0 167 -64t48 -211zM426 264q0 115 -24 153t-97 38q-23 0 -54 -4.5t-50 -9.5l-19 -5v-354
q46 -14 111 -14q76 0 104.5 41t28.5 155z" />
    <glyph glyph-name="ydieresis" unicode="&#xff;" horiz-adv-x="527" 
d="M516 510v-2q-1 -1 -1 -2l-173 -574q-23 -76 -59.5 -109t-119.5 -33q-50 0 -84 6q-13 1 -13 14l1 53q0 14 13 14h1q26 -2 59 -2q40 0 61 13.5t31 49.5l18 62h-56q-15 0 -20 16l-154 489v5q0 15 15 15h84q15 0 19 -15l120 -435h26l109 435q5 15 20 15h87q16 0 16 -15z
M227 703v-65q0 -12 -14 -12h-107q-14 0 -14 12v65q0 13 14 13h107q14 0 14 -13zM438 703v-65q0 -12 -15 -12h-106q-14 0 -14 12v65q0 13 14 13h106q15 0 15 -13z" />
    <glyph glyph-name="dotlessi" unicode="&#x131;" horiz-adv-x="279" 
d="M196 15q0 -15 -15 -15h-82q-16 0 -16 15v490q0 14 16 14h82q15 0 15 -14v-490z" />
    <glyph glyph-name="Lslash" unicode="&#x141;" horiz-adv-x="614" 
d="M598 16q0 -16 -16 -16h-453q-7 0 -12 4.5t-5 10.5v306l-71 -22h-5q-9 0 -10 7l-18 58v3q0 9 9 11l95 29v318q0 11 14 14l94 13h2q12 0 12 -14v-293l215 66q1 1 4 1q10 0 11 -7l18 -59v-3q0 -8 -10 -12l-238 -73v-258h348q16 0 16 -16v-68z" />
    <glyph glyph-name="lslash" unicode="&#x142;" horiz-adv-x="366" 
d="M368 407q0 -9 -10 -12l-132 -40v-237q0 -43 42 -43q22 0 34 4h4q7 0 10 -9l10 -50v-4q0 -5 -3.5 -8.5t-5.5 -3.5q-26 -13 -83 -13q-59 0 -90.5 31t-31.5 89v209l-71 -22h-5q-9 0 -10 7l-18 56v3q0 9 9 11l95 29v315q0 14 15 17l81 16h4q14 0 14 -15v-298l109 33q2 1 5 1
q9 0 10 -7l18 -57v-2z" />
    <glyph glyph-name="OE" unicode="&#x152;" horiz-adv-x="1091" 
d="M1031 16q0 -16 -15 -16h-436q-17 0 -17 16v42q-73 -71 -202 -71q-80 0 -137.5 22.5t-89 56.5t-50 88t-23.5 102t-5 113t5 113.5t23.5 102.5t50 88t89 56.5t137.5 22.5q130 0 202 -72v43q0 16 17 16h435q16 0 16 -16v-65q0 -6 -4.5 -10.5t-11.5 -4.5h-341v-212h326
q16 0 16 -16v-65q0 -16 -16 -16h-326v-239h342q15 0 15 -15v-64zM553 369q0 77 -6.5 125t-25.5 88.5t-57 58.5t-98 18q-48 0 -82 -13t-54 -35t-30.5 -60.5t-14 -79t-3.5 -102.5t3.5 -102.5t14 -79t30.5 -60t54 -34.5t82 -13q60 0 98 18t57 58t25.5 88t6.5 125z" />
    <glyph glyph-name="oe" unicode="&#x153;" horiz-adv-x="934" 
d="M886 272v-48q0 -19 -18 -19h-347q0 -65 37 -100q37 -36 129 -36q60 0 143 24q1 1 5 1q9 0 12 -12l12 -46q1 -1 1 -4q0 -10 -11 -14q-74 -31 -178 -31q-149 0 -200 67q-48 -67 -185 -67q-63 0 -108.5 15t-71.5 38.5t-40.5 61t-19 74t-4.5 86.5q0 51 4.5 87t19 74
t40.5 61.5t71.5 38.5t108.5 15q131 0 179 -65q47 65 182 65q144 0 200 -80q39 -60 39 -186zM412 262q0 43 -1.5 67t-8 52t-19.5 42t-37 23.5t-60 9.5t-60 -9.5t-37.5 -23.5t-20 -42t-8 -52t-1.5 -67t1.5 -67t8 -51.5t20 -41.5t37.5 -23.5t60 -9.5t60 9.5t37 23.5t19.5 41.5
t8 51.5t1.5 67zM770 282q0 64 -9 99q-11 42 -37.5 59t-77.5 17q-55 0 -81 -17t-37 -58q-7 -27 -9 -101z" />
    <glyph glyph-name="Scaron" unicode="&#x160;" horiz-adv-x="674" 
d="M618 214q0 -51 -16.5 -91t-43.5 -64.5t-65.5 -40.5t-78.5 -22.5t-87 -6.5q-140 0 -243 36q-15 5 -15 19q0 3 1 4l12 58q3 12 16 12q3 0 5 -1q1 0 29 -6.5t53.5 -11.5t66 -10t75.5 -5q73 0 120 28t47 93q0 23 -5.5 40t-20 29t-26 19t-38.5 13.5t-42 9t-50 7.5
q-41 6 -69.5 11.5t-66 21t-60 36.5t-39 57.5t-16.5 85.5q0 215 281 215q108 0 233 -34q16 -4 16 -19v-5l-13 -58q-2 -11 -16 -11h-2q-4 1 -26 6t-38.5 8.5t-41.5 7.5t-52.5 6.5t-54.5 2.5q-165 0 -165 -107q0 -26 11 -46t25.5 -31t43 -20t47.5 -12.5t55 -9.5
q111 -15 155 -35q99 -47 99 -179zM517 921q0 -4 -4 -7l-142 -103h-34l-143 103q-4 3 -4 7q0 2 2 6l36 44q4 4 9 4q4 0 6 -2l111 -86l110 86q2 2 6 2q5 0 9 -4l36 -44q2 -4 2 -6z" />
    <glyph glyph-name="scaron" unicode="&#x161;" horiz-adv-x="491" 
d="M452 154q0 -167 -217 -167q-101 0 -181 32q-9 6 -9 12v5l11 50q2 11 11 11q3 0 5 -1q95 -26 156 -26q111 0 111 74q0 12 -2.5 22t-5.5 17t-11.5 12.5t-13 8.5t-18 6.5t-18.5 4.5t-23 3.5t-24 3.5q-76 12 -108 31q-65 38 -65 125q0 160 210 160q85 0 162 -22q11 -3 11 -13
v-2l-9 -54q-1 -9 -11 -9h-3q-102 17 -136 17q-111 0 -111 -69q0 -27 17.5 -42.5t36 -20t54.5 -9.5q5 -1 8 -1q34 -5 51 -9t44.5 -15t41.5 -26t25 -43t11 -66zM417 706q0 -4 -4 -7l-142 -102h-34l-143 102q-4 4 -4 7q0 2 2 6l37 44q3 4 8 4q4 0 6 -2l111 -86l111 86q1 2 5 2
q5 0 9 -4l36 -44q2 -2 2 -6z" />
    <glyph glyph-name="Ydieresis" unicode="&#x178;" horiz-adv-x="667" 
d="M672 725q0 -4 -1 -6l-275 -425v-279q0 -6 -5 -10.5t-12 -4.5h-89q-7 0 -11.5 4.5t-4.5 10.5v279l-277 425q-2 4 -2 5q0 6 4.5 10.5t8.5 4.5h108q12 0 19 -13l203 -332l198 333q7 12 19 12h105q12 0 12 -14zM287 918v-64q0 -13 -15 -13h-106q-14 0 -14 13v64q0 13 14 13
h106q15 0 15 -13zM497 918v-64q0 -13 -14 -13h-106q-15 0 -15 13v64q0 13 15 13h106q14 0 14 -13z" />
    <glyph glyph-name="Zcaron" unicode="&#x17d;" horiz-adv-x="659" 
d="M618 16q0 -16 -15 -16h-542q-7 0 -11.5 4.5t-4.5 10.5v61q0 15 11 29l403 538h-402q-16 0 -16 16v64q0 16 16 16h535q15 0 15 -16v-68q0 -12 -7 -22l-409 -536h412q6 0 10.5 -4.5t4.5 -11.5v-65zM490 921q0 -4 -4 -7l-142 -103h-35l-142 103q-4 3 -4 7q0 2 2 6l36 44
q4 4 9 4q4 0 6 -2l110 -86l111 86q2 2 6 2q5 0 9 -4l36 -44q2 -4 2 -6z" />
    <glyph glyph-name="zcaron" unicode="&#x17e;" horiz-adv-x="498" 
d="M461 69v-54q0 -15 -15 -15h-386q-16 0 -16 15v54q0 12 9 22l275 350h-275q-16 0 -16 15v54q0 15 16 15h390q16 0 16 -15v-56q0 -10 -8 -20l-279 -350h274q15 0 15 -15zM418 707q0 -4 -4 -8l-143 -102h-34l-142 102q-4 3 -4 8q0 4 2 5l36 44q5 5 9 5q3 0 5 -2l111 -87
l111 87q4 2 6 2q5 0 8 -5l37 -44q2 -2 2 -5z" />
    <glyph glyph-name="florin" unicode="&#x192;" horiz-adv-x="573" 
d="M495 731v-3l-11 -52q-1 -12 -12 -12q-1 1 -2 1q-5 0 -24 2t-30 2q-49 0 -64.5 -18t-24.5 -69l-17 -101h126q12 0 12 -9q0 -2 -1 -3l-11 -60q-3 -13 -14 -13h-127l-106 -590q-2 -12 -14 -12h-83q-14 0 -14 12q0 2 1 3l105 587h-82q-12 0 -12 9v3l12 60q1 13 14 13h84
l19 108q16 92 54.5 127.5t133.5 35.5q44 0 76 -9q12 -5 12 -12z" />
    <glyph glyph-name="circumflex" unicode="&#x2c6;" horiz-adv-x="475" 
d="M401 650q0 -2 -2 -6l-36 -45q-4 -4 -9 -4q-4 0 -5 2l-111 86l-111 -86q-2 -2 -6 -2q-5 0 -8 4l-37 45q-2 4 -2 6q0 3 4 7l143 102h34l142 -102q4 -3 4 -7z" />
    <glyph glyph-name="caron" unicode="&#x2c7;" horiz-adv-x="475" 
d="M401 707q0 -5 -4 -8l-142 -102h-34l-143 102q-4 4 -4 8q0 3 2 5l37 44q3 5 8 5q2 0 6 -2l111 -87l111 87q2 2 5 2q4 0 9 -5l36 -44q2 -2 2 -5z" />
    <glyph glyph-name="uni02C9" unicode="&#x2c9;" horiz-adv-x="469" 
d="M392 694v-1q-1 -1 -1 -2l-8 -51q-2 -11 -11 -11l-2 1h-2q-89 24 -133 24q-42 0 -135 -24h-1q-1 -1 -2 -1q-9 0 -11 11l-9 51v3q0 8 11 11q75 25 146 25q69 0 147 -25q11 -3 11 -11z" />
    <glyph glyph-name="breve" unicode="&#x2d8;" horiz-adv-x="495" 
d="M422 729q0 -81 -43 -113.5t-131 -32.5t-131.5 33t-43.5 113q0 14 12 14h47q10 0 12 -14q1 -46 23 -65t81 -19q58 0 80 19.5t24 65.5q0 13 12 13h47q11 0 11 -14z" />
    <glyph glyph-name="dotaccent" unicode="&#x2d9;" horiz-adv-x="292" 
d="M219 700v-68q0 -16 -18 -16h-109q-19 0 -19 16v68q0 16 19 16h109q18 0 18 -16z" />
    <glyph glyph-name="ring" unicode="&#x2da;" horiz-adv-x="405" 
d="M329 684q0 -58 -31.5 -83t-95.5 -25q-63 0 -94.5 25t-31.5 83q0 57 31.5 82t94.5 25q64 0 95.5 -25t31.5 -82zM253 684q0 36 -10.5 50.5t-40.5 14.5t-40.5 -15.5t-10.5 -50.5t10.5 -49.5t40.5 -14.5t40.5 14.5t10.5 50.5z" />
    <glyph glyph-name="ogonek" unicode="&#x2db;" horiz-adv-x="367" 
d="M293 -183q0 -5 -9 -10q-42 -10 -91 -10q-120 0 -120 92q0 80 106 167l45 -31q-72 -68 -72 -126q0 -24 14.5 -35.5t50.5 -11.5q14 0 32 5t22 5q5 0 7 -2h1q7 0 9 -9l5 -33v-1z" />
    <glyph glyph-name="tilde" unicode="&#x2dc;" horiz-adv-x="501" 
d="M425 671q0 -3 -6 -9q-59 -50 -103 -50h-1q-25 1 -67 21q-48 23 -61 23h-1q-24 0 -68 -35q-4 -4 -8 -4q-5 0 -9 6l-23 44q-2 4 -2 7q0 5 6 9q59 50 104 50h1q28 0 66 -21q47 -22 61 -23h1q26 0 68 36q4 4 8 4q7 0 10 -7l22 -44q2 -2 2 -7z" />
    <glyph glyph-name="hungarumlaut" unicode="&#x2dd;" horiz-adv-x="518" 
d="M447 705q0 -5 -4 -8l-147 -103q-4 -2 -6 -2q-5 0 -9 4l-30 41q-2 4 -2 6q0 5 4 8l145 105q4 2 6 2q5 0 8 -4l33 -43q2 -4 2 -6zM269 708q0 -5 -4 -8l-147 -103q-4 -2 -6 -2q-6 0 -8 5l-31 41q-1 1 -1 5q0 5 3 8l145 105q4 2 6 2q5 0 9 -4l32 -43q2 -2 2 -6z" />
    <glyph glyph-name="uni037E" unicode="&#x37e;" horiz-adv-x="350" 
d="M240 116q0 -2 -1 -3l-36 -210q-1 -5 -2 -7.5t-4 -4t-9 -1.5h-70q-14 0 -14 11v2l18 209q0 13 14 13h90q14 0 14 -9zM246 423q0 -17 -16 -17h-102q-7 0 -12 5t-5 12v85q0 7 5 12t12 5h102q16 0 16 -17v-85z" />
    <glyph glyph-name="uni03BC" unicode="&#x3bc;" horiz-adv-x="591" 
d="M527 128q0 -80 -36 -110.5t-116 -30.5q-105 0 -205 34l12 -61v-136q0 -15 -15 -18l-81 -16h-4q-14 0 -14 15v699q0 15 16 18l81 16h4q13 0 13 -15v-425q70 -26 149 -26q52 0 67.5 16.5t15.5 64.5v351q0 15 15 18l81 16h4q13 0 13 -15v-395z" />
    <glyph glyph-name="endash" unicode="&#x2013;" horiz-adv-x="486" 
d="M502 245q0 -16 -18 -16h-482q-19 0 -19 16v58q0 16 19 16h482q18 0 18 -16v-58z" />
    <glyph glyph-name="emdash" unicode="&#x2014;" horiz-adv-x="1035" 
d="M1037 303v-58q0 -16 -19 -16h-1001q-19 0 -19 16v58q0 16 19 16h1002q18 0 18 -16z" />
    <glyph glyph-name="quoteleft" unicode="&#x2018;" horiz-adv-x="242" 
d="M196 724q0 -2 -1 -3l-31 -214q-2 -14 -18 -14h-85q-15 0 -15 15q0 4 1 7l65 211q3 13 16 13h54q14 0 14 -15z" />
    <glyph glyph-name="quoteright" unicode="&#x2019;" horiz-adv-x="242" 
d="M196 725q0 -5 -1 -8l-65 -211q-3 -13 -16 -13h-55q-13 0 -13 15v3l32 214q2 14 18 14h85q15 0 15 -14z" />
    <glyph glyph-name="quotesinglbase" unicode="&#x201a;" horiz-adv-x="199" 
d="M153 152v-1l-16 -219q0 -13 -12 -13h-66q-13 0 -13 13v219q0 13 13 13h81q13 0 13 -12z" />
    <glyph glyph-name="quotedblleft" unicode="&#x201c;" horiz-adv-x="422" 
d="M376 724v-3l-32 -214q-2 -14 -17 -14h-86q-15 0 -15 15q0 4 1 7l65 211q5 13 16 13h55q13 0 13 -15zM196 724q0 -2 -1 -3l-31 -214q-2 -14 -18 -14h-85q-15 0 -15 15q0 4 1 7l65 211q3 13 16 13h54q14 0 14 -15z" />
    <glyph glyph-name="quotedblright" unicode="&#x201d;" horiz-adv-x="422" 
d="M196 725q0 -5 -1 -8l-65 -211q-3 -13 -16 -13h-55q-13 0 -13 15v3l32 214q2 14 18 14h85q15 0 15 -14zM377 725q0 -2 -2 -8l-64 -211q-5 -13 -16 -13h-55q-13 0 -13 15v3l31 214q4 14 18 14h85q16 0 16 -14z" />
    <glyph glyph-name="quotedblbase" unicode="&#x201e;" horiz-adv-x="362" 
d="M153 152v-1l-16 -219q0 -13 -12 -13h-66q-13 0 -13 13v219q0 13 13 13h81q13 0 13 -12zM316 152v-1l-15 -219q-2 -13 -13 -13h-66q-12 0 -12 13v219q0 13 12 13h81q13 0 13 -12z" />
    <glyph glyph-name="dagger" unicode="&#x2020;" horiz-adv-x="705" 
d="M576 343v-58q0 -15 -15 -15h-158l10 -59v-388q0 -14 -15 -17l-89 -16h-4q-13 0 -13 15v406l10 59h-158q-15 0 -15 15v58q0 14 15 14h158l-10 60v301q0 15 15 18l89 16h4q13 0 13 -15v-320l-10 -60h158q15 0 15 -14z" />
    <glyph glyph-name="daggerdbl" unicode="&#x2021;" horiz-adv-x="705" 
d="M577 107q0 -15 -16 -15h-158l10 -59v-209q0 -15 -15 -18l-89 -16h-4q-13 0 -13 15l-1 228l11 59h-158q-15 0 -15 15v58q0 14 15 14h158l-11 60v64l11 60h-158q-16 0 -16 15v57q0 15 16 15h158l-10 60v209q0 14 15 17l89 16h4q13 0 13 -15l1 -227l-11 -60h158q15 0 15 -15
v-57q0 -15 -15 -15h-158l10 -60v-64l-10 -60h158q16 0 16 -14v-58z" />
    <glyph glyph-name="bullet" unicode="&#x2022;" horiz-adv-x="421" 
d="M343 256q0 -18 -12.5 -31t-30.5 -13h-178q-18 0 -31 13t-13 31v178q0 18 13 31t31 13h177q18 0 31 -13t13 -31v-178z" />
    <glyph glyph-name="ellipsis" unicode="&#x2026;" horiz-adv-x="992" 
d="M580 92v-76q0 -16 -18 -16h-122q-19 0 -19 16v76q0 16 19 16h122q18 0 18 -16zM265 92v-76q0 -16 -18 -16h-122q-19 0 -19 16v76q0 16 19 16h122q18 0 18 -16zM895 92v-76q0 -16 -18 -16h-122q-18 0 -18 16v76q0 16 18 16h122q18 0 18 -16z" />
    <glyph glyph-name="perthousand" unicode="&#x2030;" horiz-adv-x="1243" 
d="M1225 180q0 -33 -3 -57.5t-13 -51.5t-28 -44t-49.5 -28.5t-74.5 -11.5q-44 0 -75.5 11.5t-49 28.5t-27.5 44t-13 51.5t-3 57.5t3 57t13 51t27.5 44t49 28.5t75.5 11.5q43 0 74.5 -11.5t49.5 -28.5t28 -44t13 -51.5t3 -56.5zM835 180q0 -33 -3 -57.5t-13 -51.5t-28 -44
t-49.5 -28.5t-74.5 -11.5q-44 0 -75.5 11.5t-49 28.5t-27.5 44t-13 51.5t-3 57.5t3 57t13 51t27.5 44t49 28.5t75.5 11.5q43 0 74.5 -11.5t49.5 -28.5t28 -44t13 -51.5t3 -56.5zM354 559q0 -33 -3 -57t-13 -51t-27.5 -44t-49 -28.5t-75.5 -11.5q-43 0 -74.5 11.5t-49.5 28.5
t-28 44t-13 51.5t-3 56.5q0 33 3 57.5t13 51.5t28 44t49.5 28.5t74.5 11.5q44 0 75.5 -11.5t49 -28.5t27.5 -44t13 -51.5t3 -57.5zM703 700q0 -1 -2 -5l-486 -695q-3 -3 -8 -3q-4 0 -5 1l-49 31q-4 4 -4 8q0 3 2 5l487 695q1 4 7 4q3 0 5 -2l49 -31q4 -3 4 -8zM746 180
q0 65 -15 93.5t-64 28.5q-50 0 -65 -28.5t-15 -93.5q0 -66 15 -94.5t65 -28.5q49 0 64 28.5t15 94.5zM1136 180q0 65 -15 93.5t-64 28.5q-50 0 -65 -28.5t-15 -93.5q0 -66 15 -94.5t65 -28.5q49 0 64 28.5t15 94.5zM266 559q0 66 -15.5 94.5t-64.5 28.5t-64 -28.5t-15 -94.5
q0 -65 15 -93.5t64 -28.5q50 0 65 28.5t15 93.5z" />
    <glyph glyph-name="guilsinglleft" unicode="&#x2039;" horiz-adv-x="352" 
d="M299 495q0 -4 -2 -6l-147 -200l147 -200q2 -1 2 -5q0 -8 -6 -11l-54 -34q-1 -1 -5 -1q-7 0 -12 5l-167 237q-3 4 -3 9q0 3 2 9l168 237q4 6 12 6q3 0 5 -2l55 -34q5 -3 5 -10z" />
    <glyph glyph-name="guilsinglright" unicode="&#x203a;" horiz-adv-x="352" 
d="M300 289q0 -5 -3 -9l-167 -237q-5 -5 -12 -5q-4 0 -5 1l-55 34q-5 3 -5 11q0 4 2 5l147 200l-148 200q-1 2 -1 6q0 7 5 10l55 34q2 2 5 2q8 0 11 -6l168 -237q3 -4 3 -9z" />
    <glyph glyph-name="fraction" unicode="&#x2044;" horiz-adv-x="517" 
d="M526 699q0 -3 -2 -5l-468 -694q-3 -4 -7 -4q-3 0 -5 2l-48 32q-4 3 -4 8v3l1 2l468 694q3 4 8 4q1 0 5 -2l48 -32q4 -4 4 -8z" />
    <glyph glyph-name="Euro" unicode="&#x20ac;" horiz-adv-x="684" 
d="M661 43q0 -10 -15 -17q-89 -35 -216 -35q-156 -1 -222.5 65.5t-79.5 211.5h-79q-15 0 -15 15v48q0 15 15 15h534q10 0 10 -9q0 -1 -1 -2l-8 -56q-2 -11 -12 -11h-318q11 -93 48 -137t135 -44q87 0 187 27q6 2 9 2q11 0 14 -11l13 -56q1 -2 1 -6zM661 695q0 -3 -1 -5
l-13 -57q-3 -10 -14 -10q-1 0 -4 0.5t-5 0.5q-104 28 -187 28q-51 0 -86 -12.5t-54 -38t-28 -53t-15 -67.5h337q10 0 10 -9v-2l-8 -56q-2 -11 -13 -11h-530q-15 0 -15 15v48q0 15 15 15h78q14 140 82.5 203.5t219.5 63.5q127 0 216 -35q15 -7 15 -18z" />
    <glyph glyph-name="trademark" unicode="&#x2122;" horiz-adv-x="1022" 
d="M976 326q0 -15 -16 -15h-57q-15 0 -17 16l-19 332h-25l-73 -243q-4 -11 -12 -11h-94q-8 0 -12 11l-70 243h-25l-19 -332q0 -16 -16 -16h-55q-16 0 -16 15v2l25 395q2 16 17 16h145q9 0 11 -11l62 -247h3l67 247q2 11 11 11h143q14 0 16 -16l26 -395v-2zM425 683
q0 -16 -16 -16h-133v-340q0 -16 -16 -16h-60q-16 0 -16 16v340h-132q-17 0 -17 15v41q0 16 17 16h357q16 0 16 -16v-40z" />
    <glyph glyph-name="minus" unicode="&#x2212;" 
d="M508 347v-58q0 -16 -18 -16h-382q-18 0 -18 16v58q0 16 18 16h382q18 0 18 -16z" />
    <glyph glyph-name="uni2215" unicode="&#x2215;" horiz-adv-x="517" 
d="M526 699q0 -3 -2 -5l-468 -694q-3 -4 -7 -4q-3 0 -5 2l-48 32q-4 3 -4 8v3l1 2l468 694q3 4 8 4q1 0 5 -2l48 -32q4 -4 4 -8z" />
    <glyph glyph-name="uni2219" unicode="&#x2219;" horiz-adv-x="199" 
d="M157 240q0 -17 -16 -17h-83q-7 0 -12 5t-5 12v87q0 7 5 12.5t12 5.5h83q16 0 16 -18v-87z" />
    <glyph glyph-name="uni2224" unicode="&#x2224;" horiz-adv-x="199" 
d="M157 240q0 -17 -16 -17h-83q-7 0 -12 5t-5 12v87q0 7 5 12.5t12 5.5h83q16 0 16 -18v-87z" />
    <glyph glyph-name="uni2227" unicode="&#x2227;" horiz-adv-x="199" 
d="M157 240q0 -17 -16 -17h-83q-7 0 -12 5t-5 12v87q0 7 5 12.5t12 5.5h83q16 0 16 -18v-87z" />
    <glyph glyph-name="uni22C5" unicode="&#x22c5;" horiz-adv-x="199" 
d="M157 240q0 -17 -16 -17h-83q-7 0 -12 5t-5 12v87q0 7 5 12.5t12 5.5h83q16 0 16 -18v-87z" />
    <glyph glyph-name="fi" unicode="&#xfb01;" horiz-adv-x="606" 
d="M524 15q0 -15 -16 -15h-82q-15 0 -15 15v425h-195v-425q0 -15 -15 -15h-82q-16 0 -16 15v425h-78q-15 0 -15 15v55q0 15 15 15h78v50q0 87 36 127q43 50 161 50q76 0 168 -23q12 -5 12 -14v-2l-8 -53q-2 -12 -12 -12q-2 0 -3 1q-4 1 -29.5 6t-52.5 8t-57 3
q-60 0 -81 -18.5t-21 -75.5v-47h291q17 0 17 -16v-494z" />
    <glyph glyph-name="fl" unicode="&#xfb02;" horiz-adv-x="644" 
d="M624 16q0 -12 -8 -12q-29 -13 -83 -13q-59 0 -90.5 31t-31.5 89v329h-195v-425q0 -15 -15 -15h-82q-16 0 -16 15v425h-78q-15 0 -15 15v55q0 15 15 15h78v79q0 76 38.5 112t118.5 36q64 0 125 -16q12 -3 12 -14v-2l-7 -50q-3 -12 -12 -12h-3q-57 10 -85 10q-40 0 -57 -13
t-17 -49v-81h195v194q0 14 14 17l82 16h4q13 0 13 -15v-619q0 -43 42 -43q21 0 35 4h4q8 0 9 -9l10 -50v-4z" />
    <glyph glyph-name="mu" horiz-adv-x="591" 
d="M527 128q0 -80 -36 -110.5t-116 -30.5q-105 0 -205 34l12 -61v-136q0 -15 -15 -18l-81 -16h-4q-14 0 -14 15v699q0 15 16 18l81 16h4q13 0 13 -15v-425q70 -26 149 -26q52 0 67.5 16.5t15.5 64.5v351q0 15 15 18l81 16h4q13 0 13 -15v-395z" />
    <glyph glyph-name="CR" horiz-adv-x="310" 
 />
  </font>
</defs>
</svg>
