<svg xmlns="http://www.w3.org/2000/svg">
<defs>
<font id="SabonLTPro-Bold" horiz-adv-x="556" >
  <font-face 
    font-family="Sabon LT Pro"
    font-weight="700"
    font-stretch="normal"
    units-per-em="1000"
    panose-1="2 2 7 2 5 5 6 2 4 3"
    ascent="764"
    descent="-236"
    x-height="449"
    cap-height="698"
    bbox="-163 -228.01 1000 977"
    underline-thickness="50"
    underline-position="-200"
    unicode-range="U+000D-FB04"
  />
<missing-glyph horiz-adv-x="485" 
d="M263 111h-53v63h53v-63zM257 222h-46v16q0 50 11 75.5t46 55.5q28 27 37 44t9 36q0 33 -21 56.5t-51 23.5q-67 0 -77 -90q-8 2 -24 4.5t-24 3.5q7 66 41 98t87 32q52 0 85 -34t33 -90q0 -32 -12.5 -56.5t-47.5 -56.5t-40.5 -47.5t-5.5 -70.5zM47 47h391v585h-391v-585z
M0 680h485v-680h-485v680z" />
    <glyph glyph-name="IJ" unicode="IJ" horiz-adv-x="732" 
d="M14 0v30h14q22 0 36 3t26 16.5t12 37.5v524q0 35 -20 46t-54 11h-14v30q18 0 70 -2t78 -2q25 0 79.5 2t77.5 2v-30h-14q-22 0 -36 -3t-26 -16.5t-12 -37.5v-524q0 -35 20 -46t54 -11h14v-30q-24 0 -78.5 2t-79.5 2q-26 0 -77.5 -2t-69.5 -2zM491 -98v713q0 15 -5 25.5
t-11.5 16t-20 8t-22 3t-25.5 0.5h-14v30q21 0 74.5 -2t79.5 -2q27 0 81.5 2t74.5 2v-30h-15q-69 0 -69 -53v-588q0 -93 -60.5 -169t-150.5 -76q-50 0 -83.5 20t-33.5 65q0 22 16.5 39t42.5 17q28 0 41.5 -15t15 -33.5t11 -33.5t30.5 -15q24 0 33.5 24t9.5 52z" />
    <glyph glyph-name="ij" unicode="ij" horiz-adv-x="543" 
d="M193 455v-401q0 -16 11.5 -20t36.5 -4h15v-30q-76 4 -114 4q-42 0 -120 -4v30h7q19 0 27.5 1t16.5 8t8 21v283q0 13 -4 18.5t-20 9.5q-6 2 -17.5 5.5t-17.5 4.5v24q28 7 91 29q13 5 37 16t32 14zM198 665q0 -25 -18 -43t-43 -18t-43 18t-18 43t18 43t43 18t43 -18t18 -43
zM458 455v-489q0 -80 -44.5 -121.5t-130.5 -72.5l-7 27q46 18 58 45.5t12 98.5v400q0 13 -4 18.5t-20 9.5q-6 2 -17.5 5.5t-17.5 4.5v24q28 7 91 29q13 5 37 16t32 14zM402 726q25 0 43 -18t18 -43t-17.5 -43t-43.5 -18t-43.5 18t-17.5 43t18 43t43 18z" />
    <glyph glyph-name="napostrophe" unicode="&#x22;n" 
d="M21 0v39h12q16 0 24 1t15 6.5t7 17.5v279q0 11 -3.5 15t-16.5 8q-3 1 -9 2.5t-9 2.5q-13 5 -20 6v31q40 10 86 28v-1q1 1 6 3t6 2q7 3 18 8t18 7q22 11 29 14l15 -13v-57q6 3 11 8q29 20 43.5 29.5t42 20t52.5 10.5q127 0 127 -132v-273q0 -11 7.5 -16t14.5 -6t22 -1h16
v-39q-74 4 -116 4q-44 0 -122 -4v39h15q43 0 43 21v247q0 78 -70 78q-36 0 -86 -32v-295q0 -13 10.5 -16t32.5 -3h19v-39q-74 4 -117 4q-47 0 -123 -4zM14 539h-24l9 140q2 48 39 48q20 0 32 -9t12 -22q0 -18 -13 -43z" />
    <glyph glyph-name="f_f" unicode="ff" horiz-adv-x="599" 
d="M197 393v-324q0 -26 8.5 -32.5t43.5 -6.5h11v-30q-100 4 -121 4q-41 0 -125 -4v30h23q19 0 27 1.5t14.5 10t6.5 26.5v325h-71v18q26 12 71 40v70q0 98 79 175q69 68 117 68q69 0 69 -63q0 -23 -13.5 -39t-35.5 -16q-14 0 -31 25t-36 25q-37 0 -37 -68v-179h170v72
q0 98 79 175q69 68 117 68q69 0 69 -63q0 -23 -13.5 -39t-35.5 -16q-14 0 -31 25t-36 25q-37 0 -37 -68v-179h112v-56h-112v-324q0 -25 14.5 -32t57.5 -7h19v-30q-100 4 -149 4q-27 0 -111 -4v30h9q19 0 27 1.5t14.5 10t6.5 26.5v325h-170z" />
    <glyph glyph-name="fi" unicode="fi" 
d="M197 393v-324q-1 -24 10.5 -31.5t37.5 -7.5h19v-30q-100 4 -125 4q-41 0 -125 -4v30h23q19 0 27 1.5t14.5 10t6.5 26.5v325h-71v18q26 12 71 40v64q0 99 78 174t186 75q55 0 96.5 -23t41.5 -67q0 -24 -16 -36t-41 -12t-38 14.5t-16 32.5t-19 32.5t-47 14.5
q-21 0 -38 -4.5t-28.5 -15.5t-20 -20.5t-13.5 -29t-7.5 -31t-4 -36.5t-1.5 -35.5v-37.5v-61h206q14 0 25.5 5t15 8t15.5 14l20 -12v-410q0 -16 11.5 -20t36.5 -4h15v-30q-76 4 -114 4q-42 0 -120 -4v30h7q19 0 27.5 1t16.5 8t8 21v283q0 28 -8.5 39t-31.5 11h-130z" />
    <glyph glyph-name="fl" unicode="fl" 
d="M197 393v-324q-1 -24 10.5 -31.5t37.5 -7.5h19v-30q-100 4 -125 4q-41 0 -125 -4v30h23q19 0 27 1.5t14.5 10t6.5 26.5v325h-71v18q26 12 71 40v36q0 90 55 165q82 112 200 112q34 0 100 -21l27 14l12 -5v-700q0 -22 49 -22h14v-30q-82 4 -122 4q-37 0 -111 -4v30h12
q15 0 22.5 0.5t15.5 6t8 15.5v631q-28 31 -70 31q-53 0 -76.5 -37t-23.5 -128v-100h120v-56h-120z" />
    <glyph glyph-name="f_f_i" unicode="ffi" horiz-adv-x="846" 
d="M367 449v66q0 99 78 174t186 75q55 0 96.5 -23t41.5 -67q0 -24 -16 -36t-41 -12t-38 14.5t-16 32.5t-19 32.5t-47 14.5q-24 0 -42 -7t-30 -17t-20 -29t-12 -33.5t-6 -40.5t-2.5 -40.5t-0.5 -42.5v-61h206q27 0 56 27l20 -12v-410q0 -16 12 -20t36 -4h15v-30q-76 4 -114 4
q-42 0 -120 -4v30h7q19 0 27.5 1t16.5 8t8 21v283q0 28 -8.5 39t-31.5 11h-130v-324q0 -24 11.5 -31.5t36.5 -7.5h19v-30q-100 4 -125 4q-26 0 -110 -4v30h8q19 0 27 1.5t14.5 10t6.5 26.5v325h-170v-324q0 -26 8.5 -32.5t43.5 -6.5h11v-30q-100 4 -121 4q-41 0 -125 -4v30
h23q19 0 27 1.5t14.5 10t6.5 26.5v325h-71v18q26 12 71 40v70q0 98 79 175q69 68 117 68q69 0 69 -63q0 -23 -13.5 -39t-35.5 -16q-14 0 -31 25t-36 25q-37 0 -37 -68v-179h170z" />
    <glyph glyph-name="f_f_l" unicode="ffl" horiz-adv-x="846" 
d="M367 449v38q0 90 55 165q82 112 200 112q34 0 100 -21l27 14l12 -5v-700q0 -22 49 -22h14v-30q-82 4 -122 4q-37 0 -111 -4v30h12q15 0 22.5 0.5t15.5 6t8 15.5v631q-28 31 -70 31q-53 0 -76.5 -37t-23.5 -128v-100h120v-56h-120v-324q0 -24 11.5 -31.5t36.5 -7.5h19v-30
q-100 4 -125 4q-41 0 -125 -4v30h23q19 0 27 1.5t14.5 10t6.5 26.5v325h-170v-324q0 -26 8.5 -32.5t43.5 -6.5h11v-30q-100 4 -121 4q-41 0 -125 -4v30h23q19 0 27 1.5t14.5 10t6.5 26.5v325h-71v18q26 12 71 40v70q0 98 79 175q69 68 117 68q69 0 69 -63q0 -23 -13.5 -39
t-35.5 -16q-14 0 -31 25t-36 25q-37 0 -37 -68v-179h170z" />
    <glyph glyph-name=".notdef" horiz-adv-x="485" 
d="M263 111h-53v63h53v-63zM257 222h-46v16q0 50 11 75.5t46 55.5q28 27 37 44t9 36q0 33 -21 56.5t-51 23.5q-67 0 -77 -90q-8 2 -24 4.5t-24 3.5q7 66 41 98t87 32q52 0 85 -34t33 -90q0 -32 -12.5 -56.5t-47.5 -56.5t-40.5 -47.5t-5.5 -70.5zM47 47h391v585h-391v-585z
M0 680h485v-680h-485v680z" />
    <glyph glyph-name=".null" horiz-adv-x="500" 
 />
    <glyph glyph-name="nonmarkingreturn" horiz-adv-x="333" 
 />
    <glyph glyph-name="CR" unicode="&#xd;" horiz-adv-x="0" 
 />
    <glyph glyph-name="space" unicode=" " horiz-adv-x="278" 
 />
    <glyph glyph-name="exclam" unicode="!" horiz-adv-x="333" 
d="M177 198h-20q-10 58 -31 166t-30 156q-5 29 -5 62q0 39 19 67.5t56 28.5q75 0 75 -102q0 -38 -5 -62q-10 -53 -29.5 -158t-29.5 -158zM246 64q0 -32 -24 -55.5t-56 -23.5t-55.5 23.5t-23.5 55.5t24 56t55 24q32 0 56 -24t24 -56z" />
    <glyph glyph-name="quotedbl" unicode="&#x22;" 
d="M413 625l-21 -182q-2 -15 -8 -21t-21 -6q-17 0 -23 6t-8 21l-21 182q-2 12 -2 20q0 53 51 53q34 0 44.5 -14.5t10.5 -38.5q0 -8 -2 -20zM245 625l-21 -182q-2 -15 -8 -21t-21 -6q-17 0 -23 6t-8 21l-21 182q-2 12 -2 20q0 53 51 53q34 0 44.5 -14.5t10.5 -38.5
q0 -8 -2 -20z" />
    <glyph glyph-name="numbersign" unicode="#" 
d="M28 197v68h106l20 145h-97v68h107l29 212h77l-29 -212h114l29 212h77l-29 -212h96v-68h-106l-20 -145h97v-68h-107l-29 -212h-77l29 212h-114l-29 -212h-77l29 212h-96zM344 410h-111l-20 -145h112z" />
    <glyph glyph-name="dollar" unicode="$" 
d="M70 184l28 6q1 -4 6.5 -22.5t7.5 -23.5t8 -21.5t9.5 -22.5t11.5 -19t15.5 -18t18.5 -13.5t23 -12t28 -6t34 -2.5v259q-45 23 -71 39.5t-54 42.5t-40.5 60t-12.5 78q0 85 48 139t130 66v56h30v-56q62 0 157 -12q-1 -40 10 -144l-30 -5q-5 50 -37 87.5t-77 37.5
q-16 0 -23 -1v-249q95 -49 123 -72q73 -58 73 -158q0 -79 -58.5 -143.5t-137.5 -68.5v-87h-30v87q-87 0 -174 47zM290 271v-239q31 -1 60.5 35t29.5 78q0 78 -90 126zM260 444v225q-72 -25 -72 -116q0 -67 72 -109z" />
    <glyph glyph-name="percent" unicode="%" horiz-adv-x="1000" 
d="M93 533q0 76 47.5 124t126.5 48t126.5 -48t47.5 -124t-47.5 -124t-126.5 -48t-126.5 48t-47.5 124zM559 157q0 76 47.5 124t126.5 48t126.5 -48t47.5 -124t-47.5 -124t-126.5 -48t-126.5 48t-47.5 124zM254 -30l440 750h54l-440 -750h-54zM199 533q0 -136 68 -136t68 136
t-68 136t-68 -136zM665 157q0 -136 68 -136t68 136t-68 136t-68 -136z" />
    <glyph glyph-name="ampersand" unicode="&#x26;" horiz-adv-x="944" 
d="M606 492v29q92 -4 139 -4q46 0 140 4v-30q-18 0 -54 -4q-35 -2 -73.5 -35t-64.5 -70t-59 -87t-48 -68q22 -33 38 -54.5t44 -52t57.5 -46.5t59.5 -16q58 0 106 58l21 -16q-81 -122 -191 -122q-48 0 -90 25t-65.5 54t-55.5 78q-117 -150 -250 -150q-88 0 -145.5 58.5
t-57.5 147.5q0 68 45.5 127t111.5 94q-75 55 -75 139q0 64 51 105.5t117 41.5q56 0 99 -26t43 -78q0 -21 -7.5 -39.5t-15 -30t-27.5 -26.5t-28 -20.5t-34 -20.5q131 -72 229 -204q2 4 15.5 25.5t22.5 36t23 38.5t22.5 41t15 34t6.5 27q0 39 -65 37zM237 396
q-84 -64 -84 -143q0 -72 53 -122t126 -50q52 0 86 18.5t75 60.5q-103 145 -256 236zM310 471q63 47 63 109q0 34 -22 58t-57 24q-31 0 -52 -22t-21 -52q0 -68 89 -117z" />
    <glyph glyph-name="quotesingle" unicode="'" horiz-adv-x="278" 
d="M190 625l-21 -182q-2 -15 -8 -21t-21 -6q-17 0 -23 6t-8 21l-21 182q-2 12 -2 20q0 53 51 53q34 0 44.5 -14.5t10.5 -38.5q0 -8 -2 -20z" />
    <glyph glyph-name="parenleft" unicode="(" horiz-adv-x="333" 
d="M220 719l30 -18q-51 -136 -77 -234.5t-26 -197.5q0 -100 26.5 -200t76.5 -231l-33 -25q-146 207 -146 453q0 110 37 216t112 237z" />
    <glyph glyph-name="parenright" unicode=")" horiz-adv-x="333" 
d="M113 -187l-30 18q51 136 77 234.5t26 197.5q0 100 -26.5 200t-76.5 231l33 25q146 -207 146 -453q0 -110 -37 -216t-112 -237z" />
    <glyph glyph-name="asterisk" unicode="*" 
d="M119 639q28 32 56 8q12 -9 24 -23.5t17 -22t19.5 -32t15.5 -26.5q-3 -1 -7.5 -6.5t-5.5 -9.5q-10 4 -39 14t-46.5 18.5t-31.5 20.5q-11 9 -13 26q0 17 11 33zM459 508q0 -43 -38 -43q-21 0 -125 33q9 11 4 21q8 3 29 11t32.5 12t28.5 7.5t31 3.5q16 0 27 -12.5t11 -32.5z
M97 444q0 8 6 15.5t18 13.5t23 11t28 9l25.5 6t23.5 5l15 3q5 -14 11 -17q-2 -2 -10 -13.5t-13.5 -18t-15 -18t-17.5 -19t-17 -15t-17.5 -11.5t-16.5 -4q-19 0 -31 16.5t-12 36.5zM298 325q-20 0 -30 11.5t-10 29.5q0 36 2 116q1 0 5.5 -0.5t6.5 -0.5q6 0 9 3
q67 -93 67 -118q0 -17 -16 -29t-34 -12zM315 698q18 1 34.5 -10t16.5 -28q0 -29 -76 -121q-10 8 -19 8q3 48 3 97q0 24 11 39t30 15z" />
    <glyph glyph-name="plus" unicode="+" 
d="M233 297v207h90v-207h207v-90h-207v-207h-90v207h-207v90h207z" />
    <glyph glyph-name="comma" unicode="," horiz-adv-x="278" 
d="M52 -172l-16 27q44 12 78.5 36.5t34.5 62.5q0 24 -14 37.5t-30.5 17.5t-30.5 18.5t-14 40.5q0 30 22 53t52 23q46 0 71.5 -33.5t25.5 -81.5q0 -78 -49.5 -129t-129.5 -72z" />
    <glyph glyph-name="hyphen" unicode="-" horiz-adv-x="333" 
d="M26 198l17 80q45 -1 135 -1q22 0 65 0.5t64 0.5l-17 -80q-19 0 -57.5 0.5t-57.5 0.5q-124 0 -149 -1z" />
    <glyph glyph-name="period" unicode="." horiz-adv-x="278" 
d="M219 64q0 -32 -24 -55.5t-56 -23.5t-55.5 23.5t-23.5 55.5t24 56t55 24t55.5 -24t24.5 -56z" />
    <glyph glyph-name="slash" unicode="/" horiz-adv-x="389" 
d="M-7 -15l298 728h95l-297 -728h-96z" />
    <glyph glyph-name="zero" unicode="0" 
d="M278 705q68 0 116.5 -30t73.5 -83t35.5 -110.5t10.5 -126.5t-12 -131t-37.5 -117.5t-73.5 -88.5t-113 -33q-67 0 -115.5 33t-73.5 89t-36 117t-11 131q0 68 12 126.5t37.5 110.5t73.5 82.5t113 30.5zM278 669q-124 0 -124 -314q0 -26 0.5 -47t3.5 -65.5t11.5 -78.5
t21 -69t35.5 -54.5t52 -19.5t52 19.5t35.5 54.5t21 69t11.5 78.5t3.5 65.5t0.5 47q0 314 -124 314z" />
    <glyph glyph-name="one" unicode="1" 
d="M355 705v-620q0 -16 5.5 -27t12 -16.5t20.5 -8t23.5 -3t28.5 -0.5h23v-30q-28 0 -84 1.5t-84 1.5q-33 1 -94.5 -1t-87.5 -2v30h22q22 0 34 1t28 6t23.5 16.5t7.5 30.5v503q-22 -10 -69 -32t-67 -32l-16 29q64 33 131 76q90 58 115 77h28z" />
    <glyph glyph-name="two" unicode="2" 
d="M66 528l-20 20q30 68 91 112.5t132 44.5q80 0 127.5 -50t47.5 -132q0 -29 -8.5 -60.5t-19.5 -57t-33 -57.5t-37.5 -52.5t-45.5 -52.5t-44.5 -46t-47 -45.5t-40.5 -39.5h282q15 31 25 57h27q-20 -126 -24 -169h-457v34q52 39 101.5 84.5t99.5 103.5t80 122.5t30 123.5
q0 62 -35.5 104.5t-98.5 42.5q-75 0 -132 -87z" />
    <glyph glyph-name="three" unicode="3" 
d="M141 324l-6 30q75 24 129 66t54 100q0 46 -29 75.5t-75 29.5q-64 0 -120 -60l-20 21q40 52 93 85.5t112 33.5q57 0 104 -35.5t47 -91.5q0 -66 -37.5 -107t-106.5 -76v-2q80 6 133.5 -34.5t53.5 -120.5q0 -72 -45.5 -131.5t-112.5 -90.5t-137 -31q-42 0 -79 13t-49 42
q-7 15 -7 41q0 6 11 10q24 10 42 8q11 -37 41 -57.5t68 -20.5q64 0 105 46.5t41 112.5q0 72 -35 114.5t-89 42.5q-38 0 -86 -13z" />
    <glyph glyph-name="four" unicode="4" 
d="M503 290v-90h-78v-200h-112v200h-285v58l334 447h63v-415h78zM311 578l-210 -288h212v288h-2z" />
    <glyph glyph-name="five" unicode="5" 
d="M100 389l97 301h278l-34 -103h-240l-32 -96q268 -73 268 -266q0 -108 -80.5 -174t-190.5 -66q-42 0 -81 18t-39 55t33 37q13 0 24 -11.5t19 -25.5t30 -25.5t55 -11.5q61 0 97.5 42.5t36.5 104.5q0 60 -38.5 108.5t-90.5 75t-112 37.5z" />
    <glyph glyph-name="six" unicode="6" 
d="M196 291l-3 25q20 33 61.5 57t86.5 24q81 0 125.5 -55.5t44.5 -135.5q0 -95 -71.5 -158t-167.5 -63q-109 0 -171.5 78.5t-62.5 189.5q0 87 42 167t109 137.5t149.5 96t165.5 51.5l14 -27q-158 -37 -258 -148t-100 -269q0 -32 7 -70t21.5 -77.5t42.5 -66t65 -26.5
q51 0 77 35t26 88q0 64 -36.5 118.5t-94.5 54.5q-32 0 -72 -26z" />
    <glyph glyph-name="seven" unicode="7" 
d="M127 0l300 578h-311l-29 -62h-27l23 174h452l7 -12l-367 -701z" />
    <glyph glyph-name="eight" unicode="8" 
d="M65 148q0 67 35.5 107t102.5 67l-14 9q-108 69 -108 181q0 42 14 76t36 55.5t50.5 35.5t56.5 20t55 6q77 0 131.5 -42.5t54.5 -118.5q0 -56 -39 -99t-97 -70q66 -28 107 -76t41 -114q0 -88 -64.5 -144t-152.5 -56q-81 0 -145 43t-64 120zM147 157q0 -60 36 -98t95 -38
q48 0 77.5 31.5t29.5 79.5q0 24 -8 45t-16 34.5t-29.5 30.5t-31 23.5t-38.5 23t-35 20.5q-38 -23 -59 -64t-21 -88zM177 559q0 -61 37.5 -98.5t104.5 -71.5q36 25 57 64.5t21 83.5q0 54 -31.5 93t-84.5 39q-43 0 -73.5 -33.5t-30.5 -76.5z" />
    <glyph glyph-name="nine" unicode="9" 
d="M360 399l3 -25q-20 -33 -61.5 -57t-86.5 -24q-81 0 -125.5 55.5t-44.5 135.5q0 95 71.5 158t167.5 63q109 0 171.5 -78.5t62.5 -189.5q0 -87 -42 -167t-109 -137.5t-149.5 -96t-165.5 -51.5l-14 27q158 37 258 148t100 269q0 32 -7 70t-21.5 77.5t-42.5 66t-65 26.5
q-51 0 -77 -35t-26 -88q0 -64 36.5 -118.5t94.5 -54.5q32 0 72 26z" />
    <glyph glyph-name="colon" unicode=":" horiz-adv-x="278" 
d="M219 64q0 -32 -24 -55.5t-56 -23.5t-55.5 23.5t-23.5 55.5t24 56t55 24t55.5 -24t24.5 -56zM219 369q0 -32 -24 -55.5t-56 -23.5t-55.5 23.5t-23.5 55.5t24 56t55 24t55.5 -24.5t24.5 -55.5z" />
    <glyph glyph-name="semicolon" unicode=";" horiz-adv-x="278" 
d="M52 -172l-16 27q44 12 78.5 36.5t34.5 62.5q0 24 -14 37.5t-30.5 17.5t-30.5 18.5t-14 40.5q0 30 22 53t52 23q46 0 71.5 -33.5t25.5 -81.5q0 -78 -49.5 -129t-129.5 -72zM219 369q0 -32 -24 -55.5t-56 -23.5t-55.5 23.5t-23.5 55.5t24 56t55 24t55.5 -24.5t24.5 -55.5z
" />
    <glyph glyph-name="less" unicode="&#x3c;" 
d="M532 86v-89l-508 221v68l508 221v-89l-383 -166z" />
    <glyph glyph-name="equal" unicode="=" 
d="M530 399v-90h-504v90h504zM530 195v-90h-504v90h504z" />
    <glyph glyph-name="greater" unicode="&#x3e;" 
d="M24 418v89l508 -221v-68l-508 -221v89l383 166z" />
    <glyph glyph-name="question" unicode="?" horiz-adv-x="444" 
d="M190 198h-26l-4 180q0 13 12 13q36 0 68.5 7.5t60 30.5t27.5 60q0 48 -28.5 76t-77.5 28q-10 0 -26.5 -2t-21.5 -2q-26 0 -44.5 14.5t-18.5 42.5q0 26 23 42.5t49 16.5q77 1 141 -97q54 -83 54 -169q0 -74 -35.5 -113.5t-108.5 -52.5q-36 -7 -39 -23q-5 -30 -5 -52z
M269 64q0 -32 -24 -55.5t-56 -23.5t-55.5 23.5t-23.5 55.5t24 56t55 24t55.5 -24t24.5 -56z" />
    <glyph glyph-name="at" unicode="@" horiz-adv-x="800" 
d="M617 527l-62 -264q-2 -12 -2 -22q0 -29 32 -29q43 0 73 60t30 129q0 111 -70.5 180.5t-198.5 69.5q-55 0 -105 -19.5t-91.5 -57.5t-66 -100.5t-24.5 -140.5q0 -118 85 -202t212 -84q111 0 208 50l11 -47q-117 -65 -218 -65q-86 0 -155 23t-112.5 58.5t-73 82.5t-41.5 93
t-12 91q0 169 108 274.5t275 105.5q156 0 250.5 -87.5t94.5 -223.5q0 -107 -52.5 -179.5t-142.5 -72.5q-46 0 -71 29t-24 49h-2q-8 -21 -44 -49.5t-80 -28.5q-46 0 -76 30t-30 101q0 36 13 78.5t37.5 84t68 69t97.5 27.5q23 0 38.5 -9.5t19 -15t13.5 -24.5l10 36h78z
M507 414q0 64 -50 64q-41 0 -80 -52t-39 -127q0 -44 12 -65.5t42 -21.5q39 0 77 60.5t38 141.5z" />
    <glyph glyph-name="A" unicode="A" horiz-adv-x="722" 
d="M209 247l-32 -104q-3 -11 -9.5 -29.5t-9.5 -29.5t-3 -19q0 -35 75 -35h11v-30q-80 4 -121 4q-36 0 -108 -4v30h6q64 0 87 65l160 459q31 89 37 124q50 17 91 43q6 2 8 2q5 0 7 -3q1 -4 4 -12.5t5 -12.5l184 -523q27 -80 37 -102q17 -40 66 -40h6v-30q-90 4 -138 4
t-150 -4v30h11q62 0 62 29q0 14 -20 72l-39 116h-227zM415 303l-92 283h-2l-93 -283h187z" />
    <glyph glyph-name="B" unicode="B" horiz-adv-x="667" 
d="M19 0v30h14q22 0 36 3t26 16.5t12 37.5v524q0 35 -20 46t-54 11h-14v30q21 0 74 -2t82 -2q30 0 84 2t76 2q119 0 175 -43t56 -114q0 -70 -52 -109t-130 -53v-2q89 2 156 -45.5t67 -133.5q0 -81 -69.5 -139.5t-166.5 -58.5q-23 0 -83 2t-92 2q-33 0 -95.5 -2t-81.5 -2z
M235 356v-235q0 -53 16.5 -69t73.5 -16q63 0 105.5 45.5t42.5 112.5q0 80 -47.5 121t-126.5 41h-64zM235 662v-270h49q68 0 108 31.5t40 98.5q0 140 -137 140h-60z" />
    <glyph glyph-name="C" unicode="C" horiz-adv-x="722" 
d="M685 496l-30 -4q-12 41 -26.5 69.5t-39.5 54.5t-64.5 39.5t-93.5 13.5q-119 0 -184.5 -84t-65.5 -220q0 -64 16.5 -123t49 -107.5t86.5 -77t122 -28.5q78 0 131 45t73 122l28 -4q-16 -68 -25 -162q-104 -45 -229 -45q-176 0 -284 96t-108 278q0 108 54 190t141 123
t192 41q67 0 143 -23t106 -27q-2 -90 8 -167z" />
    <glyph glyph-name="D" unicode="D" horiz-adv-x="778" 
d="M19 0v30h14q22 0 36 3t26 16.5t12 37.5v524q0 35 -20 46t-54 11h-14v30q11 0 67.5 -2t92.5 -2q35 0 88.5 2t72.5 2q183 0 290 -94.5t107 -252.5q0 -151 -109.5 -255.5t-261.5 -95.5q-88 4 -182 4q-39 0 -98 -2t-67 -2zM235 657v-542q0 -50 22.5 -64.5t81.5 -14.5
q121 0 189.5 86.5t68.5 209.5q0 96 -22.5 162.5t-65 102t-92.5 50.5t-114 15q-13 0 -68 -5z" />
    <glyph glyph-name="E" unicode="E" horiz-adv-x="611" 
d="M19 0v30h14q22 0 36 3t26 16.5t12 37.5v524q0 35 -20 46t-54 11h-14v30q28 0 116 -2t133 -2q44 0 134 2t122 2q-3 -74 2 -153l-30 -8q-2 29 -6.5 46.5t-16.5 35.5t-36.5 26.5t-62.5 8.5h-139v-262h119q42 0 58 21.5t21 66.5h30q-3 -58 -3 -117q0 -57 3 -114l-30 -6
q-2 24 -3.5 34t-6.5 26t-12.5 22t-21.5 11.5t-34 5.5h-120v-233q0 -19 7.5 -32t16.5 -19.5t28 -9.5t32 -3.5t38 -0.5q51 0 79 3t55 15t42.5 37t26.5 67l28 -7q-23 -93 -34 -159q-29 0 -125 2t-144 2q-49 0 -145.5 -2t-120.5 -2z" />
    <glyph glyph-name="F" unicode="F" 
d="M235 654v-262h140q64 0 64 81h30q-4 -72 -4 -107q0 -67 4 -122h-30q0 47 -17.5 72.5t-62.5 25.5h-124v-255q0 -16 5.5 -27.5t13 -17t22.5 -8.5t25.5 -3.5t29.5 -0.5h13v-30q-22 0 -82 2t-90 2q-28 0 -81 -2t-72 -2v30h14q22 0 36 3t26 16.5t12 37.5v524q0 35 -20 46
t-54 11h-14v30q28 0 116 -2t133 -2q44 0 134 2t122 2q-3 -74 2 -153l-30 -8q-5 59 -25.5 88t-75.5 29h-160z" />
    <glyph glyph-name="G" unicode="G" horiz-adv-x="778" 
d="M710 505l-30 -2q-40 166 -232 166q-129 0 -198 -83.5t-69 -215.5q0 -64 16 -123t47 -109t84.5 -79.5t122.5 -29.5q88 -2 111 19v163q0 51 -76 51h-13v30q100 -4 150 -4q44 0 134 4v-30h-13q-54 0 -54 -51v-152l23 -13v-18q-153 -43 -279 -43q-173 0 -283 99.5t-110 275.5
q0 84 34 152.5t90.5 111.5t127.5 66t148 23q66 0 144 -18q79 -18 113 -19q0 -113 12 -171z" />
    <glyph glyph-name="H" unicode="H" horiz-adv-x="833" 
d="M235 336v-249q0 -19 6.5 -31.5t19.5 -17.5t24 -6.5t28 -1.5h19v-30q-21 0 -77.5 2t-84.5 2q-27 0 -79.5 -2t-71.5 -2v30h14q22 0 36 3t26 16.5t12 37.5v524q0 35 -20 46t-54 11h-14v30q19 0 71.5 -2t79.5 -2q28 0 84.5 2t77.5 2v-30h-19q-17 0 -28 -1.5t-24 -6.5
t-19.5 -17.5t-6.5 -31.5v-219h363v219q0 19 -6.5 31.5t-19.5 17.5t-24 6.5t-28 1.5h-19v30q21 0 77.5 -2t84.5 -2q27 0 79.5 2t71.5 2v-30h-14q-22 0 -36 -3t-26 -16.5t-12 -37.5v-524q0 -35 20 -46t54 -11h14v-30q-19 0 -71.5 2t-79.5 2q-28 0 -84.5 -2t-77.5 -2v30h19
q17 0 28 1.5t24 6.5t19.5 17.5t6.5 31.5v249h-363z" />
    <glyph glyph-name="I" unicode="I" horiz-adv-x="333" 
d="M14 0v30h14q22 0 36 3t26 16.5t12 37.5v524q0 35 -20 46t-54 11h-14v30q18 0 70 -2t78 -2q25 0 79.5 2t77.5 2v-30h-14q-22 0 -36 -3t-26 -16.5t-12 -37.5v-524q0 -35 20 -46t54 -11h14v-30q-24 0 -78.5 2t-79.5 2q-26 0 -77.5 -2t-69.5 -2z" />
    <glyph glyph-name="J" unicode="J" horiz-adv-x="389" 
d="M148 -98v713q0 15 -5 25.5t-11.5 16t-20 8t-22 3t-25.5 0.5h-14v30q21 0 74.5 -2t79.5 -2q27 0 81.5 2t74.5 2v-30h-15q-69 0 -69 -53v-588q0 -93 -60.5 -169t-150.5 -76q-50 0 -83.5 20t-33.5 65q0 22 16 39t43 17q28 0 41.5 -15t15 -33.5t11 -33.5t30.5 -15
q24 0 33.5 24t9.5 52z" />
    <glyph glyph-name="K" unicode="K" horiz-adv-x="722" 
d="M19 0v30h14q22 0 36 3t26 16.5t12 37.5v524q0 35 -20 46t-54 11h-14v30q19 0 71.5 -2t79.5 -2q29 0 84.5 2t74.5 2v-30h-12q-16 0 -26.5 -1t-25 -6t-22.5 -17.5t-8 -32.5v-524q0 -20 8 -32.5t22.5 -17.5t25 -6t26.5 -1h12v-30q-19 0 -74.5 2t-84.5 2q-27 0 -79.5 -2
t-71.5 -2zM425 668v30q21 0 64 -2t64 -2q23 0 67 2t67 2v-30h-13q-78 0 -161 -89l-158 -171l257 -323q38 -55 91 -55v-30q-16 0 -50.5 1t-51.5 1q-16 0 -47.5 -1t-47.5 -1q-16 34 -52 75l-216 270l210 234q44 44 44 68q0 21 -56 21h-11z" />
    <glyph glyph-name="L" unicode="L" horiz-adv-x="611" 
d="M240 614v-516q0 -48 60 -56q68 -5 132 2q62 7 96 54q18 25 31 72h29q-6 -32 -19.5 -91t-17.5 -79q-44 0 -132 2t-132 2t-132 -2t-132 -2v30h14q16 0 27 2t23.5 8t18.5 20.5t6 36.5v514q0 35 -20.5 46t-54.5 11h-14v30q27 0 79 -2t79 -2q25 0 76 2t76 2v-30h-25
q-18 0 -27.5 -1t-20.5 -6t-15.5 -16.5t-4.5 -30.5z" />
    <glyph glyph-name="M" unicode="M" horiz-adv-x="1000" 
d="M275 698l234 -523l237 523q14 0 48.5 -2t53.5 -2q18 0 53 2t53 2v-30h-9q-91 0 -93 -46q-1 -16 5 -78l38 -458q3 -35 21 -44.5t68 -11.5v-30q-94 4 -144 4q-55 0 -165 -4v30q59 3 73 14q13 11 13 33q0 23 -1 49l-28 422h-2l-255 -563h-24l-242 552h-2l-34 -439
q0 -42 21 -57q15 -9 64 -11h12v-30q-90 4 -136 4q-40 0 -118 -4v30h14q29 1 46 7t26 23t12 30.5t7 48.5l30 278q12 107 12 176q0 39 -25 57t-62 18h-13v30q21 0 61 -2t61 -2q15 0 45 2t45 2z" />
    <glyph glyph-name="N" unicode="N" horiz-adv-x="833" 
d="M218 698l445 -501l2 2v375q0 54 -27 74t-60 20h-22v30q24 0 70 -2t70 -2q20 0 61 2t62 2v-30h-15q-19 0 -32 -3.5t-27.5 -15t-22 -39t-7.5 -69.5v-455q0 -64 6 -101h-38l-515 574v-412q0 -67 19 -92t75 -25h17v-30q-21 0 -64 2t-65 2q-23 0 -68.5 -2t-67.5 -2v30h14
q50 0 70 31.5t20 95.5v421q0 40 -27.5 65t-63.5 25h-13v30q19 0 57.5 -2t57.5 -2q15 0 44.5 2t44.5 2z" />
    <glyph glyph-name="O" unicode="O" horiz-adv-x="834" 
d="M41 344q0 156 106.5 262.5t262.5 106.5q164 0 273.5 -94.5t109.5 -250.5q0 -170 -108 -276.5t-270 -106.5q-161 0 -267.5 100t-106.5 259zM181 379q0 -144 64.5 -247t179.5 -103q228 0 228 317q0 57 -15.5 112.5t-44.5 103.5t-77 77.5t-108 29.5q-63 0 -109 -26
t-70.5 -69.5t-36 -92t-11.5 -102.5z" />
    <glyph glyph-name="P" unicode="P" 
d="M230 662v-549q0 -29 7 -47t22.5 -25t28.5 -9t37 -2h16v-30q-25 0 -76 2t-76 2q-27 0 -82 -2t-84 -2v30h16q15 0 23 1.5t19 8.5t16 25t5 46v478q0 48 -14.5 63.5t-52.5 15.5h-12v30q16 0 64.5 -2t75.5 -2t75.5 2t70.5 2q235 0 235 -191q0 -86 -54 -140.5t-139 -62.5
q-31 -2 -80 -2v30h21q59 0 88.5 46.5t29.5 124.5q0 74 -38 116.5t-113 42.5h-29z" />
    <glyph glyph-name="Q" unicode="Q" horiz-adv-x="834" 
d="M41 344q0 156 106.5 262.5t262.5 106.5q164 0 273.5 -94.5t109.5 -250.5q0 -142 -77.5 -241.5t-204.5 -127.5q19 -12 41 -28q26 -18 66.5 -51t51.5 -41q3 -2 9.5 -7.5t9 -7t8.5 -6t9 -6t8 -5t8 -5l7 -3.5t7.5 -3t7 -1.5t7.5 -0.5q27 0 42 15l15 -19q-30 -33 -53.5 -45.5
t-57.5 -12.5q-50 0 -107 43q-16 13 -33.5 28.5t-35.5 32t-26 23.5q-65 59 -111 86q-149 10 -246 108.5t-97 250.5zM181 379q0 -144 64.5 -247t179.5 -103q228 0 228 317q0 57 -15.5 112.5t-44.5 103.5t-77 77.5t-108 29.5q-63 0 -109 -26t-70.5 -69.5t-36 -92t-11.5 -102.5z
" />
    <glyph glyph-name="R" unicode="R" horiz-adv-x="722" 
d="M112 84v508q0 26 -6 42.5t-18.5 23t-22 8.5t-24.5 2h-18v30q12 0 66.5 -2t88.5 -2q31 0 83 2t78 2q238 0 238 -176q0 -121 -139 -176l171 -256q21 -31 40.5 -43t56.5 -17v-30q-16 0 -49 2t-49 2t-47 -2t-47 -2q-96 126 -208 324h-66v-214q0 -28 5.5 -45t18.5 -24t25 -9
t33 -2h18v-30q-28 0 -86 2t-86 2q-24 0 -72 -2t-73 -2v30h18q30 0 50.5 14t20.5 40zM240 658v-298h49q78 0 116 35.5t38 120.5q0 67 -39.5 106.5t-106.5 39.5q-1 0 -57 -4z" />
    <glyph glyph-name="S" unicode="S" horiz-adv-x="500" 
d="M428 555l-28 -5q-6 52 -37.5 89.5t-80.5 37.5q-59 0 -91 -33t-32 -93q0 -45 31 -76.5t75 -52.5t88 -45t75 -70t31 -112q0 -99 -70 -154.5t-172 -55.5q-71 0 -159 45q-3 26 -8.5 76t-8.5 76l28 6q10 -69 49 -114t106 -45q53 0 88 31t35 83q0 48 -30.5 81.5t-73.5 54.5
t-86 45t-73.5 69.5t-30.5 112.5q0 96 61 151.5t160 55.5q28 0 144 -15q0 -63 10 -143z" />
    <glyph glyph-name="T" unicode="T" horiz-adv-x="722" 
d="M300 648h-164q-53 0 -67 -15.5t-26 -75.5h-30q12 81 12 85q6 42 6 85h24q3 -11 8.5 -17t15.5 -8.5t16 -3t20 -0.5h516q17 0 26.5 1.5t18 8.5t9.5 21l24 -4q-8 -54 -11 -81q-2 -27 -2 -81l-30 -11q-1 26 -4.5 43t-21 35t-48.5 18h-164v-532q0 -53 20.5 -69.5t62.5 -16.5
h19v-30q-18 0 -76 2t-87 2q-33 0 -92.5 -2t-76.5 -2v30h19q47 0 65 14.5t18 69.5v534z" />
    <glyph glyph-name="U" unicode="U" horiz-adv-x="778" 
d="M107 234v361q0 26 -5.5 41.5t-18.5 22t-23.5 8t-29.5 1.5h-12v30q19 0 72 -2t87 -2q33 0 83 2t67 2v-30h-12q-20 0 -30.5 -1.5t-24 -8t-19.5 -22t-6 -41.5v-345q0 -215 190 -215q96 0 143 57t47 162v341q0 26 -6 41.5t-18 22t-21.5 8t-26.5 1.5h-20v30q20 0 60.5 -2
t60.5 -2t58 2t58 2v-30h-21q-14 0 -22 -1.5t-19.5 -7.5t-17 -22.5t-5.5 -41.5v-319q0 -291 -269 -291q-148 0 -223.5 59t-75.5 190z" />
    <glyph glyph-name="V" unicode="V" horiz-adv-x="722" 
d="M309 698v-30h-23q-26 0 -39 -8.5t-13 -19.5q0 -9 9 -32l171 -445h2l159 416q13 34 13 56q0 33 -64 33h-17v30q17 0 55 -2t61 -2q16 0 47 2t45 2v-30h-10q-35 0 -53 -35q-13 -22 -219 -549q-5 -13 -19.5 -47t-21.5 -52h-37l-254 626q-14 34 -32 45.5t-52 11.5h-10v30
q25 0 77 -2t77 -2q27 0 81.5 2t66.5 2z" />
    <glyph glyph-name="W" unicode="W" horiz-adv-x="1000" 
d="M656 -15l-134 313l-132 -313h-34l-252 594q-1 3 -5.5 14t-6 13.5t-6 12t-6.5 12.5t-6.5 10t-8 9.5t-9.5 7t-11.5 6t-12.5 3t-15 1.5h-15v30q18 0 68.5 -2t75.5 -2q22 0 66.5 2t59.5 2v-30h-9q-43 0 -43 -23q0 -21 34 -103l164 -385l81 195l-125 289q-12 27 -61 27v30
q23 0 70 -2t71 -2q18 0 55 2t55 2q16 0 48 -2t48 -2q15 0 45 2t45 2v-30h-14q-36 0 -51.5 -15t-35.5 -61l-59 -137l123 -290l154 420q15 43 15 55q0 16 -13.5 22t-46.5 6h-12v30q16 0 49 -2t50 -2q15 0 44.5 2t44.5 2v-30h-12q-34 0 -59 -65l-236 -618h-35zM568 506l36 90
q13 35 13 42q0 30 -56 30q-49 0 -49 -25q0 -10 16 -48l38 -89h2z" />
    <glyph glyph-name="X" unicode="X" horiz-adv-x="778" 
d="M331 322l-206 282q-23 33 -44 48.5t-51 15.5h-13v30q28 0 82.5 -2t81.5 -2q25 0 75.5 2t75.5 2v-30h-11q-55 0 -55 -23q0 -15 31 -57l117 -161l115 148q37 48 37 65q0 28 -62 28h-15v30q24 0 72 -2t72 -2q20 0 60 2t60 2v-30h-19q-63 0 -129 -80l-163 -199l201 -281
q56 -78 103 -78h15v-30q-21 0 -65 2t-66 2q-28 0 -84.5 -2t-84.5 -2v30h11q50 0 50 17q0 5 -2.5 9.5t-10 14t-9.5 12.5l-142 201l-135 -178q-28 -37 -28 -48q0 -28 72 -28h9v-30q-23 0 -69 2t-69 2q-20 0 -60.5 -2t-60.5 -2v30h15q67 0 141 96z" />
    <glyph glyph-name="Y" unicode="Y" horiz-adv-x="722" 
d="M318 112v214l-200 274q-19 26 -29 37.5t-27.5 21t-39.5 9.5h-10v30q27 0 78.5 -2t78.5 -2t76 2t72 2v-30h-13q-52 0 -52 -23q0 -6 18 -33l151 -212l124 179q3 4 8.5 13t7.5 12.5l6 10.5t5.5 10.5t2.5 8.5t1 10q0 24 -57 24h-18v30q19 0 57 -2t57 -2q16 0 48 2t47 2v-30
q-45 0 -78 -46l-186 -263v-239q0 -59 18.5 -74.5t64.5 -15.5h19v-30q-31 0 -87 2t-76 2q-24 0 -81 -2t-88 -2v30h19q46 0 64.5 17t18.5 65z" />
    <glyph glyph-name="Z" unicode="Z" horiz-adv-x="722" 
d="M29 0l459 648h-249q-77 0 -107.5 -21.5t-39.5 -94.5h-35q4 34 10 102q4 54 4 79l30 8q1 -7 6 -11.5t10.5 -7t15 -3.5t14 -1h15h11.5h501l-458 -648h292q72 0 100 26t56 103l29 -7q-34 -150 -38 -172h-626z" />
    <glyph glyph-name="bracketleft" unicode="[" horiz-adv-x="333" 
d="M315 713v-30h-48q-32 0 -59 -3q-24 -2 -24 -40v-748q0 -38 24 -40q27 -3 59 -3h48v-30q-12 0 -46.5 1t-61.5 1q-33 0 -67.5 -1t-35.5 -1l-6 4q0 6 1 29t2 71t1 115v456q0 67 -1 115t-2 71t-1 29l6 4q1 0 35.5 -1t67.5 -1q27 0 61.5 1t46.5 1z" />
    <glyph glyph-name="backslash" unicode="\" horiz-adv-x="389" 
d="M98 713l298 -728h-96l-297 728h95z" />
    <glyph glyph-name="bracketright" unicode="]" horiz-adv-x="333" 
d="M18 -181v30h48q32 0 59 3q24 2 24 40v748q0 38 -24 40q-27 3 -59 3h-48v30q12 0 46.5 -1t61.5 -1q33 0 67.5 1t35.5 1l6 -4q0 -6 -1 -29t-2 -71t-1 -115v-456q0 -67 1 -115t2 -71t1 -29l-6 -4q-1 0 -35.5 1t-67.5 1q-27 0 -61.5 -1t-46.5 -1z" />
    <glyph glyph-name="asciicircum" unicode="^" 
d="M138 296h-91l193 394h76l193 -394h-91l-140 298z" />
    <glyph glyph-name="underscore" unicode="_" horiz-adv-x="500" 
d="M500 -125h-500v50h500v-50z" />
    <glyph glyph-name="grave" unicode="`" horiz-adv-x="278" 
d="M77 700l147 -148h-40l-154 97q-29 16 -29 37q0 38 35 38q17 0 41 -24z" />
    <glyph glyph-name="a" unicode="a" horiz-adv-x="500" 
d="M304 259v56q0 41 -21.5 61t-57.5 20q-43 0 -58.5 -14.5t-18.5 -56.5q-1 -18 -27.5 -29t-43.5 -11q-19 0 -19 23q0 56 55 84q71 37 108 58q24 14 60 14q66 0 100.5 -34t34.5 -99v-204q0 -38 6 -56t25 -18q15 0 28 13l13 -18q-26 -32 -49 -47.5t-56 -15.5q-35 0 -54 21.5
t-22 57.5q-39 -38 -74 -58.5t-79 -20.5q-47 0 -78 27.5t-31 75.5q0 28 10 48.5t32.5 35.5t40 23t52.5 21zM304 106v119q-5 -2 -24.5 -8t-29 -9t-27 -10t-26.5 -14t-20 -17t-15.5 -22.5t-4.5 -26.5q0 -65 61 -65q47 0 86 53z" />
    <glyph glyph-name="b" unicode="b" 
d="M66 78v575q-37 14 -67 24v17q103 35 167 70l12 -8v-356q30 23 48 34t45 20.5t57 9.5q90 0 140 -62.5t50 -157.5q0 -114 -73 -186.5t-178 -72.5q-94 0 -144 38q-27 -18 -45 -38l-16 10q4 37 4 83zM178 368v-275q12 -24 41 -48t62 -24q34 0 58 16t35.5 43.5t16.5 55.5t5 60
q0 47 -14 91t-46 76.5t-77 32.5q-38 0 -81 -28z" />
    <glyph glyph-name="c" unicode="c" horiz-adv-x="444" 
d="M419 126l18 -20q-41 -60 -83 -90.5t-106 -30.5q-99 0 -154.5 61t-55.5 162q0 105 74 180.5t179 75.5q131 0 131 -75q0 -22 -15.5 -37.5t-38.5 -15.5q-17 0 -30 13t-21 29t-25 29t-42 13q-52 0 -79 -38.5t-27 -102.5q0 -83 39 -148.5t115 -65.5q38 0 62 13.5t59 47.5z" />
    <glyph glyph-name="d" unicode="d" 
d="M477 756v-707l58 5v-25q-28 -5 -80 -20q-19 -6 -47.5 -14t-33.5 -10l-8 6v61q-43 -37 -73 -52t-78 -15q-73 0 -125 61.5t-52 148.5q0 114 74.5 191.5t170.5 77.5q47 0 82 -15v204l-67 24v17q103 35 167 70zM365 83v273q-14 28 -41.5 46t-57.5 18q-61 0 -88.5 -52
t-27.5 -123q0 -82 37.5 -137t95.5 -55q43 0 82 30z" />
    <glyph glyph-name="e" unicode="e" horiz-adv-x="444" 
d="M408 129l16 -19q-32 -56 -82 -90.5t-110 -34.5q-90 0 -142 69t-52 161q0 99 61.5 174t159.5 75q75 0 117 -49t40 -126l-12 -11h-270q0 -84 39.5 -143.5t115.5 -59.5q71 0 119 54zM136 308h114q42 0 52 5.5t10 31.5q0 31 -19 57t-51 26q-43 0 -70 -34.5t-36 -85.5z" />
    <glyph glyph-name="f" unicode="f" horiz-adv-x="333" 
d="M213 393v-324q-1 -25 14 -32t58 -7h19v-30q-100 4 -149 4q-41 0 -125 -4v30h23q19 0 27 1.5t14.5 10t6.5 26.5v325h-71v18q26 12 71 40v70q0 98 79 175q69 68 117 68q69 0 69 -63q0 -23 -13.5 -39t-35.5 -16q-14 0 -31 25t-36 25q-37 0 -37 -68v-179h112v-56h-112z" />
    <glyph glyph-name="g" unicode="g" horiz-adv-x="500" 
d="M41 104l87 60q-45 20 -71.5 56.5t-26.5 83.5q0 72 59 116t133 44q69 0 122 -26q12 -6 45 -6h87v-50h-77q16 -37 16 -78q0 -69 -57 -113.5t-132 -44.5q-34 0 -65 9l-24 -20q-1 -18 4.5 -29.5t18.5 -16t23.5 -5.5t29.5 -1q22 0 66 2.5t66 2.5q56 0 93.5 -27t37.5 -81
q0 -55 -25 -97t-65.5 -65t-83.5 -34.5t-86 -11.5q-78 0 -135 27.5t-57 79.5q0 45 26 67.5t92 49.5v2q-52 5 -76.5 30t-24.5 76zM394 -87q0 72 -124 72q-28 0 -52.5 -3.5t-52 -12t-43.5 -27t-16 -45.5q0 -89 128 -89q57 0 108.5 28.5t51.5 76.5zM142 314q0 -28 8 -56.5
t28.5 -52t49.5 -23.5q75 0 75 111q0 29 -6.5 59t-26 56t-49.5 26q-44 0 -61.5 -36t-17.5 -84z" />
    <glyph glyph-name="h" unicode="h" 
d="M193 356v-302q0 -16 11.5 -20t36.5 -4h15v-30q-76 4 -114 4q-42 0 -120 -4v30q21 0 30.5 1t19 8t9.5 22v567q0 17 -5 25.5t-21 14.5l-33 13v24q72 17 160 59l11 -9v-364q5 4 22 15.5t25 17t24 15t27.5 14t27 8t30.5 3.5q124 0 124 -129v-277q0 -13 8.5 -19.5t16.5 -7.5
t24 -1h12v-30q-76 4 -113 4q-39 0 -119 -4v30h10q49 0 49 26v250q0 84 -76 84q-39 0 -92 -34z" />
    <glyph glyph-name="i" unicode="i" horiz-adv-x="278" 
d="M193 455v-401q0 -16 11.5 -20t36.5 -4h15v-30q-76 4 -114 4q-42 0 -120 -4v30h7q19 0 27.5 1t16.5 8t8 21v283q0 13 -4 18.5t-20 9.5q-6 2 -17.5 5.5t-17.5 4.5v24q28 7 91 29q13 5 37 16t32 14zM198 665q0 -25 -18 -43t-43 -18t-43 18t-18 43t18 43t43 18t43 -18t18 -43
z" />
    <glyph glyph-name="j" unicode="j" horiz-adv-x="278" 
d="M193 455v-489q0 -80 -44.5 -121.5t-130.5 -72.5l-7 27q46 18 58 45.5t12 98.5v400q0 13 -4 18.5t-20 9.5q-6 2 -17.5 5.5t-17.5 4.5v24q28 7 91 29q13 5 37 16t32 14zM137 726q25 0 43 -18t18 -43t-18 -43t-43 -18t-43 18t-18 43t18 43t43 18z" />
    <glyph glyph-name="k" unicode="k" 
d="M193 189v-128q0 -15 9.5 -22t19.5 -8t31 -1v-30q-80 4 -119 4q-61 0 -112 -4v30q21 0 30.5 1t19 8t9.5 22v567q0 17 -5 25.5t-21 14.5q-5 2 -16 6.5t-17 6.5v24q72 17 160 59l11 -9v-520q14 0 26 10l121 115q28 28 28 40q0 19 -43 19h-7v30q74 -4 112 -4q33 0 97 4v-30
h-11q-13 0 -27 -3.5t-24 -6.5t-24 -12.5t-21 -14t-22 -18t-19 -17t-19.5 -19.5t-17.5 -18l-36 -35l165 -204q32 -41 66 -41h6v-30q-60 4 -91 4q-25 0 -73 -4q-6 6 -47 61.5t-78.5 101.5t-45.5 46q-15 0 -15 -20z" />
    <glyph glyph-name="l" unicode="l" horiz-adv-x="278" 
d="M81 61v567q0 17 -5 25.5t-21 14.5q-5 2 -16 6.5t-17 6.5v24q72 17 160 59l11 -9v-694q0 -20 13 -25.5t39 -5.5h11v-30q-76 4 -115 4q-45 0 -119 -4v30q21 0 30.5 1t19 8t9.5 22z" />
    <glyph glyph-name="m" unicode="m" horiz-adv-x="833" 
d="M22 0v30h7q19 0 27.5 1t16.5 8t8 21v283q0 13 -4 18.5t-20 9.5q-6 2 -17.5 5.5t-17.5 4.5v24q28 7 91 29q13 5 37 16t32 14l11 -9v-64q2 2 26 17.5t33 21t29 16t36 14.5t31 4q89 0 118 -74q4 3 25 16t28.5 17.5t26 15t29 14t25.5 7.5t28 4q56 0 90.5 -33t34.5 -96v-275
q0 -18 11 -24t34 -7h13v-29q-74 4 -112 4q-40 0 -118 -4v30h14q46 0 46 29v248q0 83 -77 83q-38 0 -91 -30v-299q0 -19 11.5 -25t34.5 -6h13v-30q-74 4 -112 4q-39 0 -119 -4v30h12q48 0 48 31v246q0 83 -77 83q-46 0 -91 -37v-292q0 -20 13.5 -25.5t36.5 -5.5h12v-30
q-78 4 -115 4q-44 0 -118 -4z" />
    <glyph glyph-name="n" unicode="n" 
d="M21 0v39h12q16 0 24 1t15 6.5t7 17.5v279q0 11 -3.5 15t-16.5 8q-3 1 -9 2.5t-9 2.5q-13 5 -20 6v31q40 10 86 28v-1q1 1 6 3t6 2q7 3 18 8t18 7q22 11 29 14l15 -13v-57q6 3 11 8q29 20 43.5 29.5t42 20t52.5 10.5q127 0 127 -132v-273q0 -11 7.5 -16t14.5 -6t22 -1h16
v-39q-74 4 -116 4q-44 0 -122 -4v39h15q43 0 43 21v247q0 78 -70 78q-36 0 -86 -32v-295q0 -13 10.5 -16t32.5 -3h19v-39q-74 4 -117 4q-47 0 -123 -4z" />
    <glyph glyph-name="o" unicode="o" 
d="M38 225q0 102 67.5 170.5t171.5 68.5q109 0 175 -64t66 -169q0 -102 -70 -174t-171 -72q-105 0 -172 68t-67 172zM275 428q-115 0 -115 -206q0 -35 6 -67.5t19 -64t38.5 -50.5t59.5 -19q113 0 113 186q0 31 -5.5 65.5t-18 71.5t-38 60.5t-59.5 23.5z" />
    <glyph glyph-name="p" unicode="p" 
d="M74 -178v533q0 19 -27 26q-6 1 -16.5 3.5t-15.5 3.5v18q98 30 162 65l9 -7v-64q69 64 155 64q82 0 129.5 -58t47.5 -141q0 -114 -72.5 -192.5t-170.5 -78.5q-52 0 -89 14v-174q0 -15 11 -22.5t23.5 -8.5t38.5 -1h19v-30q-15 0 -61.5 2t-72.5 2q-25 0 -71 -2t-61 -2v30h13
q49 0 49 20zM186 369v-267q52 -64 102 -64q43 0 71 27t37.5 62.5t9.5 77.5q0 73 -35.5 132t-103.5 59q-38 0 -81 -27z" />
    <glyph glyph-name="q" unicode="q" 
d="M365 -167v219q-43 -37 -72.5 -52t-77.5 -15q-73 0 -125 61.5t-52 148.5q0 114 74.5 191.5t170.5 77.5q55 0 116 -27q5 3 33 25q26 20 34 20q14 0 14 -17q-1 -11 -1.5 -22.5t-1 -25t-0.5 -20.5v-565q0 -14 8.5 -21t16.5 -8t23 -1h11v-30q-84 4 -125 4t-121 -4v30h20
q19 0 28 1t18 8t9 22zM365 83v273q-14 28 -41.5 46t-57.5 18q-61 0 -88.5 -52t-27.5 -123q0 -82 37.5 -137t95.5 -55q43 0 82 30z" />
    <glyph glyph-name="r" unicode="r" horiz-adv-x="389" 
d="M193 316v-263q0 -16 16 -19.5t58 -3.5h15v-30q-16 0 -65 2t-76 2q-24 0 -67.5 -2t-57.5 -2v30h10q28 0 41.5 5.5t13.5 20.5v272q0 25 -6 34.5t-25 12.5q-5 1 -15.5 3t-16.5 3v24q59 11 164 59l11 -6v-69h2q17 27 48.5 51t66.5 24q28 0 46 -14.5t18 -44.5q0 -28 -16 -43.5
t-40 -15.5q-20 0 -38 19t-32 19q-21 0 -38 -17t-17 -51z" />
    <glyph glyph-name="s" unicode="s" horiz-adv-x="389" 
d="M322 334l-28 -5q-9 99 -90 99q-27 0 -47.5 -16t-20.5 -44q0 -30 21.5 -51.5t51.5 -36t60.5 -30.5t52 -46t21.5 -72q0 -75 -49.5 -111t-120.5 -36q-44 0 -118 26l-9 111l28 6q5 -45 30.5 -76t67.5 -31q31 0 53 17.5t22 48.5q0 22 -15 40t-37 29t-48.5 26t-48.5 31t-37 44
t-15 64q0 65 45 104t115 39q53 0 118 -24q-5 -66 -2 -106z" />
    <glyph glyph-name="t" unicode="t" horiz-adv-x="333" 
d="M312 449v-56h-119v-274q0 -54 53 -54q30 0 59 18l13 -17q-62 -81 -136 -81q-53 0 -77 28.5t-24 74.5v305h-60v24q82 44 160 143l12 -6v-105h119z" />
    <glyph glyph-name="u" unicode="u" 
d="M81 102v271q0 12 -4 17t-17 9l-42 12v24q98 5 170 29l10 -6q-5 -70 -5 -90v-221q0 -82 74 -82q43 0 94 42v256q0 15 -4.5 21t-19.5 11l-50 16v24q128 8 181 29l10 -6q-5 -35 -5 -90v-286q0 -20 5.5 -28t21.5 -8h30v-24q-119 -21 -159 -37l-10 8v71q-94 -79 -158 -79
q-122 0 -122 117z" />
    <glyph glyph-name="v" unicode="v" horiz-adv-x="500" 
d="M233 -15l-162 397q-9 25 -17.5 31t-31.5 6h-8v30q76 -4 115 -4q38 0 114 4v-30h-31q-20 0 -20 -13q0 -6 11 -36l84 -223h2q3 11 49 117.5t46 123.5q0 15 -7.5 22t-15.5 8t-24 1h-12v30q62 -4 93 -4q22 0 68 4v-30h-6q-29 0 -51 -49l-154 -349q-7 -17 -15 -36h-27z" />
    <glyph glyph-name="w" unicode="w" horiz-adv-x="778" 
d="M393 284l-132 -299h-28l-155 383q-7 19 -9.5 24.5t-9 14t-15.5 10.5t-24 2h-7v30q78 -4 116 -4q35 0 107 4v-30h-9q-35 0 -37 -10q-2 -9 6 -29l94 -236l85 192l-28 63q-11 20 -49 20h-11v30q86 -4 129 -4q36 0 106 4v-30h-10q-40 0 -40 -14t9 -36l88 -219l79 205
q7 21 7 38q0 11 -6.5 17t-15 7.5t-23.5 1.5h-11v30q60 -4 89 -4q25 0 77 4v-30h-8q-6 0 -11 -1t-9 -2.5t-8.5 -5.5t-7 -6t-6 -7.5t-5.5 -8t-5 -9.5t-4 -9t-4 -9.5t-4 -9.5l-150 -366h-28z" />
    <glyph glyph-name="x" unicode="x" 
d="M224 203l-130 178q-17 21 -30.5 29.5t-36.5 8.5h-10v30q90 -4 134 -4q39 0 117 4v-30h-11q-34 0 -34 -14q0 -8 23 -40l55 -72l56 67q30 36 30 46q0 13 -43 13h-8v30q70 -4 104 -4q30 0 88 4v-30h-13q-32 0 -50.5 -10t-46.5 -42l-94 -107l145 -200q22 -30 65 -30h8v-30
q-74 4 -111 4q-50 0 -140 -4v30h13q37 0 37 8t-16 28l-78 105l-64 -78q-30 -37 -30 -51q0 -12 45 -12h10v-30q-68 4 -103 4q-29 0 -91 -4v30h14q33 0 51 11.5t45 43.5z" />
    <glyph glyph-name="y" unicode="y" horiz-adv-x="500" 
d="M199 368l88 -228h2l79 202q13 32 13 54q0 23 -47 23h-13v30q62 -4 93 -4q26 0 72 4v-30h-17q-13 0 -24.5 -17.5t-33.5 -70.5l-204 -493q-27 -66 -76 -66q-25 0 -41 16.5t-16 41.5q0 21 15.5 37.5t38.5 16.5q28 0 50 -15l51 122l-151 374q-13 31 -22.5 42.5t-26.5 11.5
h-15v30q78 -4 116 -4q37 0 111 4v-30h-9q-43 0 -43 -15q0 -10 10 -36z" />
    <glyph glyph-name="z" unicode="z" horiz-adv-x="444" 
d="M410 437l-235 -393h114q33 0 47.5 4t28.5 18q11 10 35 68h24q-15 -80 -17 -134h-387l242 405h-74q-75 0 -94 -10q-22 -13 -35 -63h-24q12 99 11 140h24q3 -10 5 -13.5t9 -6.5t20 -3h300z" />
    <glyph glyph-name="braceleft" unicode="{" horiz-adv-x="333" 
d="M122 -35v183q0 51 -16.5 77.5t-60.5 40.5q44 14 60.5 40.5t16.5 77.5v183q0 92 38 119t128 27v-12q-84 0 -84 -127v-175q0 -61 -15 -88.5t-64 -43.5v-2q49 -16 64 -43.5t15 -88.5v-175q0 -127 84 -127v-12q-90 0 -128 27t-38 119z" />
    <glyph glyph-name="bar" unicode="|" horiz-adv-x="222" 
d="M66 -15v779h90v-779h-90z" />
    <glyph glyph-name="braceright" unicode="}" horiz-adv-x="333" 
d="M211 567v-183q0 -51 16.5 -77.5t60.5 -40.5q-44 -14 -60.5 -40.5t-16.5 -77.5v-183q0 -92 -38 -119t-128 -27v12q84 0 84 127v175q0 61 15 88.5t64 43.5v2q-49 16 -64 43.5t-15 88.5v175q0 127 -84 127v12q90 0 128 -27t38 -119z" />
    <glyph glyph-name="asciitilde" unicode="~" 
d="M473 325l36 -64q-20 -27 -33 -42t-38 -29.5t-54 -14.5q-42 0 -102 33q-66 37 -115 37q-48 0 -84 -70l-36 72q50 78 125 78q39 0 111 -32q7 -3 21.5 -9.5t23 -10t20 -8t20.5 -6.5t17 -2q19 0 37 12.5t25.5 22t25.5 33.5z" />
    <glyph glyph-name="uni00A0" unicode="&#xa0;" horiz-adv-x="278" 
 />
    <glyph glyph-name="exclamdown" unicode="&#xa1;" horiz-adv-x="333" 
d="M156 279h20q10 -58 31 -166t30 -156q5 -29 5 -62q0 -39 -19 -67.5t-56 -28.5q-75 0 -75 102q0 38 5 62q10 52 29.5 157.5t29.5 158.5zM87 413q0 32 24 55.5t56 23.5t55.5 -23.5t23.5 -55.5t-24 -56t-55 -24t-55.5 24.5t-24.5 55.5z" />
    <glyph glyph-name="cent" unicode="&#xa2;" 
d="M469 122l18 -16q-34 -60 -80 -90.5t-114 -30.5q-57 0 -84 16l-51 -146h-38l58 158q-51 27 -80 77.5t-29 115.5q0 110 81 184t197 74l53 130h38l-53 -130q31 -1 62 -20t31 -56q0 -24 -16 -38.5t-36 -14.5q-14 0 -25.5 6.5t-17 12t-15.5 19t-12 16.5l-107 -286
q43 -38 97 -38q75 0 123 57zM224 133l104 279q-16 8 -34 8q-53 0 -83 -46.5t-30 -102.5q0 -79 43 -138z" />
    <glyph glyph-name="sterling" unicode="&#xa3;" 
d="M178 369h-119l4 50h123q6 119 59 220q26 51 68.5 81.5t72 37t57.5 6.5q40 0 59 -15.5t19 -37.5q0 -53 -42 -53q-19 0 -29.5 9.5t-13 21.5t-12 21.5t-27.5 9.5q-64 0 -93 -226l-12 -75h151l-6 -50h-152q-16 -135 -112 -245q38 4 58 4q32 0 64.5 -14.5t53.5 -32t45 -32
t41 -14.5q36 0 36 29q0 21 -23.5 34t-23.5 33q0 16 12 29t28 13q25 0 41 -19t16 -49q0 -47 -41.5 -83.5t-114.5 -36.5q-37 0 -70.5 15.5t-54 34t-44.5 34t-44 15.5q-12 -30 -39 -60.5t-53 -30.5q-25 0 -25 32q0 38 26.5 61t65.5 28q20 34 51 255z" />
    <glyph glyph-name="currency" unicode="&#xa4;" 
d="M424 549l59 58l53 -56l-58 -56q49 -64 49 -146q0 -39 -14.5 -80.5t-34.5 -65.5l58 -55l-53 -55l-59 59q-57 -51 -145 -51q-92 0 -145 51l-61 -59l-53 55l57 55q-46 62 -46 146q0 82 46 146l-57 56l55 56l59 -58q62 47 145 48q84 2 145 -48zM121 349q0 -65 46.5 -111.5
t111.5 -46.5t111.5 46.5t46.5 111.5t-46.5 111.5t-111.5 46.5t-111.5 -46.5t-46.5 -111.5z" />
    <glyph glyph-name="yen" unicode="&#xa5;" 
d="M159 0v30h14q21 1 34 4t26.5 16t13.5 35v126h-143v50h143v79h-143v50h110l-178 258q-17 20 -46 20h-21v30q4 0 44 -2t70 -2q25 0 71 2t68 2v-30h-12q-49 0 -49 -23q0 -7 17 -33l141 -212l117 179q29 49 29 65q0 19 -48 24h-5h-12v30q14 0 48.5 -2t53.5 -2q16 0 44.5 2
t40.5 2v-30q-45 0 -79 -46l-149 -232h127v-50h-143v-79h143v-50h-143v-126q0 -22 13.5 -35t26.5 -16t34 -4h14v-30q-26 0 -72.5 2t-62.5 2q-28 0 -74 -2t-63 -2z" />
    <glyph glyph-name="brokenbar" unicode="&#xa6;" horiz-adv-x="222" 
d="M66 -15v282h90v-282h-90zM66 482v282h90v-282h-90z" />
    <glyph glyph-name="section" unicode="&#xa7;" 
d="M87 -104q0 17 13.5 29t32.5 12q23 0 39 -15.5t21 -37.5q3 -12 16 -26.5t36 -14.5q67 0 67 86q0 29 -4 49t-26.5 67t-68.5 121q-71 114 -91 164q-28 69 -28 136q0 102 73.5 174.5t174.5 72.5q41 0 80 -16.5t39 -53.5q0 -20 -16 -34t-35 -14t-32.5 11.5t-20.5 25.5
t-22.5 25.5t-37.5 11.5q-27 0 -44 -24t-17 -52q0 -44 26.5 -97t76.5 -131q74 -115 96 -163q34 -77 34 -149q0 -36 -11.5 -74.5t-37.5 -79t-79 -66.5t-126 -26q-44 0 -86 24t-42 65zM144 473q0 -37 19 -86t35 -77.5t55 -92.5q65 -106 87 -156t22 -105q0 -44 -17 -78l2 -2
q72 70 72 159q0 58 -35.5 134.5t-78 137.5t-78 130.5t-35.5 116.5q0 27 9 67l-2 2q-55 -66 -55 -150z" />
    <glyph glyph-name="dieresis" unicode="&#xa8;" horiz-adv-x="278" 
d="M-20 623q0 23 16.5 39.5t39.5 16.5t39.5 -16.5t16.5 -39.5t-16.5 -39.5t-39.5 -16.5t-39.5 16.5t-16.5 39.5zM186 623q0 23 16.5 39.5t39.5 16.5t39.5 -16.5t16.5 -39.5t-16.5 -39.5t-39.5 -16.5t-39.5 16.5t-16.5 39.5z" />
    <glyph glyph-name="copyright" unicode="&#xa9;" horiz-adv-x="800" 
d="M36 348q0 154 104.5 259.5t259.5 105.5q156 0 260 -105t104 -260q0 -154 -104 -258.5t-260 -104.5q-155 0 -259.5 104.5t-104.5 258.5zM112 348q0 -119 83.5 -207t204.5 -88t204.5 88t83.5 207q0 120 -83 208.5t-205 88.5q-121 0 -204.5 -88.5t-83.5 -208.5zM555 260h24
l-15 -76q0 -2 -1 -3.5t-2 -2.5t-2 -2.5t-2 -2.5t-3 -2t-3.5 -1.5t-4 -2t-4 -2l-4.5 -1.5t-5 -2q-45 -19 -112 -19q-106 0 -167 53t-61 156q0 35 12.5 69t38.5 65t74 50t111 19q52 0 109 -19q23 -7 23 -24v-71h-24q-23 90 -109 90q-64 0 -96 -47t-33 -127q-2 -190 132 -190
q89 0 124 93z" />
    <glyph glyph-name="ordfeminine" unicode="&#xaa;" horiz-adv-x="325" 
d="M267 626v-134q0 -33 21 -33q10 0 18 8l8 -11q-33 -38 -68 -38q-46 0 -49 50q-52 -50 -100 -50q-30 0 -50.5 16t-20.5 44q0 24 12.5 40.5t27 24t41.5 16.5l84 27v39q3 21 -8.5 28.5t-39.5 7.5q-40 0 -42 -21q-1 -1 -5 -19q-2 -9 -20 -16t-28 -7q-13 0 -13 17
q0 10 7.5 19.5t24 20t25.5 16t30 16.5q32 18 58 18q87 0 87 -79zM191 507v54q-2 -1 -12 -4t-13.5 -4.5t-12.5 -5t-13.5 -6t-11.5 -6.5t-11 -8t-8 -9t-5.5 -11t-1.5 -13q0 -32 35 -32q20 0 36.5 13t17.5 32z" />
    <glyph glyph-name="guillemotleft" unicode="&#xab;" 
d="M268 404l18 -17l-101 -149l99 -150l-18 -16q-32 28 -180 166q122 110 182 166zM452 404l18 -17l-101 -149l99 -150l-18 -16q-32 28 -180 166q122 110 182 166z" />
    <glyph glyph-name="logicalnot" unicode="&#xac;" 
d="M440 99v210h-414v90h504v-300h-90z" />
    <glyph glyph-name="uni00AD" unicode="&#xad;" horiz-adv-x="333" 
d="M26 198l17 80q45 -1 135 -1q22 0 65 0.5t64 0.5l-17 -80q-19 0 -57.5 0.5t-57.5 0.5q-124 0 -149 -1z" />
    <glyph glyph-name="registered" unicode="&#xae;" horiz-adv-x="800" 
d="M36 348q0 154 104.5 259.5t259.5 105.5q156 0 260 -105t104 -260q0 -154 -104 -258.5t-260 -104.5q-155 0 -259.5 104.5t-104.5 258.5zM112 348q0 -119 83.5 -207t204.5 -88t204.5 88t83.5 207q0 120 -83 208.5t-205 88.5q-121 0 -204.5 -88.5t-83.5 -208.5zM395 156
h-176v18q43 6 48 12q5 7 5 21v269q0 31 -9 40.5t-42 8.5v18h186q52 0 87.5 -24.5t35.5 -71.5q0 -39 -23.5 -68.5t-62.5 -41.5l60 -83q50 -68 80 -86v-12h-71q-10 0 -20 7.5t-22 24.5t-23.5 35t-30 47.5t-35.5 53.5h-40v-121q0 -16 7.5 -20t35.5 -8q6 -1 10 -1v-18zM342 519
v-171h43q69 0 69 93q0 41 -20 59.5t-51 18.5h-41z" />
    <glyph glyph-name="macron" unicode="&#xaf;" horiz-adv-x="278" 
d="M277 596h-276v50h276v-50z" />
    <glyph glyph-name="degree" unicode="&#xb0;" horiz-adv-x="400" 
d="M200 419q-60 0 -101.5 41.5t-41.5 101.5t41.5 101.5t101.5 41.5t101.5 -41.5t41.5 -101.5t-41.5 -101.5t-101.5 -41.5zM200 469q36 0 64.5 29.5t28.5 63.5t-28.5 63.5t-64.5 29.5t-64.5 -29.5t-28.5 -63.5t28.5 -63.5t64.5 -29.5z" />
    <glyph glyph-name="plusminus" unicode="&#xb1;" 
d="M233 365v139h90v-139h207v-90h-207v-139h-90v139h-207v90h207zM26 0v90h504v-90h-504z" />
    <glyph glyph-name="twosuperior" unicode="&#xb2;" horiz-adv-x="361" 
d="M23 282v23q77 51 139.5 121t62.5 137q0 36 -23 61t-64 25q-49 0 -86 -52l-13 14q19 41 58.5 67.5t86.5 26.5q54 0 85.5 -30t31.5 -79q0 -23 -10 -48.5t-21 -44t-35 -45t-35.5 -38.5t-41 -38.5t-34.5 -31.5h177q9 13 17 33h20q-12 -65 -15 -101h-300z" />
    <glyph glyph-name="threesuperior" unicode="&#xb3;" horiz-adv-x="361" 
d="M104 474l-4 20q119 36 119 100q0 26 -19 43.5t-49 17.5q-42 0 -78 -36l-13 15q60 71 133 71q40 0 71 -21t31 -55q0 -40 -25 -65t-72 -45l2 -1h11q49 0 79.5 -24t30.5 -69q0 -65 -60 -108.5t-133 -43.5q-69 0 -83 33q-5 10 -5 25q0 1 7 6q14 4 24 4h3q8 -20 27.5 -32
t43.5 -12q41 0 67.5 28t26.5 65q0 41 -21 66.5t-54 25.5h-4q-28 0 -56 -8z" />
    <glyph glyph-name="acute" unicode="&#xb4;" horiz-adv-x="278" 
d="M86 552h-40l147 148q24 24 41 24q35 0 35 -38q0 -21 -29 -37z" />
    <glyph glyph-name="mu" unicode="&#xb5;" 
d="M81 138v235q0 12 -4 17t-17 9l-42 12v24q98 5 170 29l10 -6q-5 -70 -5 -90v-221q0 -82 74 -82q43 0 94 42v256q0 15 -4.5 21t-19.5 11l-50 16v24q128 8 181 29l10 -6q-5 -35 -5 -90v-286q0 -20 5.5 -28t21.5 -8h30v-24q-119 -21 -159 -37l-10 8v71q-94 -79 -158 -79
q-22 0 -39 3q1 -55 8 -106t7 -57q0 -27 -12.5 -40t-43.5 -13q-54 0 -54 52q0 10 6 124.5t6 189.5z" />
    <glyph glyph-name="paragraph" unicode="&#xb6;" 
d="M122 -178v30q54 -2 70 15.5t16 84.5v323q-79 0 -132 58t-53 149q0 216 221 216h289v-30q-52 0 -66 -15t-14 -85v-616q0 -67 13.5 -83.5t66.5 -16.5v-30h-162v846h-81v-846h-168zM208 331v311q-47 -1 -71 -48.5t-24 -111.5q0 -67 23.5 -109t71.5 -42z" />
    <glyph glyph-name="periodcentered" unicode="&#xb7;" horiz-adv-x="278" 
d="M60 284q0 33 23.5 56.5t56.5 23.5q32 0 55.5 -23.5t23.5 -56.5q0 -32 -23.5 -55.5t-55.5 -23.5q-33 0 -56.5 23.5t-23.5 55.5z" />
    <glyph glyph-name="cedilla" unicode="&#xb8;" horiz-adv-x="278" 
d="M120 0h35l-25 -66q14 3 29 3q37 0 60.5 -17.5t23.5 -50.5q0 -85 -130 -85q-42 0 -79 17l13 31q48 -12 62 -12q58 0 58 46q0 17 -14.5 26t-30.5 9q-18 0 -36 -5l-7 5z" />
    <glyph glyph-name="onesuperior" unicode="&#xb9;" horiz-adv-x="361" 
d="M72 282v24h14q14 0 21 0.5t16.5 2t13.5 6t4 11.5v305q-33 -17 -83 -38l-10 20q48 23 85 46q54 32 75 46h23v-378q0 -10 7 -14.5t16 -5.5t30 -1h15v-24h-227z" />
    <glyph glyph-name="ordmasculine" unicode="&#xba;" horiz-adv-x="361" 
d="M179 418q-71 0 -115 40.5t-44 103.5q0 62 44.5 102.5t114.5 40.5q75 0 118.5 -38t43.5 -101q0 -62 -46 -105t-116 -43zM183 442q68 0 68 109q0 26 -5.5 53.5t-23.5 52t-45 24.5q-67 0 -67 -114q0 -27 5.5 -53.5t23 -49t44.5 -22.5z" />
    <glyph glyph-name="guillemotright" unicode="&#xbb;" 
d="M288 72l-18 17l101 149l-99 150l18 16q32 -28 180 -166q-122 -110 -182 -166zM104 72l-18 17l101 149l-99 150l18 16q32 -28 180 -166q-122 -110 -182 -166z" />
    <glyph glyph-name="onequarter" unicode="&#xbc;" horiz-adv-x="834" 
d="M744 176v-56h-51v-120h-76v120h-182v35l217 268h41v-247h51zM273 705v-378q0 -10 7 -14.5t16 -5.5t30 -1h15v-24q-72 2 -109 2q-40 0 -118 -2v24h14q14 0 21 0.5t16.5 2t13.5 6t4 11.5v305q-33 -17 -83 -38l-10 20q48 23 85 46q54 32 75 46h23zM192 -30l440 750h54
l-440 -750h-54zM617 176v160h-2l-130 -160h132z" />
    <glyph glyph-name="onehalf" unicode="&#xbd;" horiz-adv-x="834" 
d="M487 315l-13 14q19 41 58.5 67.5t86.5 26.5q54 0 85.5 -30t31.5 -79q0 -14 -3.5 -29t-8 -27.5t-15 -28.5t-16.5 -25.5t-21.5 -26t-21.5 -23.5t-24.5 -23.5t-22.5 -20t-23 -20.5l-20 -16h177q6 4 16 27h20q-12 -65 -15 -101h-300v23q77 51 139.5 121t62.5 137q0 36 -23 61
t-64 25q-49 0 -86 -52zM244 705v-378q0 -10 7 -14.5t16 -5.5t30 -1h15v-24q-72 2 -109 2q-40 0 -118 -2v24h14q14 0 21 0.5t16.5 2t13.5 6t4 11.5v305q-33 -17 -83 -38l-10 20q48 23 85 46q54 32 75 46h23zM164 -30l440 750h54l-440 -750h-54z" />
    <glyph glyph-name="threequarters" unicode="&#xbe;" horiz-adv-x="834" 
d="M744 176v-56h-51v-120h-76v120h-182v35l217 268h41v-247h51zM154 474l-4 20q119 36 119 100q0 26 -19 43.5t-49 17.5q-42 0 -78 -36l-13 15q60 71 133 71q40 0 71 -21t31 -55q0 -40 -25 -65t-72 -45l2 -1h11q49 0 79.5 -24t30.5 -69q0 -65 -60 -108.5t-133 -43.5
q-69 0 -83 33q-5 10 -5 25q0 1 7 6q14 4 24 4h3q8 -20 27.5 -32t43.5 -12q41 0 67.5 28t26.5 65q0 41 -21 66.5t-54 25.5h-4q-28 0 -56 -8zM197 -30l440 750h54l-440 -750h-54zM617 176v160h-2l-130 -160h132z" />
    <glyph glyph-name="questiondown" unicode="&#xbf;" horiz-adv-x="444" 
d="M254 279h26l4 -180q0 -12 -12 -12q-36 0 -68.5 -7.5t-60 -31t-27.5 -60.5q0 -60 36 -90q24 -20 76 -20q6 0 25 3t30 3q23 0 36.5 -14t13.5 -39q0 -26 -23 -42.5t-49 -16.5q-77 -1 -141 97q-54 83 -54 169q0 93 61 136q28 20 83 30q36 7 39 23q5 30 5 52zM175 413
q0 32 24 55.5t56 23.5t55.5 -23.5t23.5 -55.5t-24 -56t-55 -24t-55.5 24.5t-24.5 55.5z" />
    <glyph glyph-name="Agrave" unicode="&#xc0;" horiz-adv-x="722" 
d="M209 247l-32 -104q-3 -11 -9.5 -29.5t-9.5 -29.5t-3 -19q0 -35 75 -35h11v-30q-80 4 -121 4q-36 0 -108 -4v30h6q64 0 87 65l160 459q31 89 37 124q50 17 91 43q6 2 8 2q5 0 7 -3q1 -4 4 -12.5t5 -12.5l184 -523q27 -80 37 -102q17 -40 66 -40h6v-30q-90 4 -138 4
t-150 -4v30h11q62 0 62 29q0 14 -20 72l-39 116h-227zM415 303l-92 283h-2l-93 -283h187zM299 899l147 -148h-40l-154 97q-29 16 -29 37q0 38 35 38q17 0 41 -24z" />
    <glyph glyph-name="Aacute" unicode="&#xc1;" horiz-adv-x="722" 
d="M209 247l-32 -104q-3 -11 -9.5 -29.5t-9.5 -29.5t-3 -19q0 -35 75 -35h11v-30q-80 4 -121 4q-36 0 -108 -4v30h6q64 0 87 65l160 459q31 89 37 124q50 17 91 43q6 2 8 2q5 0 7 -3q1 -4 4 -12.5t5 -12.5l184 -523q27 -80 37 -102q17 -40 66 -40h6v-30q-90 4 -138 4
t-150 -4v30h11q62 0 62 29q0 14 -20 72l-39 116h-227zM415 303l-92 283h-2l-93 -283h187zM308 751h-40l147 148q24 24 41 24q35 0 35 -38q0 -21 -29 -37z" />
    <glyph glyph-name="Acircumflex" unicode="&#xc2;" horiz-adv-x="722" 
d="M209 247l-32 -104q-3 -11 -9.5 -29.5t-9.5 -29.5t-3 -19q0 -35 75 -35h11v-30q-80 4 -121 4q-36 0 -108 -4v30h6q64 0 87 65l160 459q31 89 37 124q50 17 91 43q6 2 8 2q5 0 7 -3q1 -4 4 -12.5t5 -12.5l184 -523q27 -80 37 -102q17 -40 66 -40h6v-30q-90 4 -138 4
t-150 -4v30h11q62 0 62 29q0 14 -20 72l-39 116h-227zM415 303l-92 283h-2l-93 -283h187zM330 918h62l125 -167h-35l-121 103l-122 -103h-33z" />
    <glyph glyph-name="Atilde" unicode="&#xc3;" horiz-adv-x="722" 
d="M209 247l-32 -104q-3 -11 -9.5 -29.5t-9.5 -29.5t-3 -19q0 -35 75 -35h11v-30q-80 4 -121 4q-36 0 -108 -4v30h6q64 0 87 65l160 459q31 89 37 124q50 17 91 43q6 2 8 2q5 0 7 -3q1 -4 4 -12.5t5 -12.5l184 -523q27 -80 37 -102q17 -40 66 -40h6v-30q-90 4 -138 4
t-150 -4v30h11q62 0 62 29q0 14 -20 72l-39 116h-227zM415 303l-92 283h-2l-93 -283h187zM208 775h-29q9 45 32.5 76.5t63.5 31.5q25 0 79 -22q56 -22 76 -22q40 0 47 45h30q-8 -45 -31 -76t-64 -31q-30 0 -84 24q-56 23 -71 23q-34 0 -49 -49z" />
    <glyph glyph-name="Adieresis" unicode="&#xc4;" horiz-adv-x="722" 
d="M209 247l-32 -104q-3 -11 -9.5 -29.5t-9.5 -29.5t-3 -19q0 -35 75 -35h11v-30q-80 4 -121 4q-36 0 -108 -4v30h6q64 0 87 65l160 459q31 89 37 124q50 17 91 43q6 2 8 2q5 0 7 -3q1 -4 4 -12.5t5 -12.5l184 -523q27 -80 37 -102q17 -40 66 -40h6v-30q-90 4 -138 4
t-150 -4v30h11q62 0 62 29q0 14 -20 72l-39 116h-227zM415 303l-92 283h-2l-93 -283h187zM202 822q0 23 16.5 39.5t39.5 16.5t39.5 -16.5t16.5 -39.5t-16.5 -39.5t-39.5 -16.5t-39.5 16.5t-16.5 39.5zM408 822q0 23 16.5 39.5t39.5 16.5t39.5 -16.5t16.5 -39.5t-16.5 -39.5
t-39.5 -16.5t-39.5 16.5t-16.5 39.5z" />
    <glyph glyph-name="Aring" unicode="&#xc5;" horiz-adv-x="722" 
d="M209 247l-32 -104q-3 -11 -9.5 -29.5t-9.5 -29.5t-3 -19q0 -35 75 -35h11v-30q-80 4 -121 4q-36 0 -108 -4v30h6q64 0 87 65l160 459q31 89 37 124q50 17 91 43q6 2 8 2q5 0 7 -3q1 -4 4 -12.5t5 -12.5l184 -523q27 -80 37 -102q17 -40 66 -40h6v-30q-90 4 -138 4
t-150 -4v30h11q62 0 62 29q0 14 -20 72l-39 116h-227zM451 846q0 -40 -28.5 -68.5t-68.5 -28.5t-68.5 28.5t-28.5 68.5t28.5 68.5t68.5 28.5t68.5 -28.5t28.5 -68.5zM415 303l-92 283h-2l-93 -283h187zM422 846q0 26 -20.5 47t-47.5 21t-47.5 -20.5t-20.5 -47.5t21 -47.5
t47 -20.5t47 21t21 47z" />
    <glyph glyph-name="AE" unicode="&#xc6;" horiz-adv-x="1000" 
d="M607 342v-227q0 -42 13 -53.5t58 -11.5h126q64 0 91 25t45 91l28 -7q-23 -93 -34 -159q-46 0 -137.5 2t-137.5 2t-138 -2t-138 -2v30h14q46 0 64 19t18 67v226h-175l-142 -247q-9 -16 -9 -39q0 -11 20 -18.5t52 -7.5h10v-30q-21 0 -64 2t-65 2q-17 0 -49.5 -2t-49.5 -2
v30q36 0 56.5 17.5t41.5 54.5l295 499q17 28 17 46q0 21 -67 21h-14v30q190 -4 284 -4q96 0 284 4q-3 -74 2 -153l-30 -8q-5 59 -25.5 88t-75.5 29h-168v-262h127q42 0 58 21.5t21 66.5h30q-3 -58 -3 -117q0 -57 3 -114l-30 -6q-2 24 -3.5 34t-6.5 26t-12.5 22t-21.5 11.5
t-34 5.5h-128zM479 392v256h-2l-144 -256h146z" />
    <glyph glyph-name="Ccedilla" unicode="&#xc7;" horiz-adv-x="722" 
d="M685 496l-30 -4q-12 41 -26.5 69.5t-39.5 54.5t-64.5 39.5t-93.5 13.5q-119 0 -184.5 -84t-65.5 -220q0 -64 16.5 -123t49 -107.5t86.5 -77t122 -28.5q78 0 131 45t73 122l28 -4q-16 -68 -25 -162q-104 -45 -229 -45h-7l-19 -51q14 3 29 3q37 0 60.5 -17.5t23.5 -50.5
q0 -85 -130 -85q-42 0 -79 17l13 31q48 -12 62 -12q58 0 58 46q0 17 -14.5 26t-30.5 9q-18 0 -36 -5l-7 5l35 86q-159 11 -254.5 106t-95.5 266q0 108 54 190t141 123t192 41q67 0 143 -23t106 -27q-2 -90 8 -167z" />
    <glyph glyph-name="Egrave" unicode="&#xc8;" horiz-adv-x="611" 
d="M19 0v30h14q22 0 36 3t26 16.5t12 37.5v524q0 35 -20 46t-54 11h-14v30q28 0 116 -2t133 -2q44 0 134 2t122 2q-3 -74 2 -153l-30 -8q-2 29 -6.5 46.5t-16.5 35.5t-36.5 26.5t-62.5 8.5h-139v-262h119q42 0 58 21.5t21 66.5h30q-3 -58 -3 -117q0 -57 3 -114l-30 -6
q-2 24 -3.5 34t-6.5 26t-12.5 22t-21.5 11.5t-34 5.5h-120v-233q0 -19 7.5 -32t16.5 -19.5t28 -9.5t32 -3.5t38 -0.5q51 0 79 3t55 15t42.5 37t26.5 67l28 -7q-23 -93 -34 -159q-29 0 -125 2t-144 2q-49 0 -145.5 -2t-120.5 -2zM244 899l147 -148h-40l-154 97q-29 16 -29 37
q0 38 35 38q17 0 41 -24z" />
    <glyph glyph-name="Eacute" unicode="&#xc9;" horiz-adv-x="611" 
d="M19 0v30h14q22 0 36 3t26 16.5t12 37.5v524q0 35 -20 46t-54 11h-14v30q28 0 116 -2t133 -2q44 0 134 2t122 2q-3 -74 2 -153l-30 -8q-2 29 -6.5 46.5t-16.5 35.5t-36.5 26.5t-62.5 8.5h-139v-262h119q42 0 58 21.5t21 66.5h30q-3 -58 -3 -117q0 -57 3 -114l-30 -6
q-2 24 -3.5 34t-6.5 26t-12.5 22t-21.5 11.5t-34 5.5h-120v-233q0 -19 7.5 -32t16.5 -19.5t28 -9.5t32 -3.5t38 -0.5q51 0 79 3t55 15t42.5 37t26.5 67l28 -7q-23 -93 -34 -159q-29 0 -125 2t-144 2q-49 0 -145.5 -2t-120.5 -2zM253 751h-40l147 148q24 24 41 24
q35 0 35 -38q0 -21 -29 -37z" />
    <glyph glyph-name="Ecircumflex" unicode="&#xca;" horiz-adv-x="611" 
d="M19 0v30h14q22 0 36 3t26 16.5t12 37.5v524q0 35 -20 46t-54 11h-14v30q28 0 116 -2t133 -2q44 0 134 2t122 2q-3 -74 2 -153l-30 -8q-2 29 -6.5 46.5t-16.5 35.5t-36.5 26.5t-62.5 8.5h-139v-262h119q42 0 58 21.5t21 66.5h30q-3 -58 -3 -117q0 -57 3 -114l-30 -6
q-2 24 -3.5 34t-6.5 26t-12.5 22t-21.5 11.5t-34 5.5h-120v-233q0 -19 7.5 -32t16.5 -19.5t28 -9.5t32 -3.5t38 -0.5q51 0 79 3t55 15t42.5 37t26.5 67l28 -7q-23 -93 -34 -159q-29 0 -125 2t-144 2q-49 0 -145.5 -2t-120.5 -2zM275 918h62l125 -167h-35l-121 103l-122 -103
h-33z" />
    <glyph glyph-name="Edieresis" unicode="&#xcb;" horiz-adv-x="611" 
d="M19 0v30h14q22 0 36 3t26 16.5t12 37.5v524q0 35 -20 46t-54 11h-14v30q28 0 116 -2t133 -2q44 0 134 2t122 2q-3 -74 2 -153l-30 -8q-2 29 -6.5 46.5t-16.5 35.5t-36.5 26.5t-62.5 8.5h-139v-262h119q42 0 58 21.5t21 66.5h30q-3 -58 -3 -117q0 -57 3 -114l-30 -6
q-2 24 -3.5 34t-6.5 26t-12.5 22t-21.5 11.5t-34 5.5h-120v-233q0 -19 7.5 -32t16.5 -19.5t28 -9.5t32 -3.5t38 -0.5q51 0 79 3t55 15t42.5 37t26.5 67l28 -7q-23 -93 -34 -159q-29 0 -125 2t-144 2q-49 0 -145.5 -2t-120.5 -2zM353 822q0 23 16.5 39.5t39.5 16.5
t39.5 -16.5t16.5 -39.5t-16.5 -39.5t-39.5 -16.5t-39.5 16.5t-16.5 39.5zM147 822q0 23 16.5 39.5t39.5 16.5t39.5 -16.5t16.5 -39.5t-16.5 -39.5t-39.5 -16.5t-39.5 16.5t-16.5 39.5z" />
    <glyph glyph-name="Igrave" unicode="&#xcc;" horiz-adv-x="333" 
d="M14 0v30h14q22 0 36 3t26 16.5t12 37.5v524q0 35 -20 46t-54 11h-14v30q18 0 70 -2t78 -2q25 0 79.5 2t77.5 2v-30h-14q-22 0 -36 -3t-26 -16.5t-12 -37.5v-524q0 -35 20 -46t54 -11h14v-30q-24 0 -78.5 2t-79.5 2q-26 0 -77.5 -2t-69.5 -2zM105 899l147 -148h-40
l-154 97q-29 16 -29 37q0 38 35 38q17 0 41 -24z" />
    <glyph glyph-name="Iacute" unicode="&#xcd;" horiz-adv-x="333" 
d="M14 0v30h14q22 0 36 3t26 16.5t12 37.5v524q0 35 -20 46t-54 11h-14v30q18 0 70 -2t78 -2q25 0 79.5 2t77.5 2v-30h-14q-22 0 -36 -3t-26 -16.5t-12 -37.5v-524q0 -35 20 -46t54 -11h14v-30q-24 0 -78.5 2t-79.5 2q-26 0 -77.5 -2t-69.5 -2zM114 751h-40l147 148
q24 24 41 24q35 0 35 -38q0 -21 -29 -37z" />
    <glyph glyph-name="Icircumflex" unicode="&#xce;" horiz-adv-x="333" 
d="M14 0v30h14q22 0 36 3t26 16.5t12 37.5v524q0 35 -20 46t-54 11h-14v30q18 0 70 -2t78 -2q25 0 79.5 2t77.5 2v-30h-14q-22 0 -36 -3t-26 -16.5t-12 -37.5v-524q0 -35 20 -46t54 -11h14v-30q-24 0 -78.5 2t-79.5 2q-26 0 -77.5 -2t-69.5 -2zM136 918h62l125 -167h-35
l-121 103l-122 -103h-33z" />
    <glyph glyph-name="Idieresis" unicode="&#xcf;" horiz-adv-x="333" 
d="M14 0v30h14q22 0 36 3t26 16.5t12 37.5v524q0 35 -20 46t-54 11h-14v30q18 0 70 -2t78 -2q25 0 79.5 2t77.5 2v-30h-14q-22 0 -36 -3t-26 -16.5t-12 -37.5v-524q0 -35 20 -46t54 -11h14v-30q-24 0 -78.5 2t-79.5 2q-26 0 -77.5 -2t-69.5 -2zM214 822q0 23 16.5 39.5
t39.5 16.5t39.5 -16.5t16.5 -39.5t-16.5 -39.5t-39.5 -16.5t-39.5 16.5t-16.5 39.5zM8 822q0 23 16.5 39.5t39.5 16.5t39.5 -16.5t16.5 -39.5t-16.5 -39.5t-39.5 -16.5t-39.5 16.5t-16.5 39.5z" />
    <glyph glyph-name="Eth" unicode="&#xd0;" horiz-adv-x="778" 
d="M19 0v30h14q40 0 57 6t17 31v295h-88v56h88v212q0 25 -19 31.5t-59 6.5h-10v30q144 -4 160 -4q35 0 88.5 2t72.5 2q183 0 290 -94.5t107 -252.5q0 -151 -109.5 -255.5t-261.5 -95.5q-88 4 -182 4q-101 0 -165 -4zM235 657v-239h155v-56h-155v-247q0 -50 22.5 -64.5
t81.5 -14.5q121 0 189.5 86.5t68.5 209.5q0 96 -22.5 162.5t-65 102t-92.5 50.5t-114 15q-13 0 -68 -5z" />
    <glyph glyph-name="Ntilde" unicode="&#xd1;" horiz-adv-x="833" 
d="M218 698l445 -501l2 2v375q0 54 -27 74t-60 20h-22v30q24 0 70 -2t70 -2q20 0 61 2t62 2v-30h-15q-19 0 -32 -3.5t-27.5 -15t-22 -39t-7.5 -69.5v-455q0 -64 6 -101h-38l-515 574v-412q0 -67 19 -92t75 -25h17v-30q-21 0 -64 2t-65 2q-23 0 -68.5 -2t-67.5 -2v30h14
q50 0 70 31.5t20 95.5v421q0 40 -27.5 65t-63.5 25h-13v30q19 0 57.5 -2t57.5 -2q15 0 44.5 2t44.5 2zM282 775h-29q9 45 32.5 76.5t63.5 31.5q25 0 79 -22q56 -22 76 -22q40 0 47 45h30q-8 -45 -31 -76t-64 -31q-30 0 -84 24q-56 23 -71 23q-34 0 -49 -49z" />
    <glyph glyph-name="Ograve" unicode="&#xd2;" horiz-adv-x="834" 
d="M41 344q0 156 106.5 262.5t262.5 106.5q164 0 273.5 -94.5t109.5 -250.5q0 -170 -108 -276.5t-270 -106.5q-161 0 -267.5 100t-106.5 259zM181 379q0 -144 64.5 -247t179.5 -103q228 0 228 317q0 57 -15.5 112.5t-44.5 103.5t-77 77.5t-108 29.5q-63 0 -109 -26
t-70.5 -69.5t-36 -92t-11.5 -102.5zM355 899l147 -148h-40l-154 97q-29 16 -29 37q0 38 35 38q17 0 41 -24z" />
    <glyph glyph-name="Oacute" unicode="&#xd3;" horiz-adv-x="834" 
d="M41 344q0 156 106.5 262.5t262.5 106.5q164 0 273.5 -94.5t109.5 -250.5q0 -170 -108 -276.5t-270 -106.5q-161 0 -267.5 100t-106.5 259zM181 379q0 -144 64.5 -247t179.5 -103q228 0 228 317q0 57 -15.5 112.5t-44.5 103.5t-77 77.5t-108 29.5q-63 0 -109 -26
t-70.5 -69.5t-36 -92t-11.5 -102.5zM364 751h-40l147 148q24 24 41 24q35 0 35 -38q0 -21 -29 -37z" />
    <glyph glyph-name="Ocircumflex" unicode="&#xd4;" horiz-adv-x="834" 
d="M41 344q0 156 106.5 262.5t262.5 106.5q164 0 273.5 -94.5t109.5 -250.5q0 -170 -108 -276.5t-270 -106.5q-161 0 -267.5 100t-106.5 259zM181 379q0 -144 64.5 -247t179.5 -103q228 0 228 317q0 57 -15.5 112.5t-44.5 103.5t-77 77.5t-108 29.5q-63 0 -109 -26
t-70.5 -69.5t-36 -92t-11.5 -102.5zM386 918h62l125 -167h-35l-121 103l-122 -103h-33z" />
    <glyph glyph-name="Otilde" unicode="&#xd5;" horiz-adv-x="834" 
d="M41 344q0 156 106.5 262.5t262.5 106.5q164 0 273.5 -94.5t109.5 -250.5q0 -170 -108 -276.5t-270 -106.5q-161 0 -267.5 100t-106.5 259zM181 379q0 -144 64.5 -247t179.5 -103q228 0 228 317q0 57 -15.5 112.5t-44.5 103.5t-77 77.5t-108 29.5q-63 0 -109 -26
t-70.5 -69.5t-36 -92t-11.5 -102.5zM282 775h-29q9 45 32.5 76.5t63.5 31.5q25 0 79 -22q56 -22 76 -22q40 0 47 45h30q-8 -45 -31 -76t-64 -31q-30 0 -84 24q-56 23 -71 23q-34 0 -49 -49z" />
    <glyph glyph-name="Odieresis" unicode="&#xd6;" horiz-adv-x="834" 
d="M41 344q0 156 106.5 262.5t262.5 106.5q164 0 273.5 -94.5t109.5 -250.5q0 -170 -108 -276.5t-270 -106.5q-161 0 -267.5 100t-106.5 259zM181 379q0 -144 64.5 -247t179.5 -103q228 0 228 317q0 57 -15.5 112.5t-44.5 103.5t-77 77.5t-108 29.5q-63 0 -109 -26
t-70.5 -69.5t-36 -92t-11.5 -102.5zM258 822q0 23 16.5 39.5t39.5 16.5t39.5 -16.5t16.5 -39.5t-16.5 -39.5t-39.5 -16.5t-39.5 16.5t-16.5 39.5zM464 822q0 23 16.5 39.5t39.5 16.5t39.5 -16.5t16.5 -39.5t-16.5 -39.5t-39.5 -16.5t-39.5 16.5t-16.5 39.5z" />
    <glyph glyph-name="multiply" unicode="&#xd7;" 
d="M278 188l-157 -157l-64 64l157 157l-157 158l63 63l158 -157l157 157l64 -64l-157 -157l157 -158l-63 -63z" />
    <glyph glyph-name="Oslash" unicode="&#xd8;" horiz-adv-x="834" 
d="M776 731l31 -30l-103 -102q89 -92 89 -231q0 -170 -108 -276.5t-270 -106.5q-146 0 -249 84l-109 -107l-31 30l108 107q-93 99 -93 245q0 156 106.5 262.5t262.5 106.5q157 0 262 -85zM219 183l378 372q-70 114 -189 114q-63 0 -109 -26t-70.5 -69.5t-36 -92
t-11.5 -102.5q0 -111 38 -196zM618 514l-378 -372q67 -113 185 -113q228 0 228 317q0 91 -35 168z" />
    <glyph glyph-name="Ugrave" unicode="&#xd9;" horiz-adv-x="778" 
d="M107 234v361q0 26 -5.5 41.5t-18.5 22t-23.5 8t-29.5 1.5h-12v30q19 0 72 -2t87 -2q33 0 83 2t67 2v-30h-12q-20 0 -30.5 -1.5t-24 -8t-19.5 -22t-6 -41.5v-345q0 -215 190 -215q96 0 143 57t47 162v341q0 26 -6 41.5t-18 22t-21.5 8t-26.5 1.5h-20v30q20 0 60.5 -2
t60.5 -2t58 2t58 2v-30h-21q-14 0 -22 -1.5t-19.5 -7.5t-17 -22.5t-5.5 -41.5v-319q0 -291 -269 -291q-148 0 -223.5 59t-75.5 190zM345 899l147 -148h-40l-154 97q-29 16 -29 37q0 38 35 38q17 0 41 -24z" />
    <glyph glyph-name="Uacute" unicode="&#xda;" horiz-adv-x="778" 
d="M107 234v361q0 26 -5.5 41.5t-18.5 22t-23.5 8t-29.5 1.5h-12v30q19 0 72 -2t87 -2q33 0 83 2t67 2v-30h-12q-20 0 -30.5 -1.5t-24 -8t-19.5 -22t-6 -41.5v-345q0 -215 190 -215q96 0 143 57t47 162v341q0 26 -6 41.5t-18 22t-21.5 8t-26.5 1.5h-20v30q20 0 60.5 -2
t60.5 -2t58 2t58 2v-30h-21q-14 0 -22 -1.5t-19.5 -7.5t-17 -22.5t-5.5 -41.5v-319q0 -291 -269 -291q-148 0 -223.5 59t-75.5 190zM354 751h-40l147 148q24 24 41 24q35 0 35 -38q0 -21 -29 -37z" />
    <glyph glyph-name="Ucircumflex" unicode="&#xdb;" horiz-adv-x="778" 
d="M107 234v361q0 26 -5.5 41.5t-18.5 22t-23.5 8t-29.5 1.5h-12v30q19 0 72 -2t87 -2q33 0 83 2t67 2v-30h-12q-20 0 -30.5 -1.5t-24 -8t-19.5 -22t-6 -41.5v-345q0 -215 190 -215q96 0 143 57t47 162v341q0 26 -6 41.5t-18 22t-21.5 8t-26.5 1.5h-20v30q20 0 60.5 -2
t60.5 -2t58 2t58 2v-30h-21q-14 0 -22 -1.5t-19.5 -7.5t-17 -22.5t-5.5 -41.5v-319q0 -291 -269 -291q-148 0 -223.5 59t-75.5 190zM376 918h62l125 -167h-35l-121 103l-122 -103h-33z" />
    <glyph glyph-name="Udieresis" unicode="&#xdc;" horiz-adv-x="778" 
d="M107 234v361q0 26 -5.5 41.5t-18.5 22t-23.5 8t-29.5 1.5h-12v30q19 0 72 -2t87 -2q33 0 83 2t67 2v-30h-12q-20 0 -30.5 -1.5t-24 -8t-19.5 -22t-6 -41.5v-345q0 -215 190 -215q96 0 143 57t47 162v341q0 26 -6 41.5t-18 22t-21.5 8t-26.5 1.5h-20v30q20 0 60.5 -2
t60.5 -2t58 2t58 2v-30h-21q-14 0 -22 -1.5t-19.5 -7.5t-17 -22.5t-5.5 -41.5v-319q0 -291 -269 -291q-148 0 -223.5 59t-75.5 190zM454 822q0 23 16.5 39.5t39.5 16.5t39.5 -16.5t16.5 -39.5t-16.5 -39.5t-39.5 -16.5t-39.5 16.5t-16.5 39.5zM248 822q0 23 16.5 39.5
t39.5 16.5t39.5 -16.5t16.5 -39.5t-16.5 -39.5t-39.5 -16.5t-39.5 16.5t-16.5 39.5z" />
    <glyph glyph-name="Yacute" unicode="&#xdd;" horiz-adv-x="722" 
d="M318 112v214l-200 274q-19 26 -29 37.5t-27.5 21t-39.5 9.5h-10v30q27 0 78.5 -2t78.5 -2t76 2t72 2v-30h-13q-52 0 -52 -23q0 -6 18 -33l151 -212l124 179q3 4 8.5 13t7.5 12.5l6 10.5t5.5 10.5t2.5 8.5t1 10q0 24 -57 24h-18v30q19 0 57 -2t57 -2q16 0 48 2t47 2v-30
q-45 0 -78 -46l-186 -263v-239q0 -59 18.5 -74.5t64.5 -15.5h19v-30q-31 0 -87 2t-76 2q-24 0 -81 -2t-88 -2v30h19q46 0 64.5 17t18.5 65zM326 751h-40l147 148q24 24 41 24q35 0 35 -38q0 -21 -29 -37z" />
    <glyph glyph-name="Thorn" unicode="&#xde;" 
d="M23 0v30h16q21 0 32 1.5t21 10.5t10 27v554q0 25 -15.5 35t-51.5 10h-12v30q27 0 81 -2t82 -2q26 0 76 2t76 2v-30h-29q-16 0 -24.5 -0.5t-24 -4t-23 -12.5t-7.5 -24v-29h61q123 0 188 -43.5t65 -147.5q0 -204 -267 -204h-47v-129q0 -15 8 -24.5t24 -13.5t29.5 -5
t33.5 -1h16v-30q-25 0 -76 2t-76 2q-27 0 -82 -2t-84 -2zM230 562v-329h32q71 0 109.5 47.5t38.5 126.5q0 72 -38 113.5t-113 41.5h-29z" />
    <glyph glyph-name="germandbls" unicode="&#xdf;" 
d="M193 535v-482q0 -16 6.5 -19.5t22.5 -3.5h12v-30q-66 4 -99 4q-41 0 -113 -4v30h13q46 0 46 24v339h-59v24q43 21 59 34v37q0 105 86 189q91 87 209 87q66 0 109.5 -32t43.5 -93q0 -39 -19 -71t-46.5 -53.5t-55 -40t-46.5 -40.5t-19 -45q0 -22 18.5 -41t45.5 -36t54 -37
t45.5 -53t18.5 -75q0 -67 -51 -114.5t-118 -47.5q-34 0 -63 16.5t-29 42.5q-1 16 9.5 26t26.5 10q18 0 29.5 -15t25 -29.5t34.5 -14.5q23 0 38.5 18t15.5 44q0 30 -18 55t-44 43t-52 37t-44 47.5t-18 63.5q0 33 12.5 60.5t32 45t41.5 37t41.5 36.5t32 42.5t12.5 55.5
q0 47 -33.5 80.5t-79.5 33.5q-70 0 -101.5 -53t-31.5 -132z" />
    <glyph glyph-name="agrave" unicode="&#xe0;" horiz-adv-x="500" 
d="M304 259v56q0 41 -21.5 61t-57.5 20q-43 0 -58.5 -14.5t-18.5 -56.5q-1 -18 -27.5 -29t-43.5 -11q-19 0 -19 23q0 56 55 84q71 37 108 58q24 14 60 14q66 0 100.5 -34t34.5 -99v-204q0 -38 6 -56t25 -18q15 0 28 13l13 -18q-26 -32 -49 -47.5t-56 -15.5q-35 0 -54 21.5
t-22 57.5q-39 -38 -74 -58.5t-79 -20.5q-47 0 -78 27.5t-31 75.5q0 28 10 48.5t32.5 35.5t40 23t52.5 21zM304 106v119q-5 -2 -24.5 -8t-29 -9t-27 -10t-26.5 -14t-20 -17t-15.5 -22.5t-4.5 -26.5q0 -65 61 -65q47 0 86 53zM188 700l147 -148h-40l-154 97q-29 16 -29 37
q0 38 35 38q17 0 41 -24z" />
    <glyph glyph-name="aacute" unicode="&#xe1;" horiz-adv-x="500" 
d="M304 259v56q0 41 -21.5 61t-57.5 20q-43 0 -58.5 -14.5t-18.5 -56.5q-1 -18 -27.5 -29t-43.5 -11q-19 0 -19 23q0 56 55 84q71 37 108 58q24 14 60 14q66 0 100.5 -34t34.5 -99v-204q0 -38 6 -56t25 -18q15 0 28 13l13 -18q-26 -32 -49 -47.5t-56 -15.5q-35 0 -54 21.5
t-22 57.5q-39 -38 -74 -58.5t-79 -20.5q-47 0 -78 27.5t-31 75.5q0 28 10 48.5t32.5 35.5t40 23t52.5 21zM304 106v119q-5 -2 -24.5 -8t-29 -9t-27 -10t-26.5 -14t-20 -17t-15.5 -22.5t-4.5 -26.5q0 -65 61 -65q47 0 86 53zM197 552h-40l147 148q24 24 41 24q35 0 35 -38
q0 -21 -29 -37z" />
    <glyph glyph-name="acircumflex" unicode="&#xe2;" horiz-adv-x="500" 
d="M304 259v56q0 41 -21.5 61t-57.5 20q-43 0 -58.5 -14.5t-18.5 -56.5q-1 -18 -27.5 -29t-43.5 -11q-19 0 -19 23q0 56 55 84q71 37 108 58q24 14 60 14q66 0 100.5 -34t34.5 -99v-204q0 -38 6 -56t25 -18q15 0 28 13l13 -18q-26 -32 -49 -47.5t-56 -15.5q-35 0 -54 21.5
t-22 57.5q-39 -38 -74 -58.5t-79 -20.5q-47 0 -78 27.5t-31 75.5q0 28 10 48.5t32.5 35.5t40 23t52.5 21zM304 106v119q-5 -2 -24.5 -8t-29 -9t-27 -10t-26.5 -14t-20 -17t-15.5 -22.5t-4.5 -26.5q0 -65 61 -65q47 0 86 53zM219 719h62l125 -167h-35l-121 103l-122 -103h-33
z" />
    <glyph glyph-name="atilde" unicode="&#xe3;" horiz-adv-x="500" 
d="M304 259v56q0 41 -21.5 61t-57.5 20q-43 0 -58.5 -14.5t-18.5 -56.5q-1 -18 -27.5 -29t-43.5 -11q-19 0 -19 23q0 56 55 84q71 37 108 58q24 14 60 14q66 0 100.5 -34t34.5 -99v-204q0 -38 6 -56t25 -18q15 0 28 13l13 -18q-26 -32 -49 -47.5t-56 -15.5q-35 0 -54 21.5
t-22 57.5q-39 -38 -74 -58.5t-79 -20.5q-47 0 -78 27.5t-31 75.5q0 28 10 48.5t32.5 35.5t40 23t52.5 21zM115 576h-29q9 45 32.5 76.5t63.5 31.5q25 0 79 -22q56 -22 76 -22q40 0 47 45h30q-8 -45 -31 -76t-64 -31q-30 0 -84 24q-56 23 -71 23q-34 0 -49 -49zM304 106v119
q-5 -2 -24.5 -8t-29 -9t-27 -10t-26.5 -14t-20 -17t-15.5 -22.5t-4.5 -26.5q0 -65 61 -65q47 0 86 53z" />
    <glyph glyph-name="adieresis" unicode="&#xe4;" horiz-adv-x="500" 
d="M304 259v56q0 41 -21.5 61t-57.5 20q-43 0 -58.5 -14.5t-18.5 -56.5q-1 -18 -27.5 -29t-43.5 -11q-19 0 -19 23q0 56 55 84q71 37 108 58q24 14 60 14q66 0 100.5 -34t34.5 -99v-204q0 -38 6 -56t25 -18q15 0 28 13l13 -18q-26 -32 -49 -47.5t-56 -15.5q-35 0 -54 21.5
t-22 57.5q-39 -38 -74 -58.5t-79 -20.5q-47 0 -78 27.5t-31 75.5q0 28 10 48.5t32.5 35.5t40 23t52.5 21zM304 106v119q-5 -2 -24.5 -8t-29 -9t-27 -10t-26.5 -14t-20 -17t-15.5 -22.5t-4.5 -26.5q0 -65 61 -65q47 0 86 53zM91 623q0 23 16.5 39.5t39.5 16.5t39.5 -16.5
t16.5 -39.5t-16.5 -39.5t-39.5 -16.5t-39.5 16.5t-16.5 39.5zM297 623q0 23 16.5 39.5t39.5 16.5t39.5 -16.5t16.5 -39.5t-16.5 -39.5t-39.5 -16.5t-39.5 16.5t-16.5 39.5z" />
    <glyph glyph-name="aring" unicode="&#xe5;" horiz-adv-x="500" 
d="M304 259v56q0 41 -21.5 61t-57.5 20q-43 0 -58.5 -14.5t-18.5 -56.5q-1 -18 -27.5 -29t-43.5 -11q-19 0 -19 23q0 56 55 84q71 37 108 58q24 14 60 14q66 0 100.5 -34t34.5 -99v-204q0 -38 6 -56t25 -18q15 0 28 13l13 -18q-26 -32 -49 -47.5t-56 -15.5q-35 0 -54 21.5
t-22 57.5q-39 -38 -74 -58.5t-79 -20.5q-47 0 -78 27.5t-31 75.5q0 28 10 48.5t32.5 35.5t40 23t52.5 21zM358 633q0 -41 -28 -69t-69 -28t-69 28t-28 69t28 69t69 28t69 -28t28 -69zM304 106v119q-5 -2 -24.5 -8t-29 -9t-27 -10t-26.5 -14t-20 -17t-15.5 -22.5t-4.5 -26.5
q0 -65 61 -65q47 0 86 53zM329 633q0 26 -20.5 47t-47.5 21t-47.5 -20.5t-20.5 -47.5t21 -47.5t47 -20.5t47 21t21 47z" />
    <glyph glyph-name="ae" unicode="&#xe6;" horiz-adv-x="722" 
d="M680 133l17 -16q-39 -55 -92 -93.5t-110 -38.5q-53 0 -88.5 20.5t-66.5 66.5q-32 -26 -55 -42t-58.5 -30.5t-69.5 -14.5q-47 0 -79.5 29t-32.5 75q0 41 21 58t109 46l132 44v72q0 38 -17.5 62.5t-54.5 24.5q-41 0 -59 -14.5t-18 -53.5q0 -19 -29 -33t-45 -14t-16 30
q0 50 29 65q64 32 127 71q29 17 66 17q85 0 113 -61q63 61 140 61q61 0 104 -28t43 -87q0 -19 -16 -24l-261 -85q3 -92 32 -133.5t101 -41.5q33 0 71 17.5t63 50.5zM307 112v97q-95 -33 -122.5 -51.5t-27.5 -48.5q0 -25 17 -43.5t46 -18.5q27 0 57 22.5t30 42.5zM413 272
l127 43q38 13 38 44q0 26 -20 43.5t-47 17.5q-99 0 -98 -148z" />
    <glyph glyph-name="ccedilla" unicode="&#xe7;" horiz-adv-x="444" 
d="M419 126l18 -20q-39 -56 -76.5 -85.5t-92.5 -34.5l-19 -52q13 3 29 3q37 0 60.5 -17.5t23.5 -50.5q0 -85 -130 -85q-42 0 -79 17l13 31q48 -12 62 -12q58 0 58 46q0 17 -14.5 26t-30.5 9q-18 0 -36 -5l-7 5l35 85q-92 4 -143.5 64.5t-51.5 157.5q0 105 74 180.5t179 75.5
q131 0 131 -75q0 -22 -15.5 -37.5t-38.5 -15.5q-17 0 -30 13t-21 29t-25 29t-42 13q-52 0 -79 -38.5t-27 -102.5q0 -83 39 -148.5t115 -65.5q38 0 62 13.5t59 47.5z" />
    <glyph glyph-name="egrave" unicode="&#xe8;" horiz-adv-x="444" 
d="M408 129l16 -19q-32 -56 -82 -90.5t-110 -34.5q-90 0 -142 69t-52 161q0 99 61.5 174t159.5 75q75 0 117 -49t40 -126l-12 -11h-270q0 -84 39.5 -143.5t115.5 -59.5q71 0 119 54zM136 308h114q42 0 52 5.5t10 31.5q0 31 -19 57t-51 26q-43 0 -70 -34.5t-36 -85.5z
M178 700l147 -148h-40l-154 97q-29 16 -29 37q0 38 35 38q17 0 41 -24z" />
    <glyph glyph-name="eacute" unicode="&#xe9;" horiz-adv-x="444" 
d="M408 129l16 -19q-32 -56 -82 -90.5t-110 -34.5q-90 0 -142 69t-52 161q0 99 61.5 174t159.5 75q75 0 117 -49t40 -126l-12 -11h-270q0 -84 39.5 -143.5t115.5 -59.5q71 0 119 54zM136 308h114q42 0 52 5.5t10 31.5q0 31 -19 57t-51 26q-43 0 -70 -34.5t-36 -85.5z
M187 552h-40l147 148q24 24 41 24q35 0 35 -38q0 -21 -29 -37z" />
    <glyph glyph-name="ecircumflex" unicode="&#xea;" horiz-adv-x="444" 
d="M408 129l16 -19q-32 -56 -82 -90.5t-110 -34.5q-90 0 -142 69t-52 161q0 99 61.5 174t159.5 75q75 0 117 -49t40 -126l-12 -11h-270q0 -84 39.5 -143.5t115.5 -59.5q71 0 119 54zM209 719h62l125 -167h-35l-121 103l-122 -103h-33zM136 308h114q42 0 52 5.5t10 31.5
q0 31 -19 57t-51 26q-43 0 -70 -34.5t-36 -85.5z" />
    <glyph glyph-name="edieresis" unicode="&#xeb;" horiz-adv-x="444" 
d="M408 129l16 -19q-32 -56 -82 -90.5t-110 -34.5q-90 0 -142 69t-52 161q0 99 61.5 174t159.5 75q75 0 117 -49t40 -126l-12 -11h-270q0 -84 39.5 -143.5t115.5 -59.5q71 0 119 54zM136 308h114q42 0 52 5.5t10 31.5q0 31 -19 57t-51 26q-43 0 -70 -34.5t-36 -85.5zM63 623
q0 23 16.5 39.5t39.5 16.5t39.5 -16.5t16.5 -39.5t-16.5 -39.5t-39.5 -16.5t-39.5 16.5t-16.5 39.5zM269 623q0 23 16.5 39.5t39.5 16.5t39.5 -16.5t16.5 -39.5t-16.5 -39.5t-39.5 -16.5t-39.5 16.5t-16.5 39.5z" />
    <glyph glyph-name="igrave" unicode="&#xec;" horiz-adv-x="278" 
d="M193 455v-401q0 -16 11.5 -20t36.5 -4h15v-30q-76 4 -114 4q-42 0 -120 -4v30h7q19 0 27.5 1t16.5 8t8 21v283q0 13 -4 18.5t-20 9.5q-6 2 -17.5 5.5t-17.5 4.5v24q28 7 91 29q13 5 37 16t32 14zM77 700l147 -148h-40l-154 97q-29 16 -29 37q0 38 35 38q17 0 41 -24z" />
    <glyph glyph-name="iacute" unicode="&#xed;" horiz-adv-x="278" 
d="M193 455v-401q0 -16 11.5 -20t36.5 -4h15v-30q-76 4 -114 4q-42 0 -120 -4v30h7q19 0 27.5 1t16.5 8t8 21v283q0 13 -4 18.5t-20 9.5q-6 2 -17.5 5.5t-17.5 4.5v24q28 7 91 29q13 5 37 16t32 14zM86 552h-40l147 148q24 24 41 24q35 0 35 -38q0 -21 -29 -37z" />
    <glyph glyph-name="icircumflex" unicode="&#xee;" horiz-adv-x="278" 
d="M193 455v-401q0 -16 11.5 -20t36.5 -4h15v-30q-76 4 -114 4q-42 0 -120 -4v30h7q19 0 27.5 1t16.5 8t8 21v283q0 13 -4 18.5t-20 9.5q-6 2 -17.5 5.5t-17.5 4.5v24q28 7 91 29q13 5 37 16t32 14zM108 719h62l125 -167h-35l-121 103l-122 -103h-33z" />
    <glyph glyph-name="idieresis" unicode="&#xef;" horiz-adv-x="278" 
d="M193 455v-401q0 -16 11.5 -20t36.5 -4h15v-30q-76 4 -114 4q-42 0 -120 -4v30h7q19 0 27.5 1t16.5 8t8 21v283q0 13 -4 18.5t-20 9.5q-6 2 -17.5 5.5t-17.5 4.5v24q28 7 91 29q13 5 37 16t32 14zM186 623q0 23 16.5 39.5t39.5 16.5t39.5 -16.5t16.5 -39.5t-16.5 -39.5
t-39.5 -16.5t-39.5 16.5t-16.5 39.5zM-20 623q0 23 16.5 39.5t39.5 16.5t39.5 -16.5t16.5 -39.5t-16.5 -39.5t-39.5 -16.5t-39.5 16.5t-16.5 39.5z" />
    <glyph glyph-name="eth" unicode="&#xf0;" 
d="M252 623l-124 -79l-31 37l120 75q-65 45 -131 72l21 36q99 -27 163 -75l114 75l32 -38l-102 -64q85 -56 144.5 -161.5t59.5 -194.5q0 -158 -67 -239.5t-174 -81.5q-105 0 -172 68t-67 172q0 102 67.5 170.5t171.5 68.5q60 0 89 -33h2q-9 50 -41 102.5t-75 89.5zM160 202
q0 -64 32.5 -122.5t90.5 -58.5q113 0 113 186q0 31 -5.5 65.5t-18 71.5t-38 60.5t-59.5 23.5q-28 0 -48.5 -10.5t-32.5 -31.5t-19.5 -41t-10.5 -51t-3.5 -47.5t-0.5 -44.5z" />
    <glyph glyph-name="ntilde" unicode="&#xf1;" 
d="M22 0v30h7q19 0 27.5 1t16.5 8t8 21v283q0 13 -4 18.5t-20 9.5q-6 2 -17.5 5.5t-17.5 4.5v24q28 7 91 29q13 5 37 16t32 14l11 -9v-64q5 4 22 15.5t25 17t24 15t27.5 14t27 8t30.5 3.5q124 0 124 -129v-277q0 -13 8.5 -19.5t16.5 -7.5t24 -1h12v-30q-76 4 -113 4
q-39 0 -119 -4v30h10q49 0 49 26v250q0 84 -76 84q-39 0 -92 -34v-302q0 -16 11.5 -20t36.5 -4h15v-30q-76 4 -114 4q-42 0 -120 -4zM143 576h-29q9 45 32.5 76.5t63.5 31.5q25 0 79 -22q56 -22 76 -22q40 0 47 45h30q-8 -45 -31 -76t-64 -31q-30 0 -84 24q-56 23 -71 23
q-34 0 -49 -49z" />
    <glyph glyph-name="ograve" unicode="&#xf2;" 
d="M38 225q0 102 67.5 170.5t171.5 68.5q109 0 175 -64t66 -169q0 -102 -70 -174t-171 -72q-105 0 -172 68t-67 172zM275 428q-115 0 -115 -206q0 -35 6 -67.5t19 -64t38.5 -50.5t59.5 -19q113 0 113 186q0 31 -5.5 65.5t-18 71.5t-38 60.5t-59.5 23.5zM216 700l147 -148
h-40l-154 97q-29 16 -29 37q0 38 35 38q17 0 41 -24z" />
    <glyph glyph-name="oacute" unicode="&#xf3;" 
d="M38 225q0 102 67.5 170.5t171.5 68.5q109 0 175 -64t66 -169q0 -102 -70 -174t-171 -72q-105 0 -172 68t-67 172zM275 428q-115 0 -115 -206q0 -35 6 -67.5t19 -64t38.5 -50.5t59.5 -19q113 0 113 186q0 31 -5.5 65.5t-18 71.5t-38 60.5t-59.5 23.5zM225 552h-40l147 148
q24 24 41 24q35 0 35 -38q0 -21 -29 -37z" />
    <glyph glyph-name="ocircumflex" unicode="&#xf4;" 
d="M38 225q0 102 67.5 170.5t171.5 68.5q109 0 175 -64t66 -169q0 -102 -70 -174t-171 -72q-105 0 -172 68t-67 172zM275 428q-115 0 -115 -206q0 -35 6 -67.5t19 -64t38.5 -50.5t59.5 -19q113 0 113 186q0 31 -5.5 65.5t-18 71.5t-38 60.5t-59.5 23.5zM247 719h62l125 -167
h-35l-121 103l-122 -103h-33z" />
    <glyph glyph-name="otilde" unicode="&#xf5;" 
d="M38 225q0 102 67.5 170.5t171.5 68.5q109 0 175 -64t66 -169q0 -102 -70 -174t-171 -72q-105 0 -172 68t-67 172zM275 428q-115 0 -115 -206q0 -35 6 -67.5t19 -64t38.5 -50.5t59.5 -19q113 0 113 186q0 31 -5.5 65.5t-18 71.5t-38 60.5t-59.5 23.5zM143 576h-29
q9 45 32.5 76.5t63.5 31.5q25 0 79 -22q56 -22 76 -22q40 0 47 45h30q-8 -45 -31 -76t-64 -31q-30 0 -84 24q-56 23 -71 23q-34 0 -49 -49z" />
    <glyph glyph-name="odieresis" unicode="&#xf6;" 
d="M38 225q0 102 67.5 170.5t171.5 68.5q109 0 175 -64t66 -169q0 -102 -70 -174t-171 -72q-105 0 -172 68t-67 172zM275 428q-115 0 -115 -206q0 -35 6 -67.5t19 -64t38.5 -50.5t59.5 -19q113 0 113 186q0 31 -5.5 65.5t-18 71.5t-38 60.5t-59.5 23.5zM119 623
q0 23 16.5 39.5t39.5 16.5t39.5 -16.5t16.5 -39.5t-16.5 -39.5t-39.5 -16.5t-39.5 16.5t-16.5 39.5zM325 623q0 23 16.5 39.5t39.5 16.5t39.5 -16.5t16.5 -39.5t-16.5 -39.5t-39.5 -16.5t-39.5 16.5t-16.5 39.5z" />
    <glyph glyph-name="divide" unicode="&#xf7;" 
d="M530 207h-504v90h504v-90zM203 460q0 31 22 53t53 22t53 -22t22 -53t-22 -53t-53 -22t-53 22t-22 53zM203 44q0 31 22 53t53 22t53 -22t22 -53t-22 -53t-53 -22t-53 22t-22 53z" />
    <glyph glyph-name="oslash" unicode="&#xf8;" 
d="M508 477l26 -28l-66 -66q50 -59 50 -152q0 -102 -70 -174t-171 -72q-92 0 -156 54l-73 -72l-26 28l71 71q-55 66 -55 159q0 102 67.5 170.5t171.5 68.5q101 0 164 -54zM169 141l203 201q-31 86 -97 86q-115 0 -115 -206q0 -46 9 -81zM385 301l-203 -202q30 -78 101 -78
q113 0 113 186q0 47 -11 94z" />
    <glyph glyph-name="ugrave" unicode="&#xf9;" 
d="M81 102v271q0 12 -4 17t-17 9l-42 12v24q98 5 170 29l10 -6q-5 -70 -5 -90v-221q0 -82 74 -82q43 0 94 42v256q0 15 -4.5 21t-19.5 11l-50 16v24q128 8 181 29l10 -6q-5 -35 -5 -90v-286q0 -20 5.5 -28t21.5 -8h30v-24q-119 -21 -159 -37l-10 8v71q-94 -79 -158 -79
q-122 0 -122 117zM216 700l147 -148h-40l-154 97q-29 16 -29 37q0 38 35 38q17 0 41 -24z" />
    <glyph glyph-name="uacute" unicode="&#xfa;" 
d="M81 102v271q0 12 -4 17t-17 9l-42 12v24q98 5 170 29l10 -6q-5 -70 -5 -90v-221q0 -82 74 -82q43 0 94 42v256q0 15 -4.5 21t-19.5 11l-50 16v24q128 8 181 29l10 -6q-5 -35 -5 -90v-286q0 -20 5.5 -28t21.5 -8h30v-24q-119 -21 -159 -37l-10 8v71q-94 -79 -158 -79
q-122 0 -122 117zM225 552h-40l147 148q24 24 41 24q35 0 35 -38q0 -21 -29 -37z" />
    <glyph glyph-name="ucircumflex" unicode="&#xfb;" 
d="M81 102v271q0 12 -4 17t-17 9l-42 12v24q98 5 170 29l10 -6q-5 -70 -5 -90v-221q0 -82 74 -82q43 0 94 42v256q0 15 -4.5 21t-19.5 11l-50 16v24q128 8 181 29l10 -6q-5 -35 -5 -90v-286q0 -20 5.5 -28t21.5 -8h30v-24q-119 -21 -159 -37l-10 8v71q-94 -79 -158 -79
q-122 0 -122 117zM247 719h62l125 -167h-35l-121 103l-122 -103h-33z" />
    <glyph glyph-name="udieresis" unicode="&#xfc;" 
d="M81 102v271q0 12 -4 17t-17 9l-42 12v24q98 5 170 29l10 -6q-5 -70 -5 -90v-221q0 -82 74 -82q43 0 94 42v256q0 15 -4.5 21t-19.5 11l-50 16v24q128 8 181 29l10 -6q-5 -35 -5 -90v-286q0 -20 5.5 -28t21.5 -8h30v-24q-119 -21 -159 -37l-10 8v71q-94 -79 -158 -79
q-122 0 -122 117zM325 623q0 23 16.5 39.5t39.5 16.5t39.5 -16.5t16.5 -39.5t-16.5 -39.5t-39.5 -16.5t-39.5 16.5t-16.5 39.5zM119 623q0 23 16.5 39.5t39.5 16.5t39.5 -16.5t16.5 -39.5t-16.5 -39.5t-39.5 -16.5t-39.5 16.5t-16.5 39.5z" />
    <glyph glyph-name="yacute" unicode="&#xfd;" horiz-adv-x="500" 
d="M199 368l88 -228h2l79 202q13 32 13 54q0 23 -47 23h-13v30q62 -4 93 -4q26 0 72 4v-30h-17q-13 0 -24.5 -17.5t-33.5 -70.5l-204 -493q-27 -66 -76 -66q-25 0 -41 16.5t-16 41.5q0 21 15.5 37.5t38.5 16.5q28 0 50 -15l51 122l-151 374q-13 31 -22.5 42.5t-26.5 11.5
h-15v30q78 -4 116 -4q37 0 111 4v-30h-9q-43 0 -43 -15q0 -10 10 -36zM197 552h-40l147 148q24 24 41 24q35 0 35 -38q0 -21 -29 -37z" />
    <glyph glyph-name="thorn" unicode="&#xfe;" 
d="M74 -178v825q0 34 -47 34h-12v18q42 9 84 27q50 18 78 38l9 -6v-358q69 64 155 64q82 0 129.5 -58t47.5 -141q0 -114 -72.5 -192.5t-170.5 -78.5q-52 0 -89 14v-174q0 -15 11 -22.5t23.5 -8.5t38.5 -1h19v-30q-15 0 -61.5 2t-72.5 2q-25 0 -71 -2t-61 -2v30h13
q49 0 49 20zM186 369v-267q52 -64 102 -64q43 0 71 27t37.5 62.5t9.5 77.5q0 73 -35.5 132t-103.5 59q-38 0 -81 -27z" />
    <glyph glyph-name="ydieresis" unicode="&#xff;" horiz-adv-x="500" 
d="M199 368l88 -228h2l79 202q13 32 13 54q0 23 -47 23h-13v30q62 -4 93 -4q26 0 72 4v-30h-17q-13 0 -24.5 -17.5t-33.5 -70.5l-204 -493q-27 -66 -76 -66q-25 0 -41 16.5t-16 41.5q0 21 15.5 37.5t38.5 16.5q28 0 50 -15l51 122l-151 374q-13 31 -22.5 42.5t-26.5 11.5
h-15v30q78 -4 116 -4q37 0 111 4v-30h-9q-43 0 -43 -15q0 -10 10 -36zM297 623q0 23 16.5 39.5t39.5 16.5t39.5 -16.5t16.5 -39.5t-16.5 -39.5t-39.5 -16.5t-39.5 16.5t-16.5 39.5zM91 623q0 23 16.5 39.5t39.5 16.5t39.5 -16.5t16.5 -39.5t-16.5 -39.5t-39.5 -16.5
t-39.5 16.5t-16.5 39.5z" />
    <glyph glyph-name="Amacron" unicode="&#x100;" horiz-adv-x="722" 
d="M209 247l-32 -104q-3 -11 -9.5 -29.5t-9.5 -29.5t-3 -19q0 -35 75 -35h11v-30q-80 4 -121 4q-36 0 -108 -4v30h6q64 0 87 65l160 459q31 89 37 124q50 17 91 43q6 2 8 2q5 0 7 -3q1 -4 4 -12.5t5 -12.5l184 -523q27 -80 37 -102q17 -40 66 -40h6v-30q-90 4 -138 4
t-150 -4v30h11q62 0 62 29q0 14 -20 72l-39 116h-227zM415 303l-92 283h-2l-93 -283h187zM499 795h-276v50h276v-50z" />
    <glyph glyph-name="amacron" unicode="&#x101;" horiz-adv-x="500" 
d="M304 259v56q0 41 -21.5 61t-57.5 20q-43 0 -58.5 -14.5t-18.5 -56.5q-1 -18 -27.5 -29t-43.5 -11q-19 0 -19 23q0 56 55 84q71 37 108 58q24 14 60 14q66 0 100.5 -34t34.5 -99v-204q0 -38 6 -56t25 -18q15 0 28 13l13 -18q-26 -32 -49 -47.5t-56 -15.5q-35 0 -54 21.5
t-22 57.5q-39 -38 -74 -58.5t-79 -20.5q-47 0 -78 27.5t-31 75.5q0 28 10 48.5t32.5 35.5t40 23t52.5 21zM304 106v119q-5 -2 -24.5 -8t-29 -9t-27 -10t-26.5 -14t-20 -17t-15.5 -22.5t-4.5 -26.5q0 -65 61 -65q47 0 86 53zM389 596h-276v50h276v-50z" />
    <glyph glyph-name="Abreve" unicode="&#x102;" horiz-adv-x="722" 
d="M209 247l-32 -104q-3 -11 -9.5 -29.5t-9.5 -29.5t-3 -19q0 -35 75 -35h11v-30q-80 4 -121 4q-36 0 -108 -4v30h6q64 0 87 65l160 459q31 89 37 124q50 17 91 43q6 2 8 2q5 0 7 -3q1 -4 4 -12.5t5 -12.5l184 -523q27 -80 37 -102q17 -40 66 -40h6v-30q-90 4 -138 4
t-150 -4v30h11q62 0 62 29q0 14 -20 72l-39 116h-227zM415 303l-92 283h-2l-93 -283h187zM472 904h30q-5 -69 -40.5 -113t-102.5 -44q-65 0 -104 46t-34 111h30q18 -95 113 -95q43 0 71 26t37 69z" />
    <glyph glyph-name="abreve" unicode="&#x103;" horiz-adv-x="500" 
d="M304 259v56q0 41 -21.5 61t-57.5 20q-43 0 -58.5 -14.5t-18.5 -56.5q-1 -18 -27.5 -29t-43.5 -11q-19 0 -19 23q0 56 55 84q71 37 108 58q24 14 60 14q66 0 100.5 -34t34.5 -99v-204q0 -38 6 -56t25 -18q15 0 28 13l13 -18q-26 -32 -49 -47.5t-56 -15.5q-35 0 -54 21.5
t-22 57.5q-39 -38 -74 -58.5t-79 -20.5q-47 0 -78 27.5t-31 75.5q0 28 10 48.5t32.5 35.5t40 23t52.5 21zM304 106v119q-5 -2 -24.5 -8t-29 -9t-27 -10t-26.5 -14t-20 -17t-15.5 -22.5t-4.5 -26.5q0 -65 61 -65q47 0 86 53zM362 705h30q-5 -69 -40.5 -113t-102.5 -44
q-65 0 -104 46t-34 111h30q18 -95 113 -95q43 0 71 26t37 69z" />
    <glyph glyph-name="Aogonek" unicode="&#x104;" horiz-adv-x="722" 
d="M602 -133l20 -10q-31 -68 -109 -68q-81 0 -81 77q0 30 24.5 62t46.5 48.5t43 27.5q-20 0 -61.5 -1.5t-62.5 -2.5v30h11q62 0 62 29q0 14 -20 72l-39 116h-227l-32 -104q-3 -11 -9.5 -29.5t-9.5 -29.5t-3 -19q0 -35 75 -35h11v-30q-80 4 -121 4q-36 0 -108 -4v30h6
q64 0 87 65l160 459q31 89 37 124q50 17 91 43q6 2 8 2q5 0 7 -3q1 -4 4 -12.5t5 -12.5l184 -523q27 -80 37 -102q17 -40 66 -40h6v-30q-43 2 -125 4q-83 -72 -83 -129q0 -19 10.5 -30.5t29.5 -11.5q35 0 60 34zM415 303l-92 283h-2l-93 -283h187z" />
    <glyph glyph-name="aogonek" unicode="&#x105;" horiz-adv-x="500" 
d="M454 -133l20 -10q-31 -68 -109 -68q-81 0 -81 77q0 61 85 120q-57 9 -62 78q-39 -38 -74 -58.5t-79 -20.5q-47 0 -78 27.5t-31 75.5q0 28 10 48.5t32.5 35.5t40 23t52.5 21l124 43v56q0 41 -21.5 61t-57.5 20q-43 0 -58.5 -14.5t-18.5 -56.5q-1 -18 -27.5 -29t-43.5 -11
q-19 0 -19 23q0 56 55 84q71 37 108 58q24 14 60 14q66 0 100.5 -34t34.5 -99v-204q0 -38 6 -56t25 -18q15 0 28 13l13 -18q-37 -44 -64 -55q-70 -65 -70 -118q0 -19 10.5 -30.5t29.5 -11.5q35 0 60 34zM304 106v119q-5 -2 -24.5 -8t-29 -9t-27 -10t-26.5 -14t-20 -17
t-15.5 -22.5t-4.5 -26.5q0 -65 61 -65q47 0 86 53z" />
    <glyph glyph-name="Cacute" unicode="&#x106;" horiz-adv-x="722" 
d="M685 496l-30 -4q-12 41 -26.5 69.5t-39.5 54.5t-64.5 39.5t-93.5 13.5q-119 0 -184.5 -84t-65.5 -220q0 -64 16.5 -123t49 -107.5t86.5 -77t122 -28.5q78 0 131 45t73 122l28 -4q-16 -68 -25 -162q-104 -45 -229 -45q-176 0 -284 96t-108 278q0 108 54 190t141 123
t192 41q67 0 143 -23t106 -27q-2 -90 8 -167zM358 751h-40l147 148q24 24 41 24q35 0 35 -38q0 -21 -29 -37z" />
    <glyph glyph-name="cacute" unicode="&#x107;" horiz-adv-x="444" 
d="M419 126l18 -20q-41 -60 -83 -90.5t-106 -30.5q-99 0 -154.5 61t-55.5 162q0 105 74 180.5t179 75.5q131 0 131 -75q0 -22 -15.5 -37.5t-38.5 -15.5q-17 0 -30 13t-21 29t-25 29t-42 13q-52 0 -79 -38.5t-27 -102.5q0 -83 39 -148.5t115 -65.5q38 0 62 13.5t59 47.5z
M210 552h-40l147 148q24 24 41 24q35 0 35 -38q0 -21 -29 -37z" />
    <glyph glyph-name="Ccircumflex" unicode="&#x108;" horiz-adv-x="722" 
d="M685 496l-30 -4q-12 41 -26.5 69.5t-39.5 54.5t-64.5 39.5t-93.5 13.5q-119 0 -184.5 -84t-65.5 -220q0 -64 16.5 -123t49 -107.5t86.5 -77t122 -28.5q78 0 131 45t73 122l28 -4q-16 -68 -25 -162q-104 -45 -229 -45q-176 0 -284 96t-108 278q0 108 54 190t141 123
t192 41q67 0 143 -23t106 -27q-2 -90 8 -167zM384 918h62l125 -167h-35l-121 103l-122 -103h-33z" />
    <glyph glyph-name="ccircumflex" unicode="&#x109;" horiz-adv-x="444" 
d="M419 126l18 -20q-41 -60 -83 -90.5t-106 -30.5q-99 0 -154.5 61t-55.5 162q0 105 74 180.5t179 75.5q131 0 131 -75q0 -22 -15.5 -37.5t-38.5 -15.5q-17 0 -30 13t-21 29t-25 29t-42 13q-52 0 -79 -38.5t-27 -102.5q0 -83 39 -148.5t115 -65.5q38 0 62 13.5t59 47.5z
M222 719h62l125 -167h-35l-121 103l-122 -103h-33z" />
    <glyph glyph-name="Cdotaccent" unicode="&#x10a;" horiz-adv-x="722" 
d="M685 496l-30 -4q-12 41 -26.5 69.5t-39.5 54.5t-64.5 39.5t-93.5 13.5q-119 0 -184.5 -84t-65.5 -220q0 -64 16.5 -123t49 -107.5t86.5 -77t122 -28.5q78 0 131 45t73 122l28 -4q-16 -68 -25 -162q-104 -45 -229 -45q-176 0 -284 96t-108 278q0 108 54 190t141 123
t192 41q67 0 143 -23t106 -27q-2 -90 8 -167zM359 822q0 23 16.5 39.5t39.5 16.5t39.5 -16.5t16.5 -39.5t-16.5 -39.5t-39.5 -16.5t-39.5 16.5t-16.5 39.5z" />
    <glyph glyph-name="cdotaccent" unicode="&#x10b;" horiz-adv-x="444" 
d="M419 126l18 -20q-41 -60 -83 -90.5t-106 -30.5q-99 0 -154.5 61t-55.5 162q0 105 74 180.5t179 75.5q131 0 131 -75q0 -22 -15.5 -37.5t-38.5 -15.5q-17 0 -30 13t-21 29t-25 29t-42 13q-52 0 -79 -38.5t-27 -102.5q0 -83 39 -148.5t115 -65.5q38 0 62 13.5t59 47.5z
M202 623q0 23 16.5 39.5t39.5 16.5t39.5 -16.5t16.5 -39.5t-16.5 -39.5t-39.5 -16.5t-39.5 16.5t-16.5 39.5z" />
    <glyph glyph-name="Ccaron" unicode="&#x10c;" horiz-adv-x="722" 
d="M685 496l-30 -4q-12 41 -26.5 69.5t-39.5 54.5t-64.5 39.5t-93.5 13.5q-119 0 -184.5 -84t-65.5 -220q0 -64 16.5 -123t49 -107.5t86.5 -77t122 -28.5q78 0 131 45t73 122l28 -4q-16 -68 -25 -162q-104 -45 -229 -45q-176 0 -284 96t-108 278q0 108 54 190t141 123
t192 41q67 0 143 -23t106 -27q-2 -90 8 -167zM446 751h-62l-124 167h33l122 -103l121 103h35z" />
    <glyph glyph-name="ccaron" unicode="&#x10d;" horiz-adv-x="444" 
d="M419 126l18 -20q-41 -60 -83 -90.5t-106 -30.5q-99 0 -154.5 61t-55.5 162q0 105 74 180.5t179 75.5q131 0 131 -75q0 -22 -15.5 -37.5t-38.5 -15.5q-17 0 -30 13t-21 29t-25 29t-42 13q-52 0 -79 -38.5t-27 -102.5q0 -83 39 -148.5t115 -65.5q38 0 62 13.5t59 47.5z
M284 552h-62l-124 167h33l122 -103l121 103h35z" />
    <glyph glyph-name="Dcaron" unicode="&#x10e;" horiz-adv-x="778" 
d="M19 0v30h14q22 0 36 3t26 16.5t12 37.5v524q0 35 -20 46t-54 11h-14v30q11 0 67.5 -2t92.5 -2q35 0 88.5 2t72.5 2q183 0 290 -94.5t107 -252.5q0 -151 -109.5 -255.5t-261.5 -95.5q-88 4 -182 4q-39 0 -98 -2t-67 -2zM235 657v-542q0 -50 22.5 -64.5t81.5 -14.5
q121 0 189.5 86.5t68.5 209.5q0 96 -22.5 162.5t-65 102t-92.5 50.5t-114 15q-13 0 -68 -5zM361 751h-62l-124 167h33l122 -103l121 103h35z" />
    <glyph glyph-name="dcaron" unicode="&#x10f;" 
d="M477 756v-707l58 5v-25q-28 -5 -80 -20q-19 -6 -47.5 -14t-33.5 -10l-8 6v61q-43 -37 -73 -52t-78 -15q-73 0 -125 61.5t-52 148.5q0 114 74.5 191.5t170.5 77.5q47 0 82 -15v204l-67 24v17q103 35 167 70zM365 83v273q-14 28 -41.5 46t-57.5 18q-61 0 -88.5 -52
t-27.5 -123q0 -82 37.5 -137t95.5 -55q43 0 82 30zM566 539h-24l9 140q2 48 39 48q20 0 32 -9t12 -22q0 -18 -13 -43z" />
    <glyph glyph-name="Dcroat" unicode="&#x110;" horiz-adv-x="778" 
d="M19 0v30h14q40 0 57 6t17 31v295h-88v56h88v212q0 25 -19 31.5t-59 6.5h-10v30q144 -4 160 -4q35 0 88.5 2t72.5 2q183 0 290 -94.5t107 -252.5q0 -151 -109.5 -255.5t-261.5 -95.5q-88 4 -182 4q-101 0 -165 -4zM235 657v-239h155v-56h-155v-247q0 -50 22.5 -64.5
t81.5 -14.5q121 0 189.5 86.5t68.5 209.5q0 96 -22.5 162.5t-65 102t-92.5 50.5t-114 15q-13 0 -68 -5z" />
    <glyph glyph-name="dcroat" unicode="&#x111;" 
d="M477 756v-178h58v-46h-58v-483l58 5v-25q-28 -5 -80 -20q-19 -6 -47.5 -14t-33.5 -10l-8 6v61q-43 -37 -73 -52t-78 -15q-73 0 -125 61.5t-52 148.5q0 114 74.5 191.5t170.5 77.5q47 0 82 -15v83h-130v46h130v75l-67 24v17q103 35 167 70zM365 83v273q-14 28 -41.5 46
t-57.5 18q-61 0 -88.5 -52t-27.5 -123q0 -82 37.5 -137t95.5 -55q43 0 82 30z" />
    <glyph glyph-name="Emacron" unicode="&#x112;" horiz-adv-x="611" 
d="M19 0v30h14q22 0 36 3t26 16.5t12 37.5v524q0 35 -20 46t-54 11h-14v30q28 0 116 -2t133 -2q44 0 134 2t122 2q-3 -74 2 -153l-30 -8q-2 29 -6.5 46.5t-16.5 35.5t-36.5 26.5t-62.5 8.5h-139v-262h119q42 0 58 21.5t21 66.5h30q-3 -58 -3 -117q0 -57 3 -114l-30 -6
q-2 24 -3.5 34t-6.5 26t-12.5 22t-21.5 11.5t-34 5.5h-120v-233q0 -19 7.5 -32t16.5 -19.5t28 -9.5t32 -3.5t38 -0.5q51 0 79 3t55 15t42.5 37t26.5 67l28 -7q-23 -93 -34 -159q-29 0 -125 2t-144 2q-49 0 -145.5 -2t-120.5 -2zM440 795h-276v50h276v-50z" />
    <glyph glyph-name="emacron" unicode="&#x113;" horiz-adv-x="444" 
d="M408 129l16 -19q-32 -56 -82 -90.5t-110 -34.5q-90 0 -142 69t-52 161q0 99 61.5 174t159.5 75q75 0 117 -49t40 -126l-12 -11h-270q0 -84 39.5 -143.5t115.5 -59.5q71 0 119 54zM136 308h114q42 0 52 5.5t10 31.5q0 31 -19 57t-51 26q-43 0 -70 -34.5t-36 -85.5z
M382 596h-276v50h276v-50z" />
    <glyph glyph-name="Ebreve" unicode="&#x114;" horiz-adv-x="611" 
d="M19 0v30h14q22 0 36 3t26 16.5t12 37.5v524q0 35 -20 46t-54 11h-14v30q28 0 116 -2t133 -2q44 0 134 2t122 2q-3 -74 2 -153l-30 -8q-2 29 -6.5 46.5t-16.5 35.5t-36.5 26.5t-62.5 8.5h-139v-262h119q42 0 58 21.5t21 66.5h30q-3 -58 -3 -117q0 -57 3 -114l-30 -6
q-2 24 -3.5 34t-6.5 26t-12.5 22t-21.5 11.5t-34 5.5h-120v-233q0 -19 7.5 -32t16.5 -19.5t28 -9.5t32 -3.5t38 -0.5q51 0 79 3t55 15t42.5 37t26.5 67l28 -7q-23 -93 -34 -159q-29 0 -125 2t-144 2q-49 0 -145.5 -2t-120.5 -2zM410 904h30q-5 -69 -40.5 -113t-102.5 -44
q-65 0 -104 46t-34 111h30q18 -95 113 -95q43 0 71 26t37 69z" />
    <glyph glyph-name="ebreve" unicode="&#x115;" horiz-adv-x="444" 
d="M408 129l16 -19q-32 -56 -82 -90.5t-110 -34.5q-90 0 -142 69t-52 161q0 99 61.5 174t159.5 75q75 0 117 -49t40 -126l-12 -11h-270q0 -84 39.5 -143.5t115.5 -59.5q71 0 119 54zM136 308h114q42 0 52 5.5t10 31.5q0 31 -19 57t-51 26q-43 0 -70 -34.5t-36 -85.5z
M355 705h30q-5 -69 -40.5 -113t-102.5 -44q-65 0 -104 46t-34 111h30q18 -95 113 -95q43 0 71 26t37 69z" />
    <glyph glyph-name="Edotaccent" unicode="&#x116;" horiz-adv-x="611" 
d="M19 0v30h14q22 0 36 3t26 16.5t12 37.5v524q0 35 -20 46t-54 11h-14v30q28 0 116 -2t133 -2q44 0 134 2t122 2q-3 -74 2 -153l-30 -8q-2 29 -6.5 46.5t-16.5 35.5t-36.5 26.5t-62.5 8.5h-139v-262h119q42 0 58 21.5t21 66.5h30q-3 -58 -3 -117q0 -57 3 -114l-30 -6
q-2 24 -3.5 34t-6.5 26t-12.5 22t-21.5 11.5t-34 5.5h-120v-233q0 -19 7.5 -32t16.5 -19.5t28 -9.5t32 -3.5t38 -0.5q51 0 79 3t55 15t42.5 37t26.5 67l28 -7q-23 -93 -34 -159q-29 0 -125 2t-144 2q-49 0 -145.5 -2t-120.5 -2zM247 822q0 23 16.5 39.5t39.5 16.5
t39.5 -16.5t16.5 -39.5t-16.5 -39.5t-39.5 -16.5t-39.5 16.5t-16.5 39.5z" />
    <glyph glyph-name="edotaccent" unicode="&#x117;" horiz-adv-x="444" 
d="M408 129l16 -19q-32 -56 -82 -90.5t-110 -34.5q-90 0 -142 69t-52 161q0 99 61.5 174t159.5 75q75 0 117 -49t40 -126l-12 -11h-270q0 -84 39.5 -143.5t115.5 -59.5q71 0 119 54zM136 308h114q42 0 52 5.5t10 31.5q0 31 -19 57t-51 26q-43 0 -70 -34.5t-36 -85.5z
M188 623q0 23 16.5 39.5t39.5 16.5t39.5 -16.5t16.5 -39.5t-16.5 -39.5t-39.5 -16.5t-39.5 16.5t-16.5 39.5z" />
    <glyph glyph-name="Eogonek" unicode="&#x118;" horiz-adv-x="611" 
d="M489 -133l20 -10q-31 -68 -109 -68q-81 0 -81 77q0 42 36.5 78.5t73.5 57.5q-96 2 -144 2q-49 0 -145.5 -2t-120.5 -2v30h14q22 0 36 3t26 16.5t12 37.5v524q0 35 -20 46t-54 11h-14v30q28 0 116 -2t133 -2q44 0 134 2t122 2q-3 -74 2 -153l-30 -8q-2 29 -6.5 46.5
t-16.5 35.5t-36.5 26.5t-62.5 8.5h-139v-262h119q42 0 58 21.5t21 66.5h30q-3 -58 -3 -117q0 -57 3 -114l-30 -6q-2 24 -3.5 34t-6.5 26t-12.5 22t-21.5 11.5t-34 5.5h-120v-233q0 -19 7.5 -32t16.5 -19.5t28 -9.5t32 -3.5t38 -0.5q51 0 79 3t55 15t42.5 37t26.5 67l28 -7
q-23 -93 -34 -159q-53 0 -86 1q-79 -69 -79 -126q0 -19 10.5 -30.5t29.5 -11.5q35 0 60 34z" />
    <glyph glyph-name="eogonek" unicode="&#x119;" horiz-adv-x="444" 
d="M310 -133l20 -10q-31 -68 -109 -68q-81 0 -81 77q0 61 84 119q-86 4 -136 72t-50 158q0 99 61.5 174t159.5 75q75 0 117 -49t40 -126l-12 -11h-270q0 -84 39.5 -143.5t115.5 -59.5q71 0 119 54l16 -19q-56 -96 -146 -119q-68 -63 -68 -116q0 -19 10.5 -30.5t29.5 -11.5
q35 0 60 34zM136 308h114q42 0 52 5.5t10 31.5q0 31 -19 57t-51 26q-43 0 -70 -34.5t-36 -85.5z" />
    <glyph glyph-name="Ecaron" unicode="&#x11a;" horiz-adv-x="611" 
d="M19 0v30h14q22 0 36 3t26 16.5t12 37.5v524q0 35 -20 46t-54 11h-14v30q28 0 116 -2t133 -2q44 0 134 2t122 2q-3 -74 2 -153l-30 -8q-2 29 -6.5 46.5t-16.5 35.5t-36.5 26.5t-62.5 8.5h-139v-262h119q42 0 58 21.5t21 66.5h30q-3 -58 -3 -117q0 -57 3 -114l-30 -6
q-2 24 -3.5 34t-6.5 26t-12.5 22t-21.5 11.5t-34 5.5h-120v-233q0 -19 7.5 -32t16.5 -19.5t28 -9.5t32 -3.5t38 -0.5q51 0 79 3t55 15t42.5 37t26.5 67l28 -7q-23 -93 -34 -159q-29 0 -125 2t-144 2q-49 0 -145.5 -2t-120.5 -2zM331 751h-62l-124 167h33l122 -103l121 103
h35z" />
    <glyph glyph-name="ecaron" unicode="&#x11b;" horiz-adv-x="444" 
d="M408 129l16 -19q-32 -56 -82 -90.5t-110 -34.5q-90 0 -142 69t-52 161q0 99 61.5 174t159.5 75q75 0 117 -49t40 -126l-12 -11h-270q0 -84 39.5 -143.5t115.5 -59.5q71 0 119 54zM136 308h114q42 0 52 5.5t10 31.5q0 31 -19 57t-51 26q-43 0 -70 -34.5t-36 -85.5z
M274 552h-62l-124 167h33l122 -103l121 103h35z" />
    <glyph glyph-name="Gcircumflex" unicode="&#x11c;" horiz-adv-x="778" 
d="M710 505l-30 -2q-40 166 -232 166q-129 0 -198 -83.5t-69 -215.5q0 -64 16 -123t47 -109t84.5 -79.5t122.5 -29.5q88 -2 111 19v163q0 51 -76 51h-13v30q100 -4 150 -4q44 0 134 4v-30h-13q-54 0 -54 -51v-152l23 -13v-18q-153 -43 -279 -43q-173 0 -283 99.5t-110 275.5
q0 84 34 152.5t90.5 111.5t127.5 66t148 23q66 0 144 -18q79 -18 113 -19q0 -113 12 -171zM408 918h62l125 -167h-35l-121 103l-122 -103h-33z" />
    <glyph glyph-name="gcircumflex" unicode="&#x11d;" horiz-adv-x="500" 
d="M41 104l87 60q-45 20 -71.5 56.5t-26.5 83.5q0 72 59 116t133 44q69 0 122 -26q12 -6 45 -6h87v-50h-77q16 -37 16 -78q0 -69 -57 -113.5t-132 -44.5q-34 0 -65 9l-24 -20q-1 -18 4.5 -29.5t18.5 -16t23.5 -5.5t29.5 -1q22 0 66 2.5t66 2.5q56 0 93.5 -27t37.5 -81
q0 -55 -25 -97t-65.5 -65t-83.5 -34.5t-86 -11.5q-78 0 -135 27.5t-57 79.5q0 45 26 67.5t92 49.5v2q-52 5 -76.5 30t-24.5 76zM394 -87q0 72 -124 72q-28 0 -52.5 -3.5t-52 -12t-43.5 -27t-16 -45.5q0 -89 128 -89q57 0 108.5 28.5t51.5 76.5zM142 314q0 -28 8 -56.5
t28.5 -52t49.5 -23.5q75 0 75 111q0 29 -6.5 59t-26 56t-49.5 26q-44 0 -61.5 -36t-17.5 -84zM204 719h62l125 -167h-35l-121 103l-122 -103h-33z" />
    <glyph glyph-name="Gbreve" unicode="&#x11e;" horiz-adv-x="778" 
d="M710 505l-30 -2q-40 166 -232 166q-129 0 -198 -83.5t-69 -215.5q0 -64 16 -123t47 -109t84.5 -79.5t122.5 -29.5q88 -2 111 19v163q0 51 -76 51h-13v30q100 -4 150 -4q44 0 134 4v-30h-13q-54 0 -54 -51v-152l23 -13v-18q-153 -43 -279 -43q-173 0 -283 99.5t-110 275.5
q0 84 34 152.5t90.5 111.5t127.5 66t148 23q66 0 144 -18q79 -18 113 -19q0 -113 12 -171zM550 904h30q-5 -69 -40.5 -113t-102.5 -44q-65 0 -104 46t-34 111h30q18 -95 113 -95q43 0 71 26t37 69z" />
    <glyph glyph-name="gbreve" unicode="&#x11f;" horiz-adv-x="500" 
d="M41 104l87 60q-45 20 -71.5 56.5t-26.5 83.5q0 72 59 116t133 44q69 0 122 -26q12 -6 45 -6h87v-50h-77q16 -37 16 -78q0 -69 -57 -113.5t-132 -44.5q-34 0 -65 9l-24 -20q-1 -18 4.5 -29.5t18.5 -16t23.5 -5.5t29.5 -1q22 0 66 2.5t66 2.5q56 0 93.5 -27t37.5 -81
q0 -55 -25 -97t-65.5 -65t-83.5 -34.5t-86 -11.5q-78 0 -135 27.5t-57 79.5q0 45 26 67.5t92 49.5v2q-52 5 -76.5 30t-24.5 76zM394 -87q0 72 -124 72q-28 0 -52.5 -3.5t-52 -12t-43.5 -27t-16 -45.5q0 -89 128 -89q57 0 108.5 28.5t51.5 76.5zM142 314q0 -28 8 -56.5
t28.5 -52t49.5 -23.5q75 0 75 111q0 29 -6.5 59t-26 56t-49.5 26q-44 0 -61.5 -36t-17.5 -84zM346 705h30q-5 -69 -40.5 -113t-102.5 -44q-65 0 -104 46t-34 111h30q18 -95 113 -95q43 0 71 26t37 69z" />
    <glyph glyph-name="Gdotaccent" unicode="&#x120;" horiz-adv-x="778" 
d="M710 505l-30 -2q-40 166 -232 166q-129 0 -198 -83.5t-69 -215.5q0 -64 16 -123t47 -109t84.5 -79.5t122.5 -29.5q88 -2 111 19v163q0 51 -76 51h-13v30q100 -4 150 -4q44 0 134 4v-30h-13q-54 0 -54 -51v-152l23 -13v-18q-153 -43 -279 -43q-173 0 -283 99.5t-110 275.5
q0 84 34 152.5t90.5 111.5t127.5 66t148 23q66 0 144 -18q79 -18 113 -19q0 -113 12 -171zM383 822q0 23 16.5 39.5t39.5 16.5t39.5 -16.5t16.5 -39.5t-16.5 -39.5t-39.5 -16.5t-39.5 16.5t-16.5 39.5z" />
    <glyph glyph-name="gdotaccent" unicode="&#x121;" horiz-adv-x="500" 
d="M41 104l87 60q-45 20 -71.5 56.5t-26.5 83.5q0 72 59 116t133 44q69 0 122 -26q12 -6 45 -6h87v-50h-77q16 -37 16 -78q0 -69 -57 -113.5t-132 -44.5q-34 0 -65 9l-24 -20q-1 -18 4.5 -29.5t18.5 -16t23.5 -5.5t29.5 -1q22 0 66 2.5t66 2.5q56 0 93.5 -27t37.5 -81
q0 -55 -25 -97t-65.5 -65t-83.5 -34.5t-86 -11.5q-78 0 -135 27.5t-57 79.5q0 45 26 67.5t92 49.5v2q-52 5 -76.5 30t-24.5 76zM394 -87q0 72 -124 72q-28 0 -52.5 -3.5t-52 -12t-43.5 -27t-16 -45.5q0 -89 128 -89q57 0 108.5 28.5t51.5 76.5zM142 314q0 -28 8 -56.5
t28.5 -52t49.5 -23.5q75 0 75 111q0 29 -6.5 59t-26 56t-49.5 26q-44 0 -61.5 -36t-17.5 -84zM179 623q0 23 16.5 39.5t39.5 16.5t39.5 -16.5t16.5 -39.5t-16.5 -39.5t-39.5 -16.5t-39.5 16.5t-16.5 39.5z" />
    <glyph glyph-name="Gcommaaccent" unicode="&#x122;" horiz-adv-x="778" 
d="M710 505l-30 -2q-40 166 -232 166q-129 0 -198 -83.5t-69 -215.5q0 -64 16 -123t47 -109t84.5 -79.5t122.5 -29.5q88 -2 111 19v163q0 51 -76 51h-13v30q100 -4 150 -4q44 0 134 4v-30h-13q-54 0 -54 -51v-152l23 -13v-18q-153 -43 -279 -43q-173 0 -283 99.5t-110 275.5
q0 84 34 152.5t90.5 111.5t127.5 66t148 23q66 0 144 -18q79 -18 113 -19q0 -113 12 -171zM399 -228l-14 24q28 5 49.5 19t21.5 33q0 12 -9 15t-29 3q-15 0 -25.5 11.5t-10.5 26.5q0 19 15.5 32t39.5 13q31 0 49 -22t18 -48q0 -41 -30.5 -69t-74.5 -38z" />
    <glyph glyph-name="gcommaaccent" unicode="&#x123;" horiz-adv-x="500" 
d="M41 104l87 60q-45 20 -71.5 56.5t-26.5 83.5q0 72 59 116t133 44q69 0 122 -26q12 -6 45 -6h87v-50h-77q16 -37 16 -78q0 -69 -57 -113.5t-132 -44.5q-34 0 -65 9l-24 -20q-1 -18 4.5 -29.5t18.5 -16t23.5 -5.5t29.5 -1q22 0 66 2.5t66 2.5q56 0 93.5 -27t37.5 -81
q0 -55 -25 -97t-65.5 -65t-83.5 -34.5t-86 -11.5q-78 0 -135 27.5t-57 79.5q0 45 26 67.5t92 49.5v2q-52 5 -76.5 30t-24.5 76zM394 -87q0 72 -124 72q-28 0 -52.5 -3.5t-52 -12t-43.5 -27t-16 -45.5q0 -89 128 -89q57 0 108.5 28.5t51.5 76.5zM142 314q0 -28 8 -56.5
t28.5 -52t49.5 -23.5q75 0 75 111q0 29 -6.5 59t-26 56t-49.5 26q-44 0 -61.5 -36t-17.5 -84zM274 726l14 -24q-28 -5 -49.5 -19t-21.5 -33q0 -12 9 -15t29 -3q15 0 25.5 -11.5t10.5 -26.5q0 -19 -15.5 -32t-39.5 -13q-31 0 -49 22t-18 48q0 41 30.5 69t74.5 38z" />
    <glyph glyph-name="Hcircumflex" unicode="&#x124;" horiz-adv-x="833" 
d="M235 336v-249q0 -19 6.5 -31.5t19.5 -17.5t24 -6.5t28 -1.5h19v-30q-21 0 -77.5 2t-84.5 2q-27 0 -79.5 -2t-71.5 -2v30h14q22 0 36 3t26 16.5t12 37.5v524q0 35 -20 46t-54 11h-14v30q19 0 71.5 -2t79.5 -2q28 0 84.5 2t77.5 2v-30h-19q-17 0 -28 -1.5t-24 -6.5
t-19.5 -17.5t-6.5 -31.5v-219h363v219q0 19 -6.5 31.5t-19.5 17.5t-24 6.5t-28 1.5h-19v30q21 0 77.5 -2t84.5 -2q27 0 79.5 2t71.5 2v-30h-14q-22 0 -36 -3t-26 -16.5t-12 -37.5v-524q0 -35 20 -46t54 -11h14v-30q-19 0 -71.5 2t-79.5 2q-28 0 -84.5 -2t-77.5 -2v30h19
q17 0 28 1.5t24 6.5t19.5 17.5t6.5 31.5v249h-363zM384 918h62l125 -167h-35l-121 103l-122 -103h-33z" />
    <glyph glyph-name="hcircumflex" unicode="&#x125;" 
d="M193 356v-302q0 -16 11.5 -20t36.5 -4h15v-30q-76 4 -114 4q-42 0 -120 -4v30q21 0 30.5 1t19 8t9.5 22v567q0 17 -5 25.5t-21 14.5l-33 13v24q72 17 160 59l11 -9v-364q5 4 22 15.5t25 17t24 15t27.5 14t27 8t30.5 3.5q124 0 124 -129v-277q0 -13 8.5 -19.5t16.5 -7.5
t24 -1h12v-30q-76 4 -113 4q-39 0 -119 -4v30h10q49 0 49 26v250q0 84 -76 84q-39 0 -92 -34zM206 977h62l125 -167h-35l-121 103l-122 -103h-33z" />
    <glyph glyph-name="Hbar" unicode="&#x126;" horiz-adv-x="833" 
d="M235 336v-249q0 -19 6.5 -31.5t19.5 -17.5t24 -6.5t28 -1.5h19v-30q-21 0 -77.5 2t-84.5 2q-27 0 -79.5 -2t-71.5 -2v30h14q22 0 36 3t26 16.5t12 37.5v524q0 35 -20 46t-54 11h-14v30q19 0 71.5 -2t79.5 -2q28 0 84.5 2t77.5 2v-30h-19q-17 0 -28 -1.5t-24 -6.5
t-19.5 -17.5t-6.5 -31.5v-60h363v60q0 19 -6.5 31.5t-19.5 17.5t-24 6.5t-28 1.5h-19v30q21 0 77.5 -2t84.5 -2q27 0 79.5 2t71.5 2v-30h-14q-22 0 -36 -3t-26 -16.5t-12 -37.5v-524q0 -35 20 -46t54 -11h14v-30q-19 0 -71.5 2t-79.5 2q-28 0 -84.5 -2t-77.5 -2v30h19
q17 0 28 1.5t24 6.5t19.5 17.5t6.5 31.5v249h-363zM235 392h363v109h-363v-109z" />
    <glyph glyph-name="hbar" unicode="&#x127;" 
d="M193 356v-302q0 -16 11.5 -20t36.5 -4h15v-30q-76 4 -114 4q-42 0 -120 -4v30q21 0 30.5 1t19 8t9.5 22v471h-58v46h58v50q0 17 -5 25.5t-21 14.5l-33 13v24q72 17 160 59l11 -9v-177h130v-46h-130v-141q5 4 22 15.5t25 17t24 15t27.5 14t27 8t30.5 3.5q124 0 124 -129
v-277q0 -13 8.5 -19.5t16.5 -7.5t24 -1h12v-30q-76 4 -113 4q-39 0 -119 -4v30h10q49 0 49 26v250q0 84 -76 84q-39 0 -92 -34z" />
    <glyph glyph-name="Itilde" unicode="&#x128;" horiz-adv-x="333" 
d="M14 0v30h14q22 0 36 3t26 16.5t12 37.5v524q0 35 -20 46t-54 11h-14v30q18 0 70 -2t78 -2q25 0 79.5 2t77.5 2v-30h-14q-22 0 -36 -3t-26 -16.5t-12 -37.5v-524q0 -35 20 -46t54 -11h14v-30q-24 0 -78.5 2t-79.5 2q-26 0 -77.5 -2t-69.5 -2zM30 775h-29q9 45 32.5 76.5
t63.5 31.5q25 0 79 -22q56 -22 76 -22q40 0 47 45h30q-8 -45 -31 -76t-64 -31q-30 0 -84 24q-56 23 -71 23q-34 0 -49 -49z" />
    <glyph glyph-name="itilde" unicode="&#x129;" horiz-adv-x="278" 
d="M193 455v-401q0 -16 11.5 -20t36.5 -4h15v-30q-76 4 -114 4q-42 0 -120 -4v30h7q19 0 27.5 1t16.5 8t8 21v283q0 13 -4 18.5t-20 9.5q-6 2 -17.5 5.5t-17.5 4.5v24q28 7 91 29q13 5 37 16t32 14zM6 576h-29q9 45 32.5 76.5t63.5 31.5q25 0 79 -22q56 -22 76 -22
q40 0 47 45h30q-8 -45 -31 -76t-64 -31q-30 0 -84 24q-56 23 -71 23q-34 0 -49 -49z" />
    <glyph glyph-name="Imacron" unicode="&#x12a;" horiz-adv-x="333" 
d="M14 0v30h14q22 0 36 3t26 16.5t12 37.5v524q0 35 -20 46t-54 11h-14v30q18 0 70 -2t78 -2q25 0 79.5 2t77.5 2v-30h-14q-22 0 -36 -3t-26 -16.5t-12 -37.5v-524q0 -35 20 -46t54 -11h14v-30q-24 0 -78.5 2t-79.5 2q-26 0 -77.5 -2t-69.5 -2zM303 795h-276v50h276v-50z
" />
    <glyph glyph-name="imacron" unicode="&#x12b;" horiz-adv-x="278" 
d="M193 455v-401q0 -16 11.5 -20t36.5 -4h15v-30q-76 4 -114 4q-42 0 -120 -4v30h7q19 0 27.5 1t16.5 8t8 21v283q0 13 -4 18.5t-20 9.5q-6 2 -17.5 5.5t-17.5 4.5v24q28 7 91 29q13 5 37 16t32 14zM279 596h-276v50h276v-50z" />
    <glyph glyph-name="Ibreve" unicode="&#x12c;" horiz-adv-x="333" 
d="M14 0v30h14q22 0 36 3t26 16.5t12 37.5v524q0 35 -20 46t-54 11h-14v30q18 0 70 -2t78 -2q25 0 79.5 2t77.5 2v-30h-14q-22 0 -36 -3t-26 -16.5t-12 -37.5v-524q0 -35 20 -46t54 -11h14v-30q-24 0 -78.5 2t-79.5 2q-26 0 -77.5 -2t-69.5 -2zM281 904h30
q-5 -69 -40.5 -113t-102.5 -44q-65 0 -104 46t-34 111h30q18 -95 113 -95q43 0 71 26t37 69z" />
    <glyph glyph-name="ibreve" unicode="&#x12d;" horiz-adv-x="278" 
d="M193 455v-401q0 -16 11.5 -20t36.5 -4h15v-30q-76 4 -114 4q-42 0 -120 -4v30h7q19 0 27.5 1t16.5 8t8 21v283q0 13 -4 18.5t-20 9.5q-6 2 -17.5 5.5t-17.5 4.5v24q28 7 91 29q13 5 37 16t32 14zM249 705h30q-5 -69 -40.5 -113t-102.5 -44q-65 0 -104 46t-34 111h30
q18 -95 113 -95q43 0 71 26t37 69z" />
    <glyph glyph-name="Iogonek" unicode="&#x12e;" horiz-adv-x="333" 
d="M231 -133l20 -10q-31 -68 -109 -68q-81 0 -81 77q0 30 24.5 62t46.5 48.5t43 27.5h-14q-26 0 -77.5 -2t-69.5 -2v30h14q22 0 36 3t26 16.5t12 37.5v524q0 35 -20 46t-54 11h-14v30q18 0 70 -2t78 -2q25 0 79.5 2t77.5 2v-30h-14q-22 0 -36 -3t-26 -16.5t-12 -37.5v-524
q0 -35 20 -46t54 -11h14v-30q-14 0 -31.5 0.5t-40 1.5t-34.5 1q-82 -72 -82 -128q0 -19 10.5 -30.5t29.5 -11.5q35 0 60 34z" />
    <glyph glyph-name="iogonek" unicode="&#x12f;" horiz-adv-x="278" 
d="M196 -133l20 -10q-31 -68 -109 -68q-81 0 -81 77q0 30 24.5 62t46.5 48.5t43 27.5q-42 0 -118 -4v30h7q19 0 27.5 1t16.5 8t8 21v283q0 13 -4 18.5t-20 9.5q-6 2 -17.5 5.5t-17.5 4.5v24q28 7 91 29q13 5 37 16t32 14l11 -9v-401q0 -16 11.5 -20t36.5 -4h15v-30
q-9 0 -24.5 1t-28.5 1.5t-25 0.5q-82 -71 -82 -128q0 -19 10.5 -30.5t29.5 -11.5q35 0 60 34zM198 665q0 -25 -18 -43t-43 -18t-43 18t-18 43t18 43t43 18t43 -18t18 -43z" />
    <glyph glyph-name="Idotaccent" unicode="&#x130;" horiz-adv-x="333" 
d="M14 0v30h14q22 0 36 3t26 16.5t12 37.5v524q0 35 -20 46t-54 11h-14v30q18 0 70 -2t78 -2q25 0 79.5 2t77.5 2v-30h-14q-22 0 -36 -3t-26 -16.5t-12 -37.5v-524q0 -35 20 -46t54 -11h14v-30q-24 0 -78.5 2t-79.5 2q-26 0 -77.5 -2t-69.5 -2zM109 822q0 23 16.5 39.5
t39.5 16.5t39.5 -16.5t16.5 -39.5t-16.5 -39.5t-39.5 -16.5t-39.5 16.5t-16.5 39.5z" />
    <glyph glyph-name="dotlessi" unicode="&#x131;" horiz-adv-x="278" 
d="M193 455v-401q0 -16 11.5 -20t36.5 -4h15v-30q-76 4 -114 4q-42 0 -120 -4v30h7q19 0 27.5 1t16.5 8t8 21v283q0 13 -4 18.5t-20 9.5q-6 2 -17.5 5.5t-17.5 4.5v24q28 7 91 29q13 5 37 16t32 14z" />
    <glyph glyph-name="Jcircumflex" unicode="&#x134;" horiz-adv-x="389" 
d="M148 -98v713q0 15 -5 25.5t-11.5 16t-20 8t-22 3t-25.5 0.5h-14v30q21 0 74.5 -2t79.5 -2q27 0 81.5 2t74.5 2v-30h-15q-69 0 -69 -53v-588q0 -93 -60.5 -169t-150.5 -76q-50 0 -83.5 20t-33.5 65q0 22 16 39t43 17q28 0 41.5 -15t15 -33.5t11 -33.5t30.5 -15
q24 0 33.5 24t9.5 52zM173 918h62l125 -167h-35l-121 103l-122 -103h-33z" />
    <glyph glyph-name="jcircumflex" unicode="&#x135;" horiz-adv-x="278" 
d="M193 455v-489q0 -80 -44.5 -121.5t-130.5 -72.5l-7 27q46 18 58 45.5t12 98.5v400q0 13 -4 18.5t-20 9.5q-6 2 -17.5 5.5t-17.5 4.5v24q28 7 91 29q13 5 37 16t32 14zM88 719h62l125 -167h-35l-121 103l-122 -103h-33z" />
    <glyph glyph-name="Kcommaaccent" unicode="&#x136;" horiz-adv-x="722" 
d="M19 0v30h14q22 0 36 3t26 16.5t12 37.5v524q0 35 -20 46t-54 11h-14v30q19 0 71.5 -2t79.5 -2q29 0 84.5 2t74.5 2v-30h-12q-16 0 -26.5 -1t-25 -6t-22.5 -17.5t-8 -32.5v-524q0 -20 8 -32.5t22.5 -17.5t25 -6t26.5 -1h12v-30q-19 0 -74.5 2t-84.5 2q-27 0 -79.5 -2
t-71.5 -2zM425 668v30q21 0 64 -2t64 -2q23 0 67 2t67 2v-30h-13q-78 0 -161 -89l-158 -171l257 -323q38 -55 91 -55v-30q-16 0 -50.5 1t-51.5 1q-16 0 -47.5 -1t-47.5 -1q-16 34 -52 75l-216 270l210 234q44 44 44 68q0 21 -56 21h-11zM329 -228l-14 24q28 5 49.5 19
t21.5 33q0 12 -9 15t-29 3q-15 0 -25.5 11.5t-10.5 26.5q0 19 15.5 32t39.5 13q31 0 49 -22t18 -48q0 -41 -30.5 -69t-74.5 -38z" />
    <glyph glyph-name="kcommaaccent" unicode="&#x137;" 
d="M193 189v-128q0 -15 9.5 -22t19.5 -8t31 -1v-30q-80 4 -119 4q-61 0 -112 -4v30q21 0 30.5 1t19 8t9.5 22v567q0 17 -5 25.5t-21 14.5q-5 2 -16 6.5t-17 6.5v24q72 17 160 59l11 -9v-520q14 0 26 10l121 115q28 28 28 40q0 19 -43 19h-7v30q74 -4 112 -4q33 0 97 4v-30
h-11q-13 0 -27 -3.5t-24 -6.5t-24 -12.5t-21 -14t-22 -18t-19 -17t-19.5 -19.5t-17.5 -18l-36 -35l165 -204q32 -41 66 -41h6v-30q-60 4 -91 4q-25 0 -73 -4q-6 6 -47 61.5t-78.5 101.5t-45.5 46q-15 0 -15 -20zM237 -228l-14 24q28 5 49.5 19t21.5 33q0 12 -9 15t-29 3
q-15 0 -25.5 11.5t-10.5 26.5q0 19 15.5 32t39.5 13q31 0 49 -22t18 -48q0 -41 -30.5 -69t-74.5 -38z" />
    <glyph glyph-name="kgreenlandic" unicode="&#x138;" 
d="M193 189v-128q0 -15 9.5 -22t19.5 -8t31 -1v-30q-80 4 -119 4q-61 0 -112 -4v30q21 0 30.5 1t19 8t9.5 22v267q0 17 -5 25.5t-21 14.5q-5 2 -16 6.5t-17 6.5v24q72 17 160 59l11 -9v-220q14 0 26 10l121 115q28 28 28 40q0 19 -43 19h-7v30q74 -4 112 -4q33 0 97 4v-30
h-11q-13 0 -27 -3.5t-24 -6.5t-24 -12.5t-21 -14t-22 -18t-19 -17t-19.5 -19.5t-17.5 -18l-36 -35l165 -204q32 -41 66 -41h6v-30q-60 4 -91 4q-25 0 -73 -4q-6 6 -47 61.5t-78.5 101.5t-45.5 46q-15 0 -15 -20z" />
    <glyph glyph-name="Lacute" unicode="&#x139;" horiz-adv-x="611" 
d="M240 614v-516q0 -48 60 -56q68 -5 132 2q62 7 96 54q18 25 31 72h29q-6 -32 -19.5 -91t-17.5 -79q-44 0 -132 2t-132 2t-132 -2t-132 -2v30h14q16 0 27 2t23.5 8t18.5 20.5t6 36.5v514q0 35 -20.5 46t-54.5 11h-14v30q27 0 79 -2t79 -2q25 0 76 2t76 2v-30h-25
q-18 0 -27.5 -1t-20.5 -6t-15.5 -16.5t-4.5 -30.5zM113 751h-40l147 148q24 24 41 24q35 0 35 -38q0 -21 -29 -37z" />
    <glyph glyph-name="lacute" unicode="&#x13a;" horiz-adv-x="278" 
d="M81 61v567q0 17 -5 25.5t-21 14.5q-5 2 -16 6.5t-17 6.5v24q72 17 160 59l11 -9v-694q0 -20 13 -25.5t39 -5.5h11v-30q-76 4 -115 4q-45 0 -119 -4v30q21 0 30.5 1t19 8t9.5 22zM82 783h-40l147 148q24 24 41 24q35 0 35 -38q0 -21 -29 -37z" />
    <glyph glyph-name="Lcommaaccent" unicode="&#x13b;" horiz-adv-x="611" 
d="M240 614v-516q0 -48 60 -56q68 -5 132 2q62 7 96 54q18 25 31 72h29q-6 -32 -19.5 -91t-17.5 -79q-44 0 -132 2t-132 2t-132 -2t-132 -2v30h14q16 0 27 2t23.5 8t18.5 20.5t6 36.5v514q0 35 -20.5 46t-54.5 11h-14v30q27 0 79 -2t79 -2q25 0 76 2t76 2v-30h-25
q-18 0 -27.5 -1t-20.5 -6t-15.5 -16.5t-4.5 -30.5zM242 -228l-14 24q28 5 49.5 19t21.5 33q0 12 -9 15t-29 3q-15 0 -25.5 11.5t-10.5 26.5q0 19 15.5 32t39.5 13q31 0 49 -22t18 -48q0 -41 -30.5 -69t-74.5 -38z" />
    <glyph glyph-name="lcommaaccent" unicode="&#x13c;" horiz-adv-x="278" 
d="M81 61v567q0 17 -5 25.5t-21 14.5q-5 2 -16 6.5t-17 6.5v24q72 17 160 59l11 -9v-694q0 -20 13 -25.5t39 -5.5h11v-30q-76 4 -115 4q-45 0 -119 -4v30q21 0 30.5 1t19 8t9.5 22zM99 -228l-14 24q28 5 49.5 19t21.5 33q0 12 -9 15t-29 3q-15 0 -25.5 11.5t-10.5 26.5
q0 19 15.5 32t39.5 13q31 0 49 -22t18 -48q0 -41 -30.5 -69t-74.5 -38z" />
    <glyph glyph-name="Lcaron" unicode="&#x13d;" horiz-adv-x="611" 
d="M240 614v-516q0 -48 60 -56q68 -5 132 2q62 7 96 54q18 25 31 72h29q-6 -32 -19.5 -91t-17.5 -79q-44 0 -132 2t-132 2t-132 -2t-132 -2v30h14q16 0 27 2t23.5 8t18.5 20.5t6 36.5v514q0 35 -20.5 46t-54.5 11h-14v30q27 0 79 -2t79 -2q25 0 76 2t76 2v-30h-25
q-18 0 -27.5 -1t-20.5 -6t-15.5 -16.5t-4.5 -30.5zM428 539h-24l9 140q2 48 39 48q20 0 32 -9t12 -22q0 -18 -13 -43z" />
    <glyph glyph-name="lcaron" unicode="&#x13e;" horiz-adv-x="278" 
d="M81 61v567q0 17 -5 25.5t-21 14.5q-5 2 -16 6.5t-17 6.5v24q72 17 160 59l11 -9v-694q0 -20 13 -25.5t39 -5.5h11v-30q-76 4 -115 4q-45 0 -119 -4v30q21 0 30.5 1t19 8t9.5 22zM286 539h-24l9 140q2 48 39 48q20 0 32 -9t12 -22q0 -18 -13 -43z" />
    <glyph glyph-name="Ldot" unicode="&#x13f;" horiz-adv-x="611" 
d="M240 614v-516q0 -48 60 -56q68 -5 132 2q62 7 96 54q18 25 31 72h29q-6 -32 -19.5 -91t-17.5 -79q-44 0 -132 2t-132 2t-132 -2t-132 -2v30h14q16 0 27 2t23.5 8t18.5 20.5t6 36.5v514q0 35 -20.5 46t-54.5 11h-14v30q27 0 79 -2t79 -2q25 0 76 2t76 2v-30h-25
q-18 0 -27.5 -1t-20.5 -6t-15.5 -16.5t-4.5 -30.5zM388 353q0 23 16.5 39.5t39.5 16.5t39.5 -16.5t16.5 -39.5t-16.5 -39.5t-39.5 -16.5t-39.5 16.5t-16.5 39.5z" />
    <glyph glyph-name="ldot" unicode="&#x140;" horiz-adv-x="389" 
d="M81 61v567q0 17 -5 25.5t-21 14.5q-5 2 -16 6.5t-17 6.5v24q72 17 160 59l11 -9v-694q0 -20 13 -25.5t39 -5.5h11v-30q-76 4 -115 4q-45 0 -119 -4v30q21 0 30.5 1t19 8t9.5 22zM266 353q0 23 16.5 39.5t39.5 16.5t39.5 -16.5t16.5 -39.5t-16.5 -39.5t-39.5 -16.5
t-39.5 16.5t-16.5 39.5z" />
    <glyph glyph-name="Lslash" unicode="&#x141;" horiz-adv-x="611" 
d="M442 576v-57l-202 -138v-283q0 -48 60 -56q68 -5 132 2q62 7 96 54q18 25 31 72h29q-6 -32 -19.5 -91t-17.5 -79q-44 0 -132 2t-132 2t-132 -2t-132 -2v30h14q16 0 27 2t23.5 8t18.5 20.5t6 36.5v196l-80 -55v57l80 55v261q0 35 -20.5 46t-54.5 11h-14v30q27 0 79 -2
t79 -2q25 0 76 2t76 2v-30h-25q-18 0 -27.5 -1t-20.5 -6t-15.5 -16.5t-4.5 -30.5v-176z" />
    <glyph glyph-name="lslash" unicode="&#x142;" horiz-adv-x="278" 
d="M22 0v30q21 0 30.5 1t19 8t9.5 22v277l-81 -53v57l81 53v233q0 17 -5 25.5t-21 14.5q-5 2 -16 6.5t-17 6.5v24q72 17 160 59l11 -9v-288l81 52v-57l-81 -52v-349q0 -20 13 -25.5t39 -5.5h11v-30q-76 4 -115 4q-45 0 -119 -4z" />
    <glyph glyph-name="Nacute" unicode="&#x143;" horiz-adv-x="833" 
d="M218 698l445 -501l2 2v375q0 54 -27 74t-60 20h-22v30q24 0 70 -2t70 -2q20 0 61 2t62 2v-30h-15q-19 0 -32 -3.5t-27.5 -15t-22 -39t-7.5 -69.5v-455q0 -64 6 -101h-38l-515 574v-412q0 -67 19 -92t75 -25h17v-30q-21 0 -64 2t-65 2q-23 0 -68.5 -2t-67.5 -2v30h14
q50 0 70 31.5t20 95.5v421q0 40 -27.5 65t-63.5 25h-13v30q19 0 57.5 -2t57.5 -2q15 0 44.5 2t44.5 2zM384 751h-40l147 148q24 24 41 24q35 0 35 -38q0 -21 -29 -37z" />
    <glyph glyph-name="nacute" unicode="&#x144;" 
d="M21 0v39h12q16 0 24 1t15 6.5t7 17.5v279q0 11 -3.5 15t-16.5 8q-3 1 -9 2.5t-9 2.5q-13 5 -20 6v31q40 10 86 28v-1q1 1 6 3t6 2q7 3 18 8t18 7q22 11 29 14l15 -13v-57q6 3 11 8q29 20 43.5 29.5t42 20t52.5 10.5q127 0 127 -132v-273q0 -11 7.5 -16t14.5 -6t22 -1h16
v-39q-74 4 -116 4q-44 0 -122 -4v39h15q43 0 43 21v247q0 78 -70 78q-36 0 -86 -32v-295q0 -13 10.5 -16t32.5 -3h19v-39q-74 4 -117 4q-47 0 -123 -4zM234 552h-40l147 148q24 24 41 24q35 0 35 -38q0 -21 -29 -37z" />
    <glyph glyph-name="Ncommaaccent" unicode="&#x145;" horiz-adv-x="833" 
d="M218 698l445 -501l2 2v375q0 54 -27 74t-60 20h-22v30q24 0 70 -2t70 -2q20 0 61 2t62 2v-30h-15q-19 0 -32 -3.5t-27.5 -15t-22 -39t-7.5 -69.5v-455q0 -64 6 -101h-38l-515 574v-412q0 -67 19 -92t75 -25h17v-30q-21 0 -64 2t-65 2q-23 0 -68.5 -2t-67.5 -2v30h14
q50 0 70 31.5t20 95.5v421q0 40 -27.5 65t-63.5 25h-13v30q19 0 57.5 -2t57.5 -2q15 0 44.5 2t44.5 2zM389 -228l-14 24q28 5 49.5 19t21.5 33q0 12 -9 15t-29 3q-15 0 -25.5 11.5t-10.5 26.5q0 19 15.5 32t39.5 13q31 0 49 -22t18 -48q0 -41 -30.5 -69t-74.5 -38z" />
    <glyph glyph-name="ncommaaccent" unicode="&#x146;" 
d="M21 0v39h12q16 0 24 1t15 6.5t7 17.5v279q0 11 -3.5 15t-16.5 8q-3 1 -9 2.5t-9 2.5q-13 5 -20 6v31q40 10 86 28v-1q1 1 6 3t6 2q7 3 18 8t18 7q22 11 29 14l15 -13v-57q6 3 11 8q29 20 43.5 29.5t42 20t52.5 10.5q127 0 127 -132v-273q0 -11 7.5 -16t14.5 -6t22 -1h16
v-39q-74 4 -116 4q-44 0 -122 -4v39h15q43 0 43 21v247q0 78 -70 78q-36 0 -86 -32v-295q0 -13 10.5 -16t32.5 -3h19v-39q-74 4 -117 4q-47 0 -123 -4zM235 -228l-14 24q28 5 49.5 19t21.5 33q0 12 -9 15t-29 3q-15 0 -25.5 11.5t-10.5 26.5q0 19 15.5 32t39.5 13
q31 0 49 -22t18 -48q0 -41 -30.5 -69t-74.5 -38z" />
    <glyph glyph-name="Ncaron" unicode="&#x147;" horiz-adv-x="833" 
d="M218 698l445 -501l2 2v375q0 54 -27 74t-60 20h-22v30q24 0 70 -2t70 -2q20 0 61 2t62 2v-30h-15q-19 0 -32 -3.5t-27.5 -15t-22 -39t-7.5 -69.5v-455q0 -64 6 -101h-38l-515 574v-412q0 -67 19 -92t75 -25h17v-30q-21 0 -64 2t-65 2q-23 0 -68.5 -2t-67.5 -2v30h14
q50 0 70 31.5t20 95.5v421q0 40 -27.5 65t-63.5 25h-13v30q19 0 57.5 -2t57.5 -2q15 0 44.5 2t44.5 2zM447 751h-62l-124 167h33l122 -103l121 103h35z" />
    <glyph glyph-name="ncaron" unicode="&#x148;" 
d="M21 0v39h12q16 0 24 1t15 6.5t7 17.5v279q0 11 -3.5 15t-16.5 8q-3 1 -9 2.5t-9 2.5q-13 5 -20 6v31q40 10 86 28v-1q1 1 6 3t6 2q7 3 18 8t18 7q22 11 29 14l15 -13v-57q6 3 11 8q29 20 43.5 29.5t42 20t52.5 10.5q127 0 127 -132v-273q0 -11 7.5 -16t14.5 -6t22 -1h16
v-39q-74 4 -116 4q-44 0 -122 -4v39h15q43 0 43 21v247q0 78 -70 78q-36 0 -86 -32v-295q0 -13 10.5 -16t32.5 -3h19v-39q-74 4 -117 4q-47 0 -123 -4zM310 552h-62l-124 167h33l122 -103l121 103h35z" />
    <glyph glyph-name="Eng" unicode="&#x14a;" horiz-adv-x="829" 
d="M641 43q-245 270 -454 501v-349q0 -100 20 -128t98 -28v-37h-138q-50 0 -138 -2v39q29 0 43 2t31.5 12.5t24.5 35.5t7 68v394q0 59 -28.5 83.5t-92.5 24.5v39h181q38 -55 141 -165q9 -9 29.5 -31.5t25.5 -27.5q15 -16 50 -51q7 -8 20 -22.5t19 -21.5q14 -17 41 -47.5
t36 -40.5q11 -13 35 -39q64 -74 68 -79v374q0 67 -19 89t-90 23v39q72 -2 118 -2q15 0 24 2h122v-39q-26 0 -40.5 -2.5t-28.5 -11t-19.5 -28t-5.5 -52.5v-479q0 -64 -6.5 -106.5t-14.5 -61t-25 -48.5q-48 -83 -138 -83q-42 0 -72.5 17t-30.5 50q0 21 13 33t29 11
q13 0 22.5 -9.5t9.5 -26.5q0 -20 15.5 -31.5t38.5 -11.5q19 0 33 10t22.5 31t13.5 40t7 50t2.5 48t0.5 45z" />
    <glyph glyph-name="eng" unicode="&#x14b;" horiz-adv-x="480" 
d="M367 318v-348q0 -33 -2 -55.5t-8.5 -46.5t-21 -36.5t-37.5 -12.5t-38.5 11.5t-15.5 31.5q0 17 -9.5 26.5t-22.5 9.5h-2q-16 0 -28 -12t-12 -32q0 -33 30.5 -50t72.5 -17q46 0 83 23t58 60q17 30 25 48.5t14.5 61t6.5 106.5v231q0 66 -29 105t-91 39q-44 0 -81 -16.5
t-82 -49.5v50q0 16 -16 16q-32 -14 -114 -41l-8 -3l-11 -2v-32q35 -14 46 -24.5t11 -34.5v-259q0 -18 -9.5 -22t-30.5 -4h-25v-39h224v39h-25q-15 0 -22 1t-13.5 7t-6.5 18v287q61 43 107 43q83 0 83 -77z" />
    <glyph glyph-name="Omacron" unicode="&#x14c;" horiz-adv-x="834" 
d="M41 344q0 156 106.5 262.5t262.5 106.5q164 0 273.5 -94.5t109.5 -250.5q0 -170 -108 -276.5t-270 -106.5q-161 0 -267.5 100t-106.5 259zM181 379q0 -144 64.5 -247t179.5 -103q228 0 228 317q0 57 -15.5 112.5t-44.5 103.5t-77 77.5t-108 29.5q-63 0 -109 -26
t-70.5 -69.5t-36 -92t-11.5 -102.5zM557 795h-276v50h276v-50z" />
    <glyph glyph-name="omacron" unicode="&#x14d;" 
d="M38 225q0 102 67.5 170.5t171.5 68.5q109 0 175 -64t66 -169q0 -102 -70 -174t-171 -72q-105 0 -172 68t-67 172zM275 428q-115 0 -115 -206q0 -35 6 -67.5t19 -64t38.5 -50.5t59.5 -19q113 0 113 186q0 31 -5.5 65.5t-18 71.5t-38 60.5t-59.5 23.5zM417 596h-276v50h276
v-50z" />
    <glyph glyph-name="Obreve" unicode="&#x14e;" horiz-adv-x="834" 
d="M41 344q0 156 106.5 262.5t262.5 106.5q164 0 273.5 -94.5t109.5 -250.5q0 -170 -108 -276.5t-270 -106.5q-161 0 -267.5 100t-106.5 259zM181 379q0 -144 64.5 -247t179.5 -103q228 0 228 317q0 57 -15.5 112.5t-44.5 103.5t-77 77.5t-108 29.5q-63 0 -109 -26
t-70.5 -69.5t-36 -92t-11.5 -102.5zM530 904h30q-5 -69 -40.5 -113t-102.5 -44q-65 0 -104 46t-34 111h30q18 -95 113 -95q43 0 71 26t37 69z" />
    <glyph glyph-name="obreve" unicode="&#x14f;" 
d="M38 225q0 102 67.5 170.5t171.5 68.5q109 0 175 -64t66 -169q0 -102 -70 -174t-171 -72q-105 0 -172 68t-67 172zM275 428q-115 0 -115 -206q0 -35 6 -67.5t19 -64t38.5 -50.5t59.5 -19q113 0 113 186q0 31 -5.5 65.5t-18 71.5t-38 60.5t-59.5 23.5zM390 705h30
q-5 -69 -40.5 -113t-102.5 -44q-65 0 -104 46t-34 111h30q18 -95 113 -95q43 0 71 26t37 69z" />
    <glyph glyph-name="Ohungarumlaut" unicode="&#x150;" horiz-adv-x="834" 
d="M41 344q0 156 106.5 262.5t262.5 106.5q164 0 273.5 -94.5t109.5 -250.5q0 -170 -108 -276.5t-270 -106.5q-161 0 -267.5 100t-106.5 259zM181 379q0 -144 64.5 -247t179.5 -103q228 0 228 317q0 57 -15.5 112.5t-44.5 103.5t-77 77.5t-108 29.5q-63 0 -109 -26
t-70.5 -69.5t-36 -92t-11.5 -102.5zM339 751h-40l147 148q24 24 41 24q35 0 35 -38q0 -21 -29 -37zM541 752h-40l147 148q24 24 41 24q35 0 35 -38q0 -21 -29 -37z" />
    <glyph glyph-name="ohungarumlaut" unicode="&#x151;" 
d="M38 225q0 102 67.5 170.5t171.5 68.5q109 0 175 -64t66 -169q0 -102 -70 -174t-171 -72q-105 0 -172 68t-67 172zM275 428q-115 0 -115 -206q0 -35 6 -67.5t19 -64t38.5 -50.5t59.5 -19q113 0 113 186q0 31 -5.5 65.5t-18 71.5t-38 60.5t-59.5 23.5zM191 552h-40l147 148
q24 24 41 24q35 0 35 -38q0 -21 -29 -37zM393 553h-40l147 148q24 24 41 24q35 0 35 -38q0 -21 -29 -37z" />
    <glyph glyph-name="OE" unicode="&#x152;" horiz-adv-x="1000" 
d="M644 654v-262h131q30 0 44 28t14 61h32q-3 -131 -1 -224l-29 -6q0 91 -61 91h-130v-222q0 -47 21 -58.5t74 -11.5h93q16 0 29.5 3.5t22.5 7t18 13.5t13.5 14.5t11.5 19.5t8 18.5t7.5 22t6.5 19.5l28 -5q-25 -125 -31 -163q-31 0 -130.5 2t-153.5 2q-77 0 -138 -4
q-6 0 -66 -9q-56 -6 -91 -6q-96 0 -174 51.5t-119.5 134t-41.5 177.5q0 163 105.5 264t269.5 101q33 0 93.5 -7t87.5 -8q56 -2 169 -2q77 0 171 2q-1 -47 3 -141l-31 -6q-3 57 -28.5 80t-82.5 23h-145zM516 110v438q0 74 -22 97.5t-94 23.5q-60 0 -105.5 -26t-71.5 -70.5
t-38.5 -96.5t-12.5 -110q0 -60 11.5 -116t36 -107.5t69.5 -82.5t106 -31q121 0 121 81z" />
    <glyph glyph-name="oe" unicode="&#x153;" horiz-adv-x="778" 
d="M741 278h-262q0 -203 147 -203q61 0 121 57l15 -16q-33 -58 -79.5 -94.5t-100.5 -36.5q-98 0 -150 81q-60 -81 -172 -81q-104 0 -163 69t-59 174q0 99 68.5 167.5t166.5 68.5q109 0 169 -79q77 79 163 79q64 0 109 -37.5t45 -100.5q0 -27 -3 -36zM373 221q0 33 -4 63.5
t-14 66t-33.5 56.5t-57.5 21q-104 -4 -104 -194q0 -31 3.5 -61.5t13.5 -68t33 -60.5t57 -23q106 0 106 200zM577 426q-40 0 -68 -36t-30 -82h152q15 0 18.5 8t3.5 32q0 33 -20.5 55.5t-55.5 22.5z" />
    <glyph glyph-name="Racute" unicode="&#x154;" horiz-adv-x="722" 
d="M112 84v508q0 26 -6 42.5t-18.5 23t-22 8.5t-24.5 2h-18v30q12 0 66.5 -2t88.5 -2q31 0 83 2t78 2q238 0 238 -176q0 -121 -139 -176l171 -256q21 -31 40.5 -43t56.5 -17v-30q-16 0 -49 2t-49 2t-47 -2t-47 -2q-96 126 -208 324h-66v-214q0 -28 5.5 -45t18.5 -24t25 -9
t33 -2h18v-30q-28 0 -86 2t-86 2q-24 0 -72 -2t-73 -2v30h18q30 0 50.5 14t20.5 40zM240 658v-298h49q78 0 116 35.5t38 120.5q0 67 -39.5 106.5t-106.5 39.5q-1 0 -57 -4zM275 751h-40l147 148q24 24 41 24q35 0 35 -38q0 -21 -29 -37z" />
    <glyph glyph-name="racute" unicode="&#x155;" horiz-adv-x="389" 
d="M193 316v-263q0 -16 16 -19.5t58 -3.5h15v-30q-16 0 -65 2t-76 2q-24 0 -67.5 -2t-57.5 -2v30h10q28 0 41.5 5.5t13.5 20.5v272q0 25 -6 34.5t-25 12.5q-5 1 -15.5 3t-16.5 3v24q59 11 164 59l11 -6v-69h2q17 27 48.5 51t66.5 24q28 0 46 -14.5t18 -44.5q0 -28 -16 -43.5
t-40 -15.5q-20 0 -38 19t-32 19q-21 0 -38 -17t-17 -51zM122 552h-40l147 148q24 24 41 24q35 0 35 -38q0 -21 -29 -37z" />
    <glyph glyph-name="Rcommaaccent" unicode="&#x156;" horiz-adv-x="722" 
d="M112 84v508q0 26 -6 42.5t-18.5 23t-22 8.5t-24.5 2h-18v30q12 0 66.5 -2t88.5 -2q31 0 83 2t78 2q238 0 238 -176q0 -121 -139 -176l171 -256q21 -31 40.5 -43t56.5 -17v-30q-16 0 -49 2t-49 2t-47 -2t-47 -2q-96 126 -208 324h-66v-214q0 -28 5.5 -45t18.5 -24t25 -9
t33 -2h18v-30q-28 0 -86 2t-86 2q-24 0 -72 -2t-73 -2v30h18q30 0 50.5 14t20.5 40zM240 658v-298h49q78 0 116 35.5t38 120.5q0 67 -39.5 106.5t-106.5 39.5q-1 0 -57 -4zM312 -228l-14 24q28 5 49.5 19t21.5 33q0 12 -9 15t-29 3q-15 0 -25.5 11.5t-10.5 26.5
q0 19 15.5 32t39.5 13q31 0 49 -22t18 -48q0 -41 -30.5 -69t-74.5 -38z" />
    <glyph glyph-name="rcommaaccent" unicode="&#x157;" horiz-adv-x="389" 
d="M193 316v-263q0 -16 16 -19.5t58 -3.5h15v-30q-16 0 -65 2t-76 2q-24 0 -67.5 -2t-57.5 -2v30h10q28 0 41.5 5.5t13.5 20.5v272q0 25 -6 34.5t-25 12.5q-5 1 -15.5 3t-16.5 3v24q59 11 164 59l11 -6v-69h2q17 27 48.5 51t66.5 24q28 0 46 -14.5t18 -44.5q0 -28 -16 -43.5
t-40 -15.5q-20 0 -38 19t-32 19q-21 0 -38 -17t-17 -51zM104 -228l-14 24q28 5 49.5 19t21.5 33q0 12 -9 15t-29 3q-15 0 -25.5 11.5t-10.5 26.5q0 19 15.5 32t39.5 13q31 0 49 -22t18 -48q0 -41 -30.5 -69t-74.5 -38z" />
    <glyph glyph-name="Rcaron" unicode="&#x158;" horiz-adv-x="722" 
d="M112 84v508q0 26 -6 42.5t-18.5 23t-22 8.5t-24.5 2h-18v30q12 0 66.5 -2t88.5 -2q31 0 83 2t78 2q238 0 238 -176q0 -121 -139 -176l171 -256q21 -31 40.5 -43t56.5 -17v-30q-16 0 -49 2t-49 2t-47 -2t-47 -2q-96 126 -208 324h-66v-214q0 -28 5.5 -45t18.5 -24t25 -9
t33 -2h18v-30q-28 0 -86 2t-86 2q-24 0 -72 -2t-73 -2v30h18q30 0 50.5 14t20.5 40zM240 658v-298h49q78 0 116 35.5t38 120.5q0 67 -39.5 106.5t-106.5 39.5q-1 0 -57 -4zM336 751h-62l-124 167h33l122 -103l121 103h35z" />
    <glyph glyph-name="rcaron" unicode="&#x159;" horiz-adv-x="389" 
d="M193 316v-263q0 -16 16 -19.5t58 -3.5h15v-30q-16 0 -65 2t-76 2q-24 0 -67.5 -2t-57.5 -2v30h10q28 0 41.5 5.5t13.5 20.5v272q0 25 -6 34.5t-25 12.5q-5 1 -15.5 3t-16.5 3v24q59 11 164 59l11 -6v-69h2q17 27 48.5 51t66.5 24q28 0 46 -14.5t18 -44.5q0 -28 -16 -43.5
t-40 -15.5q-20 0 -38 19t-32 19q-21 0 -38 -17t-17 -51zM185 552h-62l-124 167h33l122 -103l121 103h35z" />
    <glyph glyph-name="Sacute" unicode="&#x15a;" horiz-adv-x="500" 
d="M428 555l-28 -5q-6 52 -37.5 89.5t-80.5 37.5q-59 0 -91 -33t-32 -93q0 -45 31 -76.5t75 -52.5t88 -45t75 -70t31 -112q0 -99 -70 -154.5t-172 -55.5q-71 0 -159 45q-3 26 -8.5 76t-8.5 76l28 6q10 -69 49 -114t106 -45q53 0 88 31t35 83q0 48 -30.5 81.5t-73.5 54.5
t-86 45t-73.5 69.5t-30.5 112.5q0 96 61 151.5t160 55.5q28 0 144 -15q0 -63 10 -143zM224 751h-40l147 148q24 24 41 24q35 0 35 -38q0 -21 -29 -37z" />
    <glyph glyph-name="sacute" unicode="&#x15b;" horiz-adv-x="389" 
d="M322 334l-28 -5q-9 99 -90 99q-27 0 -47.5 -16t-20.5 -44q0 -30 21.5 -51.5t51.5 -36t60.5 -30.5t52 -46t21.5 -72q0 -75 -49.5 -111t-120.5 -36q-44 0 -118 26l-9 111l28 6q5 -45 30.5 -76t67.5 -31q31 0 53 17.5t22 48.5q0 22 -15 40t-37 29t-48.5 26t-48.5 31t-37 44
t-15 64q0 65 45 104t115 39q53 0 118 -24q-5 -66 -2 -106zM153 552h-40l147 148q24 24 41 24q35 0 35 -38q0 -21 -29 -37z" />
    <glyph glyph-name="Scircumflex" unicode="&#x15c;" horiz-adv-x="500" 
d="M428 555l-28 -5q-6 52 -37.5 89.5t-80.5 37.5q-59 0 -91 -33t-32 -93q0 -45 31 -76.5t75 -52.5t88 -45t75 -70t31 -112q0 -99 -70 -154.5t-172 -55.5q-71 0 -159 45q-3 26 -8.5 76t-8.5 76l28 6q10 -69 49 -114t106 -45q53 0 88 31t35 83q0 48 -30.5 81.5t-73.5 54.5
t-86 45t-73.5 69.5t-30.5 112.5q0 96 61 151.5t160 55.5q28 0 144 -15q0 -63 10 -143zM220 918h62l125 -167h-35l-121 103l-122 -103h-33z" />
    <glyph glyph-name="scircumflex" unicode="&#x15d;" horiz-adv-x="389" 
d="M322 334l-28 -5q-9 99 -90 99q-27 0 -47.5 -16t-20.5 -44q0 -30 21.5 -51.5t51.5 -36t60.5 -30.5t52 -46t21.5 -72q0 -75 -49.5 -111t-120.5 -36q-44 0 -118 26l-9 111l28 6q5 -45 30.5 -76t67.5 -31q31 0 53 17.5t22 48.5q0 22 -15 40t-37 29t-48.5 26t-48.5 31t-37 44
t-15 64q0 65 45 104t115 39q53 0 118 -24q-5 -66 -2 -106zM166 719h62l125 -167h-35l-121 103l-122 -103h-33z" />
    <glyph glyph-name="Scedilla" unicode="&#x15e;" horiz-adv-x="500" 
d="M428 555l-28 -5q-6 52 -37.5 89.5t-80.5 37.5q-59 0 -91 -33t-32 -93q0 -45 31 -76.5t75 -52.5t88 -45t75 -70t31 -112q0 -88 -56.5 -142t-143.5 -65l-20 -54q14 3 29 3q37 0 60.5 -17.5t23.5 -50.5q0 -85 -130 -85q-42 0 -79 17l13 31q48 -12 62 -12q58 0 58 46
q0 17 -14.5 26t-30.5 9q-18 0 -36 -5l-7 5l35 84h-6q-71 0 -159 45q-3 26 -8.5 76t-8.5 76l28 6q10 -69 49 -114t106 -45q53 0 88 31t35 83q0 48 -30.5 81.5t-73.5 54.5t-86 45t-73.5 69.5t-30.5 112.5q0 96 61 151.5t160 55.5q28 0 144 -15q0 -63 10 -143z" />
    <glyph glyph-name="scedilla" unicode="&#x15f;" horiz-adv-x="389" 
d="M322 334l-28 -5q-9 99 -90 99q-27 0 -47.5 -16t-20.5 -44q0 -30 21.5 -51.5t51.5 -36t60.5 -30.5t52 -46t21.5 -72q0 -66 -38.5 -101.5t-97.5 -43.5l-20 -53q13 3 29 3q37 0 60.5 -17.5t23.5 -50.5q0 -85 -130 -85q-42 0 -79 17l13 31q48 -12 62 -12q58 0 58 46
q0 17 -14.5 26t-30.5 9q-18 0 -36 -5l-7 5l35 84q-47 1 -116 26l-9 111l28 6q5 -45 30.5 -76t67.5 -31q31 0 53 17.5t22 48.5q0 22 -15 40t-37 29t-48.5 26t-48.5 31t-37 44t-15 64q0 65 45 104t115 39q53 0 118 -24q-5 -66 -2 -106z" />
    <glyph glyph-name="Scaron" unicode="&#x160;" horiz-adv-x="500" 
d="M428 555l-28 -5q-6 52 -37.5 89.5t-80.5 37.5q-59 0 -91 -33t-32 -93q0 -45 31 -76.5t75 -52.5t88 -45t75 -70t31 -112q0 -99 -70 -154.5t-172 -55.5q-71 0 -159 45q-3 26 -8.5 76t-8.5 76l28 6q10 -69 49 -114t106 -45q53 0 88 31t35 83q0 48 -30.5 81.5t-73.5 54.5
t-86 45t-73.5 69.5t-30.5 112.5q0 96 61 151.5t160 55.5q28 0 144 -15q0 -63 10 -143zM288 751h-62l-124 167h33l122 -103l121 103h35z" />
    <glyph glyph-name="scaron" unicode="&#x161;" horiz-adv-x="389" 
d="M322 334l-28 -5q-9 99 -90 99q-27 0 -47.5 -16t-20.5 -44q0 -30 21.5 -51.5t51.5 -36t60.5 -30.5t52 -46t21.5 -72q0 -75 -49.5 -111t-120.5 -36q-44 0 -118 26l-9 111l28 6q5 -45 30.5 -76t67.5 -31q31 0 53 17.5t22 48.5q0 22 -15 40t-37 29t-48.5 26t-48.5 31t-37 44
t-15 64q0 65 45 104t115 39q53 0 118 -24q-5 -66 -2 -106zM226 552h-62l-124 167h33l122 -103l121 103h35z" />
    <glyph glyph-name="Tcommaaccent" unicode="&#x162;" horiz-adv-x="722" 
d="M300 648h-164q-53 0 -67 -15.5t-26 -75.5h-30q12 81 12 85q6 42 6 85h24q3 -11 8.5 -17t15.5 -8.5t16 -3t20 -0.5h516q17 0 26.5 1.5t18 8.5t9.5 21l24 -4q-8 -54 -11 -81q-2 -27 -2 -81l-30 -11q-1 26 -4.5 43t-21 35t-48.5 18h-164v-532q0 -53 20.5 -69.5t62.5 -16.5
h19v-30q-18 0 -76 2t-87 2q-33 0 -92.5 -2t-76.5 -2v30h19q47 0 65 14.5t18 69.5v534zM319 -228l-14 24q28 5 49.5 19t21.5 33q0 12 -9 15t-29 3q-15 0 -25.5 11.5t-10.5 26.5q0 19 15.5 32t39.5 13q31 0 49 -22t18 -48q0 -41 -30.5 -69t-74.5 -38z" />
    <glyph glyph-name="tcommaaccent" unicode="&#x163;" horiz-adv-x="333" 
d="M312 449v-56h-119v-274q0 -54 53 -54q30 0 59 18l13 -17q-62 -81 -136 -81q-53 0 -77 28.5t-24 74.5v305h-60v24q82 44 160 143l12 -6v-105h119zM125 -228l-14 24q28 5 49.5 19t21.5 33q0 12 -9 15t-29 3q-15 0 -25.5 11.5t-10.5 26.5q0 19 15.5 32t39.5 13q31 0 49 -22
t18 -48q0 -41 -30.5 -69t-74.5 -38z" />
    <glyph glyph-name="Tcaron" unicode="&#x164;" horiz-adv-x="722" 
d="M300 648h-164q-53 0 -67 -15.5t-26 -75.5h-30q12 81 12 85q6 42 6 85h24q3 -11 8.5 -17t15.5 -8.5t16 -3t20 -0.5h516q17 0 26.5 1.5t18 8.5t9.5 21l24 -4q-8 -54 -11 -81q-2 -27 -2 -81l-30 -11q-1 26 -4.5 43t-21 35t-48.5 18h-164v-532q0 -53 20.5 -69.5t62.5 -16.5
h19v-30q-18 0 -76 2t-87 2q-33 0 -92.5 -2t-76.5 -2v30h19q47 0 65 14.5t18 69.5v534zM392 751h-62l-124 167h33l122 -103l121 103h35z" />
    <glyph glyph-name="tcaron" unicode="&#x165;" horiz-adv-x="333" 
d="M312 449v-56h-119v-274q0 -54 53 -54q30 0 59 18l13 -17q-62 -81 -136 -81q-53 0 -77 28.5t-24 74.5v305h-60v24q82 44 160 143l12 -6v-105h119zM286 539h-24l9 140q2 48 39 48q20 0 32 -9t12 -22q0 -18 -13 -43z" />
    <glyph glyph-name="Tbar" unicode="&#x166;" horiz-adv-x="722" 
d="M562 398h-134v-282q0 -53 20.5 -69.5t62.5 -16.5h19v-30q-18 0 -76 2t-87 2q-33 0 -92.5 -2t-76.5 -2v30h19q47 0 65 14.5t18 69.5v284h-134v50h134v200h-164q-53 0 -67 -15.5t-26 -75.5h-30q12 81 12 85q6 42 6 85h24q3 -11 8.5 -17t15.5 -8.5t16 -3t20 -0.5h516
q17 0 26.5 1.5t18 8.5t9.5 21l24 -4q-8 -54 -11 -81q-2 -27 -2 -81l-30 -11q-1 26 -4.5 43t-21 35t-48.5 18h-164v-200h134v-50z" />
    <glyph glyph-name="tbar" unicode="&#x167;" horiz-adv-x="333" 
d="M310 271h-117v-152q0 -54 53 -54q30 0 59 18l13 -17q-62 -81 -136 -81q-53 0 -77 28.5t-24 74.5v183h-52v50h52v72h-60v24q82 44 160 143l12 -6v-105h119v-56h-119v-72h117v-50z" />
    <glyph glyph-name="Utilde" unicode="&#x168;" horiz-adv-x="778" 
d="M107 234v361q0 26 -5.5 41.5t-18.5 22t-23.5 8t-29.5 1.5h-12v30q19 0 72 -2t87 -2q33 0 83 2t67 2v-30h-12q-20 0 -30.5 -1.5t-24 -8t-19.5 -22t-6 -41.5v-345q0 -215 190 -215q96 0 143 57t47 162v341q0 26 -6 41.5t-18 22t-21.5 8t-26.5 1.5h-20v30q20 0 60.5 -2
t60.5 -2t58 2t58 2v-30h-21q-14 0 -22 -1.5t-19.5 -7.5t-17 -22.5t-5.5 -41.5v-319q0 -291 -269 -291q-148 0 -223.5 59t-75.5 190zM271 775h-29q9 45 32.5 76.5t63.5 31.5q25 0 79 -22q56 -22 76 -22q40 0 47 45h30q-8 -45 -31 -76t-64 -31q-30 0 -84 24q-56 23 -71 23
q-34 0 -49 -49z" />
    <glyph glyph-name="utilde" unicode="&#x169;" 
d="M81 102v271q0 12 -4 17t-17 9l-42 12v24q98 5 170 29l10 -6q-5 -70 -5 -90v-221q0 -82 74 -82q43 0 94 42v256q0 15 -4.5 21t-19.5 11l-50 16v24q128 8 181 29l10 -6q-5 -35 -5 -90v-286q0 -20 5.5 -28t21.5 -8h30v-24q-119 -21 -159 -37l-10 8v71q-94 -79 -158 -79
q-122 0 -122 117zM142 576h-29q9 45 32.5 76.5t63.5 31.5q25 0 79 -22q56 -22 76 -22q40 0 47 45h30q-8 -45 -31 -76t-64 -31q-30 0 -84 24q-56 23 -71 23q-34 0 -49 -49z" />
    <glyph glyph-name="Umacron" unicode="&#x16a;" horiz-adv-x="778" 
d="M107 234v361q0 26 -5.5 41.5t-18.5 22t-23.5 8t-29.5 1.5h-12v30q19 0 72 -2t87 -2q33 0 83 2t67 2v-30h-12q-20 0 -30.5 -1.5t-24 -8t-19.5 -22t-6 -41.5v-345q0 -215 190 -215q96 0 143 57t47 162v341q0 26 -6 41.5t-18 22t-21.5 8t-26.5 1.5h-20v30q20 0 60.5 -2
t60.5 -2t58 2t58 2v-30h-21q-14 0 -22 -1.5t-19.5 -7.5t-17 -22.5t-5.5 -41.5v-319q0 -291 -269 -291q-148 0 -223.5 59t-75.5 190zM544 795h-276v50h276v-50z" />
    <glyph glyph-name="umacron" unicode="&#x16b;" 
d="M81 102v271q0 12 -4 17t-17 9l-42 12v24q98 5 170 29l10 -6q-5 -70 -5 -90v-221q0 -82 74 -82q43 0 94 42v256q0 15 -4.5 21t-19.5 11l-50 16v24q128 8 181 29l10 -6q-5 -35 -5 -90v-286q0 -20 5.5 -28t21.5 -8h30v-24q-119 -21 -159 -37l-10 8v71q-94 -79 -158 -79
q-122 0 -122 117zM415 596h-276v50h276v-50z" />
    <glyph glyph-name="Ubreve" unicode="&#x16c;" horiz-adv-x="778" 
d="M107 234v361q0 26 -5.5 41.5t-18.5 22t-23.5 8t-29.5 1.5h-12v30q19 0 72 -2t87 -2q33 0 83 2t67 2v-30h-12q-20 0 -30.5 -1.5t-24 -8t-19.5 -22t-6 -41.5v-345q0 -215 190 -215q96 0 143 57t47 162v341q0 26 -6 41.5t-18 22t-21.5 8t-26.5 1.5h-20v30q20 0 60.5 -2
t60.5 -2t58 2t58 2v-30h-21q-14 0 -22 -1.5t-19.5 -7.5t-17 -22.5t-5.5 -41.5v-319q0 -291 -269 -291q-148 0 -223.5 59t-75.5 190zM517 904h30q-5 -69 -40.5 -113t-102.5 -44q-65 0 -104 46t-34 111h30q18 -95 113 -95q43 0 71 26t37 69z" />
    <glyph glyph-name="ubreve" unicode="&#x16d;" 
d="M81 102v271q0 12 -4 17t-17 9l-42 12v24q98 5 170 29l10 -6q-5 -70 -5 -90v-221q0 -82 74 -82q43 0 94 42v256q0 15 -4.5 21t-19.5 11l-50 16v24q128 8 181 29l10 -6q-5 -35 -5 -90v-286q0 -20 5.5 -28t21.5 -8h30v-24q-119 -21 -159 -37l-10 8v71q-94 -79 -158 -79
q-122 0 -122 117zM388 705h30q-5 -69 -40.5 -113t-102.5 -44q-65 0 -104 46t-34 111h30q18 -95 113 -95q43 0 71 26t37 69z" />
    <glyph glyph-name="Uring" unicode="&#x16e;" horiz-adv-x="778" 
d="M107 234v361q0 26 -5.5 41.5t-18.5 22t-23.5 8t-29.5 1.5h-12v30q19 0 72 -2t87 -2q33 0 83 2t67 2v-30h-12q-20 0 -30.5 -1.5t-24 -8t-19.5 -22t-6 -41.5v-345q0 -215 190 -215q96 0 143 57t47 162v341q0 26 -6 41.5t-18 22t-21.5 8t-26.5 1.5h-20v30q20 0 60.5 -2
t60.5 -2t58 2t58 2v-30h-21q-14 0 -22 -1.5t-19.5 -7.5t-17 -22.5t-5.5 -41.5v-319q0 -291 -269 -291q-148 0 -223.5 59t-75.5 190zM514 832q0 -40 -28 -68.5t-69 -28.5t-69 28.5t-28 68.5t28 68.5t69 28.5t69 -28.5t28 -68.5zM485 832q0 26 -20.5 47t-47.5 21t-47.5 -20.5
t-20.5 -47.5t21 -47.5t47 -20.5t47 21t21 47z" />
    <glyph glyph-name="uring" unicode="&#x16f;" 
d="M81 102v271q0 12 -4 17t-17 9l-42 12v24q98 5 170 29l10 -6q-5 -70 -5 -90v-221q0 -82 74 -82q43 0 94 42v256q0 15 -4.5 21t-19.5 11l-50 16v24q128 8 181 29l10 -6q-5 -35 -5 -90v-286q0 -20 5.5 -28t21.5 -8h30v-24q-119 -21 -159 -37l-10 8v71q-94 -79 -158 -79
q-122 0 -122 117zM378 633q0 -41 -28 -69t-69 -28t-69 28t-28 69t28 69t69 28t69 -28t28 -69zM349 633q0 26 -20.5 47t-47.5 21t-47.5 -20.5t-20.5 -47.5t21 -47.5t47 -20.5t47 21t21 47z" />
    <glyph glyph-name="Uhungarumlaut" unicode="&#x170;" horiz-adv-x="778" 
d="M107 234v361q0 26 -5.5 41.5t-18.5 22t-23.5 8t-29.5 1.5h-12v30q19 0 72 -2t87 -2q33 0 83 2t67 2v-30h-12q-20 0 -30.5 -1.5t-24 -8t-19.5 -22t-6 -41.5v-345q0 -215 190 -215q96 0 143 57t47 162v341q0 26 -6 41.5t-18 22t-21.5 8t-26.5 1.5h-20v30q20 0 60.5 -2
t60.5 -2t58 2t58 2v-30h-21q-14 0 -22 -1.5t-19.5 -7.5t-17 -22.5t-5.5 -41.5v-319q0 -291 -269 -291q-148 0 -223.5 59t-75.5 190zM318 751h-40l147 148q24 24 41 24q35 0 35 -38q0 -21 -29 -37zM520 752h-40l147 148q24 24 41 24q35 0 35 -38q0 -21 -29 -37z" />
    <glyph glyph-name="uhungarumlaut" unicode="&#x171;" 
d="M81 102v271q0 12 -4 17t-17 9l-42 12v24q98 5 170 29l10 -6q-5 -70 -5 -90v-221q0 -82 74 -82q43 0 94 42v256q0 15 -4.5 21t-19.5 11l-50 16v24q128 8 181 29l10 -6q-5 -35 -5 -90v-286q0 -20 5.5 -28t21.5 -8h30v-24q-119 -21 -159 -37l-10 8v71q-94 -79 -158 -79
q-122 0 -122 117zM158 552h-40l147 148q24 24 41 24q35 0 35 -38q0 -21 -29 -37zM360 553h-40l147 148q24 24 41 24q35 0 35 -38q0 -21 -29 -37z" />
    <glyph glyph-name="Uogonek" unicode="&#x172;" horiz-adv-x="778" 
d="M487 -133l20 -10q-31 -68 -109 -68q-81 0 -81 77q0 61 84 119q-146 1 -220 60t-74 189v361q0 26 -5.5 41.5t-18.5 22t-23.5 8t-29.5 1.5h-12v30q19 0 72 -2t87 -2q33 0 83 2t67 2v-30h-12q-20 0 -30.5 -1.5t-24 -8t-19.5 -22t-6 -41.5v-345q0 -215 190 -215q96 0 143 57
t47 162v341q0 26 -6 41.5t-18 22t-21.5 8t-26.5 1.5h-20v30q20 0 60.5 -2t60.5 -2t58 2t58 2v-30h-21q-14 0 -22 -1.5t-19.5 -7.5t-17 -22.5t-5.5 -41.5v-319q0 -266 -224 -289q-64 -60 -64 -112q0 -19 10.5 -30.5t29.5 -11.5q35 0 60 34z" />
    <glyph glyph-name="uogonek" unicode="&#x173;" 
d="M434 -133l20 -10q-31 -68 -109 -68q-81 0 -81 77q0 66 97 128v70q-94 -79 -158 -79q-122 0 -122 117v271q0 12 -4 17t-17 9l-42 12v24q98 5 170 29l10 -6q-5 -70 -5 -90v-221q0 -82 74 -82q43 0 94 42v256q0 15 -4.5 21t-19.5 11l-50 16v24q128 8 181 29l10 -6
q-5 -35 -5 -90v-286q0 -20 5.5 -28t21.5 -8h30v-24q-101 -18 -120 -23q-76 -69 -76 -124q0 -19 10.5 -30.5t29.5 -11.5q35 0 60 34z" />
    <glyph glyph-name="Wcircumflex" unicode="&#x174;" horiz-adv-x="1000" 
d="M656 -15l-134 313l-132 -313h-34l-252 594q-1 3 -5.5 14t-6 13.5t-6 12t-6.5 12.5t-6.5 10t-8 9.5t-9.5 7t-11.5 6t-12.5 3t-15 1.5h-15v30q18 0 68.5 -2t75.5 -2q22 0 66.5 2t59.5 2v-30h-9q-43 0 -43 -23q0 -21 34 -103l164 -385l81 195l-125 289q-12 27 -61 27v30
q23 0 70 -2t71 -2q18 0 55 2t55 2q16 0 48 -2t48 -2q15 0 45 2t45 2v-30h-14q-36 0 -51.5 -15t-35.5 -61l-59 -137l123 -290l154 420q15 43 15 55q0 16 -13.5 22t-46.5 6h-12v30q16 0 49 -2t50 -2q15 0 44.5 2t44.5 2v-30h-12q-34 0 -59 -65l-236 -618h-35zM568 506l36 90
q13 35 13 42q0 30 -56 30q-49 0 -49 -25q0 -10 16 -48l38 -89h2zM490 918h62l125 -167h-35l-121 103l-122 -103h-33z" />
    <glyph glyph-name="wcircumflex" unicode="&#x175;" horiz-adv-x="778" 
d="M393 284l-132 -299h-28l-155 383q-7 19 -9.5 24.5t-9 14t-15.5 10.5t-24 2h-7v30q78 -4 116 -4q35 0 107 4v-30h-9q-35 0 -37 -10q-2 -9 6 -29l94 -236l85 192l-28 63q-11 20 -49 20h-11v30q86 -4 129 -4q36 0 106 4v-30h-10q-40 0 -40 -14t9 -36l88 -219l79 205
q7 21 7 38q0 11 -6.5 17t-15 7.5t-23.5 1.5h-11v30q60 -4 89 -4q25 0 77 4v-30h-8q-6 0 -11 -1t-9 -2.5t-8.5 -5.5t-7 -6t-6 -7.5t-5.5 -8t-5 -9.5t-4 -9t-4 -9.5t-4 -9.5l-150 -366h-28zM363 719h62l125 -167h-35l-121 103l-122 -103h-33z" />
    <glyph glyph-name="Ycircumflex" unicode="&#x176;" horiz-adv-x="722" 
d="M318 112v214l-200 274q-19 26 -29 37.5t-27.5 21t-39.5 9.5h-10v30q27 0 78.5 -2t78.5 -2t76 2t72 2v-30h-13q-52 0 -52 -23q0 -6 18 -33l151 -212l124 179q3 4 8.5 13t7.5 12.5l6 10.5t5.5 10.5t2.5 8.5t1 10q0 24 -57 24h-18v30q19 0 57 -2t57 -2q16 0 48 2t47 2v-30
q-45 0 -78 -46l-186 -263v-239q0 -59 18.5 -74.5t64.5 -15.5h19v-30q-31 0 -87 2t-76 2q-24 0 -81 -2t-88 -2v30h19q46 0 64.5 17t18.5 65zM351 918h62l125 -167h-35l-121 103l-122 -103h-33z" />
    <glyph glyph-name="ycircumflex" unicode="&#x177;" horiz-adv-x="500" 
d="M199 368l88 -228h2l79 202q13 32 13 54q0 23 -47 23h-13v30q62 -4 93 -4q26 0 72 4v-30h-17q-13 0 -24.5 -17.5t-33.5 -70.5l-204 -493q-27 -66 -76 -66q-25 0 -41 16.5t-16 41.5q0 21 15.5 37.5t38.5 16.5q28 0 50 -15l51 122l-151 374q-13 31 -22.5 42.5t-26.5 11.5
h-15v30q78 -4 116 -4q37 0 111 4v-30h-9q-43 0 -43 -15q0 -10 10 -36zM216 719h62l125 -167h-35l-121 103l-122 -103h-33z" />
    <glyph glyph-name="Ydieresis" unicode="&#x178;" horiz-adv-x="722" 
d="M318 112v214l-200 274q-19 26 -29 37.5t-27.5 21t-39.5 9.5h-10v30q27 0 78.5 -2t78.5 -2t76 2t72 2v-30h-13q-52 0 -52 -23q0 -6 18 -33l151 -212l124 179q3 4 8.5 13t7.5 12.5l6 10.5t5.5 10.5t2.5 8.5t1 10q0 24 -57 24h-18v30q19 0 57 -2t57 -2q16 0 48 2t47 2v-30
q-45 0 -78 -46l-186 -263v-239q0 -59 18.5 -74.5t64.5 -15.5h19v-30q-31 0 -87 2t-76 2q-24 0 -81 -2t-88 -2v30h19q46 0 64.5 17t18.5 65zM426 822q0 23 16.5 39.5t39.5 16.5t39.5 -16.5t16.5 -39.5t-16.5 -39.5t-39.5 -16.5t-39.5 16.5t-16.5 39.5zM220 822
q0 23 16.5 39.5t39.5 16.5t39.5 -16.5t16.5 -39.5t-16.5 -39.5t-39.5 -16.5t-39.5 16.5t-16.5 39.5z" />
    <glyph glyph-name="Zacute" unicode="&#x179;" horiz-adv-x="722" 
d="M29 0l459 648h-249q-77 0 -107.5 -21.5t-39.5 -94.5h-35q4 34 10 102q4 54 4 79l30 8q1 -7 6 -11.5t10.5 -7t15 -3.5t14 -1h15h11.5h501l-458 -648h292q72 0 100 26t56 103l29 -7q-34 -150 -38 -172h-626zM336 751h-40l147 148q24 24 41 24q35 0 35 -38q0 -21 -29 -37z
" />
    <glyph glyph-name="zacute" unicode="&#x17a;" horiz-adv-x="444" 
d="M410 437l-235 -393h114q33 0 47.5 4t28.5 18q11 10 35 68h24q-15 -80 -17 -134h-387l242 405h-74q-75 0 -94 -10q-22 -13 -35 -63h-24q12 99 11 140h24q3 -10 5 -13.5t9 -6.5t20 -3h300zM187 552h-40l147 148q24 24 41 24q35 0 35 -38q0 -21 -29 -37z" />
    <glyph glyph-name="Zdotaccent" unicode="&#x17b;" horiz-adv-x="722" 
d="M29 0l459 648h-249q-77 0 -107.5 -21.5t-39.5 -94.5h-35q4 34 10 102q4 54 4 79l30 8q1 -7 6 -11.5t10.5 -7t15 -3.5t14 -1h15h11.5h501l-458 -648h292q72 0 100 26t56 103l29 -7q-34 -150 -38 -172h-626zM317 822q0 23 16.5 39.5t39.5 16.5t39.5 -16.5t16.5 -39.5
t-16.5 -39.5t-39.5 -16.5t-39.5 16.5t-16.5 39.5z" />
    <glyph glyph-name="zdotaccent" unicode="&#x17c;" horiz-adv-x="444" 
d="M410 437l-235 -393h114q33 0 47.5 4t28.5 18q11 10 35 68h24q-15 -80 -17 -134h-387l242 405h-74q-75 0 -94 -10q-22 -13 -35 -63h-24q12 99 11 140h24q3 -10 5 -13.5t9 -6.5t20 -3h300zM179 623q0 23 16.5 39.5t39.5 16.5t39.5 -16.5t16.5 -39.5t-16.5 -39.5
t-39.5 -16.5t-39.5 16.5t-16.5 39.5z" />
    <glyph glyph-name="Zcaron" unicode="&#x17d;" horiz-adv-x="722" 
d="M29 0l459 648h-249q-77 0 -107.5 -21.5t-39.5 -94.5h-35q4 34 10 102q4 54 4 79l30 8q1 -7 6 -11.5t10.5 -7t15 -3.5t14 -1h15h11.5h501l-458 -648h292q72 0 100 26t56 103l29 -7q-34 -150 -38 -172h-626zM392 751h-62l-124 167h33l122 -103l121 103h35z" />
    <glyph glyph-name="zcaron" unicode="&#x17e;" horiz-adv-x="444" 
d="M410 437l-235 -393h114q33 0 47.5 4t28.5 18q11 10 35 68h24q-15 -80 -17 -134h-387l242 405h-74q-75 0 -94 -10q-22 -13 -35 -63h-24q12 99 11 140h24q3 -10 5 -13.5t9 -6.5t20 -3h300zM253 552h-62l-124 167h33l122 -103l121 103h35z" />
    <glyph glyph-name="florin" unicode="&#x192;" 
d="M246 405h-96l9 44h94q7 38 17.5 72.5t29 70.5t42 62t58.5 42.5t77 16.5q35 0 65 -17t30 -57q0 -21 -10.5 -39t-37.5 -18q-19 0 -33.5 8.5t-14.5 24.5q0 13 3 26.5t3 18.5q0 17 -15 17q-11 0 -20.5 -6t-17.5 -18t-14.5 -25t-12 -32t-10 -33.5t-8 -35t-5.5 -31.5
t-4.5 -27.5t-2.5 -19.5h118l-10 -44h-112l-50 -239q-82 -394 -242 -394q-39 0 -65.5 22t-26.5 57q0 18 14.5 35t36.5 17q17 0 31 -12t14 -32q0 -9 -3.5 -21t-3.5 -17q0 -13 20 -13q12 0 23.5 13.5t20.5 36.5t16.5 49t14 57t10.5 53.5t7.5 46t4.5 27.5z" />
    <glyph glyph-name="Aringacute" unicode="&#x1fa;" horiz-adv-x="722" 
d="M458 732q0 -44 -36 -72l179 -488q3 -9 16 -47t21 -55q17 -40 66 -40h6v-30q-90 4 -138 4t-150 -4v30h11q62 0 62 29q0 14 -20 72l-39 116h-227l-32 -104q-3 -11 -9.5 -29.5t-9.5 -29.5t-3 -19q0 -35 75 -35h11v-30q-80 4 -121 4q-36 0 -108 -4v30h6q30 0 53.5 17t33.5 48
l194 566q-35 27 -35 71q0 38 28.5 64.5t68.5 26.5t68.5 -26.5t28.5 -64.5zM415 303l-92 283h-2l-93 -283h187zM429 732q0 25 -20.5 44.5t-47.5 19.5t-47.5 -19.5t-20.5 -44.5t21 -45t47 -20t47 20t21 45zM321 841h-40l82 68q2 2 7.5 6.5t8 6.5l7.5 6t9 6t9 4t10 3t10 1
q14 0 25 -9t11 -19q0 -23 -19 -32z" />
    <glyph glyph-name="aringacute" unicode="&#x1fb;" horiz-adv-x="500" 
d="M304 259v56q0 41 -21.5 61t-57.5 20q-43 0 -58.5 -14.5t-18.5 -56.5q-1 -18 -27.5 -29t-43.5 -11q-19 0 -19 23q0 56 55 84q71 37 108 58q24 14 60 14q66 0 100.5 -34t34.5 -99v-204q0 -38 6 -56t25 -18q15 0 28 13l13 -18q-26 -32 -49 -47.5t-56 -15.5q-35 0 -54 21.5
t-22 57.5q-39 -38 -74 -58.5t-79 -20.5q-47 0 -78 27.5t-31 75.5q0 28 10 48.5t32.5 35.5t40 23t52.5 21zM304 106v119q-5 -2 -24.5 -8t-29 -9t-27 -10t-26.5 -14t-20 -17t-15.5 -22.5t-4.5 -26.5q0 -65 61 -65q47 0 86 53zM236 740h-40l82 68q2 2 7.5 6.5t8 6.5l7.5 6t9 6
t9 4t10 3t10 1q14 0 25 -9t11 -19q0 -23 -19 -32zM358 603q0 -41 -28 -69t-69 -28t-69 28t-28 69t28 69t69 28t69 -28t28 -69zM329 603q0 26 -20.5 47t-47.5 21t-47.5 -20.5t-20.5 -47.5t21 -47.5t47 -20.5t47 21t21 47z" />
    <glyph glyph-name="AEacute" unicode="&#x1fc;" horiz-adv-x="1000" 
d="M607 342v-227q0 -42 13 -53.5t58 -11.5h126q64 0 91 25t45 91l28 -7q-23 -93 -34 -159q-46 0 -137.5 2t-137.5 2t-138 -2t-138 -2v30h14q46 0 64 19t18 67v226h-175l-142 -247q-9 -16 -9 -39q0 -11 20 -18.5t52 -7.5h10v-30q-21 0 -64 2t-65 2q-17 0 -49.5 -2t-49.5 -2
v30q36 0 56.5 17.5t41.5 54.5l295 499q17 28 17 46q0 21 -67 21h-14v30q190 -4 284 -4q96 0 284 4q-3 -74 2 -153l-30 -8q-5 59 -25.5 88t-75.5 29h-168v-262h127q42 0 58 21.5t21 66.5h30q-3 -58 -3 -117q0 -57 3 -114l-30 -6q-2 24 -3.5 34t-6.5 26t-12.5 22t-21.5 11.5
t-34 5.5h-128zM479 392v256h-2l-144 -256h146zM537 751h-40l147 148q24 24 41 24q35 0 35 -38q0 -21 -29 -37z" />
    <glyph glyph-name="aeacute" unicode="&#x1fd;" horiz-adv-x="722" 
d="M680 133l17 -16q-39 -55 -92 -93.5t-110 -38.5q-53 0 -88.5 20.5t-66.5 66.5q-32 -26 -55 -42t-58.5 -30.5t-69.5 -14.5q-47 0 -79.5 29t-32.5 75q0 41 21 58t109 46l132 44v72q0 38 -17.5 62.5t-54.5 24.5q-41 0 -59 -14.5t-18 -53.5q0 -19 -29 -33t-45 -14t-16 30
q0 50 29 65q64 32 127 71q29 17 66 17q85 0 113 -61q63 61 140 61q61 0 104 -28t43 -87q0 -19 -16 -24l-261 -85q3 -92 32 -133.5t101 -41.5q33 0 71 17.5t63 50.5zM307 112v97q-95 -33 -122.5 -51.5t-27.5 -48.5q0 -25 17 -43.5t46 -18.5q27 0 57 22.5t30 42.5zM413 272
l127 43q38 13 38 44q0 26 -20 43.5t-47 17.5q-99 0 -98 -148zM333 552h-40l147 148q24 24 41 24q35 0 35 -38q0 -21 -29 -37z" />
    <glyph glyph-name="Oslashacute" unicode="&#x1fe;" horiz-adv-x="834" 
d="M776 731l31 -30l-103 -102q89 -92 89 -231q0 -170 -108 -276.5t-270 -106.5q-146 0 -249 84l-109 -107l-31 30l108 107q-93 99 -93 245q0 156 106.5 262.5t262.5 106.5q157 0 262 -85zM219 183l378 372q-70 114 -189 114q-63 0 -109 -26t-70.5 -69.5t-36 -92
t-11.5 -102.5q0 -111 38 -196zM618 514l-378 -372q67 -113 185 -113q228 0 228 317q0 91 -35 168zM386 751h-40l147 148q24 24 41 24q35 0 35 -38q0 -21 -29 -37z" />
    <glyph glyph-name="oslashacute" unicode="&#x1ff;" 
d="M508 477l26 -28l-66 -66q50 -59 50 -152q0 -102 -70 -174t-171 -72q-92 0 -156 54l-73 -72l-26 28l71 71q-55 66 -55 159q0 102 67.5 170.5t171.5 68.5q101 0 164 -54zM169 141l203 201q-31 86 -97 86q-115 0 -115 -206q0 -46 9 -81zM385 301l-203 -202q30 -78 101 -78
q113 0 113 186q0 47 -11 94zM230 552h-40l147 148q24 24 41 24q35 0 35 -38q0 -21 -29 -37z" />
    <glyph glyph-name="Scommaaccent" unicode="&#x218;" horiz-adv-x="500" 
d="M428 555l-28 -5q-6 52 -37.5 89.5t-80.5 37.5q-59 0 -91 -33t-32 -93q0 -45 31 -76.5t75 -52.5t88 -45t75 -70t31 -112q0 -99 -70 -154.5t-172 -55.5q-71 0 -159 45q-3 26 -8.5 76t-8.5 76l28 6q10 -69 49 -114t106 -45q53 0 88 31t35 83q0 48 -30.5 81.5t-73.5 54.5
t-86 45t-73.5 69.5t-30.5 112.5q0 96 61 151.5t160 55.5q28 0 144 -15q0 -63 10 -143zM204 -228l-14 24q28 5 49.5 19t21.5 33q0 12 -9 15t-29 3q-15 0 -25.5 11.5t-10.5 26.5q0 19 15.5 32t39.5 13q31 0 49 -22t18 -48q0 -41 -30.5 -69t-74.5 -38z" />
    <glyph glyph-name="scommaaccent" unicode="&#x219;" horiz-adv-x="389" 
d="M322 334l-28 -5q-9 99 -90 99q-27 0 -47.5 -16t-20.5 -44q0 -30 21.5 -51.5t51.5 -36t60.5 -30.5t52 -46t21.5 -72q0 -75 -49.5 -111t-120.5 -36q-44 0 -118 26l-9 111l28 6q5 -45 30.5 -76t67.5 -31q31 0 53 17.5t22 48.5q0 22 -15 40t-37 29t-48.5 26t-48.5 31t-37 44
t-15 64q0 65 45 104t115 39q53 0 118 -24q-5 -66 -2 -106zM149 -228l-14 24q28 5 49.5 19t21.5 33q0 12 -9 15t-29 3q-15 0 -25.5 11.5t-10.5 26.5q0 19 15.5 32t39.5 13q31 0 49 -22t18 -48q0 -41 -30.5 -69t-74.5 -38z" />
    <glyph glyph-name="uni021A" unicode="&#x21a;" horiz-adv-x="722" 
d="M300 648h-164q-53 0 -67 -15.5t-26 -75.5h-30q12 81 12 85q6 42 6 85h24q3 -11 8.5 -17t15.5 -8.5t16 -3t20 -0.5h516q17 0 26.5 1.5t18 8.5t9.5 21l24 -4q-8 -54 -11 -81q-2 -27 -2 -81l-30 -11q-1 26 -4.5 43t-21 35t-48.5 18h-164v-532q0 -53 20.5 -69.5t62.5 -16.5
h19v-30q-18 0 -76 2t-87 2q-33 0 -92.5 -2t-76.5 -2v30h19q47 0 65 14.5t18 69.5v534zM319 -228l-14 24q28 5 49.5 19t21.5 33q0 12 -9 15t-29 3q-15 0 -25.5 11.5t-10.5 26.5q0 19 15.5 32t39.5 13q31 0 49 -22t18 -48q0 -41 -30.5 -69t-74.5 -38z" />
    <glyph glyph-name="uni021B" unicode="&#x21b;" horiz-adv-x="333" 
d="M312 449v-56h-119v-274q0 -54 53 -54q30 0 59 18l13 -17q-62 -81 -136 -81q-53 0 -77 28.5t-24 74.5v305h-60v24q82 44 160 143l12 -6v-105h119zM125 -228l-14 24q28 5 49.5 19t21.5 33q0 12 -9 15t-29 3q-15 0 -25.5 11.5t-10.5 26.5q0 19 15.5 32t39.5 13q31 0 49 -22
t18 -48q0 -41 -30.5 -69t-74.5 -38z" />
    <glyph glyph-name="dotlessj" unicode="&#x237;" horiz-adv-x="278" 
d="M193 455v-489q0 -80 -44.5 -121.5t-130.5 -72.5l-7 27q46 18 58 45.5t12 98.5v400q0 13 -4 18.5t-20 9.5q-6 2 -17.5 5.5t-17.5 4.5v24q28 7 91 29q13 5 37 16t32 14z" />
    <glyph glyph-name="circumflex" unicode="&#x2c6;" horiz-adv-x="278" 
d="M108 719h62l125 -167h-35l-121 103l-122 -103h-33z" />
    <glyph glyph-name="caron" unicode="&#x2c7;" horiz-adv-x="278" 
d="M170 552h-62l-124 167h33l122 -103l121 103h35z" />
    <glyph glyph-name="uni02C9" unicode="&#x2c9;" horiz-adv-x="278" 
d="M277 596h-276v50h276v-50z" />
    <glyph glyph-name="breve" unicode="&#x2d8;" horiz-adv-x="278" 
d="M250 705h30q-5 -69 -40.5 -113t-102.5 -44q-65 0 -104 46t-34 111h30q18 -95 113 -95q43 0 71 26t37 69z" />
    <glyph glyph-name="dotaccent" unicode="&#x2d9;" horiz-adv-x="278" 
d="M83 623q0 23 16.5 39.5t39.5 16.5t39.5 -16.5t16.5 -39.5t-16.5 -39.5t-39.5 -16.5t-39.5 16.5t-16.5 39.5z" />
    <glyph glyph-name="ring" unicode="&#x2da;" horiz-adv-x="278" 
d="M247 633q0 -41 -28.5 -69t-68.5 -28t-68.5 28t-28.5 69t28.5 69t68.5 28t68.5 -28t28.5 -69zM218 633q0 26 -20.5 47t-47.5 21t-47.5 -20.5t-20.5 -47.5t21 -47.5t47 -20.5t47 21t21 47z" />
    <glyph glyph-name="ogonek" unicode="&#x2db;" horiz-adv-x="278" 
d="M182 -133l20 -10q-31 -68 -109 -68q-81 0 -81 77q0 24 14 48t35.5 42.5t37.5 30t29 18.5h38q-84 -73 -84 -130q0 -19 10.5 -30.5t29.5 -11.5q35 0 60 34z" />
    <glyph glyph-name="tilde" unicode="&#x2dc;" horiz-adv-x="278" 
d="M4 576h-29q9 45 32.5 76.5t63.5 31.5q25 0 79 -22q56 -22 76 -22q40 0 47 45h30q-8 -45 -31 -76t-64 -31q-30 0 -84 24q-56 23 -71 23q-34 0 -49 -49z" />
    <glyph glyph-name="hungarumlaut" unicode="&#x2dd;" horiz-adv-x="278" 
d="M-12 552h-40l147 148q24 24 41 24q35 0 35 -38q0 -21 -29 -37zM190 553h-40l147 148q24 24 41 24q35 0 35 -38q0 -21 -29 -37z" />
    <glyph glyph-name="uni0394" unicode="&#x394;" horiz-adv-x="612" 
d="M326 688l282 -688h-602zM290 517l-218 -468h412z" />
    <glyph glyph-name="uni03A9" unicode="&#x3a9;" horiz-adv-x="768" 
d="M313 152l16 -152h-295v162h15q9 -37 22 -49t44 -12h158l-2 28q-61 18 -99.5 42t-67.5 67q-33 49 -44 105t-2.5 103t30.5 87q7 13 15.5 25t15.5 20.5t16 17.5t14.5 14t15 11.5t13.5 8.5t13.5 7.5t10.5 6.5q75 44 183 44t183 -44q1 -1 10.5 -6.5t13.5 -7.5t13.5 -8.5
t15 -11.5t14.5 -14t16 -17.5t15.5 -20.5t15.5 -25q22 -40 30.5 -87t-2.5 -103t-44 -105q-29 -43 -67.5 -67t-99.5 -42l-2 -28h158q31 0 44 12t22 49h15v-162h-295l16 152q2 1 14 6t17 7.5t16 9t18.5 13.5t17.5 18t18.5 26t16.5 34q18 41 23.5 100.5t-11 128t-57.5 109.5
q-52 52 -145 52t-145 -52q-41 -41 -57.5 -109.5t-11 -128t23.5 -100.5q8 -19 16.5 -34t18.5 -26t17.5 -18t18.5 -13.5t16 -9t17 -7.5t14 -6z" />
    <glyph glyph-name="uni03BC" unicode="&#x3bc;" 
d="M81 138v235q0 12 -4 17t-17 9l-42 12v24q98 5 170 29l10 -6q-5 -70 -5 -90v-221q0 -82 74 -82q43 0 94 42v256q0 15 -4.5 21t-19.5 11l-50 16v24q128 8 181 29l10 -6q-5 -35 -5 -90v-286q0 -20 5.5 -28t21.5 -8h30v-24q-119 -21 -159 -37l-10 8v71q-94 -79 -158 -79
q-22 0 -39 3q1 -55 8 -106t7 -57q0 -27 -12.5 -40t-43.5 -13q-54 0 -54 52q0 10 6 124.5t6 189.5z" />
    <glyph glyph-name="pi" unicode="&#x3c0;" horiz-adv-x="549" 
d="M335 401h-113q-20 -234 -46 -351q-12 -57 -55 -68q-20 -5 -39 7.5t-23 30.5q-3 7 -1.5 15.5t1.5 13t4 11.5t6 9.5t6.5 8.5t6.5 8q3 4 13.5 16t16.5 19.5t12 21.5t8 29l29 229h-47q-20 0 -38.5 -9.5t-27.5 -22.5l-21 -31h-17q24 68 45 97q37 52 94 52h373v-86h-126
q-12 -117 -12 -235q0 -50 25 -73q36 -33 74 -4q9 7 14.5 16.5t7 15.5t3 17t1.5 13h21q-1 -61 -23.5 -100.5t-48.5 -53.5q-18 -11 -39.5 -13t-44.5 11q-32 24 -49 74q-18 55 -7 171z" />
    <glyph glyph-name="Wgrave" unicode="&#x1e80;" horiz-adv-x="1000" 
d="M656 -15l-134 313l-132 -313h-34l-252 594q-1 3 -5.5 14t-6 13.5t-6 12t-6.5 12.5t-6.5 10t-8 9.5t-9.5 7t-11.5 6t-12.5 3t-15 1.5h-15v30q18 0 68.5 -2t75.5 -2q22 0 66.5 2t59.5 2v-30h-9q-43 0 -43 -23q0 -21 34 -103l164 -385l81 195l-125 289q-12 27 -61 27v30
q23 0 70 -2t71 -2q18 0 55 2t55 2q16 0 48 -2t48 -2q15 0 45 2t45 2v-30h-14q-36 0 -51.5 -15t-35.5 -61l-59 -137l123 -290l154 420q15 43 15 55q0 16 -13.5 22t-46.5 6h-12v30q16 0 49 -2t50 -2q15 0 44.5 2t44.5 2v-30h-12q-34 0 -59 -65l-236 -618h-35zM568 506l36 90
q13 35 13 42q0 30 -56 30q-49 0 -49 -25q0 -10 16 -48l38 -89h2zM483 899l147 -148h-40l-154 97q-29 16 -29 37q0 38 35 38q17 0 41 -24z" />
    <glyph glyph-name="wgrave" unicode="&#x1e81;" horiz-adv-x="778" 
d="M393 284l-132 -299h-28l-155 383q-7 19 -9.5 24.5t-9 14t-15.5 10.5t-24 2h-7v30q78 -4 116 -4q35 0 107 4v-30h-9q-35 0 -37 -10q-2 -9 6 -29l94 -236l85 192l-28 63q-11 20 -49 20h-11v30q86 -4 129 -4q36 0 106 4v-30h-10q-40 0 -40 -14t9 -36l88 -219l79 205
q7 21 7 38q0 11 -6.5 17t-15 7.5t-23.5 1.5h-11v30q60 -4 89 -4q25 0 77 4v-30h-8q-6 0 -11 -1t-9 -2.5t-8.5 -5.5t-7 -6t-6 -7.5t-5.5 -8t-5 -9.5t-4 -9t-4 -9.5t-4 -9.5l-150 -366h-28zM345 700l147 -148h-40l-154 97q-29 16 -29 37q0 38 35 38q17 0 41 -24z" />
    <glyph glyph-name="Wacute" unicode="&#x1e82;" horiz-adv-x="1000" 
d="M656 -15l-134 313l-132 -313h-34l-252 594q-1 3 -5.5 14t-6 13.5t-6 12t-6.5 12.5t-6.5 10t-8 9.5t-9.5 7t-11.5 6t-12.5 3t-15 1.5h-15v30q18 0 68.5 -2t75.5 -2q22 0 66.5 2t59.5 2v-30h-9q-43 0 -43 -23q0 -21 34 -103l164 -385l81 195l-125 289q-12 27 -61 27v30
q23 0 70 -2t71 -2q18 0 55 2t55 2q16 0 48 -2t48 -2q15 0 45 2t45 2v-30h-14q-36 0 -51.5 -15t-35.5 -61l-59 -137l123 -290l154 420q15 43 15 55q0 16 -13.5 22t-46.5 6h-12v30q16 0 49 -2t50 -2q15 0 44.5 2t44.5 2v-30h-12q-34 0 -59 -65l-236 -618h-35zM568 506l36 90
q13 35 13 42q0 30 -56 30q-49 0 -49 -25q0 -10 16 -48l38 -89h2zM488 751h-40l147 148q24 24 41 24q35 0 35 -38q0 -21 -29 -37z" />
    <glyph glyph-name="wacute" unicode="&#x1e83;" horiz-adv-x="778" 
d="M393 284l-132 -299h-28l-155 383q-7 19 -9.5 24.5t-9 14t-15.5 10.5t-24 2h-7v30q78 -4 116 -4q35 0 107 4v-30h-9q-35 0 -37 -10q-2 -9 6 -29l94 -236l85 192l-28 63q-11 20 -49 20h-11v30q86 -4 129 -4q36 0 106 4v-30h-10q-40 0 -40 -14t9 -36l88 -219l79 205
q7 21 7 38q0 11 -6.5 17t-15 7.5t-23.5 1.5h-11v30q60 -4 89 -4q25 0 77 4v-30h-8q-6 0 -11 -1t-9 -2.5t-8.5 -5.5t-7 -6t-6 -7.5t-5.5 -8t-5 -9.5t-4 -9t-4 -9.5t-4 -9.5l-150 -366h-28zM368 552h-40l147 148q24 24 41 24q35 0 35 -38q0 -21 -29 -37z" />
    <glyph glyph-name="Wdieresis" unicode="&#x1e84;" horiz-adv-x="1000" 
d="M656 -15l-134 313l-132 -313h-34l-252 594q-1 3 -5.5 14t-6 13.5t-6 12t-6.5 12.5t-6.5 10t-8 9.5t-9.5 7t-11.5 6t-12.5 3t-15 1.5h-15v30q18 0 68.5 -2t75.5 -2q22 0 66.5 2t59.5 2v-30h-9q-43 0 -43 -23q0 -21 34 -103l164 -385l81 195l-125 289q-12 27 -61 27v30
q23 0 70 -2t71 -2q18 0 55 2t55 2q16 0 48 -2t48 -2q15 0 45 2t45 2v-30h-14q-36 0 -51.5 -15t-35.5 -61l-59 -137l123 -290l154 420q15 43 15 55q0 16 -13.5 22t-46.5 6h-12v30q16 0 49 -2t50 -2q15 0 44.5 2t44.5 2v-30h-12q-34 0 -59 -65l-236 -618h-35zM568 506l36 90
q13 35 13 42q0 30 -56 30q-49 0 -49 -25q0 -10 16 -48l38 -89h2zM376 822q0 23 16.5 39.5t39.5 16.5t39.5 -16.5t16.5 -39.5t-16.5 -39.5t-39.5 -16.5t-39.5 16.5t-16.5 39.5zM582 822q0 23 16.5 39.5t39.5 16.5t39.5 -16.5t16.5 -39.5t-16.5 -39.5t-39.5 -16.5t-39.5 16.5
t-16.5 39.5z" />
    <glyph glyph-name="wdieresis" unicode="&#x1e85;" horiz-adv-x="778" 
d="M393 284l-132 -299h-28l-155 383q-7 19 -9.5 24.5t-9 14t-15.5 10.5t-24 2h-7v30q78 -4 116 -4q35 0 107 4v-30h-9q-35 0 -37 -10q-2 -9 6 -29l94 -236l85 192l-28 63q-11 20 -49 20h-11v30q86 -4 129 -4q36 0 106 4v-30h-10q-40 0 -40 -14t9 -36l88 -219l79 205
q7 21 7 38q0 11 -6.5 17t-15 7.5t-23.5 1.5h-11v30q60 -4 89 -4q25 0 77 4v-30h-8q-6 0 -11 -1t-9 -2.5t-8.5 -5.5t-7 -6t-6 -7.5t-5.5 -8t-5 -9.5t-4 -9t-4 -9.5t-4 -9.5l-150 -366h-28zM245 623q0 23 16.5 39.5t39.5 16.5t39.5 -16.5t16.5 -39.5t-16.5 -39.5t-39.5 -16.5
t-39.5 16.5t-16.5 39.5zM451 623q0 23 16.5 39.5t39.5 16.5t39.5 -16.5t16.5 -39.5t-16.5 -39.5t-39.5 -16.5t-39.5 16.5t-16.5 39.5z" />
    <glyph glyph-name="Ygrave" unicode="&#x1ef2;" horiz-adv-x="722" 
d="M318 112v214l-200 274q-19 26 -29 37.5t-27.5 21t-39.5 9.5h-10v30q27 0 78.5 -2t78.5 -2t76 2t72 2v-30h-13q-52 0 -52 -23q0 -6 18 -33l151 -212l124 179q3 4 8.5 13t7.5 12.5l6 10.5t5.5 10.5t2.5 8.5t1 10q0 24 -57 24h-18v30q19 0 57 -2t57 -2q16 0 48 2t47 2v-30
q-45 0 -78 -46l-186 -263v-239q0 -59 18.5 -74.5t64.5 -15.5h19v-30q-31 0 -87 2t-76 2q-24 0 -81 -2t-88 -2v30h19q46 0 64.5 17t18.5 65zM320 899l147 -148h-40l-154 97q-29 16 -29 37q0 38 35 38q17 0 41 -24z" />
    <glyph glyph-name="ygrave" unicode="&#x1ef3;" horiz-adv-x="500" 
d="M199 368l88 -228h2l79 202q13 32 13 54q0 23 -47 23h-13v30q62 -4 93 -4q26 0 72 4v-30h-17q-13 0 -24.5 -17.5t-33.5 -70.5l-204 -493q-27 -66 -76 -66q-25 0 -41 16.5t-16 41.5q0 21 15.5 37.5t38.5 16.5q28 0 50 -15l51 122l-151 374q-13 31 -22.5 42.5t-26.5 11.5
h-15v30q78 -4 116 -4q37 0 111 4v-30h-9q-43 0 -43 -15q0 -10 10 -36zM193 700l147 -148h-40l-154 97q-29 16 -29 37q0 38 35 38q17 0 41 -24z" />
    <glyph glyph-name="endash" unicode="&#x2013;" horiz-adv-x="500" 
d="M0 198v80h500v-80h-500z" />
    <glyph glyph-name="emdash" unicode="&#x2014;" horiz-adv-x="1000" 
d="M0 198v80h1000v-80h-1000z" />
    <glyph glyph-name="quoteleft" unicode="&#x2018;" horiz-adv-x="278" 
d="M215 698l14 -30q-39 -7 -71 -29.5t-32 -55.5q0 -14 8 -23.5t13.5 -12t21.5 -8.5q13 -5 20.5 -9.5t14.5 -16.5t7 -29q0 -31 -21 -49.5t-52 -18.5q-41 0 -64.5 30.5t-23.5 73.5q0 67 47.5 113t117.5 65z" />
    <glyph glyph-name="quoteright" unicode="&#x2019;" horiz-adv-x="278" 
d="M63 416l-14 30q39 7 71 29.5t32 55.5q0 14 -8 23.5t-13.5 12t-21.5 8.5q-13 5 -20.5 9.5t-14.5 16.5t-7 29q0 31 21 49.5t52 18.5q41 0 64.5 -30.5t23.5 -73.5q0 -67 -47.5 -113t-117.5 -65z" />
    <glyph glyph-name="quotesinglbase" unicode="&#x201a;" horiz-adv-x="278" 
d="M63 -154l-14 30q39 7 71 29.5t32 55.5q0 14 -8 23.5t-13.5 12t-21.5 8.5q-13 5 -20.5 9.5t-14.5 16.5t-7 29q0 31 21 49.5t52 18.5q41 0 64.5 -30.5t23.5 -73.5q0 -67 -47.5 -113t-117.5 -65z" />
    <glyph glyph-name="quotedblleft" unicode="&#x201c;" 
d="M249 698l14 -30q-39 -7 -71 -29.5t-32 -55.5q0 -14 8 -23.5t13.5 -12t21.5 -8.5q13 -5 20.5 -9.5t14.5 -16.5t7 -29q0 -31 -21 -49.5t-52 -18.5q-41 0 -64.5 30.5t-23.5 73.5q0 67 47.5 113t117.5 65zM458 698l14 -30q-39 -7 -71 -29.5t-32 -55.5q0 -14 8 -23.5t13.5 -12
t21.5 -8.5q13 -5 20.5 -9.5t14.5 -16.5t7 -29q0 -31 -21 -49.5t-52 -18.5q-41 0 -64.5 30.5t-23.5 73.5q0 67 47.5 113t117.5 65z" />
    <glyph glyph-name="quotedblright" unicode="&#x201d;" 
d="M307 416l-14 30q39 7 71 29.5t32 55.5q0 14 -8 23.5t-13.5 12t-21.5 8.5q-13 5 -20.5 9.5t-14.5 16.5t-7 29q0 31 21 49.5t52 18.5q41 0 64.5 -30.5t23.5 -73.5q0 -67 -47.5 -113t-117.5 -65zM98 416l-14 30q39 7 71 29.5t32 55.5q0 14 -8 23.5t-13.5 12t-21.5 8.5
q-13 5 -20.5 9.5t-14.5 16.5t-7 29q0 31 21 49.5t52 18.5q41 0 64.5 -30.5t23.5 -73.5q0 -67 -47.5 -113t-117.5 -65z" />
    <glyph glyph-name="quotedblbase" unicode="&#x201e;" 
d="M307 -154l-14 30q39 7 71 29.5t32 55.5q0 14 -8 23.5t-13.5 12t-21.5 8.5q-13 5 -20.5 9.5t-14.5 16.5t-7 29q0 31 21 49.5t52 18.5q41 0 64.5 -30.5t23.5 -73.5q0 -67 -47.5 -113t-117.5 -65zM98 -154l-14 30q39 7 71 29.5t32 55.5q0 14 -8 23.5t-13.5 12t-21.5 8.5
q-13 5 -20.5 9.5t-14.5 16.5t-7 29q0 31 21 49.5t52 18.5q41 0 64.5 -30.5t23.5 -73.5q0 -67 -47.5 -113t-117.5 -65z" />
    <glyph glyph-name="dagger" unicode="&#x2020;" 
d="M309 393q1 -50 1 -150t1 -179.5t5 -150.5q4 -78 6 -93q-30 2 -44 2t-44 -2q2 15 6 93q4 71 5 150.5t1 179.5t1 150q-128 0 -191 -6q0 6 0.5 18.5t0.5 18.5q0 24 -1 37q96 -6 191 -6q0 128 -13 246q5 0 14.5 -1t17.5 -1.5t15 -0.5q6 0 20.5 1.5t20.5 1.5
q-13 -118 -13 -246q95 0 191 6q-1 -13 -1 -37q0 -6 0.5 -18.5t0.5 -18.5q-63 6 -191 6z" />
    <glyph glyph-name="daggerdbl" unicode="&#x2021;" 
d="M319 260q-10 -51 -10 -168q101 0 182 8q0 -6 -0.5 -18.5t-1.5 -18.5q0 -24 2 -35q-98 8 -182 8q1 -37 5.5 -109t4.5 -108q-36 3 -41 3t-41 -3q0 36 4.5 108t5.5 109q-84 0 -182 -8q2 11 2 35q-1 6 -1.5 18.5t-0.5 18.5q81 -8 182 -8q0 117 -10 168q10 51 10 170
q-91 0 -182 -9q1 6 1 18t1 18q0 24 -2 36q85 -7 182 -7q0 35 -4.5 107t-5.5 108q36 -3 41 -3t41 3q-1 -36 -5.5 -108t-4.5 -107q97 0 182 7q-2 -12 -2 -36q1 -6 1 -18t1 -18q-92 9 -182 9q0 -119 10 -170z" />
    <glyph glyph-name="bullet" unicode="&#x2022;" horiz-adv-x="500" 
d="M76 349q0 72 51 123t123 51t123.5 -51t51.5 -123t-51.5 -123.5t-123.5 -51.5t-123 51.5t-51 123.5z" />
    <glyph glyph-name="ellipsis" unicode="&#x2026;" horiz-adv-x="1000" 
d="M247 64q0 -32 -24 -55.5t-56 -23.5t-55.5 23.5t-23.5 55.5t24 56t55 24t55.5 -24t24.5 -56zM913 64q0 -32 -24 -55.5t-56 -23.5t-55.5 23.5t-23.5 55.5t24 56t55 24t55.5 -24t24.5 -56zM580 64q0 -32 -24 -55.5t-56 -23.5t-55.5 23.5t-23.5 55.5t24 56t55 24q32 0 56 -24
t24 -56z" />
    <glyph glyph-name="perthousand" unicode="&#x2030;" horiz-adv-x="1000" 
d="M10 539q0 69 41.5 117.5t112.5 48.5q72 0 113 -46.5t41 -119.5q0 -70 -41 -118t-113 -48q-69 0 -111.5 45t-42.5 121zM335 151q0 69 41.5 117.5t112.5 48.5q72 0 113 -46.5t41 -119.5q0 -70 -41 -118t-113 -48q-69 0 -111.5 45t-42.5 121zM682 151q0 69 41.5 117.5
t112.5 48.5q72 0 113 -46.5t41 -119.5q0 -70 -41 -118t-113 -48q-69 0 -111.5 45t-42.5 121zM80 -30l440 750h54l-440 -750h-54zM106 539q0 -136 58 -136q9 0 17 3t13.5 7.5t10 12.5t7.5 14.5t5 17.5t3 18t1.5 18.5t0.5 16.5v16v12q0 90 -21 118q-14 18 -37 18
q-58 0 -58 -136zM431 151q0 -136 58 -136q9 0 17 3t13.5 7.5t10 12.5t7.5 14.5t5 17.5t3 18t1.5 18.5t0.5 16.5v16v12v5q0 24 -1 39.5t-5.5 40t-18 38t-33.5 13.5q-58 0 -58 -136zM778 151q0 -136 58 -136q9 0 17 3t13.5 7.5t10 12.5t7.5 14.5t5 17.5t3 18t1.5 18.5
t0.5 16.5v16v12q0 136 -58 136t-58 -136z" />
    <glyph glyph-name="guilsinglleft" unicode="&#x2039;" horiz-adv-x="278" 
d="M221 404l18 -17l-101 -149l99 -150l-18 -16q-32 28 -180 166q122 110 182 166z" />
    <glyph glyph-name="guilsinglright" unicode="&#x203a;" horiz-adv-x="278" 
d="M57 72l-18 17l101 149l-99 150l18 16q32 -28 180 -166q-122 -110 -182 -166z" />
    <glyph glyph-name="fraction" unicode="&#x2044;" horiz-adv-x="167" 
d="M-163 -30l439 750h54l-439 -750h-54z" />
    <glyph glyph-name="Euro" unicode="&#x20ac;" 
d="M30 296h42q-2 16 -2 48v21h-50l10 50h45q12 79 45.5 144t95.5 109.5t141 44.5q40 0 99.5 -13t72.5 -15l7 -164l-30 -3q-24 151 -140 151q-29 0 -57.5 -12.5t-56 -39.5t-46.5 -79t-24 -123h276l-10 -50h-267q0 -38 4 -69h250l-10 -50h-232q19 -94 67.5 -153.5t128.5 -59.5
q77 0 135 55l20 -23q-34 -36 -85.5 -58t-104.5 -22q-115 0 -184.5 73.5t-90.5 187.5h-59z" />
    <glyph glyph-name="afii61289" unicode="&#x2113;" horiz-adv-x="490" 
d="M440 138q3 -2 10 -9.5t12 -10.5q-70 -129 -190 -129q-83 0 -119.5 46t-36.5 147v38l-64 -44l-15 30q17 13 79 59v139q0 118 9 177.5t34 98.5q50 79 122 79q52 0 79 -42t27 -106q0 -170 -165 -325v-64q0 -91 23.5 -128t72.5 -37q62 0 122 81zM222 475v-135q81 98 95 227
q3 23 3 46v10q-2 99 -47 99q-29 0 -40 -55.5t-11 -191.5z" />
    <glyph glyph-name="trademark" unicode="&#x2122;" horiz-adv-x="990" 
d="M438 294v24q29 1 40.5 12.5t11.5 34.5v258q0 23 -21.5 37t-48.5 14v24h139l139 -289l151 289h124v-24q-32 -1 -42 -11.5t-10 -35.5v-262q0 -19 9.5 -31.5t39.5 -15.5v-24h-197v24q32 1 42 13.5t10 33.5v222h-3l-148 -294h-13l-139 292h-2v-220q0 -24 10.5 -35t40.5 -12
v-24h-133zM99 294v24q25 0 38 9.5t13 23.5v323h-43q-52 -1 -66 -64h-24v88h362v-88h-24q-14 63 -66 64h-43v-323v-5t0.5 -5.5t2 -6l5 -5t8 -5t11.5 -3.5t17 -3v-24h-191z" />
    <glyph glyph-name="Omega" unicode="&#x2126;" horiz-adv-x="768" 
d="M313 152l16 -152h-295v162h15q9 -37 22 -49t44 -12h158l-2 28q-61 18 -99.5 42t-67.5 67q-33 49 -44 105t-2.5 103t30.5 87q7 13 15.5 25t15.5 20.5t16 17.5t14.5 14t15 11.5t13.5 8.5t13.5 7.5t10.5 6.5q75 44 183 44t183 -44q1 -1 10.5 -6.5t13.5 -7.5t13.5 -8.5
t15 -11.5t14.5 -14t16 -17.5t15.5 -20.5t15.5 -25q22 -40 30.5 -87t-2.5 -103t-44 -105q-29 -43 -67.5 -67t-99.5 -42l-2 -28h158q31 0 44 12t22 49h15v-162h-295l16 152q2 1 14 6t17 7.5t16 9t18.5 13.5t17.5 18t18.5 26t16.5 34q18 41 23.5 100.5t-11 128t-57.5 109.5
q-52 52 -145 52t-145 -52q-41 -41 -57.5 -109.5t-11 -128t23.5 -100.5q8 -19 16.5 -34t18.5 -26t17.5 -18t18.5 -13.5t16 -9t17 -7.5t14 -6z" />
    <glyph glyph-name="estimated" unicode="&#x212e;" horiz-adv-x="742" 
d="M698 340h-511v-230q75 -75 183 -75q79 0 138 36.5t106 115.5q8 -5 22 -13.5t22 -12.5q-58 -92 -123.5 -131.5t-164.5 -39.5q-146 0 -236 100t-90 250t90 250t236 100q145 0 235.5 -97.5t92.5 -252.5zM187 386h368v183q-79 76 -186 76q-108 0 -182 -76v-183z" />
    <glyph glyph-name="onethird" unicode="&#x2153;" horiz-adv-x="834" 
d="M250 705v-378q0 -10 7 -14.5t16 -5.5t30 -1h15v-24q-72 2 -109 2q-40 0 -118 -2v24h14q14 0 21 0.5t16.5 2t13.5 6t4 11.5v305q-33 -17 -83 -38l-10 20q48 23 85 46q54 32 75 46h23zM170 -30l440 750h54l-440 -750h-54zM549 191l-4 20q119 36 119 100q0 26 -19 43.5
t-49 17.5q-42 0 -78 -36l-13 15q60 71 133 71q40 0 71 -21t31 -55q0 -40 -25 -65t-72 -45l2 -1h11q49 0 79.5 -24t30.5 -69q0 -65 -60 -108.5t-133 -43.5q-69 0 -83 33q-5 10 -5 25q0 1 7 6q14 4 24 4h3q8 -20 27.5 -32t43.5 -12q41 0 67.5 28t26.5 65q0 41 -21 66.5
t-54 25.5h-4q-28 0 -56 -8z" />
    <glyph glyph-name="twothirds" unicode="&#x2154;" horiz-adv-x="834" 
d="M197 -30l440 750h54l-440 -750h-54zM576 191l-4 20q119 36 119 100q0 26 -19 43.5t-49 17.5q-42 0 -78 -36l-13 15q60 71 133 71q40 0 71 -21t31 -55q0 -40 -25 -65t-72 -45l2 -1h11q49 0 79.5 -24t30.5 -69q0 -65 -60 -108.5t-133 -43.5q-69 0 -83 33q-5 10 -5 25
q0 1 7 6q14 4 24 4h3q8 -20 27.5 -32t43.5 -12q41 0 67.5 28t26.5 65q0 41 -21 66.5t-54 25.5h-4q-28 0 -56 -8zM41 282v23q77 51 139.5 121t62.5 137q0 36 -23 61t-64 25q-49 0 -86 -52l-13 14q19 41 58.5 67.5t86.5 26.5q54 0 85.5 -30t31.5 -79q0 -23 -10 -48.5t-21 -44
t-35 -45t-35.5 -38.5t-41 -38.5t-34.5 -31.5h177q9 13 17 33h20q-12 -65 -15 -101h-300z" />
    <glyph glyph-name="oneeighth" unicode="&#x215b;" horiz-adv-x="834" 
d="M251 705v-378q0 -10 7 -14.5t16 -5.5t30 -1h15v-24q-72 2 -109 2q-40 0 -118 -2v24h14q14 0 21 0.5t16.5 2t13.5 6t4 11.5v305q-33 -17 -83 -38l-10 20q48 23 85 46q54 32 75 46h23zM171 -30l440 750h54l-440 -750h-54zM502 93q0 41 19.5 65t59.5 41q-1 0 -1 1l-2 1
q-68 44 -68 111q0 62 41.5 91.5t91.5 29.5q48 0 82 -26.5t34 -74.5q0 -62 -76 -102q83 -40 83 -114q0 -55 -40 -90t-95 -35q-50 0 -89.5 27t-39.5 75zM559 99q0 -35 20.5 -56.5t54.5 -21.5q27 0 43.5 17.5t16.5 45.5q0 23 -13 42t-26 28t-39 24q-3 1 -7 4t-7 4
q-19 -13 -31 -37.5t-12 -49.5zM577 341q0 -58 83 -98q41 34 41 85q0 31 -18 53t-48 22q-24 0 -41 -18.5t-17 -43.5z" />
    <glyph glyph-name="threeeighths" unicode="&#x215c;" horiz-adv-x="834" 
d="M186 -30l440 750h54l-440 -750h-54zM517 93q0 41 19.5 65t59.5 41l-1 1q-1 1 -2 1q-68 44 -68 111q0 62 41.5 91.5t91.5 29.5q48 0 82 -26.5t34 -74.5q0 -62 -76 -102q83 -40 83 -114q0 -55 -40 -90t-95 -35q-50 0 -89.5 27t-39.5 75zM574 99q0 -35 20.5 -56.5
t54.5 -21.5q27 0 43.5 17.5t16.5 45.5q0 23 -13 42t-26 28t-39 24q-3 1 -7 4t-7 4q-19 -13 -31 -37.5t-12 -49.5zM592 341q0 -58 83 -98q41 34 41 85q0 31 -18 53t-48 22q-24 0 -41 -18.5t-17 -43.5zM116 474l-4 20q119 36 119 100q0 26 -19 43.5t-49 17.5q-42 0 -78 -36
l-13 15q60 71 133 71q40 0 71 -21t31 -55q0 -40 -25 -65t-72 -45l2 -1h11q49 0 79.5 -24t30.5 -69q0 -65 -60 -108.5t-133 -43.5q-69 0 -83 33q-5 10 -5 25q0 1 7 6q14 4 24 4h3q8 -20 27.5 -32t43.5 -12q41 0 67.5 28t26.5 65q0 41 -21 66.5t-54 25.5h-4q-28 0 -56 -8z" />
    <glyph glyph-name="fiveeighths" unicode="&#x215d;" horiz-adv-x="834" 
d="M163 -30l440 750h54l-440 -750h-54zM494 93q0 41 19.5 65t59.5 41q-1 0 -1 1l-2 1q-68 44 -68 111q0 62 41.5 91.5t91.5 29.5q48 0 82 -26.5t34 -74.5q0 -62 -76 -102q83 -40 83 -114q0 -55 -40 -90t-95 -35q-50 0 -89.5 27t-39.5 75zM551 99q0 -35 20.5 -56.5
t54.5 -21.5q27 0 43.5 17.5t16.5 45.5q0 23 -13 42t-26 28t-39 24q-3 1 -7.5 4t-6.5 4q-19 -13 -31 -37.5t-12 -49.5zM569 341q0 -58 83 -98q41 34 41 85q0 31 -18 53t-48 22q-24 0 -41 -18.5t-17 -43.5zM106 517l60 189h177l-23 -70h-145q-11 -33 -17 -50q161 -46 161 -165
q0 -66 -50 -107t-118 -41q-27 0 -51.5 11.5t-24.5 36.5q0 26 23 26q10 0 21 -15l3 -3q21 -26 53 -26q36 0 57 24t21 60q0 51 -44.5 85t-102.5 45z" />
    <glyph glyph-name="seveneighths" unicode="&#x215e;" horiz-adv-x="834" 
d="M149 -30l440 750h54l-440 -750h-54zM480 93q0 41 19.5 65t59.5 41q-1 0 -1 1l-2 1q-68 44 -68 111q0 62 41.5 91.5t91.5 29.5q48 0 82 -26.5t34 -74.5q0 -62 -76 -102q83 -40 83 -114q0 -55 -40 -90t-95 -35q-50 0 -89.5 27t-39.5 75zM537 99q0 -35 20.5 -56.5
t54.5 -21.5q27 0 43.5 17.5t16.5 45.5q0 23 -13 42t-26 28t-39 24q-3 1 -7.5 4t-6.5 4q-19 -13 -31 -37.5t-12 -49.5zM555 341q0 -58 83 -98q41 34 41 85q0 31 -18 53t-48 22q-24 0 -41 -18.5t-17 -43.5zM127 284l180 347h-177q-2 -5 -8.5 -18.5t-9.5 -19.5h-22l14 113h278
l7 -11l-224 -428z" />
    <glyph glyph-name="partialdiff" unicode="&#x2202;" horiz-adv-x="494" 
d="M104 667l-39 50q98 43 181 23q106 -26 168 -134q48 -85 48 -213q0 -46 -13 -126t-39 -136q-24 -51 -44.5 -79t-59.5 -49q-54 -27 -104 -23.5t-91 31.5q-77 52 -84 145q-8 98 55 175q60 74 142 71q43 -1 70.5 -14t79.5 -54q9 48 11 116q1 34 -10 82.5t-22 76.5
q-13 29 -42 57.5t-70 31.5q-18 1 -31.5 1t-22.5 -1t-19.5 -4.5t-17 -6t-21 -9t-25.5 -11.5zM366 299q0 1 -12.5 15t-18 18.5t-18.5 14t-27.5 13t-31.5 3.5q-57 -2 -96 -54q-50 -69 -50 -161q0 -94 46 -125q39 -25 83 -5q51 22 81 93q30 74 44 188z" />
    <glyph glyph-name="Delta" unicode="&#x2206;" horiz-adv-x="612" 
d="M326 688l282 -688h-602zM290 517l-218 -468h412z" />
    <glyph glyph-name="product" unicode="&#x220f;" horiz-adv-x="823" 
d="M706 629v-626q0 -49 23.5 -65t73.5 -16v-23h-306v23q49 0 72.5 16t23.5 65v693h-358v-693q0 -49 23.5 -65t73.5 -16v-23h-307v23q50 0 73.5 16t23.5 65v626q0 99 -95 99v23h773v-23q-94 0 -94 -99z" />
    <glyph glyph-name="summation" unicode="&#x2211;" horiz-adv-x="713" 
d="M617 745l6 -159h-20q-1 5 -4 13q-8 28 -14 41.5t-21.5 30t-43 23t-70.5 6.5h-263l273 -358l-294 -339h371q57 0 82.5 22t52.5 91h23q-30 -123 -43 -224q-72 11 -77 11h-503q-10 0 -29 -1.5t-29 -1.5l349 398l-347 454q8 0 46 -3.5t58 -3.5h497z" />
    <glyph glyph-name="minus" unicode="&#x2212;" 
d="M530 207h-504v90h504v-90z" />
    <glyph glyph-name="uni2215" unicode="&#x2215;" horiz-adv-x="167" 
d="M-163 -30l439 750h54l-439 -750h-54z" />
    <glyph glyph-name="uni2219" unicode="&#x2219;" horiz-adv-x="278" 
d="M60 284q0 33 23.5 56.5t56.5 23.5q32 0 55.5 -23.5t23.5 -56.5q0 -32 -23.5 -55.5t-55.5 -23.5q-33 0 -56.5 23.5t-23.5 55.5z" />
    <glyph glyph-name="radical" unicode="&#x221a;" horiz-adv-x="549" 
d="M26 417l-16 33l146 72l197 -403l127 798l35 -5l-150 -950l-243 502z" />
    <glyph glyph-name="infinity" unicode="&#x221e;" horiz-adv-x="713" 
d="M357 297q49 45 72.5 62t56.5 32q71 31 133 -6.5t69 -105.5q6 -59 -37.5 -109.5t-109.5 -44.5q-29 3 -55.5 12.5t-47.5 23.5t-35 26t-28.5 26.5l-17.5 17.5l-17.5 -17.5t-28.5 -26.5t-35 -26t-47.5 -23.5t-55.5 -12.5q-66 -6 -109.5 44.5t-37.5 109.5q7 68 69 105.5
t133 6.5q33 -15 56.5 -32t72.5 -62zM324 264q-80 67 -119 81q-58 20 -94 -12.5t-35 -73.5q1 -43 37.5 -68.5t78.5 -15.5q27 6 48 18t33.5 23t50.5 48zM390 264q31 -30 39 -37.5t26.5 -22t32 -19.5t34.5 -10q42 -10 78.5 15.5t37.5 68.5q1 41 -35 73.5t-94 12.5
q-39 -14 -119 -81z" />
    <glyph glyph-name="integral" unicode="&#x222b;" horiz-adv-x="274" 
d="M190 488l-1 -216q-1 -177 -34 -293q-11 -39 -29 -61q-9 -11 -37.5 -21t-50.5 1q-23 11 -33 39q-13 36 24 55q20 6 30.5 1.5t26.5 -21.5q25 -27 36 32q5 31 4 70q-6 239 -6 314v144q0 222 26 310q14 46 45 65q25 11 44 8t34 -13q14 -9 20 -28t-7 -39q-12 -14 -33.5 -18
t-37.5 11q-17 16 -28 11t-12 -21q-1 -13 9 -133t10 -197z" />
    <glyph glyph-name="approxequal" unicode="&#x2248;" 
d="M473 435l36 -64q-20 -27 -33 -42t-38 -29.5t-54 -14.5q-42 0 -102 33q-66 37 -115 37q-48 0 -84 -70l-36 72q50 78 125 78q39 0 111 -32q7 -3 21.5 -9.5t23 -10t20 -8t20.5 -6.5t17 -2q19 0 37 12.5t25.5 22t25.5 33.5zM473 255l36 -64q-20 -27 -33 -42t-38 -29.5
t-54 -14.5q-42 0 -102 33q-66 37 -115 37q-48 0 -84 -70l-36 72q50 78 125 78q39 0 111 -32q7 -3 21.5 -9.5t23 -10t20 -8t20.5 -6.5t17 -2q19 0 37 12.5t25.5 22t25.5 33.5z" />
    <glyph glyph-name="notequal" unicode="&#x2260;" 
d="M465 514l-64 -115h129v-90h-180l-64 -114h244v-90h-294l-77 -137l-79 44l52 93h-106v90h157l64 114h-221v90h271l90 159z" />
    <glyph glyph-name="lessequal" unicode="&#x2264;" 
d="M532 212v-89l-508 221v68l508 221v-89l-383 -166zM26 0v90h504v-90h-504z" />
    <glyph glyph-name="greaterequal" unicode="&#x2265;" 
d="M24 212v-89l508 221v68l-508 221v-89l383 -166zM530 0v90h-504v-90h504z" />
    <glyph glyph-name="lozenge" unicode="&#x25ca;" horiz-adv-x="494" 
d="M272 0h-60l-194 377l194 368h60l194 -368zM406 377l-164 314l-164 -314l164 -323z" />
    <glyph glyph-name="grave.cap" unicode="&#xe000;" horiz-adv-x="278" 
d="M77 899l147 -148h-40l-154 97q-29 16 -29 37q0 38 35 38q17 0 41 -24z" />
    <glyph glyph-name="acute.cap" unicode="&#xe002;" horiz-adv-x="278" 
d="M86 751h-40l147 148q24 24 41 24q35 0 35 -38q0 -21 -29 -37z" />
    <glyph glyph-name="circumflex.cap" unicode="&#xe004;" horiz-adv-x="278" 
d="M108 918h62l125 -167h-35l-121 103l-122 -103h-33z" />
    <glyph glyph-name="caron.cap" unicode="&#xe006;" horiz-adv-x="278" 
d="M170 751h-62l-124 167h33l122 -103l121 103h35z" />
    <glyph glyph-name="caron.alt" unicode="&#xe008;" horiz-adv-x="278" 
d="M117 539h-24l9 140q2 48 39 48q20 0 32 -9t12 -22q0 -18 -13 -43z" />
    <glyph glyph-name="tilde.cap" unicode="&#xe009;" horiz-adv-x="278" 
d="M4 775h-29q9 45 32.5 76.5t63.5 31.5q25 0 79 -22q56 -22 76 -22q40 0 47 45h30q-8 -45 -31 -76t-64 -31q-30 0 -84 24q-56 23 -71 23q-34 0 -49 -49z" />
    <glyph glyph-name="dieresis.cap" unicode="&#xe00b;" horiz-adv-x="278" 
d="M-20 822q0 23 16.5 39.5t39.5 16.5t39.5 -16.5t16.5 -39.5t-16.5 -39.5t-39.5 -16.5t-39.5 16.5t-16.5 39.5zM186 822q0 23 16.5 39.5t39.5 16.5t39.5 -16.5t16.5 -39.5t-16.5 -39.5t-39.5 -16.5t-39.5 16.5t-16.5 39.5z" />
    <glyph glyph-name="macron.cap" unicode="&#xe00d;" horiz-adv-x="278" 
d="M277 795h-276v50h276v-50z" />
    <glyph glyph-name="breve.cap" unicode="&#xe00f;" horiz-adv-x="278" 
d="M250 904h30q-5 -69 -40.5 -113t-102.5 -44q-65 0 -104 46t-34 111h30q18 -95 113 -95q43 0 71 26t37 69z" />
    <glyph glyph-name="ring.cap" unicode="&#xe011;" horiz-adv-x="278" 
d="M247 832q0 -40 -28.5 -68.5t-68.5 -28.5t-68.5 28.5t-28.5 68.5t28.5 68.5t68.5 28.5t68.5 -28.5t28.5 -68.5zM218 832q0 26 -20.5 47t-47.5 21t-47.5 -20.5t-20.5 -47.5t21 -47.5t47 -20.5t47 21t21 47z" />
    <glyph glyph-name="hungarumlaut.cap" unicode="&#xe013;" horiz-adv-x="278" 
d="M-12 751h-40l147 148q24 24 41 24q35 0 35 -38q0 -21 -29 -37zM190 752h-40l147 148q24 24 41 24q35 0 35 -38q0 -21 -29 -37z" />
    <glyph glyph-name="dotaccent.cap" unicode="&#xe015;" horiz-adv-x="278" 
d="M83 822q0 23 16.5 39.5t39.5 16.5t39.5 -16.5t16.5 -39.5t-16.5 -39.5t-39.5 -16.5t-39.5 16.5t-16.5 39.5z" />
    <glyph glyph-name="commaaccent" unicode="&#xe017;" horiz-adv-x="278" 
d="M89 -228l-14 24q28 5 49.5 19t21.5 33q0 12 -9 15t-29 3q-15 0 -25.5 11.5t-10.5 26.5q0 19 15.5 32t39.5 13q31 0 49 -22t18 -48q0 -41 -30.5 -69t-74.5 -38z" />
    <glyph glyph-name="commaaccent.alt" unicode="&#xe01a;" horiz-adv-x="278" 
d="M183 726l14 -24q-28 -5 -49.5 -19t-21.5 -33q0 -12 9 -15t29 -3q15 0 25.5 -11.5t10.5 -26.5q0 -19 -15.5 -32t-39.5 -13q-31 0 -49 22t-18 48q0 41 30.5 69t74.5 38z" />
    <glyph glyph-name="uniF8FF" unicode="&#xf8ff;" horiz-adv-x="485" 
d="M263 111h-53v63h53v-63zM257 222h-46v16q0 50 11 75.5t46 55.5q28 27 37 44t9 36q0 33 -21 56.5t-51 23.5q-67 0 -77 -90q-8 2 -24 4.5t-24 3.5q7 66 41 98t87 32q52 0 85 -34t33 -90q0 -32 -12.5 -56.5t-47.5 -56.5t-40.5 -47.5t-5.5 -70.5zM47 47h391v585h-391v-585z
M0 680h485v-680h-485v680z" />
    <glyph glyph-name="zero.onum" 
d="M44 237q0 100 67.5 166.5t166.5 66.5t166.5 -66.5t67.5 -166.5q0 -108 -67.5 -178.5t-166.5 -70.5t-166.5 70.5t-67.5 178.5zM120 229q0 -64 44 -115.5t114 -51.5t114 51.5t44 115.5q0 74 -46 120.5t-112 46.5t-112 -46.5t-46 -120.5z" />
    <glyph glyph-name="one.onum" 
d="M97 0v30h29q65 0 80.5 11.5t15.5 56.5v255q0 51 -12 63t-58 12h-55v30q21 0 58.5 -1t67.5 -1.5t55 -0.5q7 0 181 3v-30h-55q-46 0 -58 -12t-12 -63v-255q0 -45 15.5 -56.5t80.5 -11.5h29v-30q-168 3 -181 3q-23 0 -53 -0.5t-68 -1.5t-60 -1z" />
    <glyph glyph-name="two.onum" 
d="M43 0v30q51 21 106 57t102 93t47 111q0 45 -25 72t-65 27q-69 0 -122 -66l-19 20q92 126 202 126q68 0 104.5 -39t36.5 -90q0 -68 -66.5 -137t-136.5 -107v1v-2h244l24 38h30l-26 -134q-21 0 -59 1t-69.5 1.5t-59.5 0.5q-37 0 -78 -0.5t-91.5 -1.5t-78.5 -1z" />
    <glyph glyph-name="three.onum" 
d="M125 106l-7 33q183 54 183 169q0 45 -27.5 69.5t-61.5 24.5q-61 0 -108 -57l-14 30q99 95 192 95q60 0 95.5 -32.5t35.5 -81.5q0 -59 -38.5 -98.5t-119.5 -79.5v-4q42 7 62 7q57 0 94.5 -37.5t37.5 -96.5q0 -98 -86 -180.5t-217 -82.5q-38 0 -67 14t-29 44q0 13 8.5 24
t21.5 11q16 0 23 -15q22 -42 94 -42q55 0 97.5 47.5t42.5 118.5q0 68 -35.5 103.5t-89.5 35.5q-52 0 -87 -19z" />
    <glyph glyph-name="four.onum" 
d="M19 0v46l298 412h90v-368h79v-90h-79v-204h-112v204h-276zM295 90v278h-2l-191 -278h193z" />
    <glyph glyph-name="five.onum" 
d="M104 176l90 282h272l-35 -96h-230l-27 -87q106 -30 179.5 -95t73.5 -161t-72.5 -165.5t-174.5 -69.5q-52 0 -90 17t-38 46q0 16 10 27.5t24 11.5q13 0 20 -11q36 -55 103 -55q56 0 89 41t33 94q0 154 -227 221z" />
    <glyph glyph-name="six.onum" 
d="M200 277l-7 30q75 73 152 73q68 0 113 -48t45 -123q0 -92 -65.5 -156.5t-158.5 -64.5q-108 0 -171 77.5t-63 179.5q0 112 72.5 210.5t179.5 155t217 63.5l3 -30q-144 -19 -247 -128.5t-103 -262.5q0 -91 40 -160t100 -69q39 0 64.5 31t25.5 80q0 73 -37.5 122t-87.5 49
q-35 0 -72 -29z" />
    <glyph glyph-name="seven.onum" 
d="M46 289l26 169h451l8 -9l-368 -665l-51 14l300 554h-312l-24 -63h-30z" />
    <glyph glyph-name="eight.onum" 
d="M73 154q0 63 38.5 101.5t90.5 56.5q-117 70 -117 178q0 27 10.5 57t32.5 59.5t64 48.5t97 19q86 0 132 -44.5t46 -103.5q0 -57 -27 -93t-103 -71q76 -39 111 -82.5t35 -102.5q0 -83 -60 -136t-157 -53q-85 0 -139 49.5t-54 116.5zM268 24q52 0 80.5 31.5t28.5 73.5
q0 45 -29.5 80t-117.5 88q-38 -20 -59.5 -57t-21.5 -77q0 -65 37 -102t82 -37zM181 529q0 -43 30.5 -77t102.5 -76q38 30 57.5 61.5t19.5 77.5q0 55 -31.5 89t-76.5 34q-47 0 -74.5 -32t-27.5 -77z" />
    <glyph glyph-name="nine.onum" 
d="M351 181l7 -30q-75 -73 -152 -73q-68 0 -113 48t-45 123q0 92 65.5 156.5t158.5 64.5q108 0 171 -77.5t63 -179.5q0 -112 -72.5 -210.5t-179.5 -155t-217 -63.5l-3 30q144 19 247 128.5t103 262.5q0 91 -40 160t-100 69q-39 0 -64.5 -31t-25.5 -80q0 -73 37.5 -122
t87.5 -49q35 0 72 29z" />
    </font>
</defs>
</svg>
