<svg xmlns="http://www.w3.org/2000/svg">
<defs>
<font id="SabonLTPro-Roman" horiz-adv-x="556" >
  <font-face 
    font-family="Sabon LT Pro"
    font-weight="400"
    font-stretch="normal"
    units-per-em="1000"
    panose-1="2 2 6 2 6 5 6 2 4 3"
    ascent="764"
    descent="-236"
    x-height="442"
    cap-height="698"
    bbox="-165 -228 1000 976"
    underline-thickness="50"
    underline-position="-200"
    unicode-range="U+000D-FB04"
  />
<missing-glyph horiz-adv-x="485" 
d="M263 111h-53v63h53v-63zM257 222h-46v16q0 50 11 75.5t46 55.5q28 27 37 44t9 36q0 33 -21 56.5t-51 23.5q-67 0 -77 -90q-8 2 -24 4.5t-24 3.5q7 66 41 98t87 32q52 0 85 -34t33 -90q0 -32 -12.5 -56.5t-47.5 -56.5t-40.5 -47.5t-5.5 -70.5zM47 47h391v585h-391v-585z
M0 680h485v-680h-485v680z" />
    <glyph glyph-name="IJ" unicode="IJ" horiz-adv-x="668" 
d="M117 98v502q0 25 -6 40.5t-20.5 21.5t-27 8t-37.5 2v26q94 -2 138 -2q42 0 142 2v-26q-25 0 -37.5 -2t-27 -8t-20.5 -21.5t-6 -40.5v-502q0 -25 6 -40.5t20.5 -21.5t27 -8t37.5 -2v-26q-24 0 -69 1t-66 1q-45 0 -145 -2v26q25 0 37.5 2t27 8t20.5 21.5t6 40.5zM551 600
v-514q0 -64 -6.5 -106.5t-14.5 -61t-25 -48.5q-20 -36 -64 -59.5t-92 -23.5q-42 0 -72.5 17t-30.5 50q0 21 13 33t29 11q13 0 22.5 -9.5t9.5 -26.5q0 -20 15.5 -31.5t38.5 -11.5q19 0 33 9t22.5 27.5t13.5 35.5t7 45t2.5 44t0.5 44v576q0 25 -6 40.5t-20.5 21.5t-27 8
t-37.5 2v26q94 -2 138 -2q42 0 142 2v-26q-25 0 -37.5 -2t-27 -8t-20.5 -21.5t-6 -40.5z" />
    <glyph glyph-name="ij" unicode="ij" horiz-adv-x="530" 
d="M32 0v26h19q18 0 26 1t15 8.5t7 23.5v271q0 21 -6.5 34t-14 18t-31.5 18v16q98 29 107 36q9 5 18 5q7 0 7 -14v-384q0 -16 7.5 -23.5t16 -8.5t26.5 -1h17v-26q-17 0 -52 1t-53 1q-35 0 -109 -2zM188 661q0 -20 -14.5 -35t-34.5 -15q-19 0 -34 15t-15 35q0 19 15 33.5
t34 14.5q20 0 34.5 -14t14.5 -34zM431 443v-481q0 -36 -8 -63.5t-19 -44.5t-35 -33.5t-41.5 -25t-53.5 -23.5l-7 23q30 15 48 29.5t25.5 36t9 38.5t1.5 53v378q0 31 -12 42.5t-54 27.5v16q90 17 121 36q9 5 18 5q7 0 7 -14zM440 661q0 -20 -14.5 -35t-34.5 -15q-19 0 -34 15
t-15 35q0 19 15 33.5t34 14.5q20 0 34.5 -14t14.5 -34z" />
    <glyph glyph-name="napostrophe" unicode="&#x22;n" 
d="M93 59v265q0 27 -11 39t-47 27v19q87 28 132 48q6 0 6 -10v-65q36 26 57 39t52.5 24.5t63.5 11.5q115 0 115 -140v-258q0 -16 7.5 -23.5t16 -8.5t26.5 -1h18v-26q-17 0 -52.5 1t-53.5 1q-36 0 -108 -2v26h18q18 0 26 1t15 8.5t7 23.5v259q0 42 -24 63.5t-68 21.5
t-116 -48v-296q0 -16 7.5 -23.5t16 -8.5t26.5 -1h18v-26q-17 0 -52.5 1t-53.5 1q-36 0 -108 -2v26h18q18 0 26 1t15 8.5t7 23.5zM14 539h-20l15 140q2 16 12 27t25 11t25.5 -7.5t10.5 -20.5q0 -16 -13 -41z" />
    <glyph glyph-name="ij.sc" unicode="&#xe63a;&#xe643;" horiz-adv-x="670" 
d="M123 70v350q0 27 -17.5 35.5t-56.5 8.5v26q76 -2 115 -2q45 0 119 2v-26q-39 0 -56.5 -8.5t-17.5 -35.5v-350q0 -27 17.5 -35.5t56.5 -8.5v-26q-74 2 -119 2q-39 0 -115 -2v26q39 0 56.5 8.5t17.5 35.5zM443 -9v429q0 27 -20.5 35.5t-75.5 8.5v26q120 -2 137 -2
q37 0 127 2v-26q-45 0 -63.5 -8.5t-18.5 -35.5v-371q0 -114 -47.5 -174t-103.5 -60q-87 0 -87 60q0 13 9 22t23 9q19 0 27 -23q11 -36 41 -36q31 0 41.5 36t10.5 108z" />
    <glyph glyph-name="f_f" unicode="ff" horiz-adv-x="606" 
d="M465 442h127v-54h-127v-338q0 -16 12 -20t35 -4h45v-26q-86 2 -128 2t-124 -2v26h38q42 0 42 32v330h-206v-338q0 -16 12 -20t35 -4h26v-26q-48 2 -109 2q-47 0 -119 -2v26h33q42 0 42 32v330h-70v17q1 1 12.5 6.5t19.5 10.5t17.5 12.5t15 16.5t5.5 19q0 144 78 225
q36 37 70 53t51 16q45 0 45 -41q0 -39 -35 -39q-14 0 -30 7t-34 7q-67 0 -67 -113l2 -143h206q0 62 19 136t61 117q36 37 70 53t51 16q45 0 45 -41q0 -39 -35 -39q-14 0 -30 7t-34 7q-67 0 -67 -113v-143z" />
    <glyph glyph-name="fi" unicode="fi" 
d="M179 388v-338q0 -16 12 -20t35 -4h26v-26q-48 2 -109 2q-47 0 -119 -2v26h33q42 0 42 32v330h-70v17q1 1 12.5 6.5t19.5 10.5t17.5 12.5t15 16.5t5.5 19q0 132 75 213t190 81q48 0 78.5 -20t30.5 -58q0 -47 -43 -47q-23 0 -33 13t-11.5 29t-16.5 29t-47 13
q-36 0 -61.5 -13t-41 -35t-24.5 -59.5t-12 -76.5t-4 -97h199q26 0 42 5t22.5 10.5t8.5 5.5q14 0 14 -20v-384q0 -16 7.5 -23.5t16 -8.5t26.5 -1h17v-26q-17 0 -52 1t-53 1q-35 0 -109 -2v26h19q18 0 26 1t15 8.5t7 23.5v309q0 14 -6.5 17t-27.5 3h-172z" />
    <glyph glyph-name="fl" unicode="fl" 
d="M416 748l38 16h11v-705q0 -16 7.5 -23.5t16 -8.5t26.5 -1h17v-26q-17 0 -52 1t-53 1q-35 0 -109 -2v26h19q18 0 26 1t15 8.5t7 23.5v555q0 109 -79 109q-27 0 -47.5 -8t-34 -26.5t-22.5 -40.5t-13.5 -56.5t-6.5 -67.5t-3 -82h115v-54h-115v-338q0 -16 12 -20t35 -4h26
v-26q-48 2 -109 2q-47 0 -119 -2v26h33q42 0 42 32v330h-70v17q1 1 12.5 6.5t19.5 10.5t17.5 12.5t15 16.5t5.5 19q0 133 70 213.5t184 80.5q37 0 63 -16z" />
    <glyph glyph-name="f_f_i" unicode="ffi" horiz-adv-x="850" 
d="M179 442h206q0 141 75.5 231.5t189.5 90.5q48 0 78.5 -20t30.5 -58q0 -47 -43 -47q-23 0 -33 13t-11.5 29t-16.5 29t-47 13q-36 0 -61.5 -13t-41 -35t-24.5 -59.5t-12 -76.5t-4 -97h199q26 0 42 5t22.5 10.5t8.5 5.5q14 0 14 -20v-384q0 -16 7.5 -23.5t16 -8.5t26.5 -1
h17v-26q-17 0 -52 1t-53 1q-35 0 -109 -2v26h19q18 0 26 1t15 8.5t7 23.5v309q0 14 -6.5 17t-27.5 3h-172v-338q0 -16 12 -20t35 -4h26v-26q-48 2 -109 2q-47 0 -119 -2v26h33q42 0 42 32v330h-206v-338q0 -16 12 -20t35 -4h26v-26q-48 2 -109 2q-47 0 -119 -2v26h33
q42 0 42 32v330h-70v17q1 1 12.5 6.5t19.5 10.5t17.5 12.5t15 16.5t5.5 19q0 144 78 225q36 37 70 53t51 16q45 0 45 -41q0 -39 -35 -39q-14 0 -30 7t-34 7q-67 0 -67 -113z" />
    <glyph glyph-name="f_f_l" unicode="ffl" horiz-adv-x="850" 
d="M179 442h206q0 149 69.5 235.5t184.5 86.5q37 0 63 -16l38 16h11v-705q0 -16 7.5 -23.5t16 -8.5t26.5 -1h17v-26q-17 0 -52 1t-53 1q-35 0 -109 -2v26h19q18 0 26 1t15 8.5t7 23.5v555q0 109 -79 109q-27 0 -47.5 -8t-34 -26.5t-22.5 -40.5t-13.5 -56.5t-6.5 -67.5
t-3 -82h115v-54h-115v-338q0 -16 12 -20t35 -4h26v-26q-48 2 -109 2q-47 0 -119 -2v26h33q42 0 42 32v330h-206v-338q0 -16 12 -20t35 -4h26v-26q-48 2 -109 2q-47 0 -119 -2v26h33q42 0 42 32v330h-70v17q1 1 12.5 6.5t19.5 10.5t17.5 12.5t15 16.5t5.5 19q0 144 78 225
q36 37 70 53t51 16q45 0 45 -41q0 -39 -35 -39q-14 0 -30 7t-34 7q-67 0 -67 -113z" />
    <glyph glyph-name=".notdef" horiz-adv-x="485" 
d="M263 111h-53v63h53v-63zM257 222h-46v16q0 50 11 75.5t46 55.5q28 27 37 44t9 36q0 33 -21 56.5t-51 23.5q-67 0 -77 -90q-8 2 -24 4.5t-24 3.5q7 66 41 98t87 32q52 0 85 -34t33 -90q0 -32 -12.5 -56.5t-47.5 -56.5t-40.5 -47.5t-5.5 -70.5zM47 47h391v585h-391v-585z
M0 680h485v-680h-485v680z" />
    <glyph glyph-name=".null" horiz-adv-x="500" 
 />
    <glyph glyph-name="nonmarkingreturn" horiz-adv-x="333" 
 />
    <glyph glyph-name="CR" unicode="&#xd;" horiz-adv-x="0" 
 />
    <glyph glyph-name="space" unicode=" " horiz-adv-x="278" 
 />
    <glyph glyph-name="exclam" unicode="!" horiz-adv-x="333" 
d="M178 188h-23l-36 244q-15 99 -15 139q0 100 62 100q63 0 63 -100q0 -40 -15 -139zM167 -15q-27 0 -46.5 19t-19.5 46q0 26 20 46.5t46 20.5t46 -20t20 -47t-19.5 -46t-46.5 -19z" />
    <glyph glyph-name="quotedbl" unicode="&#x22;" 
d="M336 456l-15 148q-4 34 -4 44q0 50 43 50t43 -50q0 -10 -4 -44l-15 -148q-3 -26 -24 -26t-24 26zM172 456l-15 148q-4 34 -4 44q0 50 43 50t43 -50q0 -10 -4 -44l-15 -148q-3 -26 -24 -26t-24 26z" />
    <glyph glyph-name="numbersign" unicode="#" 
d="M497 272v-54h-111l-31 -218h-62l31 218h-129l-31 -218h-62l31 218h-104v54h112l21 146h-107v54h114l31 218h61l-31 -218h130l31 218h61l-31 -218h106v-54h-113l-21 -146h104zM353 418h-130l-21 -146h130z" />
    <glyph glyph-name="dollar" unicode="$" 
d="M447 695l8 -133h-24q-21 118 -131 119v-282q41 -16 71 -32t60 -40.5t45.5 -59t15.5 -78.5q0 -87 -53.5 -143.5t-138.5 -60.5v-74h-40v74q-49 0 -83 8t-92 30q-4 58 -21 147l20 4q21 -73 64.5 -117t111.5 -40v295q-81 33 -127.5 81t-46.5 126q0 79 49 133.5t125 60.5v74
h40v-74q76 -4 147 -18zM300 297v-280q46 6 73 43.5t27 87.5q0 57 -24 90t-76 59zM260 413v268q-44 -8 -69 -43t-25 -84q0 -50 23.5 -81.5t70.5 -59.5z" />
    <glyph glyph-name="percent" unicode="%" horiz-adv-x="1000" 
d="M900 158q0 -74 -50 -123.5t-122 -49.5q-70 0 -115 46t-45 114q0 74 50 123.5t122 49.5q70 0 115 -46t45 -114zM432 545q0 -74 -50 -123.5t-122 -49.5q-70 0 -115 46t-45 114q0 74 50 123.5t122 49.5q70 0 115 -46t45 -114zM352 548q0 131 -86 131q-34 0 -54.5 -27
t-26 -57t-5.5 -66q0 -131 86 -131q34 0 54.5 27t26 57t5.5 66zM820 161q0 131 -86 131q-34 0 -54.5 -27t-26 -57t-5.5 -66q0 -131 86 -131q34 0 54.5 27t26 57t5.5 66zM290 -24h-46l453 738h46z" />
    <glyph glyph-name="ampersand" unicode="&#x26;" horiz-adv-x="944" 
d="M891 93l16 -15q-81 -113 -176 -113q-22 0 -42 4.5t-39 17.5t-31.5 21.5t-31.5 31t-25.5 30.5t-27 36t-23.5 33q-6 -6 -29 -32t-30.5 -33.5t-28 -27t-33.5 -26t-33.5 -17.5t-41.5 -14.5t-45 -3.5q-84 0 -143.5 58.5t-59.5 142.5t42 136t126 99q-81 53 -81 132
q0 69 43 110.5t112 41.5q58 0 100 -31.5t42 -87.5q0 -77 -110 -137q115 -87 211 -216q42 49 91.5 122.5t49.5 105.5t-62 32v26q63 -3 127 -3q70 0 139 3v-26q-47 0 -76.5 -8t-56 -32.5t-45.5 -50.5t-62 -83.5t-88 -109.5q13 -15 42.5 -54.5t49 -61.5t53 -42t69.5 -20
q57 0 108 62zM141 241q0 -72 53.5 -127t125.5 -55q40 0 73 16t51 33t51 55q-80 108 -238 244q-54 -34 -85 -73t-31 -93zM385 580q0 45 -22 72t-63 27q-35 0 -57.5 -25.5t-22.5 -63.5q0 -29 17 -55t32 -37.5t48 -34.5q68 44 68 117z" />
    <glyph glyph-name="quotesingle" unicode="'" horiz-adv-x="278" 
d="M115 456l-15 148q-4 34 -4 44q0 50 43 50t43 -50q0 -10 -4 -44l-15 -148q-3 -26 -24 -26t-24 26z" />
    <glyph glyph-name="parenleft" unicode="(" horiz-adv-x="333" 
d="M229 713l23 -11q-60 -146 -83 -245t-23 -197q0 -225 103 -441l-23 -12q-146 207 -146 453q0 110 37 216t112 237z" />
    <glyph glyph-name="parenright" unicode=")" horiz-adv-x="333" 
d="M84 701l23 12q146 -207 146 -453q0 -110 -37 -216t-112 -237l-23 11q60 146 83 245t23 197q0 225 -103 441z" />
    <glyph glyph-name="asterisk" unicode="*" 
d="M234 521l16 -16q-5 -6 -23.5 -35t-35 -45.5t-33.5 -16.5q-15 0 -27.5 12.5t-12.5 27.5q0 23 20 36.5t53.5 22.5t42.5 14zM270 497l20 7q5 -9 20.5 -31t23.5 -40t8 -36q0 -35 -43 -35q-18 0 -27.5 12t-9.5 30q0 31 8 93zM301 523v19q5 1 28.5 8.5t41 12t28.5 4.5
q45 0 45 -40t-40 -40q-14 0 -56 17.5t-47 18.5zM244 558l-11 -14q-6 2 -30 8.5t-42 12t-33.5 17.5t-15.5 27q0 16 12 27.5t29 11.5q11 0 25.5 -11.5t24.5 -24.5t24 -31.5t17 -22.5zM285 560l-18 6v74q0 58 42 58q17 0 27.5 -10t10.5 -26q0 -9 -8 -25t-16.5 -28t-22 -29
t-15.5 -20z" />
    <glyph glyph-name="plus" unicode="+" 
d="M245 254v188h66v-188h188v-66h-188v-188h-66v188h-188v66h188z" />
    <glyph glyph-name="comma" unicode="," horiz-adv-x="278" 
d="M59 -191l-7 24q45 8 80 40t35 76q0 27 -13.5 38t-42.5 11q-25 0 -42 17t-17 41q0 30 21.5 45.5t52.5 15.5q45 0 72.5 -37t27.5 -80q0 -80 -46.5 -127.5t-120.5 -63.5z" />
    <glyph glyph-name="hyphen" unicode="-" horiz-adv-x="333" 
d="M292 277l-9 -66q-60 3 -120 3q-81 0 -121 -3l9 66q60 -3 121 -3q60 0 120 3z" />
    <glyph glyph-name="period" unicode="." horiz-adv-x="278" 
d="M139 -15q-27 0 -46.5 19t-19.5 46q0 26 20 46.5t46 20.5t46 -20t20 -47t-19.5 -46t-46.5 -19z" />
    <glyph glyph-name="slash" unicode="/" horiz-adv-x="278" 
d="M55 -15h-66l234 728h66z" />
    <glyph glyph-name="zero" unicode="0" 
d="M504 365q0 -101 -23 -178t-59.5 -119t-75 -62.5t-76.5 -20.5q-69 0 -120.5 53t-74.5 128.5t-23 158.5q0 101 23 178t59.5 119t75 62.5t76.5 20.5q69 0 120.5 -53t74.5 -128.5t23 -158.5zM412 370q0 49 -6 97t-20 97t-41 79t-65 30q-142 0 -142 -353q0 -49 6 -97t20 -97
t41 -79t65 -30q142 0 142 353z" />
    <glyph glyph-name="one" unicode="1" 
d="M339 701v-632q0 -24 14.5 -33.5t50.5 -9.5h45v-26q-26 0 -78.5 1t-78.5 1q-57 0 -165 -2v26h55q36 0 50.5 9.5t14.5 33.5v545q-71 -41 -143 -77l-13 24q106 54 238 144z" />
    <glyph glyph-name="two" unicode="2" 
d="M23 0v20q320 279 320 464q0 66 -31.5 110.5t-94.5 44.5q-20 0 -38.5 -6.5t-30 -12.5t-29 -23.5t-23 -23.5t-24.5 -29l-19 20q28 41 52 67.5t67 50t92 23.5q77 0 124 -53t47 -131q0 -41 -16 -85t-37.5 -79.5t-58 -78.5t-63.5 -70.5t-68.5 -68.5t-59.5 -59h325l22 52h28
l-29 -132h-455z" />
    <glyph glyph-name="three" unicode="3" 
d="M181 340v26q70 6 122.5 48t52.5 109q0 54 -31.5 88t-84.5 34q-37 0 -64 -17t-62 -52l-15 19q48 55 90.5 82.5t102.5 27.5q61 0 102.5 -40t41.5 -102q0 -58 -42 -105.5t-103 -71.5l2 -2q24 2 52 -4t58.5 -21.5t50.5 -50.5t20 -84q0 -39 -16 -79t-47 -76.5t-85 -60
t-122 -23.5q-64 0 -108 28.5t-44 55.5q0 13 10 22.5t22 9.5t23.5 -13t21.5 -29t35 -29t60 -13q71 0 114.5 48t43.5 119q0 168 -201 156z" />
    <glyph glyph-name="four" unicode="4" 
d="M23 219v40l342 446h44v-420h98v-66h-98v-219h-86v219h-300zM323 285v300h-2l-224 -300h226z" />
    <glyph glyph-name="five" unicode="5" 
d="M142 434l95 256h253l-21 -80h-225l-40 -104q43 -22 71 -37.5t62.5 -42t54 -52.5t33.5 -63.5t14 -80.5q0 -105 -73 -175t-178 -70q-46 0 -94 22.5t-48 57.5q0 30 31 30q13 0 25 -12t21.5 -27t31.5 -27t53 -12q69 0 110 49t41 120q0 39 -13.5 73t-31.5 57t-51 47t-57 37.5
t-64 33.5z" />
    <glyph glyph-name="six" unicode="6" 
d="M503 705l9 -20q-148 -37 -247.5 -146.5t-114.5 -257.5l2 -2q31 49 69.5 74.5t97.5 25.5q81 0 124 -54.5t43 -120.5q0 -34 -12.5 -70t-37 -70.5t-68.5 -56.5t-99 -22q-53 0 -94.5 22.5t-66.5 59.5t-37.5 81.5t-12.5 91.5q0 88 36.5 166.5t90.5 131t117 92t115.5 57.5
t85.5 18zM400 168q0 62 -33 106.5t-93 44.5q-50 0 -87 -30t-37 -78q0 -82 30 -138t97 -56q61 0 92 43.5t31 107.5z" />
    <glyph glyph-name="seven" unicode="7" 
d="M58 556l26 134h451l8 -8l-357 -697l-43 15l319 610h-351l-27 -58z" />
    <glyph glyph-name="eight" unicode="8" 
d="M468 548q0 -101 -141 -178q61 -33 104 -83.5t43 -109.5q0 -80 -60.5 -136t-141.5 -56q-88 0 -139 51.5t-51 110.5q0 63 37 104t109 83q-29 20 -48 35.5t-40.5 38.5t-32.5 49.5t-11 56.5q0 86 54 138.5t140 52.5q75 0 126.5 -42t51.5 -115zM388 139q0 95 -140 179
q-54 -42 -73 -79t-19 -98q0 -52 32 -88t83 -36q54 0 85.5 34t31.5 88zM394 544q0 60 -30.5 97.5t-75.5 37.5q-51 0 -81.5 -35t-30.5 -91q0 -28 11 -53.5t32 -47t39 -36t46 -33.5q90 66 90 161z" />
    <glyph glyph-name="nine" unicode="9" 
d="M53 -15l-9 20q148 37 247.5 146.5t114.5 257.5l-2 2q-31 -49 -69.5 -74.5t-97.5 -25.5q-81 0 -124 54.5t-43 120.5q0 34 12.5 70t37 70.5t68.5 56.5t99 22q53 0 94.5 -22.5t66.5 -59.5t37.5 -81.5t12.5 -91.5q0 -88 -36.5 -166.5t-90.5 -131t-117 -92t-115.5 -57.5
t-85.5 -18zM156 522q0 -62 33 -106.5t93 -44.5q50 0 87 30t37 78q0 82 -30 138t-97 56q-61 0 -92 -43.5t-31 -107.5z" />
    <glyph glyph-name="colon" unicode=":" horiz-adv-x="278" 
d="M139 -15q-27 0 -46.5 19t-19.5 46q0 26 20 46.5t46 20.5t46 -20t20 -47t-19.5 -46t-46.5 -19zM139 282q-27 0 -46.5 19t-19.5 46q0 26 20 46.5t46 20.5t46 -20t20 -47t-19.5 -46t-46.5 -19z" />
    <glyph glyph-name="semicolon" unicode=";" horiz-adv-x="278" 
d="M59 -191l-7 24q45 8 80 40t35 76q0 27 -13.5 38t-42.5 11q-25 0 -42 17t-17 41q0 30 21.5 45.5t52.5 15.5q45 0 72.5 -37t27.5 -80q0 -80 -46.5 -127.5t-120.5 -63.5zM139 282q-27 0 -46.5 19t-19.5 46q0 26 20 46.5t46 20.5t46 -20t20 -47t-19.5 -46t-46.5 -19z" />
    <glyph glyph-name="less" unicode="&#x3c;" 
d="M499 66v-71l-442 193v66l442 193v-71l-366 -155z" />
    <glyph glyph-name="equal" unicode="=" 
d="M499 354v-66h-442v66h442zM499 154v-66h-442v66h442z" />
    <glyph glyph-name="greater" unicode="&#x3e;" 
d="M57 66l366 155l-366 155v71l442 -193v-66l-442 -193v71z" />
    <glyph glyph-name="question" unicode="?" horiz-adv-x="444" 
d="M179 188h-26v180q68 4 116 34.5t48 94.5q0 46 -32.5 78t-93.5 32q-5 0 -15 -1.5t-15 -1.5q-23 0 -37 13t-14 36q0 45 53 45q45 0 84.5 -26.5t64 -66t38.5 -82.5t14 -79q0 -71 -34 -109.5t-112 -51.5q-21 -3 -30 -15.5t-9 -47.5v-32zM176 -15q-27 0 -46.5 19t-19.5 46
q0 26 20 46.5t46 20.5t46 -20t20 -47t-19.5 -46t-46.5 -19z" />
    <glyph glyph-name="at" unicode="@" horiz-adv-x="800" 
d="M637 77l13 -32q-130 -60 -220 -60q-98 0 -176.5 34t-124 87.5t-69.5 111.5t-24 113q0 167 112 274.5t271 107.5q146 0 245.5 -89.5t99.5 -223.5q0 -57 -22 -113.5t-68 -98t-105 -41.5q-32 0 -55 16.5t-31.5 33t-7.5 25.5h-2q-15 -22 -48 -47t-73 -26q-14 0 -28.5 4
t-32.5 16t-29 40.5t-11 70.5q0 31 13 72t37 83t65.5 71t91.5 29q23 0 39 -10t20.5 -17.5t15.5 -27.5l10 41h73l-65 -258q-6 -23 -6 -37q0 -47 40 -47q60 0 99.5 71.5t39.5 149.5q0 47 -21 95.5t-58.5 90.5t-97 68.5t-128.5 26.5q-126 0 -211.5 -95.5t-85.5 -264.5
q0 -117 87 -206t220 -89q44 0 83.5 8t63 17t61.5 26zM325 282q0 -86 67 -86q40 0 80.5 60.5t40.5 163.5q0 68 -43 68q-46 0 -95.5 -58.5t-49.5 -147.5z" />
    <glyph glyph-name="A" unicode="A" horiz-adv-x="721" 
d="M378 726l191 -527q48 -134 57 -146q20 -27 77 -27v-26q-19 0 -57.5 1t-57.5 1q-48 0 -146 -2v26h18q55 0 55 33q0 17 -15 58l-50 145h-235l-22 -70q-27 -87 -27 -119q0 -20 9 -30.5t21 -13t31 -3.5h7h23v-26q-19 0 -59 1t-59 1q-41 0 -121 -2v26q46 5 62 17t35 54
q8 18 41 112l128 357q21 60 21 90q0 18 -2 26q44 21 58 44h17zM326 597l-97 -294h206l-107 294h-2z" />
    <glyph glyph-name="B" unicode="B" horiz-adv-x="611" 
d="M36 0v26q91 -5 91 67v507q0 25 -6 40.5t-20.5 21.5t-27 8t-37.5 2v26q14 0 42 -1t41 -1h31q31 0 73 1t57 1q34 0 68.5 -6t74.5 -21.5t65 -50t25 -84.5q0 -64 -47 -103.5t-114 -55.5v-2q24 1 52.5 -4.5t59 -19.5t56 -35t41.5 -54.5t16 -73.5q0 -83 -70 -135.5t-199 -52.5
q-24 0 -71 1t-70 1q-45 0 -131 -2zM225 350v-236q0 -22 1.5 -32.5t9.5 -24.5t27.5 -19.5t51.5 -5.5q81 0 119.5 43.5t38.5 99.5q0 52 -15 87.5t-42.5 54t-59 26t-71.5 7.5h-60zM225 664v-282h38q70 0 111 32.5t41 119.5q0 41 -11.5 68.5t-33.5 41t-45.5 18t-57.5 4.5
q-12 0 -42 -2z" />
    <glyph glyph-name="C" unicode="C" horiz-adv-x="722" 
d="M673 660l10 -143h-25q-27 164 -214 164q-47 0 -93.5 -16.5t-90 -51t-71 -99.5t-27.5 -150q0 -148 89.5 -247.5t208.5 -99.5q75 0 130.5 47.5t70.5 125.5l23 -6l-23 -146q-31 -19 -101 -36t-120 -17q-175 0 -278.5 103t-103.5 273q0 150 114 251t265 101q85 0 236 -53z
" />
    <glyph glyph-name="D" unicode="D" horiz-adv-x="778" 
d="M121 102v485q0 13 -1.5 24t-3 19t-7 14.5t-7.5 11t-10.5 7.5t-10.5 4.5t-12.5 2.5t-12 1.5t-14.5 0.5h-13v26q39 -2 118 -2q17 0 74.5 1t98.5 1q94 0 171.5 -29.5t126.5 -79t75.5 -112t26.5 -129.5q0 -35 -8.5 -74.5t-35.5 -90t-69.5 -90t-120 -66.5t-178.5 -27
q-26 0 -74 1t-71 1q-44 0 -134 -2v26q29 3 40.5 5t26 9.5t19.5 22t6 39.5zM219 662v-544q0 -27 9 -45.5t25.5 -26.5t32 -11t37.5 -3q78 0 135.5 27t89.5 73.5t47 99.5t15 112q0 142 -85 232t-228 90q-6 0 -78 -4z" />
    <glyph glyph-name="E" unicode="E" horiz-adv-x="611" 
d="M225 666v-284h132q13 0 24 2t19 6.5t14 8.5t10.5 11.5t7 12t4.5 13t2.5 12t1.5 11.5t1 9h20q-4 -44 -4 -112q0 -14 2.5 -54t1.5 -57h-20q0 36 -5 55.5t-21.5 28.5t-31.5 10.5t-51 1.5h-107v-170q0 -89 16 -114t87 -25h62q80 4 116.5 26.5t64.5 98.5l24 -4
q-29 -91 -41 -153q-50 0 -150 1t-150 1q-148 0 -222 -2v26q64 0 79.5 19.5t15.5 93.5v444q0 59 -16.5 73t-78.5 16v26q67 -2 202 -2q191 0 288 2v-149l-20 -5q-11 69 -47 95.5t-113 26.5h-117z" />
    <glyph glyph-name="F" unicode="F" horiz-adv-x="557" 
d="M225 341v-243q0 -25 6 -40.5t20.5 -21.5t27 -8t37.5 -2v-26q-100 2 -142 2q-40 0 -142 -2v26q64 0 79.5 19.5t15.5 93.5v444q0 59 -16.5 73t-78.5 16v26q35 0 107.5 -1t109.5 -1q183 0 272 2l6 -141l-23 -4q-7 63 -43 88t-118 25h-118v-284h118q60 0 76 14t26 69h23
q-4 -38 -4 -109q0 -52 4 -106h-20q-6 33 -9 44.5t-13 25.5t-28 17.5t-51 3.5h-122z" />
    <glyph glyph-name="G" unicode="G" horiz-adv-x="778" 
d="M687 659l17 -140h-22q-19 83 -82 122.5t-153 39.5q-127 0 -203 -94.5t-76 -223.5q0 -88 33 -166t100 -129t153 -51q82 0 135 39v149q0 26 -6 42t-21 22t-26.5 7.5t-37.5 1.5v26q94 -2 138 -2q62 0 122 2v-26q-17 0 -26 -1.5t-21.5 -7.5t-18 -22t-5.5 -42v-131l15 -15v-17
q-159 -57 -260 -57q-100 0 -177.5 36t-120.5 92.5t-64.5 116.5t-21.5 118q0 157 107 261t265 104q112 0 257 -54z" />
    <glyph glyph-name="H" unicode="H" horiz-adv-x="834" 
d="M215 382h404v218q0 25 -6 40.5t-20.5 21.5t-27 8t-37.5 2v26q106 -2 148 -2q21 0 65 1t67 1v-26q-25 0 -37.5 -2t-27 -8t-20.5 -21.5t-6 -40.5v-502q0 -25 6 -40.5t20.5 -21.5t27 -8t37.5 -2v-26q-90 2 -135 2q-41 0 -145 -2v26q25 0 37.5 2t27 8t20.5 21.5t6 40.5v243
h-404v-243q0 -25 6 -40.5t20.5 -21.5t27 -8t37.5 -2v-26q-24 0 -69 1t-66 1q-45 0 -145 -2v26q25 0 37.5 2t27 8t20.5 21.5t6 40.5v502q0 25 -6 40.5t-20.5 21.5t-27 8t-37.5 2v26q94 -2 138 -2q42 0 142 2v-26q-25 0 -37.5 -2t-27 -8t-20.5 -21.5t-6 -40.5v-218z" />
    <glyph glyph-name="I" unicode="I" horiz-adv-x="332" 
d="M117 98v502q0 25 -6 40.5t-20.5 21.5t-27 8t-37.5 2v26q94 -2 138 -2q42 0 142 2v-26q-25 0 -37.5 -2t-27 -8t-20.5 -21.5t-6 -40.5v-502q0 -25 6 -40.5t20.5 -21.5t27 -8t37.5 -2v-26q-24 0 -69 1t-66 1q-45 0 -145 -2v26q25 0 37.5 2t27 8t20.5 21.5t6 40.5z" />
    <glyph glyph-name="J" unicode="J" horiz-adv-x="389" 
d="M272 600v-514q0 -64 -6.5 -106.5t-14.5 -61t-25 -48.5q-20 -36 -64 -59.5t-92 -23.5q-42 0 -72.5 17t-30.5 50q0 21 13 33t29 11q13 0 22.5 -9.5t9.5 -26.5q0 -20 15.5 -31.5t38.5 -11.5q19 0 33 9t22.5 27.5t13.5 35.5t7 45t2.5 44t0.5 44v576q0 25 -6 40.5t-20.5 21.5
t-27 8t-37.5 2v26q94 -2 138 -2q42 0 142 2v-26q-25 0 -37.5 -2t-27 -8t-20.5 -21.5t-6 -40.5z" />
    <glyph glyph-name="K" unicode="K" horiz-adv-x="722" 
d="M26 0v26q25 0 37.5 2t27 8t20.5 21.5t6 40.5v502q0 25 -6 40.5t-20.5 21.5t-27 8t-37.5 2v26q94 -2 138 -2q57 0 127 2v-26q-19 0 -28.5 -2t-23 -8t-19 -21.5t-5.5 -40.5v-502q0 -25 6 -40.5t19.5 -21.5t23.5 -8t31 -2v-26q-18 0 -59.5 1t-64.5 1q-45 0 -145 -2zM219 347
l235 247q37 37 37 55q0 11 -9.5 16t-19 6t-27.5 1v26q86 -2 129 -2q32 0 96 2v-26q-46 0 -81 -18.5t-98 -84.5l-171 -179q31 -35 94 -105t113 -124.5t96 -102.5q33 -32 86 -32v-26q-64 2 -97 2q-24 0 -72 -2q-44 53 -95.5 111t-116 127.5t-99.5 108.5z" />
    <glyph glyph-name="L" unicode="L" horiz-adv-x="611" 
d="M592 153l-37 -153q-85 2 -254 2q-177 0 -265 -2v26q91 -5 91 67v507q0 25 -6 40.5t-20.5 21.5t-27 8t-37.5 2v26q94 -2 138 -2q42 0 142 2v-26q-25 0 -37.5 -2t-27 -8t-20.5 -21.5t-6 -40.5v-463q0 -41 9.5 -61t44 -32t104.5 -12q87 0 125.5 26t61.5 99z" />
    <glyph glyph-name="M" unicode="M" horiz-adv-x="1000" 
d="M235 698l269 -561q30 62 86.5 176t101.5 207.5t82 177.5q54 -2 82 -2q14 0 44 1t44 1v-26q-54 0 -70 -12q-19 -15 -19 -60q0 -70 2.5 -152t6 -178t4.5 -147q1 -32 4 -47.5t14 -28.5t32 -17t59 -4v-26q-27 0 -82 1t-83 1q-48 0 -146 -2v26q60 0 77 9q26 14 26 68l-7 477
h-2l-236 -490q-26 -57 -39 -99h-20q-70 156 -276 567h-2l-8 -362q0 -6 -0.5 -31t-0.5 -32q0 -72 21 -90q19 -17 81 -17v-26q-20 0 -62 1t-62 1q-45 0 -133 -2v26q30 0 48.5 5t35.5 20t25.5 46t9.5 80q11 377 11 410q0 53 -19 69t-69 16v26q70 -2 106 -2q10 0 31.5 1t32.5 1z
" />
    <glyph glyph-name="N" unicode="N" horiz-adv-x="833" 
d="M724 569v-578h-23l-523 574v-373q0 -106 20 -136t99 -30v-26q-22 0 -66.5 1t-66.5 1q-45 0 -133 -2v26q30 0 44 2.5t31.5 13.5t24.5 38t7 73v402q0 64 -29 90.5t-94 26.5v26q62 -2 92 -2q13 0 41 1t41 1q18 -27 51.5 -65t96.5 -105t100 -108q49 -54 138.5 -150
t108.5 -117v398q0 70 -23.5 95t-97.5 26v26q92 -2 139 -2q20 0 58 1t58 1v-26q-53 0 -73.5 -17.5t-20.5 -85.5z" />
    <glyph glyph-name="O" unicode="O" horiz-adv-x="833" 
d="M58 345q0 93 43.5 176.5t127.5 137.5t189 54q148 0 252.5 -107.5t104.5 -252.5q0 -93 -43.5 -176.5t-127.5 -137.5t-189 -54q-148 0 -252.5 107.5t-104.5 252.5zM168 374q0 -81 28 -160.5t89 -138t142 -58.5q108 0 173 85t65 222q0 81 -28 160.5t-89 138t-142 58.5
q-108 0 -173 -85t-65 -222z" />
    <glyph glyph-name="P" unicode="P" 
d="M29 672v26q45 -2 135 -2q16 0 52.5 1t58.5 1q43 0 83.5 -9.5t80 -31t63.5 -62.5t24 -96q0 -85 -66 -142.5t-149 -57.5q-11 0 -27.5 0.5t-23.5 0.5v33q13 -2 38 -2q60 0 92 48t32 109q0 49 -16 86t-41.5 56t-52 27.5t-53.5 8.5t-44 -3v-565q0 -25 6 -40.5t21 -21.5t27 -8
t38 -2v-26q-25 0 -70 1t-66 1q-45 0 -145 -2v26q25 0 37.5 2t27 8t20.5 21.5t6 40.5v476q0 59 -16.5 78.5t-71.5 19.5z" />
    <glyph glyph-name="Q" unicode="Q" horiz-adv-x="833" 
d="M794 -147l9 -18q-41 -54 -103 -54q-39 0 -78.5 23.5t-70 54.5t-76 68.5t-88.5 57.5q-136 13 -232.5 117t-96.5 243q0 93 43.5 176.5t127.5 137.5t189 54q148 0 252.5 -107.5t104.5 -252.5q0 -117 -69 -216.5t-184 -134.5q36 -21 83.5 -62.5t84 -67t68.5 -25.5q24 0 36 6z
M168 374q0 -81 28 -160.5t89 -138t142 -58.5q108 0 173 85t65 222q0 81 -28 160.5t-89 138t-142 58.5q-108 0 -173 -85t-65 -222z" />
    <glyph glyph-name="R" unicode="R" horiz-adv-x="722" 
d="M316 330h-91v-232q0 -25 6 -40.5t20.5 -21.5t27 -8t37.5 -2v-26q-24 0 -69 1t-66 1q-45 0 -145 -2v26q91 -5 91 67v507q0 25 -6 40.5t-20.5 21.5t-27 8t-37.5 2v26q110 -2 152 -2q14 0 56 1t78 1q67 0 115 -17t72 -45.5t34 -56.5t10 -58q0 -61 -40.5 -107t-101.5 -64
q27 -39 60 -88.5t50 -75.5t37 -53t35 -44q28 -32 53 -47.5t60 -15.5v-26q-12 0 -37 1t-38 1q-29 0 -85 -2q-26 29 -50.5 60t-50 68.5t-42 63t-46 72.5t-41.5 66zM449 515q0 69 -40 110t-124 41q-24 0 -60 -6v-293q25 -5 53 -5q85 0 128 46t43 107z" />
    <glyph glyph-name="S" unicode="S" horiz-adv-x="500" 
d="M66 19l-20 146h23q14 -61 55.5 -104.5t100.5 -43.5t98 37t39 96q0 38 -16.5 66.5t-42.5 47t-57.5 34.5t-63 34.5t-57.5 41t-42.5 59t-16.5 84.5q0 94 59.5 145t154.5 51q22 0 122 -15l16 -128h-23q-8 53 -41.5 82t-87.5 29q-56 0 -88 -36t-32 -92q0 -43 23 -75.5
t57 -50.5t74 -40t74 -43.5t57 -61.5t23 -94q0 -93 -70.5 -148t-164.5 -55q-80 0 -153 34z" />
    <glyph glyph-name="T" unicode="T" horiz-adv-x="666" 
d="M650 726l-9 -159h-27q-3 53 -12 66q-15 24 -68 24h-152v-559q0 -25 6 -40.5t20.5 -21.5t27 -8t37.5 -2v-26q-25 0 -69.5 1t-65.5 1q-45 0 -145 -2v26q25 0 37.5 2t27 8t20.5 21.5t6 40.5v559h-131q-23 0 -38.5 -1.5t-27 -8t-17.5 -10.5t-12 -18.5t-8 -21.5t-8 -30h-26
l11 159h20q11 -28 63 -28h454q59 0 65 28h21z" />
    <glyph glyph-name="U" unicode="U" horiz-adv-x="722" 
d="M710 698v-26q-56 0 -67.5 -29.5t-11.5 -131.5v-288q0 -107 -67 -172.5t-194 -65.5q-126 0 -195.5 62.5t-71.5 187.5v365q0 25 -6 40.5t-20.5 21.5t-27 8t-37.5 2v26q94 -2 138 -2q42 0 142 2v-26q-25 0 -37.5 -2t-27 -8t-20.5 -21.5t-6 -40.5v-340q0 -234 195 -234
q182 0 182 197v285v54t-3 40t-3.5 29.5t-8 18.5t-10.5 12t-18 6t-22 3t-30 1v26q84 -2 126 -2q17 0 50.5 1t50.5 1z" />
    <glyph glyph-name="V" unicode="V" horiz-adv-x="723" 
d="M354 -15l-166 414q-6 16 -35 86t-42 108q-18 47 -37.5 63t-67.5 16v26q94 -2 141 -2q21 0 63.5 1t63.5 1v-26q-41 -3 -43 -3q-26 -2 -26 -24q0 -11 9 -39t18.5 -53t22 -55.5t14.5 -35.5l133 -342l76 198q6 16 33.5 86t39.5 108q2 5 11.5 33t14.5 47t5 34q0 9 -2 15.5
t-4.5 11t-8.5 8t-9 5.5t-12.5 3t-12 1.5t-14 1t-13.5 0.5v26q78 -2 118 -2q31 0 93 2v-26q-44 0 -67 -39q-1 -3 -76 -189l-183 -459h-37z" />
    <glyph glyph-name="W" unicode="W" horiz-adv-x="1000" 
d="M402 117l101 217l-119 276q-18 41 -33.5 51.5t-61.5 10.5v26q94 -2 139 -2q17 0 52.5 1t51.5 1v-26q-55 0 -55 -25q0 -11 11 -38l65 -167l63 137q18 39 18 61q0 15 -9 22.5t-20 8.5t-38 1v26q74 -2 115 -2q13 0 43 1t44 1v-26q-36 0 -55.5 -15.5t-35.5 -48.5l-102 -214
l120 -277l167 457q18 48 18 65q0 16 -15 24t-60 9v26q74 -2 112 -2q12 0 39.5 1t40.5 1v-26q-22 0 -37 -10t-21 -21.5t-16 -37.5l-239 -618h-26l-135 302l-141 -302h-28l-248 608q-19 47 -37.5 63t-67.5 16v26q88 -2 137 -2q19 0 59 1t59 1v-26q-62 0 -62 -23q0 -18 11 -46z
" />
    <glyph glyph-name="X" unicode="X" horiz-adv-x="778" 
d="M265 596l136 -182l105 137q53 69 53 96q0 25 -66 25v26q84 -2 125 -2q20 0 58.5 1t57.5 1v-26q-53 0 -82.5 -18t-66.5 -66l-159 -206l206 -271q22 -30 53 -61q25 -24 70 -24v-26q-25 0 -75.5 1t-75.5 1q-36 0 -108 -2v26q59 0 59 13q0 9 -20 37l-169 231l-133 -182
q-1 -1 -11 -15t-15.5 -22.5t-11.5 -21t-6 -19.5q0 -21 78 -21v-26q-19 0 -59 1t-60 1q-41 0 -125 -2v26q31 0 47 5t26 10t32.5 27t52.5 62l160 210l-215 284q-35 48 -98 48v26q104 -2 160 -2q19 0 59 1t59 1v-26q-70 0 -70 -20q0 -16 29 -56z" />
    <glyph glyph-name="Y" unicode="Y" horiz-adv-x="722" 
d="M424 356v-258q0 -25 6 -40.5t20.5 -21.5t27 -8t37.5 -2v-26q-100 2 -142 2q-44 0 -138 -2v26q25 0 37.5 2t27 8t20.5 21.5t6 40.5v242l-209 288q-21 29 -33.5 34.5t-59.5 9.5v26q38 -2 139 -2q21 0 61 1t61 1v-26q-56 0 -56 -21q0 -15 33 -62l140 -197l131 179
q2 2 8.5 11t10.5 15t9.5 15t8 16.5t2.5 14.5q0 20 -14 24.5t-57 4.5v26q76 -2 115 -2q13 0 40.5 1t41.5 1v-26q-20 0 -36 -10t-24 -19t-23 -29z" />
    <glyph glyph-name="Z" unicode="Z" horiz-adv-x="722" 
d="M699 170l-46 -170q-55 0 -164.5 1t-151.5 1q-52 0 -157 -1t-157 -1l502 657h-324q-32 0 -55 -8.5t-36 -26t-19.5 -32.5t-13.5 -38h-24q2 9 10.5 46.5t14 67t5.5 47.5h26q1 -8 11 -12q8 -3 15 -3h536l-500 -657h292q103 0 142 26.5t72 108.5z" />
    <glyph glyph-name="bracketleft" unicode="[" horiz-adv-x="333" 
d="M99 -187v894l7 6q49 -3 92 -3q27 0 57 1.5t41 1.5v-26h-68q-39 0 -47 -8.5t-8 -40.5v-757q0 -34 14.5 -41t78.5 -7h30v-26q-48 3 -97 3q-47 0 -93 -3z" />
    <glyph glyph-name="backslash" unicode="\" horiz-adv-x="278" 
d="M289 -15h-66l-234 728h66z" />
    <glyph glyph-name="bracketright" unicode="]" horiz-adv-x="333" 
d="M234 707v-894l-7 -6q-50 3 -92 3q-27 0 -57 -1.5t-41 -1.5v26h68q39 0 47 8.5t8 40.5v757q0 34 -14.5 41t-78.5 7h-30v26q48 -3 97 -3q46 0 93 3z" />
    <glyph glyph-name="asciicircum" unicode="^" 
d="M135 325h-68l181 365h60l181 -365h-68l-143 291z" />
    <glyph glyph-name="underscore" unicode="_" horiz-adv-x="500" 
d="M500 -125h-500v50h500v-50z" />
    <glyph glyph-name="grave" unicode="`" horiz-adv-x="278" 
d="M285 545h-35l-167 104q-17 10 -17 34q0 10 9.5 20t22.5 10q5 0 10.5 -2t9.5 -4t9.5 -6.5t8 -6.5t8 -8t7.5 -8z" />
    <glyph glyph-name="a" unicode="a" horiz-adv-x="500" 
d="M456 56l9 -17q-58 -54 -99 -54q-29 0 -44.5 22t-17.5 52q-81 -74 -154 -74q-47 0 -77.5 28t-30.5 69q1 21 4.5 35t18 28.5t27.5 23t49.5 23.5t66.5 26t95 33v66q0 86 -97 86q-34 0 -54.5 -18.5t-21.5 -51.5q0 -19 -17.5 -30.5t-38.5 -11.5q-18 0 -18 20q0 36 26.5 59
t88.5 55q6 3 18.5 10t18 9.5t15 6t18.5 5t20 1.5q40 0 81 -23t41 -61v-277q0 -57 36 -57q23 0 37 17zM303 90v132q-10 -4 -38 -12.5t-49 -16.5t-44.5 -20.5t-36.5 -30t-13 -38.5q0 -29 21 -50.5t50 -21.5q22 0 44 10t31.5 18t34.5 30z" />
    <glyph glyph-name="b" unicode="b" 
d="M179 750v-365q85 72 149 72q84 0 135 -62t51 -148q0 -103 -68 -182.5t-171 -79.5q-21 0 -39.5 2.5t-34.5 7t-25 8t-23 10t-17 7.5l-30 -23l-21 11q14 92 14 178v430q0 32 -6.5 47.5t-14.5 19.5t-32 11v16q64 21 103 43q20 11 22 11q8 0 8 -14zM179 356v-243
q0 -34 28.5 -68t74.5 -34q74 0 113 59t39 135q0 79 -50 138.5t-110 59.5q-40 0 -95 -47z" />
    <glyph glyph-name="c" unicode="c" horiz-adv-x="444" 
d="M408 388q0 -18 -10.5 -31t-27.5 -13q-13 0 -25.5 12.5t-22 28t-32 28t-54.5 12.5q-60 0 -95.5 -54t-35.5 -118q0 -80 48 -137t127 -57q60 0 122 47l17 -17q-89 -104 -195 -104q-78 0 -138.5 63.5t-60.5 143.5q0 110 70.5 187.5t177.5 77.5q29 0 58 -5.5t53 -22t24 -41.5z
" />
    <glyph glyph-name="d" unicode="d" 
d="M463 750v-664q0 -29 8.5 -35t40.5 -6h17v-20h-1q-18 -4 -71 -20q-62 -20 -63 -20q-11 0 -11 27v46h-2q-71 -73 -153 -73q-86 0 -136 64t-50 153q0 103 72.5 179t174.5 76q51 0 94 -18v177q0 32 -6.5 47.5t-14.5 19.5t-32 11v16q64 21 103 43q20 11 22 11q8 0 8 -14z
M383 104v229q0 50 -32 71t-74 21q-60 0 -104.5 -47t-44.5 -141q0 -83 45 -137.5t113 -54.5q28 0 62.5 17t34.5 42z" />
    <glyph glyph-name="e" unicode="e" horiz-adv-x="444" 
d="M395 276h-281q-3 -12 0 -58q5 -72 46.5 -122.5t100.5 -50.5q68 0 135 67l14 -14q-85 -113 -185 -113q-45 0 -80.5 17t-55.5 41.5t-33 55.5t-17.5 56.5t-4.5 47.5q0 69 21 121.5t54 79.5t65.5 40t61.5 13q67 0 117.5 -41t51.5 -116q0 -12 -1 -18zM117 308h174q28 0 28 25
q0 40 -23 66t-64 26q-45 0 -75.5 -31t-39.5 -86z" />
    <glyph glyph-name="f" unicode="f" horiz-adv-x="333" 
d="M192 442h127v-54h-127v-338q0 -16 12 -20t35 -4h45v-26q-86 2 -128 2t-124 -2v26h38q42 0 42 32v330h-70v17q4 3 20 11t24.5 13.5t17 16t8.5 22.5q0 58 19 120.5t61 106.5q36 37 70 53t51 16q45 0 45 -41q0 -39 -35 -39q-15 0 -31 7t-33 7q-67 0 -67 -113v-143z" />
    <glyph glyph-name="g" unicode="g" horiz-adv-x="500" 
d="M475 431v-48l-99 4q26 -32 26 -76q0 -60 -49 -107t-136 -47q-25 0 -55 6q-30 -22 -30 -51q0 -46 70 -46q26 0 72.5 -0.5t65.5 -0.5q68 0 102.5 -23.5t34.5 -77.5q0 -19 -12.5 -47.5t-39.5 -62.5t-83 -58t-130 -24q-89 0 -139 33.5t-50 78.5t33.5 75t83.5 40v2
q-36 10 -62 32.5t-26 54.5q0 22 4 32q10 6 29.5 17t33.5 19t20 14q-94 49 -94 133q0 68 49 111t138 43q40 0 88 -14q60 -17 97 -17q25 0 58 5zM403 -81q0 81 -141 81q-23 0 -35.5 -0.5t-35.5 -3t-37 -8.5t-29 -16t-22 -26.5t-7 -39.5q0 -49 38 -75.5t94 -26.5q26 0 53.5 6
t56 18t47 36t18.5 55zM322 300q0 51 -27 91t-76 40q-42 0 -65 -34.5t-23 -79.5q0 -51 23.5 -92.5t70.5 -41.5q48 0 72.5 33.5t24.5 83.5z" />
    <glyph glyph-name="h" unicode="h" 
d="M93 59v557q0 32 -6.5 47.5t-14.5 19.5t-32 11v16q64 21 103 43q20 11 22 11q8 0 8 -14v-381q1 1 9 9.5t17 17t24 20t30 20.5t35 15t39 6q64 0 99 -42t35 -109v-247q0 -16 7.5 -23.5t16 -8.5t26.5 -1h18v-26q-17 0 -53 1t-55 1q-36 0 -108 -2v26h18q35 0 42.5 17t7.5 92
v113q0 33 -3 55t-12 46t-29.5 36t-53.5 12q-49 0 -110 -56v-282q0 -16 7.5 -23.5t16 -8.5t26.5 -1h18v-26q-17 0 -52.5 1t-53.5 1q-36 0 -108 -2v26h18q18 0 26 1t15 8.5t7 23.5z" />
    <glyph glyph-name="i" unicode="i" horiz-adv-x="278" 
d="M32 0v26h19q18 0 26 1t15 8.5t7 23.5v271q0 21 -6.5 34t-14 18t-31.5 18v16q98 29 107 36q9 5 18 5q7 0 7 -14v-384q0 -16 7.5 -23.5t16 -8.5t26.5 -1h17v-26q-17 0 -52 1t-53 1q-35 0 -109 -2zM188 661q0 -20 -14.5 -35t-34.5 -15q-19 0 -34 15t-15 35q0 19 15 33.5
t34 14.5q20 0 34.5 -14t14.5 -34z" />
    <glyph glyph-name="j" unicode="j" horiz-adv-x="278" 
d="M179 443v-481q0 -36 -8 -63.5t-19 -44.5t-35 -33.5t-41.5 -25t-53.5 -23.5l-7 23q30 15 48 29.5t25.5 36t9 38.5t1.5 53v378q0 31 -12 42.5t-54 27.5v16q90 17 121 36q9 5 18 5q7 0 7 -14zM188 661q0 -20 -14.5 -35t-34.5 -15q-19 0 -34 15t-15 35q0 19 15 33.5t34 14.5
q20 0 34.5 -14t14.5 -34z" />
    <glyph glyph-name="k" unicode="k" 
d="M502 442v-26q-38 0 -65.5 -13.5t-58.5 -42.5l-111 -100l169 -187q30 -33 44 -40t49 -9v-24q-52 2 -78 2q-23 0 -67 -2q-15 20 -32 41l-159 180h-20v-162q0 -16 7.5 -23.5t16 -8.5t26.5 -1h18v-26q-17 0 -52.5 1t-53.5 1q-36 0 -108 -2v26h18q18 0 26 1t15 8.5t7 23.5v557
q0 32 -6.5 47.5t-14.5 19.5t-32 11v16q64 21 103 43q20 11 22 11q8 0 8 -14v-506l32 6l108 95q39 34 39 51q0 20 -49 20v26q70 -2 106 -2q31 0 93 2z" />
    <glyph glyph-name="l" unicode="l" horiz-adv-x="278" 
d="M32 0v26h19q18 0 26 1t15 8.5t7 23.5v557q0 32 -6.5 47.5t-14.5 19.5t-32 11v16q64 21 103 43q20 11 22 11q8 0 8 -14v-691q0 -16 7.5 -23.5t16 -8.5t26.5 -1h17v-26q-17 0 -52 1t-53 1q-35 0 -109 -2z" />
    <glyph glyph-name="m" unicode="m" horiz-adv-x="832" 
d="M93 59v271q0 21 -6.5 34t-14 18t-31.5 18v16q93 28 107 36q9 5 18 5q7 0 7 -14v-61q40 29 56 39t49.5 23t67.5 13q85 0 106 -77q6 4 30.5 21t34 22.5t30 16t38.5 14t39 3.5q61 0 90 -40t29 -101v-257q0 -16 7.5 -23.5t16 -8.5t26.5 -1h15v-26q-16 0 -50 1t-53 1
q-36 0 -108 -2v26h18q18 0 26 1t15 8.5t7 23.5v221q0 56 -18 89.5t-69 33.5q-49 0 -118 -48v-296q0 -16 8 -23.5t16.5 -8.5t26.5 -1h18v-26q-17 0 -53 1t-54 1q-36 0 -108 -2v26h18q18 0 26 1t15 8.5t7 23.5v221q0 56 -18 89.5t-69 33.5q-49 0 -118 -48v-296
q0 -16 7.5 -23.5t16 -8.5t26.5 -1h18v-26q-17 0 -52.5 1t-53.5 1q-33 0 -111 -2v26h21q18 0 26 1t15 8.5t7 23.5z" />
    <glyph glyph-name="n" unicode="n" 
d="M93 59v265q0 27 -11 39t-47 27v19q87 28 132 48q6 0 6 -10v-65q36 26 57 39t52.5 24.5t63.5 11.5q115 0 115 -140v-258q0 -16 7.5 -23.5t16 -8.5t26.5 -1h18v-26q-17 0 -52.5 1t-53.5 1q-36 0 -108 -2v26h18q18 0 26 1t15 8.5t7 23.5v259q0 42 -24 63.5t-68 21.5
t-116 -48v-296q0 -16 7.5 -23.5t16 -8.5t26.5 -1h18v-26q-17 0 -52.5 1t-53.5 1q-36 0 -108 -2v26h18q18 0 26 1t15 8.5t7 23.5z" />
    <glyph glyph-name="o" unicode="o" 
d="M42 219q0 99 65 168.5t164 69.5q106 0 174.5 -64.5t68.5 -169.5q0 -97 -67.5 -167.5t-162.5 -70.5q-102 0 -172 65t-70 169zM134 229q0 -45 14.5 -93t50 -86.5t84.5 -38.5q47 0 80 33.5t46 77.5t13 91q0 46 -14.5 93.5t-50.5 86t-85 38.5q-46 0 -79 -33.5t-46 -77.5
t-13 -91z" />
    <glyph glyph-name="p" unicode="p" 
d="M179 4v-182q0 -16 12 -20t35 -4h45v-26q-86 2 -128 2t-124 -2v26h38q42 0 42 32v474q0 22 -3 36.5t-10 23t-12 12t-17.5 8t-16.5 6.5v15q105 49 118 54q1 0 4.5 2t5.5 2q11 0 11 -9v-71q82 74 151 74q80 0 132 -65t52 -148q0 -104 -72 -181.5t-174 -77.5q-48 0 -89 19z
M434 203q0 77 -44.5 132.5t-121.5 55.5q-44 0 -89 -33v-272q37 -69 107 -69q68 0 108 57.5t40 128.5z" />
    <glyph glyph-name="q" unicode="q" 
d="M387 -170v212q-75 -57 -143 -57q-91 0 -146.5 61t-55.5 149q0 107 76 184.5t168 77.5q58 0 120 -35l51 44l10 -7v-637q0 -16 12 -20t35 -4h18v-26q-32 2 -101 2q-36 0 -130 -2v26h44q42 0 42 32zM387 66v270q0 27 -33 58t-79 31q-22 0 -44.5 -9t-47 -29t-40 -61
t-15.5 -96q0 -74 47.5 -132.5t119.5 -58.5q48 0 92 27z" />
    <glyph glyph-name="r" unicode="r" horiz-adv-x="389" 
d="M24 0v26h27q18 0 26 1t15 8.5t7 23.5v281q0 11 -6.5 19t-13.5 12t-18 8t-14 6v15q31 13 60.5 28t43.5 22t18 7q9 0 9 -13v-90h2q13 20 23 33.5t27 32t36.5 28t41.5 9.5q21 0 39 -14t18 -39q0 -21 -13.5 -36t-33.5 -15q-15 0 -31.5 12t-34.5 12q-20 0 -46.5 -22t-26.5 -61
v-235q0 -16 7 -23.5t15 -8.5t26 -1h56v-26q-110 2 -140 2q-47 0 -119 -2z" />
    <glyph glyph-name="s" unicode="s" horiz-adv-x="389" 
d="M42 134l18 5q11 -54 42.5 -88t83.5 -34q41 0 61 20.5t20 50.5q0 32 -22.5 54t-54.5 36t-64 30t-54.5 46.5t-22.5 74.5q0 49 39.5 88.5t115.5 39.5q57 0 114 -29l7 -102h-23q-16 99 -109 99q-32 0 -55 -17.5t-23 -48.5q0 -32 24 -54t58 -36t68 -29.5t58 -45.5t24 -73
q0 -55 -44.5 -95.5t-127.5 -40.5q-63 0 -122 34z" />
    <glyph glyph-name="t" unicode="t" horiz-adv-x="333" 
d="M165 388v-265q0 -45 19 -64.5t44 -19.5q37 0 70 29l15 -15q-66 -68 -133 -68q-95 0 -95 93v310h-66v16q5 4 16.5 12.5t16 12t14 11.5t14.5 12.5t13.5 12.5t14 15.5t13.5 17.5t16 21.5t16 24.5h12v-102h149v-54h-149z" />
    <glyph glyph-name="u" unicode="u" 
d="M461 424v-369q0 -9 4 -13t9 -5t15 -1q6 0 19.5 0.5t20.5 0.5v-21q-65 -6 -144 -31l-5 3v81q-54 -44 -91.5 -64t-85.5 -20q-45 0 -77.5 30t-32.5 89v256q0 16 -3 25.5t-17 19t-40 11.5v19q20 1 71.5 4t57.5 3q8 0 9.5 -5.5t1.5 -23.5v-258q0 -116 87 -116q48 0 121 61v269
q0 18 -74 38q-7 2 -10 3v18q39 3 76.5 6.5t57 5.5t22.5 2q8 0 8 -18z" />
    <glyph glyph-name="v" unicode="v" horiz-adv-x="500" 
d="M232 -15l-136 354q-21 54 -33.5 65.5t-43.5 11.5v26q66 -2 100 -2q17 0 52 1t52 1v-26q-35 0 -46 -5t-11 -22q0 -6 3 -15.5t6.5 -19t10.5 -27.5t12 -31l70 -190l83 206q19 48 20 77q1 15 -9 19.5t-44 7.5v26q48 -2 72 -2q15 0 45 1t46 1v-26q-33 0 -49 -16.5t-31 -55.5
l-144 -359h-25z" />
    <glyph glyph-name="w" unicode="w" horiz-adv-x="778" 
d="M232 -15l-142 354q-21 54 -33.5 65.5t-43.5 11.5v26q66 -2 100 -2q18 0 51.5 1t47.5 1v-26q-52 0 -52 -19q0 -10 8 -30l105 -269l85 220q5 12 5 33q0 60 -72 65v26q72 -2 109 -2q16 0 49 1t50 1v-26q-3 0 -10.5 -0.5t-11.5 -1t-10.5 -1.5t-9.5 -2.5l-7 -3.5t-5.5 -6
t-1.5 -9q0 -18 23 -74l83 -220h2q29 72 85 218q16 45 16 71q0 5 -1 8.5t-4 6.5t-6 5t-8 3.5t-8 2.5t-9 1.5t-8.5 0.5t-8.5 0.5t-7 0.5v26q62 -2 94 -2q13 0 39 1t40 1v-26q-31 0 -47 -16.5t-31 -55.5l-141 -353l-36 -6l-123 315l-120 -309z" />
    <glyph glyph-name="x" unicode="x" 
d="M19 0v26q45 0 66.5 9t49.5 44q13 17 50 59.5t57 66.5q-5 6 -65 85.5t-87 106.5q-16 16 -53 19v26q68 -2 103 -2q18 0 55 1t55 1v-26q-52 0 -52 -16q0 -6 21.5 -35t47 -60.5t29.5 -37.5q8 10 35 41t46 55.5t19 32.5q0 20 -46 20v26q72 -2 108 -2q13 0 39 1t40 1v-26
q-39 0 -63 -11t-49 -40q-15 -18 -52 -60t-57 -65q11 -12 49.5 -62.5t73.5 -94.5t42 -48q16 -9 34 -9h22v-26q-20 0 -57.5 1t-55.5 1q-37 0 -109 -2v26q17 0 24 0.5t15.5 1.5t11 4t2.5 9q0 3 -22.5 32.5t-51 64.5t-32.5 41q-5 -7 -33.5 -39.5t-53.5 -62t-25 -35.5
q0 -11 13.5 -13.5t45.5 -2.5v-26q-62 2 -94 2t-96 -2z" />
    <glyph glyph-name="y" unicode="y" horiz-adv-x="500" 
d="M17 416v26q78 -2 116 -2q15 0 45 1t45 1v-26q-2 0 -10.5 -1t-12.5 -1.5t-11.5 -2t-11 -4t-6.5 -7.5t-3 -11q0 -16 48.5 -135t52.5 -134h2q7 21 33.5 82t46 110.5t19.5 61.5q0 19 -10 29t-19.5 11.5t-26.5 1.5v26q62 -2 94 -2q25 0 75 2v-26q-32 1 -47.5 -14t-31.5 -50
l-226 -530q-21 -50 -64 -50q-22 0 -35.5 14t-13.5 34q0 19 14 34.5t34 15.5q25 0 41 -15q22 46 39.5 86.5t24.5 57.5l6 17q0 1 -33.5 86.5t-69.5 176t-41 100.5q-23 41 -63 37z" />
    <glyph glyph-name="z" unicode="z" horiz-adv-x="444" 
d="M138 32h145q41 1 57.5 16.5t55.5 82.5l21 -5l-28 -126h-367v8l267 402h-115q-31 0 -45.5 -2.5t-32 -19.5t-27.5 -52h-24l13 127h20q0 -15 12.5 -18t54.5 -3h258z" />
    <glyph glyph-name="braceleft" unicode="{" horiz-adv-x="333" 
d="M131 -46v186q0 53 -15.5 79.5t-60.5 40.5q45 14 60.5 40.5t15.5 79.5v186q0 88 35.5 117.5t111.5 29.5v-14q-45 -10 -63 -40t-18 -87v-177q0 -60 -16 -90.5t-65 -43.5v-2q49 -13 65 -43.5t16 -90.5v-177q0 -57 18 -87t63 -40v-14q-76 0 -111.5 29.5t-35.5 117.5z" />
    <glyph glyph-name="bar" unicode="|" horiz-adv-x="222" 
d="M78 -15v779h66v-779h-66z" />
    <glyph glyph-name="braceright" unicode="}" horiz-adv-x="333" 
d="M202 566v-186q0 -53 15.5 -79.5t60.5 -40.5q-45 -14 -60.5 -40.5t-15.5 -79.5v-186q0 -88 -35.5 -117.5t-111.5 -29.5v14q45 10 63 40t18 87v177q0 60 16 90.5t65 43.5v2q-49 13 -65 43.5t-16 90.5v177q0 57 -18 87t-63 40v14q76 0 111.5 -29.5t35.5 -117.5z" />
    <glyph glyph-name="asciitilde" unicode="~" 
d="M473 291l36 -50q-20 -27 -33 -42t-38 -29.5t-54 -14.5q-39 0 -106 33t-111 33q-52 0 -84 -70l-36 50q45 86 125 86q45 0 117 -33t96 -33q27 0 46.5 18t41.5 52z" />
    <glyph glyph-name="uni00A0" unicode="&#xa0;" horiz-adv-x="278" 
 />
    <glyph glyph-name="exclamdown" unicode="&#xa1;" horiz-adv-x="333" 
d="M155 282h23l36 -244q15 -99 15 -139q0 -100 -62 -100q-63 0 -63 100q0 40 15 139zM166 485q27 0 46.5 -19t19.5 -46q0 -26 -20 -46.5t-46 -20.5t-46 20t-20 47t19.5 46t46.5 19z" />
    <glyph glyph-name="cent" unicode="&#xa2;" 
d="M154 -148l52 150q-54 24 -89.5 77.5t-35.5 112.5q0 110 70.5 187.5t177.5 77.5q17 0 35 -3l42 122h37l-45 -129q66 -17 66 -59q0 -18 -10.5 -31t-27.5 -13q-8 0 -15 4t-11 9t-11.5 14.5t-11.5 14.5l-109 -313q33 -14 68 -14q60 0 122 47l17 -17q-89 -104 -195 -104
q-22 0 -41 6l-48 -139h-37zM237 91l112 320q-23 14 -57 14q-60 0 -95.5 -54t-35.5 -118q0 -50 20 -93t56 -69z" />
    <glyph glyph-name="sterling" unicode="&#xa3;" 
d="M178 368h-112l4 41h114q54 355 261 355q33 0 58.5 -12t25.5 -40q0 -19 -11 -30t-28 -11q-11 0 -20 4q-3 31 -16 44t-44 13q-22 0 -40.5 -14.5t-29.5 -33.5t-21 -50.5t-14 -52.5t-10 -53.5t-7 -39.5q-8 -40 -12 -79h136l-5 -41h-138q-23 -134 -104 -247q32 4 54 0
q38 -5 76 -27t67 -42t48 -20q26 0 39.5 16.5t13.5 31.5q0 31 -38 45q-1 3 -1 9q0 15 9.5 24.5t24.5 9.5q22 0 33.5 -16t11.5 -39q0 -17 -7 -36.5t-22.5 -41t-46 -36t-71.5 -14.5t-81 25.5t-73.5 50t-59.5 22.5q-20 -34 -46 -60.5t-50 -26.5q-8 0 -13.5 6.5t-5.5 14.5
q0 29 30.5 58.5t69.5 40.5q31 53 51 252z" />
    <glyph glyph-name="currency" unicode="&#xa4;" 
d="M27 138l55 57q-52 64 -52 149q0 96 54 151l-57 57l44 45l56 -57q62 53 154 53q86 0 147 -52l56 56l45 -45l-54 -55q51 -58 51 -151q0 -89 -51 -152l54 -56l-43 -43l-54 58q-62 -56 -152 -56q-92 0 -156 55l-54 -57zM460 346q0 74 -53 130.5t-126 56.5q-77 0 -131 -55.5
t-54 -133.5q0 -77 54 -132t130 -55q75 0 127.5 56.5t52.5 132.5z" />
    <glyph glyph-name="yen" unicode="&#xa5;" 
d="M-20 672v26q26 -2 122 -2q21 0 61.5 1t60.5 1v-26q-66 0 -66 -21q0 -6 34 -68l113 -196l110 182q36 61 36 74q0 20 -14 24.5t-57 4.5v26q76 -2 115 -2q13 0 40 1t41 1v-26q-29 -1 -47.5 -15.5t-36.5 -42.5l-159 -254h126v-41h-132v-78h132v-41h-132v-102q0 -20 5.5 -34
t12.5 -21.5t22.5 -11t25.5 -4.5t31 -1v-26q-100 2 -142 2q-50 0 -132 -2v26q21 0 31 1t25.5 4.5t22.5 11t12.5 21.5t5.5 34v102h-132v41h132v78h-132v41h119l-163 268q-16 27 -36.5 35.5t-54.5 8.5z" />
    <glyph glyph-name="brokenbar" unicode="&#xa6;" horiz-adv-x="222" 
d="M78 -15v282h66v-282h-66zM78 482v282h66v-282h-66z" />
    <glyph glyph-name="section" unicode="&#xa7;" 
d="M307 713q23 0 50 -6.5t50.5 -23.5t23.5 -41q0 -38 -43 -38q-15 0 -27.5 12t-20.5 26.5t-24 26.5t-38 12q-61 0 -61 -89q0 -49 24 -103.5t58 -104t68 -101t58 -113.5t24 -122q0 -98 -65.5 -169.5t-162.5 -71.5q-41 0 -84 21.5t-43 59.5q0 16 11 27t27 11q19 0 32 -13.5
t20 -30t23 -30t38 -13.5q38 0 56 31t18 72q0 57 -36 126.5t-78.5 125.5t-78.5 132.5t-36 146.5q0 93 63 166.5t154 73.5zM130 479q0 -46 22.5 -98.5t55.5 -101.5t66 -99t58 -106.5t28 -107.5q0 -42 -23 -86l2 -2q70 70 70 164q0 56 -36.5 130t-79.5 133.5t-79.5 129
t-36.5 117.5q0 39 13 78l-2 2q-58 -72 -58 -153z" />
    <glyph glyph-name="dieresis" unicode="&#xa8;" horiz-adv-x="278" 
d="M88 610q0 -18 -14 -31.5t-32 -13.5q-19 0 -32.5 13.5t-13.5 31.5t13.5 32t32.5 14q18 0 32 -14t14 -32zM282 610q0 -18 -14 -31.5t-32 -13.5t-32 13.5t-14 31.5t14 32t32 14t32 -14t14 -32z" />
    <glyph glyph-name="copyright" unicode="&#xa9;" horiz-adv-x="800" 
d="M400 -15q-152 0 -258 106t-106 255q0 153 106 260t258 107q153 0 258.5 -107t105.5 -260q0 -149 -106 -255t-258 -106zM400 32q127 0 216 94t89 220q0 130 -88.5 225t-216.5 95q-127 0 -216 -95t-89 -225q0 -126 89.5 -220t215.5 -94zM562 260h18l-17 -74q-1 -12 -28 -20
q-54 -18 -113 -18q-101 0 -164.5 52t-63.5 158q0 76 61 140t174 64q50 0 111 -19q22 -7 22 -22v-74h-20q-4 39 -32 67t-84 28q-75 0 -113.5 -49.5t-38.5 -130.5q0 -89 38.5 -141.5t119.5 -52.5q92 0 130 92z" />
    <glyph glyph-name="ordfeminine" unicode="&#xaa;" horiz-adv-x="325" 
d="M247 656v-166q0 -35 23 -35q13 0 22 9l7 -11q-33 -30 -63 -30q-20 0 -33 14t-14 33q-45 -47 -101 -47q-26 0 -44 17t-18 41q0 34 46 56q20 10 116 42v43q0 24 -15 37.5t-41 13.5q-19 0 -31.5 -11t-13.5 -31q0 -12 -13.5 -18.5t-27.5 -6.5q-12 0 -12 12q0 21 17 34.5
t58 33.5q40 19 59 19q26 0 52.5 -13.5t26.5 -35.5zM188 489v75q-53 -16 -78 -31t-25 -39q0 -39 38 -39q35 0 65 34z" />
    <glyph glyph-name="guillemotleft" unicode="&#xab;" 
d="M103 244l167 163l17 -14l-104 -149l104 -149l-17 -14zM269 244l167 163l17 -14l-104 -149l104 -149l-17 -14z" />
    <glyph glyph-name="logicalnot" unicode="&#xac;" 
d="M433 76v212h-376v66h442v-278h-66z" />
    <glyph glyph-name="uni00AD" unicode="&#xad;" horiz-adv-x="333" 
d="M292 277l-9 -66q-60 3 -120 3q-81 0 -121 -3l9 66q60 -3 121 -3q60 0 120 3z" />
    <glyph glyph-name="registered" unicode="&#xae;" horiz-adv-x="800" 
d="M400 -15q-152 0 -258 106t-106 255q0 153 106 260t258 107q153 0 258.5 -107t105.5 -260q0 -149 -106 -255t-258 -106zM400 32q127 0 216 94t89 220q0 130 -88.5 225t-216.5 95q-127 0 -216 -95t-89 -225q0 -126 89.5 -220t215.5 -94zM401 173v-14h-172v14q43 6 48 12
q5 7 5 21v276q0 36 -6 42t-45 10v16h186q52 0 87.5 -25t35.5 -72q0 -40 -23.5 -69.5t-62.5 -41.5l60 -84q48 -66 80 -91v-8h-67q-15 0 -30 18t-45 70t-52 85h-52v-126q0 -20 8 -24t45 -9zM348 530v-178h47q71 0 71 96q0 82 -73 82h-45z" />
    <glyph glyph-name="macron" unicode="&#xaf;" horiz-adv-x="278" 
d="M272 580h-266v54h266v-54z" />
    <glyph glyph-name="degree" unicode="&#xb0;" horiz-adv-x="400" 
d="M200 705q60 0 101.5 -41.5t41.5 -101.5t-41.5 -101.5t-101.5 -41.5t-101.5 41.5t-41.5 101.5t41.5 101.5t101.5 41.5zM116 562q0 -41 26 -65t58 -24t58 24t26 65t-26 65t-58 24t-58 -24t-26 -65z" />
    <glyph glyph-name="plusminus" unicode="&#xb1;" 
d="M245 299v110h66v-110h188v-66h-188v-110h-66v110h-188v66h188zM57 0v66h442v-66h-442z" />
    <glyph glyph-name="twosuperior" unicode="&#xb2;" horiz-adv-x="361" 
d="M112 336h192l15 25h19l-19 -79h-291q-5 0 -5 9v6q0 1 5 6q54 40 104 93q96 104 96 176q0 86 -79 86q-44 0 -89 -50l-18 12q19 25 34.5 41t45.5 30t66 14q50 0 82 -31.5t32 -78.5q0 -29 -12 -59t-38 -60.5t-43.5 -49.5t-53 -51t-43.5 -39z" />
    <glyph glyph-name="threesuperior" unicode="&#xb3;" horiz-adv-x="361" 
d="M122 481v26q43 3 76 28.5t33 60.5q0 32 -18 50t-49 18q-43 0 -82 -36l-14 11q32 34 60.5 50t73.5 16q39 0 67 -24t28 -61q0 -35 -28 -63t-68 -43l2 -2q15 1 33.5 -2.5t39 -12.5t34 -30.5t13.5 -50.5q0 -51 -46.5 -97t-131.5 -46q-47 0 -77 16.5t-30 33.5q0 8 6.5 14
t14.5 6q9 0 18 -11t26.5 -22t46.5 -11q45 0 72 27t27 66q0 53 -33.5 72.5t-93.5 16.5z" />
    <glyph glyph-name="acute" unicode="&#xb4;" horiz-adv-x="278" 
d="M28 545h-35l134 133q2 2 7.5 8t8 8t8 6.5t9.5 6.5t9.5 4t10.5 2q13 0 22.5 -10t9.5 -20q0 -24 -17 -34z" />
    <glyph glyph-name="mu" unicode="&#xb5;" 
d="M461 424v-369q0 -9 4 -13t9 -5t15 -1q6 0 19.5 0.5t20.5 0.5v-21q-65 -6 -144 -31l-5 3v81q-54 -44 -91.5 -64t-85.5 -20q-32 0 -54 21q0 -42 7.5 -102t6.5 -80q-2 -52 -46 -52q-40 0 -40 52q0 16 8 114.5t8 166.5v255q0 16 -3 25.5t-17 19t-40 11.5v19q20 1 71.5 4
t57.5 3q8 0 9.5 -5.5t1.5 -23.5v-258q0 -116 87 -116q48 0 121 61v269q0 18 -74 38q-7 2 -10 3v18q39 3 76.5 6.5t57 5.5t22.5 2q8 0 8 -18z" />
    <glyph glyph-name="paragraph" unicode="&#xb6;" 
d="M515 698v-20q-55 -7 -68.5 -14.5t-13.5 -39.5v-728q0 -32 13.5 -39.5t68.5 -14.5v-20h-148v844h-66v-844h-148v20q55 7 68.5 14.5t13.5 39.5v379q-96 0 -145 59t-49 160q0 108 48.5 156t160.5 48h265zM235 316v341q-62 0 -91 -35.5t-29 -129.5q0 -88 35 -132t85 -44z" />
    <glyph glyph-name="periodcentered" unicode="&#xb7;" horiz-adv-x="278" 
d="M205 292q0 -26 -19.5 -46t-45.5 -20q-28 0 -47.5 19.5t-19.5 46.5q0 28 19.5 47t46.5 19t46.5 -19.5t19.5 -46.5z" />
    <glyph glyph-name="cedilla" unicode="&#xb8;" horiz-adv-x="278" 
d="M155 0l-30 -64l2 -2q13 9 32 9q32 0 55 -20.5t23 -51.5q0 -43 -34 -63.5t-80 -20.5q-50 0 -88 15l14 30q43 -13 63 -13q23 0 41 11t18 32q0 18 -13 29t-32 11q-20 0 -36 -6l-14 5l44 99h35z" />
    <glyph glyph-name="onesuperior" unicode="&#xb9;" horiz-adv-x="361" 
d="M228 705v-372q0 -14 9.5 -19.5t33.5 -5.5h37v-26q-22 0 -58 0.5t-52 0.5q-79 0 -116 -1v26h37q24 0 33.5 5.5t9.5 19.5v311q-62 -31 -93 -46l-9 21q64 30 155 86h13z" />
    <glyph glyph-name="ordmasculine" unicode="&#xba;" horiz-adv-x="361" 
d="M26 562q0 59 44 101t107 42q67 0 112.5 -39t45.5 -101q0 -58 -44 -100t-106 -42q-67 0 -113 38.5t-46 100.5zM92 568q0 -45 22.5 -85t69.5 -40q44 0 64.5 35t20.5 81t-22.5 86t-69.5 40q-45 0 -65 -35t-20 -82z" />
    <glyph glyph-name="guillemotright" unicode="&#xbb;" 
d="M453 244l-167 -163l-17 14l104 149l-104 149l17 14zM287 244l-167 -163l-17 14l104 149l-104 149l17 14z" />
    <glyph glyph-name="onequarter" unicode="&#xbc;" horiz-adv-x="834" 
d="M645 0v127h-190v28l219 268h30v-249h67v-47h-67v-127h-59zM231 705v-372q0 -14 9.5 -19.5t33.5 -5.5h37v-26q-22 0 -58 0.5t-52 0.5q-79 0 -116 -1v26h37q24 0 33.5 5.5t9.5 19.5v311q-62 -31 -93 -46l-9 21q64 30 155 86h13zM242 -23h-46l451 736h46zM645 174v172h-2
l-136 -172h138z" />
    <glyph glyph-name="onehalf" unicode="&#xbd;" horiz-adv-x="834" 
d="M791 79l-19 -79h-291q-5 0 -5 9v6q0 1 5 6q54 40 104 93q96 104 96 176q0 86 -79 86q-44 0 -89 -50l-18 12q19 25 34.5 41t45.5 30t66 14q50 0 82 -31.5t32 -78.5q0 -29 -12 -59t-38 -60.5t-43.5 -49.5t-53 -51t-43.5 -39h192l15 25h19zM211 705v-372q0 -14 9.5 -19.5
t33.5 -5.5h37v-26q-22 0 -58 0.5t-52 0.5q-79 0 -116 -1v26h37q24 0 33.5 5.5t9.5 19.5v311q-62 -31 -93 -46l-9 21q64 30 155 86h13zM208 -23h-46l451 736h46z" />
    <glyph glyph-name="threequarters" unicode="&#xbe;" horiz-adv-x="834" 
d="M647 0v127h-190v28l219 268h30v-249h67v-47h-67v-127h-59zM145 481v26q43 3 76 28.5t33 60.5q0 32 -18 50t-49 18q-43 0 -82 -36l-14 11q32 34 60.5 50t73.5 16q39 0 67 -24t28 -61q0 -35 -28 -63t-68 -43l2 -2h9q24 0 47 -7t43.5 -30t20.5 -59q0 -51 -46.5 -97
t-131.5 -46q-47 0 -77 16.5t-30 33.5q0 8 6.5 14t14.5 6q9 0 18 -11t26.5 -22t46.5 -11q45 0 72 27t27 66q0 90 -108 90zM244 -23h-46l451 736h46zM647 174v172h-2l-136 -172h138z" />
    <glyph glyph-name="questiondown" unicode="&#xbf;" horiz-adv-x="444" 
d="M265 282h26v-180q-68 -4 -116 -34.5t-48 -94.5q0 -46 32.5 -78t93.5 -32q5 0 15 1.5t15 1.5q23 0 37 -13t14 -36q0 -45 -53 -45q-45 0 -84.5 26.5t-64 66t-38.5 82.5t-14 79q0 71 34 109.5t112 51.5q21 3 30 15.5t9 47.5v32zM268 485q27 0 46.5 -19t19.5 -46
q0 -26 -20 -46.5t-46 -20.5t-46 20t-20 47t19.5 46t46.5 19z" />
    <glyph glyph-name="Agrave" unicode="&#xc0;" horiz-adv-x="721" 
d="M378 726l191 -527q48 -134 57 -146q20 -27 77 -27v-26q-19 0 -57.5 1t-57.5 1q-48 0 -146 -2v26h18q55 0 55 33q0 17 -15 58l-50 145h-235l-22 -70q-27 -87 -27 -119q0 -20 9 -30.5t21 -13t31 -3.5h7h23v-26q-19 0 -59 1t-59 1q-41 0 -121 -2v26q46 5 62 17t35 54
q8 18 41 112l128 357q21 60 21 90q0 18 -2 26q44 21 58 44h17zM326 597l-97 -294h206l-107 294h-2zM417 738h-35l-167 104q-17 10 -17 34q0 10 9.5 20t22.5 10q5 0 10.5 -2t9.5 -4t9.5 -6.5t8 -6.5t8 -8t7.5 -8z" />
    <glyph glyph-name="Aacute" unicode="&#xc1;" horiz-adv-x="721" 
d="M378 726l191 -527q48 -134 57 -146q20 -27 77 -27v-26q-19 0 -57.5 1t-57.5 1q-48 0 -146 -2v26h18q55 0 55 33q0 17 -15 58l-50 145h-235l-22 -70q-27 -87 -27 -119q0 -20 9 -30.5t21 -13t31 -3.5h7h23v-26q-19 0 -59 1t-59 1q-41 0 -121 -2v26q46 5 62 17t35 54
q8 18 41 112l128 357q21 60 21 90q0 18 -2 26q44 21 58 44h17zM326 597l-97 -294h206l-107 294h-2zM313 738h-35l134 133q2 2 7.5 8t8 8t8 6.5t9.5 6.5t9.5 4t10.5 2q13 0 22.5 -10t9.5 -20q0 -24 -17 -34z" />
    <glyph glyph-name="Acircumflex" unicode="&#xc2;" horiz-adv-x="721" 
d="M378 726l191 -527q48 -134 57 -146q20 -27 77 -27v-26q-19 0 -57.5 1t-57.5 1q-48 0 -146 -2v26h18q55 0 55 33q0 17 -15 58l-50 145h-235l-22 -70q-27 -87 -27 -119q0 -20 9 -30.5t21 -13t31 -3.5h7h23v-26q-19 0 -59 1t-59 1q-41 0 -121 -2v26q46 5 62 17t35 54
q8 18 41 112l128 357q21 60 21 90q0 18 -2 26q44 21 58 44h17zM326 597l-97 -294h206l-107 294h-2zM333 906h56l122 -166h-33l-117 106l-117 -106h-33z" />
    <glyph glyph-name="Atilde" unicode="&#xc3;" horiz-adv-x="721" 
d="M378 726l191 -527q48 -134 57 -146q20 -27 77 -27v-26q-19 0 -57.5 1t-57.5 1q-48 0 -146 -2v26h18q55 0 55 33q0 17 -15 58l-50 145h-235l-22 -70q-27 -87 -27 -119q0 -20 9 -30.5t21 -13t31 -3.5h7h23v-26q-19 0 -59 1t-59 1q-41 0 -121 -2v26q46 5 62 17t35 54
q8 18 41 112l128 357q21 60 21 90q0 18 -2 26q44 21 58 44h17zM326 597l-97 -294h206l-107 294h-2zM495 862h27q-8 -44 -30 -74t-61 -30q-27 0 -79 24q-56 23 -74 23q-36 0 -51 -47h-27q11 50 36 77t58 27q28 0 77 -21q59 -23 76 -23q21 0 30.5 10.5t17.5 33.5z" />
    <glyph glyph-name="Adieresis" unicode="&#xc4;" horiz-adv-x="721" 
d="M378 726l191 -527q48 -134 57 -146q20 -27 77 -27v-26q-19 0 -57.5 1t-57.5 1q-48 0 -146 -2v26h18q55 0 55 33q0 17 -15 58l-50 145h-235l-22 -70q-27 -87 -27 -119q0 -20 9 -30.5t21 -13t31 -3.5h7h23v-26q-19 0 -59 1t-59 1q-41 0 -121 -2v26q46 5 62 17t35 54
q8 18 41 112l128 357q21 60 21 90q0 18 -2 26q44 21 58 44h17zM326 597l-97 -294h206l-107 294h-2zM310 803q0 -18 -14 -31.5t-32 -13.5q-19 0 -32.5 13.5t-13.5 31.5t13.5 32t32.5 14q18 0 32 -14t14 -32zM504 803q0 -18 -14 -31.5t-32 -13.5t-32 13.5t-14 31.5t14 32
t32 14t32 -14t14 -32z" />
    <glyph glyph-name="Aring" unicode="&#xc5;" horiz-adv-x="721" 
d="M378 726l191 -527q48 -134 57 -146q20 -27 77 -27v-26q-19 0 -57.5 1t-57.5 1q-48 0 -146 -2v26h18q55 0 55 33q0 17 -15 58l-50 145h-235l-22 -70q-27 -87 -27 -119q0 -20 9 -30.5t21 -13t31 -3.5h7h23v-26q-19 0 -59 1t-59 1q-41 0 -121 -2v26q46 5 62 17t35 54
q8 18 41 112l128 357q21 60 21 90q0 18 -2 26q44 21 58 44h17zM326 597l-97 -294h206l-107 294h-2zM264 847q0 39 29 68t68 29t68 -29t29 -68t-29 -68.5t-68 -29.5t-68 29.5t-29 68.5zM296 847q0 -28 18.5 -47t46.5 -19t46.5 19t18.5 47t-18.5 46.5t-46.5 18.5t-46.5 -18.5
t-18.5 -46.5z" />
    <glyph glyph-name="AE" unicode="&#xc6;" horiz-adv-x="1000" 
d="M590 666v-284h172q44 0 53 34q2 12 4 54h20q0 -13 -1.5 -47t-1.5 -58q0 -13 1.5 -50t1.5 -56h-21q0 3 -1 12.5t-1.5 13.5t-2 12t-3.5 12t-5.5 10t-9 9t-12.5 6.5t-16.5 5t-21.5 1.5h-155v-204q0 -66 18.5 -85t90.5 -20h71q67 0 98 20t73 98l22 -6q-30 -129 -32 -144
q-57 0 -153 1t-128 1q-49 0 -134.5 -1t-118.5 -1v26h14q46 0 63.5 18.5t17.5 55.5v241h-186l-110 -203q-36 -64 -36 -88q0 -13 18 -17.5t55 -6.5v-26q-19 0 -56.5 1t-56.5 1q-34 0 -102 -2v26q45 1 69.5 22.5t50.5 69.5l242 445q2 3 10.5 18t13.5 24t10 22t5 21q0 24 -79 24
v26q27 0 132.5 -0.5t127.5 -1.5q50 0 150 1t152 1l8 -149h-24q-16 76 -45 96.5t-115 20.5h-136zM492 382v281h-9l-155 -281h164z" />
    <glyph glyph-name="Ccedilla" unicode="&#xc7;" horiz-adv-x="722" 
d="M673 660l10 -143h-25q-27 164 -214 164q-47 0 -93.5 -16.5t-90 -51t-71 -99.5t-27.5 -150q0 -148 89.5 -247.5t208.5 -99.5q75 0 130.5 47.5t70.5 125.5l23 -6l-23 -146q-31 -19 -101 -36t-120 -17h-8l-23 -49l2 -2q13 9 32 9q32 0 55 -20.5t23 -51.5q0 -43 -34 -63.5
t-80 -20.5q-50 0 -88 15l14 30q43 -13 63 -13q23 0 41 11t18 32q0 18 -13 29t-32 11q-20 0 -36 -6l-14 5l38 86q-157 12 -248.5 113.5t-91.5 260.5q0 150 114 251t265 101q85 0 236 -53z" />
    <glyph glyph-name="Egrave" unicode="&#xc8;" horiz-adv-x="611" 
d="M225 666v-284h132q13 0 24 2t19 6.5t14 8.5t10.5 11.5t7 12t4.5 13t2.5 12t1.5 11.5t1 9h20q-4 -44 -4 -112q0 -14 2.5 -54t1.5 -57h-20q0 36 -5 55.5t-21.5 28.5t-31.5 10.5t-51 1.5h-107v-170q0 -89 16 -114t87 -25h62q80 4 116.5 26.5t64.5 98.5l24 -4
q-29 -91 -41 -153q-50 0 -150 1t-150 1q-148 0 -222 -2v26q64 0 79.5 19.5t15.5 93.5v444q0 59 -16.5 73t-78.5 16v26q67 -2 202 -2q191 0 288 2v-149l-20 -5q-11 69 -47 95.5t-113 26.5h-117zM380 738h-35l-167 104q-17 10 -17 34q0 10 9.5 20t22.5 10q5 0 10.5 -2t9.5 -4
t9.5 -6.5t8 -6.5t8 -8t7.5 -8z" />
    <glyph glyph-name="Eacute" unicode="&#xc9;" horiz-adv-x="611" 
d="M225 666v-284h132q13 0 24 2t19 6.5t14 8.5t10.5 11.5t7 12t4.5 13t2.5 12t1.5 11.5t1 9h20q-4 -44 -4 -112q0 -14 2.5 -54t1.5 -57h-20q0 36 -5 55.5t-21.5 28.5t-31.5 10.5t-51 1.5h-107v-170q0 -89 16 -114t87 -25h62q80 4 116.5 26.5t64.5 98.5l24 -4
q-29 -91 -41 -153q-50 0 -150 1t-150 1q-148 0 -222 -2v26q64 0 79.5 19.5t15.5 93.5v444q0 59 -16.5 73t-78.5 16v26q67 -2 202 -2q191 0 288 2v-149l-20 -5q-11 69 -47 95.5t-113 26.5h-117zM258 738h-35l134 133q2 2 7.5 8t8 8t8 6.5t9.5 6.5t9.5 4t10.5 2q13 0 22.5 -10
t9.5 -20q0 -24 -17 -34z" />
    <glyph glyph-name="Ecircumflex" unicode="&#xca;" horiz-adv-x="611" 
d="M225 666v-284h132q13 0 24 2t19 6.5t14 8.5t10.5 11.5t7 12t4.5 13t2.5 12t1.5 11.5t1 9h20q-4 -44 -4 -112q0 -14 2.5 -54t1.5 -57h-20q0 36 -5 55.5t-21.5 28.5t-31.5 10.5t-51 1.5h-107v-170q0 -89 16 -114t87 -25h62q80 4 116.5 26.5t64.5 98.5l24 -4
q-29 -91 -41 -153q-50 0 -150 1t-150 1q-148 0 -222 -2v26q64 0 79.5 19.5t15.5 93.5v444q0 59 -16.5 73t-78.5 16v26q67 -2 202 -2q191 0 288 2v-149l-20 -5q-11 69 -47 95.5t-113 26.5h-117zM278 906h56l122 -166h-33l-117 106l-117 -106h-33z" />
    <glyph glyph-name="Edieresis" unicode="&#xcb;" horiz-adv-x="611" 
d="M225 666v-284h132q13 0 24 2t19 6.5t14 8.5t10.5 11.5t7 12t4.5 13t2.5 12t1.5 11.5t1 9h20q-4 -44 -4 -112q0 -14 2.5 -54t1.5 -57h-20q0 36 -5 55.5t-21.5 28.5t-31.5 10.5t-51 1.5h-107v-170q0 -89 16 -114t87 -25h62q80 4 116.5 26.5t64.5 98.5l24 -4
q-29 -91 -41 -153q-50 0 -150 1t-150 1q-148 0 -222 -2v26q64 0 79.5 19.5t15.5 93.5v444q0 59 -16.5 73t-78.5 16v26q67 -2 202 -2q191 0 288 2v-149l-20 -5q-11 69 -47 95.5t-113 26.5h-117zM255 803q0 -18 -14 -31.5t-32 -13.5q-19 0 -32.5 13.5t-13.5 31.5t13.5 32
t32.5 14q18 0 32 -14t14 -32zM449 803q0 -18 -14 -31.5t-32 -13.5t-32 13.5t-14 31.5t14 32t32 14t32 -14t14 -32z" />
    <glyph glyph-name="Igrave" unicode="&#xcc;" horiz-adv-x="332" 
d="M117 98v502q0 25 -6 40.5t-20.5 21.5t-27 8t-37.5 2v26q94 -2 138 -2q42 0 142 2v-26q-25 0 -37.5 -2t-27 -8t-20.5 -21.5t-6 -40.5v-502q0 -25 6 -40.5t20.5 -21.5t27 -8t37.5 -2v-26q-24 0 -69 1t-66 1q-45 0 -145 -2v26q25 0 37.5 2t27 8t20.5 21.5t6 40.5zM249 738
h-35l-167 104q-17 10 -17 34q0 10 9.5 20t22.5 10q5 0 10.5 -2t9.5 -4t9.5 -6.5t8 -6.5t8 -8t7.5 -8z" />
    <glyph glyph-name="Iacute" unicode="&#xcd;" horiz-adv-x="332" 
d="M117 98v502q0 25 -6 40.5t-20.5 21.5t-27 8t-37.5 2v26q94 -2 138 -2q42 0 142 2v-26q-25 0 -37.5 -2t-27 -8t-20.5 -21.5t-6 -40.5v-502q0 -25 6 -40.5t20.5 -21.5t27 -8t37.5 -2v-26q-24 0 -69 1t-66 1q-45 0 -145 -2v26q25 0 37.5 2t27 8t20.5 21.5t6 40.5zM118 738
h-35l134 133q2 2 7.5 8t8 8t8 6.5t9.5 6.5t9.5 4t10.5 2q13 0 22.5 -10t9.5 -20q0 -24 -17 -34z" />
    <glyph glyph-name="Icircumflex" unicode="&#xce;" horiz-adv-x="332" 
d="M117 98v502q0 25 -6 40.5t-20.5 21.5t-27 8t-37.5 2v26q94 -2 138 -2q42 0 142 2v-26q-25 0 -37.5 -2t-27 -8t-20.5 -21.5t-6 -40.5v-502q0 -25 6 -40.5t20.5 -21.5t27 -8t37.5 -2v-26q-24 0 -69 1t-66 1q-45 0 -145 -2v26q25 0 37.5 2t27 8t20.5 21.5t6 40.5zM138 906
h56l122 -166h-33l-117 106l-117 -106h-33z" />
    <glyph glyph-name="Idieresis" unicode="&#xcf;" horiz-adv-x="332" 
d="M117 98v502q0 25 -6 40.5t-20.5 21.5t-27 8t-37.5 2v26q94 -2 138 -2q42 0 142 2v-26q-25 0 -37.5 -2t-27 -8t-20.5 -21.5t-6 -40.5v-502q0 -25 6 -40.5t20.5 -21.5t27 -8t37.5 -2v-26q-24 0 -69 1t-66 1q-45 0 -145 -2v26q25 0 37.5 2t27 8t20.5 21.5t6 40.5zM115 803
q0 -18 -14 -31.5t-32 -13.5q-19 0 -32.5 13.5t-13.5 31.5t13.5 32t32.5 14q18 0 32 -14t14 -32zM309 803q0 -18 -14 -31.5t-32 -13.5t-32 13.5t-14 31.5t14 32t32 14t32 -14t14 -32z" />
    <glyph glyph-name="Eth" unicode="&#xd0;" horiz-adv-x="778" 
d="M121 385v202q0 13 -1.5 24t-3 19t-7 14.5t-7.5 11t-10.5 7.5t-10.5 4.5t-12.5 2.5t-12 1.5t-14.5 0.5h-13v26q39 -2 118 -2q17 0 74.5 1t98.5 1q94 0 171.5 -29.5t126.5 -79t75.5 -112t26.5 -129.5q0 -35 -8.5 -74.5t-35.5 -90t-69.5 -90t-120 -66.5t-178.5 -27
q-26 0 -74 1t-71 1q-44 0 -134 -2v26q29 3 40.5 5t26 9.5t19.5 22t6 39.5v236h-90v47h90zM398 385v-47h-179v-220q0 -27 9 -45.5t25.5 -26.5t32 -11t37.5 -3q78 0 135.5 27t89.5 73.5t47 99.5t15 112q0 142 -85 232t-228 90q-6 0 -78 -4v-277h179z" />
    <glyph glyph-name="Ntilde" unicode="&#xd1;" horiz-adv-x="833" 
d="M724 569v-578h-23l-523 574v-373q0 -106 20 -136t99 -30v-26q-22 0 -66.5 1t-66.5 1q-45 0 -133 -2v26q30 0 44 2.5t31.5 13.5t24.5 38t7 73v402q0 64 -29 90.5t-94 26.5v26q62 -2 92 -2q13 0 41 1t41 1q18 -27 51.5 -65t96.5 -105t100 -108q49 -54 138.5 -150
t108.5 -117v398q0 70 -23.5 95t-97.5 26v26q92 -2 139 -2q20 0 58 1t58 1v-26q-53 0 -73.5 -17.5t-20.5 -85.5zM551 862h27q-8 -44 -30 -74t-61 -30q-27 0 -79 24q-56 23 -74 23q-36 0 -51 -47h-27q11 50 36 77t58 27q28 0 77 -21q59 -23 76 -23q21 0 30.5 10.5t17.5 33.5z
" />
    <glyph glyph-name="Ograve" unicode="&#xd2;" horiz-adv-x="833" 
d="M58 345q0 93 43.5 176.5t127.5 137.5t189 54q148 0 252.5 -107.5t104.5 -252.5q0 -93 -43.5 -176.5t-127.5 -137.5t-189 -54q-148 0 -252.5 107.5t-104.5 252.5zM168 374q0 -81 28 -160.5t89 -138t142 -58.5q108 0 173 85t65 222q0 81 -28 160.5t-89 138t-142 58.5
q-108 0 -173 -85t-65 -222zM500 738h-35l-167 104q-17 10 -17 34q0 10 9.5 20t22.5 10q5 0 10.5 -2t9.5 -4t9.5 -6.5t8 -6.5t8 -8t7.5 -8z" />
    <glyph glyph-name="Oacute" unicode="&#xd3;" horiz-adv-x="833" 
d="M58 345q0 93 43.5 176.5t127.5 137.5t189 54q148 0 252.5 -107.5t104.5 -252.5q0 -93 -43.5 -176.5t-127.5 -137.5t-189 -54q-148 0 -252.5 107.5t-104.5 252.5zM168 374q0 -81 28 -160.5t89 -138t142 -58.5q108 0 173 85t65 222q0 81 -28 160.5t-89 138t-142 58.5
q-108 0 -173 -85t-65 -222zM369 738h-35l134 133q2 2 7.5 8t8 8t8 6.5t9.5 6.5t9.5 4t10.5 2q13 0 22.5 -10t9.5 -20q0 -24 -17 -34z" />
    <glyph glyph-name="Ocircumflex" unicode="&#xd4;" horiz-adv-x="833" 
d="M58 345q0 93 43.5 176.5t127.5 137.5t189 54q148 0 252.5 -107.5t104.5 -252.5q0 -93 -43.5 -176.5t-127.5 -137.5t-189 -54q-148 0 -252.5 107.5t-104.5 252.5zM168 374q0 -81 28 -160.5t89 -138t142 -58.5q108 0 173 85t65 222q0 81 -28 160.5t-89 138t-142 58.5
q-108 0 -173 -85t-65 -222zM389 906h56l122 -166h-33l-117 106l-117 -106h-33z" />
    <glyph glyph-name="Otilde" unicode="&#xd5;" horiz-adv-x="833" 
d="M58 345q0 93 43.5 176.5t127.5 137.5t189 54q148 0 252.5 -107.5t104.5 -252.5q0 -93 -43.5 -176.5t-127.5 -137.5t-189 -54q-148 0 -252.5 107.5t-104.5 252.5zM168 374q0 -81 28 -160.5t89 -138t142 -58.5q108 0 173 85t65 222q0 81 -28 160.5t-89 138t-142 58.5
q-108 0 -173 -85t-65 -222zM551 862h27q-8 -44 -30 -74t-61 -30q-27 0 -79 24q-56 23 -74 23q-36 0 -51 -47h-27q11 50 36 77t58 27q28 0 77 -21q59 -23 76 -23q21 0 30.5 10.5t17.5 33.5z" />
    <glyph glyph-name="Odieresis" unicode="&#xd6;" horiz-adv-x="833" 
d="M58 345q0 93 43.5 176.5t127.5 137.5t189 54q148 0 252.5 -107.5t104.5 -252.5q0 -93 -43.5 -176.5t-127.5 -137.5t-189 -54q-148 0 -252.5 107.5t-104.5 252.5zM168 374q0 -81 28 -160.5t89 -138t142 -58.5q108 0 173 85t65 222q0 81 -28 160.5t-89 138t-142 58.5
q-108 0 -173 -85t-65 -222zM366 803q0 -18 -14 -31.5t-32 -13.5q-19 0 -32.5 13.5t-13.5 31.5t13.5 32t32.5 14q18 0 32 -14t14 -32zM560 803q0 -18 -14 -31.5t-32 -13.5t-32 13.5t-14 31.5t14 32t32 14t32 -14t14 -32z" />
    <glyph glyph-name="multiply" unicode="&#xd7;" 
d="M278 176l-174 -173l-47 46l176 172l-176 175l48 46l173 -175l173 175l48 -46l-176 -175l176 -172l-47 -46z" />
    <glyph glyph-name="Oslash" unicode="&#xd8;" horiz-adv-x="833" 
d="M37 -2l112 110q-91 102 -91 237q0 93 43.5 176.5t127.5 137.5t189 54q142 0 244 -99l106 104l28 -28l-107 -105q86 -102 86 -232q0 -93 -43.5 -176.5t-127.5 -137.5t-189 -54q-138 0 -239 95l-111 -110zM215 174l387 381q-74 126 -196 126q-108 0 -173 -85t-65 -222
q0 -107 47 -200zM621 518l-386 -380q73 -121 192 -121q108 0 173 85t65 222q0 100 -44 194z" />
    <glyph glyph-name="Ugrave" unicode="&#xd9;" horiz-adv-x="722" 
d="M710 698v-26q-56 0 -67.5 -29.5t-11.5 -131.5v-288q0 -107 -67 -172.5t-194 -65.5q-126 0 -195.5 62.5t-71.5 187.5v365q0 25 -6 40.5t-20.5 21.5t-27 8t-37.5 2v26q94 -2 138 -2q42 0 142 2v-26q-25 0 -37.5 -2t-27 -8t-20.5 -21.5t-6 -40.5v-340q0 -234 195 -234
q182 0 182 197v285v54t-3 40t-3.5 29.5t-8 18.5t-10.5 12t-18 6t-22 3t-30 1v26q84 -2 126 -2q17 0 50.5 1t50.5 1zM462 738h-35l-167 104q-17 10 -17 34q0 10 9.5 20t22.5 10q5 0 10.5 -2t9.5 -4t9.5 -6.5t8 -6.5t8 -8t7.5 -8z" />
    <glyph glyph-name="Uacute" unicode="&#xda;" horiz-adv-x="722" 
d="M710 698v-26q-56 0 -67.5 -29.5t-11.5 -131.5v-288q0 -107 -67 -172.5t-194 -65.5q-126 0 -195.5 62.5t-71.5 187.5v365q0 25 -6 40.5t-20.5 21.5t-27 8t-37.5 2v26q94 -2 138 -2q42 0 142 2v-26q-25 0 -37.5 -2t-27 -8t-20.5 -21.5t-6 -40.5v-340q0 -234 195 -234
q182 0 182 197v285v54t-3 40t-3.5 29.5t-8 18.5t-10.5 12t-18 6t-22 3t-30 1v26q84 -2 126 -2q17 0 50.5 1t50.5 1zM322 738h-35l134 133q2 2 7.5 8t8 8t8 6.5t9.5 6.5t9.5 4t10.5 2q13 0 22.5 -10t9.5 -20q0 -24 -17 -34z" />
    <glyph glyph-name="Ucircumflex" unicode="&#xdb;" horiz-adv-x="722" 
d="M710 698v-26q-56 0 -67.5 -29.5t-11.5 -131.5v-288q0 -107 -67 -172.5t-194 -65.5q-126 0 -195.5 62.5t-71.5 187.5v365q0 25 -6 40.5t-20.5 21.5t-27 8t-37.5 2v26q94 -2 138 -2q42 0 142 2v-26q-25 0 -37.5 -2t-27 -8t-20.5 -21.5t-6 -40.5v-340q0 -234 195 -234
q182 0 182 197v285v54t-3 40t-3.5 29.5t-8 18.5t-10.5 12t-18 6t-22 3t-30 1v26q84 -2 126 -2q17 0 50.5 1t50.5 1zM333 906h56l122 -166h-33l-117 106l-117 -106h-33z" />
    <glyph glyph-name="Udieresis" unicode="&#xdc;" horiz-adv-x="722" 
d="M710 698v-26q-56 0 -67.5 -29.5t-11.5 -131.5v-288q0 -107 -67 -172.5t-194 -65.5q-126 0 -195.5 62.5t-71.5 187.5v365q0 25 -6 40.5t-20.5 21.5t-27 8t-37.5 2v26q94 -2 138 -2q42 0 142 2v-26q-25 0 -37.5 -2t-27 -8t-20.5 -21.5t-6 -40.5v-340q0 -234 195 -234
q182 0 182 197v285v54t-3 40t-3.5 29.5t-8 18.5t-10.5 12t-18 6t-22 3t-30 1v26q84 -2 126 -2q17 0 50.5 1t50.5 1zM320 803q0 -18 -14 -31.5t-32 -13.5q-19 0 -32.5 13.5t-13.5 31.5t13.5 32t32.5 14q18 0 32 -14t14 -32zM514 803q0 -18 -14 -31.5t-32 -13.5t-32 13.5
t-14 31.5t14 32t32 14t32 -14t14 -32z" />
    <glyph glyph-name="Yacute" unicode="&#xdd;" horiz-adv-x="722" 
d="M424 356v-258q0 -25 6 -40.5t20.5 -21.5t27 -8t37.5 -2v-26q-100 2 -142 2q-44 0 -138 -2v26q25 0 37.5 2t27 8t20.5 21.5t6 40.5v242l-209 288q-21 29 -33.5 34.5t-59.5 9.5v26q38 -2 139 -2q21 0 61 1t61 1v-26q-56 0 -56 -21q0 -15 33 -62l140 -197l131 179
q2 2 8.5 11t10.5 15t9.5 15t8 16.5t2.5 14.5q0 20 -14 24.5t-57 4.5v26q76 -2 115 -2q13 0 40.5 1t41.5 1v-26q-20 0 -36 -10t-24 -19t-23 -29zM335 738h-35l134 133q2 2 7.5 8t8 8t8 6.5t9.5 6.5t9.5 4t10.5 2q13 0 22.5 -10t9.5 -20q0 -24 -17 -34z" />
    <glyph glyph-name="Thorn" unicode="&#xde;" 
d="M117 98v476q0 59 -16.5 78.5t-71.5 19.5v26q100 -2 145 -2q22 0 66 1t69 1v-26q-25 0 -36.5 -2.5t-26 -11.5t-20.5 -31t-7 -59q48 3 56 3q42 0 83 -10t80.5 -31.5t63.5 -63t24 -96.5q0 -85 -66 -142.5t-149 -57.5q-68 0 -96 2v-74q0 -25 6 -40.5t20.5 -21.5t27 -8
t37.5 -2v-26q-24 0 -69 1t-66 1q-45 0 -145 -2v26q25 0 37.5 2t27 8t20.5 21.5t6 40.5zM215 537v-332q24 -3 70 -3q68 0 102.5 47.5t34.5 109.5q0 94 -51.5 137t-117.5 43q-12 0 -38 -2z" />
    <glyph glyph-name="germandbls" unicode="&#xdf;" 
d="M93 58v333h-65v14l60 37q0 130 73 226t199 96q66 0 114 -33.5t48 -96.5q0 -38 -20 -68.5t-48 -50.5t-56.5 -38t-48.5 -40t-20 -47q0 -23 18.5 -44t44.5 -39t52 -38t44.5 -52t18.5 -71q0 -69 -46.5 -115t-114.5 -46q-31 0 -61.5 16.5t-30.5 45.5q0 12 8.5 22.5t20.5 10.5
t21 -5.5t12 -10.5l9 -15q16 -32 42 -32q34 0 54 25t20 61q0 31 -18.5 57t-44.5 44.5l-52 37t-44.5 45t-18.5 58.5q0 37 19 66t46.5 48t54.5 38t46 47t19 63q0 54 -36 85t-90 31q-25 0 -49.5 -8.5t-47.5 -28t-37.5 -57.5t-14.5 -89v-490q0 -16 12 -20t35 -4h5v-26q-6 2 -88 2
q-52 0 -114 -2v26h28q42 0 42 32z" />
    <glyph glyph-name="agrave" unicode="&#xe0;" horiz-adv-x="500" 
d="M456 56l9 -17q-58 -54 -99 -54q-29 0 -44.5 22t-17.5 52q-81 -74 -154 -74q-47 0 -77.5 28t-30.5 69q1 21 4.5 35t18 28.5t27.5 23t49.5 23.5t66.5 26t95 33v66q0 86 -97 86q-34 0 -54.5 -18.5t-21.5 -51.5q0 -19 -17.5 -30.5t-38.5 -11.5q-18 0 -18 20q0 36 26.5 59
t88.5 55q6 3 18.5 10t18 9.5t15 6t18.5 5t20 1.5q40 0 81 -23t41 -61v-277q0 -57 36 -57q23 0 37 17zM303 90v132q-10 -4 -38 -12.5t-49 -16.5t-44.5 -20.5t-36.5 -30t-13 -38.5q0 -29 21 -50.5t50 -21.5q22 0 44 10t31.5 18t34.5 30zM333 545h-35l-167 104q-17 10 -17 34
q0 10 9.5 20t22.5 10q5 0 10.5 -2t9.5 -4t9.5 -6.5t8 -6.5t8 -8t7.5 -8z" />
    <glyph glyph-name="aacute" unicode="&#xe1;" horiz-adv-x="500" 
d="M456 56l9 -17q-58 -54 -99 -54q-29 0 -44.5 22t-17.5 52q-81 -74 -154 -74q-47 0 -77.5 28t-30.5 69q1 21 4.5 35t18 28.5t27.5 23t49.5 23.5t66.5 26t95 33v66q0 86 -97 86q-34 0 -54.5 -18.5t-21.5 -51.5q0 -19 -17.5 -30.5t-38.5 -11.5q-18 0 -18 20q0 36 26.5 59
t88.5 55q6 3 18.5 10t18 9.5t15 6t18.5 5t20 1.5q40 0 81 -23t41 -61v-277q0 -57 36 -57q23 0 37 17zM303 90v132q-10 -4 -38 -12.5t-49 -16.5t-44.5 -20.5t-36.5 -30t-13 -38.5q0 -29 21 -50.5t50 -21.5q22 0 44 10t31.5 18t34.5 30zM202 545h-35l134 133q2 2 7.5 8t8 8
t8 6.5t9.5 6.5t9.5 4t10.5 2q13 0 22.5 -10t9.5 -20q0 -24 -17 -34z" />
    <glyph glyph-name="acircumflex" unicode="&#xe2;" horiz-adv-x="500" 
d="M456 56l9 -17q-58 -54 -99 -54q-29 0 -44.5 22t-17.5 52q-81 -74 -154 -74q-47 0 -77.5 28t-30.5 69q1 21 4.5 35t18 28.5t27.5 23t49.5 23.5t66.5 26t95 33v66q0 86 -97 86q-34 0 -54.5 -18.5t-21.5 -51.5q0 -19 -17.5 -30.5t-38.5 -11.5q-18 0 -18 20q0 36 26.5 59
t88.5 55q6 3 18.5 10t18 9.5t15 6t18.5 5t20 1.5q40 0 81 -23t41 -61v-277q0 -57 36 -57q23 0 37 17zM303 90v132q-10 -4 -38 -12.5t-49 -16.5t-44.5 -20.5t-36.5 -30t-13 -38.5q0 -29 21 -50.5t50 -21.5q22 0 44 10t31.5 18t34.5 30zM222 713h56l122 -166h-33l-117 106
l-117 -106h-33z" />
    <glyph glyph-name="atilde" unicode="&#xe3;" horiz-adv-x="500" 
d="M456 56l9 -17q-58 -54 -99 -54q-29 0 -44.5 22t-17.5 52q-81 -74 -154 -74q-47 0 -77.5 28t-30.5 69q1 21 4.5 35t18 28.5t27.5 23t49.5 23.5t66.5 26t95 33v66q0 86 -97 86q-34 0 -54.5 -18.5t-21.5 -51.5q0 -19 -17.5 -30.5t-38.5 -11.5q-18 0 -18 20q0 36 26.5 59
t88.5 55q6 3 18.5 10t18 9.5t15 6t18.5 5t20 1.5q40 0 81 -23t41 -61v-277q0 -57 36 -57q23 0 37 17zM303 90v132q-10 -4 -38 -12.5t-49 -16.5t-44.5 -20.5t-36.5 -30t-13 -38.5q0 -29 21 -50.5t50 -21.5q22 0 44 10t31.5 18t34.5 30zM384 669h27q-8 -44 -30 -74t-61 -30
q-27 0 -79 24q-56 23 -74 23q-36 0 -51 -47h-27q11 50 36 77t58 27q28 0 77 -21q59 -23 76 -23q21 0 30.5 10.5t17.5 33.5z" />
    <glyph glyph-name="adieresis" unicode="&#xe4;" horiz-adv-x="500" 
d="M456 56l9 -17q-58 -54 -99 -54q-29 0 -44.5 22t-17.5 52q-81 -74 -154 -74q-47 0 -77.5 28t-30.5 69q1 21 4.5 35t18 28.5t27.5 23t49.5 23.5t66.5 26t95 33v66q0 86 -97 86q-34 0 -54.5 -18.5t-21.5 -51.5q0 -19 -17.5 -30.5t-38.5 -11.5q-18 0 -18 20q0 36 26.5 59
t88.5 55q6 3 18.5 10t18 9.5t15 6t18.5 5t20 1.5q40 0 81 -23t41 -61v-277q0 -57 36 -57q23 0 37 17zM303 90v132q-10 -4 -38 -12.5t-49 -16.5t-44.5 -20.5t-36.5 -30t-13 -38.5q0 -29 21 -50.5t50 -21.5q22 0 44 10t31.5 18t34.5 30zM199 610q0 -18 -14 -31.5t-32 -13.5
q-19 0 -32.5 13.5t-13.5 31.5t13.5 32t32.5 14q18 0 32 -14t14 -32zM393 610q0 -18 -14 -31.5t-32 -13.5t-32 13.5t-14 31.5t14 32t32 14t32 -14t14 -32z" />
    <glyph glyph-name="aring" unicode="&#xe5;" horiz-adv-x="500" 
d="M456 56l9 -17q-58 -54 -99 -54q-29 0 -44.5 22t-17.5 52q-81 -74 -154 -74q-47 0 -77.5 28t-30.5 69q1 21 4.5 35t18 28.5t27.5 23t49.5 23.5t66.5 26t95 33v66q0 86 -97 86q-34 0 -54.5 -18.5t-21.5 -51.5q0 -19 -17.5 -30.5t-38.5 -11.5q-18 0 -18 20q0 36 26.5 59
t88.5 55q6 3 18.5 10t18 9.5t15 6t18.5 5t20 1.5q40 0 81 -23t41 -61v-277q0 -57 36 -57q23 0 37 17zM153 616q0 39 29 68t68 29t68 -29t29 -68t-29 -68.5t-68 -29.5t-68 29.5t-29 68.5zM303 90v132q-10 -4 -38 -12.5t-49 -16.5t-44.5 -20.5t-36.5 -30t-13 -38.5
q0 -29 21 -50.5t50 -21.5q22 0 44 10t31.5 18t34.5 30zM185 616q0 -28 18.5 -47t46.5 -19t46.5 19t18.5 47t-18.5 46.5t-46.5 18.5t-46.5 -18.5t-18.5 -46.5z" />
    <glyph glyph-name="ae" unicode="&#xe6;" horiz-adv-x="722" 
d="M672 126l14 -16q-94 -124 -201 -125q-103 2 -147 94q-36 -32 -57 -47.5t-56.5 -31t-71.5 -15.5q-47 0 -79 28t-32 74q0 42 25 61t85 37l165 49v68q0 101 -93 101q-44 0 -70 -37q-5 -6 -10.5 -36.5t-19.5 -35.5q-3 -1 -20.5 -7t-27.5 -6q-6 0 -11.5 6t-5.5 12q0 14 2.5 26
t9.5 21.5t12 16t17 14t17.5 10.5t20.5 10.5l19 9.5q12 6 34.5 20.5t41.5 22t40 7.5q41 0 73 -19t43 -55q50 74 153 74q57 0 100.5 -30t43.5 -84q0 -17 -9.5 -24.5t-49.5 -19.5l-236 -71v-20q0 -71 34.5 -110.5t104.5 -38.5q76 1 142 67zM317 170v35l-133 -41
q-17 -5 -25.5 -9.5t-16.5 -16.5t-8 -32q0 -36 20.5 -55t44.5 -19q15 0 33 6t38 20t33.5 43t13.5 69zM391 258l142 45q36 11 48.5 21t12.5 27q0 32 -24 53t-50 21q-61 0 -95 -50t-34 -117z" />
    <glyph glyph-name="ccedilla" unicode="&#xe7;" horiz-adv-x="444" 
d="M408 388q0 -18 -10.5 -31t-27.5 -13q-13 0 -25.5 12.5t-22 28t-32 28t-54.5 12.5q-60 0 -95.5 -54t-35.5 -118q0 -80 48 -137t127 -57q60 0 122 47l17 -17q-78 -90 -169 -102l-24 -51l2 -2q14 9 32 9q32 0 55 -20.5t23 -51.5q0 -43 -34 -63.5t-80 -20.5q-50 0 -88 15
l14 30q43 -13 63 -13q23 0 41 11t18 32q0 18 -13 29t-32 11t-36 -6l-14 5l37 84q-75 4 -132 67t-57 140q0 110 70.5 187.5t177.5 77.5q29 0 58 -5.5t53 -22t24 -41.5z" />
    <glyph glyph-name="egrave" unicode="&#xe8;" horiz-adv-x="444" 
d="M395 276h-281q-3 -12 0 -58q5 -72 46.5 -122.5t100.5 -50.5q68 0 135 67l14 -14q-85 -113 -185 -113q-45 0 -80.5 17t-55.5 41.5t-33 55.5t-17.5 56.5t-4.5 47.5q0 69 21 121.5t54 79.5t65.5 40t61.5 13q67 0 117.5 -41t51.5 -116q0 -12 -1 -18zM117 308h174q28 0 28 25
q0 40 -23 66t-64 26q-45 0 -75.5 -31t-39.5 -86zM314 545h-35l-167 104q-17 10 -17 34q0 10 9.5 20t22.5 10q5 0 10.5 -2t9.5 -4t9.5 -6.5t8 -6.5t8 -8t7.5 -8z" />
    <glyph glyph-name="eacute" unicode="&#xe9;" horiz-adv-x="444" 
d="M395 276h-281q-3 -12 0 -58q5 -72 46.5 -122.5t100.5 -50.5q68 0 135 67l14 -14q-85 -113 -185 -113q-45 0 -80.5 17t-55.5 41.5t-33 55.5t-17.5 56.5t-4.5 47.5q0 69 21 121.5t54 79.5t65.5 40t61.5 13q67 0 117.5 -41t51.5 -116q0 -12 -1 -18zM117 308h174q28 0 28 25
q0 40 -23 66t-64 26q-45 0 -75.5 -31t-39.5 -86zM174 545h-35l134 133q2 2 7.5 8t8 8t8 6.5t9.5 6.5t9.5 4t10.5 2q13 0 22.5 -10t9.5 -20q0 -24 -17 -34z" />
    <glyph glyph-name="ecircumflex" unicode="&#xea;" horiz-adv-x="444" 
d="M395 276h-281q-3 -12 0 -58q5 -72 46.5 -122.5t100.5 -50.5q68 0 135 67l14 -14q-85 -113 -185 -113q-45 0 -80.5 17t-55.5 41.5t-33 55.5t-17.5 56.5t-4.5 47.5q0 69 21 121.5t54 79.5t65.5 40t61.5 13q67 0 117.5 -41t51.5 -116q0 -12 -1 -18zM117 308h174q28 0 28 25
q0 40 -23 66t-64 26q-45 0 -75.5 -31t-39.5 -86zM194 713h56l122 -166h-33l-117 106l-117 -106h-33z" />
    <glyph glyph-name="edieresis" unicode="&#xeb;" horiz-adv-x="444" 
d="M395 276h-281q-3 -12 0 -58q5 -72 46.5 -122.5t100.5 -50.5q68 0 135 67l14 -14q-85 -113 -185 -113q-45 0 -80.5 17t-55.5 41.5t-33 55.5t-17.5 56.5t-4.5 47.5q0 69 21 121.5t54 79.5t65.5 40t61.5 13q67 0 117.5 -41t51.5 -116q0 -12 -1 -18zM117 308h174q28 0 28 25
q0 40 -23 66t-64 26q-45 0 -75.5 -31t-39.5 -86zM171 610q0 -18 -14 -31.5t-32 -13.5q-19 0 -32.5 13.5t-13.5 31.5t13.5 32t32.5 14q18 0 32 -14t14 -32zM365 610q0 -18 -14 -31.5t-32 -13.5t-32 13.5t-14 31.5t14 32t32 14t32 -14t14 -32z" />
    <glyph glyph-name="igrave" unicode="&#xec;" horiz-adv-x="278" 
d="M32 0v26h19q18 0 26 1t15 8.5t7 23.5v271q0 21 -6.5 34t-14 18t-31.5 18v16q98 29 107 36q9 5 18 5q7 0 7 -14v-384q0 -16 7.5 -23.5t16 -8.5t26.5 -1h17v-26q-17 0 -52 1t-53 1q-35 0 -109 -2zM213 545h-35l-167 104q-17 10 -17 34q0 10 9.5 20t22.5 10q5 0 10.5 -2
t9.5 -4t9.5 -6.5t8 -6.5t8 -8t7.5 -8z" />
    <glyph glyph-name="iacute" unicode="&#xed;" horiz-adv-x="278" 
d="M32 0v26h19q18 0 26 1t15 8.5t7 23.5v271q0 21 -6.5 34t-14 18t-31.5 18v16q98 29 107 36q9 5 18 5q7 0 7 -14v-384q0 -16 7.5 -23.5t16 -8.5t26.5 -1h17v-26q-17 0 -52 1t-53 1q-35 0 -109 -2zM91 545h-35l134 133q2 2 7.5 8t8 8t8 6.5t9.5 6.5t9.5 4t10.5 2
q13 0 22.5 -10t9.5 -20q0 -24 -17 -34z" />
    <glyph glyph-name="icircumflex" unicode="&#xee;" horiz-adv-x="278" 
d="M32 0v26h19q18 0 26 1t15 8.5t7 23.5v271q0 21 -6.5 34t-14 18t-31.5 18v16q98 29 107 36q9 5 18 5q7 0 7 -14v-384q0 -16 7.5 -23.5t16 -8.5t26.5 -1h17v-26q-17 0 -52 1t-53 1q-35 0 -109 -2zM111 713h56l122 -166h-33l-117 106l-117 -106h-33z" />
    <glyph glyph-name="idieresis" unicode="&#xef;" horiz-adv-x="278" 
d="M32 0v26h19q18 0 26 1t15 8.5t7 23.5v271q0 21 -6.5 34t-14 18t-31.5 18v16q98 29 107 36q9 5 18 5q7 0 7 -14v-384q0 -16 7.5 -23.5t16 -8.5t26.5 -1h17v-26q-17 0 -52 1t-53 1q-35 0 -109 -2zM88 610q0 -18 -14 -31.5t-32 -13.5q-19 0 -32.5 13.5t-13.5 31.5t13.5 32
t32.5 14q18 0 32 -14t14 -32zM282 610q0 -18 -14 -31.5t-32 -13.5t-32 13.5t-14 31.5t14 32t32 14t32 -14t14 -32z" />
    <glyph glyph-name="eth" unicode="&#xf0;" 
d="M390 764l29 -32l-105 -68q88 -72 144 -174t56 -200q0 -152 -64 -228.5t-166 -76.5t-172 65t-70 169q0 97 67 167.5t162 70.5q70 0 125 -49l2 2q-2 36 -42.5 100.5t-95.5 119.5l-114 -74l-29 32l110 71q-70 58 -135 73l19 32q84 -13 167 -72zM134 229q0 -45 14.5 -93
t50 -86.5t84.5 -38.5q47 0 80 33.5t46 77.5t13 91q0 46 -14.5 93.5t-50.5 86t-85 38.5q-46 0 -79 -33.5t-46 -77.5t-13 -91z" />
    <glyph glyph-name="ntilde" unicode="&#xf1;" 
d="M93 59v265q0 27 -11 39t-47 27v19q87 28 132 48q6 0 6 -10v-65q36 26 57 39t52.5 24.5t63.5 11.5q115 0 115 -140v-258q0 -16 7.5 -23.5t16 -8.5t26.5 -1h18v-26q-17 0 -52.5 1t-53.5 1q-36 0 -108 -2v26h18q18 0 26 1t15 8.5t7 23.5v259q0 42 -24 63.5t-68 21.5
t-116 -48v-296q0 -16 7.5 -23.5t16 -8.5t26.5 -1h18v-26q-17 0 -52.5 1t-53.5 1q-36 0 -108 -2v26h18q18 0 26 1t15 8.5t7 23.5zM412 669h27q-8 -44 -30 -74t-61 -30q-27 0 -79 24q-56 23 -74 23q-36 0 -51 -47h-27q11 50 36 77t58 27q28 0 77 -21q59 -23 76 -23
q21 0 30.5 10.5t17.5 33.5z" />
    <glyph glyph-name="ograve" unicode="&#xf2;" 
d="M42 219q0 99 65 168.5t164 69.5q106 0 174.5 -64.5t68.5 -169.5q0 -97 -67.5 -167.5t-162.5 -70.5q-102 0 -172 65t-70 169zM134 229q0 -45 14.5 -93t50 -86.5t84.5 -38.5q47 0 80 33.5t46 77.5t13 91q0 46 -14.5 93.5t-50.5 86t-85 38.5q-46 0 -79 -33.5t-46 -77.5
t-13 -91zM361 545h-35l-167 104q-17 10 -17 34q0 10 9.5 20t22.5 10q5 0 10.5 -2t9.5 -4t9.5 -6.5t8 -6.5t8 -8t7.5 -8z" />
    <glyph glyph-name="oacute" unicode="&#xf3;" 
d="M42 219q0 99 65 168.5t164 69.5q106 0 174.5 -64.5t68.5 -169.5q0 -97 -67.5 -167.5t-162.5 -70.5q-102 0 -172 65t-70 169zM134 229q0 -45 14.5 -93t50 -86.5t84.5 -38.5q47 0 80 33.5t46 77.5t13 91q0 46 -14.5 93.5t-50.5 86t-85 38.5q-46 0 -79 -33.5t-46 -77.5
t-13 -91zM221 545h-35l134 133q2 2 7.5 8t8 8t8 6.5t9.5 6.5t9.5 4t10.5 2q13 0 22.5 -10t9.5 -20q0 -24 -17 -34z" />
    <glyph glyph-name="ocircumflex" unicode="&#xf4;" 
d="M42 219q0 99 65 168.5t164 69.5q106 0 174.5 -64.5t68.5 -169.5q0 -97 -67.5 -167.5t-162.5 -70.5q-102 0 -172 65t-70 169zM134 229q0 -45 14.5 -93t50 -86.5t84.5 -38.5q47 0 80 33.5t46 77.5t13 91q0 46 -14.5 93.5t-50.5 86t-85 38.5q-46 0 -79 -33.5t-46 -77.5
t-13 -91zM250 713h56l122 -166h-33l-117 106l-117 -106h-33z" />
    <glyph glyph-name="otilde" unicode="&#xf5;" 
d="M42 219q0 99 65 168.5t164 69.5q106 0 174.5 -64.5t68.5 -169.5q0 -97 -67.5 -167.5t-162.5 -70.5q-102 0 -172 65t-70 169zM134 229q0 -45 14.5 -93t50 -86.5t84.5 -38.5q47 0 80 33.5t46 77.5t13 91q0 46 -14.5 93.5t-50.5 86t-85 38.5q-46 0 -79 -33.5t-46 -77.5
t-13 -91zM412 669h27q-8 -44 -30 -74t-61 -30q-27 0 -79 24q-56 23 -74 23q-36 0 -51 -47h-27q11 50 36 77t58 27q28 0 77 -21q59 -23 76 -23q21 0 30.5 10.5t17.5 33.5z" />
    <glyph glyph-name="odieresis" unicode="&#xf6;" 
d="M42 219q0 99 65 168.5t164 69.5q106 0 174.5 -64.5t68.5 -169.5q0 -97 -67.5 -167.5t-162.5 -70.5q-102 0 -172 65t-70 169zM134 229q0 -45 14.5 -93t50 -86.5t84.5 -38.5q47 0 80 33.5t46 77.5t13 91q0 46 -14.5 93.5t-50.5 86t-85 38.5q-46 0 -79 -33.5t-46 -77.5
t-13 -91zM227 610q0 -18 -14 -31.5t-32 -13.5q-19 0 -32.5 13.5t-13.5 31.5t13.5 32t32.5 14q18 0 32 -14t14 -32zM421 610q0 -18 -14 -31.5t-32 -13.5t-32 13.5t-14 31.5t14 32t32 14t32 -14t14 -32z" />
    <glyph glyph-name="divide" unicode="&#xf7;" 
d="M499 188h-442v66h442v-66zM212 391q0 28 19.5 47t46.5 19t46.5 -19.5t19.5 -46.5q0 -26 -19.5 -46t-46.5 -20t-46.5 19.5t-19.5 46.5zM212 51q0 28 19.5 47t47.5 19q26 0 45.5 -19.5t19.5 -46.5q0 -26 -19.5 -46t-45.5 -20q-28 0 -47.5 19.5t-19.5 46.5z" />
    <glyph glyph-name="oslash" unicode="&#xf8;" 
d="M511 463l26 -20l-74 -70q51 -62 51 -150q0 -97 -67.5 -167.5t-162.5 -70.5q-98 0 -165 59l-77 -74l-23 23l78 74q-55 63 -55 152q0 99 65 168.5t164 69.5q104 0 170 -61zM154 122l235 224q-40 85 -117 85q-46 0 -79 -33.5t-46 -77.5t-13 -91q0 -56 20 -107zM403 316
l-234 -224q41 -81 114 -81q47 0 80 33.5t46 77.5t13 91q0 49 -19 103z" />
    <glyph glyph-name="ugrave" unicode="&#xf9;" 
d="M461 424v-369q0 -9 4 -13t9 -5t15 -1q6 0 19.5 0.5t20.5 0.5v-21q-65 -6 -144 -31l-5 3v81q-54 -44 -91.5 -64t-85.5 -20q-45 0 -77.5 30t-32.5 89v256q0 16 -3 25.5t-17 19t-40 11.5v19q20 1 71.5 4t57.5 3q8 0 9.5 -5.5t1.5 -23.5v-258q0 -116 87 -116q48 0 121 61v269
q0 18 -74 38q-7 2 -10 3v18q39 3 76.5 6.5t57 5.5t22.5 2q8 0 8 -18zM361 545h-35l-167 104q-17 10 -17 34q0 10 9.5 20t22.5 10q5 0 10.5 -2t9.5 -4t9.5 -6.5t8 -6.5t8 -8t7.5 -8z" />
    <glyph glyph-name="uacute" unicode="&#xfa;" 
d="M461 424v-369q0 -9 4 -13t9 -5t15 -1q6 0 19.5 0.5t20.5 0.5v-21q-65 -6 -144 -31l-5 3v81q-54 -44 -91.5 -64t-85.5 -20q-45 0 -77.5 30t-32.5 89v256q0 16 -3 25.5t-17 19t-40 11.5v19q20 1 71.5 4t57.5 3q8 0 9.5 -5.5t1.5 -23.5v-258q0 -116 87 -116q48 0 121 61v269
q0 18 -74 38q-7 2 -10 3v18q39 3 76.5 6.5t57 5.5t22.5 2q8 0 8 -18zM239 545h-35l134 133q2 2 7.5 8t8 8t8 6.5t9.5 6.5t9.5 4t10.5 2q13 0 22.5 -10t9.5 -20q0 -24 -17 -34z" />
    <glyph glyph-name="ucircumflex" unicode="&#xfb;" 
d="M461 424v-369q0 -9 4 -13t9 -5t15 -1q6 0 19.5 0.5t20.5 0.5v-21q-65 -6 -144 -31l-5 3v81q-54 -44 -91.5 -64t-85.5 -20q-45 0 -77.5 30t-32.5 89v256q0 16 -3 25.5t-17 19t-40 11.5v19q20 1 71.5 4t57.5 3q8 0 9.5 -5.5t1.5 -23.5v-258q0 -116 87 -116q48 0 121 61v269
q0 18 -74 38q-7 2 -10 3v18q39 3 76.5 6.5t57 5.5t22.5 2q8 0 8 -18zM232 713h56l122 -166h-33l-117 106l-117 -106h-33z" />
    <glyph glyph-name="udieresis" unicode="&#xfc;" 
d="M461 424v-369q0 -9 4 -13t9 -5t15 -1q6 0 19.5 0.5t20.5 0.5v-21q-65 -6 -144 -31l-5 3v81q-54 -44 -91.5 -64t-85.5 -20q-45 0 -77.5 30t-32.5 89v256q0 16 -3 25.5t-17 19t-40 11.5v19q20 1 71.5 4t57.5 3q8 0 9.5 -5.5t1.5 -23.5v-258q0 -116 87 -116q48 0 121 61v269
q0 18 -74 38q-7 2 -10 3v18q39 3 76.5 6.5t57 5.5t22.5 2q8 0 8 -18zM209 610q0 -18 -14 -31.5t-32 -13.5q-19 0 -32.5 13.5t-13.5 31.5t13.5 32t32.5 14q18 0 32 -14t14 -32zM403 610q0 -18 -14 -31.5t-32 -13.5t-32 13.5t-14 31.5t14 32t32 14t32 -14t14 -32z" />
    <glyph glyph-name="yacute" unicode="&#xfd;" horiz-adv-x="500" 
d="M17 416v26q78 -2 116 -2q15 0 45 1t45 1v-26q-2 0 -10.5 -1t-12.5 -1.5t-11.5 -2t-11 -4t-6.5 -7.5t-3 -11q0 -16 48.5 -135t52.5 -134h2q7 21 33.5 82t46 110.5t19.5 61.5q0 19 -10 29t-19.5 11.5t-26.5 1.5v26q62 -2 94 -2q25 0 75 2v-26q-32 1 -47.5 -14t-31.5 -50
l-226 -530q-21 -50 -64 -50q-22 0 -35.5 14t-13.5 34q0 19 14 34.5t34 15.5q25 0 41 -15q22 46 39.5 86.5t24.5 57.5l6 17q0 1 -33.5 86.5t-69.5 176t-41 100.5q-23 41 -63 37zM217 545h-35l134 133q2 2 7.5 8t8 8t8 6.5t9.5 6.5t9.5 4t10.5 2q13 0 22.5 -10t9.5 -20
q0 -24 -17 -34z" />
    <glyph glyph-name="thorn" unicode="&#xfe;" 
d="M19 -228v26h38q42 0 42 32v786q0 32 -6.5 47.5t-14.5 19.5t-32 11v16q13 5 33 12l30 10.5t23.5 10t25.5 13.5q13 8 14 8q7 0 7 -14v-367q82 74 151 74q80 0 132 -65t52 -148q0 -104 -72 -181.5t-174 -77.5q-48 0 -89 19v-182q0 -16 12 -20t35 -4h45v-26q-86 2 -128 2
t-124 -2zM179 358v-272q37 -69 107 -69q68 0 108 57.5t40 128.5q0 77 -44.5 132.5t-121.5 55.5q-44 0 -89 -33z" />
    <glyph glyph-name="ydieresis" unicode="&#xff;" horiz-adv-x="500" 
d="M17 416v26q78 -2 116 -2q15 0 45 1t45 1v-26q-2 0 -10.5 -1t-12.5 -1.5t-11.5 -2t-11 -4t-6.5 -7.5t-3 -11q0 -16 48.5 -135t52.5 -134h2q7 21 33.5 82t46 110.5t19.5 61.5q0 19 -10 29t-19.5 11.5t-26.5 1.5v26q62 -2 94 -2q25 0 75 2v-26q-32 1 -47.5 -14t-31.5 -50
l-226 -530q-21 -50 -64 -50q-22 0 -35.5 14t-13.5 34q0 19 14 34.5t34 15.5q25 0 41 -15q22 46 39.5 86.5t24.5 57.5l6 17q0 1 -33.5 86.5t-69.5 176t-41 100.5q-23 41 -63 37zM199 610q0 -18 -14 -31.5t-32 -13.5q-19 0 -32.5 13.5t-13.5 31.5t13.5 32t32.5 14q18 0 32 -14
t14 -32zM393 610q0 -18 -14 -31.5t-32 -13.5t-32 13.5t-14 31.5t14 32t32 14t32 -14t14 -32z" />
    <glyph glyph-name="Amacron" unicode="&#x100;" horiz-adv-x="721" 
d="M378 726l191 -527q48 -134 57 -146q20 -27 77 -27v-26q-19 0 -57.5 1t-57.5 1q-48 0 -146 -2v26h18q55 0 55 33q0 17 -15 58l-50 145h-235l-22 -70q-27 -87 -27 -119q0 -20 9 -30.5t21 -13t31 -3.5h7h23v-26q-19 0 -59 1t-59 1q-41 0 -121 -2v26q46 5 62 17t35 54
q8 18 41 112l128 357q21 60 21 90q0 18 -2 26q44 21 58 44h17zM326 597l-97 -294h206l-107 294h-2zM492 773h-266v54h266v-54z" />
    <glyph glyph-name="amacron" unicode="&#x101;" horiz-adv-x="500" 
d="M456 56l9 -17q-58 -54 -99 -54q-29 0 -44.5 22t-17.5 52q-81 -74 -154 -74q-47 0 -77.5 28t-30.5 69q1 21 4.5 35t18 28.5t27.5 23t49.5 23.5t66.5 26t95 33v66q0 86 -97 86q-34 0 -54.5 -18.5t-21.5 -51.5q0 -19 -17.5 -30.5t-38.5 -11.5q-18 0 -18 20q0 36 26.5 59
t88.5 55q6 3 18.5 10t18 9.5t15 6t18.5 5t20 1.5q40 0 81 -23t41 -61v-277q0 -57 36 -57q23 0 37 17zM303 90v132q-10 -4 -38 -12.5t-49 -16.5t-44.5 -20.5t-36.5 -30t-13 -38.5q0 -29 21 -50.5t50 -21.5q22 0 44 10t31.5 18t34.5 30zM385 580h-266v54h266v-54z" />
    <glyph glyph-name="Abreve" unicode="&#x102;" horiz-adv-x="721" 
d="M378 726l191 -527q48 -134 57 -146q20 -27 77 -27v-26q-19 0 -57.5 1t-57.5 1q-48 0 -146 -2v26h18q55 0 55 33q0 17 -15 58l-50 145h-235l-22 -70q-27 -87 -27 -119q0 -20 9 -30.5t21 -13t31 -3.5h7h23v-26q-19 0 -59 1t-59 1q-41 0 -121 -2v26q46 5 62 17t35 54
q8 18 41 112l128 357q21 60 21 90q0 18 -2 26q44 21 58 44h17zM326 597l-97 -294h206l-107 294h-2zM220 891h26q4 -44 36 -72.5t77 -28.5t77 28.5t36 72.5h26q-6 -72 -40 -113.5t-99 -41.5t-99 41.5t-40 113.5z" />
    <glyph glyph-name="abreve" unicode="&#x103;" horiz-adv-x="500" 
d="M456 56l9 -17q-58 -54 -99 -54q-29 0 -44.5 22t-17.5 52q-81 -74 -154 -74q-47 0 -77.5 28t-30.5 69q1 21 4.5 35t18 28.5t27.5 23t49.5 23.5t66.5 26t95 33v66q0 86 -97 86q-34 0 -54.5 -18.5t-21.5 -51.5q0 -19 -17.5 -30.5t-38.5 -11.5q-18 0 -18 20q0 36 26.5 59
t88.5 55q6 3 18.5 10t18 9.5t15 6t18.5 5t20 1.5q40 0 81 -23t41 -61v-277q0 -57 36 -57q23 0 37 17zM303 90v132q-10 -4 -38 -12.5t-49 -16.5t-44.5 -20.5t-36.5 -30t-13 -38.5q0 -29 21 -50.5t50 -21.5q22 0 44 10t31.5 18t34.5 30zM113 698h26q4 -44 36 -72.5t77 -28.5
t77 28.5t36 72.5h26q-6 -72 -40 -113.5t-99 -41.5t-99 41.5t-40 113.5z" />
    <glyph glyph-name="Aogonek" unicode="&#x104;" horiz-adv-x="721" 
d="M378 726l191 -527q48 -134 57 -146q20 -27 77 -27v-26q-35 0 -107 2q-47 -39 -63.5 -67.5t-16.5 -56.5q0 -20 12 -32.5t28 -12.5q35 0 60 34l20 -10q-15 -31 -41 -48t-51 -17q-94 0 -94 82q0 64 107 128q-19 0 -57.5 -0.5t-57.5 -1.5v26h18q55 0 55 33q0 17 -15 58
l-50 145h-235l-22 -70q-27 -87 -27 -119q0 -20 9 -30.5t21 -13t31 -3.5h7h23v-26q-19 0 -59 1t-59 1q-41 0 -121 -2v26q46 5 62 17t35 54q8 18 41 112l128 357q21 60 21 90q0 18 -2 26q44 21 58 44h17zM326 597l-97 -294h206l-107 294h-2z" />
    <glyph glyph-name="aogonek" unicode="&#x105;" horiz-adv-x="500" 
d="M456 56l9 -17q-47 -43 -76 -51q-64 -58 -64 -110q0 -20 12 -32.5t28 -12.5q35 0 60 34l20 -10q-15 -31 -41 -48t-51 -17q-94 0 -94 82q0 55 86 115q-39 15 -41 70q-81 -74 -154 -74q-47 0 -77.5 28t-30.5 69q1 21 4.5 35t18 28.5t27.5 23t49.5 23.5t66.5 26t95 33v66
q0 86 -97 86q-34 0 -54.5 -18.5t-21.5 -51.5q0 -19 -17.5 -30.5t-38.5 -11.5q-18 0 -18 20q0 36 26.5 59t88.5 55q6 3 18.5 10t18 9.5t15 6t18.5 5t20 1.5q40 0 81 -23t41 -61v-277q0 -57 36 -57q23 0 37 17zM303 90v132q-10 -4 -38 -12.5t-49 -16.5t-44.5 -20.5t-36.5 -30
t-13 -38.5q0 -29 21 -50.5t50 -21.5q22 0 44 10t31.5 18t34.5 30z" />
    <glyph glyph-name="Cacute" unicode="&#x106;" horiz-adv-x="722" 
d="M673 660l10 -143h-25q-27 164 -214 164q-47 0 -93.5 -16.5t-90 -51t-71 -99.5t-27.5 -150q0 -148 89.5 -247.5t208.5 -99.5q75 0 130.5 47.5t70.5 125.5l23 -6l-23 -146q-31 -19 -101 -36t-120 -17q-175 0 -278.5 103t-103.5 273q0 150 114 251t265 101q85 0 236 -53z
M386 738h-35l134 133q2 2 7.5 8t8 8t8 6.5t9.5 6.5t9.5 4t10.5 2q13 0 22.5 -10t9.5 -20q0 -24 -17 -34z" />
    <glyph glyph-name="cacute" unicode="&#x107;" horiz-adv-x="444" 
d="M408 388q0 -18 -10.5 -31t-27.5 -13q-13 0 -25.5 12.5t-22 28t-32 28t-54.5 12.5q-60 0 -95.5 -54t-35.5 -118q0 -80 48 -137t127 -57q60 0 122 47l17 -17q-89 -104 -195 -104q-78 0 -138.5 63.5t-60.5 143.5q0 110 70.5 187.5t177.5 77.5q29 0 58 -5.5t53 -22t24 -41.5z
M196 545h-35l134 133q2 2 7.5 8t8 8t8 6.5t9.5 6.5t9.5 4t10.5 2q13 0 22.5 -10t9.5 -20q0 -24 -17 -34z" />
    <glyph glyph-name="Ccircumflex" unicode="&#x108;" horiz-adv-x="722" 
d="M673 660l10 -143h-25q-27 164 -214 164q-47 0 -93.5 -16.5t-90 -51t-71 -99.5t-27.5 -150q0 -148 89.5 -247.5t208.5 -99.5q75 0 130.5 47.5t70.5 125.5l23 -6l-23 -146q-31 -19 -101 -36t-120 -17q-175 0 -278.5 103t-103.5 273q0 150 114 251t265 101q85 0 236 -53z
M401 906h56l122 -166h-33l-117 106l-117 -106h-33z" />
    <glyph glyph-name="ccircumflex" unicode="&#x109;" horiz-adv-x="444" 
d="M408 388q0 -18 -10.5 -31t-27.5 -13q-13 0 -25.5 12.5t-22 28t-32 28t-54.5 12.5q-60 0 -95.5 -54t-35.5 -118q0 -80 48 -137t127 -57q60 0 122 47l17 -17q-89 -104 -195 -104q-78 0 -138.5 63.5t-60.5 143.5q0 110 70.5 187.5t177.5 77.5q29 0 58 -5.5t53 -22t24 -41.5z
M209 713h56l122 -166h-33l-117 106l-117 -106h-33z" />
    <glyph glyph-name="Cdotaccent" unicode="&#x10a;" horiz-adv-x="722" 
d="M673 660l10 -143h-25q-27 164 -214 164q-47 0 -93.5 -16.5t-90 -51t-71 -99.5t-27.5 -150q0 -148 89.5 -247.5t208.5 -99.5q75 0 130.5 47.5t70.5 125.5l23 -6l-23 -146q-31 -19 -101 -36t-120 -17q-175 0 -278.5 103t-103.5 273q0 150 114 251t265 101q85 0 236 -53z
M475 803q0 -18 -14 -31.5t-32 -13.5q-19 0 -32.5 13.5t-13.5 31.5t13.5 32t32.5 14q18 0 32 -14t14 -32z" />
    <glyph glyph-name="cdotaccent" unicode="&#x10b;" horiz-adv-x="444" 
d="M408 388q0 -18 -10.5 -31t-27.5 -13q-13 0 -25.5 12.5t-22 28t-32 28t-54.5 12.5q-60 0 -95.5 -54t-35.5 -118q0 -80 48 -137t127 -57q60 0 122 47l17 -17q-89 -104 -195 -104q-78 0 -138.5 63.5t-60.5 143.5q0 110 70.5 187.5t177.5 77.5q29 0 58 -5.5t53 -22t24 -41.5z
M283 610q0 -18 -14 -31.5t-32 -13.5q-19 0 -32.5 13.5t-13.5 31.5t13.5 32t32.5 14q18 0 32 -14t14 -32z" />
    <glyph glyph-name="Ccaron" unicode="&#x10c;" horiz-adv-x="722" 
d="M673 660l10 -143h-25q-27 164 -214 164q-47 0 -93.5 -16.5t-90 -51t-71 -99.5t-27.5 -150q0 -148 89.5 -247.5t208.5 -99.5q75 0 130.5 47.5t70.5 125.5l23 -6l-23 -146q-31 -19 -101 -36t-120 -17q-175 0 -278.5 103t-103.5 273q0 150 114 251t265 101q85 0 236 -53z
M457 740h-56l-122 166h33l117 -106l117 106h33z" />
    <glyph glyph-name="ccaron" unicode="&#x10d;" horiz-adv-x="444" 
d="M408 388q0 -18 -10.5 -31t-27.5 -13q-13 0 -25.5 12.5t-22 28t-32 28t-54.5 12.5q-60 0 -95.5 -54t-35.5 -118q0 -80 48 -137t127 -57q60 0 122 47l17 -17q-89 -104 -195 -104q-78 0 -138.5 63.5t-60.5 143.5q0 110 70.5 187.5t177.5 77.5q29 0 58 -5.5t53 -22t24 -41.5z
M265 547h-56l-122 166h33l117 -106l117 106h33z" />
    <glyph glyph-name="Dcaron" unicode="&#x10e;" horiz-adv-x="778" 
d="M121 102v485q0 13 -1.5 24t-3 19t-7 14.5t-7.5 11t-10.5 7.5t-10.5 4.5t-12.5 2.5t-12 1.5t-14.5 0.5h-13v26q39 -2 118 -2q17 0 74.5 1t98.5 1q94 0 171.5 -29.5t126.5 -79t75.5 -112t26.5 -129.5q0 -35 -8.5 -74.5t-35.5 -90t-69.5 -90t-120 -66.5t-178.5 -27
q-26 0 -74 1t-71 1q-44 0 -134 -2v26q29 3 40.5 5t26 9.5t19.5 22t6 39.5zM219 662v-544q0 -27 9 -45.5t25.5 -26.5t32 -11t37.5 -3q78 0 135.5 27t89.5 73.5t47 99.5t15 112q0 142 -85 232t-228 90q-6 0 -78 -4zM351 740h-56l-122 166h33l117 -106l117 106h33z" />
    <glyph glyph-name="dcaron" unicode="&#x10f;" 
d="M463 750v-664q0 -29 8.5 -35t40.5 -6h17v-20h-1q-18 -4 -71 -20q-62 -20 -63 -20q-11 0 -11 27v46h-2q-71 -73 -153 -73q-86 0 -136 64t-50 153q0 103 72.5 179t174.5 76q51 0 94 -18v177q0 32 -6.5 47.5t-14.5 19.5t-32 11v16q64 21 103 43q20 11 22 11q8 0 8 -14z
M383 104v229q0 50 -32 71t-74 21q-60 0 -104.5 -47t-44.5 -141q0 -83 45 -137.5t113 -54.5q28 0 62.5 17t34.5 42zM544 539h-20l15 140q2 16 12 27t25 11t25.5 -7.5t10.5 -20.5q0 -16 -13 -41z" />
    <glyph glyph-name="Dcroat" unicode="&#x110;" horiz-adv-x="778" 
d="M121 385v202q0 13 -1.5 24t-3 19t-7 14.5t-7.5 11t-10.5 7.5t-10.5 4.5t-12.5 2.5t-12 1.5t-14.5 0.5h-13v26q39 -2 118 -2q17 0 74.5 1t98.5 1q94 0 171.5 -29.5t126.5 -79t75.5 -112t26.5 -129.5q0 -35 -8.5 -74.5t-35.5 -90t-69.5 -90t-120 -66.5t-178.5 -27
q-26 0 -74 1t-71 1q-44 0 -134 -2v26q29 3 40.5 5t26 9.5t19.5 22t6 39.5v236h-90v47h90zM398 385v-47h-179v-220q0 -27 9 -45.5t25.5 -26.5t32 -11t37.5 -3q78 0 135.5 27t89.5 73.5t47 99.5t15 112q0 142 -85 232t-228 90q-6 0 -78 -4v-277h179z" />
    <glyph glyph-name="dcroat" unicode="&#x111;" 
d="M463 750v-153h59v-47h-59v-464q0 -29 8.5 -35t40.5 -6h17v-20h-1q-18 -4 -71 -20q-62 -20 -63 -20q-11 0 -11 27v46h-2q-71 -73 -153 -73q-86 0 -136 64t-50 153q0 103 72.5 179t174.5 76q51 0 94 -18v111h-136v47h136v19q0 32 -6.5 47.5t-14.5 19.5t-32 11v16
q64 21 103 43q20 11 22 11q8 0 8 -14zM383 104v229q0 50 -32 71t-74 21q-60 0 -104.5 -47t-44.5 -141q0 -83 45 -137.5t113 -54.5q28 0 62.5 17t34.5 42z" />
    <glyph glyph-name="Emacron" unicode="&#x112;" horiz-adv-x="611" 
d="M225 666v-284h132q13 0 24 2t19 6.5t14 8.5t10.5 11.5t7 12t4.5 13t2.5 12t1.5 11.5t1 9h20q-4 -44 -4 -112q0 -14 2.5 -54t1.5 -57h-20q0 36 -5 55.5t-21.5 28.5t-31.5 10.5t-51 1.5h-107v-170q0 -89 16 -114t87 -25h62q80 4 116.5 26.5t64.5 98.5l24 -4
q-29 -91 -41 -153q-50 0 -150 1t-150 1q-148 0 -222 -2v26q64 0 79.5 19.5t15.5 93.5v444q0 59 -16.5 73t-78.5 16v26q67 -2 202 -2q191 0 288 2v-149l-20 -5q-11 69 -47 95.5t-113 26.5h-117zM448 773h-266v54h266v-54z" />
    <glyph glyph-name="emacron" unicode="&#x113;" horiz-adv-x="444" 
d="M395 276h-281q-3 -12 0 -58q5 -72 46.5 -122.5t100.5 -50.5q68 0 135 67l14 -14q-85 -113 -185 -113q-45 0 -80.5 17t-55.5 41.5t-33 55.5t-17.5 56.5t-4.5 47.5q0 69 21 121.5t54 79.5t65.5 40t61.5 13q67 0 117.5 -41t51.5 -116q0 -12 -1 -18zM117 308h174q28 0 28 25
q0 40 -23 66t-64 26q-45 0 -75.5 -31t-39.5 -86zM358 580h-266v54h266v-54z" />
    <glyph glyph-name="Ebreve" unicode="&#x114;" horiz-adv-x="611" 
d="M225 666v-284h132q13 0 24 2t19 6.5t14 8.5t10.5 11.5t7 12t4.5 13t2.5 12t1.5 11.5t1 9h20q-4 -44 -4 -112q0 -14 2.5 -54t1.5 -57h-20q0 36 -5 55.5t-21.5 28.5t-31.5 10.5t-51 1.5h-107v-170q0 -89 16 -114t87 -25h62q80 4 116.5 26.5t64.5 98.5l24 -4
q-29 -91 -41 -153q-50 0 -150 1t-150 1q-148 0 -222 -2v26q64 0 79.5 19.5t15.5 93.5v444q0 59 -16.5 73t-78.5 16v26q67 -2 202 -2q191 0 288 2v-149l-20 -5q-11 69 -47 95.5t-113 26.5h-117zM176 891h26q4 -44 36 -72.5t77 -28.5t77 28.5t36 72.5h26q-6 -72 -40 -113.5
t-99 -41.5t-99 41.5t-40 113.5z" />
    <glyph glyph-name="ebreve" unicode="&#x115;" horiz-adv-x="444" 
d="M395 276h-281q-3 -12 0 -58q5 -72 46.5 -122.5t100.5 -50.5q68 0 135 67l14 -14q-85 -113 -185 -113q-45 0 -80.5 17t-55.5 41.5t-33 55.5t-17.5 56.5t-4.5 47.5q0 69 21 121.5t54 79.5t65.5 40t61.5 13q67 0 117.5 -41t51.5 -116q0 -12 -1 -18zM117 308h174q28 0 28 25
q0 40 -23 66t-64 26q-45 0 -75.5 -31t-39.5 -86zM86 698h26q4 -44 36 -72.5t77 -28.5t77 28.5t36 72.5h26q-6 -72 -40 -113.5t-99 -41.5t-99 41.5t-40 113.5z" />
    <glyph glyph-name="Edotaccent" unicode="&#x116;" horiz-adv-x="611" 
d="M225 666v-284h132q13 0 24 2t19 6.5t14 8.5t10.5 11.5t7 12t4.5 13t2.5 12t1.5 11.5t1 9h20q-4 -44 -4 -112q0 -14 2.5 -54t1.5 -57h-20q0 36 -5 55.5t-21.5 28.5t-31.5 10.5t-51 1.5h-107v-170q0 -89 16 -114t87 -25h62q80 4 116.5 26.5t64.5 98.5l24 -4
q-29 -91 -41 -153q-50 0 -150 1t-150 1q-148 0 -222 -2v26q64 0 79.5 19.5t15.5 93.5v444q0 59 -16.5 73t-78.5 16v26q67 -2 202 -2q191 0 288 2v-149l-20 -5q-11 69 -47 95.5t-113 26.5h-117zM361 803q0 -18 -14 -31.5t-32 -13.5q-19 0 -32.5 13.5t-13.5 31.5t13.5 32
t32.5 14q18 0 32 -14t14 -32z" />
    <glyph glyph-name="edotaccent" unicode="&#x117;" horiz-adv-x="444" 
d="M395 276h-281q-3 -12 0 -58q5 -72 46.5 -122.5t100.5 -50.5q68 0 135 67l14 -14q-85 -113 -185 -113q-45 0 -80.5 17t-55.5 41.5t-33 55.5t-17.5 56.5t-4.5 47.5q0 69 21 121.5t54 79.5t65.5 40t61.5 13q67 0 117.5 -41t51.5 -116q0 -12 -1 -18zM117 308h174q28 0 28 25
q0 40 -23 66t-64 26q-45 0 -75.5 -31t-39.5 -86zM271 610q0 -18 -14 -31.5t-32 -13.5q-19 0 -32.5 13.5t-13.5 31.5t13.5 32t32.5 14q18 0 32 -14t14 -32z" />
    <glyph glyph-name="Eogonek" unicode="&#x118;" horiz-adv-x="611" 
d="M225 666v-284h132q13 0 24 2t19 6.5t14 8.5t10.5 11.5t7 12t4.5 13t2.5 12t1.5 11.5t1 9h20q-4 -44 -4 -112q0 -14 2.5 -54t1.5 -57h-20q0 36 -5 55.5t-21.5 28.5t-31.5 10.5t-51 1.5h-107v-170q0 -89 16 -114t87 -25h62q80 4 116.5 26.5t64.5 98.5l24 -4
q-29 -91 -41 -153h-80q-78 -65 -78 -122q0 -20 12 -32.5t28 -12.5q35 0 60 34l20 -10q-15 -31 -41 -48t-51 -17q-94 0 -94 82q0 62 105 127q-31 0 -91 0.5t-90 0.5q-148 0 -222 -2v26q64 0 79.5 19.5t15.5 93.5v444q0 59 -16.5 73t-78.5 16v26q67 -2 202 -2q191 0 288 2
v-149l-20 -5q-11 69 -47 95.5t-113 26.5h-117z" />
    <glyph glyph-name="eogonek" unicode="&#x119;" horiz-adv-x="444" 
d="M395 276h-281q-3 -12 0 -58q5 -72 46.5 -122.5t100.5 -50.5q68 0 135 67l14 -14q-68 -90 -140 -107q-67 -60 -67 -113q0 -20 12 -32.5t28 -12.5q35 0 60 34l20 -10q-15 -31 -41 -48t-51 -17q-94 0 -94 82q0 53 81 112q-44 1 -78 18t-53 41.5t-32 55.5t-17 55.5t-4 46.5
q0 69 21 121.5t54 79.5t65.5 40t61.5 13q67 0 117.5 -41t51.5 -116q0 -12 -1 -18zM117 308h174q28 0 28 25q0 40 -23 66t-64 26q-45 0 -75.5 -31t-39.5 -86z" />
    <glyph glyph-name="Ecaron" unicode="&#x11a;" horiz-adv-x="611" 
d="M225 666v-284h132q13 0 24 2t19 6.5t14 8.5t10.5 11.5t7 12t4.5 13t2.5 12t1.5 11.5t1 9h20q-4 -44 -4 -112q0 -14 2.5 -54t1.5 -57h-20q0 36 -5 55.5t-21.5 28.5t-31.5 10.5t-51 1.5h-107v-170q0 -89 16 -114t87 -25h62q80 4 116.5 26.5t64.5 98.5l24 -4
q-29 -91 -41 -153q-50 0 -150 1t-150 1q-148 0 -222 -2v26q64 0 79.5 19.5t15.5 93.5v444q0 59 -16.5 73t-78.5 16v26q67 -2 202 -2q191 0 288 2v-149l-20 -5q-11 69 -47 95.5t-113 26.5h-117zM343 740h-56l-122 166h33l117 -106l117 106h33z" />
    <glyph glyph-name="ecaron" unicode="&#x11b;" horiz-adv-x="444" 
d="M395 276h-281q-3 -12 0 -58q5 -72 46.5 -122.5t100.5 -50.5q68 0 135 67l14 -14q-85 -113 -185 -113q-45 0 -80.5 17t-55.5 41.5t-33 55.5t-17.5 56.5t-4.5 47.5q0 69 21 121.5t54 79.5t65.5 40t61.5 13q67 0 117.5 -41t51.5 -116q0 -12 -1 -18zM117 308h174q28 0 28 25
q0 40 -23 66t-64 26q-45 0 -75.5 -31t-39.5 -86zM253 547h-56l-122 166h33l117 -106l117 106h33z" />
    <glyph glyph-name="Gcircumflex" unicode="&#x11c;" horiz-adv-x="778" 
d="M687 659l17 -140h-22q-19 83 -82 122.5t-153 39.5q-127 0 -203 -94.5t-76 -223.5q0 -88 33 -166t100 -129t153 -51q82 0 135 39v149q0 26 -6 42t-21 22t-26.5 7.5t-37.5 1.5v26q94 -2 138 -2q62 0 122 2v-26q-17 0 -26 -1.5t-21.5 -7.5t-18 -22t-5.5 -42v-131l15 -15v-17
q-159 -57 -260 -57q-100 0 -177.5 36t-120.5 92.5t-64.5 116.5t-21.5 118q0 157 107 261t265 104q112 0 257 -54zM411 906h56l122 -166h-33l-117 106l-117 -106h-33z" />
    <glyph glyph-name="gcircumflex" unicode="&#x11d;" horiz-adv-x="500" 
d="M475 431v-48l-99 4q26 -32 26 -76q0 -60 -49 -107t-136 -47q-25 0 -55 6q-30 -22 -30 -51q0 -46 70 -46q26 0 72.5 -0.5t65.5 -0.5q68 0 102.5 -23.5t34.5 -77.5q0 -19 -12.5 -47.5t-39.5 -62.5t-83 -58t-130 -24q-89 0 -139 33.5t-50 78.5t33.5 75t83.5 40v2
q-36 10 -62 32.5t-26 54.5q0 22 4 32q10 6 29.5 17t33.5 19t20 14q-94 49 -94 133q0 68 49 111t138 43q40 0 88 -14q60 -17 97 -17q25 0 58 5zM403 -81q0 81 -141 81q-23 0 -35.5 -0.5t-35.5 -3t-37 -8.5t-29 -16t-22 -26.5t-7 -39.5q0 -49 38 -75.5t94 -26.5q26 0 53.5 6
t56 18t47 36t18.5 55zM322 300q0 51 -27 91t-76 40q-42 0 -65 -34.5t-23 -79.5q0 -51 23.5 -92.5t70.5 -41.5q48 0 72.5 33.5t24.5 83.5zM209 713h56l122 -166h-33l-117 106l-117 -106h-33z" />
    <glyph glyph-name="Gbreve" unicode="&#x11e;" horiz-adv-x="778" 
d="M687 659l17 -140h-22q-19 83 -82 122.5t-153 39.5q-127 0 -203 -94.5t-76 -223.5q0 -88 33 -166t100 -129t153 -51q82 0 135 39v149q0 26 -6 42t-21 22t-26.5 7.5t-37.5 1.5v26q94 -2 138 -2q62 0 122 2v-26q-17 0 -26 -1.5t-21.5 -7.5t-18 -22t-5.5 -42v-131l15 -15v-17
q-159 -57 -260 -57q-100 0 -177.5 36t-120.5 92.5t-64.5 116.5t-21.5 118q0 157 107 261t265 104q112 0 257 -54zM300 891h26q4 -44 36 -72.5t77 -28.5t77 28.5t36 72.5h26q-6 -72 -40 -113.5t-99 -41.5t-99 41.5t-40 113.5z" />
    <glyph glyph-name="gbreve" unicode="&#x11f;" horiz-adv-x="500" 
d="M475 431v-48l-99 4q26 -32 26 -76q0 -60 -49 -107t-136 -47q-25 0 -55 6q-30 -22 -30 -51q0 -46 70 -46q26 0 72.5 -0.5t65.5 -0.5q68 0 102.5 -23.5t34.5 -77.5q0 -19 -12.5 -47.5t-39.5 -62.5t-83 -58t-130 -24q-89 0 -139 33.5t-50 78.5t33.5 75t83.5 40v2
q-36 10 -62 32.5t-26 54.5q0 22 4 32q10 6 29.5 17t33.5 19t20 14q-94 49 -94 133q0 68 49 111t138 43q40 0 88 -14q60 -17 97 -17q25 0 58 5zM403 -81q0 81 -141 81q-23 0 -35.5 -0.5t-35.5 -3t-37 -8.5t-29 -16t-22 -26.5t-7 -39.5q0 -49 38 -75.5t94 -26.5q26 0 53.5 6
t56 18t47 36t18.5 55zM322 300q0 51 -27 91t-76 40q-42 0 -65 -34.5t-23 -79.5q0 -51 23.5 -92.5t70.5 -41.5q48 0 72.5 33.5t24.5 83.5zM98 698h26q4 -44 36 -72.5t77 -28.5t77 28.5t36 72.5h26q-6 -72 -40 -113.5t-99 -41.5t-99 41.5t-40 113.5z" />
    <glyph glyph-name="Gdotaccent" unicode="&#x120;" horiz-adv-x="778" 
d="M687 659l17 -140h-22q-19 83 -82 122.5t-153 39.5q-127 0 -203 -94.5t-76 -223.5q0 -88 33 -166t100 -129t153 -51q82 0 135 39v149q0 26 -6 42t-21 22t-26.5 7.5t-37.5 1.5v26q94 -2 138 -2q62 0 122 2v-26q-17 0 -26 -1.5t-21.5 -7.5t-18 -22t-5.5 -42v-131l15 -15v-17
q-159 -57 -260 -57q-100 0 -177.5 36t-120.5 92.5t-64.5 116.5t-21.5 118q0 157 107 261t265 104q112 0 257 -54zM485 803q0 -18 -14 -31.5t-32 -13.5q-19 0 -32.5 13.5t-13.5 31.5t13.5 32t32.5 14q18 0 32 -14t14 -32z" />
    <glyph glyph-name="gdotaccent" unicode="&#x121;" horiz-adv-x="500" 
d="M475 431v-48l-99 4q26 -32 26 -76q0 -60 -49 -107t-136 -47q-25 0 -55 6q-30 -22 -30 -51q0 -46 70 -46q26 0 72.5 -0.5t65.5 -0.5q68 0 102.5 -23.5t34.5 -77.5q0 -19 -12.5 -47.5t-39.5 -62.5t-83 -58t-130 -24q-89 0 -139 33.5t-50 78.5t33.5 75t83.5 40v2
q-36 10 -62 32.5t-26 54.5q0 22 4 32q10 6 29.5 17t33.5 19t20 14q-94 49 -94 133q0 68 49 111t138 43q40 0 88 -14q60 -17 97 -17q25 0 58 5zM403 -81q0 81 -141 81q-23 0 -35.5 -0.5t-35.5 -3t-37 -8.5t-29 -16t-22 -26.5t-7 -39.5q0 -49 38 -75.5t94 -26.5q26 0 53.5 6
t56 18t47 36t18.5 55zM322 300q0 51 -27 91t-76 40q-42 0 -65 -34.5t-23 -79.5q0 -51 23.5 -92.5t70.5 -41.5q48 0 72.5 33.5t24.5 83.5zM283 610q0 -18 -14 -31.5t-32 -13.5q-19 0 -32.5 13.5t-13.5 31.5t13.5 32t32.5 14q18 0 32 -14t14 -32z" />
    <glyph glyph-name="Gcommaaccent" unicode="&#x122;" horiz-adv-x="778" 
d="M687 659l17 -140h-22q-19 83 -82 122.5t-153 39.5q-127 0 -203 -94.5t-76 -223.5q0 -88 33 -166t100 -129t153 -51q82 0 135 39v149q0 26 -6 42t-21 22t-26.5 7.5t-37.5 1.5v26q94 -2 138 -2q62 0 122 2v-26q-17 0 -26 -1.5t-21.5 -7.5t-18 -22t-5.5 -42v-131l15 -15v-17
q-159 -57 -260 -57q-100 0 -177.5 36t-120.5 92.5t-64.5 116.5t-21.5 118q0 157 107 261t265 104q112 0 257 -54zM407 -213l-11 19q28 5 49.5 20.5t21.5 34.5q0 24 -35 24q-15 0 -25.5 10t-10.5 25q0 18 15 30t33 12q31 0 47.5 -21.5t16.5 -48.5q0 -41 -28.5 -68t-72.5 -37z
" />
    <glyph glyph-name="gcommaaccent" unicode="&#x123;" horiz-adv-x="500" 
d="M475 431v-48l-99 4q26 -32 26 -76q0 -60 -49 -107t-136 -47q-25 0 -55 6q-30 -22 -30 -51q0 -46 70 -46q26 0 72.5 -0.5t65.5 -0.5q68 0 102.5 -23.5t34.5 -77.5q0 -19 -12.5 -47.5t-39.5 -62.5t-83 -58t-130 -24q-89 0 -139 33.5t-50 78.5t33.5 75t83.5 40v2
q-36 10 -62 32.5t-26 54.5q0 22 4 32q10 6 29.5 17t33.5 19t20 14q-94 49 -94 133q0 68 49 111t138 43q40 0 88 -14q60 -17 97 -17q25 0 58 5zM403 -81q0 81 -141 81q-23 0 -35.5 -0.5t-35.5 -3t-37 -8.5t-29 -16t-22 -26.5t-7 -39.5q0 -49 38 -75.5t94 -26.5q26 0 53.5 6
t56 18t47 36t18.5 55zM322 300q0 51 -27 91t-76 40q-42 0 -65 -34.5t-23 -79.5q0 -51 23.5 -92.5t70.5 -41.5q48 0 72.5 33.5t24.5 83.5zM280 718l11 -19q-28 -5 -49.5 -20.5t-21.5 -34.5q0 -24 35 -24q15 0 25.5 -10t10.5 -25q0 -18 -15 -30t-33 -12q-31 0 -47.5 21.5
t-16.5 48.5q0 41 28.5 68t72.5 37z" />
    <glyph glyph-name="Hcircumflex" unicode="&#x124;" horiz-adv-x="834" 
d="M215 382h404v218q0 25 -6 40.5t-20.5 21.5t-27 8t-37.5 2v26q106 -2 148 -2q21 0 65 1t67 1v-26q-25 0 -37.5 -2t-27 -8t-20.5 -21.5t-6 -40.5v-502q0 -25 6 -40.5t20.5 -21.5t27 -8t37.5 -2v-26q-90 2 -135 2q-41 0 -145 -2v26q25 0 37.5 2t27 8t20.5 21.5t6 40.5v243
h-404v-243q0 -25 6 -40.5t20.5 -21.5t27 -8t37.5 -2v-26q-24 0 -69 1t-66 1q-45 0 -145 -2v26q25 0 37.5 2t27 8t20.5 21.5t6 40.5v502q0 25 -6 40.5t-20.5 21.5t-27 8t-37.5 2v26q94 -2 138 -2q42 0 142 2v-26q-25 0 -37.5 -2t-27 -8t-20.5 -21.5t-6 -40.5v-218zM390 906
h56l122 -166h-33l-117 106l-117 -106h-33z" />
    <glyph glyph-name="hcircumflex" unicode="&#x125;" 
d="M93 59v557q0 32 -6.5 47.5t-14.5 19.5t-32 11v16q64 21 103 43q20 11 22 11q8 0 8 -14v-381q1 1 9 9.5t17 17t24 20t30 20.5t35 15t39 6q64 0 99 -42t35 -109v-247q0 -16 7.5 -23.5t16 -8.5t26.5 -1h18v-26q-17 0 -53 1t-55 1q-36 0 -108 -2v26h18q35 0 42.5 17t7.5 92
v113q0 33 -3 55t-12 46t-29.5 36t-53.5 12q-49 0 -110 -56v-282q0 -16 7.5 -23.5t16 -8.5t26.5 -1h18v-26q-17 0 -52.5 1t-53.5 1q-36 0 -108 -2v26h18q18 0 26 1t15 8.5t7 23.5zM219 976h56l122 -166h-33l-117 106l-117 -106h-33z" />
    <glyph glyph-name="Hbar" unicode="&#x126;" horiz-adv-x="834" 
d="M215 600v-58h404v58q0 25 -6 40.5t-20.5 21.5t-27 8t-37.5 2v26q106 -2 148 -2q21 0 65 1t67 1v-26q-25 0 -37.5 -2t-27 -8t-20.5 -21.5t-6 -40.5v-502q0 -25 6 -40.5t20.5 -21.5t27 -8t37.5 -2v-26q-90 2 -135 2q-41 0 -145 -2v26q25 0 37.5 2t27 8t20.5 21.5t6 40.5
v243h-404v-243q0 -25 6 -40.5t20.5 -21.5t27 -8t37.5 -2v-26q-24 0 -69 1t-66 1q-45 0 -145 -2v26q25 0 37.5 2t27 8t20.5 21.5t6 40.5v502q0 25 -6 40.5t-20.5 21.5t-27 8t-37.5 2v26q94 -2 138 -2q42 0 142 2v-26q-25 0 -37.5 -2t-27 -8t-20.5 -21.5t-6 -40.5zM215 382
h404v119h-404v-119z" />
    <glyph glyph-name="hbar" unicode="&#x127;" 
d="M93 59v492h-59v47h59v18q0 32 -6.5 47.5t-14.5 19.5t-32 11v16q64 21 103 43q20 11 22 11q8 0 8 -14v-152h146v-47h-146v-182q1 1 9 9.5t17 17t24 20t30 20.5t35 15t39 6q64 0 99 -42t35 -109v-247q0 -16 7.5 -23.5t16 -8.5t26.5 -1h18v-26q-17 0 -53 1t-55 1
q-36 0 -108 -2v26h18q35 0 42.5 17t7.5 92v113q0 33 -3 55t-12 46t-29.5 36t-53.5 12q-49 0 -110 -56v-282q0 -16 7.5 -23.5t16 -8.5t26.5 -1h18v-26q-17 0 -52.5 1t-53.5 1q-36 0 -108 -2v26h18q18 0 26 1t15 8.5t7 23.5z" />
    <glyph glyph-name="Itilde" unicode="&#x128;" horiz-adv-x="332" 
d="M117 98v502q0 25 -6 40.5t-20.5 21.5t-27 8t-37.5 2v26q94 -2 138 -2q42 0 142 2v-26q-25 0 -37.5 -2t-27 -8t-20.5 -21.5t-6 -40.5v-502q0 -25 6 -40.5t20.5 -21.5t27 -8t37.5 -2v-26q-24 0 -69 1t-66 1q-45 0 -145 -2v26q25 0 37.5 2t27 8t20.5 21.5t6 40.5zM299 862
h27q-8 -44 -30 -74t-61 -30q-27 0 -79 24q-56 23 -74 23q-36 0 -51 -47h-27q11 50 36 77t58 27q28 0 77 -21q59 -23 76 -23q21 0 30.5 10.5t17.5 33.5z" />
    <glyph glyph-name="itilde" unicode="&#x129;" horiz-adv-x="278" 
d="M32 0v26h19q18 0 26 1t15 8.5t7 23.5v271q0 21 -6.5 34t-14 18t-31.5 18v16q98 29 107 36q9 5 18 5q7 0 7 -14v-384q0 -16 7.5 -23.5t16 -8.5t26.5 -1h17v-26q-17 0 -52 1t-53 1q-35 0 -109 -2zM275 669h27q-8 -44 -30 -74t-61 -30q-27 0 -79 24q-56 23 -74 23
q-36 0 -51 -47h-27q11 50 36 77t58 27q28 0 77 -21q59 -23 76 -23q21 0 30.5 10.5t17.5 33.5z" />
    <glyph glyph-name="Imacron" unicode="&#x12a;" horiz-adv-x="332" 
d="M117 98v502q0 25 -6 40.5t-20.5 21.5t-27 8t-37.5 2v26q94 -2 138 -2q42 0 142 2v-26q-25 0 -37.5 -2t-27 -8t-20.5 -21.5t-6 -40.5v-502q0 -25 6 -40.5t20.5 -21.5t27 -8t37.5 -2v-26q-24 0 -69 1t-66 1q-45 0 -145 -2v26q25 0 37.5 2t27 8t20.5 21.5t6 40.5zM298 773
h-266v54h266v-54z" />
    <glyph glyph-name="imacron" unicode="&#x12b;" horiz-adv-x="278" 
d="M32 0v26h19q18 0 26 1t15 8.5t7 23.5v271q0 21 -6.5 34t-14 18t-31.5 18v16q98 29 107 36q9 5 18 5q7 0 7 -14v-384q0 -16 7.5 -23.5t16 -8.5t26.5 -1h17v-26q-17 0 -52 1t-53 1q-35 0 -109 -2zM274 580h-266v54h266v-54z" />
    <glyph glyph-name="Ibreve" unicode="&#x12c;" horiz-adv-x="332" 
d="M117 98v502q0 25 -6 40.5t-20.5 21.5t-27 8t-37.5 2v26q94 -2 138 -2q42 0 142 2v-26q-25 0 -37.5 -2t-27 -8t-20.5 -21.5t-6 -40.5v-502q0 -25 6 -40.5t20.5 -21.5t27 -8t37.5 -2v-26q-24 0 -69 1t-66 1q-45 0 -145 -2v26q25 0 37.5 2t27 8t20.5 21.5t6 40.5zM30 891h26
q4 -44 36 -72.5t77 -28.5t77 28.5t36 72.5h26q-6 -72 -40 -113.5t-99 -41.5t-99 41.5t-40 113.5z" />
    <glyph glyph-name="ibreve" unicode="&#x12d;" horiz-adv-x="278" 
d="M32 0v26h19q18 0 26 1t15 8.5t7 23.5v271q0 21 -6.5 34t-14 18t-31.5 18v16q98 29 107 36q9 5 18 5q7 0 7 -14v-384q0 -16 7.5 -23.5t16 -8.5t26.5 -1h17v-26q-17 0 -52 1t-53 1q-35 0 -109 -2zM-1 698h26q4 -44 36 -72.5t77 -28.5t77 28.5t36 72.5h26q-6 -72 -40 -113.5
t-99 -41.5t-99 41.5t-40 113.5z" />
    <glyph glyph-name="Iogonek" unicode="&#x12e;" horiz-adv-x="332" 
d="M117 98v502q0 25 -6 40.5t-20.5 21.5t-27 8t-37.5 2v26q94 -2 138 -2q42 0 142 2v-26q-25 0 -37.5 -2t-27 -8t-20.5 -21.5t-6 -40.5v-502q0 -25 6 -40.5t20.5 -21.5t27 -8t37.5 -2v-26q-36 0 -98 2q-47 -39 -63.5 -67.5t-16.5 -56.5q0 -20 12 -32.5t28 -12.5q35 0 60 34
l20 -10q-15 -31 -41 -48t-51 -17q-94 0 -94 82q0 64 107 128q-45 0 -143 -2v26q25 0 37.5 2t27 8t20.5 21.5t6 40.5z" />
    <glyph glyph-name="iogonek" unicode="&#x12f;" horiz-adv-x="278" 
d="M32 0v26h19q18 0 26 1t15 8.5t7 23.5v271q0 21 -6.5 34t-14 18t-31.5 18v16q98 29 107 36q9 5 18 5q7 0 7 -14v-384q0 -16 7.5 -23.5t16 -8.5t26.5 -1h17v-26q-10 0 -30 0.5t-31 0.5q-46 -38 -62.5 -66.5t-16.5 -56.5q0 -20 12 -32.5t28 -12.5q35 0 60 34l20 -10
q-15 -31 -41 -48t-51 -17q-94 0 -94 82q0 64 107 128h-6q-35 0 -109 -2zM188 661q0 -20 -14.5 -35t-34.5 -15q-19 0 -34 15t-15 35q0 19 15 33.5t34 14.5q20 0 34.5 -14t14.5 -34z" />
    <glyph glyph-name="Idotaccent" unicode="&#x130;" horiz-adv-x="332" 
d="M117 98v502q0 25 -6 40.5t-20.5 21.5t-27 8t-37.5 2v26q94 -2 138 -2q42 0 142 2v-26q-25 0 -37.5 -2t-27 -8t-20.5 -21.5t-6 -40.5v-502q0 -25 6 -40.5t20.5 -21.5t27 -8t37.5 -2v-26q-24 0 -69 1t-66 1q-45 0 -145 -2v26q25 0 37.5 2t27 8t20.5 21.5t6 40.5zM212 803
q0 -18 -14 -31.5t-32 -13.5q-19 0 -32.5 13.5t-13.5 31.5t13.5 32t32.5 14q18 0 32 -14t14 -32z" />
    <glyph glyph-name="dotlessi" unicode="&#x131;" horiz-adv-x="278" 
d="M32 0v26h19q18 0 26 1t15 8.5t7 23.5v271q0 21 -6.5 34t-14 18t-31.5 18v16q98 29 107 36q9 5 18 5q7 0 7 -14v-384q0 -16 7.5 -23.5t16 -8.5t26.5 -1h17v-26q-17 0 -52 1t-53 1q-35 0 -109 -2z" />
    <glyph glyph-name="Jcircumflex" unicode="&#x134;" horiz-adv-x="389" 
d="M272 600v-514q0 -64 -6.5 -106.5t-14.5 -61t-25 -48.5q-20 -36 -64 -59.5t-92 -23.5q-42 0 -72.5 17t-30.5 50q0 21 13 33t29 11q13 0 22.5 -9.5t9.5 -26.5q0 -20 15.5 -31.5t38.5 -11.5q19 0 33 9t22.5 27.5t13.5 35.5t7 45t2.5 44t0.5 44v576q0 25 -6 40.5t-20.5 21.5
t-27 8t-37.5 2v26q94 -2 138 -2q42 0 142 2v-26q-25 0 -37.5 -2t-27 -8t-20.5 -21.5t-6 -40.5zM194 906h56l122 -166h-33l-117 106l-117 -106h-33z" />
    <glyph glyph-name="jcircumflex" unicode="&#x135;" horiz-adv-x="278" 
d="M179 443v-481q0 -36 -8 -63.5t-19 -44.5t-35 -33.5t-41.5 -25t-53.5 -23.5l-7 23q30 15 48 29.5t25.5 36t9 38.5t1.5 53v378q0 31 -12 42.5t-54 27.5v16q90 17 121 36q9 5 18 5q7 0 7 -14zM106 713h56l122 -166h-33l-117 106l-117 -106h-33z" />
    <glyph glyph-name="Kcommaaccent" unicode="&#x136;" horiz-adv-x="722" 
d="M26 0v26q25 0 37.5 2t27 8t20.5 21.5t6 40.5v502q0 25 -6 40.5t-20.5 21.5t-27 8t-37.5 2v26q94 -2 138 -2q57 0 127 2v-26q-19 0 -28.5 -2t-23 -8t-19 -21.5t-5.5 -40.5v-502q0 -25 6 -40.5t19.5 -21.5t23.5 -8t31 -2v-26q-18 0 -59.5 1t-64.5 1q-45 0 -145 -2zM219 347
l235 247q37 37 37 55q0 11 -9.5 16t-19 6t-27.5 1v26q86 -2 129 -2q32 0 96 2v-26q-46 0 -81 -18.5t-98 -84.5l-171 -179q31 -35 94 -105t113 -124.5t96 -102.5q33 -32 86 -32v-26q-64 2 -97 2q-24 0 -72 -2q-44 53 -95.5 111t-116 127.5t-99.5 108.5zM304 -213l-11 19
q28 5 49.5 20.5t21.5 34.5q0 24 -35 24q-15 0 -25.5 10t-10.5 25q0 18 15 30t33 12q31 0 47.5 -21.5t16.5 -48.5q0 -41 -28.5 -68t-72.5 -37z" />
    <glyph glyph-name="kcommaaccent" unicode="&#x137;" 
d="M502 442v-26q-38 0 -65.5 -13.5t-58.5 -42.5l-111 -100l169 -187q30 -33 44 -40t49 -9v-24q-52 2 -78 2q-23 0 -67 -2q-15 20 -32 41l-159 180h-20v-162q0 -16 7.5 -23.5t16 -8.5t26.5 -1h18v-26q-17 0 -52.5 1t-53.5 1q-36 0 -108 -2v26h18q18 0 26 1t15 8.5t7 23.5v557
q0 32 -6.5 47.5t-14.5 19.5t-32 11v16q64 21 103 43q20 11 22 11q8 0 8 -14v-506l32 6l108 95q39 34 39 51q0 20 -49 20v26q70 -2 106 -2q31 0 93 2zM223 -213l-11 19q28 5 49.5 20.5t21.5 34.5q0 24 -35 24q-15 0 -25.5 10t-10.5 25q0 18 15 30t33 12q31 0 47.5 -21.5
t16.5 -48.5q0 -41 -28.5 -68t-72.5 -37z" />
    <glyph glyph-name="kgreenlandic" unicode="&#x138;" 
d="M502 442v-26q-38 0 -65.5 -13.5t-58.5 -42.5l-111 -100l169 -187q30 -33 44 -40t49 -9v-24q-52 2 -78 2q-23 0 -67 -2q-15 20 -32 41l-159 180h-20v-162q0 -16 7.5 -23.5t16 -8.5t26.5 -1h18v-26q-17 0 -52.5 1t-53.5 1q-36 0 -108 -2v26h18q18 0 26 1t15 8.5t7 23.5v250
q0 32 -6.5 47.5t-14.5 19.5t-32 11v16q64 21 103 43q20 11 22 11q8 0 8 -14v-199l32 6l108 95q39 34 39 51q0 20 -49 20v26q70 -2 106 -2q31 0 93 2z" />
    <glyph glyph-name="Lacute" unicode="&#x139;" horiz-adv-x="611" 
d="M592 153l-37 -153q-85 2 -254 2q-177 0 -265 -2v26q91 -5 91 67v507q0 25 -6 40.5t-20.5 21.5t-27 8t-37.5 2v26q94 -2 138 -2q42 0 142 2v-26q-25 0 -37.5 -2t-27 -8t-20.5 -21.5t-6 -40.5v-463q0 -41 9.5 -61t44 -32t104.5 -12q87 0 125.5 26t61.5 99zM110 738h-35
l134 133q2 2 7.5 8t8 8t8 6.5t9.5 6.5t9.5 4t10.5 2q13 0 22.5 -10t9.5 -20q0 -24 -17 -34z" />
    <glyph glyph-name="lacute" unicode="&#x13a;" horiz-adv-x="278" 
d="M32 0v26h19q18 0 26 1t15 8.5t7 23.5v557q0 32 -6.5 47.5t-14.5 19.5t-32 11v16q64 21 103 43q20 11 22 11q8 0 8 -14v-691q0 -16 7.5 -23.5t16 -8.5t26.5 -1h17v-26q-17 0 -52 1t-53 1q-35 0 -109 -2zM87 782h-35l134 133q2 2 7.5 8t8 8t8 6.5t9.5 6.5t9.5 4t10.5 2
q13 0 22.5 -10t9.5 -20q0 -24 -17 -34z" />
    <glyph glyph-name="Lcommaaccent" unicode="&#x13b;" horiz-adv-x="611" 
d="M592 153l-37 -153q-85 2 -254 2q-177 0 -265 -2v26q91 -5 91 67v507q0 25 -6 40.5t-20.5 21.5t-27 8t-37.5 2v26q94 -2 138 -2q42 0 142 2v-26q-25 0 -37.5 -2t-27 -8t-20.5 -21.5t-6 -40.5v-463q0 -41 9.5 -61t44 -32t104.5 -12q87 0 125.5 26t61.5 99zM250 -213l-11 19
q28 5 49.5 20.5t21.5 34.5q0 24 -35 24q-15 0 -25.5 10t-10.5 25q0 18 15 30t33 12q31 0 47.5 -21.5t16.5 -48.5q0 -41 -28.5 -68t-72.5 -37z" />
    <glyph glyph-name="lcommaaccent" unicode="&#x13c;" horiz-adv-x="278" 
d="M32 0v26h19q18 0 26 1t15 8.5t7 23.5v557q0 32 -6.5 47.5t-14.5 19.5t-32 11v16q64 21 103 43q20 11 22 11q8 0 8 -14v-691q0 -16 7.5 -23.5t16 -8.5t26.5 -1h17v-26q-17 0 -52 1t-53 1q-35 0 -109 -2zM95 -213l-11 19q28 5 49.5 20.5t21.5 34.5q0 24 -35 24
q-15 0 -25.5 10t-10.5 25q0 18 15 30t33 12q31 0 47.5 -21.5t16.5 -48.5q0 -41 -28.5 -68t-72.5 -37z" />
    <glyph glyph-name="Lcaron" unicode="&#x13d;" horiz-adv-x="611" 
d="M592 153l-37 -153q-85 2 -254 2q-177 0 -265 -2v26q91 -5 91 67v507q0 25 -6 40.5t-20.5 21.5t-27 8t-37.5 2v26q94 -2 138 -2q42 0 142 2v-26q-25 0 -37.5 -2t-27 -8t-20.5 -21.5t-6 -40.5v-463q0 -41 9.5 -61t44 -32t104.5 -12q87 0 125.5 26t61.5 99zM404 539h-20
l15 140q2 16 12 27t25 11t25.5 -7.5t10.5 -20.5q0 -16 -13 -41z" />
    <glyph glyph-name="lcaron" unicode="&#x13e;" horiz-adv-x="278" 
d="M32 0v26h19q18 0 26 1t15 8.5t7 23.5v557q0 32 -6.5 47.5t-14.5 19.5t-32 11v16q64 21 103 43q20 11 22 11q8 0 8 -14v-691q0 -16 7.5 -23.5t16 -8.5t26.5 -1h17v-26q-17 0 -52 1t-53 1q-35 0 -109 -2zM256 539h-20l15 140q2 16 12 27t25 11t25.5 -7.5t10.5 -20.5
q0 -16 -13 -41z" />
    <glyph glyph-name="Ldot" unicode="&#x13f;" horiz-adv-x="611" 
d="M592 153l-37 -153q-85 2 -254 2q-177 0 -265 -2v26q91 -5 91 67v507q0 25 -6 40.5t-20.5 21.5t-27 8t-37.5 2v26q94 -2 138 -2q42 0 142 2v-26q-25 0 -37.5 -2t-27 -8t-20.5 -21.5t-6 -40.5v-463q0 -41 9.5 -61t44 -32t104.5 -12q87 0 125.5 26t61.5 99zM527 345
q0 -18 -14 -31.5t-32 -13.5q-19 0 -32.5 13.5t-13.5 31.5t13.5 32t32.5 14q18 0 32 -14t14 -32z" />
    <glyph glyph-name="ldot" unicode="&#x140;" horiz-adv-x="389" 
d="M32 0v26h19q18 0 26 1t15 8.5t7 23.5v557q0 32 -6.5 47.5t-14.5 19.5t-32 11v16q64 21 103 43q20 11 22 11q8 0 8 -14v-691q0 -16 7.5 -23.5t16 -8.5t26.5 -1h17v-26q-17 0 -52 1t-53 1q-35 0 -109 -2zM365 345q0 -18 -14 -31.5t-32 -13.5q-19 0 -32.5 13.5t-13.5 31.5
t13.5 32t32.5 14q18 0 32 -14t14 -32z" />
    <glyph glyph-name="Lslash" unicode="&#x141;" horiz-adv-x="611" 
d="M127 93v177l-91 -66v56l91 66v274q0 25 -6 40.5t-20.5 21.5t-27 8t-37.5 2v26q94 -2 138 -2q42 0 142 2v-26q-25 0 -37.5 -2t-27 -8t-20.5 -21.5t-6 -40.5v-202l214 156v-56l-214 -156v-205q0 -41 9.5 -61t44 -32t104.5 -12q87 0 125.5 26t61.5 99l22 -4l-37 -153
q-85 2 -254 2q-177 0 -265 -2v26q91 -5 91 67z" />
    <glyph glyph-name="lslash" unicode="&#x142;" horiz-adv-x="278" 
d="M32 0v26h19q18 0 26 1t15 8.5t7 23.5v279l-67 -52v48l67 52v230q0 32 -6.5 47.5t-14.5 19.5t-32 11v16q64 21 103 43q20 11 22 11q8 0 8 -14v-303l67 52v-48l-67 -52v-340q0 -16 7.5 -23.5t16 -8.5t26.5 -1h17v-26q-17 0 -52 1t-53 1q-35 0 -109 -2z" />
    <glyph glyph-name="Nacute" unicode="&#x143;" horiz-adv-x="833" 
d="M724 569v-578h-23l-523 574v-373q0 -106 20 -136t99 -30v-26q-22 0 -66.5 1t-66.5 1q-45 0 -133 -2v26q30 0 44 2.5t31.5 13.5t24.5 38t7 73v402q0 64 -29 90.5t-94 26.5v26q62 -2 92 -2q13 0 41 1t41 1q18 -27 51.5 -65t96.5 -105t100 -108q49 -54 138.5 -150
t108.5 -117v398q0 70 -23.5 95t-97.5 26v26q92 -2 139 -2q20 0 58 1t58 1v-26q-53 0 -73.5 -17.5t-20.5 -85.5zM399 738h-35l134 133q2 2 7.5 8t8 8t8 6.5t9.5 6.5t9.5 4t10.5 2q13 0 22.5 -10t9.5 -20q0 -24 -17 -34z" />
    <glyph glyph-name="nacute" unicode="&#x144;" 
d="M93 59v265q0 27 -11 39t-47 27v19q87 28 132 48q6 0 6 -10v-65q36 26 57 39t52.5 24.5t63.5 11.5q115 0 115 -140v-258q0 -16 7.5 -23.5t16 -8.5t26.5 -1h18v-26q-17 0 -52.5 1t-53.5 1q-36 0 -108 -2v26h18q18 0 26 1t15 8.5t7 23.5v259q0 42 -24 63.5t-68 21.5
t-116 -48v-296q0 -16 7.5 -23.5t16 -8.5t26.5 -1h18v-26q-17 0 -52.5 1t-53.5 1q-36 0 -108 -2v26h18q18 0 26 1t15 8.5t7 23.5zM239 545h-35l134 133q2 2 7.5 8t8 8t8 6.5t9.5 6.5t9.5 4t10.5 2q13 0 22.5 -10t9.5 -20q0 -24 -17 -34z" />
    <glyph glyph-name="Ncommaaccent" unicode="&#x145;" horiz-adv-x="833" 
d="M724 569v-578h-23l-523 574v-373q0 -106 20 -136t99 -30v-26q-22 0 -66.5 1t-66.5 1q-45 0 -133 -2v26q30 0 44 2.5t31.5 13.5t24.5 38t7 73v402q0 64 -29 90.5t-94 26.5v26q62 -2 92 -2q13 0 41 1t41 1q18 -27 51.5 -65t96.5 -105t100 -108q49 -54 138.5 -150
t108.5 -117v398q0 70 -23.5 95t-97.5 26v26q92 -2 139 -2q20 0 58 1t58 1v-26q-53 0 -73.5 -17.5t-20.5 -85.5zM381 -213l-11 19q28 5 49.5 20.5t21.5 34.5q0 24 -35 24q-15 0 -25.5 10t-10.5 25q0 18 15 30t33 12q31 0 47.5 -21.5t16.5 -48.5q0 -41 -28.5 -68t-72.5 -37z
" />
    <glyph glyph-name="ncommaaccent" unicode="&#x146;" 
d="M93 59v265q0 27 -11 39t-47 27v19q87 28 132 48q6 0 6 -10v-65q36 26 57 39t52.5 24.5t63.5 11.5q115 0 115 -140v-258q0 -16 7.5 -23.5t16 -8.5t26.5 -1h18v-26q-17 0 -52.5 1t-53.5 1q-36 0 -108 -2v26h18q18 0 26 1t15 8.5t7 23.5v259q0 42 -24 63.5t-68 21.5
t-116 -48v-296q0 -16 7.5 -23.5t16 -8.5t26.5 -1h18v-26q-17 0 -52.5 1t-53.5 1q-36 0 -108 -2v26h18q18 0 26 1t15 8.5t7 23.5zM227 -213l-11 19q28 5 49.5 20.5t21.5 34.5q0 24 -35 24q-15 0 -25.5 10t-10.5 25q0 18 15 30t33 12q31 0 47.5 -21.5t16.5 -48.5
q0 -41 -28.5 -68t-72.5 -37z" />
    <glyph glyph-name="Ncaron" unicode="&#x147;" horiz-adv-x="833" 
d="M724 569v-578h-23l-523 574v-373q0 -106 20 -136t99 -30v-26q-22 0 -66.5 1t-66.5 1q-45 0 -133 -2v26q30 0 44 2.5t31.5 13.5t24.5 38t7 73v402q0 64 -29 90.5t-94 26.5v26q62 -2 92 -2q13 0 41 1t41 1q18 -27 51.5 -65t96.5 -105t100 -108q49 -54 138.5 -150
t108.5 -117v398q0 70 -23.5 95t-97.5 26v26q92 -2 139 -2q20 0 58 1t58 1v-26q-53 0 -73.5 -17.5t-20.5 -85.5zM443 740h-56l-122 166h33l117 -106l117 106h33z" />
    <glyph glyph-name="ncaron" unicode="&#x148;" 
d="M93 59v265q0 27 -11 39t-47 27v19q87 28 132 48q6 0 6 -10v-65q36 26 57 39t52.5 24.5t63.5 11.5q115 0 115 -140v-258q0 -16 7.5 -23.5t16 -8.5t26.5 -1h18v-26q-17 0 -52.5 1t-53.5 1q-36 0 -108 -2v26h18q18 0 26 1t15 8.5t7 23.5v259q0 42 -24 63.5t-68 21.5
t-116 -48v-296q0 -16 7.5 -23.5t16 -8.5t26.5 -1h18v-26q-17 0 -52.5 1t-53.5 1q-36 0 -108 -2v26h18q18 0 26 1t15 8.5t7 23.5zM305 547h-56l-122 166h33l117 -106l117 106h33z" />
    <glyph glyph-name="Eng" unicode="&#x14a;" horiz-adv-x="833" 
d="M634 14v45l-456 506v-373q0 -106 20 -136t99 -30v-24h-133q-45 0 -133 -2v26q30 0 44 2.5t31.5 13.5t24.5 38t7 73v402q0 64 -29 90.5t-94 26.5v26h174q18 -27 51.5 -65t96.5 -105t100 -108q40 -45 121 -136.5t116 -130.5v398q0 73 -19.5 96.5t-91.5 24.5v26
q74 -2 113 -2q17 0 26 2h116v-26q-53 0 -74.5 -17.5t-21.5 -85.5v-483q0 -64 -6.5 -106.5t-14.5 -61t-25 -48.5q-20 -36 -64 -59.5t-92 -23.5q-42 0 -72.5 17t-30.5 50q0 21 13 33t29 11q13 0 22.5 -9.5t9.5 -26.5q0 -20 15.5 -31.5t38.5 -11.5q89 0 89 195z" />
    <glyph glyph-name="eng" unicode="&#x14b;" 
d="M381 318v-294q0 -28 -0.5 -44t-2.5 -44t-7 -45t-13.5 -35.5t-22.5 -27.5t-33 -9q-23 0 -38.5 11.5t-15.5 31.5q0 17 -9.5 26.5t-22.5 9.5q-16 1 -29 -11t-13 -33q0 -33 30.5 -50t72.5 -17q90 0 138 83q17 30 25 48.5t14.5 61t6.5 106.5v231q0 140 -115 140
q-32 0 -63.5 -11.5t-52.5 -24.5t-57 -39v65q0 10 -6 10q-45 -20 -125 -46l-7 -2v-19q36 -15 47 -27t11 -39v-265q0 -16 -7 -23.5t-15 -8.5t-26 -1h-18v-26h214v26h-18q-18 0 -26.5 1t-16 8.5t-7.5 23.5v296q72 48 116 48t68 -21.5t24 -63.5z" />
    <glyph glyph-name="Omacron" unicode="&#x14c;" horiz-adv-x="833" 
d="M58 345q0 93 43.5 176.5t127.5 137.5t189 54q148 0 252.5 -107.5t104.5 -252.5q0 -93 -43.5 -176.5t-127.5 -137.5t-189 -54q-148 0 -252.5 107.5t-104.5 252.5zM168 374q0 -81 28 -160.5t89 -138t142 -58.5q108 0 173 85t65 222q0 81 -28 160.5t-89 138t-142 58.5
q-108 0 -173 -85t-65 -222zM548 773h-266v54h266v-54z" />
    <glyph glyph-name="omacron" unicode="&#x14d;" 
d="M42 219q0 99 65 168.5t164 69.5q106 0 174.5 -64.5t68.5 -169.5q0 -97 -67.5 -167.5t-162.5 -70.5q-102 0 -172 65t-70 169zM134 229q0 -45 14.5 -93t50 -86.5t84.5 -38.5q47 0 80 33.5t46 77.5t13 91q0 46 -14.5 93.5t-50.5 86t-85 38.5q-46 0 -79 -33.5t-46 -77.5
t-13 -91zM412 580h-266v54h266v-54z" />
    <glyph glyph-name="Obreve" unicode="&#x14e;" horiz-adv-x="833" 
d="M58 345q0 93 43.5 176.5t127.5 137.5t189 54q148 0 252.5 -107.5t104.5 -252.5q0 -93 -43.5 -176.5t-127.5 -137.5t-189 -54q-148 0 -252.5 107.5t-104.5 252.5zM168 374q0 -81 28 -160.5t89 -138t142 -58.5q108 0 173 85t65 222q0 81 -28 160.5t-89 138t-142 58.5
q-108 0 -173 -85t-65 -222zM276 891h26q4 -44 36 -72.5t77 -28.5t77 28.5t36 72.5h26q-6 -72 -40 -113.5t-99 -41.5t-99 41.5t-40 113.5z" />
    <glyph glyph-name="obreve" unicode="&#x14f;" 
d="M42 219q0 99 65 168.5t164 69.5q106 0 174.5 -64.5t68.5 -169.5q0 -97 -67.5 -167.5t-162.5 -70.5q-102 0 -172 65t-70 169zM134 229q0 -45 14.5 -93t50 -86.5t84.5 -38.5q47 0 80 33.5t46 77.5t13 91q0 46 -14.5 93.5t-50.5 86t-85 38.5q-46 0 -79 -33.5t-46 -77.5
t-13 -91zM140 698h26q4 -44 36 -72.5t77 -28.5t77 28.5t36 72.5h26q-6 -72 -40 -113.5t-99 -41.5t-99 41.5t-40 113.5z" />
    <glyph glyph-name="Ohungarumlaut" unicode="&#x150;" horiz-adv-x="833" 
d="M58 345q0 93 43.5 176.5t127.5 137.5t189 54q148 0 252.5 -107.5t104.5 -252.5q0 -93 -43.5 -176.5t-127.5 -137.5t-189 -54q-148 0 -252.5 107.5t-104.5 252.5zM168 374q0 -81 28 -160.5t89 -138t142 -58.5q108 0 173 85t65 222q0 81 -28 160.5t-89 138t-142 58.5
q-108 0 -173 -85t-65 -222zM336 739h-42l144 144q21 23 41 23q35 0 35 -37q0 -19 -29 -37zM521 739h-42l143 144q21 23 41 23q35 0 35 -37q0 -19 -29 -37z" />
    <glyph glyph-name="ohungarumlaut" unicode="&#x151;" 
d="M42 219q0 99 65 168.5t164 69.5q106 0 174.5 -64.5t68.5 -169.5q0 -97 -67.5 -167.5t-162.5 -70.5q-102 0 -172 65t-70 169zM134 229q0 -45 14.5 -93t50 -86.5t84.5 -38.5q47 0 80 33.5t46 77.5t13 91q0 46 -14.5 93.5t-50.5 86t-85 38.5q-46 0 -79 -33.5t-46 -77.5
t-13 -91zM197 546h-42l144 144q21 23 41 23q35 0 35 -37q0 -19 -29 -37zM382 546h-42l143 144q21 23 41 23q35 0 35 -37q0 -19 -29 -37z" />
    <glyph glyph-name="OE" unicode="&#x152;" horiz-adv-x="1000" 
d="M645 666v-284h132q40 0 54 16t14 70h21q-2 -72 -2 -112t2 -100h-20q0 46 -13.5 65.5t-61.5 19.5h-126v-216q0 -64 23.5 -78.5t100.5 -14.5q39 0 59 1t45.5 7t39 19t27 36t22.5 58l22 -5q-1 -7 -14 -62.5t-17 -85.5q-33 0 -98.5 1t-98.5 1q-82 0 -192.5 -8.5t-141.5 -8.5
q-158 0 -261 100t-103 259q0 152 102.5 260.5t252.5 108.5q30 0 90.5 -6t63.5 -6q70 -5 175 -5q69 0 185 2q0 -86 10 -146l-24 -3q-12 67 -39 92t-92 25h-137zM547 160v373q0 39 -3.5 61.5t-16 44.5t-40 32t-71.5 10q-61 0 -110 -30t-78 -78.5t-44.5 -104.5t-15.5 -114
q0 -85 27.5 -159.5t89 -126t145.5 -51.5q70 0 93.5 34t23.5 109z" />
    <glyph glyph-name="oe" unicode="&#x153;" horiz-adv-x="778" 
d="M745 112l14 -14q-81 -113 -186 -113q-90 0 -152 89q-68 -89 -167 -89q-96 0 -154 71t-58 170q0 95 60.5 163t163.5 68q108 0 170 -74q64 74 150 74q66 0 117.5 -41.5t52.5 -115.5q0 -12 -1 -18l-9 -6h-281q-3 -12 0 -58q5 -72 46.5 -122.5t100.5 -50.5q64 0 133 67z
M134 228q0 -33 7 -67t21 -68t41 -55t62 -21q38 0 64.5 20.5t39 54t17.5 66t5 68.5q0 34 -6 66t-19.5 63.5t-40 50.5t-63.5 19q-47 0 -77 -34t-40.5 -75.5t-10.5 -87.5zM468 308h175q27 0 27 25q0 40 -22.5 66t-63.5 26q-45 0 -75.5 -31t-40.5 -86z" />
    <glyph glyph-name="Racute" unicode="&#x154;" horiz-adv-x="722" 
d="M316 330h-91v-232q0 -25 6 -40.5t20.5 -21.5t27 -8t37.5 -2v-26q-24 0 -69 1t-66 1q-45 0 -145 -2v26q91 -5 91 67v507q0 25 -6 40.5t-20.5 21.5t-27 8t-37.5 2v26q110 -2 152 -2q14 0 56 1t78 1q67 0 115 -17t72 -45.5t34 -56.5t10 -58q0 -61 -40.5 -107t-101.5 -64
q27 -39 60 -88.5t50 -75.5t37 -53t35 -44q28 -32 53 -47.5t60 -15.5v-26q-12 0 -37 1t-38 1q-29 0 -85 -2q-26 29 -50.5 60t-50 68.5t-42 63t-46 72.5t-41.5 66zM449 515q0 69 -40 110t-124 41q-24 0 -60 -6v-293q25 -5 53 -5q85 0 128 46t43 107zM253 738h-35l134 133
q2 2 7.5 8t8 8t8 6.5t9.5 6.5t9.5 4t10.5 2q13 0 22.5 -10t9.5 -20q0 -24 -17 -34z" />
    <glyph glyph-name="racute" unicode="&#x155;" horiz-adv-x="389" 
d="M24 0v26h27q18 0 26 1t15 8.5t7 23.5v281q0 11 -6.5 19t-13.5 12t-18 8t-14 6v15q31 13 60.5 28t43.5 22t18 7q9 0 9 -13v-90h2q13 20 23 33.5t27 32t36.5 28t41.5 9.5q21 0 39 -14t18 -39q0 -21 -13.5 -36t-33.5 -15q-15 0 -31.5 12t-34.5 12q-20 0 -46.5 -22t-26.5 -61
v-235q0 -16 7 -23.5t15 -8.5t26 -1h56v-26q-110 2 -140 2q-47 0 -119 -2zM127 545h-35l134 133q2 2 7.5 8t8 8t8 6.5t9.5 6.5t9.5 4t10.5 2q13 0 22.5 -10t9.5 -20q0 -24 -17 -34z" />
    <glyph glyph-name="Rcommaaccent" unicode="&#x156;" horiz-adv-x="722" 
d="M316 330h-91v-232q0 -25 6 -40.5t20.5 -21.5t27 -8t37.5 -2v-26q-24 0 -69 1t-66 1q-45 0 -145 -2v26q91 -5 91 67v507q0 25 -6 40.5t-20.5 21.5t-27 8t-37.5 2v26q110 -2 152 -2q14 0 56 1t78 1q67 0 115 -17t72 -45.5t34 -56.5t10 -58q0 -61 -40.5 -107t-101.5 -64
q27 -39 60 -88.5t50 -75.5t37 -53t35 -44q28 -32 53 -47.5t60 -15.5v-26q-12 0 -37 1t-38 1q-29 0 -85 -2q-26 29 -50.5 60t-50 68.5t-42 63t-46 72.5t-41.5 66zM449 515q0 69 -40 110t-124 41q-24 0 -60 -6v-293q25 -5 53 -5q85 0 128 46t43 107zM292 -213l-11 19
q28 5 49.5 20.5t21.5 34.5q0 24 -35 24q-15 0 -25.5 10t-10.5 25q0 18 15 30t33 12q31 0 47.5 -21.5t16.5 -48.5q0 -41 -28.5 -68t-72.5 -37z" />
    <glyph glyph-name="rcommaaccent" unicode="&#x157;" horiz-adv-x="389" 
d="M24 0v26h27q18 0 26 1t15 8.5t7 23.5v281q0 11 -6.5 19t-13.5 12t-18 8t-14 6v15q31 13 60.5 28t43.5 22t18 7q9 0 9 -13v-90h2q13 20 23 33.5t27 32t36.5 28t41.5 9.5q21 0 39 -14t18 -39q0 -21 -13.5 -36t-33.5 -15q-15 0 -31.5 12t-34.5 12q-20 0 -46.5 -22t-26.5 -61
v-235q0 -16 7 -23.5t15 -8.5t26 -1h56v-26q-110 2 -140 2q-47 0 -119 -2zM101 -213l-11 19q28 5 49.5 20.5t21.5 34.5q0 24 -35 24q-15 0 -25.5 10t-10.5 25q0 18 15 30t33 12q31 0 47.5 -21.5t16.5 -48.5q0 -41 -28.5 -68t-72.5 -37z" />
    <glyph glyph-name="Rcaron" unicode="&#x158;" horiz-adv-x="722" 
d="M316 330h-91v-232q0 -25 6 -40.5t20.5 -21.5t27 -8t37.5 -2v-26q-24 0 -69 1t-66 1q-45 0 -145 -2v26q91 -5 91 67v507q0 25 -6 40.5t-20.5 21.5t-27 8t-37.5 2v26q110 -2 152 -2q14 0 56 1t78 1q67 0 115 -17t72 -45.5t34 -56.5t10 -58q0 -61 -40.5 -107t-101.5 -64
q27 -39 60 -88.5t50 -75.5t37 -53t35 -44q28 -32 53 -47.5t60 -15.5v-26q-12 0 -37 1t-38 1q-29 0 -85 -2q-26 29 -50.5 60t-50 68.5t-42 63t-46 72.5t-41.5 66zM449 515q0 69 -40 110t-124 41q-24 0 -60 -6v-293q25 -5 53 -5q85 0 128 46t43 107zM320 740h-56l-122 166h33
l117 -106l117 106h33z" />
    <glyph glyph-name="rcaron" unicode="&#x159;" horiz-adv-x="389" 
d="M24 0v26h27q18 0 26 1t15 8.5t7 23.5v281q0 11 -6.5 19t-13.5 12t-18 8t-14 6v15q31 13 60.5 28t43.5 22t18 7q9 0 9 -13v-90h2q13 20 23 33.5t27 32t36.5 28t41.5 9.5q21 0 39 -14t18 -39q0 -21 -13.5 -36t-33.5 -15q-15 0 -31.5 12t-34.5 12q-20 0 -46.5 -22t-26.5 -61
v-235q0 -16 7 -23.5t15 -8.5t26 -1h56v-26q-110 2 -140 2q-47 0 -119 -2zM206 547h-56l-122 166h33l117 -106l117 106h33z" />
    <glyph glyph-name="Sacute" unicode="&#x15a;" horiz-adv-x="500" 
d="M66 19l-20 146h23q14 -61 55.5 -104.5t100.5 -43.5t98 37t39 96q0 38 -16.5 66.5t-42.5 47t-57.5 34.5t-63 34.5t-57.5 41t-42.5 59t-16.5 84.5q0 94 59.5 145t154.5 51q22 0 122 -15l16 -128h-23q-8 53 -41.5 82t-87.5 29q-56 0 -88 -36t-32 -92q0 -43 23 -75.5
t57 -50.5t74 -40t74 -43.5t57 -61.5t23 -94q0 -93 -70.5 -148t-164.5 -55q-80 0 -153 34zM220 738h-35l134 133q2 2 7.5 8t8 8t8 6.5t9.5 6.5t9.5 4t10.5 2q13 0 22.5 -10t9.5 -20q0 -24 -17 -34z" />
    <glyph glyph-name="sacute" unicode="&#x15b;" horiz-adv-x="389" 
d="M42 134l18 5q11 -54 42.5 -88t83.5 -34q41 0 61 20.5t20 50.5q0 32 -22.5 54t-54.5 36t-64 30t-54.5 46.5t-22.5 74.5q0 49 39.5 88.5t115.5 39.5q57 0 114 -29l7 -102h-23q-16 99 -109 99q-32 0 -55 -17.5t-23 -48.5q0 -32 24 -54t58 -36t68 -29.5t58 -45.5t24 -73
q0 -55 -44.5 -95.5t-127.5 -40.5q-63 0 -122 34zM146 545h-35l134 133q2 2 7.5 8t8 8t8 6.5t9.5 6.5t9.5 4t10.5 2q13 0 22.5 -10t9.5 -20q0 -24 -17 -34z" />
    <glyph glyph-name="Scircumflex" unicode="&#x15c;" horiz-adv-x="500" 
d="M66 19l-20 146h23q14 -61 55.5 -104.5t100.5 -43.5t98 37t39 96q0 38 -16.5 66.5t-42.5 47t-57.5 34.5t-63 34.5t-57.5 41t-42.5 59t-16.5 84.5q0 94 59.5 145t154.5 51q22 0 122 -15l16 -128h-23q-8 53 -41.5 82t-87.5 29q-56 0 -88 -36t-32 -92q0 -43 23 -75.5
t57 -50.5t74 -40t74 -43.5t57 -61.5t23 -94q0 -93 -70.5 -148t-164.5 -55q-80 0 -153 34zM223 906h56l122 -166h-33l-117 106l-117 -106h-33z" />
    <glyph glyph-name="scircumflex" unicode="&#x15d;" horiz-adv-x="389" 
d="M42 134l18 5q11 -54 42.5 -88t83.5 -34q41 0 61 20.5t20 50.5q0 32 -22.5 54t-54.5 36t-64 30t-54.5 46.5t-22.5 74.5q0 49 39.5 88.5t115.5 39.5q57 0 114 -29l7 -102h-23q-16 99 -109 99q-32 0 -55 -17.5t-23 -48.5q0 -32 24 -54t58 -36t68 -29.5t58 -45.5t24 -73
q0 -55 -44.5 -95.5t-127.5 -40.5q-63 0 -122 34zM165 713h56l122 -166h-33l-117 106l-117 -106h-33z" />
    <glyph glyph-name="Scedilla" unicode="&#x15e;" horiz-adv-x="500" 
d="M66 19l-20 146h23q14 -61 55.5 -104.5t100.5 -43.5t98 37t39 96q0 38 -16.5 66.5t-42.5 47t-57.5 34.5t-63 34.5t-57.5 41t-42.5 59t-16.5 84.5q0 94 59.5 145t154.5 51q22 0 122 -15l16 -128h-23q-8 53 -41.5 82t-87.5 29q-56 0 -88 -36t-32 -92q0 -43 23 -75.5
t57 -50.5t74 -40t74 -43.5t57 -61.5t23 -94q0 -80 -53.5 -132.5t-133.5 -66.5l-25 -53l2 -2q14 9 32 9q32 0 55 -20.5t23 -51.5q0 -43 -34 -63.5t-80 -20.5q-50 0 -88 15l14 30q43 -13 63 -13q23 0 41 11t18 32q0 18 -13 29t-32 11t-36 -6l-14 5l37 84h-11q-80 0 -153 34z
" />
    <glyph glyph-name="scedilla" unicode="&#x15f;" horiz-adv-x="389" 
d="M42 134l18 5q11 -54 42.5 -88t83.5 -34q41 0 61 20.5t20 50.5q0 32 -22.5 54t-54.5 36t-64 30t-54.5 46.5t-22.5 74.5q0 49 39.5 88.5t115.5 39.5q57 0 114 -29l7 -102h-23q-16 99 -109 99q-32 0 -55 -17.5t-23 -48.5q0 -32 24 -54t58 -36t68 -29.5t58 -45.5t24 -73
q0 -49 -36 -87t-103 -47l-24 -51l2 -2q14 9 32 9q32 0 55 -20.5t23 -51.5q0 -43 -34 -63.5t-80 -20.5q-50 0 -88 15l14 30q43 -13 63 -13q23 0 41 11t18 32q0 18 -13 29t-32 11t-36 -6l-14 5l37 84q-61 2 -119 34z" />
    <glyph glyph-name="Scaron" unicode="&#x160;" horiz-adv-x="500" 
d="M66 19l-20 146h23q14 -61 55.5 -104.5t100.5 -43.5t98 37t39 96q0 38 -16.5 66.5t-42.5 47t-57.5 34.5t-63 34.5t-57.5 41t-42.5 59t-16.5 84.5q0 94 59.5 145t154.5 51q22 0 122 -15l16 -128h-23q-8 53 -41.5 82t-87.5 29q-56 0 -88 -36t-32 -92q0 -43 23 -75.5
t57 -50.5t74 -40t74 -43.5t57 -61.5t23 -94q0 -93 -70.5 -148t-164.5 -55q-80 0 -153 34zM278 740h-56l-122 166h33l117 -106l117 106h33z" />
    <glyph glyph-name="scaron" unicode="&#x161;" horiz-adv-x="389" 
d="M42 134l18 5q11 -54 42.5 -88t83.5 -34q41 0 61 20.5t20 50.5q0 32 -22.5 54t-54.5 36t-64 30t-54.5 46.5t-22.5 74.5q0 49 39.5 88.5t115.5 39.5q57 0 114 -29l7 -102h-23q-16 99 -109 99q-32 0 -55 -17.5t-23 -48.5q0 -32 24 -54t58 -36t68 -29.5t58 -45.5t24 -73
q0 -55 -44.5 -95.5t-127.5 -40.5q-63 0 -122 34zM223 547h-56l-122 166h33l117 -106l117 106h33z" />
    <glyph glyph-name="Tcommaaccent" unicode="&#x162;" horiz-adv-x="666" 
d="M650 726l-9 -159h-27q-3 53 -12 66q-15 24 -68 24h-152v-559q0 -25 6 -40.5t20.5 -21.5t27 -8t37.5 -2v-26q-25 0 -69.5 1t-65.5 1q-45 0 -145 -2v26q25 0 37.5 2t27 8t20.5 21.5t6 40.5v559h-131q-23 0 -38.5 -1.5t-27 -8t-17.5 -10.5t-12 -18.5t-8 -21.5t-8 -30h-26
l11 159h20q11 -28 63 -28h454q59 0 65 28h21zM284 -213l-11 19q28 5 49.5 20.5t21.5 34.5q0 24 -35 24q-15 0 -25.5 10t-10.5 25q0 18 15 30t33 12q31 0 47.5 -21.5t16.5 -48.5q0 -41 -28.5 -68t-72.5 -37z" />
    <glyph glyph-name="tcommaaccent" unicode="&#x163;" horiz-adv-x="333" 
d="M165 388v-265q0 -45 19 -64.5t44 -19.5q37 0 70 29l15 -15q-66 -68 -133 -68q-95 0 -95 93v310h-66v16q5 4 16.5 12.5t16 12t14 11.5t14.5 12.5t13.5 12.5t14 15.5t13.5 17.5t16 21.5t16 24.5h12v-102h149v-54h-149zM105 -213l-11 19q28 5 49.5 20.5t21.5 34.5
q0 24 -35 24q-15 0 -25.5 10t-10.5 25q0 18 15 30t33 12q31 0 47.5 -21.5t16.5 -48.5q0 -41 -28.5 -68t-72.5 -37z" />
    <glyph glyph-name="Tcaron" unicode="&#x164;" horiz-adv-x="666" 
d="M650 726l-9 -159h-27q-3 53 -12 66q-15 24 -68 24h-152v-559q0 -25 6 -40.5t20.5 -21.5t27 -8t37.5 -2v-26q-25 0 -69.5 1t-65.5 1q-45 0 -145 -2v26q25 0 37.5 2t27 8t20.5 21.5t6 40.5v559h-131q-23 0 -38.5 -1.5t-27 -8t-17.5 -10.5t-12 -18.5t-8 -21.5t-8 -30h-26
l11 159h20q11 -28 63 -28h454q59 0 65 28h21zM361 740h-56l-122 166h33l117 -106l117 106h33z" />
    <glyph glyph-name="tcaron" unicode="&#x165;" horiz-adv-x="333" 
d="M165 388v-265q0 -45 19 -64.5t44 -19.5q37 0 70 29l15 -15q-66 -68 -133 -68q-95 0 -95 93v310h-66v16q5 4 16.5 12.5t16 12t14 11.5t14.5 12.5t13.5 12.5t14 15.5t13.5 17.5t16 21.5t16 24.5h12v-102h149v-54h-149zM279 539h-20l15 140q2 16 12 27t25 11t25.5 -7.5
t10.5 -20.5q0 -16 -13 -41z" />
    <glyph glyph-name="Tbar" unicode="&#x166;" horiz-adv-x="666" 
d="M494 400h-112v-302q0 -25 6 -40.5t20.5 -21.5t27 -8t37.5 -2v-26q-25 0 -69.5 1t-65.5 1q-45 0 -145 -2v26q25 0 37.5 2t27 8t20.5 21.5t6 40.5v302h-106v41h106v216h-131q-23 0 -38.5 -1.5t-27 -8t-17.5 -10.5t-12 -18.5t-8 -21.5t-8 -30h-26l11 159h20q11 -28 63 -28
h454q59 0 65 28h21l-9 -159h-27q-3 53 -12 66q-15 24 -68 24h-152v-216h112v-41z" />
    <glyph glyph-name="tbar" unicode="&#x167;" horiz-adv-x="333" 
d="M302 258h-137v-135q0 -45 19 -64.5t44 -19.5q37 0 70 29l15 -15q-66 -68 -133 -68q-95 0 -95 93v180h-66v49h66v81h-66v16q5 4 16.5 12.5t16 12t14 11.5t14.5 12.5t13.5 12.5t14 15.5t13.5 17.5t16 21.5t16 24.5h12v-102h149v-54h-149v-81h137v-49z" />
    <glyph glyph-name="Utilde" unicode="&#x168;" horiz-adv-x="722" 
d="M710 698v-26q-56 0 -67.5 -29.5t-11.5 -131.5v-288q0 -107 -67 -172.5t-194 -65.5q-126 0 -195.5 62.5t-71.5 187.5v365q0 25 -6 40.5t-20.5 21.5t-27 8t-37.5 2v26q94 -2 138 -2q42 0 142 2v-26q-25 0 -37.5 -2t-27 -8t-20.5 -21.5t-6 -40.5v-340q0 -234 195 -234
q182 0 182 197v285v54t-3 40t-3.5 29.5t-8 18.5t-10.5 12t-18 6t-22 3t-30 1v26q84 -2 126 -2q17 0 50.5 1t50.5 1zM507 862h27q-8 -44 -30 -74t-61 -30q-27 0 -79 24q-56 23 -74 23q-36 0 -51 -47h-27q11 50 36 77t58 27q28 0 77 -21q59 -23 76 -23q21 0 30.5 10.5
t17.5 33.5z" />
    <glyph glyph-name="utilde" unicode="&#x169;" 
d="M461 424v-369q0 -9 4 -13t9 -5t15 -1q6 0 19.5 0.5t20.5 0.5v-21q-65 -6 -144 -31l-5 3v81q-54 -44 -91.5 -64t-85.5 -20q-45 0 -77.5 30t-32.5 89v256q0 16 -3 25.5t-17 19t-40 11.5v19q20 1 71.5 4t57.5 3q8 0 9.5 -5.5t1.5 -23.5v-258q0 -116 87 -116q48 0 121 61v269
q0 18 -74 38q-7 2 -10 3v18q39 3 76.5 6.5t57 5.5t22.5 2q8 0 8 -18zM397 669h27q-8 -44 -30 -74t-61 -30q-27 0 -79 24q-56 23 -74 23q-36 0 -51 -47h-27q11 50 36 77t58 27q28 0 77 -21q59 -23 76 -23q21 0 30.5 10.5t17.5 33.5z" />
    <glyph glyph-name="Umacron" unicode="&#x16a;" horiz-adv-x="722" 
d="M710 698v-26q-56 0 -67.5 -29.5t-11.5 -131.5v-288q0 -107 -67 -172.5t-194 -65.5q-126 0 -195.5 62.5t-71.5 187.5v365q0 25 -6 40.5t-20.5 21.5t-27 8t-37.5 2v26q94 -2 138 -2q42 0 142 2v-26q-25 0 -37.5 -2t-27 -8t-20.5 -21.5t-6 -40.5v-340q0 -234 195 -234
q182 0 182 197v285v54t-3 40t-3.5 29.5t-8 18.5t-10.5 12t-18 6t-22 3t-30 1v26q84 -2 126 -2q17 0 50.5 1t50.5 1zM506 773h-266v54h266v-54z" />
    <glyph glyph-name="umacron" unicode="&#x16b;" 
d="M461 424v-369q0 -9 4 -13t9 -5t15 -1q6 0 19.5 0.5t20.5 0.5v-21q-65 -6 -144 -31l-5 3v81q-54 -44 -91.5 -64t-85.5 -20q-45 0 -77.5 30t-32.5 89v256q0 16 -3 25.5t-17 19t-40 11.5v19q20 1 71.5 4t57.5 3q8 0 9.5 -5.5t1.5 -23.5v-258q0 -116 87 -116q48 0 121 61v269
q0 18 -74 38q-7 2 -10 3v18q39 3 76.5 6.5t57 5.5t22.5 2q8 0 8 -18zM396 580h-266v54h266v-54z" />
    <glyph glyph-name="Ubreve" unicode="&#x16c;" horiz-adv-x="722" 
d="M710 698v-26q-56 0 -67.5 -29.5t-11.5 -131.5v-288q0 -107 -67 -172.5t-194 -65.5q-126 0 -195.5 62.5t-71.5 187.5v365q0 25 -6 40.5t-20.5 21.5t-27 8t-37.5 2v26q94 -2 138 -2q42 0 142 2v-26q-25 0 -37.5 -2t-27 -8t-20.5 -21.5t-6 -40.5v-340q0 -234 195 -234
q182 0 182 197v285v54t-3 40t-3.5 29.5t-8 18.5t-10.5 12t-18 6t-22 3t-30 1v26q84 -2 126 -2q17 0 50.5 1t50.5 1zM234 891h26q4 -44 36 -72.5t77 -28.5t77 28.5t36 72.5h26q-6 -72 -40 -113.5t-99 -41.5t-99 41.5t-40 113.5z" />
    <glyph glyph-name="ubreve" unicode="&#x16d;" 
d="M461 424v-369q0 -9 4 -13t9 -5t15 -1q6 0 19.5 0.5t20.5 0.5v-21q-65 -6 -144 -31l-5 3v81q-54 -44 -91.5 -64t-85.5 -20q-45 0 -77.5 30t-32.5 89v256q0 16 -3 25.5t-17 19t-40 11.5v19q20 1 71.5 4t57.5 3q8 0 9.5 -5.5t1.5 -23.5v-258q0 -116 87 -116q48 0 121 61v269
q0 18 -74 38q-7 2 -10 3v18q39 3 76.5 6.5t57 5.5t22.5 2q8 0 8 -18zM124 698h26q4 -44 36 -72.5t77 -28.5t77 28.5t36 72.5h26q-6 -72 -40 -113.5t-99 -41.5t-99 41.5t-40 113.5z" />
    <glyph glyph-name="Uring" unicode="&#x16e;" horiz-adv-x="722" 
d="M710 698v-26q-56 0 -67.5 -29.5t-11.5 -131.5v-288q0 -107 -67 -172.5t-194 -65.5q-126 0 -195.5 62.5t-71.5 187.5v365q0 25 -6 40.5t-20.5 21.5t-27 8t-37.5 2v26q94 -2 138 -2q42 0 142 2v-26q-25 0 -37.5 -2t-27 -8t-20.5 -21.5t-6 -40.5v-340q0 -234 195 -234
q182 0 182 197v285v54t-3 40t-3.5 29.5t-8 18.5t-10.5 12t-18 6t-22 3t-30 1v26q84 -2 126 -2q17 0 50.5 1t50.5 1zM276 847q0 39 29 68t68 29t68 -29t29 -68t-29 -68.5t-68 -29.5t-68 29.5t-29 68.5zM308 847q0 -28 18.5 -47t46.5 -19t46.5 19t18.5 47t-18.5 46.5
t-46.5 18.5t-46.5 -18.5t-18.5 -46.5z" />
    <glyph glyph-name="uring" unicode="&#x16f;" 
d="M461 424v-369q0 -9 4 -13t9 -5t15 -1q6 0 19.5 0.5t20.5 0.5v-21q-65 -6 -144 -31l-5 3v81q-54 -44 -91.5 -64t-85.5 -20q-45 0 -77.5 30t-32.5 89v256q0 16 -3 25.5t-17 19t-40 11.5v19q20 1 71.5 4t57.5 3q8 0 9.5 -5.5t1.5 -23.5v-258q0 -116 87 -116q48 0 121 61v269
q0 18 -74 38q-7 2 -10 3v18q39 3 76.5 6.5t57 5.5t22.5 2q8 0 8 -18zM166 616q0 39 29 68t68 29t68 -29t29 -68t-29 -68.5t-68 -29.5t-68 29.5t-29 68.5zM198 616q0 -28 18.5 -47t46.5 -19t46.5 19t18.5 47t-18.5 46.5t-46.5 18.5t-46.5 -18.5t-18.5 -46.5z" />
    <glyph glyph-name="Uhungarumlaut" unicode="&#x170;" horiz-adv-x="722" 
d="M710 698v-26q-56 0 -67.5 -29.5t-11.5 -131.5v-288q0 -107 -67 -172.5t-194 -65.5q-126 0 -195.5 62.5t-71.5 187.5v365q0 25 -6 40.5t-20.5 21.5t-27 8t-37.5 2v26q94 -2 138 -2q42 0 142 2v-26q-25 0 -37.5 -2t-27 -8t-20.5 -21.5t-6 -40.5v-340q0 -234 195 -234
q182 0 182 197v285v54t-3 40t-3.5 29.5t-8 18.5t-10.5 12t-18 6t-22 3t-30 1v26q84 -2 126 -2q17 0 50.5 1t50.5 1zM289 739h-42l144 144q21 23 41 23q35 0 35 -37q0 -19 -29 -37zM474 739h-42l143 144q21 23 41 23q35 0 35 -37q0 -19 -29 -37z" />
    <glyph glyph-name="uhungarumlaut" unicode="&#x171;" 
d="M461 424v-369q0 -9 4 -13t9 -5t15 -1q6 0 19.5 0.5t20.5 0.5v-21q-65 -6 -144 -31l-5 3v81q-54 -44 -91.5 -64t-85.5 -20q-45 0 -77.5 30t-32.5 89v256q0 16 -3 25.5t-17 19t-40 11.5v19q20 1 71.5 4t57.5 3q8 0 9.5 -5.5t1.5 -23.5v-258q0 -116 87 -116q48 0 121 61v269
q0 18 -74 38q-7 2 -10 3v18q39 3 76.5 6.5t57 5.5t22.5 2q8 0 8 -18zM171 546h-42l144 144q21 23 41 23q35 0 35 -37q0 -19 -29 -37zM356 546h-42l143 144q21 23 41 23q35 0 35 -37q0 -19 -29 -37z" />
    <glyph glyph-name="Uogonek" unicode="&#x172;" horiz-adv-x="722" 
d="M710 698v-26q-56 0 -67.5 -29.5t-11.5 -131.5v-288q0 -96 -54 -159.5t-157 -75.5q-64 -58 -64 -110q0 -20 12 -32.5t28 -12.5q35 0 60 34l20 -10q-15 -31 -41 -48t-51 -17q-94 0 -94 82q0 53 81 111h-1q-126 0 -195.5 62.5t-71.5 187.5v365q0 25 -6 40.5t-20.5 21.5
t-27 8t-37.5 2v26q94 -2 138 -2q42 0 142 2v-26q-25 0 -37.5 -2t-27 -8t-20.5 -21.5t-6 -40.5v-340q0 -234 195 -234q182 0 182 197v285v54t-3 40t-3.5 29.5t-8 18.5t-10.5 12t-18 6t-22 3t-30 1v26q84 -2 126 -2q17 0 50.5 1t50.5 1z" />
    <glyph glyph-name="uogonek" unicode="&#x173;" 
d="M461 424v-369q0 -9 4 -13t9 -5t15 -1q6 0 19.5 0.5t20.5 0.5v-21q-38 -5 -93 -17q-76 -65 -76 -121q0 -20 12 -32.5t28 -12.5q35 0 60 34l20 -10q-15 -31 -41 -48t-51 -17q-94 0 -94 82q0 55 86 115v80q-54 -44 -91.5 -64t-85.5 -20q-45 0 -77.5 30t-32.5 89v256
q0 16 -3 25.5t-17 19t-40 11.5v19q20 1 71.5 4t57.5 3q8 0 9.5 -5.5t1.5 -23.5v-258q0 -116 87 -116q48 0 121 61v269q0 18 -74 38q-7 2 -10 3v18q39 3 76.5 6.5t57 5.5t22.5 2q8 0 8 -18z" />
    <glyph glyph-name="Wcircumflex" unicode="&#x174;" horiz-adv-x="1000" 
d="M402 117l101 217l-119 276q-18 41 -33.5 51.5t-61.5 10.5v26q94 -2 139 -2q17 0 52.5 1t51.5 1v-26q-55 0 -55 -25q0 -11 11 -38l65 -167l63 137q18 39 18 61q0 15 -9 22.5t-20 8.5t-38 1v26q74 -2 115 -2q13 0 43 1t44 1v-26q-36 0 -55.5 -15.5t-35.5 -48.5l-102 -214
l120 -277l167 457q18 48 18 65q0 16 -15 24t-60 9v26q74 -2 112 -2q12 0 39.5 1t40.5 1v-26q-22 0 -37 -10t-21 -21.5t-16 -37.5l-239 -618h-26l-135 302l-141 -302h-28l-248 608q-19 47 -37.5 63t-67.5 16v26q88 -2 137 -2q19 0 59 1t59 1v-26q-62 0 -62 -23q0 -18 11 -46z
M495 906h56l122 -166h-33l-117 106l-117 -106h-33z" />
    <glyph glyph-name="wcircumflex" unicode="&#x175;" horiz-adv-x="778" 
d="M232 -15l-142 354q-21 54 -33.5 65.5t-43.5 11.5v26q66 -2 100 -2q18 0 51.5 1t47.5 1v-26q-52 0 -52 -19q0 -10 8 -30l105 -269l85 220q5 12 5 33q0 60 -72 65v26q72 -2 109 -2q16 0 49 1t50 1v-26q-3 0 -10.5 -0.5t-11.5 -1t-10.5 -1.5t-9.5 -2.5l-7 -3.5t-5.5 -6
t-1.5 -9q0 -18 23 -74l83 -220h2q29 72 85 218q16 45 16 71q0 5 -1 8.5t-4 6.5t-6 5t-8 3.5t-8 2.5t-9 1.5t-8.5 0.5t-8.5 0.5t-7 0.5v26q62 -2 94 -2q13 0 39 1t40 1v-26q-31 0 -47 -16.5t-31 -55.5l-141 -353l-36 -6l-123 315l-120 -309zM360 713h56l122 -166h-33
l-117 106l-117 -106h-33z" />
    <glyph glyph-name="Ycircumflex" unicode="&#x176;" horiz-adv-x="722" 
d="M424 356v-258q0 -25 6 -40.5t20.5 -21.5t27 -8t37.5 -2v-26q-100 2 -142 2q-44 0 -138 -2v26q25 0 37.5 2t27 8t20.5 21.5t6 40.5v242l-209 288q-21 29 -33.5 34.5t-59.5 9.5v26q38 -2 139 -2q21 0 61 1t61 1v-26q-56 0 -56 -21q0 -15 33 -62l140 -197l131 179
q2 2 8.5 11t10.5 15t9.5 15t8 16.5t2.5 14.5q0 20 -14 24.5t-57 4.5v26q76 -2 115 -2q13 0 40.5 1t41.5 1v-26q-20 0 -36 -10t-24 -19t-23 -29zM344 906h56l122 -166h-33l-117 106l-117 -106h-33z" />
    <glyph glyph-name="ycircumflex" unicode="&#x177;" horiz-adv-x="500" 
d="M17 416v26q78 -2 116 -2q15 0 45 1t45 1v-26q-2 0 -10.5 -1t-12.5 -1.5t-11.5 -2t-11 -4t-6.5 -7.5t-3 -11q0 -16 48.5 -135t52.5 -134h2q7 21 33.5 82t46 110.5t19.5 61.5q0 19 -10 29t-19.5 11.5t-26.5 1.5v26q62 -2 94 -2q25 0 75 2v-26q-32 1 -47.5 -14t-31.5 -50
l-226 -530q-21 -50 -64 -50q-22 0 -35.5 14t-13.5 34q0 19 14 34.5t34 15.5q25 0 41 -15q22 46 39.5 86.5t24.5 57.5l6 17q0 1 -33.5 86.5t-69.5 176t-41 100.5q-23 41 -63 37zM229 713h56l122 -166h-33l-117 106l-117 -106h-33z" />
    <glyph glyph-name="Ydieresis" unicode="&#x178;" horiz-adv-x="722" 
d="M424 356v-258q0 -25 6 -40.5t20.5 -21.5t27 -8t37.5 -2v-26q-100 2 -142 2q-44 0 -138 -2v26q25 0 37.5 2t27 8t20.5 21.5t6 40.5v242l-209 288q-21 29 -33.5 34.5t-59.5 9.5v26q38 -2 139 -2q21 0 61 1t61 1v-26q-56 0 -56 -21q0 -15 33 -62l140 -197l131 179
q2 2 8.5 11t10.5 15t9.5 15t8 16.5t2.5 14.5q0 20 -14 24.5t-57 4.5v26q76 -2 115 -2q13 0 40.5 1t41.5 1v-26q-20 0 -36 -10t-24 -19t-23 -29zM320 803q0 -18 -14 -31.5t-32 -13.5q-19 0 -32.5 13.5t-13.5 31.5t13.5 32t32.5 14q18 0 32 -14t14 -32zM514 803
q0 -18 -14 -31.5t-32 -13.5t-32 13.5t-14 31.5t14 32t32 14t32 -14t14 -32z" />
    <glyph glyph-name="Zacute" unicode="&#x179;" horiz-adv-x="722" 
d="M699 170l-46 -170q-55 0 -164.5 1t-151.5 1q-52 0 -157 -1t-157 -1l502 657h-324q-32 0 -55 -8.5t-36 -26t-19.5 -32.5t-13.5 -38h-24q2 9 10.5 46.5t14 67t5.5 47.5h26q1 -8 11 -12q8 -3 15 -3h536l-500 -657h292q103 0 142 26.5t72 108.5zM322 738h-35l134 133
q2 2 7.5 8t8 8t8 6.5t9.5 6.5t9.5 4t10.5 2q13 0 22.5 -10t9.5 -20q0 -24 -17 -34z" />
    <glyph glyph-name="zacute" unicode="&#x17a;" horiz-adv-x="444" 
d="M138 32h145q41 1 57.5 16.5t55.5 82.5l21 -5l-28 -126h-367v8l267 402h-115q-31 0 -45.5 -2.5t-32 -19.5t-27.5 -52h-24l13 127h20q0 -15 12.5 -18t54.5 -3h258zM190 545h-35l134 133q2 2 7.5 8t8 8t8 6.5t9.5 6.5t9.5 4t10.5 2q13 0 22.5 -10t9.5 -20q0 -24 -17 -34z
" />
    <glyph glyph-name="Zdotaccent" unicode="&#x17b;" horiz-adv-x="722" 
d="M699 170l-46 -170q-55 0 -164.5 1t-151.5 1q-52 0 -157 -1t-157 -1l502 657h-324q-32 0 -55 -8.5t-36 -26t-19.5 -32.5t-13.5 -38h-24q2 9 10.5 46.5t14 67t5.5 47.5h26q1 -8 11 -12q8 -3 15 -3h536l-500 -657h292q103 0 142 26.5t72 108.5zM411 803q0 -18 -14 -31.5
t-32 -13.5q-19 0 -32.5 13.5t-13.5 31.5t13.5 32t32.5 14q18 0 32 -14t14 -32z" />
    <glyph glyph-name="zdotaccent" unicode="&#x17c;" horiz-adv-x="444" 
d="M138 32h145q41 1 57.5 16.5t55.5 82.5l21 -5l-28 -126h-367v8l267 402h-115q-31 0 -45.5 -2.5t-32 -19.5t-27.5 -52h-24l13 127h20q0 -15 12.5 -18t54.5 -3h258zM272 610q0 -18 -14 -31.5t-32 -13.5q-19 0 -32.5 13.5t-13.5 31.5t13.5 32t32.5 14q18 0 32 -14t14 -32z
" />
    <glyph glyph-name="Zcaron" unicode="&#x17d;" horiz-adv-x="722" 
d="M699 170l-46 -170q-55 0 -164.5 1t-151.5 1q-52 0 -157 -1t-157 -1l502 657h-324q-32 0 -55 -8.5t-36 -26t-19.5 -32.5t-13.5 -38h-24q2 9 10.5 46.5t14 67t5.5 47.5h26q1 -8 11 -12q8 -3 15 -3h536l-500 -657h292q103 0 142 26.5t72 108.5zM389 740h-56l-122 166h33
l117 -106l117 106h33z" />
    <glyph glyph-name="zcaron" unicode="&#x17e;" horiz-adv-x="444" 
d="M138 32h145q41 1 57.5 16.5t55.5 82.5l21 -5l-28 -126h-367v8l267 402h-115q-31 0 -45.5 -2.5t-32 -19.5t-27.5 -52h-24l13 127h20q0 -15 12.5 -18t54.5 -3h258zM250 547h-56l-122 166h33l117 -106l117 106h33z" />
    <glyph glyph-name="florin" unicode="&#x192;" 
d="M456 449l-4 -32h-121q-10 -43 -29 -132.5t-31.5 -144t-35 -128.5t-49.5 -134q-21 -47 -52.5 -76.5t-68.5 -29.5q-23 0 -40 18.5t-17 43.5q0 18 8.5 30.5t25.5 12.5q32 0 32 -28q0 -6 -4 -16t-4 -14q0 -15 13 -15q18 0 31.5 16.5t33 80t41.5 181.5l62 335h-97l5 32h98
q51 264 205 264q38 0 64 -14.5t26 -46.5q0 -22 -11.5 -35.5t-33.5 -13.5q-13 0 -24 9.5t-9 20.5q0 1 2 17t2 20q0 17 -30 17q-22 0 -39 -18.5t-28 -50t-18 -60.5t-13.5 -63.5t-9.5 -45.5h120z" />
    <glyph glyph-name="Aringacute" unicode="&#x1fa;" horiz-adv-x="721" 
d="M264 732q0 36 29 62.5t68 26.5t68 -26.5t29 -62.5q0 -53 -53 -80l164 -453q48 -134 57 -146q20 -27 77 -27v-26q-19 0 -57.5 1t-57.5 1q-48 0 -146 -2v26h18q55 0 55 33q0 17 -15 58l-50 145h-235l-22 -70q-27 -87 -27 -119q0 -20 9 -30.5t21 -13t31 -3.5h7h23v-26
q-19 0 -59 1t-59 1q-41 0 -121 -2v26q46 5 62 17t35 54q8 18 41 112l158 444q-50 27 -50 79zM326 597l-97 -294h206l-107 294h-2zM296 732q0 -26 18.5 -43.5t46.5 -17.5t46.5 17.5t18.5 43.5t-18.5 43t-46.5 17t-46.5 -17t-18.5 -43zM321 843h-40l82 68q2 2 7.5 6.5t8 6.5
l7.5 6t9 6t9 4t10 3t10 1q14 0 25 -9t11 -19q0 -23 -19 -32z" />
    <glyph glyph-name="aringacute" unicode="&#x1fb;" horiz-adv-x="500" 
d="M456 56l9 -17q-58 -54 -99 -54q-29 0 -44.5 22t-17.5 52q-81 -74 -154 -74q-47 0 -77.5 28t-30.5 69q1 21 4.5 35t18 28.5t27.5 23t49.5 23.5t66.5 26t95 33v66q0 86 -97 86q-34 0 -54.5 -18.5t-21.5 -51.5q0 -19 -17.5 -30.5t-38.5 -11.5q-18 0 -18 20q0 36 26.5 59
t88.5 55q6 3 18.5 10t18 9.5t15 6t18.5 5t20 1.5q40 0 81 -23t41 -61v-277q0 -57 36 -57q23 0 37 17zM303 90v132q-10 -4 -38 -12.5t-49 -16.5t-44.5 -20.5t-36.5 -30t-13 -38.5q0 -29 21 -50.5t50 -21.5q22 0 44 10t31.5 18t34.5 30zM217 745h-40l82 68q2 2 7.5 6.5t8 6.5
l7.5 6t9 6t9 4t10 3t10 1q14 0 25 -9t11 -19q0 -23 -19 -32zM153 606q0 39 29 68t68 29t68 -29t29 -68t-29 -68.5t-68 -29.5t-68 29.5t-29 68.5zM185 606q0 -28 18.5 -47t46.5 -19t46.5 19t18.5 47t-18.5 46.5t-46.5 18.5t-46.5 -18.5t-18.5 -46.5z" />
    <glyph glyph-name="AEacute" unicode="&#x1fc;" horiz-adv-x="1000" 
d="M590 666v-284h172q44 0 53 34q2 12 4 54h20q0 -13 -1.5 -47t-1.5 -58q0 -13 1.5 -50t1.5 -56h-21q0 3 -1 12.5t-1.5 13.5t-2 12t-3.5 12t-5.5 10t-9 9t-12.5 6.5t-16.5 5t-21.5 1.5h-155v-204q0 -66 18.5 -85t90.5 -20h71q67 0 98 20t73 98l22 -6q-30 -129 -32 -144
q-57 0 -153 1t-128 1q-49 0 -134.5 -1t-118.5 -1v26h14q46 0 63.5 18.5t17.5 55.5v241h-186l-110 -203q-36 -64 -36 -88q0 -13 18 -17.5t55 -6.5v-26q-19 0 -56.5 1t-56.5 1q-34 0 -102 -2v26q45 1 69.5 22.5t50.5 69.5l242 445q2 3 10.5 18t13.5 24t10 22t5 21q0 24 -79 24
v26q27 0 132.5 -0.5t127.5 -1.5q50 0 150 1t152 1l8 -149h-24q-16 76 -45 96.5t-115 20.5h-136zM492 382v281h-9l-155 -281h164zM535 738h-35l134 133q2 2 7.5 8t8 8t8 6.5t9.5 6.5t9.5 4t10.5 2q13 0 22.5 -10t9.5 -20q0 -24 -17 -34z" />
    <glyph glyph-name="aeacute" unicode="&#x1fd;" horiz-adv-x="722" 
d="M672 126l14 -16q-94 -124 -201 -125q-103 2 -147 94q-36 -32 -57 -47.5t-56.5 -31t-71.5 -15.5q-47 0 -79 28t-32 74q0 42 25 61t85 37l165 49v68q0 101 -93 101q-44 0 -70 -37q-5 -6 -10.5 -36.5t-19.5 -35.5q-3 -1 -20.5 -7t-27.5 -6q-6 0 -11.5 6t-5.5 12q0 14 2.5 26
t9.5 21.5t12 16t17 14t17.5 10.5t20.5 10.5l19 9.5q12 6 34.5 20.5t41.5 22t40 7.5q41 0 73 -19t43 -55q50 74 153 74q57 0 100.5 -30t43.5 -84q0 -17 -9.5 -24.5t-49.5 -19.5l-236 -71v-20q0 -71 34.5 -110.5t104.5 -38.5q76 1 142 67zM317 170v35l-133 -41
q-17 -5 -25.5 -9.5t-16.5 -16.5t-8 -32q0 -36 20.5 -55t44.5 -19q15 0 33 6t38 20t33.5 43t13.5 69zM391 258l142 45q36 11 48.5 21t12.5 27q0 32 -24 53t-50 21q-61 0 -95 -50t-34 -117zM319 545h-35l134 133q2 2 7.5 8t8 8t8 6.5t9.5 6.5t9.5 4t10.5 2q13 0 22.5 -10
t9.5 -20q0 -24 -17 -34z" />
    <glyph glyph-name="Oslashacute" unicode="&#x1fe;" horiz-adv-x="833" 
d="M37 -2l112 110q-91 102 -91 237q0 93 43.5 176.5t127.5 137.5t189 54q142 0 244 -99l106 104l28 -28l-107 -105q86 -102 86 -232q0 -93 -43.5 -176.5t-127.5 -137.5t-189 -54q-138 0 -239 95l-111 -110zM215 174l387 381q-74 126 -196 126q-108 0 -173 -85t-65 -222
q0 -107 47 -200zM621 518l-386 -380q73 -121 192 -121q108 0 173 85t65 222q0 100 -44 194zM382 738h-35l134 133q2 2 7.5 8t8 8t8 6.5t9.5 6.5t9.5 4t10.5 2q13 0 22.5 -10t9.5 -20q0 -24 -17 -34z" />
    <glyph glyph-name="oslashacute" unicode="&#x1ff;" 
d="M511 463l26 -20l-74 -70q51 -62 51 -150q0 -97 -67.5 -167.5t-162.5 -70.5q-98 0 -165 59l-77 -74l-23 23l78 74q-55 63 -55 152q0 99 65 168.5t164 69.5q104 0 170 -61zM154 122l235 224q-40 85 -117 85q-46 0 -79 -33.5t-46 -77.5t-13 -91q0 -56 20 -107zM403 316
l-234 -224q41 -81 114 -81q47 0 80 33.5t46 77.5t13 91q0 49 -19 103zM231 545h-35l134 133q2 2 7.5 8t8 8t8 6.5t9.5 6.5t9.5 4t10.5 2q13 0 22.5 -10t9.5 -20q0 -24 -17 -34z" />
    <glyph glyph-name="Scommaaccent" unicode="&#x218;" horiz-adv-x="500" 
d="M66 19l-20 146h23q14 -61 55.5 -104.5t100.5 -43.5t98 37t39 96q0 38 -16.5 66.5t-42.5 47t-57.5 34.5t-63 34.5t-57.5 41t-42.5 59t-16.5 84.5q0 94 59.5 145t154.5 51q22 0 122 -15l16 -128h-23q-8 53 -41.5 82t-87.5 29q-56 0 -88 -36t-32 -92q0 -43 23 -75.5
t57 -50.5t74 -40t74 -43.5t57 -61.5t23 -94q0 -93 -70.5 -148t-164.5 -55q-80 0 -153 34zM203 -213l-11 19q28 5 49.5 20.5t21.5 34.5q0 24 -35 24q-15 0 -25.5 10t-10.5 25q0 18 15 30t33 12q31 0 47.5 -21.5t16.5 -48.5q0 -41 -28.5 -68t-72.5 -37z" />
    <glyph glyph-name="scommaaccent" unicode="&#x219;" horiz-adv-x="389" 
d="M42 134l18 5q11 -54 42.5 -88t83.5 -34q41 0 61 20.5t20 50.5q0 32 -22.5 54t-54.5 36t-64 30t-54.5 46.5t-22.5 74.5q0 49 39.5 88.5t115.5 39.5q57 0 114 -29l7 -102h-23q-16 99 -109 99q-32 0 -55 -17.5t-23 -48.5q0 -32 24 -54t58 -36t68 -29.5t58 -45.5t24 -73
q0 -55 -44.5 -95.5t-127.5 -40.5q-63 0 -122 34zM145 -213l-11 19q28 5 49.5 20.5t21.5 34.5q0 24 -35 24q-15 0 -25.5 10t-10.5 25q0 18 15 30t33 12q31 0 47.5 -21.5t16.5 -48.5q0 -41 -28.5 -68t-72.5 -37z" />
    <glyph glyph-name="uni021A" unicode="&#x21a;" horiz-adv-x="666" 
d="M650 726l-9 -159h-27q-3 53 -12 66q-15 24 -68 24h-152v-559q0 -25 6 -40.5t20.5 -21.5t27 -8t37.5 -2v-26q-25 0 -69.5 1t-65.5 1q-45 0 -145 -2v26q25 0 37.5 2t27 8t20.5 21.5t6 40.5v559h-131q-23 0 -38.5 -1.5t-27 -8t-17.5 -10.5t-12 -18.5t-8 -21.5t-8 -30h-26
l11 159h20q11 -28 63 -28h454q59 0 65 28h21zM284 -213l-11 19q28 5 49.5 20.5t21.5 34.5q0 24 -35 24q-15 0 -25.5 10t-10.5 25q0 18 15 30t33 12q31 0 47.5 -21.5t16.5 -48.5q0 -41 -28.5 -68t-72.5 -37z" />
    <glyph glyph-name="uni021B" unicode="&#x21b;" horiz-adv-x="333" 
d="M165 388v-265q0 -45 19 -64.5t44 -19.5q37 0 70 29l15 -15q-66 -68 -133 -68q-95 0 -95 93v310h-66v16q5 4 16.5 12.5t16 12t14 11.5t14.5 12.5t13.5 12.5t14 15.5t13.5 17.5t16 21.5t16 24.5h12v-102h149v-54h-149zM105 -213l-11 19q28 5 49.5 20.5t21.5 34.5
q0 24 -35 24q-15 0 -25.5 10t-10.5 25q0 18 15 30t33 12q31 0 47.5 -21.5t16.5 -48.5q0 -41 -28.5 -68t-72.5 -37z" />
    <glyph glyph-name="dotlessj" unicode="&#x237;" horiz-adv-x="278" 
d="M179 443v-481q0 -36 -8 -63.5t-19 -44.5t-35 -33.5t-41.5 -25t-53.5 -23.5l-7 23q30 15 48 29.5t25.5 36t9 38.5t1.5 53v378q0 31 -12 42.5t-54 27.5v16q90 17 121 36q9 5 18 5q7 0 7 -14z" />
    <glyph glyph-name="circumflex" unicode="&#x2c6;" horiz-adv-x="278" 
d="M111 713h56l122 -166h-33l-117 106l-117 -106h-33z" />
    <glyph glyph-name="caron" unicode="&#x2c7;" horiz-adv-x="278" 
d="M167 547h-56l-122 166h33l117 -106l117 106h33z" />
    <glyph glyph-name="uni02C9" unicode="&#x2c9;" horiz-adv-x="278" 
d="M272 580h-266v54h266v-54z" />
    <glyph glyph-name="breve" unicode="&#x2d8;" horiz-adv-x="278" 
d="M0 698h26q4 -44 36 -72.5t77 -28.5t77 28.5t36 72.5h26q-6 -72 -40 -113.5t-99 -41.5t-99 41.5t-40 113.5z" />
    <glyph glyph-name="dotaccent" unicode="&#x2d9;" horiz-adv-x="278" 
d="M185 610q0 -18 -14 -31.5t-32 -13.5q-19 0 -32.5 13.5t-13.5 31.5t13.5 32t32.5 14q18 0 32 -14t14 -32z" />
    <glyph glyph-name="ring" unicode="&#x2da;" horiz-adv-x="278" 
d="M42 616q0 39 29 68t68 29t68 -29t29 -68t-29 -68.5t-68 -29.5t-68 29.5t-29 68.5zM74 616q0 -28 18.5 -47t46.5 -19t46.5 19t18.5 47t-18.5 46.5t-46.5 18.5t-46.5 -18.5t-18.5 -46.5z" />
    <glyph glyph-name="ogonek" unicode="&#x2db;" horiz-adv-x="278" 
d="M158 5h38q-49 -41 -66.5 -70t-17.5 -57q0 -20 12 -32.5t28 -12.5q35 0 60 34l20 -10q-15 -31 -41 -48t-51 -17q-94 0 -94 82q0 64 112 131z" />
    <glyph glyph-name="tilde" unicode="&#x2dc;" horiz-adv-x="278" 
d="M273 669h27q-8 -44 -30 -74t-61 -30q-27 0 -79 24q-56 23 -74 23q-36 0 -51 -47h-27q11 50 36 77t58 27q28 0 77 -21q59 -23 76 -23q21 0 30.5 10.5t17.5 33.5z" />
    <glyph glyph-name="hungarumlaut" unicode="&#x2dd;" horiz-adv-x="278" 
d="M-61 546h-42l144 144q21 23 41 23q35 0 35 -37q0 -19 -29 -37zM124 546h-42l143 144q21 23 41 23q35 0 35 -37q0 -19 -29 -37z" />
    <glyph glyph-name="uni0394" unicode="&#x394;" horiz-adv-x="612" 
d="M326 688l282 -688h-602zM290 517l-218 -468h412z" />
    <glyph glyph-name="uni03A9" unicode="&#x3a9;" horiz-adv-x="768" 
d="M313 152l16 -152h-295v162h15q9 -37 22 -49t44 -12h158l-2 28q-61 18 -99.5 42t-67.5 67q-33 49 -44 105t-2.5 103t30.5 87q7 13 15.5 25t15.5 20.5t16 17.5t14.5 14t15 11.5t13.5 8.5t13.5 7.5t10.5 6.5q75 44 183 44t183 -44q1 -1 10.5 -6.5t13.5 -7.5t13.5 -8.5
t15 -11.5t14.5 -14t16 -17.5t15.5 -20.5t15.5 -25q22 -40 30.5 -87t-2.5 -103t-44 -105q-29 -43 -67.5 -67t-99.5 -42l-2 -28h158q31 0 44 12t22 49h15v-162h-295l16 152q2 1 14 6t17 7.5t16 9t18.5 13.5t17.5 18t18.5 26t16.5 34q18 41 23.5 100.5t-11 128t-57.5 109.5
q-52 52 -145 52t-145 -52q-41 -41 -57.5 -109.5t-11 -128t23.5 -100.5q8 -19 16.5 -34t18.5 -26t17.5 -18t18.5 -13.5t16 -9t17 -7.5t14 -6z" />
    <glyph glyph-name="uni03BC" unicode="&#x3bc;" 
d="M461 424v-369q0 -9 4 -13t9 -5t15 -1q6 0 19.5 0.5t20.5 0.5v-21q-65 -6 -144 -31l-5 3v81q-54 -44 -91.5 -64t-85.5 -20q-32 0 -54 21q0 -42 7.5 -102t6.5 -80q-2 -52 -46 -52q-40 0 -40 52q0 16 8 114.5t8 166.5v255q0 16 -3 25.5t-17 19t-40 11.5v19q20 1 71.5 4
t57.5 3q8 0 9.5 -5.5t1.5 -23.5v-258q0 -116 87 -116q48 0 121 61v269q0 18 -74 38q-7 2 -10 3v18q39 3 76.5 6.5t57 5.5t22.5 2q8 0 8 -18z" />
    <glyph glyph-name="pi" unicode="&#x3c0;" horiz-adv-x="549" 
d="M335 401h-113q-20 -234 -46 -351q-12 -57 -55 -68q-20 -5 -39 7.5t-23 30.5q-3 7 -1.5 15.5t1.5 13t4 11.5t6 9.5t6.5 8.5t6.5 8q3 4 13.5 16t16.5 19.5t12 21.5t8 29l29 229h-47q-20 0 -38.5 -9.5t-27.5 -22.5l-21 -31h-17q24 68 45 97q37 52 94 52h373v-86h-126
q-12 -117 -12 -235q0 -50 25 -73q36 -33 74 -4q9 7 14.5 16.5t7 15.5t3 17t1.5 13h21q-1 -61 -23.5 -100.5t-48.5 -53.5q-18 -11 -39.5 -13t-44.5 11q-32 24 -49 74q-18 55 -7 171z" />
    <glyph glyph-name="Wgrave" unicode="&#x1e80;" horiz-adv-x="1000" 
d="M402 117l101 217l-119 276q-18 41 -33.5 51.5t-61.5 10.5v26q94 -2 139 -2q17 0 52.5 1t51.5 1v-26q-55 0 -55 -25q0 -11 11 -38l65 -167l63 137q18 39 18 61q0 15 -9 22.5t-20 8.5t-38 1v26q74 -2 115 -2q13 0 43 1t44 1v-26q-36 0 -55.5 -15.5t-35.5 -48.5l-102 -214
l120 -277l167 457q18 48 18 65q0 16 -15 24t-60 9v26q74 -2 112 -2q12 0 39.5 1t40.5 1v-26q-22 0 -37 -10t-21 -21.5t-16 -37.5l-239 -618h-26l-135 302l-141 -302h-28l-248 608q-19 47 -37.5 63t-67.5 16v26q88 -2 137 -2q19 0 59 1t59 1v-26q-62 0 -62 -23q0 -18 11 -46z
M630 738h-35l-167 104q-17 10 -17 34q0 10 9.5 20t22.5 10q5 0 10.5 -2t9.5 -4t9.5 -6.5t8 -6.5t8 -8t7.5 -8z" />
    <glyph glyph-name="wgrave" unicode="&#x1e81;" horiz-adv-x="778" 
d="M232 -15l-142 354q-21 54 -33.5 65.5t-43.5 11.5v26q66 -2 100 -2q18 0 51.5 1t47.5 1v-26q-52 0 -52 -19q0 -10 8 -30l105 -269l85 220q5 12 5 33q0 60 -72 65v26q72 -2 109 -2q16 0 49 1t50 1v-26q-3 0 -10.5 -0.5t-11.5 -1t-10.5 -1.5t-9.5 -2.5l-7 -3.5t-5.5 -6
t-1.5 -9q0 -18 23 -74l83 -220h2q29 72 85 218q16 45 16 71q0 5 -1 8.5t-4 6.5t-6 5t-8 3.5t-8 2.5t-9 1.5t-8.5 0.5t-8.5 0.5t-7 0.5v26q62 -2 94 -2q13 0 39 1t40 1v-26q-31 0 -47 -16.5t-31 -55.5l-141 -353l-36 -6l-123 315l-120 -309zM471 545h-35l-167 104
q-17 10 -17 34q0 10 9.5 20t22.5 10q5 0 10.5 -2t9.5 -4t9.5 -6.5t8 -6.5t8 -8t7.5 -8z" />
    <glyph glyph-name="Wacute" unicode="&#x1e82;" horiz-adv-x="1000" 
d="M402 117l101 217l-119 276q-18 41 -33.5 51.5t-61.5 10.5v26q94 -2 139 -2q17 0 52.5 1t51.5 1v-26q-55 0 -55 -25q0 -11 11 -38l65 -167l63 137q18 39 18 61q0 15 -9 22.5t-20 8.5t-38 1v26q74 -2 115 -2q13 0 43 1t44 1v-26q-36 0 -55.5 -15.5t-35.5 -48.5l-102 -214
l120 -277l167 457q18 48 18 65q0 16 -15 24t-60 9v26q74 -2 112 -2q12 0 39.5 1t40.5 1v-26q-22 0 -37 -10t-21 -21.5t-16 -37.5l-239 -618h-26l-135 302l-141 -302h-28l-248 608q-19 47 -37.5 63t-67.5 16v26q88 -2 137 -2q19 0 59 1t59 1v-26q-62 0 -62 -23q0 -18 11 -46z
M507 738h-35l134 133q2 2 7.5 8t8 8t8 6.5t9.5 6.5t9.5 4t10.5 2q13 0 22.5 -10t9.5 -20q0 -24 -17 -34z" />
    <glyph glyph-name="wacute" unicode="&#x1e83;" horiz-adv-x="778" 
d="M232 -15l-142 354q-21 54 -33.5 65.5t-43.5 11.5v26q66 -2 100 -2q18 0 51.5 1t47.5 1v-26q-52 0 -52 -19q0 -10 8 -30l105 -269l85 220q5 12 5 33q0 60 -72 65v26q72 -2 109 -2q16 0 49 1t50 1v-26q-3 0 -10.5 -0.5t-11.5 -1t-10.5 -1.5t-9.5 -2.5l-7 -3.5t-5.5 -6
t-1.5 -9q0 -18 23 -74l83 -220h2q29 72 85 218q16 45 16 71q0 5 -1 8.5t-4 6.5t-6 5t-8 3.5t-8 2.5t-9 1.5t-8.5 0.5t-8.5 0.5t-7 0.5v26q62 -2 94 -2q13 0 39 1t40 1v-26q-31 0 -47 -16.5t-31 -55.5l-141 -353l-36 -6l-123 315l-120 -309zM339 545h-35l134 133q2 2 7.5 8
t8 8t8 6.5t9.5 6.5t9.5 4t10.5 2q13 0 22.5 -10t9.5 -20q0 -24 -17 -34z" />
    <glyph glyph-name="Wdieresis" unicode="&#x1e84;" horiz-adv-x="1000" 
d="M402 117l101 217l-119 276q-18 41 -33.5 51.5t-61.5 10.5v26q94 -2 139 -2q17 0 52.5 1t51.5 1v-26q-55 0 -55 -25q0 -11 11 -38l65 -167l63 137q18 39 18 61q0 15 -9 22.5t-20 8.5t-38 1v26q74 -2 115 -2q13 0 43 1t44 1v-26q-36 0 -55.5 -15.5t-35.5 -48.5l-102 -214
l120 -277l167 457q18 48 18 65q0 16 -15 24t-60 9v26q74 -2 112 -2q12 0 39.5 1t40.5 1v-26q-22 0 -37 -10t-21 -21.5t-16 -37.5l-239 -618h-26l-135 302l-141 -302h-28l-248 608q-19 47 -37.5 63t-67.5 16v26q88 -2 137 -2q19 0 59 1t59 1v-26q-62 0 -62 -23q0 -18 11 -46z
M498 803q0 -18 -14 -31.5t-32 -13.5q-19 0 -32.5 13.5t-13.5 31.5t13.5 32t32.5 14q18 0 32 -14t14 -32zM692 803q0 -18 -14 -31.5t-32 -13.5t-32 13.5t-14 31.5t14 32t32 14t32 -14t14 -32z" />
    <glyph glyph-name="wdieresis" unicode="&#x1e85;" horiz-adv-x="778" 
d="M232 -15l-142 354q-21 54 -33.5 65.5t-43.5 11.5v26q66 -2 100 -2q18 0 51.5 1t47.5 1v-26q-52 0 -52 -19q0 -10 8 -30l105 -269l85 220q5 12 5 33q0 60 -72 65v26q72 -2 109 -2q16 0 49 1t50 1v-26q-3 0 -10.5 -0.5t-11.5 -1t-10.5 -1.5t-9.5 -2.5l-7 -3.5t-5.5 -6
t-1.5 -9q0 -18 23 -74l83 -220h2q29 72 85 218q16 45 16 71q0 5 -1 8.5t-4 6.5t-6 5t-8 3.5t-8 2.5t-9 1.5t-8.5 0.5t-8.5 0.5t-7 0.5v26q62 -2 94 -2q13 0 39 1t40 1v-26q-31 0 -47 -16.5t-31 -55.5l-141 -353l-36 -6l-123 315l-120 -309zM340 610q0 -18 -14 -31.5
t-32 -13.5q-19 0 -32.5 13.5t-13.5 31.5t13.5 32t32.5 14q18 0 32 -14t14 -32zM534 610q0 -18 -14 -31.5t-32 -13.5t-32 13.5t-14 31.5t14 32t32 14t32 -14t14 -32z" />
    <glyph glyph-name="Ygrave" unicode="&#x1ef2;" horiz-adv-x="722" 
d="M424 356v-258q0 -25 6 -40.5t20.5 -21.5t27 -8t37.5 -2v-26q-100 2 -142 2q-44 0 -138 -2v26q25 0 37.5 2t27 8t20.5 21.5t6 40.5v242l-209 288q-21 29 -33.5 34.5t-59.5 9.5v26q38 -2 139 -2q21 0 61 1t61 1v-26q-56 0 -56 -21q0 -15 33 -62l140 -197l131 179
q2 2 8.5 11t10.5 15t9.5 15t8 16.5t2.5 14.5q0 20 -14 24.5t-57 4.5v26q76 -2 115 -2q13 0 40.5 1t41.5 1v-26q-20 0 -36 -10t-24 -19t-23 -29zM472 738h-35l-167 104q-17 10 -17 34q0 10 9.5 20t22.5 10q5 0 10.5 -2t9.5 -4t9.5 -6.5t8 -6.5t8 -8t7.5 -8z" />
    <glyph glyph-name="ygrave" unicode="&#x1ef3;" horiz-adv-x="500" 
d="M17 416v26q78 -2 116 -2q15 0 45 1t45 1v-26q-2 0 -10.5 -1t-12.5 -1.5t-11.5 -2t-11 -4t-6.5 -7.5t-3 -11q0 -16 48.5 -135t52.5 -134h2q7 21 33.5 82t46 110.5t19.5 61.5q0 19 -10 29t-19.5 11.5t-26.5 1.5v26q62 -2 94 -2q25 0 75 2v-26q-32 1 -47.5 -14t-31.5 -50
l-226 -530q-21 -50 -64 -50q-22 0 -35.5 14t-13.5 34q0 19 14 34.5t34 15.5q25 0 41 -15q22 46 39.5 86.5t24.5 57.5l6 17q0 1 -33.5 86.5t-69.5 176t-41 100.5q-23 41 -63 37zM347 545h-35l-167 104q-17 10 -17 34q0 10 9.5 20t22.5 10q5 0 10.5 -2t9.5 -4t9.5 -6.5t8 -6.5
t8 -8t7.5 -8z" />
    <glyph glyph-name="endash" unicode="&#x2013;" horiz-adv-x="500" 
d="M0 211v66h500v-66h-500z" />
    <glyph glyph-name="emdash" unicode="&#x2014;" horiz-adv-x="1000" 
d="M0 211v66h1000v-66h-1000z" />
    <glyph glyph-name="quoteleft" unicode="&#x2018;" horiz-adv-x="278" 
d="M201 698l10 -24q-96 -31 -96 -98q0 -27 13 -34.5t37 -7.5t37.5 -10.5t13.5 -41.5q0 -26 -17 -39t-44 -13q-44 0 -68.5 32.5t-24.5 77.5q0 60 38.5 100t100.5 58z" />
    <glyph glyph-name="quoteright" unicode="&#x2019;" horiz-adv-x="278" 
d="M77 430l-10 24q96 31 96 98q0 27 -13 34.5t-37 7.5t-37.5 10.5t-13.5 41.5q0 26 17 39t44 13q44 0 68.5 -32.5t24.5 -77.5q0 -60 -38.5 -100t-100.5 -58z" />
    <glyph glyph-name="quotesinglbase" unicode="&#x201a;" horiz-adv-x="278" 
d="M77 -153l-10 24q96 31 96 98q0 27 -13 34.5t-37 7.5t-37.5 10.5t-13.5 41.5q0 26 17 39t44 13q44 0 68.5 -32.5t24.5 -77.5q0 -60 -38.5 -100t-100.5 -58z" />
    <glyph glyph-name="quotedblleft" unicode="&#x201c;" 
d="M238 698l10 -24q-96 -31 -96 -98q0 -27 13 -34.5t37 -7.5t37.5 -10.5t13.5 -41.5q0 -26 -17 -39t-44 -13q-44 0 -68.5 32.5t-24.5 77.5q0 60 38.5 100t100.5 58zM442 698l10 -24q-96 -31 -96 -98q0 -27 13 -34.5t37 -7.5t37.5 -10.5t13.5 -41.5q0 -26 -17 -39t-44 -13
q-44 0 -68.5 32.5t-24.5 77.5q0 60 38.5 100t100.5 58z" />
    <glyph glyph-name="quotedblright" unicode="&#x201d;" 
d="M318 430l-10 24q96 31 96 98q0 27 -13 34.5t-37 7.5t-37.5 10.5t-13.5 41.5q0 26 17 39t44 13q44 0 68.5 -32.5t24.5 -77.5q0 -60 -38.5 -100t-100.5 -58zM114 430l-10 24q96 31 96 98q0 27 -13 34.5t-37 7.5t-37.5 10.5t-13.5 41.5q0 26 17 39t44 13q44 0 68.5 -32.5
t24.5 -77.5q0 -60 -38.5 -100t-100.5 -58z" />
    <glyph glyph-name="quotedblbase" unicode="&#x201e;" 
d="M318 -153l-10 24q96 31 96 98q0 27 -13 34.5t-37 7.5t-37.5 10.5t-13.5 41.5q0 26 17 39t44 13q44 0 68.5 -32.5t24.5 -77.5q0 -60 -38.5 -100t-100.5 -58zM114 -153l-10 24q96 31 96 98q0 27 -13 34.5t-37 7.5t-37.5 10.5t-13.5 41.5q0 26 17 39t44 13q44 0 68.5 -32.5
t24.5 -77.5q0 -60 -38.5 -100t-100.5 -58z" />
    <glyph glyph-name="dagger" unicode="&#x2020;" 
d="M307 532v-84h39q93 0 150 7q-3 -17 -3 -33q1 -16 3 -31q-105 10 -189 10v-161q0 -78 3 -227t4 -194h-2q-27 3 -34 3q-8 0 -35 -3h-2q1 45 4 194t3 227v161q-84 0 -189 -10q2 15 3 31q0 16 -3 33q57 -7 150 -7h39v84q0 71 -7 169q2 0 16 -1.5t21 -1.5q5 0 11 0.5t13.5 1.5
t11.5 1q-7 -98 -7 -169z" />
    <glyph glyph-name="daggerdbl" unicode="&#x2021;" 
d="M248 81v62q0 80 -11 111v2q11 35 11 103v72q-70 0 -185 -7q2 20 2 32q0 11 -2 31q117 -9 185 -9q1 28 -7 223q21 -3 38 -3q5 0 35 3q-8 -195 -7 -223q68 0 185 9q-2 -20 -2 -31q0 -12 2 -32q-116 7 -185 7v-72q0 -68 11 -103v-2q-11 -32 -11 -106v-67q68 0 185 9
q-2 -20 -2 -31q0 -12 2 -32q-116 7 -185 7q0 -45 7 -215q-6 0 -17 1.5t-16 1.5q-1 0 -40 -3q7 170 7 215q-70 0 -185 -7q2 20 2 32q0 11 -2 31q117 -9 185 -9z" />
    <glyph glyph-name="bullet" unicode="&#x2022;" horiz-adv-x="500" 
d="M250 524q72 0 123.5 -51t51.5 -124q0 -72 -51.5 -123.5t-123.5 -51.5q-73 0 -124 51.5t-51 123.5q0 73 51 124t124 51z" />
    <glyph glyph-name="ellipsis" unicode="&#x2026;" horiz-adv-x="1000" 
d="M832 -15q-27 0 -46.5 19t-19.5 46q0 26 20 46.5t46 20.5t46 -20t20 -47t-19.5 -46t-46.5 -19zM168 -15q-27 0 -46.5 19t-19.5 46q0 26 20 46.5t46 20.5t46 -20t20 -47t-19.5 -46t-46.5 -19zM500 -15q-27 0 -46.5 19t-19.5 46q0 26 20 46.5t46 20.5t46 -20t20 -47
t-19.5 -46t-46.5 -19z" />
    <glyph glyph-name="perthousand" unicode="&#x2030;" horiz-adv-x="1000" 
d="M323 547q0 -71 -40.5 -117.5t-106.5 -46.5q-68 0 -104.5 45.5t-36.5 112.5q0 71 40.5 117.5t106.5 46.5q68 0 104.5 -45.5t36.5 -112.5zM965 149q0 -71 -40.5 -117.5t-106.5 -46.5q-68 0 -104.5 45.5t-36.5 112.5q0 71 40.5 117.5t106.5 46.5q68 0 104.5 -45.5
t36.5 -112.5zM633 149q0 -71 -40.5 -117.5t-106.5 -46.5q-68 0 -104.5 45.5t-36.5 112.5q0 71 40.5 117.5t106.5 46.5q68 0 104.5 -45.5t36.5 -112.5zM129 -24h-46l453 738h46zM559 151q0 25 -1.5 41t-7.5 40t-21 36.5t-39 12.5q-71 0 -71 -140q0 -25 1.5 -41t7.5 -40
t21 -36.5t39 -12.5q71 0 71 140zM891 151q0 25 -1.5 41t-7.5 40t-21 36.5t-39 12.5q-71 0 -71 -140q0 -25 1.5 -41t7.5 -40t21 -36.5t39 -12.5q71 0 71 140zM249 549q0 25 -1.5 41t-7.5 40t-21 36.5t-39 12.5q-71 0 -71 -140q0 -25 1.5 -41t7.5 -40t21 -36.5t39 -12.5
q71 0 71 140z" />
    <glyph glyph-name="guilsinglleft" unicode="&#x2039;" horiz-adv-x="278" 
d="M47 244l167 163l17 -14l-104 -149l104 -149l-17 -14z" />
    <glyph glyph-name="guilsinglright" unicode="&#x203a;" horiz-adv-x="278" 
d="M231 244l-167 -163l-17 14l104 149l-104 149l17 14z" />
    <glyph glyph-name="fraction" unicode="&#x2044;" horiz-adv-x="167" 
d="M-119 -23h-46l451 736h46z" />
    <glyph glyph-name="Euro" unicode="&#x20ac;" 
d="M28 292h55q-2 34 -2 52v26h-61l8 41h57q11 79 43 145t92 111.5t137 45.5q89 0 169 -41l10 -143h-25q-26 152 -149 152q-32 0 -62 -13t-59.5 -42t-49.5 -84.5t-25 -130.5h288l-8 -41h-281q0 -35 5 -78h259l-8 -41h-245q19 -99 70 -162t136 -63q83 0 146 58l16 -19
q-34 -36 -84 -58t-102 -22q-114 0 -181.5 75t-87.5 191h-69z" />
    <glyph glyph-name="afii61289" unicode="&#x2113;" horiz-adv-x="490" 
d="M440 138q3 -2 10 -9.5t12 -10.5q-70 -129 -190 -129q-83 0 -119.5 46t-36.5 147v38q-10 -7 -31.5 -22t-32.5 -22l-15 30q17 13 79 59v139q0 118 8.5 177.5t33.5 99.5q52 78 123 78q52 0 79 -42t27 -106q0 -170 -165 -325v-64q0 -91 23.5 -128t72.5 -37q62 0 122 81z
M222 475v-135q81 98 95 227q4 36 3 56q-2 99 -47 99q-29 0 -40 -55.5t-11 -191.5z" />
    <glyph glyph-name="trademark" unicode="&#x2122;" horiz-adv-x="990" 
d="M666 294l-149 304h-2v-219q0 -34 10 -47.5t43 -17.5v-20h-131v20q32 4 42 17.5t10 47.5v249q-9 22 -28 35.5t-41 13.5v21h121l154 -309l160 309h103v-21q-30 -1 -41.5 -14t-11.5 -40v-270q0 -23 7.5 -28.5t41.5 -10.5v-20h-172v20q34 5 41.5 10.5t7.5 28.5v247h-2
l-152 -306h-11zM241 678v-325q0 -23 7.5 -28.5t41.5 -10.5v-20h-172v20q34 5 41.5 10.5t7.5 28.5v325h-48q-52 0 -67 -68h-20v88h344v-88h-20q-15 68 -66 68h-49z" />
    <glyph glyph-name="Omega" unicode="&#x2126;" horiz-adv-x="768" 
d="M313 152l16 -152h-295v162h15q9 -37 22 -49t44 -12h158l-2 28q-61 18 -99.5 42t-67.5 67q-33 49 -44 105t-2.5 103t30.5 87q7 13 15.5 25t15.5 20.5t16 17.5t14.5 14t15 11.5t13.5 8.5t13.5 7.5t10.5 6.5q75 44 183 44t183 -44q1 -1 10.5 -6.5t13.5 -7.5t13.5 -8.5
t15 -11.5t14.5 -14t16 -17.5t15.5 -20.5t15.5 -25q22 -40 30.5 -87t-2.5 -103t-44 -105q-29 -43 -67.5 -67t-99.5 -42l-2 -28h158q31 0 44 12t22 49h15v-162h-295l16 152q2 1 14 6t17 7.5t16 9t18.5 13.5t17.5 18t18.5 26t16.5 34q18 41 23.5 100.5t-11 128t-57.5 109.5
q-52 52 -145 52t-145 -52q-41 -41 -57.5 -109.5t-11 -128t23.5 -100.5q8 -19 16.5 -34t18.5 -26t17.5 -18t18.5 -13.5t16 -9t17 -7.5t14 -6z" />
    <glyph glyph-name="estimated" unicode="&#x212e;" horiz-adv-x="742" 
d="M698 340h-511v-230q75 -75 183 -75q79 0 138 36.5t106 115.5q8 -5 22 -13.5t22 -12.5q-58 -92 -123.5 -131.5t-164.5 -39.5q-146 0 -236 100t-90 250t90 250t236 100q145 0 235.5 -97.5t92.5 -252.5zM187 386h368v183q-79 76 -186 76q-108 0 -182 -76v-183z" />
    <glyph glyph-name="onethird" unicode="&#x2153;" horiz-adv-x="834" 
d="M218 705v-372q0 -14 9.5 -19.5t33.5 -5.5h37v-26q-22 0 -58 0.5t-52 0.5q-79 0 -116 -1v26h37q24 0 33.5 5.5t9.5 19.5v311q-62 -31 -93 -46l-9 21q64 30 155 86h13zM215 -23h-46l451 736h46zM582 198v26q43 3 76 28.5t33 60.5q0 32 -18 50t-49 18q-43 0 -82 -36l-14 11
q32 34 60.5 50t73.5 16q39 0 67 -24t28 -61q0 -35 -28 -63t-68 -43l2 -2h9q24 0 47 -7t43.5 -30t20.5 -59q0 -51 -46.5 -97t-131.5 -46q-47 0 -77 16.5t-30 33.5q0 8 6.5 14t14.5 6q9 0 18 -11t26.5 -22t46.5 -11q45 0 72 27t27 66q0 90 -108 90z" />
    <glyph glyph-name="twothirds" unicode="&#x2154;" horiz-adv-x="834" 
d="M240 -23h-46l451 736h46zM607 198v26q43 3 76 28.5t33 60.5q0 32 -18 50t-49 18q-43 0 -82 -36l-14 11q32 34 60.5 50t73.5 16q39 0 67 -24t28 -61q0 -35 -28 -63t-68 -43l2 -2h9q24 0 47 -7t43.5 -30t20.5 -59q0 -51 -46.5 -97t-131.5 -46q-47 0 -77 16.5t-30 33.5
q0 8 6.5 14t14.5 6q9 0 18 -11t26.5 -22t46.5 -11q45 0 72 27t27 66q0 90 -108 90zM115 336h192l15 25h19l-19 -79h-291q-5 0 -5 9v6q0 1 5 6q54 40 104 93q96 104 96 176q0 86 -79 86q-44 0 -89 -50l-18 12q19 25 34.5 41t45.5 30t66 14q50 0 82 -31.5t32 -78.5
q0 -29 -12 -59t-38 -60.5t-43.5 -49.5t-53 -51t-43.5 -39z" />
    <glyph glyph-name="oneeighth" unicode="&#x215b;" horiz-adv-x="834" 
d="M224 705v-372q0 -14 9.5 -19.5t33.5 -5.5h37v-26q-22 0 -58 0.5t-52 0.5q-79 0 -116 -1v26h37q24 0 33.5 5.5t9.5 19.5v311q-62 -31 -93 -46l-9 21q64 30 155 86h13zM235 -23h-46l451 736h46zM773 334q0 -61 -80 -107q33 -20 58.5 -51.5t25.5 -64.5q0 -50 -38 -85
t-88 -35q-55 0 -87 32t-32 70q0 37 21.5 61.5t63.5 51.5q-76 53 -76 108q0 54 33.5 86.5t87.5 32.5q47 0 79 -26.5t32 -72.5zM717 88q0 55 -81 104q-30 -23 -40.5 -45.5t-10.5 -57.5q0 -30 18 -50.5t47 -20.5q32 0 49.5 19.5t17.5 50.5zM720 332q0 35 -17 56t-42 21
q-30 0 -47 -19.5t-17 -52.5q0 -48 73 -98q50 38 50 93z" />
    <glyph glyph-name="threeeighths" unicode="&#x215c;" horiz-adv-x="834" 
d="M237 -23h-46l451 736h46zM775 334q0 -61 -80 -107q33 -20 58.5 -51.5t25.5 -64.5q0 -50 -38 -85t-88 -35q-55 0 -87 32t-32 70q0 37 21.5 61.5t63.5 51.5q-76 53 -76 108q0 54 33.5 86.5t87.5 32.5q47 0 79 -26.5t32 -72.5zM719 88q0 55 -81 104q-30 -23 -40.5 -45.5
t-10.5 -57.5q0 -30 18 -50.5t47 -20.5q32 0 49.5 19.5t17.5 50.5zM722 332q0 35 -17 56t-42 21q-30 0 -47 -19.5t-17 -52.5q0 -48 73 -98q50 38 50 93zM138 481v26q43 3 76 28.5t33 60.5q0 32 -18 50t-49 18q-43 0 -82 -36l-14 11q32 34 60.5 50t73.5 16q39 0 67 -24t28 -61
q0 -35 -28 -63t-68 -43l2 -2h9q24 0 47 -7t43.5 -30t20.5 -59q0 -51 -46.5 -97t-131.5 -46q-47 0 -77 16.5t-30 33.5q0 8 6.5 14t14.5 6q9 0 18 -11t26.5 -22t46.5 -11q45 0 72 27t27 66q0 90 -108 90z" />
    <glyph glyph-name="fiveeighths" unicode="&#x215d;" horiz-adv-x="834" 
d="M218 -23h-46l451 736h46zM756 334q0 -61 -80 -107q33 -20 58.5 -51.5t25.5 -64.5q0 -50 -38 -85t-88 -35q-55 0 -87 32t-32 70q0 37 21.5 61.5t63.5 51.5q-76 53 -76 108q0 54 33.5 86.5t87.5 32.5q47 0 79 -26.5t32 -72.5zM700 88q0 55 -81 104q-30 -23 -40.5 -45.5
t-10.5 -57.5q0 -30 18 -50.5t47 -20.5q32 0 49.5 19.5t17.5 50.5zM703 332q0 35 -17 56t-42 21q-30 0 -47 -19.5t-17 -52.5q0 -48 73 -98q50 38 50 93zM130 547l59 160h160l-14 -56h-136l-23 -57q34 -17 54 -29.5t43 -33t34 -47t11 -59.5q0 -65 -45 -108t-110 -43
q-29 0 -59.5 15t-30.5 38q0 21 22 21q11 0 26 -19l1 -1q22 -27 52 -27q40 0 63.5 28.5t23.5 69.5q0 28 -10.5 51t-33 41.5t-39 28.5t-48.5 27z" />
    <glyph glyph-name="seveneighths" unicode="&#x215e;" horiz-adv-x="834" 
d="M200 -23h-46l451 736h46zM738 334q0 -61 -80 -107q33 -20 58.5 -51.5t25.5 -64.5q0 -50 -38 -85t-88 -35q-55 0 -87 32t-32 70q0 37 21.5 61.5t63.5 51.5q-76 53 -76 108q0 54 33.5 86.5t87.5 32.5q47 0 79 -26.5t32 -72.5zM682 88q0 55 -81 104q-30 -23 -40.5 -45.5
t-10.5 -57.5q0 -30 18 -50.5t47 -20.5q32 0 49.5 19.5t17.5 50.5zM685 332q0 35 -17 56t-42 21q-30 0 -47 -19.5t-17 -52.5q0 -48 73 -98q50 38 50 93zM92 617l18 89h276l8 -8l-218 -426l-34 12l192 366h-202l-17 -35z" />
    <glyph glyph-name="partialdiff" unicode="&#x2202;" horiz-adv-x="494" 
d="M104 667l-39 50q98 43 181 23q106 -26 168 -134q48 -85 48 -213q0 -46 -13 -126t-39 -136q-24 -51 -44.5 -79t-59.5 -49q-54 -27 -104 -23.5t-91 31.5q-77 52 -84 145q-8 98 55 175q60 74 142 71q43 -1 70.5 -14t79.5 -54q9 48 11 116q1 34 -10 82.5t-22 76.5
q-13 29 -42 57.5t-70 31.5q-18 1 -31.5 1t-22.5 -1t-19.5 -4.5t-17 -6t-21 -9t-25.5 -11.5zM366 299q0 1 -12.5 15t-18 18.5t-18.5 14t-27.5 13t-31.5 3.5q-57 -2 -96 -54q-50 -69 -50 -161q0 -94 46 -125q39 -25 83 -5q51 22 81 93q30 74 44 188z" />
    <glyph glyph-name="Delta" unicode="&#x2206;" horiz-adv-x="612" 
d="M326 688l282 -688h-602zM290 517l-218 -468h412z" />
    <glyph glyph-name="product" unicode="&#x220f;" horiz-adv-x="823" 
d="M706 629v-626q0 -49 23.5 -65t73.5 -16v-23h-306v23q49 0 72.5 16t23.5 65v693h-358v-693q0 -49 23.5 -65t73.5 -16v-23h-307v23q50 0 73.5 16t23.5 65v626q0 99 -95 99v23h773v-23q-94 0 -94 -99z" />
    <glyph glyph-name="summation" unicode="&#x2211;" horiz-adv-x="713" 
d="M617 745l6 -159h-20q-1 5 -4 13q-8 28 -14 41.5t-21.5 30t-43 23t-70.5 6.5h-263l273 -358l-294 -339h371q57 0 82.5 22t52.5 91h23q-30 -123 -43 -224q-72 11 -77 11h-503q-10 0 -29 -1.5t-29 -1.5l349 398l-347 454q8 0 46 -3.5t58 -3.5h497z" />
    <glyph glyph-name="minus" unicode="&#x2212;" 
d="M499 188h-442v66h442v-66z" />
    <glyph glyph-name="uni2215" unicode="&#x2215;" horiz-adv-x="167" 
d="M-119 -23h-46l451 736h46z" />
    <glyph glyph-name="uni2219" unicode="&#x2219;" horiz-adv-x="278" 
d="M205 292q0 -26 -19.5 -46t-45.5 -20q-28 0 -47.5 19.5t-19.5 46.5q0 28 19.5 47t46.5 19t46.5 -19.5t19.5 -46.5z" />
    <glyph glyph-name="radical" unicode="&#x221a;" horiz-adv-x="549" 
d="M26 417l-16 33l146 72l197 -403l127 798l35 -5l-150 -950l-243 502z" />
    <glyph glyph-name="infinity" unicode="&#x221e;" horiz-adv-x="713" 
d="M357 297q49 45 72.5 62t56.5 32q71 31 133 -6.5t69 -105.5q6 -59 -37.5 -109.5t-109.5 -44.5q-29 3 -55.5 12.5t-47.5 23.5t-35 26t-28.5 26.5l-17.5 17.5l-17.5 -17.5t-28.5 -26.5t-35 -26t-47.5 -23.5t-55.5 -12.5q-66 -6 -109.5 44.5t-37.5 109.5q7 68 69 105.5
t133 6.5q33 -15 56.5 -32t72.5 -62zM324 264q-80 67 -119 81q-58 20 -94 -12.5t-35 -73.5q1 -43 37.5 -68.5t78.5 -15.5q27 6 48 18t33.5 23t50.5 48zM390 264q31 -30 39 -37.5t26.5 -22t32 -19.5t34.5 -10q42 -10 78.5 15.5t37.5 68.5q1 41 -35 73.5t-94 12.5
q-39 -14 -119 -81z" />
    <glyph glyph-name="integral" unicode="&#x222b;" horiz-adv-x="274" 
d="M190 488l-1 -216q-1 -177 -34 -293q-11 -39 -29 -61q-9 -11 -37.5 -21t-50.5 1q-23 11 -33 39q-13 36 24 55q20 6 30.5 1.5t26.5 -21.5q25 -27 36 32q5 31 4 70q-6 239 -6 314v144q0 222 26 310q14 46 45 65q25 11 44 8t34 -13q14 -9 20 -28t-7 -39q-12 -14 -33.5 -18
t-37.5 11q-17 16 -28 11t-12 -21q-1 -13 9 -133t10 -197z" />
    <glyph glyph-name="approxequal" unicode="&#x2248;" horiz-adv-x="549" 
d="M490 394l37 -24q-28 -48 -80 -67.5t-98 -6.5l-150 43q-20 6 -37 7t-30.5 -3t-24 -8.5t-19.5 -13t-13.5 -13t-10.5 -13t-7 -9.5l-43 27q79 104 195 72l151 -42q33 -10 79 9q32 14 51 42zM490 243l37 -24q-28 -48 -80 -67.5t-98 -6.5l-150 43q-20 6 -37 7t-30.5 -3
t-24 -8.5t-19.5 -13t-13.5 -13t-10.5 -13t-7 -9.5l-43 27q79 104 195 72l151 -42q33 -10 79 9q32 14 51 42z" />
    <glyph glyph-name="notequal" unicode="&#x2260;" horiz-adv-x="549" 
d="M402 549l49 -28l-76 -136h165v-55h-195l-78 -139h273v-55h-303l-90 -161l-49 28l74 133h-157v55h188l77 139h-265v55h296z" />
    <glyph glyph-name="lessequal" unicode="&#x2264;" horiz-adv-x="549" 
d="M29 0v55h497v-55h-497zM29 347v62l497 230v-62l-433 -199l433 -199v-62z" />
    <glyph glyph-name="greaterequal" unicode="&#x2265;" horiz-adv-x="549" 
d="M526 55v-55h-497v55h497zM526 409v-62l-497 -230v62l433 199l-433 199v62z" />
    <glyph glyph-name="lozenge" unicode="&#x25ca;" horiz-adv-x="494" 
d="M272 0h-60l-194 377l194 368h60l194 -368zM406 377l-164 314l-164 -314l164 -323z" />
    <glyph glyph-name="grave.cap" unicode="&#xe000;" horiz-adv-x="278" 
d="M285 738h-35l-167 104q-17 10 -17 34q0 10 9.5 20t22.5 10q5 0 10.5 -2t9.5 -4t9.5 -6.5t8 -6.5t8 -8t7.5 -8z" />
    <glyph glyph-name="grave.sc" unicode="&#xe001;" horiz-adv-x="278" 
d="M285 545h-35l-167 104q-17 10 -17 34q0 10 9.5 20t22.5 10q5 0 10.5 -2t9.5 -4t9.5 -6.5t8 -6.5t8 -8t7.5 -8z" />
    <glyph glyph-name="acute.cap" unicode="&#xe002;" horiz-adv-x="278" 
d="M28 738h-35l134 133q2 2 7.5 8t8 8t8 6.5t9.5 6.5t9.5 4t10.5 2q13 0 22.5 -10t9.5 -20q0 -24 -17 -34z" />
    <glyph glyph-name="acute.sc" unicode="&#xe003;" horiz-adv-x="278" 
d="M28 545h-35l134 133q2 2 7.5 8t8 8t8 6.5t9.5 6.5t9.5 4t10.5 2q13 0 22.5 -10t9.5 -20q0 -24 -17 -34z" />
    <glyph glyph-name="circumflex.cap" unicode="&#xe004;" horiz-adv-x="278" 
d="M111 906h56l122 -166h-33l-117 106l-117 -106h-33z" />
    <glyph glyph-name="circumflex.sc" unicode="&#xe005;" horiz-adv-x="278" 
d="M111 713h56l122 -166h-33l-117 106l-117 -106h-33z" />
    <glyph glyph-name="caron.cap" unicode="&#xe006;" horiz-adv-x="278" 
d="M167 740h-56l-122 166h33l117 -106l117 106h33z" />
    <glyph glyph-name="caron.sc" unicode="&#xe007;" horiz-adv-x="278" 
d="M167 547h-56l-122 166h33l117 -106l117 106h33z" />
    <glyph glyph-name="caron.alt" unicode="&#xe008;" horiz-adv-x="278" 
d="M113 539h-20l15 140q2 16 12 27t25 11t25.5 -7.5t10.5 -20.5q0 -16 -13 -41z" />
    <glyph glyph-name="tilde.cap" unicode="&#xe009;" horiz-adv-x="278" 
d="M273 862h27q-8 -44 -30 -74t-61 -30q-27 0 -79 24q-56 23 -74 23q-36 0 -51 -47h-27q11 50 36 77t58 27q28 0 77 -21q59 -23 76 -23q21 0 30.5 10.5t17.5 33.5z" />
    <glyph glyph-name="tilde.sc" unicode="&#xe00a;" horiz-adv-x="278" 
d="M273 669h27q-8 -44 -30 -74t-61 -30q-27 0 -79 24q-56 23 -74 23q-36 0 -51 -47h-27q11 50 36 77t58 27q28 0 77 -21q59 -23 76 -23q21 0 30.5 10.5t17.5 33.5z" />
    <glyph glyph-name="dieresis.cap" unicode="&#xe00b;" horiz-adv-x="278" 
d="M88 803q0 -18 -14 -31.5t-32 -13.5q-19 0 -32.5 13.5t-13.5 31.5t13.5 32t32.5 14q18 0 32 -14t14 -32zM282 803q0 -18 -14 -31.5t-32 -13.5t-32 13.5t-14 31.5t14 32t32 14t32 -14t14 -32z" />
    <glyph glyph-name="dieresis.sc" unicode="&#xe00c;" horiz-adv-x="278" 
d="M282 630q0 -18 -14 -31.5t-32 -13.5t-32 13.5t-14 31.5t14 32t32 14t32 -14t14 -32zM88 630q0 -18 -14 -31.5t-32 -13.5q-19 0 -32.5 13.5t-13.5 31.5t13.5 32t32.5 14q18 0 32 -14t14 -32z" />
    <glyph glyph-name="macron.cap" unicode="&#xe00d;" horiz-adv-x="278" 
d="M272 773h-266v54h266v-54z" />
    <glyph glyph-name="macron.sc" unicode="&#xe00e;" horiz-adv-x="278" 
d="M272 580h-266v54h266v-54z" />
    <glyph glyph-name="breve.cap" unicode="&#xe00f;" horiz-adv-x="278" 
d="M0 891h26q4 -44 36 -72.5t77 -28.5t77 28.5t36 72.5h26q-6 -72 -40 -113.5t-99 -41.5t-99 41.5t-40 113.5z" />
    <glyph glyph-name="breve.sc" unicode="&#xe010;" horiz-adv-x="278" 
d="M0 698h26q4 -44 36 -72.5t77 -28.5t77 28.5t36 72.5h26q-6 -72 -40 -113.5t-99 -41.5t-99 41.5t-40 113.5z" />
    <glyph glyph-name="ring.cap" unicode="&#xe011;" horiz-adv-x="278" 
d="M42 847q0 39 29 68t68 29t68 -29t29 -68t-29 -68.5t-68 -29.5t-68 29.5t-29 68.5zM74 847q0 -28 18.5 -47t46.5 -19t46.5 19t18.5 47t-18.5 46.5t-46.5 18.5t-46.5 -18.5t-18.5 -46.5z" />
    <glyph glyph-name="ring.sc" unicode="&#xe012;" horiz-adv-x="278" 
d="M42 636q0 39 29 68t68 29t68 -29t29 -68t-29 -68.5t-68 -29.5t-68 29.5t-29 68.5zM74 636q0 -28 18.5 -47t46.5 -19t46.5 19t18.5 47t-18.5 46.5t-46.5 18.5t-46.5 -18.5t-18.5 -46.5z" />
    <glyph glyph-name="hungarumlaut.cap" unicode="&#xe013;" horiz-adv-x="278" 
d="M-61 739h-42l144 144q21 23 41 23q35 0 35 -37q0 -19 -29 -37zM124 739h-42l143 144q21 23 41 23q35 0 35 -37q0 -19 -29 -37z" />
    <glyph glyph-name="hungarumlaut.sc" unicode="&#xe014;" horiz-adv-x="278" 
d="M-61 546h-42l144 144q21 23 41 23q35 0 35 -37q0 -19 -29 -37zM124 546h-42l143 144q21 23 41 23q35 0 35 -37q0 -19 -29 -37z" />
    <glyph glyph-name="dotaccent.cap" unicode="&#xe015;" horiz-adv-x="278" 
d="M185 803q0 -18 -14 -31.5t-32 -13.5q-19 0 -32.5 13.5t-13.5 31.5t13.5 32t32.5 14q18 0 32 -14t14 -32z" />
    <glyph glyph-name="dotaccent.sc" unicode="&#xe016;" horiz-adv-x="278" 
d="M185 610q0 -18 -14 -31.5t-32 -13.5q-19 0 -32.5 13.5t-13.5 31.5t13.5 32t32.5 14q18 0 32 -14t14 -32z" />
    <glyph glyph-name="commaaccent" unicode="&#xe017;" horiz-adv-x="278" 
d="M90 -213l-11 19q28 5 49.5 20.5t21.5 34.5q0 24 -35 24q-15 0 -25.5 10t-10.5 25q0 18 15 30t33 12q31 0 47.5 -21.5t16.5 -48.5q0 -41 -28.5 -68t-72.5 -37z" />
    <glyph glyph-name="commaaccent.alt" unicode="&#xe01a;" horiz-adv-x="278" 
d="M188 718l11 -19q-28 -5 -49.5 -20.5t-21.5 -34.5q0 -24 35 -24q15 0 25.5 -10t10.5 -25q0 -18 -15 -30t-33 -12q-31 0 -47.5 21.5t-16.5 48.5q0 41 28.5 68t72.5 37z" />
    <glyph glyph-name="a.sc" unicode="&#xe5ec;" 
d="M322 0v26h12q50 0 50 24q0 12 -8 33l-37 101h-170l-22 -65q-17 -55 -17 -65q0 -28 52 -28h12v-26q-68 2 -102 2q-28 0 -82 -2v26q58 0 74 42l143 365q10 24 10 33q0 4 -2 14l77 29l150 -424q12 -35 28.5 -47t55.5 -12v-26q-76 2 -112 2q-38 0 -112 -2zM328 216l-72 202
h-2l-73 -202h147z" />
    <glyph glyph-name="b.sc" unicode="&#xe5f5;" 
d="M123 70v350q0 27 -17.5 35.5t-56.5 8.5v26q82 -2 123 -2q18 0 52.5 1t51.5 1q172 0 172 -107q0 -52 -31.5 -74.5t-92.5 -37.5v-2q86 -8 129.5 -36t43.5 -98q0 -60 -51 -97.5t-137 -37.5q-19 0 -64 1t-67 1q-49 0 -129 -2v26q39 0 56.5 8.5t17.5 35.5zM209 248v-179
q0 -13 6.5 -21t20 -11.5t23 -4t27.5 -0.5q23 0 40.5 3t37 12t30.5 31t11 55q0 35 -13.5 59t-36 35.5t-44.5 16t-46 4.5h-56zM209 455v-175h41q54 0 83 27t29 68q0 29 -10.5 47.5t-30 25.5t-31.5 8.5t-30 1.5q-15 0 -51 -3z" />
    <glyph glyph-name="c.sc" unicode="&#xe5ff;" 
d="M512 135l-19 -114q-10 -3 -30.5 -9.5t-27.5 -8.5t-22.5 -6t-25.5 -5.5t-25.5 -2.5t-33.5 -1q-130 0 -204.5 72t-74.5 185q0 116 78.5 186.5t195.5 70.5q43 0 92 -13t88 -14l6 -116h-23q0 11 -7 27.5t-22.5 36.5t-47 33.5t-72.5 13.5q-35 0 -67.5 -11t-62.5 -34.5t-48 -66
t-18 -99.5q0 -91 54 -165t138 -74q56 0 93 25.5t60 92.5z" />
    <glyph glyph-name="d.sc" unicode="&#xe609;" horiz-adv-x="667" 
d="M123 70v350q0 27 -17.5 35.5t-56.5 8.5v26q74 -2 120 -2q26 0 76.5 1t75.5 1q140 0 213.5 -72t73.5 -168q0 -55 -16.5 -98.5t-44 -71.5t-66 -46.5t-79 -26t-86.5 -7.5q-23 0 -68.5 1t-64.5 1q-44 0 -134 -2v26q39 0 56.5 8.5t17.5 35.5zM209 455v-360q0 -40 19 -51.5
t61 -11.5q32 0 60 4.5t59 18t52.5 35.5t35.5 60t14 88q0 98 -47.5 159t-143.5 61q-17 0 -110 -3z" />
    <glyph glyph-name="e.sc" unicode="&#xe613;" horiz-adv-x="500" 
d="M476 111l-31 -111q-144 2 -215 2q-65 0 -193 -2v26q39 0 56.5 8.5t17.5 35.5v350q0 27 -17.5 35.5t-56.5 8.5v26q90 -2 135 -2q84 0 246 2l6 -106h-21q-9 50 -31 62t-101 12h-74v-189h83q23 0 33 1.5t21 8t14.5 20.5t3.5 40h26q-2 -52 -2 -80q0 -27 2 -83h-26
q0 40 -13 50.5t-59 10.5h-83v-146q0 -33 23 -46t84 -13q51 0 76 7.5t36.5 20.5t34.5 51h25z" />
    <glyph glyph-name="f.sc" unicode="&#xe61c;" horiz-adv-x="500" 
d="M123 70v350q0 27 -17.5 35.5t-56.5 8.5v26q130 -2 194 -2q95 0 211 2l4 -110h-20q-10 51 -32 64.5t-90 13.5h-107v-189h94q23 0 33 1t21 7t14.5 18.5t3.5 35.5h26q-2 -52 -2 -80q0 -27 2 -83h-26q0 46 -13 57.5t-59 11.5h-94v-147q0 -38 16 -51t53 -13h21v-26
q-78 2 -135 2q-39 0 -115 -2v26q39 0 56.5 8.5t17.5 35.5z" />
    <glyph glyph-name="g.sc" unicode="&#xe626;" horiz-adv-x="611" 
d="M526 476l8 -119h-22q-13 28 -21 42t-25.5 34t-44 28.5t-63.5 8.5q-88 0 -144.5 -56t-56.5 -170q0 -30 6.5 -59.5t22 -59.5t39 -53t60.5 -37.5t83 -14.5q34 0 71 16q0 4 1 37t1 40q0 44 -13.5 57.5t-63.5 13.5v26q114 -3 119 -3q6 0 96 3v-26q-36 0 -47 -7.5t-11 -32.5
v-64q0 -33 18 -39v-19q-124 -34 -206 -34q-119 0 -196.5 73t-77.5 180q0 118 80 189.5t201 71.5q24 0 94 -9q45 -7 92 -17z" />
    <glyph glyph-name="h.sc" unicode="&#xe630;" horiz-adv-x="667" 
d="M111 70v350q0 27 -17.5 35.5t-56.5 8.5v26q76 -2 115 -2q45 0 119 2v-26q-39 0 -56.5 -8t-17.5 -36v-151h273v151q0 28 -17.5 36t-56.5 8v26q74 -2 119 -2q39 0 115 2v-26q-39 0 -56.5 -8.5t-17.5 -35.5v-350q0 -27 17.5 -35.5t56.5 -8.5v-26q-76 2 -115 2q-45 0 -119 -2
v26q39 0 56.5 8t17.5 36v167h-273v-167q0 -28 17.5 -36t56.5 -8v-26q-74 2 -119 2q-39 0 -115 -2v26q39 0 56.5 8.5t17.5 35.5z" />
    <glyph glyph-name="i.sc" unicode="&#xe63a;" horiz-adv-x="332" 
d="M123 70v350q0 27 -17.5 35.5t-56.5 8.5v26q76 -2 115 -2q45 0 119 2v-26q-39 0 -56.5 -8.5t-17.5 -35.5v-350q0 -27 17.5 -35.5t56.5 -8.5v-26q-74 2 -119 2q-39 0 -115 -2v26q39 0 56.5 8.5t17.5 35.5z" />
    <glyph glyph-name="j.sc" unicode="&#xe643;" horiz-adv-x="389" 
d="M162 -9v429q0 27 -20.5 35.5t-75.5 8.5v26q120 -2 137 -2q37 0 127 2v-26q-45 0 -63.5 -8.5t-18.5 -35.5v-371q0 -114 -47.5 -174t-103.5 -60q-87 0 -87 60q0 13 9 22t23 9q19 0 27 -23q11 -36 41 -36q31 0 41.5 36t10.5 108z" />
    <glyph glyph-name="k.sc" unicode="&#xe64d;" 
d="M284 281l181 -207q40 -48 81 -48v-26q-38 2 -62 2q-22 0 -70 -2l-204 250l167 174q12 12 12 24q0 16 -19 16h-22v26q58 -2 91 -2q15 0 45 1t44 1v-26q-45 0 -84 -29t-160 -154zM123 70v350q0 27 -17.5 35.5t-56.5 8.5v26q76 -2 115 -2q45 0 119 2v-26q-39 0 -56.5 -8.5
t-17.5 -35.5v-350q0 -27 17.5 -35.5t56.5 -8.5v-26q-74 2 -119 2q-39 0 -115 -2v26q39 0 56.5 8.5t17.5 35.5z" />
    <glyph glyph-name="l.sc" unicode="&#xe657;" horiz-adv-x="500" 
d="M137 70v350q0 27 -17.5 35.5t-56.5 8.5v26q76 -2 115 -2q45 0 119 2v-26q-39 0 -56.5 -8t-17.5 -36v-333q0 -33 17.5 -44t74.5 -11q67 0 93.5 17t54.5 78h25l-30 -127q-52 2 -185 2q-70 0 -210 -2v26q39 0 56.5 8.5t17.5 35.5z" />
    <glyph glyph-name="m.sc" unicode="&#xe661;" horiz-adv-x="778" 
d="M395 122l173 368q46 -2 70 -2q31 0 81 2v-26q-69 0 -69 -32q0 -4 2 -56l10 -260q2 -61 16 -75.5t64 -14.5v-26q-76 2 -118 2q-43 0 -119 -2v26q42 0 57 9t15 41q0 42 -4.5 157.5t-6.5 172.5h-2l-189 -412h-14l-190 397h-2q-19 -263 -19 -309q0 -56 77 -56v-26
q-15 0 -44 1t-44 1q-37 0 -103 -2v26q47 0 61 15t17 52l19 260q4 52 4 83q0 18 -14.5 23t-59.5 5v26q15 0 44 -1t44 -1q10 0 32 1t31 1z" />
    <glyph glyph-name="n.sc" unicode="&#xe66b;" horiz-adv-x="611" 
d="M111 139v278q0 47 -80 47v26q48 -2 70 -2q25 0 67 2l305 -358v262q0 48 -17 59t-63 11v26q64 -2 99 -2q32 0 90 2v-26q-40 0 -54.5 -8.5t-14.5 -43.5v-424h-24l-338 394v-267q0 -55 15 -72t70 -17v-26q-66 2 -105 2q-34 0 -102 -2v26q30 0 47.5 6.5t24.5 24.5t8.5 33
t1.5 49z" />
    <glyph glyph-name="o.sc" unicode="&#xe674;" horiz-adv-x="667" 
d="M59 247q0 114 83 184.5t198 70.5q120 0 194 -72t74 -182q0 -100 -76.5 -180t-198.5 -80q-123 0 -198.5 72t-75.5 187zM157 257q0 -100 54 -168.5t133 -68.5q87 0 126.5 62.5t39.5 155.5q0 104 -52 168t-133 64q-84 0 -126 -61.5t-42 -151.5z" />
    <glyph glyph-name="p.sc" unicode="&#xe67d;" horiz-adv-x="500" 
d="M123 70v350q0 27 -17.5 35.5t-56.5 8.5v26q76 -2 115 -2q21 0 68.5 1t75.5 1q69 0 112.5 -32.5t43.5 -104.5q0 -39 -18 -68.5t-45.5 -45.5t-56 -24t-55.5 -8q-22 0 -34 3v26q1 0 11.5 -1.5t16.5 -1.5q89 0 89 106q0 125 -122 125q-26 0 -41 -3v-391q0 -27 17.5 -35.5
t56.5 -8.5v-26q-74 2 -119 2q-39 0 -115 -2v26q39 0 56.5 8.5t17.5 35.5z" />
    <glyph glyph-name="q.sc" unicode="&#xe687;" horiz-adv-x="667" 
d="M628 -125v-19q-49 -30 -77 -30q-25 0 -44 10.5t-49 38.5q-86 78 -144 113q-117 8 -186 79t-69 180q0 114 83 184.5t198 70.5q120 0 194 -72t74 -182q0 -84 -56 -156.5t-149 -94.5v-2q11 -1 45 -23t59 -44q41 -36 60 -48.5t33 -12.5q8 0 13.5 1.5t9.5 4t5 2.5zM157 257
q0 -100 54 -168.5t133 -68.5q87 0 126.5 62.5t39.5 155.5q0 104 -52 168t-133 64q-84 0 -126 -61.5t-42 -151.5z" />
    <glyph glyph-name="r.sc" unicode="&#xe691;" 
d="M111 70v350q0 27 -17.5 35.5t-56.5 8.5v26q76 -2 115 -2q26 0 80 1t69 1q65 0 108 -31.5t43 -89.5q0 -82 -107 -118q55 -95 86 -139t54 -61t57 -25v-26q-38 2 -60 2q-21 0 -65 -2q-36 40 -153 232q-20 -2 -33 -2q-14 0 -34 2v-162q0 -28 17.5 -36t56.5 -8v-26
q-74 2 -119 2q-39 0 -115 -2v26q39 0 56.5 8.5t17.5 35.5zM197 262h37q132 0 132 107q0 47 -31 71t-89 24q-19 0 -49 -3v-199z" />
    <glyph glyph-name="s.sc" unicode="&#xe69b;" horiz-adv-x="444" 
d="M79 15l-15 106h23q16 -55 43.5 -81t80.5 -26q51 0 73 26t22 57t-20 53.5t-70 48.5q-82 42 -110.5 78t-28.5 95q0 53 41.5 91.5t104.5 38.5q21 0 62.5 -5t55.5 -5l9 -98h-21q-23 82 -99 82q-39 0 -63 -22.5t-24 -57.5q0 -37 20 -58t91 -56q75 -37 100.5 -71.5t25.5 -85.5
q0 -60 -50 -98.5t-127 -38.5q-67 0 -124 27z" />
    <glyph glyph-name="t.sc" unicode="&#xe6a5;" horiz-adv-x="500" 
d="M207 70v388h-76q-46 0 -61.5 -13t-28.5 -63h-26l14 132h20q0 -24 44 -24h319q14 0 20.5 1t15 6t17.5 17h20l-10 -132h-27q-5 48 -14.5 62t-40.5 14h-100v-388q0 -27 18.5 -35.5t61.5 -8.5v-26q-86 2 -125 2q-33 0 -121 -2v26q43 0 61.5 8.5t18.5 35.5z" />
    <glyph glyph-name="u.sc" unicode="&#xe6af;" horiz-adv-x="611" 
d="M107 153v275q0 17 -13 25.5t-24.5 9.5t-31.5 1v26q74 -2 114 -2q38 0 106 2v-26q-21 0 -31.5 -1t-22 -9t-11.5 -24v-272q0 -66 36.5 -97.5t97.5 -31.5q29 0 51.5 7t37.5 16.5t25 28t15 32.5t7.5 40t3 41t0.5 44v118q0 74 -13 91t-64 17v26q66 -2 100 -2q27 0 83 2v-26
q-20 0 -31.5 -3.5t-20 -19.5t-8.5 -47v-203q0 -93 -48.5 -148t-152.5 -55q-205 0 -205 165z" />
    <glyph glyph-name="v.sc" unicode="&#xe6b9;" 
d="M261 -12l-179 429q-12 30 -23 38.5t-45 8.5v26q68 -2 105 -2t111 2v-26h-24q-36 0 -36 -24q0 -7 7 -26l129 -319l118 299q11 25 11 44q0 9 -4.5 15t-16 8t-20 2.5t-25.5 0.5v26q64 -2 98 -2q27 0 75 2v-26q-15 0 -21 -1t-15 -7t-16 -18.5t-17 -35.5l-177 -414h-35z" />
    <glyph glyph-name="w.sc" unicode="&#xe6c3;" horiz-adv-x="778" 
d="M263 -12l-184 422q-15 35 -30.5 44.5t-38.5 9.5v26q66 -2 99 -2q28 0 84 2v-26q-34 0 -34 -15t13 -45l134 -323l71 142l-94 215q-12 26 -51 26v26q56 -2 84 -2q10 0 33 1t34 1h82q8 0 26 -1t26 -1q20 0 54 2v-26q-31 0 -42 -9t-32 -48l-60 -121l85 -200l137 330
q5 10 5 23q0 17 -12 21t-38 4v26q56 -2 83 -2q23 0 71 2v-26q-25 0 -39.5 -10t-29.5 -45l-189 -421h-31l-87 202l-97 -202h-32zM383 418l39 -94l46 102q5 12 5 24q0 14 -32 14h-35q-18 0 -24 -2.5t-6 -12.5q0 -15 7 -31z" />
    <glyph glyph-name="x.sc" unicode="&#xe6cd;" 
d="M235 228l-153 200q-18 21 -31 28.5t-40 7.5v26q74 -2 112 -2q37 0 105 2v-26q-49 0 -49 -14q0 -6 14 -26l94 -128l80 103q24 28 24 45q0 9 -6.5 13.5t-17 5.5t-32.5 1v26q68 -2 106 -2q31 0 85 2v-26q-32 -2 -52 -11t-48 -41l-122 -141l162 -206q17 -21 32 -28t47 -11
v-26q-72 2 -109 2q-39 0 -113 -2v26h29q19 0 19 13q0 11 -11 26l-106 139l-86 -118q-19 -27 -19 -36q0 -13 12 -18.5t46 -5.5v-26q-64 2 -100 2q-32 0 -96 -2v26q32 0 55 12.5t48 42.5z" />
    <glyph glyph-name="y.sc" unicode="&#xe6d6;" 
d="M321 238v-178q0 -23 19.5 -28.5t61.5 -5.5v-26q-80 2 -122 2q-43 0 -123 -2v26q31 0 44 1.5t23.5 10t10.5 27.5v151l-159 217q-26 31 -62 31v26q64 -2 106 -2q39 0 113 2v-26q-55 0 -55 -13q0 -7 14 -27l111 -159l97 135q21 27 21 41q0 13 -10.5 18t-47.5 5v26
q60 -2 96 -2q12 0 40 1t43 1v-26q-28 0 -46 -9.5t-47 -47.5z" />
    <glyph glyph-name="z.sc" unicode="&#xe6e0;" 
d="M503 490l-345 -458h201q66 0 91 19.5t46 75.5l25 -4l-32 -123q-160 2 -243 2q-71 0 -211 -2l339 458h-177q-68 0 -90 -17t-28 -57h-25l17 132h22q6 -24 44 -26q40 -2 145 -2q91 0 221 2z" />
    <glyph glyph-name="eng.sc" unicode="&#xe6ea;" horiz-adv-x="611" 
d="M111 139v278q0 47 -80 47v26q48 -2 70 -2q25 0 67 2l305 -358v262q0 48 -17 59t-63 11v26q64 -2 99 -2q32 0 90 2v-26q-40 0 -54.5 -8.5t-14.5 -43.5v-366h1q-1 -128 -38 -180q-44 -62 -129 -62q-35 0 -60.5 14t-25.5 42q0 18 11 27.5t24 8.5q11 0 19 -8t8 -22
q0 -16 13 -25.5t32 -9.5q31 0 50.5 26t26 58.5t6.5 70.5v48l-300 348v-267q0 -55 15 -72t70 -17v-26q-66 2 -105 2q-34 0 -102 -2v26q30 0 47.5 6.5t24.5 24.5t8.5 33t1.5 49z" />
    <glyph glyph-name="agrave.sc" unicode="&#xeb35;" 
d="M322 0v26h12q50 0 50 24q0 12 -8 33l-37 101h-170l-22 -65q-17 -55 -17 -65q0 -28 52 -28h12v-26q-68 2 -102 2q-28 0 -82 -2v26q58 0 74 42l143 365q10 24 10 33q0 4 -2 14l77 29l150 -424q12 -35 28.5 -47t55.5 -12v-26q-76 2 -112 2q-38 0 -112 -2zM328 216l-72 202
h-2l-73 -202h147zM361 545h-35l-167 104q-17 10 -17 34q0 10 9.5 20t22.5 10q5 0 10.5 -2t9.5 -4t9.5 -6.5t8 -6.5t8 -8t7.5 -8z" />
    <glyph glyph-name="aacute.sc" unicode="&#xeb3f;" 
d="M322 0v26h12q50 0 50 24q0 12 -8 33l-37 101h-170l-22 -65q-17 -55 -17 -65q0 -28 52 -28h12v-26q-68 2 -102 2q-28 0 -82 -2v26q58 0 74 42l143 365q10 24 10 33q0 4 -2 14l77 29l150 -424q12 -35 28.5 -47t55.5 -12v-26q-76 2 -112 2q-38 0 -112 -2zM328 216l-72 202
h-2l-73 -202h147zM230 545h-35l134 133q2 2 7.5 8t8 8t8 6.5t9.5 6.5t9.5 4t10.5 2q13 0 22.5 -10t9.5 -20q0 -24 -17 -34z" />
    <glyph glyph-name="acircumflex.sc" unicode="&#xeb49;" 
d="M322 0v26h12q50 0 50 24q0 12 -8 33l-37 101h-170l-22 -65q-17 -55 -17 -65q0 -28 52 -28h12v-26q-68 2 -102 2q-28 0 -82 -2v26q58 0 74 42l143 365q10 24 10 33q0 4 -2 14l77 29l150 -424q12 -35 28.5 -47t55.5 -12v-26q-76 2 -112 2q-38 0 -112 -2zM328 216l-72 202
h-2l-73 -202h147zM250 713h56l122 -166h-33l-117 106l-117 -106h-33z" />
    <glyph glyph-name="atilde.sc" unicode="&#xeb53;" 
d="M322 0v26h12q50 0 50 24q0 12 -8 33l-37 101h-170l-22 -65q-17 -55 -17 -65q0 -28 52 -28h12v-26q-68 2 -102 2q-28 0 -82 -2v26q58 0 74 42l143 365q10 24 10 33q0 4 -2 14l77 29l150 -424q12 -35 28.5 -47t55.5 -12v-26q-76 2 -112 2q-38 0 -112 -2zM328 216l-72 202
h-2l-73 -202h147zM412 669h27q-8 -44 -30 -74t-61 -30q-27 0 -79 24q-56 23 -74 23q-36 0 -51 -47h-27q11 50 36 77t58 27q28 0 77 -21q59 -23 76 -23q21 0 30.5 10.5t17.5 33.5z" />
    <glyph glyph-name="adieresis.sc" unicode="&#xeb5d;" 
d="M322 0v26h12q50 0 50 24q0 12 -8 33l-37 101h-170l-22 -65q-17 -55 -17 -65q0 -28 52 -28h12v-26q-68 2 -102 2q-28 0 -82 -2v26q58 0 74 42l143 365q10 24 10 33q0 4 -2 14l77 29l150 -424q12 -35 28.5 -47t55.5 -12v-26q-76 2 -112 2q-38 0 -112 -2zM328 216l-72 202
h-2l-73 -202h147zM421 630q0 -18 -14 -31.5t-32 -13.5t-32 13.5t-14 31.5t14 32t32 14t32 -14t14 -32zM227 630q0 -18 -14 -31.5t-32 -13.5q-19 0 -32.5 13.5t-13.5 31.5t13.5 32t32.5 14q18 0 32 -14t14 -32z" />
    <glyph glyph-name="amacron.sc" unicode="&#xeb67;" 
d="M322 0v26h12q50 0 50 24q0 12 -8 33l-37 101h-170l-22 -65q-17 -55 -17 -65q0 -28 52 -28h12v-26q-68 2 -102 2q-28 0 -82 -2v26q58 0 74 42l143 365q10 24 10 33q0 4 -2 14l77 29l150 -424q12 -35 28.5 -47t55.5 -12v-26q-76 2 -112 2q-38 0 -112 -2zM328 216l-72 202
h-2l-73 -202h147zM410 580h-266v54h266v-54z" />
    <glyph glyph-name="abreve.sc" unicode="&#xeb71;" 
d="M322 0v26h12q50 0 50 24q0 12 -8 33l-37 101h-170l-22 -65q-17 -55 -17 -65q0 -28 52 -28h12v-26q-68 2 -102 2q-28 0 -82 -2v26q58 0 74 42l143 365q10 24 10 33q0 4 -2 14l77 29l150 -424q12 -35 28.5 -47t55.5 -12v-26q-76 2 -112 2q-38 0 -112 -2zM328 216l-72 202
h-2l-73 -202h147zM138 698h26q4 -44 36 -72.5t77 -28.5t77 28.5t36 72.5h26q-6 -72 -40 -113.5t-99 -41.5t-99 41.5t-40 113.5z" />
    <glyph glyph-name="aring.sc" unicode="&#xeb7b;" 
d="M322 0v26h12q50 0 50 24q0 12 -8 33l-37 101h-170l-22 -65q-17 -55 -17 -65q0 -28 52 -28h12v-26q-68 2 -102 2q-28 0 -82 -2v26q58 0 74 42l143 365q10 24 10 33q0 4 -2 14l77 29l150 -424q12 -35 28.5 -47t55.5 -12v-26q-76 2 -112 2q-38 0 -112 -2zM328 216l-72 202
h-2l-73 -202h147zM181 636q0 39 29 68t68 29t68 -29t29 -68t-29 -68.5t-68 -29.5t-68 29.5t-29 68.5zM213 636q0 -28 18.5 -47t46.5 -19t46.5 19t18.5 47t-18.5 46.5t-46.5 18.5t-46.5 -18.5t-18.5 -46.5z" />
    <glyph glyph-name="aringacute.sc" unicode="&#xeb85;" 
d="M322 0v26h12q50 0 50 24q0 12 -8 33l-37 101h-170l-22 -65q-17 -55 -17 -65q0 -28 52 -28h12v-26q-68 2 -102 2q-28 0 -82 -2v26q58 0 74 42l143 365q10 24 10 33q0 4 -2 14l77 29l150 -424q12 -35 28.5 -47t55.5 -12v-26q-76 2 -112 2q-38 0 -112 -2zM328 216l-72 202
h-2l-73 -202h147zM182 626q0 39 29 68t68 29t68 -29t29 -68t-29 -68.5t-68 -29.5t-68 29.5t-29 68.5zM214 626q0 -28 18.5 -47t46.5 -19t46.5 19t18.5 47t-18.5 46.5t-46.5 18.5t-46.5 -18.5t-18.5 -46.5zM247 760h-35l134 133q2 2 7.5 8t8 8t8 6.5t9.5 6.5t9.5 4t10.5 2
q13 0 22.5 -10t9.5 -20q0 -24 -17 -34z" />
    <glyph glyph-name="aogonek.sc" unicode="&#xeb8f;" 
d="M322 0v26h12q50 0 50 24q0 12 -8 33l-37 101h-170l-22 -65q-17 -55 -17 -65q0 -28 52 -28h12v-26q-68 2 -102 2q-28 0 -82 -2v26q58 0 74 42l143 365q10 24 10 33q0 4 -2 14l77 29l150 -424q12 -35 28.5 -47t55.5 -12v-26q-24 0 -74 2q-47 -39 -63.5 -67.5t-16.5 -56.5
q0 -20 12 -32.5t28 -12.5q35 0 60 34l20 -10q-15 -31 -41 -48t-51 -17q-94 0 -94 82q0 64 107 128q-39 0 -111 -2zM328 216l-72 202h-2l-73 -202h147z" />
    <glyph glyph-name="ae.sc" unicode="&#xeb99;" horiz-adv-x="778" 
d="M373 266v173q0 19 -6 19q-5 0 -31 -44l-85 -148h122zM373 70v166h-140l-56 -97q-43 -76 -43 -86q0 -13 10 -19t20 -7t29 -1v-26q-66 2 -99 2q-28 0 -84 -2v26q35 0 58 17t57 74l163 273q28 46 28 59q0 15 -43 15h-27v26q140 -2 188 -2q84 0 246 2l6 -106h-21
q-9 50 -31 62t-101 12h-74v-189h83q17 0 25 1.5t17 7.5t12.5 21t3.5 40h26q-2 -52 -2 -80q0 -27 2 -83h-26q0 40 -11.5 50.5t-46.5 10.5h-83v-146q0 -33 23 -46t84 -13q51 0 75 7t34 21t24 51h25l-24 -111q-130 2 -208 2q-65 0 -193 -2v26q39 0 56.5 8.5t17.5 35.5z" />
    <glyph glyph-name="aeacute.sc" unicode="&#xeba3;" horiz-adv-x="778" 
d="M373 266v173q0 19 -6 19q-5 0 -31 -44l-85 -148h122zM373 70v166h-140l-56 -97q-43 -76 -43 -86q0 -13 10 -19t20 -7t29 -1v-26q-66 2 -99 2q-28 0 -84 -2v26q35 0 58 17t57 74l163 273q28 46 28 59q0 15 -43 15h-27v26q140 -2 188 -2q84 0 246 2l6 -106h-21
q-9 50 -31 62t-101 12h-74v-189h83q17 0 25 1.5t17 7.5t12.5 21t3.5 40h26q-2 -52 -2 -80q0 -27 2 -83h-26q0 40 -11.5 50.5t-46.5 10.5h-83v-146q0 -33 23 -46t84 -13q51 0 75 7t34 21t24 51h25l-24 -111q-130 2 -208 2q-65 0 -193 -2v26q39 0 56.5 8.5t17.5 35.5zM404 545
h-35l134 133q2 2 7.5 8t8 8t8 6.5t9.5 6.5t9.5 4t10.5 2q13 0 22.5 -10t9.5 -20q0 -24 -17 -34z" />
    <glyph glyph-name="cacute.sc" unicode="&#xebad;" 
d="M512 135l-19 -114q-10 -3 -30.5 -9.5t-27.5 -8.5t-22.5 -6t-25.5 -5.5t-25.5 -2.5t-33.5 -1q-130 0 -204.5 72t-74.5 185q0 116 78.5 186.5t195.5 70.5q43 0 92 -13t88 -14l6 -116h-23q0 11 -7 27.5t-22.5 36.5t-47 33.5t-72.5 13.5q-35 0 -67.5 -11t-62.5 -34.5t-48 -66
t-18 -99.5q0 -91 54 -165t138 -74q56 0 93 25.5t60 92.5zM254 545h-35l134 133q2 2 7.5 8t8 8t8 6.5t9.5 6.5t9.5 4t10.5 2q13 0 22.5 -10t9.5 -20q0 -24 -17 -34z" />
    <glyph glyph-name="ccircumflex.sc" unicode="&#xebb7;" 
d="M512 135l-19 -114q-10 -3 -30.5 -9.5t-27.5 -8.5t-22.5 -6t-25.5 -5.5t-25.5 -2.5t-33.5 -1q-130 0 -204.5 72t-74.5 185q0 116 78.5 186.5t195.5 70.5q43 0 92 -13t88 -14l6 -116h-23q0 11 -7 27.5t-22.5 36.5t-47 33.5t-72.5 13.5q-35 0 -67.5 -11t-62.5 -34.5t-48 -66
t-18 -99.5q0 -91 54 -165t138 -74q56 0 93 25.5t60 92.5zM287 713h56l122 -166h-33l-117 106l-117 -106h-33z" />
    <glyph glyph-name="ccaron.sc" unicode="&#xebc1;" 
d="M512 135l-19 -114q-10 -3 -30.5 -9.5t-27.5 -8.5t-22.5 -6t-25.5 -5.5t-25.5 -2.5t-33.5 -1q-130 0 -204.5 72t-74.5 185q0 116 78.5 186.5t195.5 70.5q43 0 92 -13t88 -14l6 -116h-23q0 11 -7 27.5t-22.5 36.5t-47 33.5t-72.5 13.5q-35 0 -67.5 -11t-62.5 -34.5t-48 -66
t-18 -99.5q0 -91 54 -165t138 -74q56 0 93 25.5t60 92.5zM343 547h-56l-122 166h33l117 -106l117 106h33z" />
    <glyph glyph-name="cdotaccent.sc" unicode="&#xebcb;" 
d="M512 135l-19 -114q-10 -3 -30.5 -9.5t-27.5 -8.5t-22.5 -6t-25.5 -5.5t-25.5 -2.5t-33.5 -1q-130 0 -204.5 72t-74.5 185q0 116 78.5 186.5t195.5 70.5q43 0 92 -13t88 -14l6 -116h-23q0 11 -7 27.5t-22.5 36.5t-47 33.5t-72.5 13.5q-35 0 -67.5 -11t-62.5 -34.5t-48 -66
t-18 -99.5q0 -91 54 -165t138 -74q56 0 93 25.5t60 92.5zM361 610q0 -18 -14 -31.5t-32 -13.5q-19 0 -32.5 13.5t-13.5 31.5t13.5 32t32.5 14q18 0 32 -14t14 -32z" />
    <glyph glyph-name="ccedilla.sc" unicode="&#xebd5;" 
d="M512 135l-19 -114q-7 -2 -33 -10.5t-32.5 -10t-25 -5.5t-33 -5.5t-34.5 -1.5l-25 -52l2 -2q14 9 32 9q32 0 55 -20.5t23 -51.5q0 -43 -34 -63.5t-80 -20.5q-50 0 -88 15l14 30q43 -13 63 -13q23 0 41 11t18 32q0 18 -13 29t-32 11t-36 -6l-14 5l40 87q-118 9 -185 80
t-67 177q0 116 78.5 186.5t195.5 70.5q43 0 92 -13t88 -14l6 -116h-23q0 11 -7 27.5t-22.5 36.5t-47 33.5t-72.5 13.5q-35 0 -67.5 -11t-62.5 -34.5t-48 -66t-18 -99.5q0 -91 54 -165t138 -74q56 0 93 25.5t60 92.5z" />
    <glyph glyph-name="dcaron.sc" unicode="&#xebdf;" horiz-adv-x="667" 
d="M123 70v350q0 27 -17.5 35.5t-56.5 8.5v26q74 -2 120 -2q26 0 76.5 1t75.5 1q140 0 213.5 -72t73.5 -168q0 -55 -16.5 -98.5t-44 -71.5t-66 -46.5t-79 -26t-86.5 -7.5q-23 0 -68.5 1t-64.5 1q-44 0 -134 -2v26q39 0 56.5 8.5t17.5 35.5zM209 455v-360q0 -40 19 -51.5
t61 -11.5q32 0 60 4.5t59 18t52.5 35.5t35.5 60t14 88q0 98 -47.5 159t-143.5 61q-17 0 -110 -3zM330 547h-56l-122 166h33l117 -106l117 106h33z" />
    <glyph glyph-name="dcroat.sc" unicode="&#xebe9;" horiz-adv-x="667" 
d="M123 70v167h-74v32h74v151q0 27 -17.5 35.5t-56.5 8.5v26q74 -2 120 -2q26 0 76.5 1t75.5 1q140 0 213.5 -72t73.5 -168q0 -55 -16.5 -98.5t-44 -71.5t-66 -46.5t-79 -26t-86.5 -7.5q-23 0 -68.5 1t-64.5 1q-44 0 -134 -2v26q39 0 56.5 8.5t17.5 35.5zM209 237v-142
q0 -40 19 -51.5t61 -11.5q32 0 60 4.5t59 18t52.5 35.5t35.5 60t14 88q0 98 -47.5 159t-143.5 61q-17 0 -110 -3v-186h167v-32h-167z" />
    <glyph glyph-name="eth.sc" unicode="&#xebf3;" horiz-adv-x="667" 
d="M123 70v167h-74v32h74v151q0 27 -17.5 35.5t-56.5 8.5v26q74 -2 120 -2q26 0 76.5 1t75.5 1q140 0 213.5 -72t73.5 -168q0 -55 -16.5 -98.5t-44 -71.5t-66 -46.5t-79 -26t-86.5 -7.5q-23 0 -68.5 1t-64.5 1q-44 0 -134 -2v26q39 0 56.5 8.5t17.5 35.5zM209 237v-142
q0 -40 19 -51.5t61 -11.5q32 0 60 4.5t59 18t52.5 35.5t35.5 60t14 88q0 98 -47.5 159t-143.5 61q-17 0 -110 -3v-186h167v-32h-167z" />
    <glyph glyph-name="egrave.sc" unicode="&#xebfd;" horiz-adv-x="500" 
d="M476 111l-31 -111q-144 2 -215 2q-65 0 -193 -2v26q39 0 56.5 8.5t17.5 35.5v350q0 27 -17.5 35.5t-56.5 8.5v26q90 -2 135 -2q84 0 246 2l6 -106h-21q-9 50 -31 62t-101 12h-74v-189h83q23 0 33 1.5t21 8t14.5 20.5t3.5 40h26q-2 -52 -2 -80q0 -27 2 -83h-26
q0 40 -13 50.5t-59 10.5h-83v-146q0 -33 23 -46t84 -13q51 0 76 7.5t36.5 20.5t34.5 51h25zM322 545h-35l-167 104q-17 10 -17 34q0 10 9.5 20t22.5 10q5 0 10.5 -2t9.5 -4t9.5 -6.5t8 -6.5t8 -8t7.5 -8z" />
    <glyph glyph-name="eacute.sc" unicode="&#xec07;" horiz-adv-x="500" 
d="M476 111l-31 -111q-144 2 -215 2q-65 0 -193 -2v26q39 0 56.5 8.5t17.5 35.5v350q0 27 -17.5 35.5t-56.5 8.5v26q90 -2 135 -2q84 0 246 2l6 -106h-21q-9 50 -31 62t-101 12h-74v-189h83q23 0 33 1.5t21 8t14.5 20.5t3.5 40h26q-2 -52 -2 -80q0 -27 2 -83h-26
q0 40 -13 50.5t-59 10.5h-83v-146q0 -33 23 -46t84 -13q51 0 76 7.5t36.5 20.5t34.5 51h25zM212 545h-35l134 133q2 2 7.5 8t8 8t8 6.5t9.5 6.5t9.5 4t10.5 2q13 0 22.5 -10t9.5 -20q0 -24 -17 -34z" />
    <glyph glyph-name="ecircumflex.sc" unicode="&#xec11;" horiz-adv-x="500" 
d="M476 111l-31 -111q-144 2 -215 2q-65 0 -193 -2v26q39 0 56.5 8.5t17.5 35.5v350q0 27 -17.5 35.5t-56.5 8.5v26q90 -2 135 -2q84 0 246 2l6 -106h-21q-9 50 -31 62t-101 12h-74v-189h83q23 0 33 1.5t21 8t14.5 20.5t3.5 40h26q-2 -52 -2 -80q0 -27 2 -83h-26
q0 40 -13 50.5t-59 10.5h-83v-146q0 -33 23 -46t84 -13q51 0 76 7.5t36.5 20.5t34.5 51h25zM228 713h56l122 -166h-33l-117 106l-117 -106h-33z" />
    <glyph glyph-name="ecaron.sc" unicode="&#xec1b;" horiz-adv-x="500" 
d="M476 111l-31 -111q-144 2 -215 2q-65 0 -193 -2v26q39 0 56.5 8.5t17.5 35.5v350q0 27 -17.5 35.5t-56.5 8.5v26q90 -2 135 -2q84 0 246 2l6 -106h-21q-9 50 -31 62t-101 12h-74v-189h83q23 0 33 1.5t21 8t14.5 20.5t3.5 40h26q-2 -52 -2 -80q0 -27 2 -83h-26
q0 40 -13 50.5t-59 10.5h-83v-146q0 -33 23 -46t84 -13q51 0 76 7.5t36.5 20.5t34.5 51h25zM284 547h-56l-122 166h33l117 -106l117 106h33z" />
    <glyph glyph-name="edieresis.sc" unicode="&#xec25;" horiz-adv-x="500" 
d="M476 111l-31 -111q-144 2 -215 2q-65 0 -193 -2v26q39 0 56.5 8.5t17.5 35.5v350q0 27 -17.5 35.5t-56.5 8.5v26q90 -2 135 -2q84 0 246 2l6 -106h-21q-9 50 -31 62t-101 12h-74v-189h83q23 0 33 1.5t21 8t14.5 20.5t3.5 40h26q-2 -52 -2 -80q0 -27 2 -83h-26
q0 40 -13 50.5t-59 10.5h-83v-146q0 -33 23 -46t84 -13q51 0 76 7.5t36.5 20.5t34.5 51h25zM399 630q0 -18 -14 -31.5t-32 -13.5t-32 13.5t-14 31.5t14 32t32 14t32 -14t14 -32zM205 630q0 -18 -14 -31.5t-32 -13.5q-19 0 -32.5 13.5t-13.5 31.5t13.5 32t32.5 14
q18 0 32 -14t14 -32z" />
    <glyph glyph-name="emacron.sc" unicode="&#xec2f;" horiz-adv-x="500" 
d="M476 111l-31 -111q-144 2 -215 2q-65 0 -193 -2v26q39 0 56.5 8.5t17.5 35.5v350q0 27 -17.5 35.5t-56.5 8.5v26q90 -2 135 -2q84 0 246 2l6 -106h-21q-9 50 -31 62t-101 12h-74v-189h83q23 0 33 1.5t21 8t14.5 20.5t3.5 40h26q-2 -52 -2 -80q0 -27 2 -83h-26
q0 40 -13 50.5t-59 10.5h-83v-146q0 -33 23 -46t84 -13q51 0 76 7.5t36.5 20.5t34.5 51h25zM372 580h-266v54h266v-54z" />
    <glyph glyph-name="ebreve.sc" unicode="&#xec39;" horiz-adv-x="500" 
d="M476 111l-31 -111q-144 2 -215 2q-65 0 -193 -2v26q39 0 56.5 8.5t17.5 35.5v350q0 27 -17.5 35.5t-56.5 8.5v26q90 -2 135 -2q84 0 246 2l6 -106h-21q-9 50 -31 62t-101 12h-74v-189h83q23 0 33 1.5t21 8t14.5 20.5t3.5 40h26q-2 -52 -2 -80q0 -27 2 -83h-26
q0 40 -13 50.5t-59 10.5h-83v-146q0 -33 23 -46t84 -13q51 0 76 7.5t36.5 20.5t34.5 51h25zM101 698h26q4 -44 36 -72.5t77 -28.5t77 28.5t36 72.5h26q-6 -72 -40 -113.5t-99 -41.5t-99 41.5t-40 113.5z" />
    </font>
</defs>
</svg>
