<svg xmlns="http://www.w3.org/2000/svg">
<defs>
<font id="SabonLTPro-Italic" horiz-adv-x="556" >
  <font-face 
    font-family="Sabon LT Pro"
    font-weight="400"
    font-style="italic"
    font-stretch="normal"
    units-per-em="1000"
    panose-1="2 2 5 2 5 5 6 9 3 3"
    ascent="764"
    descent="-236"
    x-height="457"
    cap-height="698"
    bbox="-146 -229 1059 977"
    underline-thickness="50"
    underline-position="-200"
    slope="-12"
    unicode-range="U+000D-FB04"
  />
<missing-glyph horiz-adv-x="485" 
d="M263 111h-53v63h53v-63zM257 222h-46v16q0 50 11 74.5t46 56.5q28 27 37 44t9 36q0 33 -21 56.5t-51 23.5q-67 0 -77 -90q-8 2 -24 4.5t-24 3.5q7 66 41 98t87 32q52 0 85 -34t33 -90q0 -32 -12.5 -56.5t-47.5 -56.5t-40.5 -47.5t-5.5 -70.5zM47 47h391v585h-391v-585z
M0 680h485v-680h-485v680z" />
    <glyph glyph-name="IJ" unicode="IJ" horiz-adv-x="756" 
d="M23 0l5 26h17q41 0 53 12.5t23 58.5l97 529q3 16 -1.5 26.5t-16.5 14.5t-20 4.5t-23 0.5h-6h-18l5 26q50 -2 147 -2q19 0 58 1t59 1l-5 -26h-19h-4h-8t-8.5 -0.5t-9.5 -1.5t-9.5 -3t-10 -5t-8.5 -7.5t-7 -11t-5 -14.5l-98 -533q-8 -44 5 -57t61 -13h15l-5 -26
q-22 0 -66.5 1t-66.5 1q-44 0 -130 -2zM463 -56l121 634q11 53 11 64q0 30 -46 30h-47l5 26q67 -3 134 -3q21 0 63.5 1.5t64.5 1.5l-5 -26h-26q-29 0 -39 -14t-17 -49l-94 -478q-15 -81 -48 -168t-76 -137q-25 -28 -47 -41t-53 -13q-26 0 -47 15.5t-21 39.5q0 15 11 26
t27 11q18 0 27 -9.5t10 -20.5t7 -20.5t19 -9.5q40 0 66 140z" />
    <glyph glyph-name="ij" unicode="ij" horiz-adv-x="554" 
d="M63 313l-14 14q30 45 75 87.5t83 42.5q31 0 31 -25q0 -14 -14 -56l-82 -254q-10 -32 -10 -42q0 -15 13 -15q17 0 76 65l16 -13q-97 -132 -159 -132q-38 0 -38 40q0 12 11 49l86 254q9 25 9 37t-12 12q-23 0 -71 -64zM229 690q18 0 32 -14.5t14 -32.5q0 -17 -14 -31
t-32 -14t-32 14t-14 31q0 18 14 32.5t32 14.5zM245 -228l-7 22q43 26 61 95l115 440q8 29 8 36q0 12 -12 12q-23 0 -71 -64l-14 14q30 45 75 87.5t83 42.5q31 0 31 -25q0 -3 -22 -85l-104 -374q-4 -14 -7.5 -25.5t-7 -21.5t-5.5 -16.5t-6.5 -15t-6 -11.5t-7 -11.5t-7 -10
t-8.5 -11.5t-9 -13q-28 -40 -79 -65zM505 690q18 0 32 -14t14 -32t-14 -32t-32 -14t-32 14t-14 32t14 32t32 14z" />
    <glyph glyph-name="napostrophe" unicode="&#x22;n" 
d="M45 313l-15 18q102 126 174 126q34 0 34 -34q0 -15 -11 -48l-52 -151h2q29 42 75.5 92t110 95.5t108.5 45.5q40 0 40 -41q0 -21 -10 -49l-80 -220q-15 -40 -15 -52q0 -21 18 -21t45 24t41 46l17 -13l-36 -44q-71 -87 -139 -87q-19 0 -28.5 9.5t-9.5 23.5q0 25 14 62
l78 213q13 39 13 50q0 19 -23 19q-20 0 -40.5 -9.5t-43 -30.5t-32 -30.5t-30.5 -33.5q-85 -91 -125 -204l-20 -57q-4 -11 -37 -11q-23 0 -32 13l98 295q12 38 12 50q0 18 -16 18q-24 0 -58 -34zM54 539h-20l38 140q11 38 37 38q36 0 36 -30q0 -19 -13 -39z" />
    <glyph glyph-name="f_f" unicode="ff" horiz-adv-x="591" 
d="M500 442h110l-12 -41h-109l-167 -611l-61 -18l-3 6l154 623h-181l-167 -611l-61 -18l-3 6l154 623h-90l11 41h88q29 101 58.5 160.5t91.5 113.5q54 48 107 48q41 0 41 -32q0 -14 -8 -31t-20 -17q-9 0 -30 10t-33 10q-22 0 -38 -10.5t-26.5 -32t-16 -38t-12.5 -44.5
l-35 -137h179q29 101 58.5 160.5t91.5 113.5q54 48 107 48q41 0 41 -32q0 -14 -8 -31t-20 -17q-9 0 -30 10t-33 10q-22 0 -38 -10.5t-26.5 -32t-16 -38t-12.5 -44.5z" />
    <glyph glyph-name="fi" unicode="fi" 
d="M30 401l12 41h97q19 95 55 160t104 115q66 47 139 47q42 0 74.5 -18t32.5 -56q0 -20 -13 -34.5t-32 -14.5q-11 0 -16 1t-9 5.5t-4 13.5q1 32 -20.5 47t-51.5 15q-61 0 -107 -65q-35 -51 -50 -123l-19 -93h278l9 -9l-93 -309q-10 -33 -10 -44q0 -15 13 -15q15 0 76 67
l16 -13q-99 -134 -159 -134q-38 0 -38 42q0 17 10 49l92 325h-203l-141 -596l-62 -33l-8 5l130 624h-102z" />
    <glyph glyph-name="fl" unicode="fl" 
d="M30 401l12 41h97l10 45q22 99 108.5 188t172.5 89q23 0 58 -13l9 -3l45 14l12 -9l-155 -648q-4 -14 -4 -23q0 -17 17 -17q19 0 94 70l14 -14q-116 -136 -174 -136q-19 0 -31 12.5t-12 31.5q0 14 17 89l136 563q-34 29 -80 29q-24 0 -44 -9t-34.5 -27.5t-25 -38.5t-19 -49
t-13.5 -52t-11 -54l-7 -38h110l-12 -41h-107l-141 -596l-62 -33l-8 5l130 624h-102z" />
    <glyph glyph-name="f_f_i" unicode="ffi" horiz-adv-x="826" 
d="M242 442h179q17 58 26.5 86t28 67.5t42.5 68t59 53.5q66 47 139 47q42 0 74.5 -18t32.5 -56q0 -20 -13 -34.5t-32 -14.5q-11 0 -16 1t-9 5.5t-4 13.5q0 32 -21 47t-51 15q-61 0 -107 -65q-35 -51 -50 -123l-19 -93h278l9 -9l-93 -309q-10 -33 -10 -44q0 -15 13 -15
q15 0 76 67l16 -13q-99 -134 -159 -134q-38 0 -38 42q0 17 10 49l92 325h-206l-167 -611l-61 -18l-3 6l154 623h-181l-167 -611l-61 -18l-3 6l154 623h-90l11 41h88q29 101 58.5 160.5t91.5 113.5q54 48 107 48q41 0 41 -32q0 -14 -8 -31t-20 -17q-9 0 -30 10t-33 10
q-22 0 -38 -10.5t-26.5 -32t-16 -38t-12.5 -44.5z" />
    <glyph glyph-name="f_f_l" unicode="ffl" horiz-adv-x="816" 
d="M489 401l-167 -611l-61 -18l-3 6l154 623h-181l-167 -611l-61 -18l-3 6l154 623h-90l11 41h88q29 101 58.5 160.5t91.5 113.5q54 48 107 48q41 0 41 -32q0 -14 -8 -31t-20 -17q-9 0 -30 10t-33 10q-22 0 -38 -10.5t-26.5 -32t-16 -38t-12.5 -44.5l-35 -137h175l13 45
q29 102 110.5 189.5t165.5 87.5q23 0 58 -13l9 -3l45 14l12 -9l-155 -648q-4 -14 -4 -23q0 -17 17 -17q19 0 94 70l14 -14q-116 -136 -174 -136q-19 0 -31 12.5t-12 31.5q0 14 17 89l136 563q-34 29 -80 29q-24 0 -44 -9t-34.5 -27.5t-25 -38.5t-19 -49t-13.5 -52t-11 -54
l-7 -38h110l-12 -41h-107z" />
    <glyph glyph-name=".notdef" horiz-adv-x="485" 
d="M263 111h-53v63h53v-63zM257 222h-46v16q0 50 11 74.5t46 56.5q28 27 37 44t9 36q0 33 -21 56.5t-51 23.5q-67 0 -77 -90q-8 2 -24 4.5t-24 3.5q7 66 41 98t87 32q52 0 85 -34t33 -90q0 -32 -12.5 -56.5t-47.5 -56.5t-40.5 -47.5t-5.5 -70.5zM47 47h391v585h-391v-585z
M0 680h485v-680h-485v680z" />
    <glyph glyph-name=".null" horiz-adv-x="500" 
 />
    <glyph glyph-name="nonmarkingreturn" horiz-adv-x="333" 
 />
    <glyph glyph-name="CR" unicode="&#xd;" horiz-adv-x="0" 
 />
    <glyph glyph-name="space" unicode=" " horiz-adv-x="278" 
 />
    <glyph glyph-name="exclam" unicode="!" horiz-adv-x="333" 
d="M153 188h-20l38 305q19 178 87 178q22 0 33 -15t11 -38q0 -41 -33 -130zM121 -15q-27 0 -46.5 19t-19.5 46q0 26 20 46.5t46 20.5t46 -20t20 -47t-19.5 -46t-46.5 -19z" />
    <glyph glyph-name="quotedbl" unicode="&#x22;" 
d="M300 638l-17 -150q-3 -23 -18 -23t-18 23l-17 150q-2 8 -2 17q0 43 37 43t37 -43q0 -9 -2 -17zM427 638l-17 -150q-3 -23 -18 -23t-18 23l-17 150q-2 8 -2 17q0 43 37 43t37 -43q0 -9 -2 -17z" />
    <glyph glyph-name="numbersign" unicode="#" 
d="M521 272l-7 -54h-104l-31 -218h-62l31 218h-129l-31 -218h-62l31 218h-104l8 54h104l21 146h-105l8 54h104l31 218h61l-31 -218h130l31 218h61l-31 -218h104l-7 -54h-104l-21 -146h104zM377 418h-130l-21 -146h130z" />
    <glyph glyph-name="dollar" unicode="$" 
d="M45 -7l26 210h20q2 -41 6.5 -67t17 -55.5t37.5 -47t64 -22.5l53 303q-30 30 -46 48.5t-37 47t-30.5 57t-9.5 59.5q0 87 54 138q18 16 36.5 27t36 15t28.5 5.5t25 1.5h13l13 75h30l-13 -75q32 -3 60 -13q35 -11 41 -11t15.5 5t11.5 5h10l-33 -177h-20q0 2 0.5 20t0 24.5
t-2 23t-5 24.5t-10.5 21t-16.5 20t-24 14t-33.5 10l-47 -265q7 -8 31.5 -34t35 -38t27 -33t26.5 -38.5t15 -35.5q8 -24 8 -55q0 -87 -64.5 -141t-153.5 -54l-13 -74h-31l14 77q-39 5 -110 33l-44 -28h-12zM294 286l-48 -275q53 5 90 40t37 88q0 62 -79 147zM291 441l43 240
q-51 0 -82.5 -27.5t-31.5 -77.5q0 -57 71 -135z" />
    <glyph glyph-name="percent" unicode="%" horiz-adv-x="1000" 
d="M550 137q0 75 58 129.5t133 54.5q66 0 103.5 -42.5t37.5 -109.5q0 -75 -57 -129.5t-131 -54.5q-62 0 -103 44.5t-41 107.5zM96 521q0 75 58 129.5t133 54.5q66 0 103.5 -42.5t37.5 -109.5q0 -75 -57 -129.5t-131 -54.5q-62 0 -103 44.5t-41 107.5zM170 494
q0 -39 16.5 -69.5t52.5 -29.5q53 -1 84 59.5t31 120.5q0 44 -14.5 74.5t-53.5 29.5q-38 1 -65.5 -33t-39 -74.5t-11.5 -77.5zM624 110q0 -39 16.5 -69.5t52.5 -29.5q53 -1 84 59.5t31 120.5q0 44 -14.5 74.5t-53.5 29.5q-38 1 -65.5 -33t-39 -74.5t-11.5 -77.5zM241 -23
l448 736h47l-447 -736h-48z" />
    <glyph glyph-name="ampersand" unicode="&#x26;" horiz-adv-x="944" 
d="M594 304q0 -19 -15.5 -28t-34.5 -9q-21 0 -42 19t-21 57q0 58 58.5 109t117.5 51q36 0 66.5 -19.5t47.5 -43t39 -43t43 -19.5q15 0 24.5 11.5t9.5 26.5q0 8 -14 26.5t-14 34.5q0 12 10 21t23 9q20 0 31 -15.5t11 -36.5q0 -47 -44 -85.5t-91 -38.5q-37 0 -88 56
q-4 -131 -49 -212q-108 -190 -318 -190q-108 0 -179.5 71t-71.5 185q0 99 83 198t180 99q41 0 64 -23q7 8 39 39t53.5 58.5t21.5 47.5q0 8 -4.5 25t-4.5 21q0 17 11.5 26.5t28.5 9.5q35 0 35 -45q0 -43 -92 -132l-207 -197l-39 -39l-48 -57q-37 -46 -37 -81q0 -31 37 -72
q24 -28 66 -44t82 -16q76 0 141 33.5t106 80.5q68 77 76 234q-4 15 -34.5 28.5t-52.5 13.5q-27 0 -48.5 -19t-21.5 -45q0 -23 10.5 -34t22.5 -11.5t22.5 -8.5t10.5 -27zM298 484q-60 0 -103 -65t-43 -138q0 -27 4 -40q41 55 86 102l94 99q5 5 5 11q0 12 -14 21.5t-29 9.5z
" />
    <glyph glyph-name="quotesingle" unicode="'" horiz-adv-x="278" 
d="M226 638l-17 -150q-3 -23 -18 -23t-18 23l-17 150q-2 8 -2 17q0 43 37 43t37 -43q0 -9 -2 -17z" />
    <glyph glyph-name="parenleft" unicode="(" horiz-adv-x="333" 
d="M353 713l21 -11q-115 -187 -168 -324t-53 -311q0 -118 34 -248l-25 -12q-75 148 -75 287q0 88 20 171.5t60 162t82 142t104 143.5z" />
    <glyph glyph-name="parenright" unicode=")" horiz-adv-x="333" 
d="M-10 -193l-21 11q115 187 168 324t53 311q0 118 -34 248l25 12q75 -148 75 -287q0 -88 -20 -171.5t-60 -162t-82 -142t-104 -143.5z" />
    <glyph glyph-name="asterisk" unicode="*" 
d="M201 645q25 27 50 8q10 -8 20.5 -21t15.5 -20t17.5 -27.5t14.5 -24.5q-3 0 -7 -5.5t-5 -8.5q-9 3 -27.5 9.5t-29 10.5t-24.5 11.5t-23 15.5q-10 8 -12 22q0 15 10 30zM376 698q16 1 30.5 -9t14.5 -26q0 -8 -5 -19.5t-14.5 -25.5t-16.5 -22.5t-18.5 -23t-12.5 -15.5
q-6 6 -18 6q3 43 3 87q0 22 9.5 35t27.5 13zM180 472q0 8 8 16t19 13t27.5 10t28 8t25.5 6t16 3q0 -11 10 -16q-2 -3 -13 -17t-19 -23.5t-20 -21.5t-23 -18.5t-20 -6.5q-17 0 -28 14.5t-11 32.5zM360 366q-35 0 -35 37q0 33 2 101q2 -1 5 -1q4 0 12 5q61 -84 61 -105
q0 -16 -14.5 -26.5t-30.5 -10.5zM503 529q0 -38 -33 -38q-27 0 -110 29q2 3 2 9q0 3 -2 9q5 2 26 9.5t30.5 10.5t25 6.5t28.5 3.5q14 0 23.5 -11t9.5 -28z" />
    <glyph glyph-name="plus" unicode="+" 
d="M245 254v188h66v-188h188v-66h-188v-188h-66v188h-188v66h188z" />
    <glyph glyph-name="comma" unicode="," horiz-adv-x="278" 
d="M0 -140l-7 20q134 18 134 101q0 13 -7 18q-5 2 -24.5 8t-31.5 18q-12 13 -12 34q0 58 65 58q37 0 56.5 -28t19.5 -67q0 -72 -59.5 -118t-133.5 -44z" />
    <glyph glyph-name="hyphen" unicode="-" horiz-adv-x="333" 
d="M39 206l18 66h236l-16 -66h-238z" />
    <glyph glyph-name="period" unicode="." horiz-adv-x="278" 
d="M116 -15q-27 0 -46.5 19t-19.5 46q0 26 20 46.5t46 20.5t46 -20t20 -47t-19.5 -46t-46.5 -19z" />
    <glyph glyph-name="slash" unicode="/" horiz-adv-x="278" 
d="M50 -15h-66l297 728h66z" />
    <glyph glyph-name="zero" unicode="0" 
d="M59 262q0 59 20.5 134t56 144.5t92 117t119.5 47.5q93 0 137 -81.5t44 -208.5q0 -46 -11.5 -102t-36 -114t-58 -105.5t-82.5 -78t-105 -30.5q-49 0 -85 27t-55 71t-27.5 89t-8.5 90zM139 199q0 -188 105 -188q50 0 91.5 54.5t64.5 131t35.5 145.5t12.5 112q0 34 -1 55.5
t-6 56t-15 55t-30 36.5t-49 16q-44 0 -81 -39t-60 -96.5t-38.5 -125.5t-22 -122t-6.5 -91z" />
    <glyph glyph-name="one" unicode="1" 
d="M301 615l-160 -81l-13 24l266 147l10 -5l-105 -594q-6 -36 -6 -51q0 -19 17 -24.5t58 -5.5h41l-5 -25q-27 0 -80.5 1t-80.5 1q-54 0 -164 -2l5 25h32q32 0 45 1.5t24.5 10.5t15.5 28z" />
    <glyph glyph-name="two" unicode="2" 
d="M119 80h310l32 58l22 -6l-39 -132q-132 2 -199 2q-73 0 -225 -2l3 35l141 133q211 204 211 350q0 54 -28 90.5t-81 36.5q-10 0 -19.5 -1.5t-17 -3t-17 -5.5t-14.5 -6t-14.5 -9t-13 -9.5t-14 -11t-12.5 -11t-13.5 -13t-13.5 -12.5l-16 23q36 38 61 59.5t64.5 40.5t81.5 19
q71 0 115 -42t44 -114q0 -53 -23.5 -106.5t-66.5 -105.5t-82.5 -91.5t-95.5 -90t-80 -75.5z" />
    <glyph glyph-name="three" unicode="3" 
d="M184 349l5 27q70 5 130.5 49t60.5 110q0 55 -26.5 89t-79.5 34q-13 0 -25 -3t-20.5 -5.5t-21.5 -10.5t-18.5 -11.5t-19.5 -14.5t-19 -14l-16 18q38 31 59 46.5t56 28.5t73 13q60 0 102 -35.5t42 -95.5q0 -75 -46.5 -119t-127.5 -77v-2q70 -9 111 -49t41 -110
q0 -93 -78.5 -162.5t-188.5 -69.5q-50 0 -80 7.5t-69 33.5l-11 51l42 13q33 -79 119 -79q77 0 125.5 60t48.5 136q0 63 -33 103t-93 40q-35 0 -42 -1z" />
    <glyph glyph-name="four" unicode="4" 
d="M270 0l43 231h-288l3 35l409 439h45l-76 -408h110l-13 -66h-109l-42 -231h-82zM325 297l54 296h-2l-273 -296h221z" />
    <glyph glyph-name="five" unicode="5" 
d="M499 610h-221l-43 -107q191 -123 191 -275q0 -102 -67 -172.5t-170 -70.5q-100 0 -147 47l-10 43l43 15q25 -43 53 -61t75 -18q66 0 104.5 53t38.5 121q0 153 -175 249l104 256h252z" />
    <glyph glyph-name="six" unicode="6" 
d="M201 307l11 38q66 41 134 41q60 0 104.5 -47.5t44.5 -120.5q0 -94 -67 -163.5t-162 -69.5t-146.5 64.5t-51.5 155.5q0 86 40.5 169.5t106 147t147.5 108.5t165 60l8 -23q-100 -21 -180.5 -84.5t-130.5 -154.5q-70 -131 -70 -251q0 -39 8.5 -73.5t36.5 -63.5t73 -29
q68 0 102.5 58t34.5 130q0 61 -31 100.5t-90 39.5q-46 0 -87 -32z" />
    <glyph glyph-name="seven" unicode="7" 
d="M84 567l34 123h451v-8l-426 -704l-40 22l373 610h-343l-24 -43h-25z" />
    <glyph glyph-name="eight" unicode="8" 
d="M66 131q0 40 14.5 73t43 57.5t56 40.5t67.5 34q-101 88 -101 186q0 75 53 129t137 54q68 0 120 -39.5t52 -105.5q0 -69 -44.5 -116t-117.5 -84q29 -27 42.5 -41t30.5 -38t24 -50t7 -59q0 -87 -61 -137t-152 -50q-66 0 -118.5 40.5t-52.5 105.5zM132 130q0 -50 31 -81.5
t82 -31.5q56 0 90.5 34t34.5 94q0 31 -18.5 65t-37 54.5t-51.5 53.5q-62 -36 -96.5 -80.5t-34.5 -107.5zM220 554q0 -32 20.5 -69.5t38 -58t50.5 -54.5q113 78 113 181q0 55 -28.5 87.5t-81.5 32.5q-46 0 -79 -36t-33 -83z" />
    <glyph glyph-name="nine" unicode="9" 
d="M377 383l-11 -38q-66 -41 -134 -41q-60 0 -104.5 47.5t-44.5 120.5q0 94 67 163.5t162 69.5t146.5 -64.5t51.5 -155.5q0 -86 -40.5 -169.5t-106 -147t-147.5 -108.5t-165 -60l-8 23q100 21 180.5 84.5t130.5 154.5q70 131 70 251q0 39 -8.5 73.5t-36.5 63.5t-73 29
q-68 0 -102.5 -58t-34.5 -130q0 -61 31 -100.5t90 -39.5q46 0 87 32z" />
    <glyph glyph-name="colon" unicode=":" horiz-adv-x="278" 
d="M170 279q-27 0 -46.5 19t-19.5 46q0 26 20 46.5t46 20.5t46 -20t20 -47t-19.5 -46t-46.5 -19zM116 -15q-27 0 -46.5 19t-19.5 46q0 26 20 46.5t46 20.5t46 -20t20 -47t-19.5 -46t-46.5 -19z" />
    <glyph glyph-name="semicolon" unicode=";" horiz-adv-x="278" 
d="M0 -140l-7 20q134 18 134 101q0 13 -7 18q-5 2 -24.5 8t-31.5 18q-12 13 -12 34q0 58 65 58q37 0 56.5 -28t19.5 -67q0 -72 -59.5 -118t-133.5 -44zM170 279q-27 0 -46.5 19t-19.5 46q0 26 20 46.5t46 20.5t46 -20t20 -47t-19.5 -46t-46.5 -19z" />
    <glyph glyph-name="less" unicode="&#x3c;" 
d="M499 66v-71l-442 193v66l442 193v-71l-366 -155z" />
    <glyph glyph-name="equal" unicode="=" 
d="M499 354v-66h-442v66h442zM499 154v-66h-442v66h442z" />
    <glyph glyph-name="greater" unicode="&#x3e;" 
d="M57 66l366 155l-366 155v71l442 -193v-66l-442 -193v71z" />
    <glyph glyph-name="question" unicode="?" horiz-adv-x="444" 
d="M216 627q-14 0 -22.5 9t-8.5 23q0 39 62 39q64 0 113 -45t49 -108q0 -53 -27 -87.5t-59.5 -46t-77.5 -24.5t-63 -23q-37 -22 -37 -64q0 -31 25 -46.5t49 -15.5q9 0 19.5 2.5t14.5 2.5q22 0 22 -25q0 -40 -33 -40q-34 0 -76 37q-20 18 -41 59t-21 66q0 50 27 79t66 40.5
t78 21.5t66 31.5t27 60.5q0 33 -18 51t-51 18q-19 0 -45.5 -7.5t-37.5 -7.5zM155 -15q-27 0 -46.5 19t-19.5 46q0 26 20 46.5t46 20.5t46 -20t20 -47t-19.5 -46t-46.5 -19z" />
    <glyph glyph-name="at" unicode="@" horiz-adv-x="800" 
d="M657 77l13 -32q-130 -60 -220 -60q-98 0 -176.5 34t-124 87.5t-69.5 111.5t-24 113q0 167 112 274.5t271 107.5q146 0 245.5 -89.5t99.5 -223.5q0 -57 -22 -113.5t-68 -98t-105 -41.5q-32 0 -55 16.5t-31.5 33t-7.5 25.5h-2q-15 -22 -48 -47t-73 -26q-14 0 -28.5 4
t-32.5 16t-29 40.5t-11 70.5q0 31 13 72t37 83t65.5 71t91.5 29q23 0 39 -10t20.5 -17.5t15.5 -27.5l10 41h73l-65 -258q-6 -23 -6 -37q0 -47 40 -47q60 0 99.5 71.5t39.5 149.5q0 47 -21 95.5t-58.5 90.5t-97 68.5t-128.5 26.5q-126 0 -211.5 -95.5t-85.5 -264.5
q0 -117 87 -206t220 -89q44 0 83.5 8t63 17t61.5 26zM345 282q0 -86 67 -86q40 0 80.5 60.5t40.5 163.5q0 68 -43 68q-46 0 -95.5 -58.5t-49.5 -147.5z" />
    <glyph glyph-name="A" unicode="A" horiz-adv-x="722" 
d="M97 93l344 609q24 6 36 11l6 -4l110 -621q9 -66 72 -62l-5 -26q-21 0 -63 1t-63 1q-36 0 -108 -2l5 26q11 -1 24 0t24.5 3.5t17.5 11.5t4 23l-30 198h-234l-82 -170q-11 -24 -11 -36q0 -30 43 -30h30l-5 -26q-20 0 -59.5 1t-58.5 1q-30 0 -92 -2l5 26q33 -1 53 16.5
t37 50.5zM420 601l-161 -298h207l-44 298h-2z" />
    <glyph glyph-name="B" unicode="B" horiz-adv-x="667" 
d="M123 104l94 524q3 18 -9.5 28.5t-26.5 13t-32 2.5h-21l4 26q72 -3 144 -3q16 0 48.5 1.5t49.5 1.5q41 0 77 -6.5t71 -22t56 -46.5t21 -74q0 -77 -58.5 -123.5t-137.5 -53.5v-2q177 -18 177 -160q0 -69 -41 -118t-102.5 -70.5t-134.5 -21.5q-24 0 -70.5 1t-69.5 1
q-47 0 -139 -2l5 26h16q25 0 39 2.5t22 15.5t10.5 22t7.5 38zM255 347l-48 -266q-2 -12 1.5 -21t13 -14t18 -8t23.5 -4.5t21.5 -1.5h19.5q81 0 129.5 53t48.5 135q0 41 -13.5 68t-39.5 40t-54 17.5t-67 4.5q-26 0 -53 -3zM315 664l-54 -279q43 -3 73 -3q68 0 117.5 44.5
t49.5 125.5q0 61 -42.5 87.5t-105.5 26.5q-14 0 -38 -2z" />
    <glyph glyph-name="C" unicode="C" horiz-adv-x="722" 
d="M725 679l-33 -176l-20 6q7 78 -39 124q-48 48 -131 48q-73 0 -134 -33t-98 -85.5t-57.5 -115.5t-20.5 -126q0 -136 59 -220t171 -84q90 0 145.5 46t94.5 136l22 -5l-40 -170q-12 8 -27 8q-6 0 -17 -3.5t-27.5 -10.5t-23.5 -10q-62 -23 -128 -23q-146 0 -239.5 92.5
t-93.5 243.5q0 162 116.5 277t277.5 115q51 0 89 -7.5t55 -16t31.5 -16t24.5 -7.5q5 0 9.5 2.5t7 4.5t7.5 7t7 6z" />
    <glyph glyph-name="D" unicode="D" horiz-adv-x="833" 
d="M122 96l84 455q10 45 10 79q0 22 -16 30.5t-54 11.5h-19l5 26q60 -3 119 -3q21 0 66 1.5t83 1.5q68 0 122 -13t80 -27t55 -36q113 -86 113 -240q0 -172 -117.5 -277t-293.5 -105q-22 0 -66.5 0.5t-66.5 0.5q-34 0 -101.5 -0.5t-101.5 -0.5l5 26h22q36 2 50.5 15t21.5 55z
M317 663l-106 -569q-4 -21 5 -34.5t31 -19t42 -7t51 -1.5q151 0 241.5 105t90.5 259q0 91 -43 151.5t-95 84.5q-41 19 -69.5 26.5t-77.5 7.5q-25 0 -70 -3z" />
    <glyph glyph-name="E" unicode="E" horiz-adv-x="667" 
d="M19 0l5 26h14q43 -1 58 15t22 52l94 515q2 9 2 25q0 15 -16 27t-49 12h-20l5 26q27 0 112 -2t131 -2t130.5 2t111.5 2l-11 -139h-20v24q0 52 -32 67.5t-122 15.5h-122l-52 -284h130q84 -2 97 45l13 48h17l-41 -227h-16l3 39q3 32 -18 43t-72 11h-119l-39 -223
q-5 -32 -5 -38q0 -48 57 -48h157q29 0 49.5 2.5t37 10.5t27 16t22 27t18.5 34t20 46h23l-45 -168q-14 0 -142.5 1t-194.5 1q-74 0 -220 -2z" />
    <glyph glyph-name="F" unicode="F" 
d="M19 0l5 26h12q43 -1 56.5 9t23.5 50l93 500q4 20 4 39q0 31 -18 40.5t-59 7.5h-9l5 26q91 -4 273 -4q27 0 80.5 2t80.5 2l-10 -137h-21q-1 5 -1.5 22t-2 26t-6.5 21.5t-13 19.5q-7 6 -19.5 9.5t-34.5 5t-36 2t-45 0t-40 -0.5h-26l-51 -284h130q58 1 75.5 15t32.5 65l5 16
h21l-42 -242h-20q6 51 6 52q0 51 -67 53h-150l-43 -254q-2 -18 -2 -23q0 -24 15 -31.5t63 -6.5h17l-5 -26q-41 -1 -90.5 0t-62.5 1q-20 0 -67.5 -0.5t-56.5 -0.5z" />
    <glyph glyph-name="G" unicode="G" horiz-adv-x="833" 
d="M769 672l-27 -169h-20q0 80 -37 121q-26 28 -71 42.5t-89 14.5q-134 0 -233.5 -111.5t-99.5 -251.5q0 -75 27 -142.5t82.5 -113t128.5 -45.5q64 0 104.5 20t51.5 75l16 101q3 17 -2.5 27.5t-20 15t-25.5 5.5t-30 1h-21l5 26q83 -3 166 -3q18 0 53 1.5t52 1.5l-5 -25h-13
q-38 0 -52 -19.5t-23 -63.5l-23 -141q-132 -54 -239 -54q-147 0 -241.5 90.5t-94.5 239.5q0 111 58 203t154.5 143.5t207.5 51.5q98 0 186 -34q30 -11 39 -11q6 0 12.5 4t7.5 4z" />
    <glyph glyph-name="H" unicode="H" horiz-adv-x="833" 
d="M293 571l-34 -189h373l40 218q2 26 2.5 40.5t-9.5 21.5t-17.5 8.5t-22.5 1.5h-34l5 26q72 -3 141 -3q20 0 61 1.5t62 1.5l-5 -26h-18q-44 0 -56.5 -17.5t-24.5 -83.5l-83 -444q-12 -67 -5 -84.5t43 -16.5h37l-5 -26q-22 0 -66.5 1t-66.5 1q-43 0 -129 -2l5 26h19
q41 -1 53.5 15t22.5 69l42 231h-371l-41 -214q-12 -67 -5 -84.5t43 -16.5h37l-5 -26q-22 0 -66.5 1t-66.5 1q-43 0 -129 -2l5 26h19q41 -1 53.5 15t22.5 69l90 490q2 26 2.5 40.5t-9.5 21.5t-17.5 8.5t-22.5 1.5h-34l5 26q72 -3 141 -3q20 0 61 1.5t62 1.5l-5 -26h-18
q-44 0 -56.5 -17.5t-24.5 -83.5z" />
    <glyph glyph-name="I" unicode="I" horiz-adv-x="389" 
d="M23 0l5 26h17q41 0 53 12.5t23 58.5l97 529q3 16 -1.5 26.5t-16.5 14.5t-20 4.5t-23 0.5h-6h-18l5 26q50 -2 147 -2q19 0 58 1t59 1l-5 -26h-19h-4h-8t-8.5 -0.5t-9.5 -1.5t-9.5 -3t-10 -5t-8.5 -7.5t-7 -11t-5 -14.5l-98 -533q-8 -44 5 -57t61 -13h15l-5 -26
q-22 0 -66.5 1t-66.5 1q-44 0 -130 -2z" />
    <glyph glyph-name="J" unicode="J" horiz-adv-x="389" 
d="M96 -56l121 634q11 53 11 64q0 30 -46 30h-47l5 26q67 -3 134 -3q21 0 63.5 1.5t64.5 1.5l-5 -26h-26q-29 0 -39 -14t-17 -49l-94 -478q-15 -81 -48 -168t-76 -137q-25 -28 -47 -41t-53 -13q-26 0 -47 15.5t-21 39.5q0 15 11 26t27 11q18 0 27 -9.5t10 -20.5t7 -20.5
t19 -9.5q40 0 66 140z" />
    <glyph glyph-name="K" unicode="K" horiz-adv-x="722" 
d="M130 672l5 26q46 -2 138 -2q20 0 60.5 1t60.5 1l-5 -26q-79 0 -90 -59l-46 -257h11q15 0 30.5 7.5t22.5 13t24.5 23.5t20.5 21q38 36 115.5 123.5t77.5 104.5q0 25 -36 23h-14l5 26q33 -2 99 -2q18 0 54.5 1t54.5 1l-5 -26q-34 0 -49 -7q-32 -15 -93 -73l-215 -221
l201 -275q17 -23 25.5 -33.5t27.5 -23.5t38 -13h12l-5 -26q-13 0 -40 1t-41 1q-8 0 -22 -1t-22 -1q-11 0 -25 14.5t-42 52.5q-20 27 -79.5 111t-95.5 131q-16 21 -30 21h-11l-36 -197q-9 -61 -9 -73q0 -10 3.5 -16t19.5 -12t45 -6h15l-5 -26q-20 0 -59.5 1t-59.5 1
q-46 0 -138 -2l5 26h4h15t13.5 0.5t12.5 2t12.5 5.5t11.5 10q12 14 24 80l88 479q4 19 4 34q0 17 -10.5 25t-22 9.5t-33.5 0.5h-17z" />
    <glyph glyph-name="L" unicode="L" horiz-adv-x="667" 
d="M628 174l-54 -174q-204 2 -307 2q-157 0 -235 -2l5 26h26q39 4 53.5 22.5t23.5 69.5l88 498q5 26 -11.5 40t-36 16t-41.5 0l5 26q25 0 75.5 -1t75.5 -1q21 0 64 1t65 1l-5 -26q-52 1 -70 -9.5t-29 -55.5l-105 -575h212q136 0 177 142h24z" />
    <glyph glyph-name="M" unicode="M" horiz-adv-x="944" 
d="M14 0l5 26h11q44 0 62 16.5t34 79.5l124 496q-12 33 -32.5 43t-58.5 11h-13l5 26q31 -2 94 -2q15 0 44 1t43 1l136 -564l288 564q24 -2 72 -2q17 0 51.5 1t50.5 1l-5 -26h-11q-42 0 -58.5 -16t-18.5 -52l-32 -506q-2 -40 13 -56t56 -16h16l-5 -26q-21 0 -65 1t-65 1
q-48 0 -144 -2l5 26h12q46 0 63.5 13t21.5 57l37 497h-2l-304 -593h-34l-132 558h-2l-109 -464q-5 -25 -5 -29q0 -19 8.5 -29t31.5 -10h40l-5 -26q-15 0 -44 1t-43 1q-46 0 -136 -2z" />
    <glyph glyph-name="N" unicode="N" horiz-adv-x="833" 
d="M19 0l4 26h14q31 0 46.5 7.5t28.5 37t24 91.5l76 432q1 3 -6.5 15t-21 26.5t-26.5 19.5q-34 17 -56 17h-9l4 26q45 -3 91 -3q11 0 33.5 1.5t33.5 1.5l382 -567l71 417q7 31 7 67q0 35 -18.5 46t-54.5 11h-19l4 26q55 -3 111 -3q20 0 59 1.5t59 1.5l-4 -26h-15
q-10 0 -18 -2t-14.5 -4t-12 -8t-9.5 -9.5t-7.5 -12.5t-5.5 -13t-4.5 -16t-3.5 -16.5t-3.5 -18.5t-3.5 -19l-86 -467q34 -56 71 -66l-5 -20q-40 2 -59 2q-20 0 -60 -2l-371 551l-66 -404q-10 -62 -10 -75q0 -46 64 -46h32l-5 -26q-20 0 -60.5 1t-60.5 1q-40 0 -120 -2z" />
    <glyph glyph-name="O" unicode="O" horiz-adv-x="889" 
d="M88 315q0 166 115.5 282t279.5 116q140 0 241.5 -88.5t101.5 -226.5q0 -173 -114 -293t-286 -120q-152 0 -245 89.5t-93 240.5zM186 294q0 -126 60 -201.5t185 -75.5q93 0 163 61t102 145.5t32 172.5q0 122 -62 203.5t-182 81.5q-74 0 -133 -35t-94 -92t-53 -123.5
t-18 -136.5z" />
    <glyph glyph-name="P" unicode="P" horiz-adv-x="611" 
d="M23 0l5 26h21q21 2 31 4.5t20.5 15t15.5 36.5l94 530q6 34 -15.5 47t-65.5 13h-11l5 26q47 -2 141 -2q24 0 70 1t70 1q81 0 133 -39.5t52 -117.5q0 -95 -72.5 -150t-171.5 -55q-34 0 -51 2l5 30h31q67 0 114 41t47 131q0 65 -32 95.5t-101 30.5q-1 0 -46 -3l-68 -377
l-32 -181l-5 -36q0 -16 7.5 -26t19.5 -13t26.5 -4t27.5 0h18l-5 -26q-94 2 -141 2q-45 0 -137 -2z" />
    <glyph glyph-name="Q" unicode="Q" horiz-adv-x="889" 
d="M56 -101v20q175 31 288 62l26 7v2q-129 15 -205.5 101.5t-76.5 223.5q0 166 115.5 282t279.5 116q140 0 241.5 -88.5t101.5 -226.5q0 -153 -96.5 -267.5t-272.5 -154.5q-205 -46 -222 -50v-2q22 -7 46.5 -14t54.5 -15t46 -13q10 -3 51.5 -15t62 -17.5t55.5 -14t63 -12
t53 -4.5q25 0 47 9t22 30q0 7 -2.5 18.5t-2.5 13.5q0 13 9.5 22t22.5 9q26 0 26 -26q0 -45 -64.5 -85t-148.5 -38q-32 1 -85.5 12.5t-94 23t-104.5 31.5t-82 25q-96 32 -154 35zM186 294q0 -126 60 -202t185 -76q71 0 129 35.5t93.5 92t55 122t19.5 130.5q0 122 -62 203.5
t-182 81.5q-74 0 -133 -35t-94 -92t-53 -123.5t-18 -136.5z" />
    <glyph glyph-name="R" unicode="R" horiz-adv-x="722" 
d="M131 672l5 26q45 -2 134 -2q17 0 51.5 1t51.5 1q40 0 77 -7t72 -23t56 -48t21 -75q0 -82 -59.5 -128.5t-146.5 -59.5q24 -24 48 -56t38 -55.5t38.5 -67t34.5 -60.5q34 -56 49 -70q30 -28 70 -22l-5 -26h-123q-33 0 -126 166q-6 10 -16 28t-16 28.5t-15 26.5t-15 25.5
t-13.5 22t-13.5 20l-12 15t-11 11.5t-9 5q-7 2 -32 2l-42 -246l-5 -39q0 -14 6.5 -22.5t20 -12t23 -4t26.5 -0.5h17l-5 -26q-92 2 -137 2q-46 0 -136 -2l5 26h10q22 0 31.5 1t21.5 7.5t18.5 22t11.5 41.5l90 496q4 17 4 33q0 27 -18 36t-59 9h-16zM321 666l-52 -290
q46 0 69 1q74 2 121.5 45.5t47.5 115.5q0 71 -42 99.5t-131 28.5h-13z" />
    <glyph glyph-name="S" unicode="S" horiz-adv-x="500" 
d="M50 203h20q1 -7 2 -27.5t2 -29t4 -24t9 -29.5q14 -35 48.5 -55.5t74.5 -20.5q58 0 97.5 33t39.5 89q0 40 -23 79.5t-55.5 73.5t-65.5 69t-56 79t-23 89q0 81 52 132.5t135 51.5q55 0 109 -18q21 -7 28 -7q5 0 8 1t6.5 4t5.5 4h17l-31 -176h-22q0 7 1 21t1 21
q0 55 -33.5 86.5t-88.5 31.5q-50 0 -79 -27.5t-29 -77.5q0 -38 24 -77t59 -74t69.5 -71t58.5 -80.5t24 -90.5q0 -84 -62.5 -141t-152.5 -57q-62 0 -145 36l-33 -30h-23z" />
    <glyph glyph-name="T" unicode="T" horiz-adv-x="667" 
d="M267 104l99 553h-169q-20 0 -36 -6.5t-25 -13t-18 -23t-11.5 -22.5t-9 -26.5t-6.5 -21.5h-26l37 169h18q27 -15 58 -15h469q35 0 54 15h17l-17 -171h-26v27q0 52 -15.5 70t-63.5 18h-137l-97 -535q0 -2 -4.5 -26.5t-4.5 -30.5q0 -23 16.5 -31t56.5 -8h26l-5 -26
q-27 0 -80 1t-80 1q-44 0 -130 -2l5 26h31q34 -1 50 15.5t24 62.5z" />
    <glyph glyph-name="U" unicode="U" horiz-adv-x="778" 
d="M155 298l45 259q7 42 7 62q0 19 -5.5 30.5t-18 16t-22 5.5t-29.5 1h-19l5 26q52 -2 157 -2q22 0 66 1t67 1l-5 -25h-23q-39 -2 -59 -26t-32 -98l-54 -335q-3 -21 -3 -40q0 -72 48.5 -110t114.5 -38q37 0 66.5 8t49.5 19.5t36.5 34.5t25.5 41.5t17.5 52t12.5 55t10 61.5
l48 274q3 17 3 38q0 62 -85 62h-15l5 26q40 -2 123 -2q18 0 54.5 1t54.5 1l-5 -26h-13q-15 0 -27 -5t-20.5 -17t-14 -21t-10 -28.5t-6.5 -28t-5 -30t-4 -25.5l-44 -266q-14 -84 -30 -124.5t-52 -75.5q-68 -66 -195 -66q-97 0 -166 45.5t-69 137.5q0 49 15 130z" />
    <glyph glyph-name="V" unicode="V" horiz-adv-x="722" 
d="M370 698l-5 -26h-5q-39 0 -59 -8.5t-15 -33.5l104 -513h2l235 484q12 26 12 41q0 30 -78 30h-8l5 26q38 -2 113 -2q18 0 53.5 1t53.5 1l-5 -26q-32 1 -50.5 -10t-32.5 -41l-330 -636h-34l-129 615q-8 41 -24.5 56.5t-62.5 15.5h-6l5 26q21 0 63.5 -1t63.5 -1q22 0 66.5 1
t67.5 1z" />
    <glyph glyph-name="W" unicode="W" horiz-adv-x="1000" 
d="M348 698l-5 -26h-10q-25 0 -40 -6t-14 -24t7 -38l112 -494l137 241l-76 284q-7 19 -21 27t-44 10h-12l5 26q23 -1 65.5 -1.5t56.5 -0.5q22 -1 56 0.5t39 1.5l-5 -26h-19q-15 -1 -22 -10.5t-4 -21.5l42 -182h2l82 150q13 28 13 39q0 16 -9.5 20t-37.5 5h-9l5 26
q17 -1 48 -1.5t41 -0.5q42 -1 96 2l-5 -26h-15q-9 0 -16.5 -1.5t-13 -2.5t-11.5 -6.5t-9 -7.5t-9 -11t-7.5 -11t-8.5 -14t-8 -14l-114 -193l75 -301h2l231 480q17 36 17 55q0 16 -11.5 21t-49.5 6h-12l5 26q53 -3 101 -2q60 2 91 2l-5 -26h-8q-17 0 -30 -10t-19 -20t-19 -36
l-318 -621h-28l-85 317l-184 -317h-26l-154 650q-4 19 -18 27t-44 10h-12l5 26q23 -1 65.5 -1.5t56.5 -0.5q20 -1 58.5 0.5t53.5 1.5z" />
    <glyph glyph-name="X" unicode="X" horiz-adv-x="778" 
d="M14 0l5 26h16q33 3 58 16q17 8 49 44l224 250l-158 287q-17 30 -36 39.5t-57 9.5h-13l5 26q25 -1 70.5 -1.5t60.5 -0.5q61 -1 137 2l-5 -26h-8q-55 0 -55 -24q0 -13 15 -40l110 -202l185 216q12 15 12 24q0 26 -61 26h-10l5 26q19 0 57.5 -1t57.5 -1q17 0 52 1t53 1
l-5 -26h-15q-18 0 -40 -13t-36 -29l-236 -257l152 -273q23 -42 39.5 -58t45.5 -16h23l-5 -26q-21 0 -62.5 1t-62.5 1q-45 0 -137 -2l5 26h11q53 -2 53 25q0 14 -19 49l-109 201l-180 -215q-22 -24 -22 -40q0 -23 55 -20h9l-5 -26q-19 0 -56.5 1t-55.5 1q-38 0 -116 -2z" />
    <glyph glyph-name="Y" unicode="Y" horiz-adv-x="667" 
d="M351 698l-5 -26h-36q-18 0 -29.5 -9t-3.5 -28l128 -303l182 285q13 20 13 34q0 21 -62 21h-17l4 26q40 -2 121 -2q49 0 74 2l-5 -26q-32 3 -67 -47l-10 -15l-220 -323l-37 -196q-2 -11 -2 -19.5t1 -15t4.5 -11.5t7 -8t10 -5t11.5 -3.5t14 -2t14.5 -0.5h16.5h18l-5 -26
q-26 0 -77.5 1t-76.5 1q-43 0 -129 -2l4 26h22q43 -1 56 11t20 49l38 199l-154 352q-16 35 -71 35h-10l4 26q41 -2 123 -2q22 0 65.5 1t65.5 1z" />
    <glyph glyph-name="Z" unicode="Z" horiz-adv-x="722" 
d="M21 0v8l548 652h-233q-93 0 -130 -18t-66 -95h-24l44 151h544v-8l-542 -649h316q33 0 58 7.5t31.5 12t21.5 16.5q31 25 57 106h23l-47 -183q-206 2 -309 2q-49 0 -146.5 -1t-145.5 -1z" />
    <glyph glyph-name="bracketleft" unicode="[" horiz-adv-x="333" 
d="M210 -167l-4 -26q-14 0 -42 1t-42 1q-13 0 -40 -1t-38 -1l-3 11l169 887l7 8q11 0 36.5 -1t35.5 -1q13 0 38 1t38 1l-4 -26h-33q-34 0 -48.5 -7.5t-19.5 -34.5l-146 -764q0 -3 -1 -7.5t-1.5 -8.5t-0.5 -8q0 -24 55 -24h44z" />
    <glyph glyph-name="backslash" unicode="\" horiz-adv-x="278" 
d="M309 -15h-66l-234 728h66z" />
    <glyph glyph-name="bracketright" unicode="]" horiz-adv-x="333" 
d="M133 687l4 26q14 0 42 -1t42 -1q13 0 40 1t38 1l3 -11l-169 -887l-7 -8q-11 0 -36.5 1t-35.5 1q-12 0 -38 -1t-38 -1l4 26h33q34 0 48.5 7.5t19.5 34.5l146 764q0 3 1 7.5t1.5 8.5t0.5 8q0 12 -7 18q-8 6 -48 6h-44z" />
    <glyph glyph-name="asciicircum" unicode="^" 
d="M135 325h-68l181 365h60l181 -365h-68l-143 291z" />
    <glyph glyph-name="underscore" unicode="_" horiz-adv-x="500" 
d="M500 -125h-500v50h500v-50z" />
    <glyph glyph-name="grave" unicode="`" horiz-adv-x="278" 
d="M151 697l121 -151h-21q-6 0 -17 8l-117 88q-29 24 -29 39q0 11 9.5 21.5t20.5 10.5q19 0 33 -16z" />
    <glyph glyph-name="a" unicode="a" horiz-adv-x="500" 
d="M400 424l14 32q11 20 22 20h21q9 0 9 -5l-2 -8l-99 -355q-4 -12 -4 -25q0 -14 12 -14q13 0 26 10t28 27.5t20 21.5l16 -13q-8 -8 -32 -36.5t-40 -45t-41 -32.5t-47 -16q-13 0 -23.5 7t-10.5 21q0 20 17 73l29 91h-2q-50 -75 -110 -133.5t-114 -58.5q-41 0 -58.5 25
t-17.5 58q0 77 53.5 169.5t130.5 156t140 63.5q37 0 63 -33zM87 128q0 -69 51 -69q45 0 98.5 56.5t88 127.5t34.5 116q0 19 -15.5 35t-34.5 16q-51 0 -104.5 -50t-85.5 -116t-32 -116zM312 175l1 2l1 -2h-2z" />
    <glyph glyph-name="b" unicode="b" 
d="M301 762l-130 -447l2 -2q125 144 226 144q113 0 113 -127q0 -78 -52 -159t-132 -133.5t-157 -52.5q-52 0 -85.5 27.5t-33.5 79.5q0 26 12 74l132 526l-47 29l3 18q26 3 77 13q48 11 64 16zM432 346q0 70 -60 70q-58 0 -117 -57t-94 -131.5t-35 -131.5q0 -35 14.5 -60
t46.5 -25q58 0 117 60.5t93.5 138.5t34.5 136z" />
    <glyph glyph-name="c" unicode="c" horiz-adv-x="444" 
d="M402 146l14 -18q-58 -66 -117 -104.5t-129 -38.5q-58 0 -90 37.5t-32 98.5q0 98 64 181t157 121q79 34 112 34q18 0 33.5 -11t15.5 -29q0 -22 -13.5 -37t-32.5 -15q-18 0 -42.5 16t-39.5 16q-47 0 -89 -50t-63.5 -111t-21.5 -105q0 -43 25.5 -67.5t69.5 -24.5
q79 0 179 107z" />
    <glyph glyph-name="d" unicode="d" 
d="M507 135l14 -14q-99 -136 -168 -136q-13 0 -22 9t-9 22q0 26 19 88l7 22h-2q-36 -43 -60.5 -68t-67 -49t-85.5 -24q-51 0 -74 33.5t-23 87.5q0 90 68 189q41 60 108.5 111t127.5 51q37 0 76 -22l49 252l-60 32l5 14q33 3 73 11q34 7 73 20l10 -4l-155 -647q-5 -22 -5 -33
q0 -16 16 -16q25 0 85 71zM116 131q0 -39 17 -65.5t55 -26.5q47 0 96 55.5t77 122.5t28 110q0 89 -71 89q-53 0 -101.5 -52.5t-74.5 -118t-26 -114.5z" />
    <glyph glyph-name="e" unicode="e" horiz-adv-x="444" 
d="M372 132l14 -17q-118 -130 -227 -130q-64 0 -93.5 39t-29.5 96q0 122 90.5 229.5t197.5 107.5q40 0 69 -16.5t29 -54.5q0 -48 -30.5 -85.5t-79.5 -59t-95.5 -33t-92.5 -15.5q-8 -35 -8 -77q0 -36 23 -56.5t59 -20.5q78 0 174 93zM129 219q50 3 96.5 20t81.5 54.5t35 88.5
q0 20 -11 31.5t-30 11.5q-52 0 -104.5 -72.5t-67.5 -133.5z" />
    <glyph glyph-name="f" unicode="f" horiz-adv-x="333" 
d="M242 442h110l-12 -41h-109l-167 -611l-61 -18l-3 6l154 623h-90l11 41h88q29 101 58.5 160.5t91.5 113.5q54 48 107 48q41 0 41 -32q0 -14 -8 -31t-20 -17q-9 0 -30 10t-33 10q-22 0 -38 -10.5t-26.5 -32t-16 -38t-12.5 -44.5z" />
    <glyph glyph-name="g" unicode="g" horiz-adv-x="500" 
d="M176 95l157 -81q29 -16 42 -25t24.5 -28.5t11.5 -46.5q0 -47 -40 -81t-89 -47.5t-94 -13.5q-32 0 -63 4.5t-65.5 16t-56 36t-21.5 58.5q0 21 11.5 40.5t26.5 32.5t40 27t40.5 20.5t38.5 15.5q-1 1 -15.5 9.5t-20.5 12.5t-13 13.5t-7 19.5q0 8 3 15.5t9 15t11 13.5t15 13
l15 10.5t15.5 10t12.5 8.5q-44 24 -64.5 52t-20.5 73q0 68 61 118t134 50q26 0 46.5 -4.5t44.5 -13.5t41 -13q18 -5 21 -5q13 0 33 12t31 12q16 0 16 -29q0 -15 -6.5 -26t-17.5 -11q-9 0 -34 12t-45 14q32 -35 32 -84q0 -75 -62 -123.5t-140 -48.5q-24 0 -46 3
q-7 -2 -19 -15t-12 -20q0 -13 19 -22zM296 -55l-127 65q-17 -6 -41 -18t-52 -38t-28 -51q0 -35 26.5 -58.5t58.5 -32t67 -8.5q29 0 59.5 6t58 25.5t27.5 49.5q0 35 -49 60zM356 346q0 35 -17.5 60t-53.5 25q-38 2 -68 -26.5t-44 -67t-14 -73.5q0 -89 73 -89q55 0 89.5 56
t34.5 115z" />
    <glyph glyph-name="h" unicode="h" 
d="M295 760l-141 -527h2q44 69 127 146.5t145 77.5q72 0 72 -87q0 -52 -34 -139t-88.5 -159t-102.5 -72q-24 0 -24 22q0 5 5 20l21 49h69q27 54 50.5 127t23.5 120q0 59 -40 59q-46 0 -116 -76t-100 -132q-33 -61 -60 -171q-4 -16 -43 -16q-32 0 -32 17q0 1 6 31l158 647
l-49 28l3 13q45 6 66 9q30 5 71 17z" />
    <glyph glyph-name="i" unicode="i" horiz-adv-x="278" 
d="M63 313l-14 14q30 45 75 87.5t83 42.5q31 0 31 -25q0 -14 -14 -56l-82 -254q-10 -32 -10 -42q0 -15 13 -15q17 0 76 65l16 -13q-97 -132 -159 -132q-38 0 -38 40q0 12 11 49l86 254q9 25 9 37t-12 12q-23 0 -71 -64zM229 690q18 0 32 -14.5t14 -32.5q0 -17 -14 -31
t-32 -14t-32 14t-14 31q0 18 14 32.5t32 14.5z" />
    <glyph glyph-name="j" unicode="j" horiz-adv-x="278" 
d="M-31 -228l-7 22q43 26 61 95l115 440q8 29 8 36q0 12 -12 12q-23 0 -71 -64l-14 14q30 45 75 87.5t83 42.5q31 0 31 -25q0 -3 -22 -85l-104 -374q-4 -14 -7.5 -25.5t-7 -21.5t-5.5 -16.5t-6.5 -15t-6 -11.5t-7 -11.5t-7 -10t-8.5 -11.5t-9 -13q-28 -40 -79 -65zM229 690
q18 0 32 -14t14 -32t-14 -32t-32 -14t-32 14t-14 32t14 32t32 14z" />
    <glyph glyph-name="k" unicode="k" 
d="M41 7l167 678l-49 30l3 16q80 14 137 33l9 -4l-116 -443h2q34 48 95 94t115 46q34 0 54.5 -19.5t20.5 -54.5q0 -47 -39 -88.5t-87.5 -65t-97.5 -35.5v-2q26 -11 75 -68.5t65 -71.5q19 -16 33.5 -21t40.5 -5q12 0 30 11v-26q-43 -26 -97 -26q-69 0 -119 65l-71 94
q-25 36 -52 42l-49 -180q-5 -20 -37 -20q-14 0 -24.5 6.5t-8.5 14.5zM405 350q0 47 -53 47q-58 0 -115 -65.5t-74 -125.5q14 0 42 2q39 3 84 21t80.5 51t35.5 70z" />
    <glyph glyph-name="l" unicode="l" horiz-adv-x="278" 
d="M292 758l-156 -652q-3 -12 -3 -20q0 -21 13 -21q21 0 77 77l12 -21q-4 -5 -21.5 -29.5t-29 -38t-29.5 -32t-35.5 -27.5t-35.5 -9q-37 0 -37 49q0 21 7 49l140 604l-60 32l5 14q33 3 73 11q34 7 73 20z" />
    <glyph glyph-name="m" unicode="m" horiz-adv-x="833" 
d="M781 137l14 -15l-31 -34q-80 -88 -141 -88q-37 0 -37 34q0 13 12 47l81 232q11 31 11 41q0 11 -7 17.5t-16 6.5q-34 0 -85 -46.5t-90 -93.5q-62 -76 -103 -182l-19 -46q-4 -12 -34 -12q-9 0 -21 4.5t-14 9.5l90 266q17 57 17 74q0 25 -19 25q-25 0 -57.5 -22.5t-46 -36.5
t-42.5 -46q-85 -91 -125 -204l-20 -57q-4 -11 -37 -11q-23 0 -32 13l106 319q4 24 4 25q0 20 -16 20q-23 0 -58 -35l-27 -30l-15 18q103 127 174 127q34 0 34 -35q0 -15 -11 -48l-52 -151h2q50 72 138 153t147 81q45 0 45 -33q0 -21 -11 -54l-48 -149h2q25 32 57.5 67
t75.5 75.5t88 67t78 26.5q40 0 40 -41q0 -21 -10 -49l-80 -234q-14 -45 -14 -47q0 -12 16 -12q12 0 41.5 23t45.5 40z" />
    <glyph glyph-name="n" unicode="n" 
d="M45 313l-15 18q102 126 174 126q34 0 34 -34q0 -15 -11 -48l-52 -151h2q29 42 75.5 92t110 95.5t108.5 45.5q40 0 40 -41q0 -21 -10 -49l-80 -220q-15 -40 -15 -52q0 -21 18 -21t45 24t41 46l17 -13l-36 -44q-71 -87 -139 -87q-19 0 -28.5 9.5t-9.5 23.5q0 25 14 62
l78 213q13 39 13 50q0 19 -23 19q-20 0 -40.5 -9.5t-43 -30.5t-32 -30.5t-30.5 -33.5q-85 -91 -125 -204l-20 -57q-4 -11 -37 -11q-23 0 -32 13l98 295q12 38 12 50q0 18 -16 18q-24 0 -58 -34z" />
    <glyph glyph-name="o" unicode="o" 
d="M48 186q0 108 80 189.5t188 81.5q86 0 139 -57.5t53 -145.5q0 -107 -78.5 -188t-184.5 -81q-90 0 -143.5 55t-53.5 146zM128 152q0 -63 27 -102t89 -39q60 0 104 49.5t62 111t18 118.5q0 61 -26.5 101t-86.5 40q-48 0 -85.5 -27.5t-58.5 -71t-32 -90t-11 -90.5z" />
    <glyph glyph-name="p" unicode="p" 
d="M157 421l32 120l83 24l-31 -126q47 18 110 18q151 0 151 -124q0 -67 -41 -148.5t-110 -140.5t-138 -59q-42 0 -80 29l-49 -195l81 -14l-5 -18q-38 -3 -88 -7q-43 -4 -69 -8l-6 8l152 607q-83 -29 -119 -48l7 39q55 24 120 43zM233 410l-63 -251q-11 -63 -11 -81
q0 -21 15.5 -44t39.5 -23q48 0 97 60.5t77 135t28 125.5q0 38 -18 60t-37 27.5t-42 5.5q-54 0 -86 -15z" />
    <glyph glyph-name="q" unicode="q" 
d="M437 401l23 66l60 19l-169 -679l67 -14l-5 -21q-35 2 -104 2q-80 0 -120 -2l5 24l78 11l97 361h-2q-52 -70 -116.5 -126.5t-126.5 -56.5q-40 0 -64 31t-24 68q0 74 35 145.5t86 120t106 78t96 29.5q59 0 76 -56h2zM324 410q-50 0 -101.5 -48.5t-82 -112.5t-30.5 -114
q0 -35 16 -59.5t49 -24.5q50 0 103.5 51t86.5 118t33 117q0 34 -20 53.5t-54 19.5z" />
    <glyph glyph-name="r" unicode="r" horiz-adv-x="389" 
d="M41 306l-13 17q29 43 74 88.5t77 45.5q41 0 41 -38q0 -15 -10 -52l-38 -137h2q120 227 184 227q31 0 31 -34q0 -24 -10.5 -49t-31.5 -25q-6 0 -18.5 2t-18.5 2q-77 0 -173 -296l-18 -64q-2 -8 -36 -8q-10 0 -21 6t-11 12q0 3 2 9l79 276q12 38 12 59q0 10 -5 18t-14 8
q-30 0 -84 -67z" />
    <glyph glyph-name="s" unicode="s" horiz-adv-x="389" 
d="M37 125h13q7 -39 44.5 -59.5t82.5 -20.5q31 0 60 10t29 35q0 23 -23.5 47.5t-53 42.5t-59.5 42t-39 45q-9 18 -9 46q0 18 10.5 36.5t30.5 35.5t33.5 26.5t34.5 23.5q35 22 74 22q87 0 87 -60q0 -11 -6.5 -28t-14.5 -17h-12q-7 0 -14 15q-7 14 -32 25t-50 11
q-29 0 -52 -15t-23 -42q0 -22 18 -42.5t44.5 -37t52.5 -33.5t44 -41.5t18 -53.5q0 -44 -65 -107q-46 -46 -119 -46q-29 0 -55 5.5t-49 24t-23 48.5q0 20 23 62z" />
    <glyph glyph-name="t" unicode="t" horiz-adv-x="333" 
d="M162 442l38 126h80l-41 -126h107l-12 -41h-106l-87 -289q-6 -18 -6 -31q0 -22 20 -22q37 0 124 87l14 -17q-28 -31 -42.5 -46t-45 -43t-58.5 -41.5t-54 -13.5q-21 0 -32.5 15.5t-11.5 36.5q0 20 13 64l89 300h-98l12 41h97z" />
    <glyph glyph-name="u" unicode="u" 
d="M505 136l14 -14q-3 -3 -14.5 -16t-16.5 -18t-16.5 -17.5t-19 -18.5t-19 -16t-21 -15t-20.5 -10.5t-22 -8t-22 -2.5q-37 0 -37 35q0 19 19 74l60 177h-2q-1 -2 -19.5 -26t-28.5 -36t-32 -39.5t-37.5 -44.5t-38.5 -41t-41.5 -39.5t-39 -30.5t-39 -22t-34.5 -7
q-17 0 -29.5 11.5t-12.5 27.5q0 11 10 43l87 258l4 20v2q0 15 -13 15q-10 0 -23 -8t-21.5 -16.5t-22 -23t-16.5 -17.5l-16 17l34 35q28 28 46 44t45.5 32.5t49.5 16.5q33 0 33 -32q0 -18 -13 -52l-90 -269q-2 -10 -2 -14q0 -10 17 -10q47 0 154.5 135t136.5 211q12 31 34 31
q13 0 45 -29l-109 -326q-3 -7 -3 -14q0 -14 15 -14q12 0 27.5 11t36 29.5t23.5 21.5z" />
    <glyph glyph-name="v" unicode="v" horiz-adv-x="500" 
d="M41 328l-16 16q4 3 34 32.5t44.5 41t41.5 25.5t49 14q33 0 33 -37q0 -19 -12 -57l-68 -229q-12 -34 -12 -52q0 -17 12.5 -27t31.5 -10q56 0 118.5 71t86.5 135q20 51 20 94q0 9 -1 26t-1 26q0 60 45 60q37 0 37 -49q0 -62 -47.5 -147t-101.5 -146q-44 -51 -99 -90.5
t-105 -39.5q-35 0 -55.5 19t-20.5 55q0 22 11 60l61 195q8 29 8 44q0 25 -19 25q-26 0 -75 -55z" />
    <glyph glyph-name="w" unicode="w" horiz-adv-x="778" 
d="M43 315l-15 17q35 42 84 83.5t84 41.5q38 0 38 -31q0 -11 -4 -23l-94 -289q-4 -15 -4 -28q0 -21 22 -21q39 0 121 78t100 111q41 150 68 177q14 16 49 24q17 -4 32 -25q-3 -31 -18 -64q-11 -25 -49 -78l-40 -171q-4 -16 -4 -28q0 -44 40 -44q85 0 179 143q51 78 51 144
q0 12 -4 36t-4 37q0 18 14 34t32 16q42 0 42 -56q0 -61 -51 -146.5t-110 -153.5q-40 -44 -96 -79t-106 -35q-30 0 -48.5 18.5t-18.5 46.5q0 21 5 45t13.5 53t11.5 45h-2q-8 -8 -40 -40.5t-57 -56.5t-58 -52t-62 -43.5t-51 -15.5q-41 0 -41 53q0 27 9 60l71 242q2 6 2 15
q0 16 -14 16q-5 0 -13 -4.5t-18 -12.5t-18 -14.5t-17 -14.5t-11 -10z" />
    <glyph glyph-name="x" unicode="x" 
d="M274 80l-29 98l-68 -96q-26 -36 -60.5 -66.5t-61.5 -30.5q-26 0 -39.5 15.5t-13.5 36.5q0 22 14.5 40.5t35.5 26.5l11 -7q-2 -10 -2 -14q0 -24 26 -24q34 0 80 59l69 90l-26 89q-24 80 -63 80q-40 0 -69 -63l-19 10q16 53 48 93t77 40q52 0 79 -80l29 -89l49 65
q36 47 68.5 74t68.5 27q19 0 31 -13t12 -32q0 -45 -48 -69l-8 5q-2 10 -4.5 15t-9.5 9.5t-19 4.5q-37 0 -87 -64l-43 -57l36 -121q5 -19 7.5 -25.5t8.5 -20t14.5 -19t20.5 -5.5q14 0 27.5 8.5t20 16t19 25.5t15.5 22l16 -12q-2 -3 -15 -26t-19 -32t-20 -28.5t-25 -28
t-26.5 -16.5t-30.5 -8q-22 0 -38.5 17t-23 34t-15.5 46z" />
    <glyph glyph-name="y" unicode="y" horiz-adv-x="500" 
d="M60 299l-9 -7l-24 14q0 59 26.5 105t81.5 46q40 0 68.5 -32t43 -85.5t23 -104t14.5 -108.5t10 -78l22 38.5t25.5 45.5t22 43.5t21 48.5t12.5 44t6 46q0 20 -6 44.5t-6 37.5q0 24 12.5 42t34.5 18q39 0 39 -53q0 -74 -83 -233t-149 -242q-1 -2 -16.5 -22t-20.5 -26
t-20.5 -25t-24 -27t-24.5 -21.5t-28 -19.5t-27 -11t-30 -5q-16 0 -28.5 12t-12.5 28q0 18 9.5 29.5t26.5 11.5q6 0 20 -3.5t22 -3.5q43 0 85 48l54 63l-3 52l-9 83q-7 50 -16.5 95t-23.5 92.5t-34 75.5t-43 28q-21 0 -34.5 -13t-13.5 -33t7 -38z" />
    <glyph glyph-name="z" unicode="z" horiz-adv-x="444" 
d="M31 55l288 296q-42 -3 -112 28q-29 12 -57 12q-18 0 -32 -11t-14 -27l5 -11q5 -12 4 -19q-3 -22 -23 -22q-13 0 -19.5 10.5t-6.5 23.5q0 25 33 58q62 64 104 64q25 0 80 -26t75 -26q18 0 27 6q3 1 4.5 3t1.5 3.5t0.5 5t0.5 5.5q2 35 28 35q19 0 19 -20q0 -9 -17 -30.5
t-35 -38.5l-260 -269q33 3 108.5 -52.5t98.5 -55.5q17 0 27 10.5t3 26.5q0 3 -7.5 18t-7.5 22t7.5 14.5t18.5 7.5q12 0 19.5 -11t7.5 -24q0 -46 -36.5 -88t-81.5 -42q-25 0 -63.5 31.5t-76 63.5t-62.5 32q-9 0 -18 -5.5t-9 -13.5q0 -11 3.5 -20t3.5 -13q0 -19 -21 -21
q-11 -1 -18.5 7t-7.5 20q0 25 18 43z" />
    <glyph glyph-name="braceleft" unicode="{" horiz-adv-x="333" 
d="M149 380l34 186q16 88 57 117.5t117 29.5l-3 -14q-47 -10 -70.5 -40.5t-33.5 -86.5l-32 -177q-11 -60 -32.5 -90.5t-72.5 -43.5l-1 -2q63 -18 63 -76q0 -25 -6 -58l-32 -177q-5 -30 -5 -48q0 -64 63 -79l-3 -14q-64 0 -95 19t-31 73q0 23 6 55l34 186q5 30 5 47
q0 54 -59 73q47 14 67.5 40.5t29.5 79.5z" />
    <glyph glyph-name="bar" unicode="|" horiz-adv-x="222" 
d="M93 -15v779h66v-779h-66z" />
    <glyph glyph-name="braceright" unicode="}" horiz-adv-x="333" 
d="M198 140l-34 -186q-16 -88 -57 -117.5t-117 -29.5l3 14q47 10 70.5 40.5t33.5 86.5l32 177q11 61 33 91t73 43v2q-63 17 -63 72q0 26 6 62l33 177q5 28 5 46q0 66 -63 81l2 14q65 0 95.5 -20t30.5 -78q0 -17 -5 -49l-34 -186q-5 -26 -5 -53q0 -48 59 -67
q-48 -14 -68.5 -40.5t-29.5 -79.5z" />
    <glyph glyph-name="asciitilde" unicode="~" 
d="M473 291l36 -50q-20 -27 -33 -42t-38 -29.5t-54 -14.5q-39 0 -106 33t-111 33q-52 0 -84 -70l-36 50q45 86 125 86q45 0 117 -33t96 -33q27 0 46.5 18t41.5 52z" />
    <glyph glyph-name="uni00A0" unicode="&#xa0;" horiz-adv-x="278" 
 />
    <glyph glyph-name="exclamdown" unicode="&#xa1;" horiz-adv-x="333" 
d="M167 282h20l-38 -305q-22 -178 -87 -178q-22 0 -33 15t-11 38q0 41 33 130zM199 485q27 0 46.5 -19t19.5 -46q0 -26 -20 -46.5t-46 -20.5t-46 20t-20 47t19.5 46t46.5 19z" />
    <glyph glyph-name="cent" unicode="&#xa2;" 
d="M422 146l14 -19q-105 -118 -202 -137l-36 -132h-34l35 128q-4 -1 -9 -1q-58 0 -90.5 38t-32.5 98q0 108 74.5 194t180.5 122l34 125h35l-31 -113q26 8 41 8q49 0 49 -41q0 -19 -14 -35t-32 -16q-14 0 -32.5 12t-27.5 14l-96 -352q74 2 174 107zM215 43l96 352
q-44 -3 -83.5 -52t-60 -106.5t-20.5 -98.5q0 -82 68 -95z" />
    <glyph glyph-name="sterling" unicode="&#xa3;" 
d="M186 368h-112l8 41h110q10 52 15.5 76t17.5 65.5t29 72.5t41 60q52 62 110 75q24 6 43 6q34 0 60.5 -14t26.5 -45q0 -17 -10 -28t-26 -11q-9 0 -23 6q-2 7 -3.5 16.5t-4.5 16t-10 13.5q-17 15 -37 15q-32 0 -55 -25t-36.5 -67.5t-21 -82.5t-13.5 -86.5t-10 -62.5h136
l-8 -41h-135q-28 -146 -107 -251q5 0 17.5 3t19.5 3q40 0 79.5 -22.5t73.5 -45.5t59 -23q21 0 35.5 13t14.5 33t-9.5 28.5t-31.5 17.5q5 43 40 43q21 0 31 -17t10 -39q0 -55 -44.5 -90.5t-100.5 -35.5q-37 0 -69.5 15t-51.5 33.5t-43.5 33.5t-47.5 15q-6 -6 -25 -30t-36 -38
t-35 -14q-20 0 -20 19q0 28 31.5 55t62.5 37q1 1 16 33q18 40 39 224z" />
    <glyph glyph-name="currency" unicode="&#xa4;" 
d="M99 495l-57 57l44 44l56 -55q63 52 153 52q87 0 148 -52l56 55l44 -44l-57 -57q55 -54 55 -150q0 -89 -52 -150l55 -57l-43 -43l-54 57q-62 -55 -152 -55q-92 0 -156 55l-54 -57l-43 43l55 57q-52 64 -52 150q0 95 54 150zM111 345q0 -77 54 -132.5t130 -55.5
q75 0 127.5 56.5t52.5 131.5t-53 131.5t-127 56.5q-76 0 -130 -55.5t-54 -132.5z" />
    <glyph glyph-name="yen" unicode="&#xa5;" 
d="M245 331l-127 292q-16 35 -42 43q-17 5 -53 5l5 27q60 -3 122 -3q22 0 65.5 1.5t65.5 1.5l-5 -26q-19 0 -28.5 -0.5t-21 -2.5t-16.5 -6.5t-5 -12.5q0 -10 7 -26l123 -292l157 243q38 59 38 78t-79 19l5 26q58 -3 120 -3q36 0 74 3l-5 -26q-35 0 -77 -62l-189 -279h103
l-8 -41h-125q-7 -12 -8 -20l-10 -57h130l-8 -41h-130l-16 -87q-2 -14 -2 -26t6.5 -19t21 -10t25.5 -3.5t32 -0.5h16l-5 -26q-25 0 -77 1t-77 1q-43 0 -129 -2l5 26h11q51 0 66.5 9t20.5 36l20 101h-132l8 41h132l14 72l-3 5h-126l8 41h103z" />
    <glyph glyph-name="brokenbar" unicode="&#xa6;" horiz-adv-x="222" 
d="M93 -15v282h66v-282h-66zM93 482v282h66v-282h-66z" />
    <glyph glyph-name="section" unicode="&#xa7;" 
d="M429 114q0 -121 -87 -213q-38 -41 -90 -67.5t-104 -26.5q-33 0 -66 15.5t-33 44.5q0 18 10 29.5t28 11.5t31 -17t27.5 -34.5t36.5 -17.5q51 0 75 45.5t23 107.5q0 82 -68 218q-2 5 -12.5 28.5t-14 31.5t-12 28.5t-11.5 32.5t-8 29.5t-6.5 33t-1.5 31.5q0 120 90 203
q86 85 169 85q38 0 67 -16t29 -44q0 -46 -38 -46q-15 0 -25.5 11.5t-15.5 25.5t-17 25.5t-30 11.5q-41 0 -60.5 -35.5t-19.5 -85.5q0 -82 66 -223q23 -50 33.5 -75t22.5 -68t12 -80zM327 27q0 -66 -34 -129l2 -2q87 84 87 202q0 12 -1 24t-4 25.5t-5 23t-7.5 24.5t-8 22
t-10 24t-9 21.5t-10.5 24t-10 21.5q-4 10 -15.5 34t-16 34t-12.5 30.5t-12 34t-8 32.5t-5 38q0 47 31 116l-2 2q-84 -79 -84 -184q0 -35 11 -75.5t23 -67t33 -69.5q67 -147 67 -206z" />
    <glyph glyph-name="dieresis" unicode="&#xa8;" horiz-adv-x="278" 
d="M64 610q0 21 14 35t34 14q21 0 35.5 -14t14.5 -35q0 -20 -14.5 -34.5t-35.5 -14.5q-20 0 -34 14.5t-14 34.5zM264 610q0 21 14 35t34 14q21 0 35.5 -14t14.5 -35q0 -20 -14.5 -34.5t-35.5 -14.5q-20 0 -34 14.5t-14 34.5z" />
    <glyph glyph-name="copyright" unicode="&#xa9;" horiz-adv-x="800" 
d="M400 -15q-152 0 -258 106t-106 255q0 153 106 260t258 107q153 0 258.5 -107t105.5 -260q0 -149 -106 -255t-258 -106zM400 32q127 0 216 94t89 220q0 130 -88.5 225t-216.5 95q-127 0 -216 -95t-89 -225q0 -126 89.5 -220t215.5 -94zM562 260h18l-17 -74q-1 -12 -28 -20
q-54 -18 -113 -18q-101 0 -164.5 52t-63.5 158q0 76 61 140t174 64q50 0 111 -19q22 -7 22 -22v-74h-20q-4 39 -32 67t-84 28q-75 0 -113.5 -49.5t-38.5 -130.5q0 -89 38.5 -141.5t119.5 -52.5q92 0 130 92z" />
    <glyph glyph-name="ordfeminine" unicode="&#xaa;" horiz-adv-x="325" 
d="M343 508l10 -8q-3 -3 -20 -21.5t-27 -27.5t-26.5 -18.5t-30.5 -9.5q-8 0 -15 5t-7 12q0 11 5 27.5t14.5 40t11.5 30.5v2l-2 -2l-1 2q-3 -3 -25 -31t-36 -42t-40.5 -29t-53.5 -15q-44 0 -44 58q0 66 75 145t140 79q24 0 41 -20q2 3 4.5 9t4.5 9.5t6 6.5t9 3h8.5t5.5 -0.5
t4 -1.5t1 -3l-66 -213q-3 -9 -3 -12q0 -6 8 -6q9 0 17 5t19 15t13 11zM109 508q0 -11 8 -21t25 -10q44 -1 93.5 62.5t49.5 106.5q0 11 -9.5 19t-22.5 8q-52 0 -98 -58t-46 -107zM256 538h1h-1z" />
    <glyph glyph-name="guillemotleft" unicode="&#xab;" 
d="M472 421l15 -14l-141 -163l83 -167l-17 -10l-152 177zM312 421l15 -14l-141 -163l83 -167l-17 -10l-152 177z" />
    <glyph glyph-name="logicalnot" unicode="&#xac;" 
d="M433 76v212h-376v66h442v-278h-66z" />
    <glyph glyph-name="uni00AD" unicode="&#xad;" horiz-adv-x="333" 
d="M39 206l18 66h236l-16 -66h-238z" />
    <glyph glyph-name="registered" unicode="&#xae;" horiz-adv-x="800" 
d="M400 -15q-152 0 -258 106t-106 255q0 153 106 260t258 107q153 0 258.5 -107t105.5 -260q0 -149 -106 -255t-258 -106zM400 32q127 0 216 94t89 220q0 130 -88.5 225t-216.5 95q-127 0 -216 -95t-89 -225q0 -126 89.5 -220t215.5 -94zM401 173v-14h-172v14q43 6 48 12
q5 7 5 21v276q0 36 -6 42t-45 10v16h186q52 0 87.5 -25t35.5 -72q0 -40 -23.5 -69.5t-62.5 -41.5l60 -84q48 -66 80 -91v-8h-67q-15 0 -30 18t-45 70t-52 85h-52v-126q0 -20 8 -24t45 -9zM348 530v-178h47q71 0 71 96q0 82 -73 82h-45z" />
    <glyph glyph-name="macron" unicode="&#xaf;" horiz-adv-x="278" 
d="M346 586h-259l8 47h259z" />
    <glyph glyph-name="degree" unicode="&#xb0;" horiz-adv-x="400" 
d="M245 705q60 0 101.5 -41.5t41.5 -101.5t-41.5 -101.5t-101.5 -41.5t-101.5 41.5t-41.5 101.5t41.5 101.5t101.5 41.5zM161 562q0 -41 26 -65t58 -24t58 24t26 65t-26 65t-58 24t-58 -24t-26 -65z" />
    <glyph glyph-name="plusminus" unicode="&#xb1;" 
d="M245 299v110h66v-110h188v-66h-188v-110h-66v110h-188v66h188zM57 0v66h442v-66h-442z" />
    <glyph glyph-name="twosuperior" unicode="&#xb2;" horiz-adv-x="361" 
d="M97 336h202l21 35l14 -4l-25 -85q-43 1 -130 1q-92 0 -138 -1q-7 0 -7 6q0 2 0.5 8t0.5 10q1 4 6 9l86 74q135 119 135 199q0 33 -18 54.5t-51 21.5q-11 0 -21 -2t-17 -4.5t-16 -8t-14 -9t-14.5 -10.5t-14.5 -10l-10 14q35 34 65 52.5t69 18.5q49 0 78.5 -25t29.5 -69
q0 -32 -15.5 -64t-45 -63t-54.5 -53t-63.5 -52.5t-52.5 -42.5z" />
    <glyph glyph-name="threesuperior" unicode="&#xb3;" horiz-adv-x="361" 
d="M140 492l3 20q40 2 79.5 27.5t39.5 62.5v4q0 29 -16.5 48t-47.5 19q-8 0 -16 -1.5t-13.5 -3.5t-14 -6.5t-11.5 -7t-12.5 -9t-12.5 -8.5l-11 11q34 30 60 43.5t62 13.5q43 0 71 -21.5t28 -57.5q0 -46 -32.5 -72.5t-85.5 -44.5v-2q105 -12 105 -95q0 -58 -54.5 -98.5
t-121.5 -40.5q-61 0 -101 25l-7 34l27 8q21 -47 74 -47q44 0 76.5 35t32.5 78q0 42 -23.5 64.5t-61.5 22.5q-11 0 -16 -1z" />
    <glyph glyph-name="acute" unicode="&#xb4;" horiz-adv-x="278" 
d="M174 546h-26l152 148q25 19 34 19q12 0 22 -10t10 -23q0 -17 -35 -39l-115 -75q-29 -20 -42 -20z" />
    <glyph glyph-name="mu" unicode="&#xb5;" 
d="M48 82l85 258l4 20v2q0 15 -13 15q-10 0 -23 -8t-21.5 -16.5t-22 -23t-16.5 -17.5l-16 17l34 35q28 28 46 44t45.5 32.5t49.5 16.5q33 0 33 -32q0 -18 -13 -52l-90 -269q-2 -10 -2 -14q0 -10 17 -10q33 0 100.5 73t122 155t68.5 118q12 31 34 31q13 0 45 -29l-109 -326
q-3 -7 -3 -14q0 -14 15 -14q12 0 27.5 11t36 29.5t23.5 21.5l14 -14q-3 -3 -14.5 -16t-16.5 -18t-16.5 -17.5t-19 -18.5t-19 -16t-21 -15t-20.5 -10.5t-22 -8t-22 -2.5q-37 0 -37 35q0 23 19 74l65 174h-2q-5 -6 -56 -67t-87 -100t-87 -77.5t-85 -38.5q-6 -31 -13 -89
t-10 -77q0 -1 -1 -8t-1.5 -9.5t-2.5 -9t-3.5 -9t-4.5 -8t-6.5 -8t-8.5 -5.5t-11 -4t-14 -1q-16 0 -24.5 9t-8.5 23q0 22 9 59t18.5 66t27 80.5t24.5 72.5z" />
    <glyph glyph-name="paragraph" unicode="&#xb6;" 
d="M517 620l-151 -723q-2 -8 -2 -20t8.5 -18.5t21 -9.5t44.5 -7l-5 -20h-148l174 844h-93l-174 -844h-148l5 20q6 1 20 2.5t19 2.5t15 3.5t14 5.5t10 8.5t9.5 13t5.5 18.5l78 377q-78 2 -117 44t-39 112q0 107 68 188t174 81h309l-4 -20q-28 -4 -35.5 -5t-23 -5t-19 -9.5
t-8.5 -14.5t-8 -24zM230 320l69 346h-7q-40 0 -70.5 -22.5t-47 -59t-25.5 -73t-11 -74.5q-1 -58 25 -87.5t67 -29.5z" />
    <glyph glyph-name="periodcentered" unicode="&#xb7;" horiz-adv-x="278" 
d="M205 295q0 -26 -19.5 -46t-45.5 -20q-28 0 -47.5 19.5t-19.5 46.5q0 28 19.5 47t46.5 19t46.5 -19.5t19.5 -46.5z" />
    <glyph glyph-name="cedilla" unicode="&#xb8;" horiz-adv-x="278" 
d="M32 -92l63 93h36l-44 -65l2 -2q8 5 31 5q30 0 49.5 -17t19.5 -49q0 -45 -34.5 -65.5t-82.5 -20.5q-45 0 -90 21l18 26q36 -15 56 -15q26 0 46.5 11t20.5 35q0 19 -13 30.5t-32 11.5q-21 0 -39 -9z" />
    <glyph glyph-name="onesuperior" unicode="&#xb9;" horiz-adv-x="361" 
d="M219 651l-106 -49l-10 15l176 88l12 -3l-69 -356q-5 -19 -5 -31q0 -13 27 -14h52l-4 -18h-112q-72 0 -109 -1l4 19q16 1 46 1q28 0 31 23z" />
    <glyph glyph-name="ordmasculine" unicode="&#xba;" horiz-adv-x="361" 
d="M70 543q0 65 52.5 113.5t125.5 48.5q58 0 93 -34.5t35 -87.5q0 -63 -51.5 -111.5t-122.5 -48.5q-61 0 -96.5 33t-35.5 87zM129 522q0 -34 17 -56.5t55 -22.5q54 0 85 54t31 108q0 33 -17 56.5t-53 23.5q-57 0 -87.5 -53.5t-30.5 -109.5z" />
    <glyph glyph-name="guillemotright" unicode="&#xbb;" 
d="M244 67l-15 14l141 163l-83 167l17 10l152 -177zM84 67l-15 14l141 163l-83 167l17 10l152 -177z" />
    <glyph glyph-name="onequarter" unicode="&#xbc;" horiz-adv-x="834" 
d="M595 0l27 139h-188l3 29l270 255h34l-49 -237h62l-8 -47h-62l-27 -139h-62zM168 -23l448 736h47l-447 -736h-48zM228 651l-106 -49l-10 15l176 88l12 -3l-69 -356q-5 -19 -5 -31q0 -13 27 -14h52l-4 -18h-112q-72 0 -109 -1l4 19q16 1 46 1q28 0 31 23zM630 186l36 164
h-2l-177 -164h143z" />
    <glyph glyph-name="onehalf" unicode="&#xbd;" horiz-adv-x="834" 
d="M510 54h202l21 35l14 -4l-25 -85q-43 1 -130 1q-92 0 -138 -1q-7 0 -7 6q0 2 0.5 8t0.5 10q1 4 6 9l86 74q135 119 135 199q0 33 -18 54.5t-51 21.5q-11 0 -21 -2t-17 -4.5t-16 -8t-14 -9t-14.5 -10.5t-14.5 -10l-10 14q35 34 65 52.5t69 18.5q49 0 78.5 -25t29.5 -69
q0 -32 -15.5 -64t-45 -63t-54.5 -53t-63.5 -52.5t-52.5 -42.5zM167 -23l448 736h47l-447 -736h-48zM234 651l-106 -49l-10 15l176 88l6 -3l-69 -356q-5 -19 -5 -31q0 -13 27 -14h52l-4 -18h-106q-72 0 -109 -1l4 19q16 1 46 1q28 0 31 23z" />
    <glyph glyph-name="threequarters" unicode="&#xbe;" horiz-adv-x="834" 
d="M602 0l27 139h-188l3 29l270 255h34l-49 -237h62l-8 -47h-62l-27 -139h-62zM181 492l3 20q40 2 80 27.5t39 63.5q1 30 -15.5 50t-48.5 20q-8 0 -16 -1.5t-13.5 -3.5t-14 -6.5t-11.5 -7t-12.5 -9t-12.5 -8.5l-11 11q34 30 60 43.5t62 13.5q43 0 71 -21.5t28 -57.5
q0 -46 -32.5 -72.5t-85.5 -44.5v-2q105 -12 105 -95q0 -58 -54.5 -98.5t-121.5 -40.5q-61 0 -101 25l-7 34l27 8q21 -47 74 -47q44 0 76.5 35t32.5 78q0 46 -28.5 68.5t-72.5 17.5zM205 -23l448 736h47l-447 -736h-48zM637 186l36 164h-2l-177 -164h143z" />
    <glyph glyph-name="questiondown" unicode="&#xbf;" horiz-adv-x="444" 
d="M232 -157q14 0 22.5 -9t8.5 -23q0 -39 -62 -39q-64 0 -113 45t-49 108q0 53 27 87.5t59.5 46t77.5 24.5t63 23q37 22 37 64q0 31 -25 46.5t-49 15.5q-9 0 -19.5 -2.5t-14.5 -2.5q-22 0 -22 25q0 40 33 40q34 0 76 -37q20 -18 41 -59t21 -66q0 -50 -27 -79t-66 -40.5
t-78 -21.5t-66 -31.5t-27 -60.5q0 -33 18 -51t51 -18q19 0 45.5 7.5t37.5 7.5zM293 485q27 0 46.5 -19t19.5 -46q0 -26 -20 -46.5t-46 -20.5t-46 20t-20 47t19.5 46t46.5 19z" />
    <glyph glyph-name="Agrave" unicode="&#xc0;" horiz-adv-x="722" 
d="M97 93l344 609q24 6 36 11l6 -4l110 -621q9 -66 72 -62l-5 -26q-21 0 -63 1t-63 1q-36 0 -108 -2l5 26q11 -1 24 0t24.5 3.5t17.5 11.5t4 23l-30 198h-234l-82 -170q-11 -24 -11 -36q0 -30 43 -30h30l-5 -26q-20 0 -59.5 1t-58.5 1q-30 0 -92 -2l5 26q33 -1 53 16.5
t37 50.5zM420 601l-161 -298h207l-44 298h-2zM400 888l121 -151h-21q-6 0 -17 8l-117 88q-29 24 -29 39q0 11 9.5 21.5t20.5 10.5q19 0 33 -16z" />
    <glyph glyph-name="Aacute" unicode="&#xc1;" horiz-adv-x="722" 
d="M97 93l344 609q24 6 36 11l6 -4l110 -621q9 -66 72 -62l-5 -26q-21 0 -63 1t-63 1q-36 0 -108 -2l5 26q11 -1 24 0t24.5 3.5t17.5 11.5t4 23l-30 198h-234l-82 -170q-11 -24 -11 -36q0 -30 43 -30h30l-5 -26q-20 0 -59.5 1t-58.5 1q-30 0 -92 -2l5 26q33 -1 53 16.5
t37 50.5zM420 601l-161 -298h207l-44 298h-2zM423 737h-26l152 148q25 19 34 19q12 0 22 -10t10 -23q0 -17 -35 -39l-115 -75q-29 -20 -42 -20z" />
    <glyph glyph-name="Acircumflex" unicode="&#xc2;" horiz-adv-x="722" 
d="M97 93l344 609q24 6 36 11l6 -4l110 -621q9 -66 72 -62l-5 -26q-21 0 -63 1t-63 1q-36 0 -108 -2l5 26q11 -1 24 0t24.5 3.5t17.5 11.5t4 23l-30 198h-234l-82 -170q-11 -24 -11 -36q0 -30 43 -30h30l-5 -26q-20 0 -59.5 1t-58.5 1q-30 0 -92 -2l5 26q33 -1 53 16.5
t37 50.5zM420 601l-161 -298h207l-44 298h-2zM505 904l88 -167h-33l-82 107l-135 -107h-37l161 167h38z" />
    <glyph glyph-name="Atilde" unicode="&#xc3;" horiz-adv-x="722" 
d="M97 93l344 609q24 6 36 11l6 -4l110 -621q9 -66 72 -62l-5 -26q-21 0 -63 1t-63 1q-36 0 -108 -2l5 26q11 -1 24 0t24.5 3.5t17.5 11.5t4 23l-30 198h-234l-82 -170q-11 -24 -11 -36q0 -30 43 -30h30l-5 -26q-20 0 -59.5 1t-58.5 1q-30 0 -92 -2l5 26q33 -1 53 16.5
t37 50.5zM420 601l-161 -298h207l-44 298h-2zM328 759h-27q10 41 38.5 68.5t69.5 27.5q22 0 70 -22t62 -22q35 0 59 49h26q-5 -38 -36 -69t-69 -31q-20 0 -68 22q-54 26 -65 26q-23 0 -35.5 -11.5t-24.5 -37.5z" />
    <glyph glyph-name="Adieresis" unicode="&#xc4;" horiz-adv-x="722" 
d="M97 93l344 609q24 6 36 11l6 -4l110 -621q9 -66 72 -62l-5 -26q-21 0 -63 1t-63 1q-36 0 -108 -2l5 26q11 -1 24 0t24.5 3.5t17.5 11.5t4 23l-30 198h-234l-82 -170q-11 -24 -11 -36q0 -30 43 -30h30l-5 -26q-20 0 -59.5 1t-58.5 1q-30 0 -92 -2l5 26q33 -1 53 16.5
t37 50.5zM420 601l-161 -298h207l-44 298h-2zM313 801q0 21 14 35t34 14q21 0 35.5 -14t14.5 -35q0 -20 -14.5 -34.5t-35.5 -14.5q-20 0 -34 14.5t-14 34.5zM513 801q0 21 14 35t34 14q21 0 35.5 -14t14.5 -35q0 -20 -14.5 -34.5t-35.5 -14.5q-20 0 -34 14.5t-14 34.5z" />
    <glyph glyph-name="Aring" unicode="&#xc5;" horiz-adv-x="722" 
d="M97 93l344 609q24 6 36 11l6 -4l110 -621q9 -66 72 -62l-5 -26q-21 0 -63 1t-63 1q-36 0 -108 -2l5 26q11 -1 24 0t24.5 3.5t17.5 11.5t4 23l-30 198h-234l-82 -170q-11 -24 -11 -36q0 -30 43 -30h30l-5 -26q-20 0 -59.5 1t-58.5 1q-30 0 -92 -2l5 26q33 -1 53 16.5
t37 50.5zM420 601l-161 -298h207l-44 298h-2zM464 731q-40 0 -69 28.5t-29 69.5t29 69.5t69 28.5t69 -28.5t29 -69.5t-29 -69.5t-69 -28.5zM464 763q27 0 46.5 19.5t19.5 46.5t-19.5 46.5t-46.5 19.5t-46.5 -19.5t-19.5 -46.5t19.5 -46.5t46.5 -19.5z" />
    <glyph glyph-name="AE" unicode="&#xc6;" horiz-adv-x="1000" 
d="M-1 0l5 26h9q23 0 44.5 16.5t56.5 67.5l356 516q9 14 9 24q0 13 -15.5 17.5t-51.5 4.5h-14l5 26q121 -4 268 -2q40 0 121 1t122 1l-21 -139h-20v44q0 27 -15 40t-54.5 18t-124.5 5h-40l-49 -284h85q39 -1 61 8t30 37l13 48h23l-41 -227h-22l3 39q3 32 -17.5 43t-66.5 11
h-75l-33 -224q-6 -39 -6 -46q0 -21 30 -30t67 -9h53q68 0 109 27.5t58 102.5h26l-41 -162q-83 2 -249 2q-169 0 -254 -2l7 26h16q51 2 67.5 21.5t28.5 89.5l35 204h-179l-172 -269q-9 -12 -9 -23q0 -23 49 -23h15l-5 -26q-17 0 -51.5 1t-51.5 1q-32 0 -94 -2zM346 382h157
l46 270q2 12 -3 12q-2 0 -4.5 -1.5t-3.5 -2.5t-2.5 -4.5t-2.5 -4.5z" />
    <glyph glyph-name="Ccedilla" unicode="&#xc7;" horiz-adv-x="722" 
d="M304 -92l55 82q-122 19 -196.5 108t-74.5 223q0 162 116.5 277t277.5 115q51 0 89 -7.5t55 -16t31.5 -16t24.5 -7.5q5 0 9.5 2.5t7 4.5t7.5 7t7 6l12 -7l-33 -176l-20 6q7 78 -39 124q-48 48 -131 48q-73 0 -134 -33t-98 -85.5t-57.5 -115.5t-20.5 -126q0 -136 59 -220
t171 -84q90 0 145.5 46t94.5 136l22 -5l-40 -170q-12 8 -27 8q-6 0 -17 -3.5t-27.5 -10.5t-23.5 -10q-62 -23 -128 -23q-5 0 -14.5 0.5t-13.5 0.5l-34 -50l2 -2q8 5 31 5q30 0 49.5 -17t19.5 -49q0 -45 -34.5 -65.5t-82.5 -20.5q-45 0 -90 21l18 26q36 -15 56 -15
q26 0 46.5 11t20.5 35q0 19 -13 30.5t-32 11.5q-21 0 -39 -9z" />
    <glyph glyph-name="Egrave" unicode="&#xc8;" horiz-adv-x="667" 
d="M19 0l5 26h14q43 -1 58 15t22 52l94 515q2 9 2 25q0 15 -16 27t-49 12h-20l5 26q27 0 112 -2t131 -2t130.5 2t111.5 2l-11 -139h-20v24q0 52 -32 67.5t-122 15.5h-122l-52 -284h130q84 -2 97 45l13 48h17l-41 -227h-16l3 39q3 32 -18 43t-72 11h-119l-39 -223
q-5 -32 -5 -38q0 -48 57 -48h157q29 0 49.5 2.5t37 10.5t27 16t22 27t18.5 34t20 46h23l-45 -168q-14 0 -142.5 1t-194.5 1q-74 0 -220 -2zM346 888l121 -151h-21q-6 0 -17 8l-117 88q-29 24 -29 39q0 11 9.5 21.5t20.5 10.5q19 0 33 -16z" />
    <glyph glyph-name="Eacute" unicode="&#xc9;" horiz-adv-x="667" 
d="M19 0l5 26h14q43 -1 58 15t22 52l94 515q2 9 2 25q0 15 -16 27t-49 12h-20l5 26q27 0 112 -2t131 -2t130.5 2t111.5 2l-11 -139h-20v24q0 52 -32 67.5t-122 15.5h-122l-52 -284h130q84 -2 97 45l13 48h17l-41 -227h-16l3 39q3 32 -18 43t-72 11h-119l-39 -223
q-5 -32 -5 -38q0 -48 57 -48h157q29 0 49.5 2.5t37 10.5t27 16t22 27t18.5 34t20 46h23l-45 -168q-14 0 -142.5 1t-194.5 1q-74 0 -220 -2zM369 737h-26l152 148q25 19 34 19q12 0 22 -10t10 -23q0 -17 -35 -39l-115 -75q-29 -20 -42 -20z" />
    <glyph glyph-name="Ecircumflex" unicode="&#xca;" horiz-adv-x="667" 
d="M19 0l5 26h14q43 -1 58 15t22 52l94 515q2 9 2 25q0 15 -16 27t-49 12h-20l5 26q27 0 112 -2t131 -2t130.5 2t111.5 2l-11 -139h-20v24q0 52 -32 67.5t-122 15.5h-122l-52 -284h130q84 -2 97 45l13 48h17l-41 -227h-16l3 39q3 32 -18 43t-72 11h-119l-39 -223
q-5 -32 -5 -38q0 -48 57 -48h157q29 0 49.5 2.5t37 10.5t27 16t22 27t18.5 34t20 46h23l-45 -168q-14 0 -142.5 1t-194.5 1q-74 0 -220 -2zM451 904l88 -167h-33l-82 107l-135 -107h-37l161 167h38z" />
    <glyph glyph-name="Edieresis" unicode="&#xcb;" horiz-adv-x="667" 
d="M19 0l5 26h14q43 -1 58 15t22 52l94 515q2 9 2 25q0 15 -16 27t-49 12h-20l5 26q27 0 112 -2t131 -2t130.5 2t111.5 2l-11 -139h-20v24q0 52 -32 67.5t-122 15.5h-122l-52 -284h130q84 -2 97 45l13 48h17l-41 -227h-16l3 39q3 32 -18 43t-72 11h-119l-39 -223
q-5 -32 -5 -38q0 -48 57 -48h157q29 0 49.5 2.5t37 10.5t27 16t22 27t18.5 34t20 46h23l-45 -168q-14 0 -142.5 1t-194.5 1q-74 0 -220 -2zM459 801q0 21 14 35t34 14q21 0 35.5 -14t14.5 -35q0 -20 -14.5 -34.5t-35.5 -14.5q-20 0 -34 14.5t-14 34.5zM259 801q0 21 14 35
t34 14q21 0 35.5 -14t14.5 -35q0 -20 -14.5 -34.5t-35.5 -14.5q-20 0 -34 14.5t-14 34.5z" />
    <glyph glyph-name="Igrave" unicode="&#xcc;" horiz-adv-x="389" 
d="M23 0l5 26h17q41 0 53 12.5t23 58.5l97 529q3 16 -1.5 26.5t-16.5 14.5t-20 4.5t-23 0.5h-6h-18l5 26q50 -2 147 -2q19 0 58 1t59 1l-5 -26h-19h-4h-8t-8.5 -0.5t-9.5 -1.5t-9.5 -3t-10 -5t-8.5 -7.5t-7 -11t-5 -14.5l-98 -533q-8 -44 5 -57t61 -13h15l-5 -26
q-22 0 -66.5 1t-66.5 1q-44 0 -130 -2zM232 888l121 -151h-21q-6 0 -17 8l-117 88q-29 24 -29 39q0 11 9.5 21.5t20.5 10.5q19 0 33 -16z" />
    <glyph glyph-name="Iacute" unicode="&#xcd;" horiz-adv-x="389" 
d="M23 0l5 26h17q41 0 53 12.5t23 58.5l97 529q3 16 -1.5 26.5t-16.5 14.5t-20 4.5t-23 0.5h-6h-18l5 26q50 -2 147 -2q19 0 58 1t59 1l-5 -26h-19h-4h-8t-8.5 -0.5t-9.5 -1.5t-9.5 -3t-10 -5t-8.5 -7.5t-7 -11t-5 -14.5l-98 -533q-8 -44 5 -57t61 -13h15l-5 -26
q-22 0 -66.5 1t-66.5 1q-44 0 -130 -2zM255 737h-26l152 148q25 19 34 19q12 0 22 -10t10 -23q0 -17 -35 -39l-115 -75q-29 -20 -42 -20z" />
    <glyph glyph-name="Icircumflex" unicode="&#xce;" horiz-adv-x="389" 
d="M23 0l5 26h17q41 0 53 12.5t23 58.5l97 529q3 16 -1.5 26.5t-16.5 14.5t-20 4.5t-23 0.5h-6h-18l5 26q50 -2 147 -2q19 0 58 1t59 1l-5 -26h-19h-4h-8t-8.5 -0.5t-9.5 -1.5t-9.5 -3t-10 -5t-8.5 -7.5t-7 -11t-5 -14.5l-98 -533q-8 -44 5 -57t61 -13h15l-5 -26
q-22 0 -66.5 1t-66.5 1q-44 0 -130 -2zM337 904l88 -167h-33l-82 107l-135 -107h-37l161 167h38z" />
    <glyph glyph-name="Idieresis" unicode="&#xcf;" horiz-adv-x="389" 
d="M23 0l5 26h17q41 0 53 12.5t23 58.5l97 529q3 16 -1.5 26.5t-16.5 14.5t-20 4.5t-23 0.5h-6h-18l5 26q50 -2 147 -2q19 0 58 1t59 1l-5 -26h-19h-4h-8t-8.5 -0.5t-9.5 -1.5t-9.5 -3t-10 -5t-8.5 -7.5t-7 -11t-5 -14.5l-98 -533q-8 -44 5 -57t61 -13h15l-5 -26
q-22 0 -66.5 1t-66.5 1q-44 0 -130 -2zM345 801q0 21 14 35t34 14q21 0 35.5 -14t14.5 -35q0 -20 -14.5 -34.5t-35.5 -14.5q-20 0 -34 14.5t-14 34.5zM145 801q0 21 14 35t34 14q21 0 35.5 -14t14.5 -35q0 -20 -14.5 -34.5t-35.5 -14.5q-20 0 -34 14.5t-14 34.5z" />
    <glyph glyph-name="Eth" unicode="&#xd0;" horiz-adv-x="833" 
d="M122 96l45 245h-91l7 41h92l31 169q10 45 10 79q0 22 -16 30.5t-54 11.5h-19l5 26q60 -3 119 -3q21 0 66 1.5t83 1.5q68 0 122 -13t80 -27t55 -36q113 -86 113 -240q0 -172 -117.5 -277t-293.5 -105q-22 0 -66.5 0.5t-66.5 0.5q-34 0 -101.5 -0.5t-101.5 -0.5l5 26h22
q36 2 50.5 15t21.5 55zM475 382l-7 -41h-211l-46 -247q-4 -21 5 -34.5t31 -19t42 -7t51 -1.5q151 0 241.5 105t90.5 259q0 91 -43 151.5t-95 84.5q-41 19 -69.5 26.5t-77.5 7.5q-25 0 -70 -3l-52 -281h210z" />
    <glyph glyph-name="Ntilde" unicode="&#xd1;" horiz-adv-x="833" 
d="M19 0l4 26h14q31 0 46.5 7.5t28.5 37t24 91.5l76 432q1 3 -6.5 15t-21 26.5t-26.5 19.5q-34 17 -56 17h-9l4 26q45 -3 91 -3q11 0 33.5 1.5t33.5 1.5l382 -567l71 417q7 31 7 67q0 35 -18.5 46t-54.5 11h-19l4 26q55 -3 111 -3q20 0 59 1.5t59 1.5l-4 -26h-15
q-10 0 -18 -2t-14.5 -4t-12 -8t-9.5 -9.5t-7.5 -12.5t-5.5 -13t-4.5 -16t-3.5 -16.5t-3.5 -18.5t-3.5 -19l-86 -467q34 -56 71 -66l-5 -20q-40 2 -59 2q-20 0 -60 -2l-371 551l-66 -404q-10 -62 -10 -75q0 -46 64 -46h32l-5 -26q-20 0 -60.5 1t-60.5 1q-40 0 -120 -2z
M369 759h-27q10 41 38.5 68.5t69.5 27.5q22 0 70 -22t62 -22q35 0 59 49h26q-5 -38 -36 -69t-69 -31q-20 0 -68 22q-54 26 -65 26q-23 0 -35.5 -11.5t-24.5 -37.5z" />
    <glyph glyph-name="Ograve" unicode="&#xd2;" horiz-adv-x="889" 
d="M88 315q0 166 115.5 282t279.5 116q140 0 241.5 -88.5t101.5 -226.5q0 -173 -114 -293t-286 -120q-152 0 -245 89.5t-93 240.5zM186 294q0 -126 60 -201.5t185 -75.5q93 0 163 61t102 145.5t32 172.5q0 122 -62 203.5t-182 81.5q-74 0 -133 -35t-94 -92t-53 -123.5
t-18 -136.5zM482 888l121 -151h-21q-6 0 -17 8l-117 88q-29 24 -29 39q0 11 9.5 21.5t20.5 10.5q19 0 33 -16z" />
    <glyph glyph-name="Oacute" unicode="&#xd3;" horiz-adv-x="889" 
d="M88 315q0 166 115.5 282t279.5 116q140 0 241.5 -88.5t101.5 -226.5q0 -173 -114 -293t-286 -120q-152 0 -245 89.5t-93 240.5zM186 294q0 -126 60 -201.5t185 -75.5q93 0 163 61t102 145.5t32 172.5q0 122 -62 203.5t-182 81.5q-74 0 -133 -35t-94 -92t-53 -123.5
t-18 -136.5zM505 737h-26l152 148q25 19 34 19q12 0 22 -10t10 -23q0 -17 -35 -39l-115 -75q-29 -20 -42 -20z" />
    <glyph glyph-name="Ocircumflex" unicode="&#xd4;" horiz-adv-x="889" 
d="M88 315q0 166 115.5 282t279.5 116q140 0 241.5 -88.5t101.5 -226.5q0 -173 -114 -293t-286 -120q-152 0 -245 89.5t-93 240.5zM186 294q0 -126 60 -201.5t185 -75.5q93 0 163 61t102 145.5t32 172.5q0 122 -62 203.5t-182 81.5q-74 0 -133 -35t-94 -92t-53 -123.5
t-18 -136.5zM587 904l88 -167h-33l-82 107l-135 -107h-37l161 167h38z" />
    <glyph glyph-name="Otilde" unicode="&#xd5;" horiz-adv-x="889" 
d="M88 315q0 166 115.5 282t279.5 116q140 0 241.5 -88.5t101.5 -226.5q0 -173 -114 -293t-286 -120q-152 0 -245 89.5t-93 240.5zM186 294q0 -126 60 -201.5t185 -75.5q93 0 163 61t102 145.5t32 172.5q0 122 -62 203.5t-182 81.5q-74 0 -133 -35t-94 -92t-53 -123.5
t-18 -136.5zM392 759h-27q10 41 38.5 68.5t69.5 27.5q22 0 70 -22t62 -22q35 0 59 49h26q-5 -38 -36 -69t-69 -31q-20 0 -68 22q-54 26 -65 26q-23 0 -35.5 -11.5t-24.5 -37.5z" />
    <glyph glyph-name="Odieresis" unicode="&#xd6;" horiz-adv-x="889" 
d="M88 315q0 166 115.5 282t279.5 116q140 0 241.5 -88.5t101.5 -226.5q0 -173 -114 -293t-286 -120q-152 0 -245 89.5t-93 240.5zM186 294q0 -126 60 -201.5t185 -75.5q93 0 163 61t102 145.5t32 172.5q0 122 -62 203.5t-182 81.5q-74 0 -133 -35t-94 -92t-53 -123.5
t-18 -136.5zM395 801q0 21 14 35t34 14q21 0 35.5 -14t14.5 -35q0 -20 -14.5 -34.5t-35.5 -14.5q-20 0 -34 14.5t-14 34.5zM595 801q0 21 14 35t34 14q21 0 35.5 -14t14.5 -35q0 -20 -14.5 -34.5t-35.5 -14.5q-20 0 -34 14.5t-14 34.5z" />
    <glyph glyph-name="multiply" unicode="&#xd7;" 
d="M278 176l-174 -173l-47 46l176 172l-176 175l48 46l173 -175l173 175l48 -46l-176 -175l176 -172l-47 -46z" />
    <glyph glyph-name="Oslash" unicode="&#xd8;" horiz-adv-x="889" 
d="M827 730l21 -26l-102 -100q80 -86 80 -206q0 -173 -114 -293t-286 -120q-142 0 -232 79l-98 -95l-24 23l98 95q-82 88 -82 228q0 166 115.5 282t279.5 116q140 0 239 -86zM219 135l459 449q-65 97 -194 97q-74 0 -133 -35t-94 -92t-53 -123.5t-18 -136.5q0 -94 33 -159z
M695 554l-458 -448q62 -89 194 -89q93 0 163 61t102 145.5t32 172.5q0 89 -33 158z" />
    <glyph glyph-name="Ugrave" unicode="&#xd9;" horiz-adv-x="778" 
d="M155 298l45 259q7 42 7 62q0 19 -5.5 30.5t-18 16t-22 5.5t-29.5 1h-19l5 26q52 -2 157 -2q22 0 66 1t67 1l-5 -25h-23q-39 -2 -59 -26t-32 -98l-54 -335q-3 -21 -3 -40q0 -72 48.5 -110t114.5 -38q37 0 66.5 8t49.5 19.5t36.5 34.5t25.5 41.5t17.5 52t12.5 55t10 61.5
l48 274q3 17 3 38q0 62 -85 62h-15l5 26q40 -2 123 -2q18 0 54.5 1t54.5 1l-5 -26h-13q-15 0 -27 -5t-20.5 -17t-14 -21t-10 -28.5t-6.5 -28t-5 -30t-4 -25.5l-44 -266q-14 -84 -30 -124.5t-52 -75.5q-68 -66 -195 -66q-97 0 -166 45.5t-69 137.5q0 49 15 130zM426 888
l121 -151h-21q-6 0 -17 8l-117 88q-29 24 -29 39q0 11 9.5 21.5t20.5 10.5q19 0 33 -16z" />
    <glyph glyph-name="Uacute" unicode="&#xda;" horiz-adv-x="778" 
d="M155 298l45 259q7 42 7 62q0 19 -5.5 30.5t-18 16t-22 5.5t-29.5 1h-19l5 26q52 -2 157 -2q22 0 66 1t67 1l-5 -25h-23q-39 -2 -59 -26t-32 -98l-54 -335q-3 -21 -3 -40q0 -72 48.5 -110t114.5 -38q37 0 66.5 8t49.5 19.5t36.5 34.5t25.5 41.5t17.5 52t12.5 55t10 61.5
l48 274q3 17 3 38q0 62 -85 62h-15l5 26q40 -2 123 -2q18 0 54.5 1t54.5 1l-5 -26h-13q-15 0 -27 -5t-20.5 -17t-14 -21t-10 -28.5t-6.5 -28t-5 -30t-4 -25.5l-44 -266q-14 -84 -30 -124.5t-52 -75.5q-68 -66 -195 -66q-97 0 -166 45.5t-69 137.5q0 49 15 130zM449 737h-26
l152 148q25 19 34 19q12 0 22 -10t10 -23q0 -17 -35 -39l-115 -75q-29 -20 -42 -20z" />
    <glyph glyph-name="Ucircumflex" unicode="&#xdb;" horiz-adv-x="778" 
d="M155 298l45 259q7 42 7 62q0 19 -5.5 30.5t-18 16t-22 5.5t-29.5 1h-19l5 26q52 -2 157 -2q22 0 66 1t67 1l-5 -25h-23q-39 -2 -59 -26t-32 -98l-54 -335q-3 -21 -3 -40q0 -72 48.5 -110t114.5 -38q37 0 66.5 8t49.5 19.5t36.5 34.5t25.5 41.5t17.5 52t12.5 55t10 61.5
l48 274q3 17 3 38q0 62 -85 62h-15l5 26q40 -2 123 -2q18 0 54.5 1t54.5 1l-5 -26h-13q-15 0 -27 -5t-20.5 -17t-14 -21t-10 -28.5t-6.5 -28t-5 -30t-4 -25.5l-44 -266q-14 -84 -30 -124.5t-52 -75.5q-68 -66 -195 -66q-97 0 -166 45.5t-69 137.5q0 49 15 130zM531 904
l88 -167h-33l-82 107l-135 -107h-37l161 167h38z" />
    <glyph glyph-name="Udieresis" unicode="&#xdc;" horiz-adv-x="778" 
d="M155 298l45 259q7 42 7 62q0 19 -5.5 30.5t-18 16t-22 5.5t-29.5 1h-19l5 26q52 -2 157 -2q22 0 66 1t67 1l-5 -25h-23q-39 -2 -59 -26t-32 -98l-54 -335q-3 -21 -3 -40q0 -72 48.5 -110t114.5 -38q37 0 66.5 8t49.5 19.5t36.5 34.5t25.5 41.5t17.5 52t12.5 55t10 61.5
l48 274q3 17 3 38q0 62 -85 62h-15l5 26q40 -2 123 -2q18 0 54.5 1t54.5 1l-5 -26h-13q-15 0 -27 -5t-20.5 -17t-14 -21t-10 -28.5t-6.5 -28t-5 -30t-4 -25.5l-44 -266q-14 -84 -30 -124.5t-52 -75.5q-68 -66 -195 -66q-97 0 -166 45.5t-69 137.5q0 49 15 130zM544 801
q0 21 14 35t34 14q21 0 35.5 -14t14.5 -35q0 -20 -14.5 -34.5t-35.5 -14.5q-20 0 -34 14.5t-14 34.5zM344 801q0 21 14 35t34 14q21 0 35.5 -14t14.5 -35q0 -20 -14.5 -34.5t-35.5 -14.5q-20 0 -34 14.5t-14 34.5z" />
    <glyph glyph-name="Yacute" unicode="&#xdd;" horiz-adv-x="667" 
d="M351 698l-5 -26h-36q-18 0 -29.5 -9t-3.5 -28l128 -303l182 285q13 20 13 34q0 21 -62 21h-17l4 26q40 -2 121 -2q49 0 74 2l-5 -26q-32 3 -67 -47l-10 -15l-220 -323l-37 -196q-2 -11 -2 -19.5t1 -15t4.5 -11.5t7 -8t10 -5t11.5 -3.5t14 -2t14.5 -0.5h16.5h18l-5 -26
q-26 0 -77.5 1t-76.5 1q-43 0 -129 -2l4 26h22q43 -1 56 11t20 49l38 199l-154 352q-16 35 -71 35h-10l4 26q41 -2 123 -2q22 0 65.5 1t65.5 1zM394 737h-26l152 148q25 19 34 19q12 0 22 -10t10 -23q0 -17 -35 -39l-115 -75q-29 -20 -42 -20z" />
    <glyph glyph-name="Thorn" unicode="&#xde;" horiz-adv-x="611" 
d="M116 82l99 547q3 16 -3.5 25.5t-21.5 13t-26.5 4.5t-29.5 0h-18l5 26q94 -2 141 -2q45 0 137 2l-5 -26h-21q-30 0 -45.5 -10.5t-21.5 -45.5l-7 -44q45 3 93 3q81 0 133 -38t52 -116q0 -97 -72.5 -152.5t-171.5 -55.5q-58 0 -100 6l-21 -114l-5 -36q0 -16 7.5 -26
t19.5 -13t26.5 -4t27.5 0h18l-5 -26q-94 2 -141 2q-45 0 -137 -2l5 26h21q21 2 31 4.5t20.5 15t15.5 36.5zM292 540l-54 -291q33 -4 80 -4q66 0 113.5 42.5t47.5 132.5q0 63 -32 93t-101 30q-8 0 -25.5 -1.5t-28.5 -1.5z" />
    <glyph glyph-name="germandbls" unicode="&#xdf;" 
d="M3 -228l146 668q17 68 32 106q29 73 108 145.5t149 72.5q54 0 88 -31.5t34 -84.5q0 -19 -3.5 -35.5t-12 -31.5t-15 -25t-22.5 -24.5t-23.5 -20.5t-28 -21t-26.5 -20q-17 -13 -26 -21t-17.5 -23t-8.5 -31q0 -21 17 -51.5t37.5 -57t37.5 -62.5t17 -66q0 -58 -50 -110
q-65 -63 -141 -63q-27 0 -50 16t-23 42q0 33 28 52h8q36 -56 95 -56q32 0 53 17t21 47q0 28 -19.5 63t-42.5 63t-42.5 64.5t-19.5 68.5q0 27 19 51.5t45.5 45.5t53.5 43t46 52.5t19 65.5q0 40 -25 62t-66 22q-28 0 -50.5 -12.5t-36 -28t-25.5 -44.5t-17 -46.5t-13 -49.5
l-181 -721l-60 -30h-9z" />
    <glyph glyph-name="agrave" unicode="&#xe0;" horiz-adv-x="500" 
d="M312 175l1 2q-50 -75 -110 -133.5t-114 -58.5q-41 0 -58.5 25t-17.5 58q0 77 53.5 169.5t130.5 156t140 63.5q37 0 63 -33l14 32q11 20 22 20h21q9 0 9 -5l-2 -8l-99 -355q-4 -12 -4 -25q0 -14 12 -14q13 0 26 10t28 27.5t20 21.5l16 -13q-8 -8 -32 -36.5t-40 -45
t-41 -32.5t-47 -16q-13 0 -23.5 7t-10.5 21q0 20 17 73l29 91h-2l1 -2h-2zM87 128q0 -69 51 -69q45 0 98.5 56.5t88 127.5t34.5 116q0 19 -15.5 35t-34.5 16q-51 0 -104.5 -50t-85.5 -116t-32 -116zM262 697l121 -151h-21q-6 0 -17 8l-117 88q-29 24 -29 39q0 11 9.5 21.5
t20.5 10.5q19 0 33 -16z" />
    <glyph glyph-name="aacute" unicode="&#xe1;" horiz-adv-x="500" 
d="M312 175l1 2q-50 -75 -110 -133.5t-114 -58.5q-41 0 -58.5 25t-17.5 58q0 77 53.5 169.5t130.5 156t140 63.5q37 0 63 -33l14 32q11 20 22 20h21q9 0 9 -5l-2 -8l-99 -355q-4 -12 -4 -25q0 -14 12 -14q13 0 26 10t28 27.5t20 21.5l16 -13q-8 -8 -32 -36.5t-40 -45
t-41 -32.5t-47 -16q-13 0 -23.5 7t-10.5 21q0 20 17 73l29 91h-2l1 -2h-2zM87 128q0 -69 51 -69q45 0 98.5 56.5t88 127.5t34.5 116q0 19 -15.5 35t-34.5 16q-51 0 -104.5 -50t-85.5 -116t-32 -116zM285 546h-26l152 148q25 19 34 19q12 0 22 -10t10 -23q0 -17 -35 -39
l-115 -75q-29 -20 -42 -20z" />
    <glyph glyph-name="acircumflex" unicode="&#xe2;" horiz-adv-x="500" 
d="M312 175l1 2q-50 -75 -110 -133.5t-114 -58.5q-41 0 -58.5 25t-17.5 58q0 77 53.5 169.5t130.5 156t140 63.5q37 0 63 -33l14 32q11 20 22 20h21q9 0 9 -5l-2 -8l-99 -355q-4 -12 -4 -25q0 -14 12 -14q13 0 26 10t28 27.5t20 21.5l16 -13q-8 -8 -32 -36.5t-40 -45
t-41 -32.5t-47 -16q-13 0 -23.5 7t-10.5 21q0 20 17 73l29 91h-2l1 -2h-2zM87 128q0 -69 51 -69q45 0 98.5 56.5t88 127.5t34.5 116q0 19 -15.5 35t-34.5 16q-51 0 -104.5 -50t-85.5 -116t-32 -116zM367 713l88 -167h-33l-82 107l-135 -107h-37l161 167h38z" />
    <glyph glyph-name="atilde" unicode="&#xe3;" horiz-adv-x="500" 
d="M312 175l1 2q-50 -75 -110 -133.5t-114 -58.5q-41 0 -58.5 25t-17.5 58q0 77 53.5 169.5t130.5 156t140 63.5q37 0 63 -33l14 32q11 20 22 20h21q9 0 9 -5l-2 -8l-99 -355q-4 -12 -4 -25q0 -14 12 -14q13 0 26 10t28 27.5t20 21.5l16 -13q-8 -8 -32 -36.5t-40 -45
t-41 -32.5t-47 -16q-13 0 -23.5 7t-10.5 21q0 20 17 73l29 91h-2l1 -2h-2zM87 128q0 -69 51 -69q45 0 98.5 56.5t88 127.5t34.5 116q0 19 -15.5 35t-34.5 16q-51 0 -104.5 -50t-85.5 -116t-32 -116zM172 568h-27q10 41 38.5 68.5t69.5 27.5q22 0 70 -22t62 -22q35 0 59 49
h26q-5 -38 -36 -69t-69 -31q-20 0 -68 22q-54 26 -65 26q-23 0 -35.5 -11.5t-24.5 -37.5z" />
    <glyph glyph-name="adieresis" unicode="&#xe4;" horiz-adv-x="500" 
d="M312 175l1 2q-50 -75 -110 -133.5t-114 -58.5q-41 0 -58.5 25t-17.5 58q0 77 53.5 169.5t130.5 156t140 63.5q37 0 63 -33l14 32q11 20 22 20h21q9 0 9 -5l-2 -8l-99 -355q-4 -12 -4 -25q0 -14 12 -14q13 0 26 10t28 27.5t20 21.5l16 -13q-8 -8 -32 -36.5t-40 -45
t-41 -32.5t-47 -16q-13 0 -23.5 7t-10.5 21q0 20 17 73l29 91h-2l1 -2h-2zM87 128q0 -69 51 -69q45 0 98.5 56.5t88 127.5t34.5 116q0 19 -15.5 35t-34.5 16q-51 0 -104.5 -50t-85.5 -116t-32 -116zM175 610q0 21 14 35t34 14q21 0 35.5 -14t14.5 -35q0 -20 -14.5 -34.5
t-35.5 -14.5q-20 0 -34 14.5t-14 34.5zM375 610q0 21 14 35t34 14q21 0 35.5 -14t14.5 -35q0 -20 -14.5 -34.5t-35.5 -14.5q-20 0 -34 14.5t-14 34.5z" />
    <glyph glyph-name="aring" unicode="&#xe5;" horiz-adv-x="500" 
d="M312 175l1 2q-50 -75 -110 -133.5t-114 -58.5q-41 0 -58.5 25t-17.5 58q0 77 53.5 169.5t130.5 156t140 63.5q37 0 63 -33l14 32q11 20 22 20h21q9 0 9 -5l-2 -8l-99 -355q-4 -12 -4 -25q0 -14 12 -14q13 0 26 10t28 27.5t20 21.5l16 -13q-8 -8 -32 -36.5t-40 -45
t-41 -32.5t-47 -16q-13 0 -23.5 7t-10.5 21q0 20 17 73l29 91h-2l1 -2h-2zM87 128q0 -69 51 -69q45 0 98.5 56.5t88 127.5t34.5 116q0 19 -15.5 35t-34.5 16q-51 0 -104.5 -50t-85.5 -116t-32 -116zM362 526q-40 0 -69 29t-29 69t29 69t69 29t69 -29t29 -69t-29 -69t-69 -29
zM362 558q27 0 46.5 19.5t19.5 46.5t-19.5 46.5t-46.5 19.5t-46.5 -19.5t-19.5 -46.5t19.5 -46.5t46.5 -19.5z" />
    <glyph glyph-name="ae" unicode="&#xe6;" horiz-adv-x="722" 
d="M411 417l31 64l44 8l15 -5l-38 -81h2q80 54 145 54q88 0 88 -65q0 -48 -33.5 -86.5t-85.5 -61t-101.5 -35t-94.5 -16.5q-8 -42 -8 -60q0 -94 85 -94q46 0 86.5 22t91.5 62l15 -15q-114 -123 -232 -123q-58 0 -89 31t-31 89q0 15 2 43h-2q-37 -54 -99 -108.5t-113 -54.5
q-37 -2 -52 23.5t-15 68.5q0 70 48.5 156t124.5 147.5t146 61.5q40 0 70 -25zM96 113q0 -54 46 -54q39 0 92 52.5t90 122t37 116.5q0 51 -53 51t-104 -52t-79.5 -119t-28.5 -117zM618 381q0 21 -12 32.5t-32 11.5q-62 0 -115 -68t-69 -138q44 0 95.5 19.5t92 58.5t40.5 84z
" />
    <glyph glyph-name="ccedilla" unicode="&#xe7;" horiz-adv-x="444" 
d="M115 -92l52 77q-57 1 -88 38.5t-31 97.5q0 98 64 181t157 121q79 34 112 34q18 0 33.5 -11t15.5 -29q0 -22 -13.5 -37t-32.5 -15q-18 0 -42.5 16t-39.5 16q-47 0 -89 -50t-63.5 -111t-21.5 -105q0 -43 25.5 -67.5t69.5 -24.5q79 0 179 107l14 -18q-110 -125 -211 -140
l-35 -52l2 -2q8 5 31 5q30 0 49.5 -17t19.5 -49q0 -45 -34.5 -65.5t-82.5 -20.5q-45 0 -90 21l18 26q36 -15 56 -15q26 0 46.5 11t20.5 35q0 19 -13 30.5t-32 11.5q-21 0 -39 -9z" />
    <glyph glyph-name="egrave" unicode="&#xe8;" horiz-adv-x="444" 
d="M372 132l14 -17q-118 -130 -227 -130q-64 0 -93.5 39t-29.5 96q0 122 90.5 229.5t197.5 107.5q40 0 69 -16.5t29 -54.5q0 -48 -30.5 -85.5t-79.5 -59t-95.5 -33t-92.5 -15.5q-8 -35 -8 -77q0 -36 23 -56.5t59 -20.5q78 0 174 93zM129 219q50 3 96.5 20t81.5 54.5t35 88.5
q0 20 -11 31.5t-30 11.5q-52 0 -104.5 -72.5t-67.5 -133.5zM234 697l121 -151h-21q-6 0 -17 8l-117 88q-29 24 -29 39q0 11 9.5 21.5t20.5 10.5q19 0 33 -16z" />
    <glyph glyph-name="eacute" unicode="&#xe9;" horiz-adv-x="444" 
d="M372 132l14 -17q-118 -130 -227 -130q-64 0 -93.5 39t-29.5 96q0 122 90.5 229.5t197.5 107.5q40 0 69 -16.5t29 -54.5q0 -48 -30.5 -85.5t-79.5 -59t-95.5 -33t-92.5 -15.5q-8 -35 -8 -77q0 -36 23 -56.5t59 -20.5q78 0 174 93zM129 219q50 3 96.5 20t81.5 54.5t35 88.5
q0 20 -11 31.5t-30 11.5q-52 0 -104.5 -72.5t-67.5 -133.5zM257 546h-26l152 148q25 19 34 19q12 0 22 -10t10 -23q0 -17 -35 -39l-115 -75q-29 -20 -42 -20z" />
    <glyph glyph-name="ecircumflex" unicode="&#xea;" horiz-adv-x="444" 
d="M372 132l14 -17q-118 -130 -227 -130q-64 0 -93.5 39t-29.5 96q0 122 90.5 229.5t197.5 107.5q40 0 69 -16.5t29 -54.5q0 -48 -30.5 -85.5t-79.5 -59t-95.5 -33t-92.5 -15.5q-8 -35 -8 -77q0 -36 23 -56.5t59 -20.5q78 0 174 93zM129 219q50 3 96.5 20t81.5 54.5t35 88.5
q0 20 -11 31.5t-30 11.5q-52 0 -104.5 -72.5t-67.5 -133.5zM339 713l88 -167h-33l-82 107l-135 -107h-37l161 167h38z" />
    <glyph glyph-name="edieresis" unicode="&#xeb;" horiz-adv-x="444" 
d="M372 132l14 -17q-118 -130 -227 -130q-64 0 -93.5 39t-29.5 96q0 122 90.5 229.5t197.5 107.5q40 0 69 -16.5t29 -54.5q0 -48 -30.5 -85.5t-79.5 -59t-95.5 -33t-92.5 -15.5q-8 -35 -8 -77q0 -36 23 -56.5t59 -20.5q78 0 174 93zM129 219q50 3 96.5 20t81.5 54.5t35 88.5
q0 20 -11 31.5t-30 11.5q-52 0 -104.5 -72.5t-67.5 -133.5zM147 610q0 21 14 35t34 14q21 0 35.5 -14t14.5 -35q0 -20 -14.5 -34.5t-35.5 -14.5q-20 0 -34 14.5t-14 34.5zM347 610q0 21 14 35t34 14q21 0 35.5 -14t14.5 -35q0 -20 -14.5 -34.5t-35.5 -14.5q-20 0 -34 14.5
t-14 34.5z" />
    <glyph glyph-name="igrave" unicode="&#xec;" horiz-adv-x="278" 
d="M63 313l-14 14q30 45 75 87.5t83 42.5q31 0 31 -25q0 -14 -14 -56l-82 -254q-10 -32 -10 -42q0 -15 13 -15q17 0 76 65l16 -13q-97 -132 -159 -132q-38 0 -38 40q0 18 11 49l86 254q9 25 9 37t-12 12q-23 0 -71 -64zM151 697l121 -151h-21q-6 0 -17 8l-117 88
q-29 24 -29 39q0 11 9.5 21.5t20.5 10.5q19 0 33 -16z" />
    <glyph glyph-name="iacute" unicode="&#xed;" horiz-adv-x="278" 
d="M63 313l-14 14q30 45 75 87.5t83 42.5q31 0 31 -25q0 -14 -14 -56l-82 -254q-10 -32 -10 -42q0 -15 13 -15q17 0 76 65l16 -13q-97 -132 -159 -132q-38 0 -38 40q0 18 11 49l86 254q9 25 9 37t-12 12q-23 0 -71 -64zM174 546h-26l152 148q25 19 34 19q12 0 22 -10t10 -23
q0 -17 -35 -39l-115 -75q-29 -20 -42 -20z" />
    <glyph glyph-name="icircumflex" unicode="&#xee;" horiz-adv-x="278" 
d="M63 313l-14 14q30 45 75 87.5t83 42.5q31 0 31 -25q0 -14 -14 -56l-82 -254q-10 -32 -10 -42q0 -15 13 -15q17 0 76 65l16 -13q-97 -132 -159 -132q-38 0 -38 40q0 18 11 49l86 254q9 25 9 37t-12 12q-23 0 -71 -64zM256 713l88 -167h-33l-82 107l-135 -107h-37l161 167
h38z" />
    <glyph glyph-name="idieresis" unicode="&#xef;" horiz-adv-x="278" 
d="M63 313l-14 14q30 45 75 87.5t83 42.5q31 0 31 -25q0 -14 -14 -56l-82 -254q-10 -32 -10 -42q0 -15 13 -15q17 0 76 65l16 -13q-97 -132 -159 -132q-38 0 -38 40q0 18 11 49l86 254q9 25 9 37t-12 12q-23 0 -71 -64zM264 610q0 21 14 35t34 14q21 0 35.5 -14t14.5 -35
q0 -20 -14.5 -34.5t-35.5 -14.5q-20 0 -34 14.5t-14 34.5zM64 610q0 21 14 35t34 14q21 0 35.5 -14t14.5 -35q0 -20 -14.5 -34.5t-35.5 -14.5q-20 0 -34 14.5t-14 34.5z" />
    <glyph glyph-name="eth" unicode="&#xf0;" 
d="M48 186q0 108 80 189.5t188 81.5q65 0 106 -41h2q-20 112 -103 199l-145 -55l-20 34l132 51q-68 70 -121 97l22 22q90 -36 158 -96l132 53l19 -33l-120 -50q130 -133 130 -312q0 -159 -75.5 -250t-187.5 -91q-90 0 -143.5 55t-53.5 146zM128 152q0 -63 27 -102t89 -39
q60 0 104 49.5t62 111t18 118.5q0 61 -26.5 101t-86.5 40q-48 0 -85.5 -27.5t-58.5 -71t-32 -90t-11 -90.5z" />
    <glyph glyph-name="ntilde" unicode="&#xf1;" 
d="M45 313l-15 18q102 126 174 126q34 0 34 -34q0 -15 -11 -48l-52 -151h2q29 42 75.5 92t110 95.5t108.5 45.5q40 0 40 -41q0 -21 -10 -49l-80 -220q-15 -40 -15 -52q0 -21 18 -21t45 24t41 46l17 -13l-36 -44q-71 -87 -139 -87q-19 0 -28.5 9.5t-9.5 23.5q0 25 14 62
l78 213q13 39 13 50q0 19 -23 19q-20 0 -40.5 -9.5t-43 -30.5t-32 -30.5t-30.5 -33.5q-85 -91 -125 -204l-20 -57q-4 -11 -37 -11q-23 0 -32 13l98 295q12 38 12 50q0 18 -16 18q-24 0 -58 -34zM200 568h-27q10 41 38.5 68.5t69.5 27.5q22 0 70 -22t62 -22q35 0 59 49h26
q-5 -38 -36 -69t-69 -31q-20 0 -68 22q-54 26 -65 26q-23 0 -35.5 -11.5t-24.5 -37.5z" />
    <glyph glyph-name="ograve" unicode="&#xf2;" 
d="M48 186q0 108 80 189.5t188 81.5q86 0 139 -57.5t53 -145.5q0 -107 -78.5 -188t-184.5 -81q-90 0 -143.5 55t-53.5 146zM128 152q0 -63 27 -102t89 -39q60 0 104 49.5t62 111t18 118.5q0 61 -26.5 101t-86.5 40q-48 0 -85.5 -27.5t-58.5 -71t-32 -90t-11 -90.5zM290 697
l121 -151h-21q-6 0 -17 8l-117 88q-29 24 -29 39q0 11 9.5 21.5t20.5 10.5q19 0 33 -16z" />
    <glyph glyph-name="oacute" unicode="&#xf3;" 
d="M48 186q0 108 80 189.5t188 81.5q86 0 139 -57.5t53 -145.5q0 -107 -78.5 -188t-184.5 -81q-90 0 -143.5 55t-53.5 146zM128 152q0 -63 27 -102t89 -39q60 0 104 49.5t62 111t18 118.5q0 61 -26.5 101t-86.5 40q-48 0 -85.5 -27.5t-58.5 -71t-32 -90t-11 -90.5zM313 546
h-26l152 148q25 19 34 19q12 0 22 -10t10 -23q0 -17 -35 -39l-115 -75q-29 -20 -42 -20z" />
    <glyph glyph-name="ocircumflex" unicode="&#xf4;" 
d="M48 186q0 108 80 189.5t188 81.5q86 0 139 -57.5t53 -145.5q0 -107 -78.5 -188t-184.5 -81q-90 0 -143.5 55t-53.5 146zM128 152q0 -63 27 -102t89 -39q60 0 104 49.5t62 111t18 118.5q0 61 -26.5 101t-86.5 40q-48 0 -85.5 -27.5t-58.5 -71t-32 -90t-11 -90.5zM395 713
l88 -167h-33l-82 107l-135 -107h-37l161 167h38z" />
    <glyph glyph-name="otilde" unicode="&#xf5;" 
d="M48 186q0 108 80 189.5t188 81.5q86 0 139 -57.5t53 -145.5q0 -107 -78.5 -188t-184.5 -81q-90 0 -143.5 55t-53.5 146zM128 152q0 -63 27 -102t89 -39q60 0 104 49.5t62 111t18 118.5q0 61 -26.5 101t-86.5 40q-48 0 -85.5 -27.5t-58.5 -71t-32 -90t-11 -90.5zM200 568
h-27q10 41 38.5 68.5t69.5 27.5q22 0 70 -22t62 -22q35 0 59 49h26q-5 -38 -36 -69t-69 -31q-20 0 -68 22q-54 26 -65 26q-23 0 -35.5 -11.5t-24.5 -37.5z" />
    <glyph glyph-name="odieresis" unicode="&#xf6;" 
d="M48 186q0 108 80 189.5t188 81.5q86 0 139 -57.5t53 -145.5q0 -107 -78.5 -188t-184.5 -81q-90 0 -143.5 55t-53.5 146zM128 152q0 -63 27 -102t89 -39q60 0 104 49.5t62 111t18 118.5q0 61 -26.5 101t-86.5 40q-48 0 -85.5 -27.5t-58.5 -71t-32 -90t-11 -90.5zM203 610
q0 21 14 35t34 14q21 0 35.5 -14t14.5 -35q0 -20 -14.5 -34.5t-35.5 -14.5q-20 0 -34 14.5t-14 34.5zM403 610q0 21 14 35t34 14q21 0 35.5 -14t14.5 -35q0 -20 -14.5 -34.5t-35.5 -14.5q-20 0 -34 14.5t-14 34.5z" />
    <glyph glyph-name="divide" unicode="&#xf7;" 
d="M499 188h-442v66h442v-66zM212 391q0 28 19.5 47t46.5 19t46.5 -19.5t19.5 -46.5q0 -26 -19.5 -46t-46.5 -20t-46.5 19.5t-19.5 46.5zM212 51q0 28 19.5 47t47.5 19q26 0 45.5 -19.5t19.5 -46.5q0 -26 -19.5 -46t-45.5 -20q-28 0 -47.5 19.5t-19.5 46.5z" />
    <glyph glyph-name="oslash" unicode="&#xf8;" 
d="M508 473l20 -18l-66 -65q46 -55 46 -136q0 -107 -78.5 -188t-184.5 -81q-84 0 -135 48l-61 -61l-21 20l62 62q-42 51 -42 132q0 108 80 189.5t188 81.5q76 0 129 -48zM244 11q60 0 104 49.5t62 111t18 118.5q0 33 -7 58l-276 -280q28 -57 99 -57zM410 374q-26 57 -95 57
q-48 0 -85.5 -27.5t-58.5 -71t-32 -90t-11 -90.5q0 -28 6 -54z" />
    <glyph glyph-name="ugrave" unicode="&#xf9;" 
d="M505 136l14 -14q-3 -3 -14.5 -16t-16.5 -18t-16.5 -17.5t-19 -18.5t-19 -16t-21 -15t-20.5 -10.5t-22 -8t-22 -2.5q-37 0 -37 35q0 19 19 74l60 177h-2q-1 -2 -19.5 -26t-28.5 -36t-32 -39.5t-37.5 -44.5t-38.5 -41t-41.5 -39.5t-39 -30.5t-39 -22t-34.5 -7
q-17 0 -29.5 11.5t-12.5 27.5q0 11 10 43l87 258l4 20v2q0 15 -13 15q-10 0 -23 -8t-21.5 -16.5t-22 -23t-16.5 -17.5l-16 17l34 35q28 28 46 44t45.5 32.5t49.5 16.5q33 0 33 -32q0 -18 -13 -52l-90 -269q-2 -10 -2 -14q0 -10 17 -10q47 0 154.5 135t136.5 211q12 31 34 31
q13 0 45 -29l-109 -326q-3 -7 -3 -14q0 -14 15 -14q12 0 27.5 11t36 29.5t23.5 21.5zM290 697l121 -151h-21q-6 0 -17 8l-117 88q-29 24 -29 39q0 11 9.5 21.5t20.5 10.5q19 0 33 -16z" />
    <glyph glyph-name="uacute" unicode="&#xfa;" 
d="M505 136l14 -14q-3 -3 -14.5 -16t-16.5 -18t-16.5 -17.5t-19 -18.5t-19 -16t-21 -15t-20.5 -10.5t-22 -8t-22 -2.5q-37 0 -37 35q0 19 19 74l60 177h-2q-1 -2 -19.5 -26t-28.5 -36t-32 -39.5t-37.5 -44.5t-38.5 -41t-41.5 -39.5t-39 -30.5t-39 -22t-34.5 -7
q-17 0 -29.5 11.5t-12.5 27.5q0 11 10 43l87 258l4 20v2q0 15 -13 15q-10 0 -23 -8t-21.5 -16.5t-22 -23t-16.5 -17.5l-16 17l34 35q28 28 46 44t45.5 32.5t49.5 16.5q33 0 33 -32q0 -18 -13 -52l-90 -269q-2 -10 -2 -14q0 -10 17 -10q47 0 154.5 135t136.5 211q12 31 34 31
q13 0 45 -29l-109 -326q-3 -7 -3 -14q0 -14 15 -14q12 0 27.5 11t36 29.5t23.5 21.5zM313 546h-26l152 148q25 19 34 19q12 0 22 -10t10 -23q0 -17 -35 -39l-115 -75q-29 -20 -42 -20z" />
    <glyph glyph-name="ucircumflex" unicode="&#xfb;" 
d="M505 136l14 -14q-3 -3 -14.5 -16t-16.5 -18t-16.5 -17.5t-19 -18.5t-19 -16t-21 -15t-20.5 -10.5t-22 -8t-22 -2.5q-37 0 -37 35q0 19 19 74l60 177h-2q-1 -2 -19.5 -26t-28.5 -36t-32 -39.5t-37.5 -44.5t-38.5 -41t-41.5 -39.5t-39 -30.5t-39 -22t-34.5 -7
q-17 0 -29.5 11.5t-12.5 27.5q0 11 10 43l87 258l4 20v2q0 15 -13 15q-10 0 -23 -8t-21.5 -16.5t-22 -23t-16.5 -17.5l-16 17l34 35q28 28 46 44t45.5 32.5t49.5 16.5q33 0 33 -32q0 -18 -13 -52l-90 -269q-2 -10 -2 -14q0 -10 17 -10q47 0 154.5 135t136.5 211q12 31 34 31
q13 0 45 -29l-109 -326q-3 -7 -3 -14q0 -14 15 -14q12 0 27.5 11t36 29.5t23.5 21.5zM395 713l88 -167h-33l-82 107l-135 -107h-37l161 167h38z" />
    <glyph glyph-name="udieresis" unicode="&#xfc;" 
d="M505 136l14 -14q-3 -3 -14.5 -16t-16.5 -18t-16.5 -17.5t-19 -18.5t-19 -16t-21 -15t-20.5 -10.5t-22 -8t-22 -2.5q-37 0 -37 35q0 19 19 74l60 177h-2q-1 -2 -19.5 -26t-28.5 -36t-32 -39.5t-37.5 -44.5t-38.5 -41t-41.5 -39.5t-39 -30.5t-39 -22t-34.5 -7
q-17 0 -29.5 11.5t-12.5 27.5q0 11 10 43l87 258l4 20v2q0 15 -13 15q-10 0 -23 -8t-21.5 -16.5t-22 -23t-16.5 -17.5l-16 17l34 35q28 28 46 44t45.5 32.5t49.5 16.5q33 0 33 -32q0 -18 -13 -52l-90 -269q-2 -10 -2 -14q0 -10 17 -10q47 0 154.5 135t136.5 211q12 31 34 31
q13 0 45 -29l-109 -326q-3 -7 -3 -14q0 -14 15 -14q12 0 27.5 11t36 29.5t23.5 21.5zM403 610q0 21 14 35t34 14q21 0 35.5 -14t14.5 -35q0 -20 -14.5 -34.5t-35.5 -14.5q-20 0 -34 14.5t-14 34.5zM203 610q0 21 14 35t34 14q21 0 35.5 -14t14.5 -35q0 -20 -14.5 -34.5
t-35.5 -14.5q-20 0 -34 14.5t-14 34.5z" />
    <glyph glyph-name="yacute" unicode="&#xfd;" horiz-adv-x="500" 
d="M60 299l-9 -7l-24 14q0 59 26.5 105t81.5 46q40 0 68.5 -32t43 -85.5t23 -104t14.5 -108.5t10 -78l22 38.5t25.5 45.5t22 43.5t21 48.5t12.5 44t6 46q0 20 -6 44.5t-6 37.5q0 24 12.5 42t34.5 18q39 0 39 -53q0 -74 -83 -233t-149 -242q-1 -2 -16.5 -22t-20.5 -26
t-20.5 -25t-24 -27t-24.5 -21.5t-28 -19.5t-27 -11t-30 -5q-16 0 -28.5 12t-12.5 28q0 18 9.5 29.5t26.5 11.5q6 0 20 -3.5t22 -3.5q43 0 85 48l54 63l-3 52l-9 83q-7 50 -16.5 95t-23.5 92.5t-34 75.5t-43 28q-21 0 -34.5 -13t-13.5 -33t7 -38zM285 546h-26l152 148
q25 19 34 19q12 0 22 -10t10 -23q0 -17 -35 -39l-115 -75q-29 -20 -42 -20z" />
    <glyph glyph-name="thorn" unicode="&#xfe;" 
d="M158 423l69 274l-49 28l3 13q45 6 66 9q30 5 71 17l11 -4l-89 -321q49 18 111 18q61 0 106 -29.5t45 -94.5q0 -67 -41 -148.5t-110 -140.5t-138 -59q-42 0 -80 29l-49 -188l80 -13l-4 -26q-53 0 -88 -5q-23 -2 -69 -10l-6 8l152 607q-83 -29 -119 -48l7 39q46 20 121 45z
M233 410l-63 -251q-11 -63 -11 -81q0 -21 16.5 -44t44.5 -23q51 0 100 61.5t75.5 135.5t26.5 124q0 93 -103 93q-54 0 -86 -15z" />
    <glyph glyph-name="ydieresis" unicode="&#xff;" horiz-adv-x="500" 
d="M60 299l-9 -7l-24 14q0 59 26.5 105t81.5 46q40 0 68.5 -32t43 -85.5t23 -104t14.5 -108.5t10 -78l22 38.5t25.5 45.5t22 43.5t21 48.5t12.5 44t6 46q0 20 -6 44.5t-6 37.5q0 24 12.5 42t34.5 18q39 0 39 -53q0 -74 -83 -233t-149 -242q-1 -2 -16.5 -22t-20.5 -26
t-20.5 -25t-24 -27t-24.5 -21.5t-28 -19.5t-27 -11t-30 -5q-16 0 -28.5 12t-12.5 28q0 18 9.5 29.5t26.5 11.5q6 0 20 -3.5t22 -3.5q43 0 85 48l54 63l-3 52l-9 83q-7 50 -16.5 95t-23.5 92.5t-34 75.5t-43 28q-21 0 -34.5 -13t-13.5 -33t7 -38zM375 610q0 21 14 35t34 14
q21 0 35.5 -14t14.5 -35q0 -20 -14.5 -34.5t-35.5 -14.5q-20 0 -34 14.5t-14 34.5zM175 610q0 21 14 35t34 14q21 0 35.5 -14t14.5 -35q0 -20 -14.5 -34.5t-35.5 -14.5q-20 0 -34 14.5t-14 34.5z" />
    <glyph glyph-name="Amacron" unicode="&#x100;" horiz-adv-x="722" 
d="M97 93l344 609q24 6 36 11l6 -4l110 -621q9 -66 72 -62l-5 -26q-21 0 -63 1t-63 1q-36 0 -108 -2l5 26q11 -1 24 0t24.5 3.5t17.5 11.5t4 23l-30 198h-234l-82 -170q-11 -24 -11 -36q0 -30 43 -30h30l-5 -26q-20 0 -59.5 1t-58.5 1q-30 0 -92 -2l5 26q33 -1 53 16.5
t37 50.5zM420 601l-161 -298h207l-44 298h-2zM608 777h-259l8 47h259z" />
    <glyph glyph-name="amacron" unicode="&#x101;" horiz-adv-x="500" 
d="M400 424l14 32q11 20 22 20h21q9 0 9 -5l-2 -8l-99 -355q-4 -12 -4 -25q0 -14 12 -14q13 0 26 10t28 27.5t20 21.5l16 -13q-8 -8 -32 -36.5t-40 -45t-41 -32.5t-47 -16q-13 0 -23.5 7t-10.5 21q0 20 17 73l29 91h-2q-50 -75 -110 -133.5t-114 -58.5q-41 0 -58.5 25
t-17.5 58q0 77 53.5 169.5t130.5 156t140 63.5q37 0 63 -33zM87 128q0 -69 51 -69q45 0 98.5 56.5t88 127.5t34.5 116q0 19 -15.5 35t-34.5 16q-51 0 -104.5 -50t-85.5 -116t-32 -116zM312 175l1 2l1 -2h-2zM473 586h-259l8 47h259z" />
    <glyph glyph-name="Abreve" unicode="&#x102;" horiz-adv-x="722" 
d="M97 93l344 609q24 6 36 11l6 -4l110 -621q9 -66 72 -62l-5 -26q-21 0 -63 1t-63 1q-36 0 -108 -2l5 26q11 -1 24 0t24.5 3.5t17.5 11.5t4 23l-30 198h-234l-82 -170q-11 -24 -11 -36q0 -30 43 -30h30l-5 -26q-20 0 -59.5 1t-58.5 1q-30 0 -92 -2l5 26q33 -1 53 16.5
t37 50.5zM420 601l-161 -298h207l-44 298h-2zM341 896h26q4 -49 32 -75t77 -26q97 0 135 101h26q-16 -71 -58 -116t-110 -45q-69 0 -99.5 44t-28.5 117z" />
    <glyph glyph-name="abreve" unicode="&#x103;" horiz-adv-x="500" 
d="M400 424l14 32q11 20 22 20h21q9 0 9 -5l-2 -8l-99 -355q-4 -12 -4 -25q0 -14 12 -14q13 0 26 10t28 27.5t20 21.5l16 -13q-8 -8 -32 -36.5t-40 -45t-41 -32.5t-47 -16q-13 0 -23.5 7t-10.5 21q0 20 17 73l29 91h-2q-50 -75 -110 -133.5t-114 -58.5q-41 0 -58.5 25
t-17.5 58q0 77 53.5 169.5t130.5 156t140 63.5q37 0 63 -33zM87 128q0 -69 51 -69q45 0 98.5 56.5t88 127.5t34.5 116q0 19 -15.5 35t-34.5 16q-51 0 -104.5 -50t-85.5 -116t-32 -116zM312 175l1 2l1 -2h-2zM210 705h26q4 -49 32 -75t77 -26q97 0 135 101h26
q-16 -71 -58 -116t-110 -45q-69 0 -99.5 44t-28.5 117z" />
    <glyph glyph-name="Aogonek" unicode="&#x104;" horiz-adv-x="722" 
d="M580 -133l18 -10q-21 -31 -50.5 -48t-54.5 -17q-78 0 -77 60q0 80 133 150h-15q-36 0 -108 -2l5 26q11 -1 24 0t24.5 3.5t17.5 11.5t4 23l-30 198h-234l-82 -170q-11 -24 -11 -36q0 -30 43 -30h30l-5 -26q-20 0 -59.5 1t-58.5 1q-30 0 -92 -2l5 26q33 -1 53 16.5t37 50.5
l344 609q24 6 36 11l6 -4l110 -621q9 -66 72 -62l-5 -26q-12 0 -36 0.5t-36 0.5q-106 -72 -106 -137q1 -13 10 -22t21 -9q37 0 67 34zM420 601l-161 -298h207l-44 298h-2z" />
    <glyph glyph-name="aogonek" unicode="&#x105;" horiz-adv-x="500" 
d="M312 175l1 2q-50 -75 -110 -133.5t-114 -58.5q-41 0 -58.5 25t-17.5 58q0 77 53.5 169.5t130.5 156t140 63.5q37 0 63 -33l14 32q11 20 22 20h21q9 0 9 -5l-2 -8l-99 -355q-4 -12 -4 -25q0 -14 12 -14q13 0 26 10t28 27.5t20 21.5l16 -13q-5 -5 -33 -38.5t-50.5 -54
t-44.5 -29.5q-93 -69 -93 -129q1 -13 10 -22t21 -9q37 0 67 34l18 -10q-21 -31 -50.5 -48t-54.5 -17q-78 0 -77 60q0 71 109 137q-16 7 -16 24q0 20 17 73l29 91h-2l1 -2h-2zM87 128q0 -69 51 -69q45 0 98.5 56.5t88 127.5t34.5 116q0 19 -15.5 35t-34.5 16
q-51 0 -104.5 -50t-85.5 -116t-32 -116z" />
    <glyph glyph-name="Cacute" unicode="&#x106;" horiz-adv-x="722" 
d="M725 679l-33 -176l-20 6q7 78 -39 124q-48 48 -131 48q-73 0 -134 -33t-98 -85.5t-57.5 -115.5t-20.5 -126q0 -136 59 -220t171 -84q90 0 145.5 46t94.5 136l22 -5l-40 -170q-12 8 -27 8q-6 0 -17 -3.5t-27.5 -10.5t-23.5 -10q-62 -23 -128 -23q-146 0 -239.5 92.5
t-93.5 243.5q0 162 116.5 277t277.5 115q51 0 89 -7.5t55 -16t31.5 -16t24.5 -7.5q5 0 9.5 2.5t7 4.5t7.5 7t7 6zM430 737h-26l152 148q25 19 34 19q12 0 22 -10t10 -23q0 -17 -35 -39l-115 -75q-29 -20 -42 -20z" />
    <glyph glyph-name="cacute" unicode="&#x107;" horiz-adv-x="444" 
d="M402 146l14 -18q-58 -66 -117 -104.5t-129 -38.5q-58 0 -90 37.5t-32 98.5q0 98 64 181t157 121q79 34 112 34q18 0 33.5 -11t15.5 -29q0 -22 -13.5 -37t-32.5 -15q-18 0 -42.5 16t-39.5 16q-47 0 -89 -50t-63.5 -111t-21.5 -105q0 -43 25.5 -67.5t69.5 -24.5
q79 0 179 107zM255 546h-26l152 148q25 19 34 19q12 0 22 -10t10 -23q0 -17 -35 -39l-115 -75q-29 -20 -42 -20z" />
    <glyph glyph-name="Ccircumflex" unicode="&#x108;" horiz-adv-x="722" 
d="M725 679l-33 -176l-20 6q7 78 -39 124q-48 48 -131 48q-73 0 -134 -33t-98 -85.5t-57.5 -115.5t-20.5 -126q0 -136 59 -220t171 -84q90 0 145.5 46t94.5 136l22 -5l-40 -170q-12 8 -27 8q-6 0 -17 -3.5t-27.5 -10.5t-23.5 -10q-62 -23 -128 -23q-146 0 -239.5 92.5
t-93.5 243.5q0 162 116.5 277t277.5 115q51 0 89 -7.5t55 -16t31.5 -16t24.5 -7.5q5 0 9.5 2.5t7 4.5t7.5 7t7 6zM526 904l88 -167h-33l-82 107l-135 -107h-37l161 167h38z" />
    <glyph glyph-name="ccircumflex" unicode="&#x109;" horiz-adv-x="444" 
d="M402 146l14 -18q-58 -66 -117 -104.5t-129 -38.5q-58 0 -90 37.5t-32 98.5q0 98 64 181t157 121q79 34 112 34q18 0 33.5 -11t15.5 -29q0 -22 -13.5 -37t-32.5 -15q-18 0 -42.5 16t-39.5 16q-47 0 -89 -50t-63.5 -111t-21.5 -105q0 -43 25.5 -67.5t69.5 -24.5
q79 0 179 107zM356 713l88 -167h-33l-82 107l-135 -107h-37l161 167h38z" />
    <glyph glyph-name="Cdotaccent" unicode="&#x10a;" horiz-adv-x="722" 
d="M725 679l-33 -176l-20 6q7 78 -39 124q-48 48 -131 48q-73 0 -134 -33t-98 -85.5t-57.5 -115.5t-20.5 -126q0 -136 59 -220t171 -84q90 0 145.5 46t94.5 136l22 -5l-40 -170q-12 8 -27 8q-6 0 -17 -3.5t-27.5 -10.5t-23.5 -10q-62 -23 -128 -23q-146 0 -239.5 92.5
t-93.5 243.5q0 162 116.5 277t277.5 115q51 0 89 -7.5t55 -16t31.5 -16t24.5 -7.5q5 0 9.5 2.5t7 4.5t7.5 7t7 6zM426 801q0 21 14 35t34 14q21 0 35.5 -14t14.5 -35q0 -20 -14.5 -34.5t-35.5 -14.5q-20 0 -34 14.5t-14 34.5z" />
    <glyph glyph-name="cdotaccent" unicode="&#x10b;" horiz-adv-x="444" 
d="M402 146l14 -18q-58 -66 -117 -104.5t-129 -38.5q-58 0 -90 37.5t-32 98.5q0 98 64 181t157 121q79 34 112 34q18 0 33.5 -11t15.5 -29q0 -22 -13.5 -37t-32.5 -15q-18 0 -42.5 16t-39.5 16q-47 0 -89 -50t-63.5 -111t-21.5 -105q0 -43 25.5 -67.5t69.5 -24.5
q79 0 179 107zM264 610q0 21 14 35t34 14q21 0 35.5 -14t14.5 -35q0 -20 -14.5 -34.5t-35.5 -14.5q-20 0 -34 14.5t-14 34.5z" />
    <glyph glyph-name="Ccaron" unicode="&#x10c;" horiz-adv-x="722" 
d="M725 679l-33 -176l-20 6q7 78 -39 124q-48 48 -131 48q-73 0 -134 -33t-98 -85.5t-57.5 -115.5t-20.5 -126q0 -136 59 -220t171 -84q90 0 145.5 46t94.5 136l22 -5l-40 -170q-12 8 -27 8q-6 0 -17 -3.5t-27.5 -10.5t-23.5 -10q-62 -23 -128 -23q-146 0 -239.5 92.5
t-93.5 243.5q0 162 116.5 277t277.5 115q51 0 89 -7.5t55 -16t31.5 -16t24.5 -7.5q5 0 9.5 2.5t7 4.5t7.5 7t7 6zM449 737l-88 167h33l82 -107l135 107h37l-161 -167h-38z" />
    <glyph glyph-name="ccaron" unicode="&#x10d;" horiz-adv-x="444" 
d="M402 146l14 -18q-58 -66 -117 -104.5t-129 -38.5q-58 0 -90 37.5t-32 98.5q0 98 64 181t157 121q79 34 112 34q18 0 33.5 -11t15.5 -29q0 -22 -13.5 -37t-32.5 -15q-18 0 -42.5 16t-39.5 16q-47 0 -89 -50t-63.5 -111t-21.5 -105q0 -43 25.5 -67.5t69.5 -24.5
q79 0 179 107zM269 546l-88 167h33l82 -107l135 107h37l-161 -167h-38z" />
    <glyph glyph-name="Dcaron" unicode="&#x10e;" horiz-adv-x="833" 
d="M122 96l84 455q10 45 10 79q0 22 -16 30.5t-54 11.5h-19l5 26q60 -3 119 -3q21 0 66 1.5t83 1.5q68 0 122 -13t80 -27t55 -36q113 -86 113 -240q0 -172 -117.5 -277t-293.5 -105q-22 0 -66.5 0.5t-66.5 0.5q-34 0 -101.5 -0.5t-101.5 -0.5l5 26h22q36 2 50.5 15t21.5 55z
M317 663l-106 -569q-4 -21 5 -34.5t31 -19t42 -7t51 -1.5q151 0 241.5 105t90.5 259q0 91 -43 151.5t-95 84.5q-41 19 -69.5 26.5t-77.5 7.5q-25 0 -70 -3zM382 737l-88 167h33l82 -107l135 107h37l-161 -167h-38z" />
    <glyph glyph-name="dcaron" unicode="&#x10f;" 
d="M507 135l14 -14q-99 -136 -168 -136q-13 0 -22 9t-9 22q0 26 19 88l7 22h-2q-36 -43 -60.5 -68t-67 -49t-85.5 -24q-51 0 -74 33.5t-23 87.5q0 90 68 189q41 60 108.5 111t127.5 51q37 0 76 -22l49 252l-60 32l5 14q33 3 73 11q34 7 73 20l10 -4l-155 -647q-5 -22 -5 -33
q0 -16 16 -16q25 0 85 71zM116 131q0 -39 17 -65.5t55 -26.5q47 0 96 55.5t77 122.5t28 110q0 89 -71 89q-53 0 -101.5 -52.5t-74.5 -118t-26 -114.5zM629 539h-20l38 140q11 38 37 38q36 0 36 -30q0 -19 -13 -39z" />
    <glyph glyph-name="Dcroat" unicode="&#x110;" horiz-adv-x="833" 
d="M122 96l45 245h-91l7 41h92l31 169q10 45 10 79q0 22 -16 30.5t-54 11.5h-19l5 26q60 -3 119 -3q21 0 66 1.5t83 1.5q68 0 122 -13t80 -27t55 -36q113 -86 113 -240q0 -172 -117.5 -277t-293.5 -105q-22 0 -66.5 0.5t-66.5 0.5q-34 0 -101.5 -0.5t-101.5 -0.5l5 26h22
q36 2 50.5 15t21.5 55zM475 382l-7 -41h-211l-46 -247q-4 -21 5 -34.5t31 -19t42 -7t51 -1.5q151 0 241.5 105t90.5 259q0 91 -43 151.5t-95 84.5q-41 19 -69.5 26.5t-77.5 7.5q-25 0 -70 -3l-52 -281h210z" />
    <glyph glyph-name="dcroat" unicode="&#x111;" 
d="M507 135l14 -14q-99 -136 -168 -136q-13 0 -22 9t-9 22q0 26 19 88l7 22h-2q-36 -43 -60.5 -68t-67 -49t-85.5 -24q-51 0 -74 33.5t-23 87.5q0 90 68 189q41 60 108.5 111t127.5 51q37 0 76 -22l23 117h-132l7 41h133l18 94l-60 32l5 14q33 3 73 11q34 7 73 20l10 -4
l-40 -167h60l-7 -41h-63l-105 -439q-5 -22 -5 -33q0 -16 16 -16q25 0 85 71zM116 131q0 -39 17 -65.5t55 -26.5q47 0 96 55.5t77 122.5t28 110q0 89 -71 89q-53 0 -101.5 -52.5t-74.5 -118t-26 -114.5z" />
    <glyph glyph-name="Emacron" unicode="&#x112;" horiz-adv-x="667" 
d="M19 0l5 26h14q43 -1 58 15t22 52l94 515q2 9 2 25q0 15 -16 27t-49 12h-20l5 26q27 0 112 -2t131 -2t130.5 2t111.5 2l-11 -139h-20v24q0 52 -32 67.5t-122 15.5h-122l-52 -284h130q84 -2 97 45l13 48h17l-41 -227h-16l3 39q3 32 -18 43t-72 11h-119l-39 -223
q-5 -32 -5 -38q0 -48 57 -48h157q29 0 49.5 2.5t37 10.5t27 16t22 27t18.5 34t20 46h23l-45 -168q-14 0 -142.5 1t-194.5 1q-74 0 -220 -2zM534 777h-259l8 47h259z" />
    <glyph glyph-name="emacron" unicode="&#x113;" horiz-adv-x="444" 
d="M372 132l14 -17q-118 -130 -227 -130q-64 0 -93.5 39t-29.5 96q0 122 90.5 229.5t197.5 107.5q40 0 69 -16.5t29 -54.5q0 -48 -30.5 -85.5t-79.5 -59t-95.5 -33t-92.5 -15.5q-8 -35 -8 -77q0 -36 23 -56.5t59 -20.5q78 0 174 93zM129 219q50 3 96.5 20t81.5 54.5t35 88.5
q0 20 -11 31.5t-30 11.5q-52 0 -104.5 -72.5t-67.5 -133.5zM437 586h-259l8 47h259z" />
    <glyph glyph-name="Ebreve" unicode="&#x114;" horiz-adv-x="667" 
d="M19 0l5 26h14q43 -1 58 15t22 52l94 515q2 9 2 25q0 15 -16 27t-49 12h-20l5 26q27 0 112 -2t131 -2t130.5 2t111.5 2l-11 -139h-20v24q0 52 -32 67.5t-122 15.5h-122l-52 -284h130q84 -2 97 45l13 48h17l-41 -227h-16l3 39q3 32 -18 43t-72 11h-119l-39 -223
q-5 -32 -5 -38q0 -48 57 -48h157q29 0 49.5 2.5t37 10.5t27 16t22 27t18.5 34t20 46h23l-45 -168q-14 0 -142.5 1t-194.5 1q-74 0 -220 -2zM268 896h26q4 -49 32 -75t77 -26q97 0 135 101h26q-16 -71 -58 -116t-110 -45q-69 0 -99.5 44t-28.5 117z" />
    <glyph glyph-name="ebreve" unicode="&#x115;" horiz-adv-x="444" 
d="M372 132l14 -17q-118 -130 -227 -130q-64 0 -93.5 39t-29.5 96q0 122 90.5 229.5t197.5 107.5q40 0 69 -16.5t29 -54.5q0 -48 -30.5 -85.5t-79.5 -59t-95.5 -33t-92.5 -15.5q-8 -35 -8 -77q0 -36 23 -56.5t59 -20.5q78 0 174 93zM129 219q50 3 96.5 20t81.5 54.5t35 88.5
q0 20 -11 31.5t-30 11.5q-52 0 -104.5 -72.5t-67.5 -133.5zM170 705h26q4 -49 32 -75t77 -26q97 0 135 101h26q-16 -71 -58 -116t-110 -45q-69 0 -99.5 44t-28.5 117z" />
    <glyph glyph-name="Edotaccent" unicode="&#x116;" horiz-adv-x="667" 
d="M19 0l5 26h14q43 -1 58 15t22 52l94 515q2 9 2 25q0 15 -16 27t-49 12h-20l5 26q27 0 112 -2t131 -2t130.5 2t111.5 2l-11 -139h-20v24q0 52 -32 67.5t-122 15.5h-122l-52 -284h130q84 -2 97 45l13 48h17l-41 -227h-16l3 39q3 32 -18 43t-72 11h-119l-39 -223
q-5 -32 -5 -38q0 -48 57 -48h157q29 0 49.5 2.5t37 10.5t27 16t22 27t18.5 34t20 46h23l-45 -168q-14 0 -142.5 1t-194.5 1q-74 0 -220 -2zM350 801q0 21 14 35t34 14q21 0 35.5 -14t14.5 -35q0 -20 -14.5 -34.5t-35.5 -14.5q-20 0 -34 14.5t-14 34.5z" />
    <glyph glyph-name="edotaccent" unicode="&#x117;" horiz-adv-x="444" 
d="M372 132l14 -17q-118 -130 -227 -130q-64 0 -93.5 39t-29.5 96q0 122 90.5 229.5t197.5 107.5q40 0 69 -16.5t29 -54.5q0 -48 -30.5 -85.5t-79.5 -59t-95.5 -33t-92.5 -15.5q-8 -35 -8 -77q0 -36 23 -56.5t59 -20.5q78 0 174 93zM129 219q50 3 96.5 20t81.5 54.5t35 88.5
q0 20 -11 31.5t-30 11.5q-52 0 -104.5 -72.5t-67.5 -133.5zM256 610q0 21 14 35t34 14q21 0 35.5 -14t14.5 -35q0 -20 -14.5 -34.5t-35.5 -14.5q-20 0 -34 14.5t-14 34.5z" />
    <glyph glyph-name="Eogonek" unicode="&#x118;" horiz-adv-x="667" 
d="M494 -133l18 -10q-21 -31 -50.5 -48t-54.5 -17q-78 0 -77 60q0 80 131 149q-35 0 -112 0.5t-110 0.5q-74 0 -220 -2l5 26h14q43 -1 58 15t22 52l94 515q2 9 2 25q0 15 -16 27t-49 12h-20l5 26q27 0 112 -2t131 -2t130.5 2t111.5 2l-11 -139h-20v24q0 52 -32 67.5
t-122 15.5h-122l-52 -284h130q84 -2 97 45l13 48h17l-41 -227h-16l3 39q3 32 -18 43t-72 11h-119l-39 -223q-5 -32 -5 -38q0 -48 57 -48h157q29 0 49.5 2.5t37 10.5t27 16t22 27t18.5 34t20 46h23l-45 -168h-76q-104 -71 -104 -136q1 -13 10 -22t21 -9q37 0 67 34z" />
    <glyph glyph-name="eogonek" unicode="&#x119;" horiz-adv-x="444" 
d="M205 -133l18 -10q-21 -31 -50.5 -48t-54.5 -17q-78 0 -77 60q0 70 104 134q-56 4 -82.5 42t-26.5 92q0 122 90.5 229.5t197.5 107.5q40 0 69 -16.5t29 -54.5q0 -48 -30.5 -85.5t-79.5 -59t-95.5 -33t-92.5 -15.5q-8 -35 -8 -77q0 -36 23 -56.5t59 -20.5q78 0 174 93
l14 -17q-100 -111 -192 -127q-87 -66 -87 -124q1 -13 10 -22t21 -9q37 0 67 34zM129 219q50 3 96.5 20t81.5 54.5t35 88.5q0 20 -11 31.5t-30 11.5q-52 0 -104.5 -72.5t-67.5 -133.5z" />
    <glyph glyph-name="Ecaron" unicode="&#x11a;" horiz-adv-x="667" 
d="M19 0l5 26h14q43 -1 58 15t22 52l94 515q2 9 2 25q0 15 -16 27t-49 12h-20l5 26q27 0 112 -2t131 -2t130.5 2t111.5 2l-11 -139h-20v24q0 52 -32 67.5t-122 15.5h-122l-52 -284h130q84 -2 97 45l13 48h17l-41 -227h-16l3 39q3 32 -18 43t-72 11h-119l-39 -223
q-5 -32 -5 -38q0 -48 57 -48h157q29 0 49.5 2.5t37 10.5t27 16t22 27t18.5 34t20 46h23l-45 -168q-14 0 -142.5 1t-194.5 1q-74 0 -220 -2zM377 737l-88 167h33l82 -107l135 107h37l-161 -167h-38z" />
    <glyph glyph-name="ecaron" unicode="&#x11b;" horiz-adv-x="444" 
d="M372 132l14 -17q-118 -130 -227 -130q-64 0 -93.5 39t-29.5 96q0 122 90.5 229.5t197.5 107.5q40 0 69 -16.5t29 -54.5q0 -48 -30.5 -85.5t-79.5 -59t-95.5 -33t-92.5 -15.5q-8 -35 -8 -77q0 -36 23 -56.5t59 -20.5q78 0 174 93zM129 219q50 3 96.5 20t81.5 54.5t35 88.5
q0 20 -11 31.5t-30 11.5q-52 0 -104.5 -72.5t-67.5 -133.5zM275 546l-88 167h33l82 -107l135 107h37l-161 -167h-38z" />
    <glyph glyph-name="Gcircumflex" unicode="&#x11c;" horiz-adv-x="833" 
d="M769 672l-27 -169h-20q0 80 -37 121q-26 28 -71 42.5t-89 14.5q-134 0 -233.5 -111.5t-99.5 -251.5q0 -75 27 -142.5t82.5 -113t128.5 -45.5q64 0 104.5 20t51.5 75l16 101q3 17 -2.5 27.5t-20 15t-25.5 5.5t-30 1h-21l5 26q83 -3 166 -3q18 0 53 1.5t52 1.5l-5 -25h-13
q-38 0 -52 -19.5t-23 -63.5l-23 -141q-132 -54 -239 -54q-147 0 -241.5 90.5t-94.5 239.5q0 111 58 203t154.5 143.5t207.5 51.5q98 0 186 -34q30 -11 39 -11q6 0 12.5 4t7.5 4zM549 904l88 -167h-33l-82 107l-135 -107h-37l161 167h38z" />
    <glyph glyph-name="gcircumflex" unicode="&#x11d;" horiz-adv-x="500" 
d="M176 95l157 -81q29 -16 42 -25t24.5 -28.5t11.5 -46.5q0 -47 -40 -81t-89 -47.5t-94 -13.5q-32 0 -63 4.5t-65.5 16t-56 36t-21.5 58.5q0 21 11.5 40.5t26.5 32.5t40 27t40.5 20.5t38.5 15.5q-1 1 -15.5 9.5t-20.5 12.5t-13 13.5t-7 19.5q0 8 3 15.5t9 15t11 13.5t15 13
l15 10.5t15.5 10t12.5 8.5q-44 24 -64.5 52t-20.5 73q0 68 61 118t134 50q26 0 46.5 -4.5t44.5 -13.5t41 -13q18 -5 21 -5q13 0 33 12t31 12q16 0 16 -29q0 -15 -6.5 -26t-17.5 -11q-9 0 -34 12t-45 14q32 -35 32 -84q0 -75 -62 -123.5t-140 -48.5q-24 0 -46 3
q-7 -2 -19 -15t-12 -20q0 -13 19 -22zM296 -55l-127 65q-17 -6 -41 -18t-52 -38t-28 -51q0 -35 26.5 -58.5t58.5 -32t67 -8.5q29 0 59.5 6t58 25.5t27.5 49.5q0 35 -49 60zM356 346q0 35 -17.5 60t-53.5 25q-38 2 -68 -26.5t-44 -67t-14 -73.5q0 -89 73 -89q55 0 89.5 56
t34.5 115zM356 713l88 -167h-33l-82 107l-135 -107h-37l161 167h38z" />
    <glyph glyph-name="Gbreve" unicode="&#x11e;" horiz-adv-x="833" 
d="M769 672l-27 -169h-20q0 80 -37 121q-26 28 -71 42.5t-89 14.5q-134 0 -233.5 -111.5t-99.5 -251.5q0 -75 27 -142.5t82.5 -113t128.5 -45.5q64 0 104.5 20t51.5 75l16 101q3 17 -2.5 27.5t-20 15t-25.5 5.5t-30 1h-21l5 26q83 -3 166 -3q18 0 53 1.5t52 1.5l-5 -25h-13
q-38 0 -52 -19.5t-23 -63.5l-23 -141q-132 -54 -239 -54q-147 0 -241.5 90.5t-94.5 239.5q0 111 58 203t154.5 143.5t207.5 51.5q98 0 186 -34q30 -11 39 -11q6 0 12.5 4t7.5 4zM380 896h26q4 -49 32 -75t77 -26q97 0 135 101h26q-16 -71 -58 -116t-110 -45q-69 0 -99.5 44
t-28.5 117z" />
    <glyph glyph-name="gbreve" unicode="&#x11f;" horiz-adv-x="500" 
d="M176 95l157 -81q29 -16 42 -25t24.5 -28.5t11.5 -46.5q0 -47 -40 -81t-89 -47.5t-94 -13.5q-32 0 -63 4.5t-65.5 16t-56 36t-21.5 58.5q0 21 11.5 40.5t26.5 32.5t40 27t40.5 20.5t38.5 15.5q-1 1 -15.5 9.5t-20.5 12.5t-13 13.5t-7 19.5q0 8 3 15.5t9 15t11 13.5t15 13
l15 10.5t15.5 10t12.5 8.5q-44 24 -64.5 52t-20.5 73q0 68 61 118t134 50q26 0 46.5 -4.5t44.5 -13.5t41 -13q18 -5 21 -5q13 0 33 12t31 12q16 0 16 -29q0 -15 -6.5 -26t-17.5 -11q-9 0 -34 12t-45 14q32 -35 32 -84q0 -75 -62 -123.5t-140 -48.5q-24 0 -46 3
q-7 -2 -19 -15t-12 -20q0 -13 19 -22zM296 -55l-127 65q-17 -6 -41 -18t-52 -38t-28 -51q0 -35 26.5 -58.5t58.5 -32t67 -8.5q29 0 59.5 6t58 25.5t27.5 49.5q0 35 -49 60zM356 346q0 35 -17.5 60t-53.5 25q-38 2 -68 -26.5t-44 -67t-14 -73.5q0 -89 73 -89q55 0 89.5 56
t34.5 115zM174 705h26q4 -49 32 -75t77 -26q97 0 135 101h26q-16 -71 -58 -116t-110 -45q-69 0 -99.5 44t-28.5 117z" />
    <glyph glyph-name="Gdotaccent" unicode="&#x120;" horiz-adv-x="833" 
d="M769 672l-27 -169h-20q0 80 -37 121q-26 28 -71 42.5t-89 14.5q-134 0 -233.5 -111.5t-99.5 -251.5q0 -75 27 -142.5t82.5 -113t128.5 -45.5q64 0 104.5 20t51.5 75l16 101q3 17 -2.5 27.5t-20 15t-25.5 5.5t-30 1h-21l5 26q83 -3 166 -3q18 0 53 1.5t52 1.5l-5 -25h-13
q-38 0 -52 -19.5t-23 -63.5l-23 -141q-132 -54 -239 -54q-147 0 -241.5 90.5t-94.5 239.5q0 111 58 203t154.5 143.5t207.5 51.5q98 0 186 -34q30 -11 39 -11q6 0 12.5 4t7.5 4zM459 801q0 21 14 35t34 14q21 0 35.5 -14t14.5 -35q0 -20 -14.5 -34.5t-35.5 -14.5
q-20 0 -34 14.5t-14 34.5z" />
    <glyph glyph-name="gdotaccent" unicode="&#x121;" horiz-adv-x="500" 
d="M176 95l157 -81q29 -16 42 -25t24.5 -28.5t11.5 -46.5q0 -47 -40 -81t-89 -47.5t-94 -13.5q-32 0 -63 4.5t-65.5 16t-56 36t-21.5 58.5q0 21 11.5 40.5t26.5 32.5t40 27t40.5 20.5t38.5 15.5q-1 1 -15.5 9.5t-20.5 12.5t-13 13.5t-7 19.5q0 8 3 15.5t9 15t11 13.5t15 13
l15 10.5t15.5 10t12.5 8.5q-44 24 -64.5 52t-20.5 73q0 68 61 118t134 50q26 0 46.5 -4.5t44.5 -13.5t41 -13q18 -5 21 -5q13 0 33 12t31 12q16 0 16 -29q0 -15 -6.5 -26t-17.5 -11q-9 0 -34 12t-45 14q32 -35 32 -84q0 -75 -62 -123.5t-140 -48.5q-24 0 -46 3
q-7 -2 -19 -15t-12 -20q0 -13 19 -22zM296 -55l-127 65q-17 -6 -41 -18t-52 -38t-28 -51q0 -35 26.5 -58.5t58.5 -32t67 -8.5q29 0 59.5 6t58 25.5t27.5 49.5q0 35 -49 60zM356 346q0 35 -17.5 60t-53.5 25q-38 2 -68 -26.5t-44 -67t-14 -73.5q0 -89 73 -89q55 0 89.5 56
t34.5 115zM264 610q0 21 14 35t34 14q21 0 35.5 -14t14.5 -35q0 -20 -14.5 -34.5t-35.5 -14.5q-20 0 -34 14.5t-14 34.5z" />
    <glyph glyph-name="Gcommaaccent" unicode="&#x122;" horiz-adv-x="833" 
d="M769 672l-27 -169h-20q0 80 -37 121q-26 28 -71 42.5t-89 14.5q-134 0 -233.5 -111.5t-99.5 -251.5q0 -75 27 -142.5t82.5 -113t128.5 -45.5q64 0 104.5 20t51.5 75l16 101q3 17 -2.5 27.5t-20 15t-25.5 5.5t-30 1h-21l5 26q83 -3 166 -3q18 0 53 1.5t52 1.5l-5 -25h-13
q-38 0 -52 -19.5t-23 -63.5l-23 -141q-132 -54 -239 -54q-147 0 -241.5 90.5t-94.5 239.5q0 111 58 203t154.5 143.5t207.5 51.5q98 0 186 -34q30 -11 39 -11q6 0 12.5 4t7.5 4zM338 -213l-11 19q30 8 56 25t26 35q0 11 -5.5 15t-22.5 4q-18 0 -28.5 10t-10.5 25
q0 18 14.5 28.5t33.5 10.5q31 0 45.5 -18t14.5 -44q0 -42 -33 -71t-79 -39z" />
    <glyph glyph-name="gcommaaccent" unicode="&#x123;" horiz-adv-x="500" 
d="M176 95l157 -81q29 -16 42 -25t24.5 -28.5t11.5 -46.5q0 -47 -40 -81t-89 -47.5t-94 -13.5q-32 0 -63 4.5t-65.5 16t-56 36t-21.5 58.5q0 21 11.5 40.5t26.5 32.5t40 27t40.5 20.5t38.5 15.5q-1 1 -15.5 9.5t-20.5 12.5t-13 13.5t-7 19.5q0 8 3 15.5t9 15t11 13.5t15 13
l15 10.5t15.5 10t12.5 8.5q-44 24 -64.5 52t-20.5 73q0 68 61 118t134 50q26 0 46.5 -4.5t44.5 -13.5t41 -13q18 -5 21 -5q13 0 33 12t31 12q16 0 16 -29q0 -15 -6.5 -26t-17.5 -11q-9 0 -34 12t-45 14q32 -35 32 -84q0 -75 -62 -123.5t-140 -48.5q-24 0 -46 3
q-7 -2 -19 -15t-12 -20q0 -13 19 -22zM296 -55l-127 65q-17 -6 -41 -18t-52 -38t-28 -51q0 -35 26.5 -58.5t58.5 -32t67 -8.5q29 0 59.5 6t58 25.5t27.5 49.5q0 35 -49 60zM356 346q0 35 -17.5 60t-53.5 25q-38 2 -68 -26.5t-44 -67t-14 -73.5q0 -89 73 -89q55 0 89.5 56
t34.5 115zM368 719l11 -19q-30 -8 -56 -25t-26 -35q0 -11 5.5 -15t22.5 -4q18 0 28.5 -10t10.5 -25q0 -18 -14.5 -28.5t-33.5 -10.5q-31 0 -45.5 18t-14.5 44q0 42 33 71t79 39z" />
    <glyph glyph-name="Hcircumflex" unicode="&#x124;" horiz-adv-x="833" 
d="M293 571l-34 -189h373l40 218q2 26 2.5 40.5t-9.5 21.5t-17.5 8.5t-22.5 1.5h-34l5 26q72 -3 141 -3q20 0 61 1.5t62 1.5l-5 -26h-18q-44 0 -56.5 -17.5t-24.5 -83.5l-83 -444q-12 -67 -5 -84.5t43 -16.5h37l-5 -26q-22 0 -66.5 1t-66.5 1q-43 0 -129 -2l5 26h19
q41 -1 53.5 15t22.5 69l42 231h-371l-41 -214q-12 -67 -5 -84.5t43 -16.5h37l-5 -26q-22 0 -66.5 1t-66.5 1q-43 0 -129 -2l5 26h19q41 -1 53.5 15t22.5 69l90 490q2 26 2.5 40.5t-9.5 21.5t-17.5 8.5t-22.5 1.5h-34l5 26q72 -3 141 -3q20 0 61 1.5t62 1.5l-5 -26h-18
q-44 0 -56.5 -17.5t-24.5 -83.5zM557 904l88 -167h-33l-82 107l-135 -107h-37l161 167h38z" />
    <glyph glyph-name="hcircumflex" unicode="&#x125;" 
d="M295 760l-141 -527h2q44 69 127 146.5t145 77.5q72 0 72 -87q0 -52 -34 -139t-88.5 -159t-102.5 -72q-24 0 -24 22q0 5 5 20l21 49h69q27 54 50.5 127t23.5 120q0 59 -40 59q-46 0 -116 -76t-100 -132q-33 -61 -60 -171q-4 -16 -43 -16q-32 0 -32 17q0 1 6 31l158 647
l-49 28l3 13q45 6 66 9q30 5 71 17zM368 977l88 -167h-33l-82 107l-135 -107h-37l161 167h38z" />
    <glyph glyph-name="Hbar" unicode="&#x126;" horiz-adv-x="833" 
d="M293 571l-5 -29h373l11 58q2 26 2.5 40.5t-9.5 21.5t-17.5 8.5t-22.5 1.5h-34l5 26q72 -3 141 -3q20 0 61 1.5t62 1.5l-5 -26h-18q-44 0 -56.5 -17.5t-24.5 -83.5l-83 -444q-12 -67 -5 -84.5t43 -16.5h37l-5 -26q-22 0 -66.5 1t-66.5 1q-43 0 -129 -2l5 26h19
q41 -1 53.5 15t22.5 69l42 231h-371l-41 -214q-12 -67 -5 -84.5t43 -16.5h37l-5 -26q-22 0 -66.5 1t-66.5 1q-43 0 -129 -2l5 26h19q41 -1 53.5 15t22.5 69l90 490q2 26 2.5 40.5t-9.5 21.5t-17.5 8.5t-22.5 1.5h-34l5 26q72 -3 141 -3q20 0 61 1.5t62 1.5l-5 -26h-18
q-44 0 -56.5 -17.5t-24.5 -83.5zM259 382h373l22 119h-374z" />
    <glyph glyph-name="hbar" unicode="&#x127;" 
d="M295 760l-45 -166h147l-7 -41h-151l-85 -320h2q44 69 127 146.5t145 77.5q72 0 72 -87q0 -52 -34 -139t-88.5 -159t-102.5 -72q-24 0 -24 22q0 5 5 20l21 49h69q27 54 50.5 127t23.5 120q0 59 -40 59q-46 0 -116 -76t-100 -132q-33 -61 -60 -171q-4 -16 -43 -16
q-32 0 -32 17q0 1 6 31l123 503h-60l7 41h63l25 103l-49 28l3 13q45 6 66 9q30 5 71 17z" />
    <glyph glyph-name="Itilde" unicode="&#x128;" horiz-adv-x="389" 
d="M23 0l5 26h17q41 0 53 12.5t23 58.5l97 529q3 16 -1.5 26.5t-16.5 14.5t-20 4.5t-23 0.5h-6h-18l5 26q50 -2 147 -2q19 0 58 1t59 1l-5 -26h-19h-4h-8t-8.5 -0.5t-9.5 -1.5t-9.5 -3t-10 -5t-8.5 -7.5t-7 -11t-5 -14.5l-98 -533q-8 -44 5 -57t61 -13h15l-5 -26
q-22 0 -66.5 1t-66.5 1q-44 0 -130 -2zM157 759h-27q10 41 38.5 68.5t69.5 27.5q22 0 70 -22t62 -22q35 0 59 49h26q-5 -38 -36 -69t-69 -31q-20 0 -68 22q-54 26 -65 26q-23 0 -35.5 -11.5t-24.5 -37.5z" />
    <glyph glyph-name="itilde" unicode="&#x129;" horiz-adv-x="278" 
d="M63 313l-14 14q30 45 75 87.5t83 42.5q31 0 31 -25q0 -14 -14 -56l-82 -254q-10 -32 -10 -42q0 -15 13 -15q17 0 76 65l16 -13q-97 -132 -159 -132q-38 0 -38 40q0 18 11 49l86 254q9 25 9 37t-12 12q-23 0 -71 -64zM75 568h-27q10 41 38.5 68.5t69.5 27.5q22 0 70 -22
t62 -22q35 0 59 49h26q-5 -38 -36 -69t-69 -31q-20 0 -68 22q-54 26 -65 26q-23 0 -35.5 -11.5t-24.5 -37.5z" />
    <glyph glyph-name="Imacron" unicode="&#x12a;" horiz-adv-x="389" 
d="M23 0l5 26h17q41 0 53 12.5t23 58.5l97 529q3 16 -1.5 26.5t-16.5 14.5t-20 4.5t-23 0.5h-6h-18l5 26q50 -2 147 -2q19 0 58 1t59 1l-5 -26h-19h-4h-8t-8.5 -0.5t-9.5 -1.5t-9.5 -3t-10 -5t-8.5 -7.5t-7 -11t-5 -14.5l-98 -533q-8 -44 5 -57t61 -13h15l-5 -26
q-22 0 -66.5 1t-66.5 1q-44 0 -130 -2zM417 777h-259l8 47h259z" />
    <glyph glyph-name="imacron" unicode="&#x12b;" horiz-adv-x="278" 
d="M63 313l-14 14q30 45 75 87.5t83 42.5q31 0 31 -25q0 -14 -14 -56l-82 -254q-10 -32 -10 -42q0 -15 13 -15q17 0 76 65l16 -13q-97 -132 -159 -132q-38 0 -38 40q0 18 11 49l86 254q9 25 9 37t-12 12q-23 0 -71 -64zM346 586h-259l8 47h259z" />
    <glyph glyph-name="Ibreve" unicode="&#x12c;" horiz-adv-x="389" 
d="M23 0l5 26h17q41 0 53 12.5t23 58.5l97 529q3 16 -1.5 26.5t-16.5 14.5t-20 4.5t-23 0.5h-6h-18l5 26q50 -2 147 -2q19 0 58 1t59 1l-5 -26h-19h-4h-8t-8.5 -0.5t-9.5 -1.5t-9.5 -3t-10 -5t-8.5 -7.5t-7 -11t-5 -14.5l-98 -533q-8 -44 5 -57t61 -13h15l-5 -26
q-22 0 -66.5 1t-66.5 1q-44 0 -130 -2zM164 896h26q4 -49 32 -75t77 -26q97 0 135 101h26q-16 -71 -58 -116t-110 -45q-69 0 -99.5 44t-28.5 117z" />
    <glyph glyph-name="ibreve" unicode="&#x12d;" horiz-adv-x="278" 
d="M63 313l-14 14q30 45 75 87.5t83 42.5q31 0 31 -25q0 -14 -14 -56l-82 -254q-10 -32 -10 -42q0 -15 13 -15q17 0 76 65l16 -13q-97 -132 -159 -132q-38 0 -38 40q0 18 11 49l86 254q9 25 9 37t-12 12q-23 0 -71 -64zM119 705h26q4 -49 32 -75t77 -26q97 0 135 101h26
q-16 -71 -58 -116t-110 -45q-69 0 -99.5 44t-28.5 117z" />
    <glyph glyph-name="Iogonek" unicode="&#x12e;" horiz-adv-x="389" 
d="M186 -133l18 -10q-21 -31 -50.5 -48t-54.5 -17q-78 0 -77 60q0 80 133 150h-2q-44 0 -130 -2l5 26h17q41 0 53 12.5t23 58.5l97 529q3 16 -1.5 26.5t-16.5 14.5t-20 4.5t-23 0.5h-6h-18l5 26q50 -2 147 -2q19 0 58 1t59 1l-5 -26h-19h-4h-8t-8.5 -0.5t-9.5 -1.5t-9.5 -3
t-10 -5t-8.5 -7.5t-7 -11t-5 -14.5l-98 -533q-8 -44 5 -57t61 -13h15l-5 -26q-15 0 -45.5 0.5t-46.5 0.5q-106 -72 -106 -137q1 -13 10 -22t21 -9q37 0 67 34z" />
    <glyph glyph-name="iogonek" unicode="&#x12f;" horiz-adv-x="278" 
d="M115 -133l18 -10q-21 -31 -50.5 -48t-54.5 -17q-78 0 -77 60q0 72 108 136q-19 8 -19 37q0 12 11 49l86 254q9 25 9 37t-12 12q-23 0 -71 -64l-14 14q30 45 75 87.5t83 42.5q31 0 31 -25q0 -14 -14 -56l-82 -254q-10 -32 -10 -42q0 -15 13 -15q17 0 76 65l16 -13
q-71 -97 -124 -122q-96 -69 -96 -131q1 -13 10 -22t21 -9q37 0 67 34zM229 690q18 0 32 -14.5t14 -32.5q0 -17 -14 -31t-32 -14t-32 14t-14 31q0 18 14 32.5t32 14.5z" />
    <glyph glyph-name="Idotaccent" unicode="&#x130;" horiz-adv-x="389" 
d="M23 0l5 26h17q41 0 53 12.5t23 58.5l97 529q3 16 -1.5 26.5t-16.5 14.5t-20 4.5t-23 0.5h-6h-18l5 26q50 -2 147 -2q19 0 58 1t59 1l-5 -26h-19h-4h-8t-8.5 -0.5t-9.5 -1.5t-9.5 -3t-10 -5t-8.5 -7.5t-7 -11t-5 -14.5l-98 -533q-8 -44 5 -57t61 -13h15l-5 -26
q-22 0 -66.5 1t-66.5 1q-44 0 -130 -2zM237 801q0 21 14 35t34 14q21 0 35.5 -14t14.5 -35q0 -20 -14.5 -34.5t-35.5 -14.5q-20 0 -34 14.5t-14 34.5z" />
    <glyph glyph-name="dotlessi" unicode="&#x131;" horiz-adv-x="278" 
d="M63 313l-14 14q30 45 75 87.5t83 42.5q31 0 31 -25q0 -14 -14 -56l-82 -254q-10 -32 -10 -42q0 -15 13 -15q17 0 76 65l16 -13q-97 -132 -159 -132q-38 0 -38 40q0 18 11 49l86 254q9 25 9 37t-12 12q-23 0 -71 -64z" />
    <glyph glyph-name="Jcircumflex" unicode="&#x134;" horiz-adv-x="389" 
d="M96 -56l121 634q11 53 11 64q0 30 -46 30h-47l5 26q67 -3 134 -3q21 0 63.5 1.5t64.5 1.5l-5 -26h-26q-29 0 -39 -14t-17 -49l-94 -478q-15 -81 -48 -168t-76 -137q-25 -28 -47 -41t-53 -13q-26 0 -47 15.5t-21 39.5q0 15 11 26t27 11q18 0 27 -9.5t10 -20.5t7 -20.5
t19 -9.5q40 0 66 140zM333 904l88 -167h-33l-82 107l-135 -107h-37l161 167h38z" />
    <glyph glyph-name="jcircumflex" unicode="&#x135;" horiz-adv-x="278" 
d="M-31 -228l-7 22q43 26 61 95l115 440q8 29 8 36q0 12 -12 12q-23 0 -71 -64l-14 14q30 45 75 87.5t83 42.5q31 0 31 -25q0 -3 -22 -85l-104 -374q-4 -14 -7.5 -25.5t-7 -21.5t-5.5 -16.5t-6.5 -15t-6 -11.5t-7 -11.5t-7 -10t-8.5 -11.5t-9 -13q-28 -40 -79 -65zM272 713
l88 -167h-33l-82 107l-135 -107h-37l161 167h38z" />
    <glyph glyph-name="Kcommaaccent" unicode="&#x136;" horiz-adv-x="722" 
d="M130 672l5 26q46 -2 138 -2q20 0 60.5 1t60.5 1l-5 -26q-79 0 -90 -59l-46 -257h11q15 0 30.5 7.5t22.5 13t24.5 23.5t20.5 21q38 36 115.5 123.5t77.5 104.5q0 25 -36 23h-14l5 26q33 -2 99 -2q18 0 54.5 1t54.5 1l-5 -26q-34 0 -49 -7q-32 -15 -93 -73l-215 -221
l201 -275q17 -23 25.5 -33.5t27.5 -23.5t38 -13h12l-5 -26q-13 0 -40 1t-41 1q-8 0 -22 -1t-22 -1q-11 0 -25 14.5t-42 52.5q-20 27 -79.5 111t-95.5 131q-16 21 -30 21h-11l-36 -197q-9 -61 -9 -73q0 -10 3.5 -16t19.5 -12t45 -6h15l-5 -26q-20 0 -59.5 1t-59.5 1
q-46 0 -138 -2l5 26h4h15t13.5 0.5t12.5 2t12.5 5.5t11.5 10q12 14 24 80l88 479q4 19 4 34q0 17 -10.5 25t-22 9.5t-33.5 0.5h-17zM244 -213l-11 19q30 8 56 25t26 35q0 11 -5.5 15t-22.5 4q-18 0 -28.5 10t-10.5 25q0 18 14.5 28.5t33.5 10.5q31 0 45.5 -18t14.5 -44
q0 -42 -33 -71t-79 -39z" />
    <glyph glyph-name="kcommaaccent" unicode="&#x137;" 
d="M41 7l167 678l-49 30l3 16q80 14 137 33l9 -4l-116 -443h2q34 48 95 94t115 46q34 0 54.5 -19.5t20.5 -54.5q0 -47 -39 -88.5t-87.5 -65t-97.5 -35.5v-2q26 -11 75 -68.5t65 -71.5q19 -16 33.5 -21t40.5 -5q12 0 30 11v-26q-43 -26 -97 -26q-69 0 -119 65l-71 94
q-25 36 -52 42l-49 -180q-5 -20 -37 -20q-14 0 -24.5 6.5t-8.5 14.5zM405 350q0 47 -53 47q-58 0 -115 -65.5t-74 -125.5q14 0 42 2q39 3 84 21t80.5 51t35.5 70zM140 -213l-11 19q30 8 56 25t26 35q0 11 -5.5 15t-22.5 4q-18 0 -28.5 10t-10.5 25q0 18 14.5 28.5t33.5 10.5
q31 0 45.5 -18t14.5 -44q0 -42 -33 -71t-79 -39z" />
    <glyph glyph-name="kgreenlandic" unicode="&#x138;" horiz-adv-x="555" 
d="M173 243l124 123q29 28 46.5 43.5t45.5 30t53 14.5q19 0 31 -13t12 -32q0 -45 -48 -69l-8 5q-2 10 -4.5 15t-9.5 9.5t-19 4.5q-25 0 -59.5 -26t-92.5 -86q58 -107 94.5 -159.5t55 -64.5t43.5 -12q26 0 44 11v-26q-43 -26 -97 -26q-40 0 -66 15.5t-60.5 67t-87.5 160.5
l-60 -222q-5 -20 -37 -20q-13 0 -23 6t-10 13l90 378l-49 30l3 16q80 14 137 33l5 -3z" />
    <glyph glyph-name="Lacute" unicode="&#x139;" horiz-adv-x="667" 
d="M628 174l-54 -174q-204 2 -307 2q-157 0 -235 -2l5 26h26q39 4 53.5 22.5t23.5 69.5l88 498q5 26 -11.5 40t-36 16t-41.5 0l5 26q25 0 75.5 -1t75.5 -1q21 0 64 1t65 1l-5 -26q-52 1 -70 -9.5t-29 -55.5l-105 -575h212q136 0 177 142h24zM247 737h-26l152 148
q25 19 34 19q12 0 22 -10t10 -23q0 -17 -35 -39l-115 -75q-29 -20 -42 -20z" />
    <glyph glyph-name="lacute" unicode="&#x13a;" horiz-adv-x="278" 
d="M292 758l-156 -652q-3 -12 -3 -20q0 -21 13 -21q21 0 77 77l12 -21q-4 -5 -21.5 -29.5t-29 -38t-29.5 -32t-35.5 -27.5t-35.5 -9q-37 0 -37 49q0 21 7 49l140 604l-60 32l5 14q33 3 73 11q34 7 73 20zM213 782h-26l152 148q25 19 34 19q12 0 22 -10t10 -23q0 -17 -35 -39
l-115 -75q-29 -20 -42 -20z" />
    <glyph glyph-name="Lcommaaccent" unicode="&#x13b;" horiz-adv-x="667" 
d="M628 174l-54 -174q-204 2 -307 2q-157 0 -235 -2l5 26h26q39 4 53.5 22.5t23.5 69.5l88 498q5 26 -11.5 40t-36 16t-41.5 0l5 26q25 0 75.5 -1t75.5 -1q21 0 64 1t65 1l-5 -26q-52 1 -70 -9.5t-29 -55.5l-105 -575h212q136 0 177 142h24zM238 -213l-11 19q30 8 56 25
t26 35q0 11 -5.5 15t-22.5 4q-18 0 -28.5 10t-10.5 25q0 18 14.5 28.5t33.5 10.5q31 0 45.5 -18t14.5 -44q0 -42 -33 -71t-79 -39z" />
    <glyph glyph-name="lcommaaccent" unicode="&#x13c;" horiz-adv-x="278" 
d="M292 758l-156 -652q-3 -12 -3 -20q0 -21 13 -21q21 0 77 77l12 -21q-4 -5 -21.5 -29.5t-29 -38t-29.5 -32t-35.5 -27.5t-35.5 -9q-37 0 -37 49q0 21 7 49l140 604l-60 32l5 14q33 3 73 11q34 7 73 20zM5 -213l-11 19q30 8 56 25t26 35q0 11 -5.5 15t-22.5 4
q-18 0 -28.5 10t-10.5 25q0 18 14.5 28.5t33.5 10.5q31 0 45.5 -18t14.5 -44q0 -42 -33 -71t-79 -39z" />
    <glyph glyph-name="Lcaron" unicode="&#x13d;" horiz-adv-x="667" 
d="M628 174l-54 -174q-204 2 -307 2q-157 0 -235 -2l5 26h26q39 4 53.5 22.5t23.5 69.5l88 498q5 26 -11.5 40t-36 16t-41.5 0l5 26q25 0 75.5 -1t75.5 -1q21 0 64 1t65 1l-5 -26q-52 1 -70 -9.5t-29 -55.5l-105 -575h212q136 0 177 142h24zM486 539h-20l38 140q11 38 37 38
q36 0 36 -30q0 -19 -13 -39z" />
    <glyph glyph-name="lcaron" unicode="&#x13e;" horiz-adv-x="278" 
d="M292 758l-156 -652q-3 -12 -3 -20q0 -21 13 -21q21 0 77 77l12 -21q-4 -5 -21.5 -29.5t-29 -38t-29.5 -32t-35.5 -27.5t-35.5 -9q-37 0 -37 49q0 21 7 49l140 604l-60 32l5 14q33 3 73 11q34 7 73 20zM347 539h-20l38 140q11 38 37 38q36 0 36 -30q0 -19 -13 -39z" />
    <glyph glyph-name="Ldot" unicode="&#x13f;" horiz-adv-x="667" 
d="M628 174l-54 -174q-204 2 -307 2q-157 0 -235 -2l5 26h26q39 4 53.5 22.5t23.5 69.5l88 498q5 26 -11.5 40t-36 16t-41.5 0l5 26q25 0 75.5 -1t75.5 -1q21 0 64 1t65 1l-5 -26q-52 1 -70 -9.5t-29 -55.5l-105 -575h212q136 0 177 142h24zM484 350q0 21 14 35t34 14
q21 0 35.5 -14t14.5 -35q0 -20 -14.5 -34.5t-35.5 -14.5q-20 0 -34 14.5t-14 34.5z" />
    <glyph glyph-name="ldot" unicode="&#x140;" horiz-adv-x="389" 
d="M292 758l-156 -652q-3 -12 -3 -20q0 -21 13 -21q21 0 77 77l12 -21q-4 -5 -21.5 -29.5t-29 -38t-29.5 -32t-35.5 -27.5t-35.5 -9q-37 0 -37 49q0 21 7 49l140 604l-60 32l5 14q33 3 73 11q34 7 73 20zM282 350q0 21 14 35t34 14q21 0 35.5 -14t14.5 -35
q0 -20 -14.5 -34.5t-35.5 -14.5q-20 0 -34 14.5t-14 34.5z" />
    <glyph glyph-name="Lslash" unicode="&#x141;" horiz-adv-x="667" 
d="M140 118l25 143l-93 -69l11 68l94 70l51 286q5 26 -11.5 40t-36 16t-41.5 0l5 26q25 0 75.5 -1t75.5 -1q21 0 64 1t65 1l-5 -26q-52 1 -70 -9.5t-29 -55.5l-36 -199l213 158l-11 -68l-214 -158l-57 -308h212q136 0 177 142h24l-54 -174q-204 2 -307 2q-157 0 -235 -2
l5 26h26q39 4 53.5 22.5t23.5 69.5z" />
    <glyph glyph-name="lslash" unicode="&#x142;" horiz-adv-x="278" 
d="M136 397l68 290l-60 31l5 15q25 1 73 10q29 5 73 21l7 -6l-72 -299l2 -2l78 59l-15 -61l-79 -58l-70 -291q-4 -20 -4 -25q3 -16 14 -16q21 0 77 77l12 -21q-4 -5 -21.5 -29.5t-29 -38t-29.5 -32t-35.5 -27.5t-35.5 -9q-38 0 -38 49q1 10 7 49l60 255l-2 2l-74 -58l15 64z
" />
    <glyph glyph-name="Nacute" unicode="&#x143;" horiz-adv-x="833" 
d="M19 0l4 26h14q31 0 46.5 7.5t28.5 37t24 91.5l76 432q1 3 -6.5 15t-21 26.5t-26.5 19.5q-34 17 -56 17h-9l4 26q45 -3 91 -3q11 0 33.5 1.5t33.5 1.5l382 -567l71 417q7 31 7 67q0 35 -18.5 46t-54.5 11h-19l4 26q55 -3 111 -3q20 0 59 1.5t59 1.5l-4 -26h-15
q-10 0 -18 -2t-14.5 -4t-12 -8t-9.5 -9.5t-7.5 -12.5t-5.5 -13t-4.5 -16t-3.5 -16.5t-3.5 -18.5t-3.5 -19l-86 -467q34 -56 71 -66l-5 -20q-40 2 -59 2q-20 0 -60 -2l-371 551l-66 -404q-10 -62 -10 -75q0 -46 64 -46h32l-5 -26q-20 0 -60.5 1t-60.5 1q-40 0 -120 -2z
M451 737h-26l152 148q25 19 34 19q12 0 22 -10t10 -23q0 -17 -35 -39l-115 -75q-29 -20 -42 -20z" />
    <glyph glyph-name="nacute" unicode="&#x144;" 
d="M45 313l-15 18q102 126 174 126q34 0 34 -34q0 -15 -11 -48l-52 -151h2q29 42 75.5 92t110 95.5t108.5 45.5q40 0 40 -41q0 -21 -10 -49l-80 -220q-15 -40 -15 -52q0 -21 18 -21t45 24t41 46l17 -13l-36 -44q-71 -87 -139 -87q-19 0 -28.5 9.5t-9.5 23.5q0 25 14 62
l78 213q13 39 13 50q0 19 -23 19q-20 0 -40.5 -9.5t-43 -30.5t-32 -30.5t-30.5 -33.5q-85 -91 -125 -204l-20 -57q-4 -11 -37 -11q-23 0 -32 13l98 295q12 38 12 50q0 18 -16 18q-24 0 -58 -34zM331 546h-26l152 148q25 19 34 19q12 0 22 -10t10 -23q0 -17 -35 -39l-115 -75
q-29 -20 -42 -20z" />
    <glyph glyph-name="Ncommaaccent" unicode="&#x145;" horiz-adv-x="833" 
d="M19 0l4 26h14q31 0 46.5 7.5t28.5 37t24 91.5l76 432q1 3 -6.5 15t-21 26.5t-26.5 19.5q-34 17 -56 17h-9l4 26q45 -3 91 -3q11 0 33.5 1.5t33.5 1.5l382 -567l71 417q7 31 7 67q0 35 -18.5 46t-54.5 11h-19l4 26q55 -3 111 -3q20 0 59 1.5t59 1.5l-4 -26h-15
q-10 0 -18 -2t-14.5 -4t-12 -8t-9.5 -9.5t-7.5 -12.5t-5.5 -13t-4.5 -16t-3.5 -16.5t-3.5 -18.5t-3.5 -19l-86 -467q34 -56 71 -66l-5 -20q-40 2 -59 2q-20 0 -60 -2l-371 551l-66 -404q-10 -62 -10 -75q0 -46 64 -46h32l-5 -26q-20 0 -60.5 1t-60.5 1q-40 0 -120 -2z
M314 -213l-11 19q30 8 56 25t26 35q0 11 -5.5 15t-22.5 4q-18 0 -28.5 10t-10.5 25q0 18 14.5 28.5t33.5 10.5q31 0 45.5 -18t14.5 -44q0 -42 -33 -71t-79 -39z" />
    <glyph glyph-name="ncommaaccent" unicode="&#x146;" 
d="M45 313l-15 18q102 126 174 126q34 0 34 -34q0 -15 -11 -48l-52 -151h2q29 42 75.5 92t110 95.5t108.5 45.5q40 0 40 -41q0 -21 -10 -49l-80 -220q-15 -40 -15 -52q0 -21 18 -21t45 24t41 46l17 -13l-36 -44q-71 -87 -139 -87q-19 0 -28.5 9.5t-9.5 23.5q0 25 14 62
l78 213q13 39 13 50q0 19 -23 19q-20 0 -40.5 -9.5t-43 -30.5t-32 -30.5t-30.5 -33.5q-85 -91 -125 -204l-20 -57q-4 -11 -37 -11q-23 0 -32 13l98 295q12 38 12 50q0 18 -16 18q-24 0 -58 -34zM141 -213l-11 19q30 8 56 25t26 35q0 11 -5.5 15t-22.5 4q-18 0 -28.5 10
t-10.5 25q0 18 14.5 28.5t33.5 10.5q31 0 45.5 -18t14.5 -44q0 -42 -33 -71t-79 -39z" />
    <glyph glyph-name="Ncaron" unicode="&#x147;" horiz-adv-x="833" 
d="M19 0l4 26h14q31 0 46.5 7.5t28.5 37t24 91.5l76 432q1 3 -6.5 15t-21 26.5t-26.5 19.5q-34 17 -56 17h-9l4 26q45 -3 91 -3q11 0 33.5 1.5t33.5 1.5l382 -567l71 417q7 31 7 67q0 35 -18.5 46t-54.5 11h-19l4 26q55 -3 111 -3q20 0 59 1.5t59 1.5l-4 -26h-15
q-10 0 -18 -2t-14.5 -4t-12 -8t-9.5 -9.5t-7.5 -12.5t-5.5 -13t-4.5 -16t-3.5 -16.5t-3.5 -18.5t-3.5 -19l-86 -467q34 -56 71 -66l-5 -20q-40 2 -59 2q-20 0 -60 -2l-371 551l-66 -404q-10 -62 -10 -75q0 -46 64 -46h32l-5 -26q-20 0 -60.5 1t-60.5 1q-40 0 -120 -2z
M464 737l-88 167h33l82 -107l135 107h37l-161 -167h-38z" />
    <glyph glyph-name="ncaron" unicode="&#x148;" 
d="M45 313l-15 18q102 126 174 126q34 0 34 -34q0 -15 -11 -48l-52 -151h2q29 42 75.5 92t110 95.5t108.5 45.5q40 0 40 -41q0 -21 -10 -49l-80 -220q-15 -40 -15 -52q0 -21 18 -21t45 24t41 46l17 -13l-36 -44q-71 -87 -139 -87q-19 0 -28.5 9.5t-9.5 23.5q0 25 14 62
l78 213q13 39 13 50q0 19 -23 19q-20 0 -40.5 -9.5t-43 -30.5t-32 -30.5t-30.5 -33.5q-85 -91 -125 -204l-20 -57q-4 -11 -37 -11q-23 0 -32 13l98 295q12 38 12 50q0 18 -16 18q-24 0 -58 -34zM329 546l-88 167h33l82 -107l135 107h37l-161 -167h-38z" />
    <glyph glyph-name="Eng" unicode="&#x14a;" horiz-adv-x="833" 
d="M617 7l-372 544l-66 -404q-10 -62 -10 -75q0 -46 64 -46h32l-5 -26l-121 2q-40 0 -120 -2l4 26h14q31 0 46.5 7.5t28.5 37t24 91.5l76 432q1 3 -6.5 15t-21 26.5t-26.5 19.5q-34 17 -56 17h-9l4 26q45 -3 91 -3l67 3l382 -567l71 417q7 31 7 67q0 35 -18.5 46t-54.5 11
h-19l4 26q45 -3 91 -3h20l118 3l-4 -26h-15q-21 0 -35 -7t-22.5 -23t-12 -29.5t-8.5 -39.5q0 -1 -0.5 -2.5t-0.5 -2.5l-107 -564q-1 -6 -6.5 -37t-8.5 -45t-11 -42.5t-16.5 -44.5t-22.5 -33t-31 -26q-10 -5 -19 -5q-25 0 -36 21q-6 12 -6 24q0 20 18 30q6 2 20 5.5t21 6.5
q39 22 51 83z" />
    <glyph glyph-name="eng" unicode="&#x14b;" horiz-adv-x="540" 
d="M493 343l-99 -322q-1 -2 -3.5 -9t-3.5 -11q-12 -36 -21 -58t-24.5 -54.5t-35 -54.5t-42.5 -34q-10 -5 -19 -5q-25 0 -36 21q-6 12 -6 24q0 20 18 30q6 2 20 5.5t21 6.5q44 26 61 83l109 367q5 17 5 24q0 25 -23 25q-36 0 -81 -32.5t-79 -70.5q-3 -3 -4 -5
q-85 -91 -125 -204l-20 -57q-4 -11 -37 -11q-23 0 -32 13l98 295q12 38 12 50q0 18 -16 18q-24 0 -58 -34l-27 -30l-15 18q102 126 174 126q34 0 34 -34q0 -15 -10 -45l-53 -154h2q20 29 53 66t74 76t86.5 65t79.5 26h1q40 0 40 -41q0 -23 -18 -73z" />
    <glyph glyph-name="Omacron" unicode="&#x14c;" horiz-adv-x="889" 
d="M88 315q0 166 115.5 282t279.5 116q140 0 241.5 -88.5t101.5 -226.5q0 -173 -114 -293t-286 -120q-152 0 -245 89.5t-93 240.5zM186 294q0 -126 60 -201.5t185 -75.5q93 0 163 61t102 145.5t32 172.5q0 122 -62 203.5t-182 81.5q-74 0 -133 -35t-94 -92t-53 -123.5
t-18 -136.5zM663 777h-259l8 47h259z" />
    <glyph glyph-name="omacron" unicode="&#x14d;" 
d="M48 186q0 108 80 189.5t188 81.5q86 0 139 -57.5t53 -145.5q0 -107 -78.5 -188t-184.5 -81q-90 0 -143.5 55t-53.5 146zM128 152q0 -63 27 -102t89 -39q60 0 104 49.5t62 111t18 118.5q0 61 -26.5 101t-86.5 40q-48 0 -85.5 -27.5t-58.5 -71t-32 -90t-11 -90.5zM476 586
h-259l8 47h259z" />
    <glyph glyph-name="Obreve" unicode="&#x14e;" horiz-adv-x="889" 
d="M88 315q0 166 115.5 282t279.5 116q140 0 241.5 -88.5t101.5 -226.5q0 -173 -114 -293t-286 -120q-152 0 -245 89.5t-93 240.5zM186 294q0 -126 60 -201.5t185 -75.5q93 0 163 61t102 145.5t32 172.5q0 122 -62 203.5t-182 81.5q-74 0 -133 -35t-94 -92t-53 -123.5
t-18 -136.5zM391 896h26q4 -49 32 -75t77 -26q97 0 135 101h26q-16 -71 -58 -116t-110 -45q-69 0 -99.5 44t-28.5 117z" />
    <glyph glyph-name="obreve" unicode="&#x14f;" 
d="M48 186q0 108 80 189.5t188 81.5q86 0 139 -57.5t53 -145.5q0 -107 -78.5 -188t-184.5 -81q-90 0 -143.5 55t-53.5 146zM128 152q0 -63 27 -102t89 -39q60 0 104 49.5t62 111t18 118.5q0 61 -26.5 101t-86.5 40q-48 0 -85.5 -27.5t-58.5 -71t-32 -90t-11 -90.5zM204 705
h26q4 -49 32 -75t77 -26q97 0 135 101h26q-16 -71 -58 -116t-110 -45q-69 0 -99.5 44t-28.5 117z" />
    <glyph glyph-name="Ohungarumlaut" unicode="&#x150;" horiz-adv-x="889" 
d="M88 315q0 166 115.5 282t279.5 116q140 0 241.5 -88.5t101.5 -226.5q0 -173 -114 -293t-286 -120q-152 0 -245 89.5t-93 240.5zM186 294q0 -126 60 -201.5t185 -75.5q93 0 163 61t102 145.5t32 172.5q0 122 -62 203.5t-182 81.5q-74 0 -133 -35t-94 -92t-53 -123.5
t-18 -136.5zM397 737h-26l152 148q25 19 34 19q12 0 22 -10t10 -23q0 -17 -35 -39l-115 -75q-29 -20 -42 -20zM597 737h-26l152 148q25 19 34 19q12 0 22 -10t10 -23q0 -17 -35 -39l-115 -75q-29 -20 -42 -20z" />
    <glyph glyph-name="ohungarumlaut" unicode="&#x151;" 
d="M48 186q0 108 80 189.5t188 81.5q86 0 139 -57.5t53 -145.5q0 -107 -78.5 -188t-184.5 -81q-90 0 -143.5 55t-53.5 146zM128 152q0 -63 27 -102t89 -39q60 0 104 49.5t62 111t18 118.5q0 61 -26.5 101t-86.5 40q-48 0 -85.5 -27.5t-58.5 -71t-32 -90t-11 -90.5zM224 546
h-26l152 148q25 19 34 19q12 0 22 -10t10 -23q0 -17 -35 -39l-115 -75q-29 -20 -42 -20zM424 546h-26l152 148q25 19 34 19q12 0 22 -10t10 -23q0 -17 -35 -39l-115 -75q-29 -20 -42 -20z" />
    <glyph glyph-name="OE" unicode="&#x152;" horiz-adv-x="1000" 
d="M683 666l-45 -284h126q48 0 67.5 12.5t32.5 55.5l11 35h22l-41 -237h-22q2 20 2 46q0 32 -18 39.5t-71 7.5h-115l-29 -189q0 -3 -3.5 -23t-6 -37t-2.5 -23q0 -24 33.5 -30.5t115.5 -6.5q34 0 54 1t45.5 6t41.5 14.5t31 27t24 43.5l14 43h26l-47 -167h-205
q-71 0 -189 -7.5t-151 -7.5q-150 0 -237 91.5t-87 233.5q0 185 115.5 294t286.5 109q20 0 114 -6q1 0 62.5 -5.5t96.5 -5.5q40 0 121 1t122 1l-11 -140h-20v24q0 60 -30.5 72t-157.5 12h-76zM519 159l61 411q5 33 5 56q1 61 -126 61q-72 0 -131 -33t-95.5 -87t-55.5 -120
t-19 -136q0 -77 24 -143t80 -111.5t135 -45.5q63 0 87 34.5t35 113.5z" />
    <glyph glyph-name="oe" unicode="&#x153;" horiz-adv-x="778" 
d="M715 123l15 -15q-114 -123 -236 -123q-36 0 -63.5 22.5t-42.5 59.5q-45 -44 -82.5 -63t-93.5 -19q-81 0 -126.5 50.5t-45.5 132.5q0 111 80.5 200t190.5 89q106 0 153 -98q92 98 192 98q43 0 72.5 -19t29.5 -59q0 -47 -32 -84t-83 -57t-96.5 -30.5t-90.5 -14.5
q-3 -39 -3 -48q0 -106 84 -106q46 0 86.5 22t91.5 62zM217 11q60 0 104 55.5t61.5 121.5t17.5 124q0 51 -22.5 82t-71.5 31q-56 0 -100.5 -51t-65 -114.5t-20.5 -116.5q0 -55 22.5 -93.5t74.5 -38.5zM462 219q49 3 97.5 21t86.5 57t38 89q0 19 -12.5 29t-32.5 10
q-65 0 -115.5 -67.5t-61.5 -138.5z" />
    <glyph glyph-name="Racute" unicode="&#x154;" horiz-adv-x="722" 
d="M131 672l5 26q45 -2 134 -2q17 0 51.5 1t51.5 1q40 0 77 -7t72 -23t56 -48t21 -75q0 -82 -59.5 -128.5t-146.5 -59.5q24 -24 48 -56t38 -55.5t38.5 -67t34.5 -60.5q34 -56 49 -70q30 -28 70 -22l-5 -26h-123q-33 0 -126 166q-6 10 -16 28t-16 28.5t-15 26.5t-15 25.5
t-13.5 22t-13.5 20l-12 15t-11 11.5t-9 5q-7 2 -32 2l-42 -246l-5 -39q0 -14 6.5 -22.5t20 -12t23 -4t26.5 -0.5h17l-5 -26q-92 2 -137 2q-46 0 -136 -2l5 26h10q22 0 31.5 1t21.5 7.5t18.5 22t11.5 41.5l90 496q4 17 4 33q0 27 -18 36t-59 9h-16zM321 666l-52 -290
q46 0 69 1q74 2 121.5 45.5t47.5 115.5q0 71 -42 99.5t-131 28.5h-13zM321 737h-26l152 148q25 19 34 19q12 0 22 -10t10 -23q0 -17 -35 -39l-115 -75q-29 -20 -42 -20z" />
    <glyph glyph-name="racute" unicode="&#x155;" horiz-adv-x="389" 
d="M41 306l-13 17q29 43 74 88.5t77 45.5q41 0 41 -38q0 -15 -10 -52l-38 -137h2q120 227 184 227q31 0 31 -34q0 -24 -10.5 -49t-31.5 -25q-6 0 -18.5 2t-18.5 2q-77 0 -173 -296l-18 -64q-2 -8 -36 -8q-10 0 -21 6t-11 12q0 3 2 9l79 276q12 38 12 59q0 10 -5 18t-14 8
q-30 0 -84 -67zM213 546h-26l152 148q25 19 34 19q12 0 22 -10t10 -23q0 -17 -35 -39l-115 -75q-29 -20 -42 -20z" />
    <glyph glyph-name="Rcommaaccent" unicode="&#x156;" horiz-adv-x="722" 
d="M131 672l5 26q45 -2 134 -2q17 0 51.5 1t51.5 1q40 0 77 -7t72 -23t56 -48t21 -75q0 -82 -59.5 -128.5t-146.5 -59.5q24 -24 48 -56t38 -55.5t38.5 -67t34.5 -60.5q34 -56 49 -70q30 -28 70 -22l-5 -26h-123q-33 0 -126 166q-6 10 -16 28t-16 28.5t-15 26.5t-15 25.5
t-13.5 22t-13.5 20l-12 15t-11 11.5t-9 5q-7 2 -32 2l-42 -246l-5 -39q0 -14 6.5 -22.5t20 -12t23 -4t26.5 -0.5h17l-5 -26q-92 2 -137 2q-46 0 -136 -2l5 26h10q22 0 31.5 1t21.5 7.5t18.5 22t11.5 41.5l90 496q4 17 4 33q0 27 -18 36t-59 9h-16zM321 666l-52 -290
q46 0 69 1q74 2 121.5 45.5t47.5 115.5q0 71 -42 99.5t-131 28.5h-13zM255 -213l-11 19q30 8 56 25t26 35q0 11 -5.5 15t-22.5 4q-18 0 -28.5 10t-10.5 25q0 18 14.5 28.5t33.5 10.5q31 0 45.5 -18t14.5 -44q0 -42 -33 -71t-79 -39z" />
    <glyph glyph-name="rcommaaccent" unicode="&#x157;" horiz-adv-x="389" 
d="M41 306l-13 17q29 43 74 88.5t77 45.5q41 0 41 -38q0 -15 -10 -52l-38 -137h2q120 227 184 227q31 0 31 -34q0 -24 -10.5 -49t-31.5 -25q-6 0 -18.5 2t-18.5 2q-77 0 -173 -296l-18 -64q-2 -8 -36 -8q-10 0 -21 6t-11 12q0 3 2 9l79 276q12 38 12 59q0 10 -5 18t-14 8
q-30 0 -84 -67zM5 -213l-11 19q30 8 56 25t26 35q0 11 -5.5 15t-22.5 4q-18 0 -28.5 10t-10.5 25q0 18 14.5 28.5t33.5 10.5q31 0 45.5 -18t14.5 -44q0 -42 -33 -71t-79 -39z" />
    <glyph glyph-name="Rcaron" unicode="&#x158;" horiz-adv-x="722" 
d="M131 672l5 26q45 -2 134 -2q17 0 51.5 1t51.5 1q40 0 77 -7t72 -23t56 -48t21 -75q0 -82 -59.5 -128.5t-146.5 -59.5q24 -24 48 -56t38 -55.5t38.5 -67t34.5 -60.5q34 -56 49 -70q30 -28 70 -22l-5 -26h-123q-33 0 -126 166q-6 10 -16 28t-16 28.5t-15 26.5t-15 25.5
t-13.5 22t-13.5 20l-12 15t-11 11.5t-9 5q-7 2 -32 2l-42 -246l-5 -39q0 -14 6.5 -22.5t20 -12t23 -4t26.5 -0.5h17l-5 -26q-92 2 -137 2q-46 0 -136 -2l5 26h10q22 0 31.5 1t21.5 7.5t18.5 22t11.5 41.5l90 496q4 17 4 33q0 27 -18 36t-59 9h-16zM321 666l-52 -290
q46 0 69 1q74 2 121.5 45.5t47.5 115.5q0 71 -42 99.5t-131 28.5h-13zM357 737l-88 167h33l82 -107l135 107h37l-161 -167h-38z" />
    <glyph glyph-name="rcaron" unicode="&#x159;" horiz-adv-x="389" 
d="M41 306l-13 17q29 43 74 88.5t77 45.5q41 0 41 -38q0 -15 -10 -52l-38 -137h2q120 227 184 227q31 0 31 -34q0 -24 -10.5 -49t-31.5 -25q-6 0 -18.5 2t-18.5 2q-77 0 -173 -296l-18 -64q-2 -8 -36 -8q-10 0 -21 6t-11 12q0 3 2 9l79 276q12 38 12 59q0 10 -5 18t-14 8
q-30 0 -84 -67zM237 546l-88 167h33l82 -107l135 107h37l-161 -167h-38z" />
    <glyph glyph-name="Sacute" unicode="&#x15a;" horiz-adv-x="500" 
d="M50 203h20q1 -7 2 -27.5t2 -29t4 -24t9 -29.5q14 -35 48.5 -55.5t74.5 -20.5q58 0 97.5 33t39.5 89q0 40 -23 79.5t-55.5 73.5t-65.5 69t-56 79t-23 89q0 81 52 132.5t135 51.5q55 0 109 -18q21 -7 28 -7q5 0 8 1t6.5 4t5.5 4h17l-31 -176h-22q0 7 1 21t1 21
q0 55 -33.5 86.5t-88.5 31.5q-50 0 -79 -27.5t-29 -77.5q0 -38 24 -77t59 -74t69.5 -71t58.5 -80.5t24 -90.5q0 -84 -62.5 -141t-152.5 -57q-62 0 -145 36l-33 -30h-23zM273 737h-26l152 148q25 19 34 19q12 0 22 -10t10 -23q0 -17 -35 -39l-115 -75q-29 -20 -42 -20z" />
    <glyph glyph-name="sacute" unicode="&#x15b;" horiz-adv-x="389" 
d="M37 125h13q7 -39 44.5 -59.5t82.5 -20.5q31 0 60 10t29 35q0 23 -23.5 47.5t-53 42.5t-59.5 42t-39 45q-9 18 -9 46q0 18 10.5 36.5t30.5 35.5t33.5 26.5t34.5 23.5q35 22 74 22q87 0 87 -60q0 -11 -6.5 -28t-14.5 -17h-12q-7 0 -14 15q-7 14 -32 25t-50 11
q-29 0 -52 -15t-23 -42q0 -22 18 -42.5t44.5 -37t52.5 -33.5t44 -41.5t18 -53.5q0 -44 -65 -107q-46 -46 -119 -46q-29 0 -55 5.5t-49 24t-23 48.5q0 20 23 62zM193 546h-26l152 148q25 19 34 19q12 0 22 -10t10 -23q0 -17 -35 -39l-115 -75q-29 -20 -42 -20z" />
    <glyph glyph-name="Scircumflex" unicode="&#x15c;" horiz-adv-x="500" 
d="M50 203h20q1 -7 2 -27.5t2 -29t4 -24t9 -29.5q14 -35 48.5 -55.5t74.5 -20.5q58 0 97.5 33t39.5 89q0 40 -23 79.5t-55.5 73.5t-65.5 69t-56 79t-23 89q0 81 52 132.5t135 51.5q55 0 109 -18q21 -7 28 -7q5 0 8 1t6.5 4t5.5 4h17l-31 -176h-22q0 7 1 21t1 21
q0 55 -33.5 86.5t-88.5 31.5q-50 0 -79 -27.5t-29 -77.5q0 -38 24 -77t59 -74t69.5 -71t58.5 -80.5t24 -90.5q0 -84 -62.5 -141t-152.5 -57q-62 0 -145 36l-33 -30h-23zM379 904l88 -167h-33l-82 107l-135 -107h-37l161 167h38z" />
    <glyph glyph-name="scircumflex" unicode="&#x15d;" horiz-adv-x="389" 
d="M37 125h13q7 -39 44.5 -59.5t82.5 -20.5q31 0 60 10t29 35q0 23 -23.5 47.5t-53 42.5t-59.5 42t-39 45q-9 18 -9 46q0 18 10.5 36.5t30.5 35.5t33.5 26.5t34.5 23.5q35 22 74 22q87 0 87 -60q0 -11 -6.5 -28t-14.5 -17h-12q-7 0 -14 15q-7 14 -32 25t-50 11
q-29 0 -52 -15t-23 -42q0 -22 18 -42.5t44.5 -37t52.5 -33.5t44 -41.5t18 -53.5q0 -44 -65 -107q-46 -46 -119 -46q-29 0 -55 5.5t-49 24t-23 48.5q0 20 23 62zM303 713l88 -167h-33l-82 107l-135 -107h-37l161 167h38z" />
    <glyph glyph-name="Scedilla" unicode="&#x15e;" horiz-adv-x="500" 
d="M168 -92l52 77q-62 1 -141 36l-33 -30h-23l27 212h20q1 -7 2 -27.5t2 -29t4 -24t9 -29.5q14 -35 48.5 -55.5t74.5 -20.5q58 0 97.5 33t39.5 89q0 40 -23 79.5t-55.5 73.5t-65.5 69t-56 79t-23 89q0 81 52 132.5t135 51.5q55 0 109 -18q21 -7 28 -7q5 0 8 1t6.5 4t5.5 4
h17l-31 -176h-22q0 7 1 21t1 21q0 55 -33.5 86.5t-88.5 31.5q-50 0 -79 -27.5t-29 -77.5q0 -38 24 -77t59 -74t69.5 -71t58.5 -80.5t24 -90.5q0 -76 -51.5 -130t-129.5 -65l-35 -52l2 -2q8 5 31 5q30 0 49.5 -17t19.5 -49q0 -45 -34.5 -65.5t-82.5 -20.5q-45 0 -90 21l18 26
q36 -15 56 -15q26 0 46.5 11t20.5 35q0 19 -13 30.5t-32 11.5q-21 0 -39 -9z" />
    <glyph glyph-name="scedilla" unicode="&#x15f;" horiz-adv-x="389" 
d="M61 -92l53 79q-100 11 -100 76q0 20 23 62h13q7 -39 44.5 -59.5t82.5 -20.5q31 0 60 10t29 35q0 23 -23.5 47.5t-53 42.5t-59.5 42t-39 45q-9 18 -9 46q0 18 10.5 36.5t30.5 35.5t33.5 26.5t34.5 23.5q35 22 74 22q87 0 87 -60q0 -11 -6.5 -28t-14.5 -17h-12q-7 0 -14 15
q-7 14 -32 25t-50 11q-29 0 -52 -15t-23 -42q0 -22 18 -42.5t44.5 -37t52.5 -33.5t44 -41.5t18 -53.5q0 -44 -65 -107q-43 -43 -111 -46l-33 -49l2 -2q8 5 31 5q30 0 49.5 -17t19.5 -49q0 -45 -34.5 -65.5t-82.5 -20.5q-45 0 -90 21l18 26q36 -15 56 -15q26 0 46.5 11
t20.5 35q0 19 -13 30.5t-32 11.5q-21 0 -39 -9z" />
    <glyph glyph-name="Scaron" unicode="&#x160;" horiz-adv-x="500" 
d="M50 203h20q1 -7 2 -27.5t2 -29t4 -24t9 -29.5q14 -35 48.5 -55.5t74.5 -20.5q58 0 97.5 33t39.5 89q0 40 -23 79.5t-55.5 73.5t-65.5 69t-56 79t-23 89q0 81 52 132.5t135 51.5q55 0 109 -18q21 -7 28 -7q5 0 8 1t6.5 4t5.5 4h17l-31 -176h-22q0 7 1 21t1 21
q0 55 -33.5 86.5t-88.5 31.5q-50 0 -79 -27.5t-29 -77.5q0 -38 24 -77t59 -74t69.5 -71t58.5 -80.5t24 -90.5q0 -84 -62.5 -141t-152.5 -57q-62 0 -145 36l-33 -30h-23zM305 737l-88 167h33l82 -107l135 107h37l-161 -167h-38z" />
    <glyph glyph-name="scaron" unicode="&#x161;" horiz-adv-x="389" 
d="M37 125h13q7 -39 44.5 -59.5t82.5 -20.5q31 0 60 10t29 35q0 23 -23.5 47.5t-53 42.5t-59.5 42t-39 45q-9 18 -9 46q0 18 10.5 36.5t30.5 35.5t33.5 26.5t34.5 23.5q35 22 74 22q87 0 87 -60q0 -11 -6.5 -28t-14.5 -17h-12q-7 0 -14 15q-7 14 -32 25t-50 11
q-29 0 -52 -15t-23 -42q0 -22 18 -42.5t44.5 -37t52.5 -33.5t44 -41.5t18 -53.5q0 -44 -65 -107q-46 -46 -119 -46q-29 0 -55 5.5t-49 24t-23 48.5q0 20 23 62zM225 546l-88 167h33l82 -107l135 107h37l-161 -167h-38z" />
    <glyph glyph-name="Tcommaaccent" unicode="&#x162;" horiz-adv-x="667" 
d="M267 104l99 553h-169q-20 0 -36 -6.5t-25 -13t-18 -23t-11.5 -22.5t-9 -26.5t-6.5 -21.5h-26l37 169h18q27 -15 58 -15h469q35 0 54 15h17l-17 -171h-26v27q0 52 -15.5 70t-63.5 18h-137l-97 -535q0 -2 -4.5 -26.5t-4.5 -30.5q0 -23 16.5 -31t56.5 -8h26l-5 -26
q-27 0 -80 1t-80 1q-44 0 -130 -2l5 26h31q34 -1 50 15.5t24 62.5zM216 -213l-11 19q30 8 56 25t26 35q0 11 -5.5 15t-22.5 4q-18 0 -28.5 10t-10.5 25q0 18 14.5 28.5t33.5 10.5q31 0 45.5 -18t14.5 -44q0 -42 -33 -71t-79 -39z" />
    <glyph glyph-name="tcommaaccent" unicode="&#x163;" horiz-adv-x="333" 
d="M162 442l38 126h80l-41 -126h107l-12 -41h-106l-87 -289q-6 -18 -6 -31q0 -22 20 -22q37 0 124 87l14 -17q-28 -31 -42.5 -46t-45 -43t-58.5 -41.5t-54 -13.5q-21 0 -32.5 15.5t-11.5 36.5q0 20 13 64l89 300h-98l12 41h97zM26 -213l-11 19q30 8 56 25t26 35
q0 11 -5.5 15t-22.5 4q-18 0 -28.5 10t-10.5 25q0 18 14.5 28.5t33.5 10.5q31 0 45.5 -18t14.5 -44q0 -42 -33 -71t-79 -39z" />
    <glyph glyph-name="Tcaron" unicode="&#x164;" horiz-adv-x="667" 
d="M267 104l99 553h-169q-20 0 -36 -6.5t-25 -13t-18 -23t-11.5 -22.5t-9 -26.5t-6.5 -21.5h-26l37 169h18q27 -15 58 -15h469q35 0 54 15h17l-17 -171h-26v27q0 52 -15.5 70t-63.5 18h-137l-97 -535q0 -2 -4.5 -26.5t-4.5 -30.5q0 -23 16.5 -31t56.5 -8h26l-5 -26
q-27 0 -80 1t-80 1q-44 0 -130 -2l5 26h31q34 -1 50 15.5t24 62.5zM406 737l-88 167h33l82 -107l135 107h37l-161 -167h-38z" />
    <glyph glyph-name="tcaron" unicode="&#x165;" horiz-adv-x="333" 
d="M162 442l38 126h80l-41 -126h107l-12 -41h-106l-87 -289q-6 -18 -6 -31q0 -22 20 -22q37 0 124 87l14 -17q-28 -31 -42.5 -46t-45 -43t-58.5 -41.5t-54 -13.5q-21 0 -32.5 15.5t-11.5 36.5q0 20 13 64l89 300h-98l12 41h97zM356 539h-20l38 140q11 38 37 38q36 0 36 -30
q0 -19 -13 -39z" />
    <glyph glyph-name="Tbar" unicode="&#x166;" horiz-adv-x="667" 
d="M547 396h-136l-49 -274q0 -2 -4.5 -26.5t-4.5 -30.5q0 -23 16.5 -31t56.5 -8h26l-5 -26q-27 0 -80 1t-80 1q-44 0 -130 -2l5 26h31q34 -1 50 15.5t24 62.5l52 292h-131l8 47h132l38 214h-169q-20 0 -36 -6.5t-25 -13t-18 -23t-11.5 -22.5t-9 -26.5t-6.5 -21.5h-26l37 169
h18q27 -15 58 -15h469q35 0 54 15h17l-17 -171h-26v27q0 52 -15.5 70t-63.5 18h-137l-39 -214h135z" />
    <glyph glyph-name="tbar" unicode="&#x167;" horiz-adv-x="333" 
d="M162 442l38 126h80l-41 -126h107l-12 -41h-106l-24 -79h104l-12 -41h-104l-51 -169q-6 -18 -6 -31q0 -22 20 -22q37 0 124 87l14 -17q-28 -31 -42.5 -46t-45 -43t-58.5 -41.5t-54 -13.5q-21 0 -32.5 15.5t-11.5 36.5q0 20 13 64l53 180h-89l12 41h89l24 79h-98l12 41h97z
" />
    <glyph glyph-name="Utilde" unicode="&#x168;" horiz-adv-x="778" 
d="M155 298l45 259q7 42 7 62q0 19 -5.5 30.5t-18 16t-22 5.5t-29.5 1h-19l5 26q52 -2 157 -2q22 0 66 1t67 1l-5 -25h-23q-39 -2 -59 -26t-32 -98l-54 -335q-3 -21 -3 -40q0 -72 48.5 -110t114.5 -38q37 0 66.5 8t49.5 19.5t36.5 34.5t25.5 41.5t17.5 52t12.5 55t10 61.5
l48 274q3 17 3 38q0 62 -85 62h-15l5 26q40 -2 123 -2q18 0 54.5 1t54.5 1l-5 -26h-13q-15 0 -27 -5t-20.5 -17t-14 -21t-10 -28.5t-6.5 -28t-5 -30t-4 -25.5l-44 -266q-14 -84 -30 -124.5t-52 -75.5q-68 -66 -195 -66q-97 0 -166 45.5t-69 137.5q0 49 15 130zM364 759h-27
q10 41 38.5 68.5t69.5 27.5q22 0 70 -22t62 -22q35 0 59 49h26q-5 -38 -36 -69t-69 -31q-20 0 -68 22q-54 26 -65 26q-23 0 -35.5 -11.5t-24.5 -37.5z" />
    <glyph glyph-name="utilde" unicode="&#x169;" 
d="M505 136l14 -14q-3 -3 -14.5 -16t-16.5 -18t-16.5 -17.5t-19 -18.5t-19 -16t-21 -15t-20.5 -10.5t-22 -8t-22 -2.5q-37 0 -37 35q0 19 19 74l60 177h-2q-1 -2 -19.5 -26t-28.5 -36t-32 -39.5t-37.5 -44.5t-38.5 -41t-41.5 -39.5t-39 -30.5t-39 -22t-34.5 -7
q-17 0 -29.5 11.5t-12.5 27.5q0 11 10 43l87 258l4 20v2q0 15 -13 15q-10 0 -23 -8t-21.5 -16.5t-22 -23t-16.5 -17.5l-16 17l34 35q28 28 46 44t45.5 32.5t49.5 16.5q33 0 33 -32q0 -18 -13 -52l-90 -269q-2 -10 -2 -14q0 -10 17 -10q47 0 154.5 135t136.5 211q12 31 34 31
q13 0 45 -29l-109 -326q-3 -7 -3 -14q0 -14 15 -14q12 0 27.5 11t36 29.5t23.5 21.5zM229 568h-27q10 41 38.5 68.5t69.5 27.5q22 0 70 -22t62 -22q35 0 59 49h26q-5 -38 -36 -69t-69 -31q-20 0 -68 22q-54 26 -65 26q-23 0 -35.5 -11.5t-24.5 -37.5z" />
    <glyph glyph-name="Umacron" unicode="&#x16a;" horiz-adv-x="778" 
d="M155 298l45 259q7 42 7 62q0 19 -5.5 30.5t-18 16t-22 5.5t-29.5 1h-19l5 26q52 -2 157 -2q22 0 66 1t67 1l-5 -25h-23q-39 -2 -59 -26t-32 -98l-54 -335q-3 -21 -3 -40q0 -72 48.5 -110t114.5 -38q37 0 66.5 8t49.5 19.5t36.5 34.5t25.5 41.5t17.5 52t12.5 55t10 61.5
l48 274q3 17 3 38q0 62 -85 62h-15l5 26q40 -2 123 -2q18 0 54.5 1t54.5 1l-5 -26h-13q-15 0 -27 -5t-20.5 -17t-14 -21t-10 -28.5t-6.5 -28t-5 -30t-4 -25.5l-44 -266q-14 -84 -30 -124.5t-52 -75.5q-68 -66 -195 -66q-97 0 -166 45.5t-69 137.5q0 49 15 130zM616 777h-259
l8 47h259z" />
    <glyph glyph-name="umacron" unicode="&#x16b;" 
d="M505 136l14 -14q-3 -3 -14.5 -16t-16.5 -18t-16.5 -17.5t-19 -18.5t-19 -16t-21 -15t-20.5 -10.5t-22 -8t-22 -2.5q-37 0 -37 35q0 19 19 74l60 177h-2q-1 -2 -19.5 -26t-28.5 -36t-32 -39.5t-37.5 -44.5t-38.5 -41t-41.5 -39.5t-39 -30.5t-39 -22t-34.5 -7
q-17 0 -29.5 11.5t-12.5 27.5q0 11 10 43l87 258l4 20v2q0 15 -13 15q-10 0 -23 -8t-21.5 -16.5t-22 -23t-16.5 -17.5l-16 17l34 35q28 28 46 44t45.5 32.5t49.5 16.5q33 0 33 -32q0 -18 -13 -52l-90 -269q-2 -10 -2 -14q0 -10 17 -10q47 0 154.5 135t136.5 211q12 31 34 31
q13 0 45 -29l-109 -326q-3 -7 -3 -14q0 -14 15 -14q12 0 27.5 11t36 29.5t23.5 21.5zM477 586h-259l8 47h259z" />
    <glyph glyph-name="Ubreve" unicode="&#x16c;" horiz-adv-x="778" 
d="M155 298l45 259q7 42 7 62q0 19 -5.5 30.5t-18 16t-22 5.5t-29.5 1h-19l5 26q52 -2 157 -2q22 0 66 1t67 1l-5 -25h-23q-39 -2 -59 -26t-32 -98l-54 -335q-3 -21 -3 -40q0 -72 48.5 -110t114.5 -38q37 0 66.5 8t49.5 19.5t36.5 34.5t25.5 41.5t17.5 52t12.5 55t10 61.5
l48 274q3 17 3 38q0 62 -85 62h-15l5 26q40 -2 123 -2q18 0 54.5 1t54.5 1l-5 -26h-13q-15 0 -27 -5t-20.5 -17t-14 -21t-10 -28.5t-6.5 -28t-5 -30t-4 -25.5l-44 -266q-14 -84 -30 -124.5t-52 -75.5q-68 -66 -195 -66q-97 0 -166 45.5t-69 137.5q0 49 15 130zM356 896h26
q4 -49 32 -75t77 -26q97 0 135 101h26q-16 -71 -58 -116t-110 -45q-69 0 -99.5 44t-28.5 117z" />
    <glyph glyph-name="ubreve" unicode="&#x16d;" 
d="M505 136l14 -14q-3 -3 -14.5 -16t-16.5 -18t-16.5 -17.5t-19 -18.5t-19 -16t-21 -15t-20.5 -10.5t-22 -8t-22 -2.5q-37 0 -37 35q0 19 19 74l60 177h-2q-1 -2 -19.5 -26t-28.5 -36t-32 -39.5t-37.5 -44.5t-38.5 -41t-41.5 -39.5t-39 -30.5t-39 -22t-34.5 -7
q-17 0 -29.5 11.5t-12.5 27.5q0 11 10 43l87 258l4 20v2q0 15 -13 15q-10 0 -23 -8t-21.5 -16.5t-22 -23t-16.5 -17.5l-16 17l34 35q28 28 46 44t45.5 32.5t49.5 16.5q33 0 33 -32q0 -18 -13 -52l-90 -269q-2 -10 -2 -14q0 -10 17 -10q47 0 154.5 135t136.5 211q12 31 34 31
q13 0 45 -29l-109 -326q-3 -7 -3 -14q0 -14 15 -14q12 0 27.5 11t36 29.5t23.5 21.5zM216 705h26q4 -49 32 -75t77 -26q97 0 135 101h26q-16 -71 -58 -116t-110 -45q-69 0 -99.5 44t-28.5 117z" />
    <glyph glyph-name="Uring" unicode="&#x16e;" horiz-adv-x="778" 
d="M155 298l45 259q7 42 7 62q0 19 -5.5 30.5t-18 16t-22 5.5t-29.5 1h-19l5 26q52 -2 157 -2q22 0 66 1t67 1l-5 -25h-23q-39 -2 -59 -26t-32 -98l-54 -335q-3 -21 -3 -40q0 -72 48.5 -110t114.5 -38q37 0 66.5 8t49.5 19.5t36.5 34.5t25.5 41.5t17.5 52t12.5 55t10 61.5
l48 274q3 17 3 38q0 62 -85 62h-15l5 26q40 -2 123 -2q18 0 54.5 1t54.5 1l-5 -26h-13q-15 0 -27 -5t-20.5 -17t-14 -21t-10 -28.5t-6.5 -28t-5 -30t-4 -25.5l-44 -266q-14 -84 -30 -124.5t-52 -75.5q-68 -66 -195 -66q-97 0 -166 45.5t-69 137.5q0 49 15 130zM502 731
q-40 0 -69 28.5t-29 69.5t29 69.5t69 28.5t69 -28.5t29 -69.5t-29 -69.5t-69 -28.5zM502 763q27 0 46.5 19.5t19.5 46.5t-19.5 46.5t-46.5 19.5t-46.5 -19.5t-19.5 -46.5t19.5 -46.5t46.5 -19.5z" />
    <glyph glyph-name="uring" unicode="&#x16f;" 
d="M505 136l14 -14q-3 -3 -14.5 -16t-16.5 -18t-16.5 -17.5t-19 -18.5t-19 -16t-21 -15t-20.5 -10.5t-22 -8t-22 -2.5q-37 0 -37 35q0 19 19 74l60 177h-2q-1 -2 -19.5 -26t-28.5 -36t-32 -39.5t-37.5 -44.5t-38.5 -41t-41.5 -39.5t-39 -30.5t-39 -22t-34.5 -7
q-17 0 -29.5 11.5t-12.5 27.5q0 11 10 43l87 258l4 20v2q0 15 -13 15q-10 0 -23 -8t-21.5 -16.5t-22 -23t-16.5 -17.5l-16 17l34 35q28 28 46 44t45.5 32.5t49.5 16.5q33 0 33 -32q0 -18 -13 -52l-90 -269q-2 -10 -2 -14q0 -10 17 -10q47 0 154.5 135t136.5 211q12 31 34 31
q13 0 45 -29l-109 -326q-3 -7 -3 -14q0 -14 15 -14q12 0 27.5 11t36 29.5t23.5 21.5zM349 526q-41 0 -69.5 29t-28.5 69t28.5 69t69.5 29t69.5 -29t28.5 -69t-28.5 -69t-69.5 -29zM349 558q27 0 46.5 19.5t19.5 46.5t-19.5 46.5t-46.5 19.5t-46.5 -19.5t-19.5 -46.5
t19.5 -46.5t46.5 -19.5z" />
    <glyph glyph-name="Uhungarumlaut" unicode="&#x170;" horiz-adv-x="778" 
d="M155 298l45 259q7 42 7 62q0 19 -5.5 30.5t-18 16t-22 5.5t-29.5 1h-19l5 26q52 -2 157 -2q22 0 66 1t67 1l-5 -25h-23q-39 -2 -59 -26t-32 -98l-54 -335q-3 -21 -3 -40q0 -72 48.5 -110t114.5 -38q37 0 66.5 8t49.5 19.5t36.5 34.5t25.5 41.5t17.5 52t12.5 55t10 61.5
l48 274q3 17 3 38q0 62 -85 62h-15l5 26q40 -2 123 -2q18 0 54.5 1t54.5 1l-5 -26h-13q-15 0 -27 -5t-20.5 -17t-14 -21t-10 -28.5t-6.5 -28t-5 -30t-4 -25.5l-44 -266q-14 -84 -30 -124.5t-52 -75.5q-68 -66 -195 -66q-97 0 -166 45.5t-69 137.5q0 49 15 130zM374 737h-26
l152 148q25 19 34 19q12 0 22 -10t10 -23q0 -17 -35 -39l-115 -75q-29 -20 -42 -20zM574 737h-26l152 148q25 19 34 19q12 0 22 -10t10 -23q0 -17 -35 -39l-115 -75q-29 -20 -42 -20z" />
    <glyph glyph-name="uhungarumlaut" unicode="&#x171;" 
d="M505 136l14 -14q-3 -3 -14.5 -16t-16.5 -18t-16.5 -17.5t-19 -18.5t-19 -16t-21 -15t-20.5 -10.5t-22 -8t-22 -2.5q-37 0 -37 35q0 19 19 74l60 177h-2q-1 -2 -19.5 -26t-28.5 -36t-32 -39.5t-37.5 -44.5t-38.5 -41t-41.5 -39.5t-39 -30.5t-39 -22t-34.5 -7
q-17 0 -29.5 11.5t-12.5 27.5q0 11 10 43l87 258l4 20v2q0 15 -13 15q-10 0 -23 -8t-21.5 -16.5t-22 -23t-16.5 -17.5l-16 17l34 35q28 28 46 44t45.5 32.5t49.5 16.5q33 0 33 -32q0 -18 -13 -52l-90 -269q-2 -10 -2 -14q0 -10 17 -10q47 0 154.5 135t136.5 211q12 31 34 31
q13 0 45 -29l-109 -326q-3 -7 -3 -14q0 -14 15 -14q12 0 27.5 11t36 29.5t23.5 21.5zM240 546h-26l152 148q25 19 34 19q12 0 22 -10t10 -23q0 -17 -35 -39l-115 -75q-29 -20 -42 -20zM440 546h-26l152 148q25 19 34 19q12 0 22 -10t10 -23q0 -17 -35 -39l-115 -75
q-29 -20 -42 -20z" />
    <glyph glyph-name="Uogonek" unicode="&#x172;" horiz-adv-x="778" 
d="M433 -133l18 -10q-21 -31 -50.5 -48t-54.5 -17q-78 0 -77 60q0 70 103 133q-61 1 -111 18t-85.5 59.5t-35.5 105.5q0 49 15 130l45 259q7 42 7 62q0 19 -5.5 30.5t-18 16t-22 5.5t-29.5 1h-19l5 26q52 -2 157 -2q22 0 66 1t67 1l-5 -25h-23q-39 -2 -59 -26t-32 -98
l-54 -335q-3 -21 -3 -40q0 -72 48.5 -110t114.5 -38q37 0 66.5 8t49.5 19.5t36.5 34.5t25.5 41.5t17.5 52t12.5 55t10 61.5l48 274q3 17 3 38q0 62 -85 62h-15l5 26q40 -2 123 -2q18 0 54.5 1t54.5 1l-5 -26h-13q-15 0 -27 -5t-20.5 -17t-14 -21t-10 -28.5t-6.5 -28t-5 -30
t-4 -25.5l-44 -266q-14 -84 -30 -124.5t-52 -75.5q-55 -53 -149 -63q-86 -67 -86 -124q1 -13 10 -22t21 -9q37 0 67 34z" />
    <glyph glyph-name="uogonek" unicode="&#x173;" 
d="M362 -133l18 -10q-21 -31 -50.5 -48t-54.5 -17q-78 0 -77 60q0 79 134 150q-21 8 -21 33q0 19 19 74l60 177h-2q-1 -2 -19.5 -26t-28.5 -36t-32 -39.5t-37.5 -44.5t-38.5 -41t-41.5 -39.5t-39 -30.5t-39 -22t-34.5 -7q-17 0 -29.5 11.5t-12.5 27.5q0 11 10 43l87 258
l4 20v2q0 15 -13 15q-10 0 -23 -8t-21.5 -16.5t-22 -23t-16.5 -17.5l-16 17l34 35q28 28 46 44t45.5 32.5t49.5 16.5q33 0 33 -32q0 -18 -13 -52l-90 -269q-2 -10 -2 -14q0 -10 17 -10q47 0 154.5 135t136.5 211q12 31 34 31q13 0 45 -29l-109 -326q-3 -7 -3 -14
q0 -14 15 -14q12 0 27.5 11t36 29.5t23.5 21.5l14 -14q-1 -1 -11 -12t-13 -14.5t-12.5 -14t-14 -14.5t-14.5 -13t-16 -14t-15 -12t-16.5 -11t-16.5 -8t-17 -6q-109 -74 -109 -139q1 -13 10 -22t21 -9q37 0 67 34z" />
    <glyph glyph-name="Wcircumflex" unicode="&#x174;" horiz-adv-x="1000" 
d="M348 698l-5 -26h-10q-25 0 -40 -6t-14 -24t7 -38l112 -494l137 241l-76 284q-7 19 -21 27t-44 10h-12l5 26q23 -1 65.5 -1.5t56.5 -0.5q22 -1 56 0.5t39 1.5l-5 -26h-19q-15 -1 -22 -10.5t-4 -21.5l42 -182h2l82 150q13 28 13 39q0 16 -9.5 20t-37.5 5h-9l5 26
q17 -1 48 -1.5t41 -0.5q42 -1 96 2l-5 -26h-15q-9 0 -16.5 -1.5t-13 -2.5t-11.5 -6.5t-9 -7.5t-9 -11t-7.5 -11t-8.5 -14t-8 -14l-114 -193l75 -301h2l231 480q17 36 17 55q0 16 -11.5 21t-49.5 6h-12l5 26q53 -3 101 -2q60 2 91 2l-5 -26h-8q-17 0 -30 -10t-19 -20t-19 -36
l-318 -621h-28l-85 317l-184 -317h-26l-154 650q-4 19 -18 27t-44 10h-12l5 26q23 -1 65.5 -1.5t56.5 -0.5q20 -1 58.5 0.5t53.5 1.5zM664 904l88 -167h-33l-82 107l-135 -107h-37l161 167h38z" />
    <glyph glyph-name="wcircumflex" unicode="&#x175;" horiz-adv-x="778" 
d="M43 315l-15 17q35 42 84 83.5t84 41.5q38 0 38 -31q0 -11 -4 -23l-94 -289q-4 -15 -4 -28q0 -21 22 -21q39 0 121 78t100 111q41 150 68 177q14 16 49 24q17 -4 32 -25q-3 -31 -18 -64q-11 -25 -49 -78l-40 -171q-4 -16 -4 -28q0 -44 40 -44q85 0 179 143q51 78 51 144
q0 12 -4 36t-4 37q0 18 14 34t32 16q42 0 42 -56q0 -61 -51 -146.5t-110 -153.5q-40 -44 -96 -79t-106 -35q-30 0 -48.5 18.5t-18.5 46.5q0 21 5 45t13.5 53t11.5 45h-2q-8 -8 -40 -40.5t-57 -56.5t-58 -52t-62 -43.5t-51 -15.5q-41 0 -41 53q0 27 9 60l71 242q2 6 2 15
q0 16 -14 16q-5 0 -13 -4.5t-18 -12.5t-18 -14.5t-17 -14.5t-11 -10zM536 713l88 -167h-33l-82 107l-135 -107h-37l161 167h38z" />
    <glyph glyph-name="Ycircumflex" unicode="&#x176;" horiz-adv-x="667" 
d="M351 698l-5 -26h-36q-18 0 -29.5 -9t-3.5 -28l128 -303l182 285q13 20 13 34q0 21 -62 21h-17l4 26q40 -2 121 -2q49 0 74 2l-5 -26q-32 3 -67 -47l-10 -15l-220 -323l-37 -196q-2 -11 -2 -19.5t1 -15t4.5 -11.5t7 -8t10 -5t11.5 -3.5t14 -2t14.5 -0.5h16.5h18l-5 -26
q-26 0 -77.5 1t-76.5 1q-43 0 -129 -2l4 26h22q43 -1 56 11t20 49l38 199l-154 352q-16 35 -71 35h-10l4 26q41 -2 123 -2q22 0 65.5 1t65.5 1zM486 904l88 -167h-33l-82 107l-135 -107h-37l161 167h38z" />
    <glyph glyph-name="ycircumflex" unicode="&#x177;" horiz-adv-x="500" 
d="M60 299l-9 -7l-24 14q0 59 26.5 105t81.5 46q40 0 68.5 -32t43 -85.5t23 -104t14.5 -108.5t10 -78l22 38.5t25.5 45.5t22 43.5t21 48.5t12.5 44t6 46q0 20 -6 44.5t-6 37.5q0 24 12.5 42t34.5 18q39 0 39 -53q0 -74 -83 -233t-149 -242q-1 -2 -16.5 -22t-20.5 -26
t-20.5 -25t-24 -27t-24.5 -21.5t-28 -19.5t-27 -11t-30 -5q-16 0 -28.5 12t-12.5 28q0 18 9.5 29.5t26.5 11.5q6 0 20 -3.5t22 -3.5q43 0 85 48l54 63l-3 52l-9 83q-7 50 -16.5 95t-23.5 92.5t-34 75.5t-43 28q-21 0 -34.5 -13t-13.5 -33t7 -38zM357 713l88 -167h-33
l-82 107l-135 -107h-37l161 167h38z" />
    <glyph glyph-name="Ydieresis" unicode="&#x178;" horiz-adv-x="667" 
d="M351 698l-5 -26h-36q-18 0 -29.5 -9t-3.5 -28l128 -303l182 285q13 20 13 34q0 21 -62 21h-17l4 26q40 -2 121 -2q49 0 74 2l-5 -26q-32 3 -67 -47l-10 -15l-220 -323l-37 -196q-2 -11 -2 -19.5t1 -15t4.5 -11.5t7 -8t10 -5t11.5 -3.5t14 -2t14.5 -0.5h16.5h18l-5 -26
q-26 0 -77.5 1t-76.5 1q-43 0 -129 -2l4 26h22q43 -1 56 11t20 49l38 199l-154 352q-16 35 -71 35h-10l4 26q41 -2 123 -2q22 0 65.5 1t65.5 1zM484 801q0 21 14 35t34 14q21 0 35.5 -14t14.5 -35q0 -20 -14.5 -34.5t-35.5 -14.5q-20 0 -34 14.5t-14 34.5zM284 801
q0 21 14 35t34 14q21 0 35.5 -14t14.5 -35q0 -20 -14.5 -34.5t-35.5 -14.5q-20 0 -34 14.5t-14 34.5z" />
    <glyph glyph-name="Zacute" unicode="&#x179;" horiz-adv-x="722" 
d="M21 0v8l548 652h-233q-93 0 -130 -18t-66 -95h-24l44 151h544v-8l-542 -649h316q33 0 58 7.5t31.5 12t21.5 16.5q31 25 57 106h23l-47 -183q-206 2 -309 2q-49 0 -146.5 -1t-145.5 -1zM394 737h-26l152 148q25 19 34 19q12 0 22 -10t10 -23q0 -17 -35 -39l-115 -75
q-29 -20 -42 -20z" />
    <glyph glyph-name="zacute" unicode="&#x17a;" horiz-adv-x="444" 
d="M31 55l288 296q-42 -3 -112 28q-29 12 -57 12q-18 0 -32 -11t-14 -27l5 -11q5 -12 4 -19q-3 -22 -23 -22q-13 0 -19.5 10.5t-6.5 23.5q0 25 33 58q62 64 104 64q25 0 80 -26t75 -26q18 0 27 6q3 1 4.5 3t1.5 3.5t0.5 5t0.5 5.5q2 35 28 35q19 0 19 -20q0 -9 -17 -30.5
t-35 -38.5l-260 -269q33 3 108.5 -52.5t98.5 -55.5q17 0 27 10.5t3 26.5q0 3 -7.5 18t-7.5 22t7.5 14.5t18.5 7.5q12 0 19.5 -11t7.5 -24q0 -46 -36.5 -88t-81.5 -42q-25 0 -63.5 31.5t-76 63.5t-62.5 32q-9 0 -18 -5.5t-9 -13.5q0 -11 3.5 -20t3.5 -13q0 -19 -21 -21
q-11 -1 -18.5 7t-7.5 20q0 25 18 43zM232 546h-26l152 148q25 19 34 19q12 0 22 -10t10 -23q0 -17 -35 -39l-115 -75q-29 -20 -42 -20z" />
    <glyph glyph-name="Zdotaccent" unicode="&#x17b;" horiz-adv-x="722" 
d="M21 0v8l548 652h-233q-93 0 -130 -18t-66 -95h-24l44 151h544v-8l-542 -649h316q33 0 58 7.5t31.5 12t21.5 16.5q31 25 57 106h23l-47 -183q-206 2 -309 2q-49 0 -146.5 -1t-145.5 -1zM382 801q0 21 14 35t34 14q21 0 35.5 -14t14.5 -35q0 -20 -14.5 -34.5t-35.5 -14.5
q-20 0 -34 14.5t-14 34.5z" />
    <glyph glyph-name="zdotaccent" unicode="&#x17c;" horiz-adv-x="444" 
d="M31 55l288 296q-42 -3 -112 28q-29 12 -57 12q-18 0 -32 -11t-14 -27l5 -11q5 -12 4 -19q-3 -22 -23 -22q-13 0 -19.5 10.5t-6.5 23.5q0 25 33 58q62 64 104 64q25 0 80 -26t75 -26q18 0 27 6q3 1 4.5 3t1.5 3.5t0.5 5t0.5 5.5q2 35 28 35q19 0 19 -20q0 -9 -17 -30.5
t-35 -38.5l-260 -269q33 3 108.5 -52.5t98.5 -55.5q17 0 27 10.5t3 26.5q0 3 -7.5 18t-7.5 22t7.5 14.5t18.5 7.5q12 0 19.5 -11t7.5 -24q0 -46 -36.5 -88t-81.5 -42q-25 0 -63.5 31.5t-76 63.5t-62.5 32q-9 0 -18 -5.5t-9 -13.5q0 -11 3.5 -20t3.5 -13q0 -19 -21 -21
q-11 -1 -18.5 7t-7.5 20q0 25 18 43zM225 610q0 21 14 35t34 14q21 0 35.5 -14t14.5 -35q0 -20 -14.5 -34.5t-35.5 -14.5q-20 0 -34 14.5t-14 34.5z" />
    <glyph glyph-name="Zcaron" unicode="&#x17d;" horiz-adv-x="722" 
d="M21 0v8l548 652h-233q-93 0 -130 -18t-66 -95h-24l44 151h544v-8l-542 -649h316q33 0 58 7.5t31.5 12t21.5 16.5q31 25 57 106h23l-47 -183q-206 2 -309 2q-49 0 -146.5 -1t-145.5 -1zM416 737l-88 167h33l82 -107l135 107h37l-161 -167h-38z" />
    <glyph glyph-name="zcaron" unicode="&#x17e;" horiz-adv-x="444" 
d="M31 55l288 296q-42 -3 -112 28q-29 12 -57 12q-18 0 -32 -11t-14 -27l5 -11q5 -12 4 -19q-3 -22 -23 -22q-13 0 -19.5 10.5t-6.5 23.5q0 25 33 58q62 64 104 64q25 0 80 -26t75 -26q18 0 27 6q3 1 4.5 3t1.5 3.5t0.5 5t0.5 5.5q2 35 28 35q19 0 19 -20q0 -9 -17 -30.5
t-35 -38.5l-260 -269q33 3 108.5 -52.5t98.5 -55.5q17 0 27 10.5t3 26.5q0 3 -7.5 18t-7.5 22t7.5 14.5t18.5 7.5q12 0 19.5 -11t7.5 -24q0 -46 -36.5 -88t-81.5 -42q-25 0 -63.5 31.5t-76 63.5t-62.5 32q-9 0 -18 -5.5t-9 -13.5q0 -11 3.5 -20t3.5 -13q0 -19 -21 -21
q-11 -1 -18.5 7t-7.5 20q0 25 18 43zM252 546l-88 167h33l82 -107l135 107h37l-161 -167h-38z" />
    <glyph glyph-name="florin" unicode="&#x192;" 
d="M461 449l-6 -32h-119l-72 -327q-70 -318 -188 -318q-31 0 -47.5 17t-16.5 41q0 21 9.5 31.5t22.5 10.5q34 0 34 -28q0 -5 -3.5 -14t-3.5 -13q-2 -19 19 -19q39 0 72 150l90 469h-97l7 32h98q9 44 23 84t37.5 84t60.5 70t82 26q32 0 59 -18t27 -50q0 -18 -8.5 -32.5
t-27.5 -14.5q-38 0 -38 37q0 5 2.5 16t2.5 17q0 19 -29 19q-23 0 -40.5 -18.5t-29 -52t-18 -60t-13 -64.5t-7.5 -43h118z" />
    <glyph glyph-name="Aringacute" unicode="&#x1fa;" horiz-adv-x="722" 
d="M97 93l305 540q-43 26 -43 73q0 37 29 63.5t70 26.5t70.5 -26.5t29.5 -63.5q0 -27 -17.5 -49.5t-45.5 -33.5l98 -535q9 -66 72 -62l-5 -26q-21 0 -63 1t-63 1q-36 0 -108 -2l5 26q11 -1 24 0t24.5 3.5t17.5 11.5t4 23l-30 198h-234l-82 -170q-11 -24 -11 -36
q0 -30 43 -30h30l-5 -26q-20 0 -59.5 1t-58.5 1q-30 0 -92 -2l5 26q33 -1 53 16.5t37 50.5zM420 601l-161 -298h207l-44 298h-2zM458 646q28 0 47.5 18t19.5 42q0 25 -19.5 43t-47.5 18q-27 0 -47 -18t-20 -43q0 -24 20 -42t47 -18zM437 826h-40l82 68q2 2 7.5 6.5t8 6.5
l7.5 6t9 6t9 4t10 3t10 1q14 0 25 -9t11 -19q0 -23 -19 -32z" />
    <glyph glyph-name="aringacute" unicode="&#x1fb;" horiz-adv-x="500" 
d="M312 175l1 2q-50 -75 -110 -133.5t-114 -58.5q-41 0 -58.5 25t-17.5 58q0 77 53.5 169.5t130.5 156t140 63.5q37 0 63 -33l14 32q11 20 22 20h21q9 0 9 -5l-2 -8l-99 -355q-4 -12 -4 -25q0 -14 12 -14q13 0 26 10t28 27.5t20 21.5l16 -13q-8 -8 -32 -36.5t-40 -45
t-41 -32.5t-47 -16q-13 0 -23.5 7t-10.5 21q0 20 17 73l29 91h-2l1 -2h-2zM87 128q0 -69 51 -69q45 0 98.5 56.5t88 127.5t34.5 116q0 19 -15.5 35t-34.5 16q-51 0 -104.5 -50t-85.5 -116t-32 -116zM375 757h-40l82 68q2 2 7.5 6.5t8 6.5l7.5 6t9 6t9 4t10 3t10 1
q14 0 25 -9t11 -19q0 -23 -19 -32zM362 516q-40 0 -69 29t-29 69t29 69t69 29t69 -29t29 -69t-29 -69t-69 -29zM362 548q27 0 46.5 19.5t19.5 46.5t-19.5 46.5t-46.5 19.5t-46.5 -19.5t-19.5 -46.5t19.5 -46.5t46.5 -19.5z" />
    <glyph glyph-name="AEacute" unicode="&#x1fc;" horiz-adv-x="1000" 
d="M-1 0l5 26h9q23 0 44.5 16.5t56.5 67.5l356 516q9 14 9 24q0 13 -15.5 17.5t-51.5 4.5h-14l5 26q121 -4 268 -2q40 0 121 1t122 1l-21 -139h-20v44q0 27 -15 40t-54.5 18t-124.5 5h-40l-49 -284h85q39 -1 61 8t30 37l13 48h23l-41 -227h-22l3 39q3 32 -17.5 43t-66.5 11
h-75l-33 -224q-6 -39 -6 -46q0 -21 30 -30t67 -9h53q68 0 109 27.5t58 102.5h26l-41 -162q-83 2 -249 2q-169 0 -254 -2l7 26h16q51 2 67.5 21.5t28.5 89.5l35 204h-179l-172 -269q-9 -12 -9 -23q0 -23 49 -23h15l-5 -26q-17 0 -51.5 1t-51.5 1q-32 0 -94 -2zM346 382h157
l46 270q2 12 -3 12q-2 0 -4.5 -1.5t-3.5 -2.5t-2.5 -4.5t-2.5 -4.5zM591 737h-26l152 148q25 19 34 19q12 0 22 -10t10 -23q0 -17 -35 -39l-115 -75q-29 -20 -42 -20z" />
    <glyph glyph-name="aeacute" unicode="&#x1fd;" horiz-adv-x="722" 
d="M411 417l31 64l44 8l15 -5l-38 -81h2q80 54 145 54q88 0 88 -65q0 -48 -33.5 -86.5t-85.5 -61t-101.5 -35t-94.5 -16.5q-8 -42 -8 -60q0 -94 85 -94q46 0 86.5 22t91.5 62l15 -15q-114 -123 -232 -123q-58 0 -89 31t-31 89q0 15 2 43h-2q-37 -54 -99 -108.5t-113 -54.5
q-37 -2 -52 23.5t-15 68.5q0 70 48.5 156t124.5 147.5t146 61.5q40 0 70 -25zM96 113q0 -54 46 -54q39 0 92 52.5t90 122t37 116.5q0 51 -53 51t-104 -52t-79.5 -119t-28.5 -117zM618 381q0 21 -12 32.5t-32 11.5q-62 0 -115 -68t-69 -138q44 0 95.5 19.5t92 58.5t40.5 84z
M424 546h-26l152 148q25 19 34 19q12 0 22 -10t10 -23q0 -17 -35 -39l-115 -75q-29 -20 -42 -20z" />
    <glyph glyph-name="Oslashacute" unicode="&#x1fe;" horiz-adv-x="889" 
d="M827 730l21 -26l-102 -100q80 -86 80 -206q0 -173 -114 -293t-286 -120q-142 0 -232 79l-98 -95l-24 23l98 95q-82 88 -82 228q0 166 115.5 282t279.5 116q140 0 239 -86zM219 135l459 449q-65 97 -194 97q-74 0 -133 -35t-94 -92t-53 -123.5t-18 -136.5q0 -94 33 -159z
M695 554l-458 -448q62 -89 194 -89q93 0 163 61t102 145.5t32 172.5q0 89 -33 158zM432 737h-26l152 148q25 19 34 19q12 0 22 -10t10 -23q0 -17 -35 -39l-115 -75q-29 -20 -42 -20z" />
    <glyph glyph-name="oslashacute" unicode="&#x1ff;" 
d="M508 473l20 -18l-66 -65q46 -55 46 -136q0 -107 -78.5 -188t-184.5 -81q-84 0 -135 48l-61 -61l-21 20l62 62q-42 51 -42 132q0 108 80 189.5t188 81.5q76 0 129 -48zM244 11q60 0 104 49.5t62 111t18 118.5q0 33 -7 58l-276 -280q28 -57 99 -57zM410 374q-26 57 -95 57
q-48 0 -85.5 -27.5t-58.5 -71t-32 -90t-11 -90.5q0 -28 6 -54zM284 546h-26l152 148q25 19 34 19q12 0 22 -10t10 -23q0 -17 -35 -39l-115 -75q-29 -20 -42 -20z" />
    <glyph glyph-name="Scommaaccent" unicode="&#x218;" horiz-adv-x="500" 
d="M50 203h20q1 -7 2 -27.5t2 -29t4 -24t9 -29.5q14 -35 48.5 -55.5t74.5 -20.5q58 0 97.5 33t39.5 89q0 40 -23 79.5t-55.5 73.5t-65.5 69t-56 79t-23 89q0 81 52 132.5t135 51.5q55 0 109 -18q21 -7 28 -7q5 0 8 1t6.5 4t5.5 4h17l-31 -176h-22q0 7 1 21t1 21
q0 55 -33.5 86.5t-88.5 31.5q-50 0 -79 -27.5t-29 -77.5q0 -38 24 -77t59 -74t69.5 -71t58.5 -80.5t24 -90.5q0 -84 -62.5 -141t-152.5 -57q-62 0 -145 36l-33 -30h-23zM167 -213l-11 19q30 8 56 25t26 35q0 11 -5.5 15t-22.5 4q-18 0 -28.5 10t-10.5 25q0 18 14.5 28.5
t33.5 10.5q31 0 45.5 -18t14.5 -44q0 -42 -33 -71t-79 -39z" />
    <glyph glyph-name="scommaaccent" unicode="&#x219;" horiz-adv-x="389" 
d="M37 125h13q7 -39 44.5 -59.5t82.5 -20.5q31 0 60 10t29 35q0 23 -23.5 47.5t-53 42.5t-59.5 42t-39 45q-9 18 -9 46q0 18 10.5 36.5t30.5 35.5t33.5 26.5t34.5 23.5q35 22 74 22q87 0 87 -60q0 -11 -6.5 -28t-14.5 -17h-12q-7 0 -14 15q-7 14 -32 25t-50 11
q-29 0 -52 -15t-23 -42q0 -22 18 -42.5t44.5 -37t52.5 -33.5t44 -41.5t18 -53.5q0 -44 -65 -107q-46 -46 -119 -46q-29 0 -55 5.5t-49 24t-23 48.5q0 20 23 62zM74 -213l-11 19q30 8 56 25t26 35q0 11 -5.5 15t-22.5 4q-18 0 -28.5 10t-10.5 25q0 18 14.5 28.5t33.5 10.5
q31 0 45.5 -18t14.5 -44q0 -42 -33 -71t-79 -39z" />
    <glyph glyph-name="uni021A" unicode="&#x21a;" horiz-adv-x="667" 
d="M267 104l99 553h-169q-20 0 -36 -6.5t-25 -13t-18 -23t-11.5 -22.5t-9 -26.5t-6.5 -21.5h-26l37 169h18q27 -15 58 -15h469q35 0 54 15h17l-17 -171h-26v27q0 52 -15.5 70t-63.5 18h-137l-97 -535q0 -2 -4.5 -26.5t-4.5 -30.5q0 -23 16.5 -31t56.5 -8h26l-5 -26
q-27 0 -80 1t-80 1q-44 0 -130 -2l5 26h31q34 -1 50 15.5t24 62.5zM216 -213l-11 19q30 8 56 25t26 35q0 11 -5.5 15t-22.5 4q-18 0 -28.5 10t-10.5 25q0 18 14.5 28.5t33.5 10.5q31 0 45.5 -18t14.5 -44q0 -42 -33 -71t-79 -39z" />
    <glyph glyph-name="uni021B" unicode="&#x21b;" horiz-adv-x="333" 
d="M162 442l38 126h80l-41 -126h107l-12 -41h-106l-87 -289q-6 -18 -6 -31q0 -22 20 -22q37 0 124 87l14 -17q-28 -31 -42.5 -46t-45 -43t-58.5 -41.5t-54 -13.5q-21 0 -32.5 15.5t-11.5 36.5q0 20 13 64l89 300h-98l12 41h97zM26 -213l-11 19q30 8 56 25t26 35
q0 11 -5.5 15t-22.5 4q-18 0 -28.5 10t-10.5 25q0 18 14.5 28.5t33.5 10.5q31 0 45.5 -18t14.5 -44q0 -42 -33 -71t-79 -39z" />
    <glyph glyph-name="dotlessj" unicode="&#x237;" horiz-adv-x="278" 
d="M-31 -228l-7 22q43 26 61 95l115 440q8 29 8 36q0 12 -12 12q-23 0 -71 -64l-14 14q30 45 75 87.5t83 42.5q31 0 31 -25q0 -3 -22 -85l-104 -374q-4 -14 -7.5 -25.5t-7 -21.5t-5.5 -16.5t-6.5 -15t-6 -11.5t-7 -11.5t-7 -10t-8.5 -11.5t-9 -13q-28 -40 -79 -65z" />
    <glyph glyph-name="circumflex" unicode="&#x2c6;" horiz-adv-x="278" 
d="M256 713l88 -167h-33l-82 107l-135 -107h-37l161 167h38z" />
    <glyph glyph-name="caron" unicode="&#x2c7;" horiz-adv-x="278" 
d="M169 546l-88 167h33l82 -107l135 107h37l-161 -167h-38z" />
    <glyph glyph-name="uni02C9" unicode="&#x2c9;" horiz-adv-x="278" 
d="M346 586h-259l8 47h259z" />
    <glyph glyph-name="breve" unicode="&#x2d8;" horiz-adv-x="278" 
d="M74 705h26q4 -49 32 -75t77 -26q97 0 135 101h26q-16 -71 -58 -116t-110 -45q-69 0 -99.5 44t-28.5 117z" />
    <glyph glyph-name="dotaccent" unicode="&#x2d9;" horiz-adv-x="278" 
d="M164 610q0 21 14 35t34 14q21 0 35.5 -14t14.5 -35q0 -20 -14.5 -34.5t-35.5 -14.5q-20 0 -34 14.5t-14 34.5z" />
    <glyph glyph-name="ring" unicode="&#x2da;" horiz-adv-x="278" 
d="M179 526q-41 0 -69.5 29t-28.5 69t28.5 69t69.5 29t69.5 -29t28.5 -69t-28.5 -69t-69.5 -29zM179 558q27 0 46.5 19.5t19.5 46.5t-19.5 46.5t-46.5 19.5t-46.5 -19.5t-19.5 -46.5t19.5 -46.5t46.5 -19.5z" />
    <glyph glyph-name="ogonek" unicode="&#x2db;" horiz-adv-x="278" 
d="M183 -133l18 -10q-21 -31 -50.5 -48t-54.5 -17q-78 0 -77 60q0 80 139 153h38q-111 -78 -111 -141q1 -13 10 -22t21 -9q37 0 67 34z" />
    <glyph glyph-name="tilde" unicode="&#x2dc;" horiz-adv-x="278" 
d="M61 568h-27q10 41 38.5 68.5t69.5 27.5q22 0 70 -22t62 -22q35 0 59 49h26q-5 -38 -36 -69t-69 -31q-20 0 -68 22q-54 26 -65 26q-23 0 -35.5 -11.5t-24.5 -37.5z" />
    <glyph glyph-name="hungarumlaut" unicode="&#x2dd;" horiz-adv-x="278" 
d="M75 546h-26l152 148q25 19 34 19q12 0 22 -10t10 -23q0 -17 -35 -39l-115 -75q-29 -20 -42 -20zM275 546h-26l152 148q25 19 34 19q12 0 22 -10t10 -23q0 -17 -35 -39l-115 -75q-29 -20 -42 -20z" />
    <glyph glyph-name="uni0394" unicode="&#x394;" horiz-adv-x="611" 
d="M505 0h-545l6 28q128 216 384 646q6 2 22 6.5t25 6.5q82 -477 113 -659zM393 51q-26 165 -78 493q-192 -328 -287 -493h365z" />
    <glyph glyph-name="uni03A9" unicode="&#x3a9;" horiz-adv-x="687" 
d="M584 148l28 -1l-55 -147h-233q-2 18 -3 19q3 5 9 13.5t8 11.5q45 64 69 100t59 106.5t48 129.5q14 68 14 115q0 81 -33 120t-88 39q-75 0 -132.5 -66t-88.5 -212q-10 -46 -10 -96q0 -99 49 -260l-13 -20h-231q6 98 10 147l26 1q5 -45 17 -59t42 -14h92q-103 111 -103 235
q0 31 8 73q29 139 125.5 221.5t218.5 82.5q102 0 161.5 -56.5t59.5 -158.5q0 -39 -9 -84q-31 -152 -231 -313h99q31 0 46.5 13t40.5 60z" />
    <glyph glyph-name="uni03BC" unicode="&#x3bc;" 
d="M48 82l85 258l4 20v2q0 15 -13 15q-10 0 -23 -8t-21.5 -16.5t-22 -23t-16.5 -17.5l-16 17l34 35q28 28 46 44t45.5 32.5t49.5 16.5q33 0 33 -32q0 -18 -13 -52l-90 -269q-2 -10 -2 -14q0 -10 17 -10q33 0 100.5 73t122 155t68.5 118q12 31 34 31q13 0 45 -29l-109 -326
q-3 -7 -3 -14q0 -14 15 -14q12 0 27.5 11t36 29.5t23.5 21.5l14 -14q-3 -3 -14.5 -16t-16.5 -18t-16.5 -17.5t-19 -18.5t-19 -16t-21 -15t-20.5 -10.5t-22 -8t-22 -2.5q-37 0 -37 35q0 23 19 74l65 174h-2q-5 -6 -56 -67t-87 -100t-87 -77.5t-85 -38.5q-6 -31 -13 -89
t-10 -77q0 -1 -1 -8t-1.5 -9.5t-2.5 -9t-3.5 -9t-4.5 -8t-6.5 -8t-8.5 -5.5t-11 -4t-14 -1q-16 0 -24.5 9t-8.5 23q0 22 9 59t18.5 66t27 80.5t24.5 72.5z" />
    <glyph glyph-name="pi" unicode="&#x3c0;" horiz-adv-x="549" 
d="M335 401h-113q-20 -234 -46 -351q-12 -57 -55 -68q-3 -1 -11 -1q-18 0 -33 12t-18 27q-2 12 -2 15q0 7 1.5 13t5 12t5.5 9t7 9.5t6 7.5q3 4 13.5 16t16.5 19.5t12 21.5t8 29l29 229h-47q-20 0 -38.5 -9.5t-27.5 -22.5l-21 -31h-17q24 68 45 97q37 52 94 52h373v-86h-126
q-12 -117 -12 -235q0 -50 25 -73q19 -17 40 -17q17 0 34 13q9 7 14.5 16.5t7 15.5t3 17t1.5 13h21q-1 -61 -23.5 -100.5t-48.5 -53.5q-22 -13 -47 -13q-22 0 -37 11q-32 24 -49 74q-10 29 -10 97q0 42 3 74z" />
    <glyph glyph-name="Wgrave" unicode="&#x1e80;" horiz-adv-x="1000" 
d="M348 698l-5 -26h-10q-25 0 -40 -6t-14 -24t7 -38l112 -494l137 241l-76 284q-7 19 -21 27t-44 10h-12l5 26q23 -1 65.5 -1.5t56.5 -0.5q22 -1 56 0.5t39 1.5l-5 -26h-19q-15 -1 -22 -10.5t-4 -21.5l42 -182h2l82 150q13 28 13 39q0 16 -9.5 20t-37.5 5h-9l5 26
q17 -1 48 -1.5t41 -0.5q42 -1 96 2l-5 -26h-15q-9 0 -16.5 -1.5t-13 -2.5t-11.5 -6.5t-9 -7.5t-9 -11t-7.5 -11t-8.5 -14t-8 -14l-114 -193l75 -301h2l231 480q17 36 17 55q0 16 -11.5 21t-49.5 6h-12l5 26q53 -3 101 -2q60 2 91 2l-5 -26h-8q-17 0 -30 -10t-19 -20t-19 -36
l-318 -621h-28l-85 317l-184 -317h-26l-154 650q-4 19 -18 27t-44 10h-12l5 26q23 -1 65.5 -1.5t56.5 -0.5q20 -1 58.5 0.5t53.5 1.5zM581 888l121 -151h-21q-6 0 -17 8l-117 88q-29 24 -29 39q0 11 9.5 21.5t20.5 10.5q19 0 33 -16z" />
    <glyph glyph-name="wgrave" unicode="&#x1e81;" horiz-adv-x="778" 
d="M43 315l-15 17q35 42 84 83.5t84 41.5q38 0 38 -31q0 -11 -4 -23l-94 -289q-4 -15 -4 -28q0 -21 22 -21q39 0 121 78t100 111q41 150 68 177q14 16 49 24q17 -4 32 -25q-3 -31 -18 -64q-11 -25 -49 -78l-40 -171q-4 -16 -4 -28q0 -44 40 -44q85 0 179 143q51 78 51 144
q0 12 -4 36t-4 37q0 18 14 34t32 16q42 0 42 -56q0 -61 -51 -146.5t-110 -153.5q-40 -44 -96 -79t-106 -35q-30 0 -48.5 18.5t-18.5 46.5q0 21 5 45t13.5 53t11.5 45h-2q-8 -8 -40 -40.5t-57 -56.5t-58 -52t-62 -43.5t-51 -15.5q-41 0 -41 53q0 27 9 60l71 242q2 6 2 15
q0 16 -14 16q-5 0 -13 -4.5t-18 -12.5t-18 -14.5t-17 -14.5t-11 -10zM456 697l121 -151h-21q-6 0 -17 8l-117 88q-29 24 -29 39q0 11 9.5 21.5t20.5 10.5q19 0 33 -16z" />
    <glyph glyph-name="Wacute" unicode="&#x1e82;" horiz-adv-x="1000" 
d="M348 698l-5 -26h-10q-25 0 -40 -6t-14 -24t7 -38l112 -494l137 241l-76 284q-7 19 -21 27t-44 10h-12l5 26q23 -1 65.5 -1.5t56.5 -0.5q22 -1 56 0.5t39 1.5l-5 -26h-19q-15 -1 -22 -10.5t-4 -21.5l42 -182h2l82 150q13 28 13 39q0 16 -9.5 20t-37.5 5h-9l5 26
q17 -1 48 -1.5t41 -0.5q42 -1 96 2l-5 -26h-15q-9 0 -16.5 -1.5t-13 -2.5t-11.5 -6.5t-9 -7.5t-9 -11t-7.5 -11t-8.5 -14t-8 -14l-114 -193l75 -301h2l231 480q17 36 17 55q0 16 -11.5 21t-49.5 6h-12l5 26q53 -3 101 -2q60 2 91 2l-5 -26h-8q-17 0 -30 -10t-19 -20t-19 -36
l-318 -621h-28l-85 317l-184 -317h-26l-154 650q-4 19 -18 27t-44 10h-12l5 26q23 -1 65.5 -1.5t56.5 -0.5q20 -1 58.5 0.5t53.5 1.5zM576 737h-26l152 148q25 19 34 19q12 0 22 -10t10 -23q0 -17 -35 -39l-115 -75q-29 -20 -42 -20z" />
    <glyph glyph-name="wacute" unicode="&#x1e83;" horiz-adv-x="778" 
d="M43 315l-15 17q35 42 84 83.5t84 41.5q38 0 38 -31q0 -11 -4 -23l-94 -289q-4 -15 -4 -28q0 -21 22 -21q39 0 121 78t100 111q41 150 68 177q14 16 49 24q17 -4 32 -25q-3 -31 -18 -64q-11 -25 -49 -78l-40 -171q-4 -16 -4 -28q0 -44 40 -44q85 0 179 143q51 78 51 144
q0 12 -4 36t-4 37q0 18 14 34t32 16q42 0 42 -56q0 -61 -51 -146.5t-110 -153.5q-40 -44 -96 -79t-106 -35q-30 0 -48.5 18.5t-18.5 46.5q0 21 5 45t13.5 53t11.5 45h-2q-8 -8 -40 -40.5t-57 -56.5t-58 -52t-62 -43.5t-51 -15.5q-41 0 -41 53q0 27 9 60l71 242q2 6 2 15
q0 16 -14 16q-5 0 -13 -4.5t-18 -12.5t-18 -14.5t-17 -14.5t-11 -10zM451 546h-26l152 148q25 19 34 19q12 0 22 -10t10 -23q0 -17 -35 -39l-115 -75q-29 -20 -42 -20z" />
    <glyph glyph-name="Wdieresis" unicode="&#x1e84;" horiz-adv-x="1000" 
d="M348 698l-5 -26h-10q-25 0 -40 -6t-14 -24t7 -38l112 -494l137 241l-76 284q-7 19 -21 27t-44 10h-12l5 26q23 -1 65.5 -1.5t56.5 -0.5q22 -1 56 0.5t39 1.5l-5 -26h-19q-15 -1 -22 -10.5t-4 -21.5l42 -182h2l82 150q13 28 13 39q0 16 -9.5 20t-37.5 5h-9l5 26
q17 -1 48 -1.5t41 -0.5q42 -1 96 2l-5 -26h-15q-9 0 -16.5 -1.5t-13 -2.5t-11.5 -6.5t-9 -7.5t-9 -11t-7.5 -11t-8.5 -14t-8 -14l-114 -193l75 -301h2l231 480q17 36 17 55q0 16 -11.5 21t-49.5 6h-12l5 26q53 -3 101 -2q60 2 91 2l-5 -26h-8q-17 0 -30 -10t-19 -20t-19 -36
l-318 -621h-28l-85 317l-184 -317h-26l-154 650q-4 19 -18 27t-44 10h-12l5 26q23 -1 65.5 -1.5t56.5 -0.5q20 -1 58.5 0.5t53.5 1.5zM472 801q0 21 14 35t34 14q21 0 35.5 -14t14.5 -35q0 -20 -14.5 -34.5t-35.5 -14.5q-20 0 -34 14.5t-14 34.5zM672 801q0 21 14 35t34 14
q21 0 35.5 -14t14.5 -35q0 -20 -14.5 -34.5t-35.5 -14.5q-20 0 -34 14.5t-14 34.5z" />
    <glyph glyph-name="wdieresis" unicode="&#x1e85;" horiz-adv-x="778" 
d="M43 315l-15 17q35 42 84 83.5t84 41.5q38 0 38 -31q0 -11 -4 -23l-94 -289q-4 -15 -4 -28q0 -21 22 -21q39 0 121 78t100 111q41 150 68 177q14 16 49 24q17 -4 32 -25q-3 -31 -18 -64q-11 -25 -49 -78l-40 -171q-4 -16 -4 -28q0 -44 40 -44q85 0 179 143q51 78 51 144
q0 12 -4 36t-4 37q0 18 14 34t32 16q42 0 42 -56q0 -61 -51 -146.5t-110 -153.5q-40 -44 -96 -79t-106 -35q-30 0 -48.5 18.5t-18.5 46.5q0 21 5 45t13.5 53t11.5 45h-2q-8 -8 -40 -40.5t-57 -56.5t-58 -52t-62 -43.5t-51 -15.5q-41 0 -41 53q0 27 9 60l71 242q2 6 2 15
q0 16 -14 16q-5 0 -13 -4.5t-18 -12.5t-18 -14.5t-17 -14.5t-11 -10zM362 610q0 21 14 35t34 14q21 0 35.5 -14t14.5 -35q0 -20 -14.5 -34.5t-35.5 -14.5q-20 0 -34 14.5t-14 34.5zM562 610q0 21 14 35t34 14q21 0 35.5 -14t14.5 -35q0 -20 -14.5 -34.5t-35.5 -14.5
q-20 0 -34 14.5t-14 34.5z" />
    <glyph glyph-name="Ygrave" unicode="&#x1ef2;" horiz-adv-x="667" 
d="M351 698l-5 -26h-36q-18 0 -29.5 -9t-3.5 -28l128 -303l182 285q13 20 13 34q0 21 -62 21h-17l4 26q40 -2 121 -2q49 0 74 2l-5 -26q-32 3 -67 -47l-10 -15l-220 -323l-37 -196q-2 -11 -2 -19.5t1 -15t4.5 -11.5t7 -8t10 -5t11.5 -3.5t14 -2t14.5 -0.5h16.5h18l-5 -26
q-26 0 -77.5 1t-76.5 1q-43 0 -129 -2l4 26h22q43 -1 56 11t20 49l38 199l-154 352q-16 35 -71 35h-10l4 26q41 -2 123 -2q22 0 65.5 1t65.5 1zM381 888l121 -151h-21q-6 0 -17 8l-117 88q-29 24 -29 39q0 11 9.5 21.5t20.5 10.5q19 0 33 -16z" />
    <glyph glyph-name="ygrave" unicode="&#x1ef3;" horiz-adv-x="500" 
d="M60 299l-9 -7l-24 14q0 59 26.5 105t81.5 46q40 0 68.5 -32t43 -85.5t23 -104t14.5 -108.5t10 -78l22 38.5t25.5 45.5t22 43.5t21 48.5t12.5 44t6 46q0 20 -6 44.5t-6 37.5q0 24 12.5 42t34.5 18q39 0 39 -53q0 -74 -83 -233t-149 -242q-1 -2 -16.5 -22t-20.5 -26
t-20.5 -25t-24 -27t-24.5 -21.5t-28 -19.5t-27 -11t-30 -5q-16 0 -28.5 12t-12.5 28q0 18 9.5 29.5t26.5 11.5q6 0 20 -3.5t22 -3.5q43 0 85 48l54 63l-3 52l-9 83q-7 50 -16.5 95t-23.5 92.5t-34 75.5t-43 28q-21 0 -34.5 -13t-13.5 -33t7 -38zM251 697l121 -151h-21
q-6 0 -17 8l-117 88q-29 24 -29 39q0 11 9.5 21.5t20.5 10.5q19 0 33 -16z" />
    <glyph glyph-name="endash" unicode="&#x2013;" horiz-adv-x="500" 
d="M-11 211l22 66h500l-22 -66h-500z" />
    <glyph glyph-name="emdash" unicode="&#x2014;" horiz-adv-x="1000" 
d="M-11 211l22 66h1000l-22 -66h-1000z" />
    <glyph glyph-name="quoteleft" unicode="&#x2018;" horiz-adv-x="278" 
d="M294 698l11 -20q-42 2 -85.5 -19.5t-43.5 -60.5q0 -16 7 -20.5t23.5 -9.5t29.5 -16q11 -7 11 -25q0 -28 -17 -45t-46 -17q-32 0 -49.5 26.5t-17.5 61.5q0 65 55.5 106t121.5 39z" />
    <glyph glyph-name="quoteright" unicode="&#x2019;" horiz-adv-x="278" 
d="M92 465l-11 20q42 -2 85.5 19.5t43.5 60.5q0 16 -7 20.5t-23.5 9.5t-29.5 16q-11 7 -11 25q0 28 17 45t46 17q32 0 49.5 -26.5t17.5 -61.5q0 -65 -55.5 -106t-121.5 -39z" />
    <glyph glyph-name="quotesinglbase" unicode="&#x201a;" horiz-adv-x="278" 
d="M56 -124l-11 20q42 -2 85.5 19.5t43.5 60.5q0 16 -7 20.5t-23.5 9.5t-29.5 16q-11 7 -11 25q0 28 17 45t46 17q32 0 49.5 -26.5t17.5 -61.5q0 -65 -55.5 -106t-121.5 -39z" />
    <glyph glyph-name="quotedblleft" unicode="&#x201c;" 
d="M330 698l11 -20q-42 2 -85.5 -19.5t-43.5 -60.5q0 -16 7 -20.5t23.5 -9.5t29.5 -16q11 -7 11 -25q0 -28 -17 -45t-46 -17q-32 0 -49.5 26.5t-17.5 61.5q0 65 55.5 106t121.5 39zM527 698l11 -20q-42 2 -85.5 -19.5t-43.5 -60.5q0 -16 7 -20.5t23.5 -9.5t29.5 -16
q11 -7 11 -25q0 -28 -17 -45t-46 -17q-32 0 -49.5 26.5t-17.5 61.5q0 65 55.5 106t121.5 39z" />
    <glyph glyph-name="quotedblright" unicode="&#x201d;" 
d="M137 465l-11 20q42 -2 85.5 19.5t43.5 60.5q0 16 -7 20.5t-23.5 9.5t-29.5 16q-11 7 -11 25q0 28 17 45t46 17q32 0 49.5 -26.5t17.5 -61.5q0 -65 -55.5 -106t-121.5 -39zM334 465l-11 20q42 -2 85.5 19.5t43.5 60.5q0 16 -7 20.5t-23.5 9.5t-29.5 16q-11 7 -11 25
q0 28 17 45t46 17q32 0 49.5 -26.5t17.5 -61.5q0 -65 -55.5 -106t-121.5 -39z" />
    <glyph glyph-name="quotedblbase" unicode="&#x201e;" 
d="M268 -124l-11 20q42 -2 85.5 19.5t43.5 60.5q0 16 -7 20.5t-23.5 9.5t-29.5 16q-11 7 -11 25q0 28 17 45t46 17q32 0 49.5 -26.5t17.5 -61.5q0 -65 -55.5 -106t-121.5 -39zM71 -124l-11 20q42 -2 85.5 19.5t43.5 60.5q0 16 -7 20.5t-23.5 9.5t-29.5 16q-11 7 -11 25
q0 28 17 45t46 17q32 0 49.5 -26.5t17.5 -61.5q0 -65 -55.5 -106t-121.5 -39z" />
    <glyph glyph-name="dagger" unicode="&#x2020;" 
d="M280 407l-82 2v-2h9q-2 0 -12 -1q-79 -2 -107 -5l-6 6q5 19 9 44l6 6q87 -9 159 -9h33l29 168q9 54 9 76l6 6q7 0 18 -1.5t16 -1.5q6 0 16.5 1.5t15.5 1.5l6 -6q-10 -30 -21 -76l-41 -168h26q34 0 166 9l6 -6q-9 -21 -9 -44l-6 -6q-90 6 -160 6h-32q-65 -318 -101 -518
q-9 -53 -10 -76l-6 -6q-7 0 -18 1.5t-16 1.5t-16 -1.5t-16 -1.5l-6 6q9 25 22 76q42 172 113 518z" />
    <glyph glyph-name="daggerdbl" unicode="&#x2021;" 
d="M280 409l-82 3v-3q-55 0 -110 -5l-6 6q5 20 9 43l6 6q87 -9 159 -9h33l29 167q9 54 9 75l6 6q7 0 18 -1.5t16 -1.5q6 0 16.5 1.5t15.5 1.5l6 -6q-11 -34 -21 -75l-41 -167h26q47 1 166 9l6 -6q-9 -19 -9 -43l-6 -6q-75 5 -160 5h-32l-7 -27q-16 -71 -19 -130
q-22 -58 -36 -131l-3 -26l82 2v-2q97 4 110 6l6 -6q-5 -20 -9 -43l-6 -6q-77 8 -159 8h-33l-29 -166q-9 -54 -9 -75l-6 -6q-7 0 -18 1.5t-16 1.5q-6 0 -16.5 -1.5t-15.5 -1.5l-6 6q11 34 21 75l41 166h-26q-49 0 -166 -8l-6 6q9 20 9 43l6 6q90 -6 160 -6h32l5 26
q25 110 22 131q11 20 33 130z" />
    <glyph glyph-name="bullet" unicode="&#x2022;" horiz-adv-x="500" 
d="M85 349q0 73 51 124t124 51t124 -51t51 -124t-51 -124t-124 -51t-124 51t-51 124z" />
    <glyph glyph-name="ellipsis" unicode="&#x2026;" horiz-adv-x="1000" 
d="M148 -15q-27 0 -46.5 19t-19.5 46q0 26 20 46.5t46 20.5t46 -20t20 -47t-19.5 -46t-46.5 -19zM814 -15q-27 0 -46.5 19t-19.5 46q0 26 20 46.5t46 20.5t46 -20t20 -47t-19.5 -46t-46.5 -19zM481 -15q-27 0 -46.5 19t-19.5 46q0 26 20 46.5t46 20.5t46 -20t20 -47
t-19.5 -46t-46.5 -19z" />
    <glyph glyph-name="perthousand" unicode="&#x2030;" horiz-adv-x="1000" 
d="M79 529q0 71 47 123.5t117 52.5q55 0 89 -36t34 -91q0 -70 -49.5 -127.5t-118.5 -57.5q-57 0 -88 38.5t-31 97.5zM686 121q0 71 47 123.5t117 52.5q55 0 89 -36t34 -91q0 -70 -49.5 -127.5t-118.5 -57.5q-57 0 -88 38.5t-31 97.5zM352 121q0 71 47 123.5t117 52.5
q55 0 89 -36t34 -91q0 -70 -49.5 -127.5t-118.5 -57.5q-57 0 -88 38.5t-31 97.5zM108 -23l448 736h47l-447 -736h-48zM418 79q0 -68 55 -68q33 0 57 36t33.5 77t9.5 73q0 74 -56 74q-37 0 -61 -39t-31 -79t-7 -74zM752 79q0 -68 55 -68q33 0 57 36t33.5 77t9.5 73
q0 74 -56 74q-37 0 -61 -39t-31 -79t-7 -74zM145 487q0 -68 55 -68q33 0 57 36t33.5 77t9.5 73q0 74 -56 74q-37 0 -61 -39t-31 -79t-7 -74z" />
    <glyph glyph-name="guilsinglleft" unicode="&#x2039;" horiz-adv-x="278" 
d="M262 421l15 -14l-141 -163l83 -167l-17 -10l-152 177z" />
    <glyph glyph-name="guilsinglright" unicode="&#x203a;" horiz-adv-x="278" 
d="M29 67l-15 14l141 163l-83 167l17 10l152 -177z" />
    <glyph glyph-name="fraction" unicode="&#x2044;" horiz-adv-x="167" 
d="M-146 -23l448 736h47l-447 -736h-48z" />
    <glyph glyph-name="Euro" unicode="&#x20ac;" 
d="M576 516h-21q3 13 3 26q0 63 -42 100t-101 37q-94 0 -153 -77.5t-80 -190.5h314l-14 -41h-307q-4 -32 -4 -70v-7h285l-13 -41h-270q11 -96 61 -163t141 -67q74 0 132 53l15 -18q-31 -32 -76.5 -52t-92.5 -20q-114 0 -183 76.5t-82 190.5h-72l14 41h55v9q0 30 5 68h-61
l13 41h56q30 126 114 214t198 88q39 0 72 -10t53.5 -20t29.5 -10q14 0 32 16h11z" />
    <glyph glyph-name="afii61289" unicode="&#x2113;" horiz-adv-x="473" 
d="M367 133q13 -13 18 -21q-92 -125 -210 -125q-78 0 -106 43q-16 29 -16 70q0 34 10 80q6 28 9 41q-68 -43 -69 -44q-1 3 -2.5 9.5t-3 11.5t-3.5 9q11 8 41 28t46 31q30 138 42.5 191t32.5 112.5t43 91.5q33 46 73.5 72t75.5 26q39 0 58.5 -26t19.5 -70q0 -25 -6 -52
q-36 -171 -230 -324q-23 -112 -23 -145q0 -12 4 -30q3 -58 62 -58q64 0 134 79zM231 476l-30 -135q58 58 101 132t56 151q5 28 5 45q0 54 -31 54q-28 0 -50.5 -55.5t-50.5 -191.5z" />
    <glyph glyph-name="trademark" unicode="&#x2122;" horiz-adv-x="990" 
d="M696 294l-149 304h-2v-219q0 -34 10 -47.5t43 -17.5v-20h-131v20q32 4 42 17.5t10 47.5v249q-9 22 -28 35.5t-41 13.5v21h121l154 -309l160 309h103v-21q-30 -1 -41.5 -14t-11.5 -40v-270q0 -23 7.5 -28.5t41.5 -10.5v-20h-172v20q34 5 41.5 10.5t7.5 28.5v247h-2
l-152 -306h-11zM271 678v-325q0 -23 7.5 -28.5t41.5 -10.5v-20h-172v20q34 5 41.5 10.5t7.5 28.5v325h-48q-52 0 -67 -68h-20v88h344v-88h-20q-15 68 -66 68h-49z" />
    <glyph glyph-name="Omega" unicode="&#x2126;" horiz-adv-x="687" 
d="M584 148l28 -1l-55 -147h-233q-2 18 -3 19q3 5 9 13.5t8 11.5q45 64 69 100t59 106.5t48 129.5q14 68 14 115q0 81 -33 120t-88 39q-75 0 -132.5 -66t-88.5 -212q-10 -46 -10 -96q0 -99 49 -260l-13 -20h-231q6 98 10 147l26 1q5 -45 17 -59t42 -14h92q-103 111 -103 235
q0 31 8 73q29 139 125.5 221.5t218.5 82.5q102 0 161.5 -56.5t59.5 -158.5q0 -39 -9 -84q-31 -152 -231 -313h99q31 0 46.5 13t40.5 60z" />
    <glyph glyph-name="estimated" unicode="&#x212e;" horiz-adv-x="742" 
d="M698 340h-511v-230q75 -75 183 -75q79 0 138 36.5t106 115.5q8 -5 22 -13.5t22 -12.5q-58 -92 -123.5 -131.5t-164.5 -39.5q-146 0 -236 100t-90 250t90 250t236 100q145 0 235.5 -97.5t92.5 -252.5zM187 386h368v183q-79 76 -186 76q-108 0 -182 -76v-183z" />
    <glyph glyph-name="onethird" unicode="&#x2153;" horiz-adv-x="834" 
d="M174 -23l448 736h47l-447 -736h-48zM241 651l-106 -49l-10 15l176 88l6 -3l-69 -356q-5 -19 -5 -31q0 -13 27 -14h52l-4 -18h-106q-72 0 -109 -1l4 19q16 1 46 1q28 0 31 23zM553 210l3 20q40 2 79.5 27.5t39.5 62.5v4q0 29 -16.5 48t-47.5 19q-8 0 -16 -1.5t-13.5 -3.5
t-14 -6.5t-11.5 -7t-12.5 -9t-12.5 -8.5l-11 11q34 30 60 43.5t62 13.5q43 0 71 -21.5t28 -57.5q0 -46 -32.5 -72.5t-85.5 -44.5v-2q105 -12 105 -95q0 -58 -54.5 -98.5t-121.5 -40.5q-61 0 -101 25l-7 34l27 8q21 -47 74 -47q44 0 76.5 35t32.5 78q0 42 -23.5 64.5
t-61.5 22.5q-11 0 -16 -1z" />
    <glyph glyph-name="twothirds" unicode="&#x2154;" horiz-adv-x="834" 
d="M174 -23l448 736h47l-447 -736h-48zM241 651l-106 -49l-10 15l176 88l6 -3l-69 -356q-5 -19 -5 -31q0 -13 27 -14h52l-4 -18h-106q-72 0 -109 -1l4 19q16 1 46 1q28 0 31 23zM553 210l3 20q40 2 79.5 27.5t39.5 62.5v4q0 29 -16.5 48t-47.5 19q-8 0 -16 -1.5t-13.5 -3.5
t-14 -6.5t-11.5 -7t-12.5 -9t-12.5 -8.5l-11 11q34 30 60 43.5t62 13.5q43 0 71 -21.5t28 -57.5q0 -46 -32.5 -72.5t-85.5 -44.5v-2q105 -12 105 -95q0 -58 -54.5 -98.5t-121.5 -40.5q-61 0 -101 25l-7 34l27 8q21 -47 74 -47q44 0 76.5 35t32.5 78q0 42 -23.5 64.5
t-61.5 22.5q-11 0 -16 -1z" />
    <glyph glyph-name="oneeighth" unicode="&#x215b;" horiz-adv-x="834" 
d="M168 -23l448 736h47l-447 -736h-48zM228 651l-106 -49l-10 15l176 88l12 -3l-69 -356q-5 -19 -5 -31q0 -13 27 -14h52l-4 -18h-112q-72 0 -109 -1l4 19q16 1 46 1q28 0 31 23zM480 84q0 46 28 75t77 50q-57 51 -57 109q0 47 33.5 81.5t85.5 34.5q42 0 74.5 -25.5
t32.5 -66.5q0 -43 -25.5 -70.5t-69.5 -51.5q31 -29 45.5 -52.5t14.5 -60.5q0 -53 -37.5 -84.5t-94.5 -31.5q-42 0 -74.5 26t-32.5 67zM529 83q0 -29 16.5 -47t45.5 -18q33 0 53 19.5t20 52.5q0 40 -62 102q-73 -50 -73 -109zM580 338q0 -40 63 -105q63 47 63 104
q0 70 -61 70q-27 0 -46 -20.5t-19 -48.5z" />
    <glyph glyph-name="threeeighths" unicode="&#x215c;" horiz-adv-x="834" 
d="M166 492l3 20q40 2 80 27.5t39 63.5q1 30 -15.5 50t-48.5 20q-8 0 -16 -1.5t-13.5 -3.5t-14 -6.5t-11.5 -7t-12.5 -9t-12.5 -8.5l-11 11q34 30 60 43.5t62 13.5q43 0 71 -21.5t28 -57.5q0 -46 -32.5 -72.5t-85.5 -44.5v-2q105 -12 105 -95q0 -58 -54.5 -98.5
t-121.5 -40.5q-61 0 -101 25l-7 34l27 8q21 -47 74 -47q44 0 76.5 35t32.5 78q0 46 -28.5 68.5t-72.5 17.5zM190 -23l448 736h47l-447 -736h-48zM502 84q0 46 28 75t77 50q-57 51 -57 109q0 47 33.5 81.5t85.5 34.5q42 0 74.5 -25.5t32.5 -66.5q0 -43 -25.5 -70.5
t-69.5 -51.5q31 -29 45.5 -52.5t14.5 -60.5q0 -53 -37.5 -84.5t-94.5 -31.5q-42 0 -74.5 26t-32.5 67zM551 83q0 -29 16.5 -47t45.5 -18q33 0 53 19.5t20 52.5q0 40 -62 102q-73 -50 -73 -109zM602 338q0 -40 63 -105q63 47 63 104q0 70 -61 70q-27 0 -46 -20.5t-19 -48.5z
" />
    <glyph glyph-name="fiveeighths" unicode="&#x215d;" horiz-adv-x="834" 
d="M179 -23l448 736h47l-447 -736h-48zM491 84q0 46 28 75t77 50q-57 51 -57 109q0 47 33.5 81.5t85.5 34.5q42 0 74.5 -25.5t32.5 -66.5q0 -43 -25.5 -70.5t-69.5 -51.5q31 -29 45.5 -52.5t14.5 -60.5q0 -53 -37.5 -84.5t-94.5 -31.5q-42 0 -74.5 26t-32.5 67zM540 83
q0 -29 16.5 -47t45.5 -18q33 0 53 19.5t20 52.5q0 40 -62 102q-73 -50 -73 -109zM591 338q0 -40 63 -105q63 47 63 104q0 70 -61 70q-27 0 -46 -20.5t-19 -48.5zM357 649h-132q-1 -2 -5.5 -13t-7.5 -17q-2 -4 -12 -29q113 -75 113 -168q0 -63 -41 -106.5t-106 -43.5
q-61 0 -91 33l-6 29l32 12q15 -28 31 -39t43 -11q39 0 61 30.5t22 69.5q0 48 -30.5 86t-78.5 62l66 162h161z" />
    <glyph glyph-name="seveneighths" unicode="&#x215e;" horiz-adv-x="834" 
d="M145 -23l448 736h47l-447 -736h-48zM457 84q0 46 28 75t77 50q-57 51 -57 109q0 47 33.5 81.5t85.5 34.5q42 0 74.5 -25.5t32.5 -66.5q0 -43 -25.5 -70.5t-69.5 -51.5q31 -29 45.5 -52.5t14.5 -60.5q0 -53 -37.5 -84.5t-94.5 -31.5q-42 0 -74.5 26t-32.5 67zM506 83
q0 -29 16.5 -47t45.5 -18q33 0 53 19.5t20 52.5q0 40 -62 102q-73 -50 -73 -109zM557 338q0 -40 63 -105q63 47 63 104q0 70 -61 70q-27 0 -46 -20.5t-19 -48.5zM102 623l23 83h279v-11l-258 -429l-32 17l223 366h-196l-16 -26h-23z" />
    <glyph glyph-name="partialdiff" unicode="&#x2202;" horiz-adv-x="511" 
d="M257 423q80 0 113 -62q19 90 21 101q5 37 5 66q0 22 -3 45q-2 23 -7 43q-10 32 -31.5 54.5t-52.5 27.5q-5 1 -14 1q-13 0 -37 -4q-56 -13 -105 -53q-10 1 -19 17.5t-9 34.5v6q3 23 60 35q38 11 80 11q13 0 35 -2q109 -14 153 -138q23 -64 23 -146q0 -36 -5 -71
q-8 -64 -28 -127.5t-51.5 -122.5t-79.5 -99t-105 -48q-24 -2 -37 -2h-13q-64 5 -100 46.5t-36 111.5q0 20 3 41q14 103 83 168.5t157 65.5zM276 381q-66 0 -113 -75t-55 -171l-1 -15q0 -7 2 -21q7 -78 63 -78q41 0 79 48.5t61.5 110t42.5 135.5q-7 24 -28.5 45t-50.5 21z
" />
    <glyph glyph-name="Delta" unicode="&#x2206;" horiz-adv-x="611" 
d="M505 0h-545l6 28q128 216 384 646q6 2 22 6.5t25 6.5q82 -477 113 -659zM393 51q-26 165 -78 493q-192 -328 -287 -493h365z" />
    <glyph glyph-name="product" unicode="&#x220f;" horiz-adv-x="720" 
d="M695 748v-29q-59 -4 -72 -16.5t-13 -59.5v-662q0 -51 13.5 -65t70.5 -18v-28h-259v28q51 4 63 16.5t12 64.5v701q0 20 -6 25.5t-28 5.5h-231q-21 0 -27 -5t-6 -25v-700q0 -52 10 -65t59 -18v-28h-252v28q56 4 69.5 17.5t13.5 65.5v662q0 47 -13.5 59.5t-73.5 16.5v29h670
z" />
    <glyph glyph-name="summation" unicode="&#x2211;" horiz-adv-x="621" 
d="M596 61q-8 -35 -22.5 -100t-20.5 -91h-530v28q107 198 209 385l-204 437v28h525q2 -44 11 -162l-29 -6q-13 61 -33 98q-12 21 -30 28t-68 7h-253l167 -366l-211 -392h325q63 0 83.5 17t50.5 97q20 -6 30 -8z" />
    <glyph glyph-name="minus" unicode="&#x2212;" 
d="M499 188h-442v66h442v-66z" />
    <glyph glyph-name="uni2215" unicode="&#x2215;" horiz-adv-x="167" 
d="M-146 -23l448 736h47l-447 -736h-48z" />
    <glyph glyph-name="uni2219" unicode="&#x2219;" horiz-adv-x="278" 
d="M205 295q0 -26 -19.5 -46t-45.5 -20q-28 0 -47.5 19.5t-19.5 46.5q0 28 19.5 47t46.5 19t46.5 -19.5t19.5 -46.5z" />
    <glyph glyph-name="radical" unicode="&#x221a;" horiz-adv-x="538" 
d="M458 800l42 -10q-53 -303 -157 -911q-12 -4 -25 -11l-203 537q-28 -13 -82 -37l-12 34q22 10 76.5 34.5t83.5 38.5l149 -414h2z" />
    <glyph glyph-name="infinity" unicode="&#x221e;" horiz-adv-x="733" 
d="M543 118q-32 0 -65 16.5t-52.5 33.5t-50.5 47l-9 9q-26 -26 -40.5 -39t-39.5 -32t-51 -27t-54 -8q-62 0 -101.5 41t-39.5 105q0 60 42.5 103t106.5 43q35 0 71.5 -19.5t53 -34.5t53.5 -51q35 34 55 51.5t57 35.5t73 18q62 0 102 -41t40 -105q0 -60 -43.5 -103t-107.5 -43
zM545 175q37 0 63 26.5t26 62.5q0 39 -24.5 64.5t-61.5 25.5q-27 0 -57.5 -17t-43.5 -29.5t-43 -42.5q7 -6 23.5 -23t26.5 -25.5t26 -20t32 -16.5t33 -5zM187 175q26 0 55 16t45.5 31t41.5 42l-23 23t-27 25.5t-25.5 19.5t-32 17t-32.5 5q-38 0 -64 -26.5t-26 -63.5
q0 -38 25 -63.5t63 -25.5z" />
    <glyph glyph-name="integral" unicode="&#x222b;" horiz-adv-x="373" 
d="M156 58q-4 40 -13 171.5t-9 200.5v21q2 342 160 342q23 0 43 -13t20 -35q0 -23 -14 -35.5t-33 -12.5q-18 0 -30.5 25t-22.5 25q-38 0 -38 -104q0 -5 10.5 -124t10.5 -252v-73q-6 -333 -160 -333q-28 0 -46 13.5t-18 36.5q0 22 17.5 36t38.5 14q16 0 28.5 -26.5
t21.5 -26.5q16 0 25.5 28t9.5 76q0 34 -1 46z" />
    <glyph glyph-name="approxequal" unicode="&#x2248;" 
d="M473 411l36 -50q-20 -27 -33 -42t-38 -29.5t-54 -14.5q-39 0 -106 33t-111 33q-52 0 -84 -70l-36 50q45 86 125 86q45 0 117 -33t96 -33q27 0 46.5 18t41.5 52zM473 241l36 -50q-20 -27 -33 -42t-38 -29.5t-54 -14.5q-39 0 -106 33t-111 33q-52 0 -84 -70l-36 50
q45 86 125 86q45 0 117 -33t96 -33q27 0 46.5 18t41.5 52z" />
    <glyph glyph-name="notequal" unicode="&#x2260;" 
d="M443 456l-58 -102h114v-66h-152l-75 -134h227v-66h-265l-74 -132l-57 32l56 100h-102v66h140l76 134h-216v66h253l76 134z" />
    <glyph glyph-name="lessequal" unicode="&#x2264;" 
d="M499 176v-71l-442 193v66l442 193v-71l-366 -155zM57 0v66h442v-66h-442z" />
    <glyph glyph-name="greaterequal" unicode="&#x2265;" 
d="M57 176v-71l442 193v66l-442 193v-71l366 -155zM499 0v66h-442v-66h442z" />
    <glyph glyph-name="lozenge" unicode="&#x25ca;" horiz-adv-x="512" 
d="M462 330l-175 -360h-63l-174 360q116 242 174 362h63q32 -65 91 -187.5t84 -174.5zM392 328q-10 22 -55 118.5t-68 149.5q-6 12 -14 32h-2q-1 -8 -7 -20q-33 -67 -126 -277l112 -244q23 -48 24 -53h2l9 22q25 53 70.5 152.5t54.5 119.5z" />
    <glyph glyph-name="grave.cap" unicode="&#xe000;" horiz-adv-x="278" 
d="M151 888l121 -151h-21q-6 0 -17 8l-117 88q-29 24 -29 39q0 11 9.5 21.5t20.5 10.5q19 0 33 -16z" />
    <glyph glyph-name="acute.cap" unicode="&#xe002;" horiz-adv-x="278" 
d="M174 737h-26l152 148q25 19 34 19q12 0 22 -10t10 -23q0 -17 -35 -39l-115 -75q-29 -20 -42 -20z" />
    <glyph glyph-name="circumflex.cap" unicode="&#xe004;" horiz-adv-x="278" 
d="M256 904l88 -167h-33l-82 107l-135 -107h-37l161 167h38z" />
    <glyph glyph-name="caron.cap" unicode="&#xe006;" horiz-adv-x="278" 
d="M169 737l-88 167h33l82 -107l135 107h37l-161 -167h-38z" />
    <glyph glyph-name="caron.alt" unicode="&#xe008;" horiz-adv-x="278" 
d="M80 539h-20l38 140q11 38 37 38q36 0 36 -30q0 -19 -13 -39z" />
    <glyph glyph-name="tilde.cap" unicode="&#xe009;" horiz-adv-x="278" 
d="M61 759h-27q10 41 38.5 68.5t69.5 27.5q22 0 70 -22t62 -22q35 0 59 49h26q-5 -38 -36 -69t-69 -31q-20 0 -68 22q-54 26 -65 26q-23 0 -35.5 -11.5t-24.5 -37.5z" />
    <glyph glyph-name="dieresis.cap" unicode="&#xe00b;" horiz-adv-x="278" 
d="M64 801q0 21 14 35t34 14q21 0 35.5 -14t14.5 -35q0 -20 -14.5 -34.5t-35.5 -14.5q-20 0 -34 14.5t-14 34.5zM264 801q0 21 14 35t34 14q21 0 35.5 -14t14.5 -35q0 -20 -14.5 -34.5t-35.5 -14.5q-20 0 -34 14.5t-14 34.5z" />
    <glyph glyph-name="macron.cap" unicode="&#xe00d;" horiz-adv-x="278" 
d="M346 777h-259l8 47h259z" />
    <glyph glyph-name="breve.cap" unicode="&#xe00f;" horiz-adv-x="278" 
d="M74 896h26q4 -49 32 -75t77 -26q97 0 135 101h26q-16 -71 -58 -116t-110 -45q-69 0 -99.5 44t-28.5 117z" />
    <glyph glyph-name="ring.cap" unicode="&#xe011;" horiz-adv-x="278" 
d="M179 731q-41 0 -69.5 28.5t-28.5 69.5t28.5 69.5t69.5 28.5t69.5 -28.5t28.5 -69.5t-28.5 -69.5t-69.5 -28.5zM179 763q27 0 46.5 19.5t19.5 46.5t-19.5 46.5t-46.5 19.5t-46.5 -19.5t-19.5 -46.5t19.5 -46.5t46.5 -19.5z" />
    <glyph glyph-name="hungarumlaut.cap" unicode="&#xe013;" horiz-adv-x="278" 
d="M75 737h-26l152 148q25 19 34 19q12 0 22 -10t10 -23q0 -17 -35 -39l-115 -75q-29 -20 -42 -20zM275 737h-26l152 148q25 19 34 19q12 0 22 -10t10 -23q0 -17 -35 -39l-115 -75q-29 -20 -42 -20z" />
    <glyph glyph-name="dotaccent.cap" unicode="&#xe015;" horiz-adv-x="278" 
d="M164 801q0 21 14 35t34 14q21 0 35.5 -14t14.5 -35q0 -20 -14.5 -34.5t-35.5 -14.5q-20 0 -34 14.5t-14 34.5z" />
    <glyph glyph-name="commaaccent" unicode="&#xe017;" horiz-adv-x="278" 
d="M65 -213l-11 19q30 8 56 25t26 35q0 11 -5.5 15t-22.5 4q-18 0 -28.5 10t-10.5 25q0 18 14.5 28.5t33.5 10.5q31 0 45.5 -18t14.5 -44q0 -42 -33 -71t-79 -39z" />
    <glyph glyph-name="commaaccent.alt" unicode="&#xe01a;" horiz-adv-x="278" 
d="M174 719l11 -19q-30 -8 -56 -25t-26 -35q0 -11 5.5 -15t22.5 -4q18 0 28.5 -10t10.5 -25q0 -18 -14.5 -28.5t-33.5 -10.5q-31 0 -45.5 18t-14.5 44q0 42 33 71t79 39z" />
    <glyph glyph-name="uniF8FF" unicode="&#xf8ff;" horiz-adv-x="485" 
d="M263 111h-53v63h53v-63zM257 222h-46v16q0 50 11 74.5t46 56.5q28 27 37 44t9 36q0 33 -21 56.5t-51 23.5q-67 0 -77 -90q-8 2 -24 4.5t-24 3.5q7 66 41 98t87 32q52 0 85 -34t33 -90q0 -32 -12.5 -56.5t-47.5 -56.5t-40.5 -47.5t-5.5 -70.5zM47 47h391v585h-391v-585z
M0 680h485v-680h-485v680z" />
    <glyph glyph-name="zero.onum" 
d="M75 160q0 53 14.5 103.5t43 95t77.5 71.5t112 27q68 0 113.5 -44.5t45.5 -131.5q0 -53 -14.5 -103.5t-43 -94.5t-77.5 -71t-112 -27q-68 0 -113.5 44t-45.5 131zM134 161q0 -71 29.5 -103t78.5 -32q76 0 128 75t52 180q0 70 -29.5 102.5t-78.5 32.5q-76 0 -128 -75
t-52 -180z" />
    <glyph glyph-name="one.onum" 
d="M80 0l3 26h40q49 0 65.5 10t22.5 40l54 277q5 27 5 39q0 14 -16 19t-55 5h-48l3 26q112 -2 169 -2q25 0 76 1t77 1l-3 -26h-43q-47 0 -61 -7.5t-19 -31.5l-58 -303q-2 -7 -2 -19q0 -29 75 -29h48l-3 -26q-27 0 -83.5 1t-84.5 1q-54 0 -162 -2z" />
    <glyph glyph-name="two.onum" 
d="M45 0v16q129 88 206 161.5t77 138.5q0 36 -21.5 58.5t-56.5 22.5q-45 0 -85 -29l-39 -26l-14 18l30 28q80 69 149 69q57 0 90 -29t33 -79q0 -54 -40 -102t-125 -113l-77 -57l2 -3h260l22 40l23 -7l-25 -107q-32 0 -101.5 1t-103.5 1q-35 0 -104 -1t-100 -1z" />
    <glyph glyph-name="three.onum" 
d="M135 117l-5 27q74 20 141 73t67 112q0 34 -22.5 54t-57.5 20q-50 0 -90 -34l-26 -22l-14 21l39 32q69 57 139 57q54 0 83 -26.5t29 -71.5q0 -49 -38 -92.5t-88 -69.5l-44 -22l2 -2q44 4 48 4q49 0 81.5 -34t32.5 -84q0 -62 -49.5 -129.5t-127 -112.5t-151.5 -45
q-27 0 -43 11.5t-16 29.5q0 11 7.5 17.5t17.5 6.5q17 0 37.5 -12t42.5 -12q62 0 129 64t67 151q0 52 -29 80t-75 28q-40 0 -87 -19z" />
    <glyph glyph-name="four.onum" 
d="M17 0v27l378 430h32l-48 -391h102l-8 -66h-102l-27 -218q-1 0 -16 1.5t-22 1.5q-3 0 -36 -3l27 218h-280zM305 66l35 282l-2 2l-244 -284h211z" />
    <glyph glyph-name="five.onum" 
d="M457 368h-222l-26 -58q67 -45 108.5 -101.5t41.5 -140.5q0 -117 -90 -206.5t-194 -89.5q-53 0 -53 33q0 28 28 28q7 0 27 -10t48 -10q58 0 109 60t51 151q0 66 -34.5 124.5t-102.5 97.5l87 196h244z" />
    <glyph glyph-name="six.onum" 
d="M527 663l3 -22l-31 -11q-80 -31 -145.5 -90.5t-105 -127.5t-61 -136t-21.5 -125t20.5 -98.5t72.5 -41.5q50 0 88 51t38 135q0 114 -91 114q-33 0 -72 -24l5 27q56 38 97 38q64 0 105.5 -39.5t41.5 -112.5q0 -90 -64 -152.5t-151 -62.5q-78 0 -127 57t-49 139
q0 112 68.5 216.5t169.5 172.5t209 93z" />
    <glyph glyph-name="seven.onum" 
d="M71 317l31 125h418l-6 -19l-421 -651l-35 13l375 577h-313l-25 -51z" />
    <glyph glyph-name="eight.onum" 
d="M202 302l41 22l-38 47q-50 62 -50 120q0 67 49 118.5t141 51.5q72 0 116 -33.5t44 -100.5q0 -65 -34.5 -104t-90.5 -68l-33 -17l37 -42q63 -76 63 -138q0 -82 -59 -127.5t-136 -45.5q-81 0 -126 43.5t-45 109.5q0 103 121 164zM264 303l-32 -17q-37 -20 -61 -59t-24 -95
q0 -55 27.5 -88t78.5 -33q45 0 79.5 30t34.5 79q0 38 -15 68t-46 66zM327 359l31 17q37 21 59 58.5t22 84.5q0 53 -25.5 84.5t-74.5 31.5q-48 0 -79 -30.5t-31 -82.5q0 -54 53 -113z" />
    <glyph glyph-name="nine.onum" 
d="M30 -221l-3 22l31 11q80 31 145.5 90.5t105 127.5t61 136t21.5 125t-20.5 98.5t-72.5 41.5q-50 0 -88 -51t-38 -135q0 -114 91 -114q33 0 72 24l-5 -27q-56 -38 -97 -38q-64 0 -105.5 39.5t-41.5 112.5q0 90 64 152.5t151 62.5q78 0 127 -57t49 -139q0 -112 -68.5 -216.5
t-169.5 -172.5t-209 -93z" />
    </font>
</defs>
</svg>
